<svg width="375" height="812" viewBox="0 0 375 812" fill="none" xmlns="http://www.w3.org/2000/svg">
<g clip-path="url(#clip0)">
<rect width="375" height="812" fill="white"/>
<path d="M53.988 249H48.516L42.936 223.8H48.3L51.72 240.9L56.652 223.8H61.548L66.444 240.828L69.864 223.8H75.048L69.468 249H63.996L58.992 231.396L53.988 249ZM92.9943 246.66C91.8423 247.596 90.6543 248.28 89.4303 248.712C88.2303 249.144 86.8863 249.36 85.3983 249.36C83.9823 249.36 82.6503 249.108 81.4023 248.604C80.1783 248.1 79.1103 247.416 78.1983 246.552C77.3103 245.688 76.6023 244.668 76.0743 243.492C75.5703 242.292 75.3183 241.008 75.3183 239.64C75.3183 238.296 75.5583 237.036 76.0383 235.86C76.5423 234.66 77.2263 233.628 78.0903 232.764C78.9543 231.876 79.9743 231.18 81.1503 230.676C82.3503 230.172 83.6223 229.92 84.9663 229.92C86.2863 229.92 87.5103 230.184 88.6383 230.712C89.7903 231.216 90.7743 231.912 91.5903 232.8C92.4303 233.688 93.0783 234.756 93.5343 236.004C94.0143 237.228 94.2543 238.56 94.2543 240V241.296H80.2863C80.6223 242.472 81.2703 243.42 82.2303 244.14C83.1903 244.86 84.3183 245.22 85.6143 245.22C86.4303 245.22 87.1983 245.088 87.9183 244.824C88.6383 244.56 89.2503 244.188 89.7543 243.708L92.9943 246.66ZM84.8583 233.988C83.7303 233.988 82.7583 234.336 81.9423 235.032C81.1263 235.704 80.5623 236.616 80.2503 237.768H89.4303C89.1183 236.664 88.5423 235.764 87.7023 235.068C86.8863 234.348 85.9383 233.988 84.8583 233.988ZM102.208 222.72V249H97.276V223.8L102.208 222.72ZM115.245 245.04C116.085 245.04 116.865 244.872 117.585 244.536C118.329 244.2 119.037 243.672 119.709 242.952L122.661 246.012C121.701 247.068 120.549 247.896 119.205 248.496C117.861 249.072 116.469 249.36 115.029 249.36C113.661 249.36 112.365 249.108 111.141 248.604C109.941 248.1 108.897 247.416 108.009 246.552C107.145 245.688 106.461 244.668 105.957 243.492C105.453 242.292 105.201 241.008 105.201 239.64C105.201 238.272 105.453 237 105.957 235.824C106.461 234.624 107.145 233.592 108.009 232.728C108.897 231.84 109.941 231.144 111.141 230.64C112.365 230.136 113.661 229.884 115.029 229.884C116.517 229.884 117.945 230.184 119.313 230.784C120.681 231.36 121.845 232.176 122.805 233.232L119.781 236.436C119.109 235.692 118.389 235.128 117.621 234.744C116.853 234.36 116.025 234.168 115.137 234.168C113.721 234.168 112.521 234.696 111.537 235.752C110.577 236.808 110.097 238.104 110.097 239.64C110.097 241.176 110.589 242.46 111.573 243.492C112.581 244.524 113.805 245.04 115.245 245.04ZM123.658 239.64C123.658 238.272 123.91 237 124.414 235.824C124.942 234.624 125.65 233.592 126.538 232.728C127.45 231.84 128.518 231.144 129.742 230.64C130.966 230.136 132.274 229.884 133.666 229.884C135.058 229.884 136.366 230.136 137.59 230.64C138.814 231.144 139.87 231.84 140.758 232.728C141.67 233.592 142.378 234.624 142.882 235.824C143.41 237 143.674 238.272 143.674 239.64C143.674 241.008 143.41 242.292 142.882 243.492C142.378 244.668 141.67 245.688 140.758 246.552C139.87 247.416 138.814 248.1 137.59 248.604C136.366 249.108 135.058 249.36 133.666 249.36C132.274 249.36 130.966 249.108 129.742 248.604C128.518 248.1 127.45 247.416 126.538 246.552C125.65 245.688 124.942 244.668 124.414 243.492C123.91 242.292 123.658 241.008 123.658 239.64ZM133.666 245.076C135.106 245.076 136.33 244.548 137.338 243.492C138.346 242.436 138.85 241.152 138.85 239.64C138.85 238.104 138.346 236.808 137.338 235.752C136.33 234.696 135.106 234.168 133.666 234.168C132.226 234.168 131.002 234.696 129.994 235.752C128.986 236.808 128.482 238.104 128.482 239.64C128.482 241.152 128.986 242.436 129.994 243.492C131.002 244.548 132.226 245.076 133.666 245.076ZM146.706 249V230.244H151.638V231.648C152.31 231.072 153.054 230.64 153.87 230.352C154.686 230.04 155.574 229.884 156.534 229.884C157.734 229.884 158.814 230.136 159.774 230.64C160.758 231.12 161.562 231.804 162.186 232.692C162.93 231.78 163.83 231.084 164.886 230.604C165.942 230.124 167.106 229.884 168.378 229.884C170.466 229.884 172.182 230.58 173.526 231.972C174.87 233.364 175.542 235.152 175.542 237.336V249H170.61V238.056C170.61 236.88 170.286 235.932 169.638 235.212C169.014 234.492 168.162 234.132 167.082 234.132C166.338 234.132 165.654 234.3 165.03 234.636C164.43 234.948 163.914 235.404 163.482 236.004C163.506 236.22 163.53 236.436 163.554 236.652C163.578 236.868 163.59 237.096 163.59 237.336V249H158.658V238.056C158.658 236.88 158.334 235.932 157.686 235.212C157.062 234.492 156.21 234.132 155.13 234.132C154.386 234.132 153.726 234.276 153.15 234.564C152.574 234.852 152.07 235.272 151.638 235.824V249H146.706ZM196.143 246.66C194.991 247.596 193.803 248.28 192.579 248.712C191.379 249.144 190.035 249.36 188.547 249.36C187.131 249.36 185.799 249.108 184.551 248.604C183.327 248.1 182.259 247.416 181.347 246.552C180.459 245.688 179.751 244.668 179.223 243.492C178.719 242.292 178.467 241.008 178.467 239.64C178.467 238.296 178.707 237.036 179.187 235.86C179.691 234.66 180.375 233.628 181.239 232.764C182.103 231.876 183.123 231.18 184.299 230.676C185.499 230.172 186.771 229.92 188.115 229.92C189.435 229.92 190.659 230.184 191.787 230.712C192.939 231.216 193.923 231.912 194.739 232.8C195.579 233.688 196.227 234.756 196.683 236.004C197.163 237.228 197.403 238.56 197.403 240V241.296H183.435C183.771 242.472 184.419 243.42 185.379 244.14C186.339 244.86 187.467 245.22 188.763 245.22C189.579 245.22 190.347 245.088 191.067 244.824C191.787 244.56 192.399 244.188 192.903 243.708L196.143 246.66ZM188.007 233.988C186.879 233.988 185.907 234.336 185.091 235.032C184.275 235.704 183.711 236.616 183.399 237.768H192.579C192.267 236.664 191.691 235.764 190.851 235.068C190.035 234.348 189.087 233.988 188.007 233.988ZM199.803 244.968H204.915L201.027 254.436H197.319L199.803 244.968Z" fill="#15191C"/>
<path d="M57.9785 288.408C57.9785 287.283 57.5801 286.416 56.7832 285.807C55.998 285.197 54.5742 284.582 52.5117 283.961C50.4492 283.34 48.8086 282.648 47.5898 281.887C45.2578 280.422 44.0918 278.512 44.0918 276.156C44.0918 274.094 44.9297 272.395 46.6055 271.059C48.293 269.723 50.4785 269.055 53.1621 269.055C54.9434 269.055 56.5312 269.383 57.9258 270.039C59.3203 270.695 60.416 271.633 61.2129 272.852C62.0098 274.059 62.4082 275.4 62.4082 276.877H57.9785C57.9785 275.541 57.5566 274.498 56.7129 273.748C55.8809 272.986 54.6855 272.605 53.127 272.605C51.6738 272.605 50.543 272.916 49.7344 273.537C48.9375 274.158 48.5391 275.025 48.5391 276.139C48.5391 277.076 48.9727 277.861 49.8398 278.494C50.707 279.115 52.1367 279.725 54.1289 280.322C56.1211 280.908 57.7207 281.582 58.9277 282.344C60.1348 283.094 61.0195 283.961 61.582 284.945C62.1445 285.918 62.4258 287.061 62.4258 288.373C62.4258 290.506 61.6055 292.205 59.9648 293.471C58.3359 294.725 56.1211 295.352 53.3203 295.352C51.4688 295.352 49.7637 295.012 48.2051 294.332C46.6582 293.641 45.4512 292.691 44.584 291.484C43.7285 290.277 43.3008 288.871 43.3008 287.266H47.748C47.748 288.719 48.2285 289.844 49.1895 290.641C50.1504 291.438 51.5273 291.836 53.3203 291.836C54.8672 291.836 56.0273 291.525 56.8008 290.904C57.5859 290.271 57.9785 289.439 57.9785 288.408ZM70.459 295H66.1875V275.98H70.459V295ZM65.9238 271.041C65.9238 270.385 66.1289 269.84 66.5391 269.406C66.9609 268.973 67.5586 268.756 68.332 268.756C69.1055 268.756 69.7031 268.973 70.125 269.406C70.5469 269.84 70.7578 270.385 70.7578 271.041C70.7578 271.686 70.5469 272.225 70.125 272.658C69.7031 273.08 69.1055 273.291 68.332 273.291C67.5586 273.291 66.9609 273.08 66.5391 272.658C66.1289 272.225 65.9238 271.686 65.9238 271.041ZM74.3789 285.35C74.3789 282.396 75.0703 280.041 76.4531 278.283C77.8477 276.514 79.6934 275.629 81.9902 275.629C84.1582 275.629 85.8633 276.385 87.1055 277.896L87.2988 275.98H91.1484V294.42C91.1484 296.916 90.3691 298.885 88.8105 300.326C87.2637 301.768 85.1719 302.488 82.5352 302.488C81.1406 302.488 79.7754 302.195 78.4395 301.609C77.1152 301.035 76.1074 300.279 75.416 299.342L77.4375 296.775C78.75 298.334 80.3672 299.113 82.2891 299.113C83.707 299.113 84.8262 298.727 85.6465 297.953C86.4668 297.191 86.877 296.066 86.877 294.578V293.295C85.6465 294.666 84.0059 295.352 81.9551 295.352C79.7285 295.352 77.9062 294.467 76.4883 292.697C75.082 290.928 74.3789 288.479 74.3789 285.35ZM78.6328 285.719C78.6328 287.629 79.0195 289.135 79.793 290.236C80.5781 291.326 81.6621 291.871 83.0449 291.871C84.7676 291.871 86.0449 291.133 86.877 289.656V281.289C86.0684 279.848 84.8027 279.127 83.0801 279.127C81.6738 279.127 80.5781 279.684 79.793 280.797C79.0195 281.91 78.6328 283.551 78.6328 285.719ZM99.5156 275.98L99.6387 278.178C101.045 276.479 102.891 275.629 105.176 275.629C109.137 275.629 111.152 277.896 111.223 282.432V295H106.951V282.678C106.951 281.471 106.688 280.58 106.16 280.006C105.645 279.42 104.795 279.127 103.611 279.127C101.889 279.127 100.605 279.906 99.7617 281.465V295H95.4902V275.98H99.5156ZM129.1 295H124.828V275.98H129.1V295ZM124.564 271.041C124.564 270.385 124.77 269.84 125.18 269.406C125.602 268.973 126.199 268.756 126.973 268.756C127.746 268.756 128.344 268.973 128.766 269.406C129.188 269.84 129.398 270.385 129.398 271.041C129.398 271.686 129.188 272.225 128.766 272.658C128.344 273.08 127.746 273.291 126.973 273.291C126.199 273.291 125.602 273.08 125.18 272.658C124.77 272.225 124.564 271.686 124.564 271.041ZM137.73 275.98L137.854 278.178C139.26 276.479 141.105 275.629 143.391 275.629C147.352 275.629 149.367 277.896 149.438 282.432V295H145.166V282.678C145.166 281.471 144.902 280.58 144.375 280.006C143.859 279.42 143.01 279.127 141.826 279.127C140.104 279.127 138.82 279.906 137.977 281.465V295H133.705V275.98H137.73ZM168.123 271.357V275.98H171.48V279.145H168.123V289.762C168.123 290.488 168.264 291.016 168.545 291.344C168.838 291.66 169.354 291.818 170.092 291.818C170.584 291.818 171.082 291.76 171.586 291.643V294.947C170.613 295.217 169.676 295.352 168.773 295.352C165.492 295.352 163.852 293.541 163.852 289.92V279.145H160.723V275.98H163.852V271.357H168.123ZM173.432 285.314C173.432 283.451 173.801 281.775 174.539 280.287C175.277 278.787 176.314 277.639 177.65 276.842C178.986 276.033 180.521 275.629 182.256 275.629C184.822 275.629 186.902 276.455 188.496 278.107C190.102 279.76 190.969 281.951 191.098 284.682L191.115 285.684C191.115 287.559 190.752 289.234 190.025 290.711C189.311 292.188 188.279 293.33 186.932 294.139C185.596 294.947 184.049 295.352 182.291 295.352C179.607 295.352 177.457 294.461 175.84 292.68C174.234 290.887 173.432 288.502 173.432 285.525V285.314ZM177.703 285.684C177.703 287.641 178.107 289.176 178.916 290.289C179.725 291.391 180.85 291.941 182.291 291.941C183.732 291.941 184.852 291.379 185.648 290.254C186.457 289.129 186.861 287.482 186.861 285.314C186.861 283.393 186.445 281.869 185.613 280.744C184.793 279.619 183.674 279.057 182.256 279.057C180.861 279.057 179.754 279.613 178.934 280.727C178.113 281.828 177.703 283.48 177.703 285.684ZM211.506 291.941C212.572 291.941 213.457 291.631 214.16 291.01C214.863 290.389 215.238 289.621 215.285 288.707H219.311C219.264 289.891 218.895 290.998 218.203 292.029C217.512 293.049 216.574 293.857 215.391 294.455C214.207 295.053 212.93 295.352 211.559 295.352C208.898 295.352 206.789 294.49 205.23 292.768C203.672 291.045 202.893 288.666 202.893 285.631V285.191C202.893 282.297 203.666 279.982 205.213 278.248C206.76 276.502 208.869 275.629 211.541 275.629C213.803 275.629 215.643 276.291 217.061 277.615C218.49 278.928 219.24 280.656 219.311 282.801H215.285C215.238 281.711 214.863 280.814 214.16 280.111C213.469 279.408 212.584 279.057 211.506 279.057C210.123 279.057 209.057 279.561 208.307 280.568C207.557 281.564 207.176 283.082 207.164 285.121V285.807C207.164 287.869 207.533 289.41 208.271 290.43C209.021 291.438 210.1 291.941 211.506 291.941ZM221.736 285.314C221.736 283.451 222.105 281.775 222.844 280.287C223.582 278.787 224.619 277.639 225.955 276.842C227.291 276.033 228.826 275.629 230.561 275.629C233.127 275.629 235.207 276.455 236.801 278.107C238.406 279.76 239.273 281.951 239.402 284.682L239.42 285.684C239.42 287.559 239.057 289.234 238.33 290.711C237.615 292.188 236.584 293.33 235.236 294.139C233.9 294.947 232.354 295.352 230.596 295.352C227.912 295.352 225.762 294.461 224.145 292.68C222.539 290.887 221.736 288.502 221.736 285.525V285.314ZM226.008 285.684C226.008 287.641 226.412 289.176 227.221 290.289C228.029 291.391 229.154 291.941 230.596 291.941C232.037 291.941 233.156 291.379 233.953 290.254C234.762 289.129 235.166 287.482 235.166 285.314C235.166 283.393 234.75 281.869 233.918 280.744C233.098 279.619 231.979 279.057 230.561 279.057C229.166 279.057 228.059 279.613 227.238 280.727C226.418 281.828 226.008 283.48 226.008 285.684ZM246.996 275.98L247.119 278.178C248.525 276.479 250.371 275.629 252.656 275.629C256.617 275.629 258.633 277.896 258.703 282.432V295H254.432V282.678C254.432 281.471 254.168 280.58 253.641 280.006C253.125 279.42 252.275 279.127 251.092 279.127C249.369 279.127 248.086 279.906 247.242 281.465V295H242.971V275.98H246.996ZM268.424 271.357V275.98H271.781V279.145H268.424V289.762C268.424 290.488 268.564 291.016 268.846 291.344C269.139 291.66 269.654 291.818 270.393 291.818C270.885 291.818 271.383 291.76 271.887 291.643V294.947C270.914 295.217 269.977 295.352 269.074 295.352C265.793 295.352 264.152 293.541 264.152 289.92V279.145H261.023V275.98H264.152V271.357H268.424ZM279.604 295H275.332V275.98H279.604V295ZM275.068 271.041C275.068 270.385 275.273 269.84 275.684 269.406C276.105 268.973 276.703 268.756 277.477 268.756C278.25 268.756 278.848 268.973 279.27 269.406C279.691 269.84 279.902 270.385 279.902 271.041C279.902 271.686 279.691 272.225 279.27 272.658C278.848 273.08 278.25 273.291 277.477 273.291C276.703 273.291 276.105 273.08 275.684 272.658C275.273 272.225 275.068 271.686 275.068 271.041ZM288.234 275.98L288.357 278.178C289.764 276.479 291.609 275.629 293.895 275.629C297.855 275.629 299.871 277.896 299.941 282.432V295H295.67V282.678C295.67 281.471 295.406 280.58 294.879 280.006C294.363 279.42 293.514 279.127 292.33 279.127C290.607 279.127 289.324 279.906 288.48 281.465V295H284.209V275.98H288.234ZM315.832 293.137C314.578 294.613 312.797 295.352 310.488 295.352C308.426 295.352 306.861 294.748 305.795 293.541C304.74 292.334 304.213 290.588 304.213 288.303V275.98H308.484V288.25C308.484 290.664 309.486 291.871 311.49 291.871C313.564 291.871 314.965 291.127 315.691 289.639V275.98H319.963V295H315.938L315.832 293.137ZM332.689 295.352C329.982 295.352 327.785 294.502 326.098 292.803C324.422 291.092 323.584 288.818 323.584 285.982V285.455C323.584 283.557 323.947 281.863 324.674 280.375C325.412 278.875 326.443 277.709 327.768 276.877C329.092 276.045 330.568 275.629 332.197 275.629C334.787 275.629 336.785 276.455 338.191 278.107C339.609 279.76 340.318 282.098 340.318 285.121V286.844H327.891C328.02 288.414 328.541 289.656 329.455 290.57C330.381 291.484 331.541 291.941 332.936 291.941C334.893 291.941 336.486 291.15 337.717 289.568L340.02 291.766C339.258 292.902 338.238 293.787 336.961 294.42C335.695 295.041 334.271 295.352 332.689 295.352ZM332.18 279.057C331.008 279.057 330.059 279.467 329.332 280.287C328.617 281.107 328.16 282.25 327.961 283.715H336.1V283.398C336.006 281.969 335.625 280.891 334.957 280.164C334.289 279.426 333.363 279.057 332.18 279.057Z" fill="#DEE1EA"/>
<line x1="44" y1="416" x2="375" y2="416" stroke="#3839D4" stroke-width="2"/>
<line x1="44" y1="516" x2="375" y2="516" stroke="#3839D4" stroke-width="2"/>
<rect x="42" y="601" width="293" height="60" rx="4" fill="#3839D4"/>
<path d="M165.699 636.633H173.445V639H162.734V621.938H165.699V636.633ZM174.91 632.543C174.91 631.301 175.156 630.184 175.648 629.191C176.141 628.191 176.832 627.426 177.723 626.895C178.613 626.355 179.637 626.086 180.793 626.086C182.504 626.086 183.891 626.637 184.953 627.738C186.023 628.84 186.602 630.301 186.688 632.121L186.699 632.789C186.699 634.039 186.457 635.156 185.973 636.141C185.496 637.125 184.809 637.887 183.91 638.426C183.02 638.965 181.988 639.234 180.816 639.234C179.027 639.234 177.594 638.641 176.516 637.453C175.445 636.258 174.91 634.668 174.91 632.684V632.543ZM177.758 632.789C177.758 634.094 178.027 635.117 178.566 635.859C179.105 636.594 179.855 636.961 180.816 636.961C181.777 636.961 182.523 636.586 183.055 635.836C183.594 635.086 183.863 633.988 183.863 632.543C183.863 631.262 183.586 630.246 183.031 629.496C182.484 628.746 181.738 628.371 180.793 628.371C179.863 628.371 179.125 628.742 178.578 629.484C178.031 630.219 177.758 631.32 177.758 632.789ZM188.609 632.566C188.609 630.598 189.07 629.027 189.992 627.855C190.922 626.676 192.152 626.086 193.684 626.086C195.129 626.086 196.266 626.59 197.094 627.598L197.223 626.32H199.789V638.613C199.789 640.277 199.27 641.59 198.23 642.551C197.199 643.512 195.805 643.992 194.047 643.992C193.117 643.992 192.207 643.797 191.316 643.406C190.434 643.023 189.762 642.52 189.301 641.895L190.648 640.184C191.523 641.223 192.602 641.742 193.883 641.742C194.828 641.742 195.574 641.484 196.121 640.969C196.668 640.461 196.941 639.711 196.941 638.719V637.863C196.121 638.777 195.027 639.234 193.66 639.234C192.176 639.234 190.961 638.645 190.016 637.465C189.078 636.285 188.609 634.652 188.609 632.566ZM191.445 632.812C191.445 634.086 191.703 635.09 192.219 635.824C192.742 636.551 193.465 636.914 194.387 636.914C195.535 636.914 196.387 636.422 196.941 635.438V629.859C196.402 628.898 195.559 628.418 194.41 628.418C193.473 628.418 192.742 628.789 192.219 629.531C191.703 630.273 191.445 631.367 191.445 632.812ZM205.754 639H202.906V626.32H205.754V639ZM202.73 623.027C202.73 622.59 202.867 622.227 203.141 621.938C203.422 621.648 203.82 621.504 204.336 621.504C204.852 621.504 205.25 621.648 205.531 621.938C205.812 622.227 205.953 622.59 205.953 623.027C205.953 623.457 205.812 623.816 205.531 624.105C205.25 624.387 204.852 624.527 204.336 624.527C203.82 624.527 203.422 624.387 203.141 624.105C202.867 623.816 202.73 623.457 202.73 623.027ZM211.508 626.32L211.59 627.785C212.527 626.652 213.758 626.086 215.281 626.086C217.922 626.086 219.266 627.598 219.312 630.621V639H216.465V630.785C216.465 629.98 216.289 629.387 215.938 629.004C215.594 628.613 215.027 628.418 214.238 628.418C213.09 628.418 212.234 628.938 211.672 629.977V639H208.824V626.32H211.508Z" fill="white"/>
<path d="M253.48 537.933H249.543V542H247.492V532.047H253.973V533.708H249.543V536.278H253.48V537.933ZM254.574 538.233C254.574 537.5 254.715 536.846 254.998 536.271C255.281 535.697 255.686 535.253 256.215 534.938C256.748 534.624 257.366 534.467 258.067 534.467C259.065 534.467 259.879 534.772 260.508 535.383C261.141 535.993 261.494 536.823 261.567 537.871L261.581 538.377C261.581 539.512 261.264 540.423 260.631 541.111C259.997 541.795 259.147 542.137 258.081 542.137C257.015 542.137 256.162 541.795 255.524 541.111C254.891 540.428 254.574 539.498 254.574 538.322V538.233ZM256.55 538.377C256.55 539.079 256.682 539.617 256.946 539.99C257.211 540.359 257.589 540.544 258.081 540.544C258.56 540.544 258.933 540.362 259.202 539.997C259.471 539.628 259.605 539.04 259.605 538.233C259.605 537.545 259.471 537.012 259.202 536.634C258.933 536.256 258.555 536.066 258.067 536.066C257.584 536.066 257.211 536.256 256.946 536.634C256.682 537.007 256.55 537.589 256.55 538.377ZM266.954 536.456C266.685 536.42 266.448 536.401 266.243 536.401C265.496 536.401 265.006 536.654 264.773 537.16V542H262.798V534.604H264.664L264.719 535.485C265.115 534.806 265.664 534.467 266.366 534.467C266.585 534.467 266.79 534.496 266.981 534.556L266.954 536.456ZM267.487 538.247C267.487 537.112 267.756 536.199 268.294 535.506C268.836 534.813 269.565 534.467 270.481 534.467C271.293 534.467 271.924 534.745 272.375 535.301L272.457 534.604H274.248V541.754C274.248 542.401 274.1 542.964 273.804 543.442C273.512 543.921 273.1 544.285 272.566 544.536C272.033 544.787 271.409 544.912 270.693 544.912C270.151 544.912 269.622 544.803 269.107 544.584C268.592 544.37 268.203 544.092 267.938 543.75L268.813 542.547C269.306 543.098 269.903 543.374 270.604 543.374C271.129 543.374 271.536 543.233 271.828 542.95C272.12 542.672 272.266 542.276 272.266 541.761V541.364C271.81 541.879 271.211 542.137 270.468 542.137C269.579 542.137 268.859 541.79 268.308 541.098C267.761 540.4 267.487 539.478 267.487 538.329V538.247ZM269.463 538.391C269.463 539.061 269.597 539.587 269.866 539.97C270.135 540.348 270.504 540.537 270.974 540.537C271.575 540.537 272.006 540.312 272.266 539.86V536.75C272.001 536.299 271.575 536.073 270.987 536.073C270.513 536.073 270.14 536.267 269.866 536.654C269.597 537.042 269.463 537.62 269.463 538.391ZM275.465 538.233C275.465 537.5 275.606 536.846 275.889 536.271C276.171 535.697 276.577 535.253 277.105 534.938C277.639 534.624 278.256 534.467 278.958 534.467C279.956 534.467 280.77 534.772 281.398 535.383C282.032 535.993 282.385 536.823 282.458 537.871L282.472 538.377C282.472 539.512 282.155 540.423 281.521 541.111C280.888 541.795 280.038 542.137 278.972 542.137C277.905 542.137 277.053 541.795 276.415 541.111C275.782 540.428 275.465 539.498 275.465 538.322V538.233ZM277.44 538.377C277.44 539.079 277.573 539.617 277.837 539.99C278.101 540.359 278.479 540.544 278.972 540.544C279.45 540.544 279.824 540.362 280.093 539.997C280.362 539.628 280.496 539.04 280.496 538.233C280.496 537.545 280.362 537.012 280.093 536.634C279.824 536.256 279.446 536.066 278.958 536.066C278.475 536.066 278.101 536.256 277.837 536.634C277.573 537.007 277.44 537.589 277.44 538.377ZM286.054 532.785V534.604H287.318V536.053H286.054V539.744C286.054 540.018 286.106 540.214 286.211 540.332C286.316 540.451 286.516 540.51 286.812 540.51C287.031 540.51 287.225 540.494 287.394 540.462V541.959C287.006 542.077 286.607 542.137 286.197 542.137C284.812 542.137 284.105 541.437 284.078 540.038V536.053H282.998V534.604H284.078V532.785H286.054ZM298.563 538.37C298.563 539.509 298.304 540.423 297.784 541.111C297.269 541.795 296.572 542.137 295.692 542.137C294.945 542.137 294.341 541.877 293.881 541.357V544.844H291.905V534.604H293.737L293.806 535.328C294.284 534.754 294.909 534.467 295.679 534.467C296.59 534.467 297.299 534.804 297.805 535.479C298.311 536.153 298.563 537.083 298.563 538.268V538.37ZM296.588 538.227C296.588 537.538 296.465 537.007 296.219 536.634C295.977 536.26 295.624 536.073 295.159 536.073C294.539 536.073 294.113 536.31 293.881 536.784V539.812C294.122 540.3 294.553 540.544 295.173 540.544C296.116 540.544 296.588 539.771 296.588 538.227ZM304.08 542C303.989 541.822 303.923 541.601 303.882 541.337C303.403 541.87 302.781 542.137 302.016 542.137C301.291 542.137 300.689 541.927 300.211 541.508C299.737 541.089 299.5 540.56 299.5 539.922C299.5 539.138 299.789 538.536 300.368 538.117C300.951 537.698 301.792 537.486 302.891 537.481H303.8V537.058C303.8 536.716 303.711 536.442 303.533 536.237C303.36 536.032 303.084 535.93 302.706 535.93C302.373 535.93 302.111 536.009 301.92 536.169C301.733 536.328 301.64 536.547 301.64 536.825H299.664C299.664 536.397 299.796 536 300.061 535.636C300.325 535.271 300.699 534.986 301.182 534.781C301.665 534.572 302.207 534.467 302.809 534.467C303.72 534.467 304.442 534.697 304.976 535.157C305.513 535.613 305.782 536.256 305.782 537.085V540.291C305.787 540.993 305.885 541.524 306.076 541.884V542H304.08ZM302.446 540.626C302.738 540.626 303.007 540.562 303.253 540.435C303.499 540.302 303.681 540.127 303.8 539.908V538.637H303.062C302.073 538.637 301.546 538.979 301.482 539.662L301.476 539.778C301.476 540.024 301.562 540.227 301.735 540.387C301.909 540.546 302.146 540.626 302.446 540.626ZM311.306 539.956C311.306 539.715 311.185 539.525 310.943 539.389C310.706 539.247 310.324 539.122 309.795 539.013C308.036 538.644 307.156 537.896 307.156 536.771C307.156 536.114 307.427 535.567 307.97 535.13C308.517 534.688 309.23 534.467 310.109 534.467C311.048 534.467 311.798 534.688 312.358 535.13C312.924 535.572 313.206 536.146 313.206 536.853H311.23C311.23 536.57 311.139 536.338 310.957 536.155C310.775 535.968 310.49 535.875 310.103 535.875C309.77 535.875 309.512 535.95 309.33 536.101C309.148 536.251 309.057 536.442 309.057 536.675C309.057 536.894 309.159 537.071 309.364 537.208C309.574 537.34 309.925 537.456 310.417 537.557C310.909 537.652 311.324 537.762 311.661 537.885C312.705 538.268 313.227 538.931 313.227 539.874C313.227 540.549 312.937 541.095 312.358 541.515C311.78 541.929 311.032 542.137 310.116 542.137C309.496 542.137 308.945 542.027 308.462 541.809C307.983 541.585 307.607 541.282 307.334 540.899C307.061 540.512 306.924 540.095 306.924 539.648H308.797C308.815 539.999 308.945 540.268 309.187 540.455C309.428 540.642 309.752 540.735 310.157 540.735C310.535 540.735 310.82 540.665 311.012 540.523C311.208 540.378 311.306 540.188 311.306 539.956ZM318.511 539.956C318.511 539.715 318.39 539.525 318.148 539.389C317.911 539.247 317.529 539.122 317 539.013C315.241 538.644 314.361 537.896 314.361 536.771C314.361 536.114 314.632 535.567 315.175 535.13C315.722 534.688 316.435 534.467 317.314 534.467C318.253 534.467 319.003 534.688 319.563 535.13C320.129 535.572 320.411 536.146 320.411 536.853H318.436C318.436 536.57 318.344 536.338 318.162 536.155C317.98 535.968 317.695 535.875 317.308 535.875C316.975 535.875 316.717 535.95 316.535 536.101C316.353 536.251 316.262 536.442 316.262 536.675C316.262 536.894 316.364 537.071 316.569 537.208C316.779 537.34 317.13 537.456 317.622 537.557C318.114 537.652 318.529 537.762 318.866 537.885C319.91 538.268 320.432 538.931 320.432 539.874C320.432 540.549 320.142 541.095 319.563 541.515C318.985 541.929 318.237 542.137 317.321 542.137C316.701 542.137 316.15 542.027 315.667 541.809C315.188 541.585 314.812 541.282 314.539 540.899C314.266 540.512 314.129 540.095 314.129 539.648H316.002C316.02 539.999 316.15 540.268 316.392 540.455C316.633 540.642 316.957 540.735 317.362 540.735C317.741 540.735 318.025 540.665 318.217 540.523C318.413 540.378 318.511 540.188 318.511 539.956ZM328.143 539.313L329.113 534.604H331.021L329.134 542H327.479L326.078 537.345L324.677 542H323.029L321.143 534.604H323.05L324.014 539.307L325.367 534.604H326.796L328.143 539.313ZM331.697 538.233C331.697 537.5 331.839 536.846 332.121 536.271C332.404 535.697 332.809 535.253 333.338 534.938C333.871 534.624 334.489 534.467 335.19 534.467C336.188 534.467 337.002 534.772 337.631 535.383C338.264 535.993 338.618 536.823 338.69 537.871L338.704 538.377C338.704 539.512 338.387 540.423 337.754 541.111C337.12 541.795 336.271 542.137 335.204 542.137C334.138 542.137 333.285 541.795 332.647 541.111C332.014 540.428 331.697 539.498 331.697 538.322V538.233ZM333.673 538.377C333.673 539.079 333.805 539.617 334.069 539.99C334.334 540.359 334.712 540.544 335.204 540.544C335.683 540.544 336.056 540.362 336.325 539.997C336.594 539.628 336.729 539.04 336.729 538.233C336.729 537.545 336.594 537.012 336.325 536.634C336.056 536.256 335.678 536.066 335.19 536.066C334.707 536.066 334.334 536.256 334.069 536.634C333.805 537.007 333.673 537.589 333.673 538.377ZM344.077 536.456C343.808 536.42 343.571 536.401 343.366 536.401C342.619 536.401 342.129 536.654 341.896 537.16V542H339.921V534.604H341.787L341.842 535.485C342.238 534.806 342.787 534.467 343.489 534.467C343.708 534.467 343.913 534.496 344.104 534.556L344.077 536.456ZM344.59 538.247C344.59 537.094 344.847 536.176 345.362 535.492C345.882 534.809 346.59 534.467 347.488 534.467C348.208 534.467 348.803 534.736 349.272 535.273V531.5H351.255V542H349.471L349.375 541.214C348.883 541.829 348.249 542.137 347.475 542.137C346.604 542.137 345.905 541.795 345.376 541.111C344.852 540.423 344.59 539.468 344.59 538.247ZM346.565 538.391C346.565 539.083 346.686 539.614 346.928 539.983C347.169 540.353 347.52 540.537 347.98 540.537C348.591 540.537 349.022 540.28 349.272 539.765V536.846C349.026 536.331 348.6 536.073 347.994 536.073C347.042 536.073 346.565 536.846 346.565 538.391ZM354.399 538.944C354.399 538.306 354.477 537.798 354.632 537.42C354.787 537.042 355.069 536.67 355.479 536.306C355.894 535.937 356.17 535.638 356.307 535.41C356.443 535.178 356.512 534.934 356.512 534.679C356.512 533.909 356.156 533.523 355.445 533.523C355.108 533.523 354.837 533.628 354.632 533.838C354.431 534.043 354.326 534.328 354.317 534.692H352.335C352.344 533.822 352.624 533.141 353.176 532.648C353.732 532.156 354.488 531.91 355.445 531.91C356.411 531.91 357.161 532.145 357.694 532.614C358.228 533.079 358.494 533.738 358.494 534.59C358.494 534.977 358.408 535.344 358.234 535.69C358.061 536.032 357.758 536.413 357.325 536.832L356.771 537.358C356.425 537.691 356.227 538.081 356.177 538.527L356.149 538.944H354.399ZM354.201 541.043C354.201 540.738 354.304 540.487 354.509 540.291C354.718 540.09 354.985 539.99 355.309 539.99C355.632 539.99 355.896 540.09 356.102 540.291C356.311 540.487 356.416 540.738 356.416 541.043C356.416 541.344 356.313 541.592 356.108 541.788C355.908 541.984 355.641 542.082 355.309 542.082C354.976 542.082 354.707 541.984 354.502 541.788C354.301 541.592 354.201 541.344 354.201 541.043Z" fill="#3839D4"/>
<path d="M166.952 709.296C165.505 708.88 164.45 708.37 163.788 707.767C163.132 707.157 162.804 706.407 162.804 705.517C162.804 704.509 163.205 703.677 164.008 703.021C164.816 702.358 165.865 702.027 167.154 702.027C168.033 702.027 168.815 702.197 169.501 702.537C170.192 702.877 170.726 703.346 171.101 703.943C171.481 704.541 171.672 705.194 171.672 705.903H169.976C169.976 705.13 169.729 704.523 169.237 704.084C168.745 703.639 168.051 703.416 167.154 703.416C166.322 703.416 165.672 703.601 165.203 703.97C164.74 704.333 164.509 704.84 164.509 705.49C164.509 706.012 164.729 706.454 165.168 706.817C165.613 707.175 166.366 707.503 167.427 707.802C168.493 708.101 169.325 708.432 169.923 708.795C170.526 709.152 170.972 709.571 171.259 710.052C171.552 710.532 171.698 711.098 171.698 711.748C171.698 712.785 171.294 713.617 170.485 714.244C169.677 714.865 168.596 715.176 167.242 715.176C166.363 715.176 165.543 715.009 164.781 714.675C164.02 714.335 163.431 713.872 163.015 713.286C162.604 712.7 162.399 712.035 162.399 711.291H164.096C164.096 712.064 164.38 712.677 164.948 713.128C165.522 713.573 166.287 713.796 167.242 713.796C168.133 713.796 168.815 713.614 169.29 713.251C169.765 712.888 170.002 712.393 170.002 711.766C170.002 711.139 169.782 710.655 169.343 710.315C168.903 709.97 168.106 709.63 166.952 709.296ZM175.381 715H173.755V705.49H175.381V715ZM173.623 702.968C173.623 702.704 173.702 702.481 173.86 702.3C174.024 702.118 174.265 702.027 174.581 702.027C174.897 702.027 175.138 702.118 175.302 702.3C175.466 702.481 175.548 702.704 175.548 702.968C175.548 703.231 175.466 703.451 175.302 703.627C175.138 703.803 174.897 703.891 174.581 703.891C174.265 703.891 174.024 703.803 173.86 703.627C173.702 703.451 173.623 703.231 173.623 702.968ZM177.604 710.166C177.604 708.684 177.947 707.506 178.633 706.633C179.318 705.754 180.227 705.314 181.357 705.314C182.518 705.314 183.423 705.725 184.073 706.545L184.152 705.49H185.638V714.771C185.638 716.002 185.271 716.972 184.539 717.681C183.812 718.39 182.834 718.744 181.604 718.744C180.918 718.744 180.247 718.598 179.591 718.305C178.935 718.012 178.434 717.61 178.088 717.101L178.932 716.125C179.629 716.986 180.481 717.417 181.489 717.417C182.28 717.417 182.896 717.194 183.335 716.749C183.78 716.304 184.003 715.677 184.003 714.868V714.051C183.353 714.801 182.465 715.176 181.34 715.176C180.227 715.176 179.324 714.728 178.633 713.831C177.947 712.935 177.604 711.713 177.604 710.166ZM179.239 710.351C179.239 711.423 179.459 712.267 179.898 712.882C180.338 713.491 180.953 713.796 181.744 713.796C182.77 713.796 183.522 713.33 184.003 712.398V708.057C183.505 707.148 182.758 706.694 181.762 706.694C180.971 706.694 180.353 707.002 179.907 707.617C179.462 708.232 179.239 709.144 179.239 710.351ZM189.637 705.49L189.689 706.686C190.416 705.771 191.365 705.314 192.537 705.314C194.547 705.314 195.561 706.448 195.578 708.716V715H193.952V708.707C193.946 708.021 193.788 707.515 193.478 707.187C193.173 706.858 192.695 706.694 192.045 706.694C191.518 706.694 191.055 706.835 190.656 707.116C190.258 707.397 189.947 707.767 189.725 708.224V715H188.099V705.49H189.637ZM208.366 714.06C207.733 714.804 206.805 715.176 205.58 715.176C204.566 715.176 203.793 714.883 203.26 714.297C202.732 713.705 202.466 712.832 202.46 711.678V705.49H204.086V711.634C204.086 713.075 204.672 713.796 205.844 713.796C207.086 713.796 207.912 713.333 208.322 712.407V705.49H209.948V715H208.401L208.366 714.06ZM220.46 710.351C220.46 711.798 220.129 712.964 219.467 713.849C218.805 714.733 217.908 715.176 216.777 715.176C215.623 715.176 214.715 714.81 214.053 714.077V718.656H212.427V705.49H213.912L213.991 706.545C214.653 705.725 215.573 705.314 216.751 705.314C217.894 705.314 218.796 705.745 219.458 706.606C220.126 707.468 220.46 708.666 220.46 710.201V710.351ZM218.834 710.166C218.834 709.094 218.605 708.247 218.148 707.626C217.691 707.005 217.064 706.694 216.268 706.694C215.283 706.694 214.545 707.131 214.053 708.004V712.548C214.539 713.415 215.283 713.849 216.285 713.849C217.064 713.849 217.683 713.541 218.14 712.926C218.603 712.305 218.834 711.385 218.834 710.166Z" fill="#3839D4"/>
<g clip-path="url(#clip1)">
<path d="M95.5423 168.9C101.557 168.9 106.429 160.215 106.429 149.5V149.532V139.801H67.9822V183.578C67.9822 187.784 72.1505 191.199 77.3085 191.199H106.429" stroke="#FF9D00" stroke-width="2" stroke-miterlimit="10"/>
<path d="M76.2616 196.517H55.4964C49.4628 196.517 44.5713 192.376 44.5713 187.268V143.732C44.5713 138.624 49.4628 134.483 55.4964 134.483H76.2807C82.3142 134.483 87.2057 138.624 87.2057 143.732V187.284C87.1867 192.376 82.2952 196.517 76.2616 196.517Z" stroke="#FF9D00" stroke-width="2" stroke-miterlimit="10"/>
</g>
</g>
<defs>
<clipPath id="clip0">
<rect width="375" height="812" fill="white"/>
</clipPath>
<clipPath id="clip1">
<rect width="63" height="63" fill="white" transform="translate(44 134)"/>
</clipPath>
</defs>
</svg>
