<?xml version="1.0" encoding="utf-8"?>
<!-- Generator: Adobe Illustrator 22.0.0, SVG Export Plug-In . SVG Version: 6.00 Build 0)  -->
<svg version="1.1" id="Calque_1" xmlns="http://www.w3.org/2000/svg" xmlns:xlink="http://www.w3.org/1999/xlink" x="0px" y="0px"
	 viewBox="0 0 724 142.4" enable-background="new 0 0 724 142.4" xml:space="preserve">
<text transform="matrix(1 0 0 1 412.4001 74.4001)"><tspan x="0" y="0" fill="#0A0A0A" font-family="'Montserrat-Light'" font-size="14px">Revenue increase</tspan><tspan x="0" y="12" fill="#0A0A0A" font-family="'Montserrat-Light'" font-size="10px">Average, after growth design</tspan><tspan x="0" y="24" fill="#0A0A0A" font-family="'Montserrat-Light'" font-size="10px">strategy implementation</tspan></text>
<text transform="matrix(1 0 0 1 247.7998 73.0001)" fill="#0A0A0A" font-family="'Montserrat-Light'" font-size="10px">Revenue client type (av)</text>
<text transform="matrix(1 0 0 1 247.7996 115.4001)" fill="#0A0A0A" font-family="'Montserrat-Light'" font-size="10px">Funding client type (av)</text>
<text transform="matrix(1 0 0 1 412.4 54.4497)" fill="#DFB18C" font-family="'Montserrat-Bold'" font-size="24px">+20%</text>
<text transform="matrix(1 0 0 1 247.8 54.45)" fill="#DFB18C" font-family="'Montserrat-Bold'" font-size="24px">+700k/y</text>
<text transform="matrix(1 0 0 1 247.7996 99.3998)" fill="#DFB18C" font-family="'Montserrat-Bold'" font-size="24px">+3m</text>
<text transform="matrix(1 0 0 1 3.4001 72.8001)" fill="#0A0A0A" font-family="'Montserrat-Light'" font-size="14px">Approach</text>
<text transform="matrix(1 0 0 1 3.4 54.4498)" fill="#DFB18C" font-family="'Montserrat-Bold'" font-size="24px">COMPREHENSIVE</text>
<text transform="matrix(1 0 0 1 3.4007 88.0986)"><tspan x="0" y="0" font-family="'Montserrat-Light'" font-size="10px">Includes growth strategy, product</tspan><tspan x="0" y="12" font-family="'Montserrat-Light'" font-size="10px">roadmap and design implementation</tspan></text>
<text transform="matrix(1 0 0 1 580.4001 72.4001)"><tspan x="0" y="0" fill="#0A0A0A" font-family="'Montserrat-Light'" font-size="14px">Leads conversion</tspan><tspan x="0" y="12" fill="#0A0A0A" font-family="'Montserrat-Light'" font-size="10px">Average, after growth design</tspan><tspan x="0" y="24" fill="#0A0A0A" font-family="'Montserrat-Light'" font-size="10px">strategy implementation</tspan></text>
<text transform="matrix(1 0 0 1 580.4 54.4497)" fill="#DFB18C" font-family="'Montserrat-Bold'" font-size="24px">+30%</text>
</svg>
