<?xml version="1.0" encoding="utf-8"?>
<!-- Generator: Adobe Illustrator 22.0.0, SVG Export Plug-In . SVG Version: 6.00 Build 0)  -->
<svg version="1.1" id="Calque_1" xmlns="http://www.w3.org/2000/svg" xmlns:xlink="http://www.w3.org/1999/xlink" x="0px" y="0px"
	 viewBox="0 0 260 260" enable-background="new 0 0 260 260" xml:space="preserve">
<g>
	<linearGradient id="SVGID_1_" gradientUnits="userSpaceOnUse" x1="-29.631" y1="-26.5671" x2="244.5802" y2="205.3884">
		<stop  offset="0" style="stop-color:#FFC171"/>
		<stop  offset="1" style="stop-color:#FDA085"/>
	</linearGradient>
	<path fill="url(#SVGID_1_)" d="M98.2-15.5v5.8H59.9v184.7c0,12.9,0.6,25.4,1.9,37.6c1.2,12.2,4.2,23.1,8.7,32.7
		c4.6,9.6,11.4,17.3,20.4,23.2c9,5.9,21.1,8.8,36.4,8.8c15,0,27.5-1.7,37.6-5.1c10.1-3.4,18.5-8,25.1-13.6
		c6.7-5.6,11.8-11.9,15.4-18.9c3.6-7,6.2-14,7.9-21c1.7-7,2.6-13.6,2.9-19.7c0.3-6.2,0.4-11.3,0.4-15.4V-9.7h-37.8v-5.8H262v5.8
		h-38.7v192.9c0,4.4-0.1,9.9-0.4,16.7c-0.3,6.7-1.4,13.8-3.3,21.2c-1.9,7.4-4.9,14.8-8.7,22.2c-3.9,7.4-9.6,14.1-17,19.9
		c-7.5,5.9-16.9,10.7-28.3,14.4c-11.4,3.7-25.4,5.6-42,5.6c-26.9,0-48.5-3-64.8-8.8c-16.4-5.9-28.9-13.6-37.6-23
		C12.3,241.8,6.6,231,3.8,219c-2.8-12.1-4.2-24.3-4.2-36.6V-9.7H-39v-5.8H98.2z"/>
	<linearGradient id="SVGID_2_" gradientUnits="userSpaceOnUse" x1="42.1394" y1="0.4818" x2="368.0283" y2="276.1515">
		<stop  offset="0" style="stop-color:#FFC171"/>
		<stop  offset="1" style="stop-color:#FDA085"/>
	</linearGradient>
	<path fill="url(#SVGID_2_)" d="M194.9-15.5v5.8h-34.1l60.7,102l64.8-102h-35.7v-5.8h75.2v5.8h-32.4L225.3,98l107.2,173.6H367v5.8
		H224.4v-5.8h37l-75.7-123.8l-77.3,123.8h37.4v5.8h-79v-5.8H101l81.1-130L88.9-9.7H55.7v-5.8H194.9z"/>
</g>
</svg>
