<?xml version="1.0" encoding="utf-8"?>
<!-- Generator: Adobe Illustrator 18.0.0, SVG Export Plug-In . SVG Version: 6.00 Build 0)  -->
<!DOCTYPE svg PUBLIC "-//W3C//DTD SVG 1.1//EN" "http://www.w3.org/Graphics/SVG/1.1/DTD/svg11.dtd">
<svg version="1.1" id="Layer_1" xmlns="http://www.w3.org/2000/svg" xmlns:xlink="http://www.w3.org/1999/xlink" x="0px" y="0px"
	 viewBox="41.8 288.1 405.8 475.1" enable-background="new 41.8 288.1 405.8 475.1" xml:space="preserve">
<linearGradient id="SVGID_1_" gradientUnits="userSpaceOnUse" x1="92.3227" y1="381.5508" x2="677.9" y2="381.5508" gradientTransform="matrix(0.6709 -0.1678 0.1678 0.6709 -77.6426 330.6637)">
	<stop  offset="0" style="stop-color:#C2982E"/>
	<stop  offset="0" style="stop-color:#A2792C"/>
	<stop  offset="0.4607" style="stop-color:#CDA430"/>
	<stop  offset="0.5618" style="stop-color:#CDA430"/>
	<stop  offset="0.8202" style="stop-color:#F8D975"/>
	<stop  offset="1" style="stop-color:#C2982E"/>
	<stop  offset="1" style="stop-color:#A2792C"/>
</linearGradient>
<circle opacity="0.5" fill="#FFFFFF" stroke="url(#SVGID_1_)" stroke-width="3" stroke-miterlimit="10" enable-background="new    " cx="244.7" cy="522" r="201.4"/>
<g opacity="0.58">
	<path fill="#FF7473" d="M130.7,517.5c-17.8-35-34.9-60.4-38.7-82.9c-4.3-22.1,5-41.2,27-54.4c21.6-12.6,49.5-12.2,67.4,8.1
		c18.4,19.4,26.9,58.6,22.7,105.5c-3.8,47.1-17.1,89.7-25.9,119.2c-9.3,29.7-14,46.3-13.5,46.9c-0.1,0.5,2.6-17.1-2.8-44.3
		C161.9,588.4,148.9,551.8,130.7,517.5z"/>
</g>
<path fill="#ED9E6E" d="M193.8,763.2c0.1,0,0.2,0.1,0.3,0.1c-0.2-0.5-0.3-1-0.6-1.5C193.6,762.1,193.7,762.6,193.8,763.2"/>
<path fill="#ED9E6E" d="M411,576.8c0.1-0.1,0.2-0.2,0.2-0.2c-0.2-0.3-0.2-0.6-0.3-0.9C410.8,576.1,410.9,576.4,411,576.8"/>
<path fill="#2A262A" d="M329,457.3c-14.2,3.6-22.9,17.9-19.4,32.3c3.6,14.2,17.9,22.9,32.3,19.4c14.2-3.6,22.9-17.9,19.4-32.3
	C357.7,462.3,343.3,453.7,329,457.3"/>
<path fill="#2A262A" d="M296.4,607.2c-31.2,15.7-51.7,5.4-55.9-3c-1.2-2.3-0.2-5.1,2.1-6.2l78.4-39.5c2.3-1.2,5.1-0.2,6.2,2.1
	C331.5,568.9,327.7,591.4,296.4,607.2z"/>
<path opacity="0.5" fill="none" stroke="#FF7473" stroke-width="25" stroke-miterlimit="10" enable-background="new    " d="
	M244.5,338c63.8-0.3,123.8,38.5,153.3,94.5"/>
<linearGradient id="SVGID_2_" gradientUnits="userSpaceOnUse" x1="505.3854" y1="455.239" x2="599.4493" y2="455.239" gradientTransform="matrix(0.6709 -0.1678 0.1678 0.6709 -77.6426 330.6637)">
	<stop  offset="0" style="stop-color:#FF7BAC"/>
	<stop  offset="1" style="stop-color:#FF7BAC;stop-opacity:0"/>
</linearGradient>
<path opacity="0.56" fill="url(#SVGID_2_)" enable-background="new    " d="M401,535.5c4.3,17.4-6.2,35-23.6,39.5
	c-17.5,4.3-35.1-6.2-39.5-23.6c-4.3-17.4,6.2-35.1,23.6-39.5C378.9,507.4,396.6,518.1,401,535.5"/>
<path fill="#2A262A" d="M194.2,518.4c-3.6-14.2-18-22.9-32.3-19.4S139,517,142.6,531.3c3.6,14.2,18,22.9,32.3,19.4
	C189.2,547.1,197.8,532.6,194.2,518.4"/>
<linearGradient id="SVGID_3_" gradientUnits="userSpaceOnUse" x1="221.5222" y1="461.6613" x2="315.5862" y2="461.6613" gradientTransform="matrix(0.6709 -0.1678 0.1678 0.6709 -77.6426 330.6637)">
	<stop  offset="0" style="stop-color:#FF7BAC"/>
	<stop  offset="1" style="stop-color:#FF7BAC;stop-opacity:0"/>
</linearGradient>
<path opacity="0.56" fill="url(#SVGID_3_)" enable-background="new    " d="M211.5,587.4c4.3,17.4-6.2,35-23.6,39.5
	c-17.4,4.3-35.1-6.2-39.5-23.6s6.2-35.1,23.6-39.5C189.5,559.4,207.2,570,211.5,587.4"/>
</svg>
