<?xml version="1.0" encoding="utf-8"?>
<!-- Generator: Adobe Illustrator 18.0.0, SVG Export Plug-In . SVG Version: 6.00 Build 0)  -->
<!DOCTYPE svg PUBLIC "-//W3C//DTD SVG 1.1//EN" "http://www.w3.org/Graphics/SVG/1.1/DTD/svg11.dtd">
<svg class="svg-happyfreshlogo" version="1.1" id="Calque_1" xmlns="http://www.w3.org/2000/svg" xmlns:xlink="http://www.w3.org/1999/xlink" x="0px" y="0px"
	 viewBox="0 32.8 595.3 662.1" enable-background="new 0 32.8 595.3 662.1" xml:space="preserve">

    <style type="text/css"><![CDATA[
        
 .svg-happyfreshlogo .eyes {
  -webkit-animation-name: blink;
  -webkit-animation-duration: 10s;
  -webkit-animation-iteration-count: infinite; 
  -webkit-transform-origin: 50%;
  -moz-animation-name:blink ;
  -moz-animation-duration: 10s;
  -moz-animation-iteration-count: infinite; 
  -moz-transform-origin: 50%;
  animation-name: blink;
  animation-duration: 10s;
  animation-iteration-count: infinite; 
  transform-origin: 50%;
  
  }
  
  .svg-happyfreshlogo {
  -webkit-animation-name: move_up_down;
  -webkit-animation-duration: 10s;
  -webkit-animation-iteration-count: infinite; 
  -webkit-transform-origin: 50%;
  -moz-animation-name: move_up_down;
  -moz-animation-duration: 10s;
  -moz-animation-iteration-count: infinite; 
  -moz-transform-origin: 50%;
  animation-name: move_up_down;
  animation-duration: 10s;
  animation-iteration-count: infinite; 
  transform-origin: 50%;
  animation-delay: 2s;
  }







@-webkit-keyframes blink { 
0% { -webkit-transform: scaleX(1) scaleY(1); } 
1% { -webkit-transform: scaleX(1.3) scaleY(0.1); } 
2% { -webkit-transform: scaleX(1) scaleY(1); } 
60% { -webkit-transform: scaleX(1) scaleY(1); } 
61% { -webkit-transform: scaleX(1.3) scaleY(0.1);} 
62% { -webkit-transform: scaleX(1) scaleY(1); } 
100% { -webkit-transform: scaleX(1) scaleY(1); }
}

@-moz-keyframes blink { 
0% { -moz-transform: scaleX(1) scaleY(1); } 
1% { -moz-transform: scaleX(1.3) scaleY(0.1); } 
2% { -moz-transform: scaleX(1) scaleY(1); } 
60% { -moz-transform: scaleX(1) scaleY(1); } 
61% { -moz-transform: scaleX(1.3) scaleY(0.1);} 
62% { -moz-transform: scaleX(1) scaleY(1); } 
100% { -moz-transform: scaleX(1) scaleY(1); }
}
  @keyframes blink { 
0% { transform: scaleX(1) scaleY(1); } 
1% { transform: scaleX(1.3) scaleY(0.1); } 
2% { transform: scaleX(1) scaleY(1); } 
60% { transform: scaleX(1) scaleY(1); } 
61% { transform: scaleX(1.3) scaleY(0.1);} 
62% { transform: scaleX(1) scaleY(1); } 
100% { transform: scaleX(1) scaleY(1); }
}







@-webkit-keyframes move_up_down { 
0% {
-webkit-transform: translateY(0%) rotate(0deg);
}
20% {
-webkit-transform:  translateY(-3%) rotate(20deg) ;
}
30% {
-webkit-transform:  translateY(0%) rotate(0deg) ;
}
80% {
-webkit-transform:  translateY(0%) rotate(20deg);
}
83% {
-webkit-transform:  translateY(3%) rotate(0deg);
}
85% {
-webkit-transform:  translateY(0%) rotate(20deg) ;
}
90% {
-webkit-transform:  translateY(0%) rotate(0deg);
}
92% {
-webkit-transform:  translateY(0%) rotate(20deg);
}
95% {
-webkit-transform:  translateY(0%) rotate(0deg);
}
100% {
-webkit-transform:  translateY(0%) rotate(0deg) ;
}
}

@keyframes move_up_down { 
0% {
transform: translateY(0%);
transform:  rotate(0deg) ;
}
20% {
transform:  translateY(-3%);
transform:  rotate(20deg) ;
}
30% {
transform:  translateY(0%);
transform:  rotate(0deg) ;
}
80% {
transform:  translateY(0%);
transform:  rotate(0deg) ;
}
83% {
transform:  translateY(3%);
transform:  rotate(20deg) ;
}
85% {
transform:  translateY(0%);
transform:  rotate(0deg) ;
}
90% {
transform:  translateY(0%);
transform:  rotate(0deg) ;
}
92% {
transform:  translateY(0%);
transform:  rotate(20deg) ;
}
95% {
transform:  translateY(0%);
transform:  rotate(0deg) ;
}
100% {
transform:  translateY(0%);
transform:  rotate(0deg) ;
}
}

@-moz-keyframes move_up_down { 
0% {
-moz-transform: translateY(0%);
-moz-transform:  rotate(0deg) ;
}
20% {
-moz-transform:  translateY(-3%);
-moz-transform:  rotate(20deg) ;
}
30% {
-moz-transform:  translateY(0%);
-moz-transform:  rotate(0deg) ;
}
80% {
-moz-transform:  translateY(0%);
-moz-transform:  rotate(20deg) ;
}
83% {
-moz-transform:  translateY(3%);
-moz-transform:  rotate(0deg) ;
}
85% {
-moz-transform:  translateY(0%);
-moz-transform:  rotate(20deg) ;
}
90% {
-moz-transform:  translateY(0%);
-moz-transform:  rotate(0deg) ;
}
92% {
-moz-transform:  translateY(0%);
-moz-transform:  rotate(20deg) ;
}
95% {
-moz-transform:  translateY(0%);
-moz-transform:  rotate(0deg) ;
}
100% {
-moz-transform:  translateY(0%);
-moz-transform:  rotate(0deg) ;
}
}




        ]]></style>
<circle fill="#FFFFFF" cx="299.6" cy="378.9" r="220.1"/>
<g>
	<path fill="#5983FC" d="M175,373.9c-19.4-38.3-38.2-66-42.3-90.7c-4.7-24.1,5.4-45.1,29.5-59.5c23.6-13.8,54.1-13.3,73.6,8.8
		c20.1,21.2,29.4,64.1,24.8,115.3c-4.1,51.5-18.7,98-28.3,130.2c-10.1,32.4-15.3,50.6-14.8,51.2c-0.1,0.5,2.8-18.7-3.1-48.3
		C209,451.5,194.9,411.4,175,373.9z"/>
</g>
<path fill="#ED9E6E" d="M230.7,635c0.1,0,0.2,0.1,0.4,0.1c-0.2-0.5-0.4-1.1-0.6-1.6C230.5,634,230.7,634.5,230.7,635"/>
<path fill="#ED9E6E" d="M481.2,438.8c0.1-0.1,0.1-0.1,0.2-0.3c-0.1-0.3-0.2-0.7-0.4-0.9C481.1,438,481.2,438.3,481.2,438.8"/>
<path class="eyes" fill="#0D599E" d="M391.7,308.2c-15.6,3.9-25.1,19.6-21.2,35.3c3.9,15.6,19.6,25.1,35.2,21.2c15.6-3.9,25.1-19.6,21.2-35.2
	C423,313.7,407.3,304.3,391.7,308.2"/>
<path class="mouth" fill="#0D599E" d="M356,472.1c-34.1,17.2-56.5,5.9-61.1-3.3c-1.3-2.5-0.3-5.6,2.2-6.8l85.7-43.3c2.5-1.3,5.6-0.3,6.8,2.2
	C394.3,430.1,390.3,454.8,356,472.1z"/>
<path opacity="0.66" fill="none" stroke="#FFC171" stroke-width="25" stroke-miterlimit="10" enable-background="new    " d="
	M299.3,177.7c69.8-0.4,138.4,42.1,175.8,103.3"/>
<linearGradient id="SVGID_1_" gradientUnits="userSpaceOnUse" x1="493.2947" y1="413.1792" x2="595.6412" y2="413.1792" gradientTransform="matrix(0.6748 -0.1686 0.1686 0.6748 -1.2786 215.241)">
	<stop  offset="0" style="stop-color:#FF7BAC"/>
	<stop  offset="1" style="stop-color:#FF7BAC;stop-opacity:0"/>
</linearGradient>
<path opacity="0.56" fill="url(#SVGID_1_)" enable-background="new    " d="M470.4,393.6c4.7,19.1-6.8,38.3-25.9,43.1
	c-19.1,4.8-38.4-6.8-43.2-25.9c-4.8-19.1,6.8-38.4,25.9-43.1C446.3,363,465.6,374.6,470.4,393.6"/>
<path class="eyes" fill="#0D599E" d="M244.3,375c-3.9-15.6-19.7-25.1-35.3-21.2s-25.1,19.6-21.2,35.3c3.9,15.6,19.7,25.1,35.2,21.2
	C238.8,406.3,248.2,390.6,244.3,375"/>
<linearGradient id="SVGID_2_" gradientUnits="userSpaceOnUse" x1="184.7902" y1="420.274" x2="287.0358" y2="420.274" gradientTransform="matrix(0.6748 -0.1686 0.1686 0.6748 -1.2786 215.241)">
	<stop  offset="0" style="stop-color:#FF7BAC"/>
	<stop  offset="1" style="stop-color:#FF7BAC;stop-opacity:0"/>
</linearGradient>
<path opacity="0.56" fill="url(#SVGID_2_)" enable-background="new    " d="M263.3,450.5c4.7,19.1-6.8,38.3-25.9,43.1
	c-19.1,4.7-38.4-6.8-43.1-25.9c-4.8-19.1,6.8-38.4,25.9-43.1C239.2,419.8,258.5,431.4,263.3,450.5"/>
</svg>
