<?xml version="1.0" encoding="utf-8"?>
<!-- Generator: Adobe Illustrator 22.0.0, SVG Export Plug-In . SVG Version: 6.00 Build 0)  -->
<svg version="1.1" id="Layer_1" xmlns="http://www.w3.org/2000/svg" xmlns:xlink="http://www.w3.org/1999/xlink" x="0px" y="0px"
	 viewBox="0 0 97.4 97.4" style="enable-background:new 0 0 97.4 97.4;" xml:space="preserve">
<style type="text/css">
	.st0{fill:#FFFFFF;}
	.st1{fill:#5983FC;}
	.st2{fill:#ED9E6E;}
	.st3{fill:#0D599E;}
	.st4{opacity:0.66;fill:none;stroke:#FFC171;stroke-width:8;stroke-miterlimit:10;enable-background:new    ;}
	.st5{opacity:0.56;fill:url(#SVGID_1_);enable-background:new    ;}
	.st6{opacity:0.56;fill:url(#SVGID_2_);enable-background:new    ;}
</style>
<g>
	<circle className="st0" cx="48.7" cy="48.7" r="48.2"/>
	<g>
		<path className="st1" d="M21.4,47.5c-4.2-8.4-8.3-14.5-9.2-19.9c-1-5.3,1.2-9.9,6.5-13c5.2-3,11.8-2.8,16.1,2c4.4,4.7,6.4,14,5.4,25.3
			c-0.9,11.3-4.2,21.4-6.3,28.5c-2.3,7.1-3.4,11.1-3.3,11.2c0,0.1,0.6-4.1-0.7-10.6C28.8,64.5,25.8,55.7,21.4,47.5z"/>
	</g>
	<path className="st2" d="M24.9,77.5C24.9,77.5,24.9,77.5,24.9,77.5c0,0,0-0.1,0-0.2C24.9,77.4,24.9,77.4,24.9,77.5"/>
	<path className="st2" d="M88.4,61.9C88.4,61.9,88.4,61.9,88.4,61.9c0-0.1,0-0.2,0-0.2C88.4,61.7,88.4,61.8,88.4,61.9"/>
	<path className="st3" d="M68.9,33.3c-3.4,0.9-5.5,4.3-4.6,7.7c0.9,3.4,4.3,5.5,7.7,4.6c3.4-0.9,5.5-4.3,4.7-7.7
		C75.8,34.5,72.3,32.4,68.9,33.3"/>
	<path className="st3" d="M61,69.1c-7.5,3.7-12.4,1.2-13.4-0.7c-0.3-0.5,0-1.2,0.5-1.5l18.8-9.4c0.5-0.3,1.2,0,1.5,0.5
		C69.4,59.9,68.5,65.3,61,69.1z"/>
	<path className="st4" d="M48.8,4.7C64,4.6,79,14,87.2,27.4"/>
	
		<linearGradient id="SVGID_1_" gradientUnits="userSpaceOnUse" x1="-65.538" y1="203.4864" x2="-46.0689" y2="203.4864" gradientTransform="matrix(0.7769 -0.1913 0.1913 0.7769 82.9177 -114.845)">
		<stop  offset="0" style="stop-color:#FF7BAC"/>
		<stop  offset="1" style="stop-color:#FF7BAC;stop-opacity:0"/>
	</linearGradient>
	<path className="st5" d="M86,52c1,4.2-1.5,8.4-5.7,9.4c-4.2,1-8.4-1.5-9.4-5.7c-1-4.2,1.5-8.4,5.7-9.4C80.8,45.3,85,47.9,86,52"/>
	<path className="st3" d="M36.6,47.8c-0.9-3.4-4.3-5.5-7.7-4.7c-3.4,0.9-5.5,4.3-4.6,7.7c0.9,3.4,4.3,5.5,7.7,4.6
		C35.4,54.6,37.4,51.2,36.6,47.8"/>
	
		<linearGradient id="SVGID_2_" gradientUnits="userSpaceOnUse" x1="-124.2459" y1="204.8025" x2="-104.7973" y2="204.8025" gradientTransform="matrix(0.7769 -0.1913 0.1913 0.7769 82.9177 -114.845)">
		<stop  offset="0" style="stop-color:#FF7BAC"/>
		<stop  offset="1" style="stop-color:#FF7BAC;stop-opacity:0"/>
	</linearGradient>
	<path className="st6" d="M40.7,64.3c1,4.2-1.5,8.4-5.7,9.4c-4.2,1-8.4-1.5-9.4-5.7s1.5-8.4,5.7-9.4C35.4,57.6,39.7,60.1,40.7,64.3"/>
</g>
</svg>
