<?xml version="1.0" encoding="utf-8"?>
<!-- Generator: Adobe Illustrator 18.0.0, SVG Export Plug-In . SVG Version: 6.00 Build 0)  -->
<!DOCTYPE svg PUBLIC "-//W3C//DTD SVG 1.1//EN" "http://www.w3.org/Graphics/SVG/1.1/DTD/svg11.dtd">
<svg version="1.1" id="svgicon-github" xmlns="http://www.w3.org/2000/svg" xmlns:xlink="http://www.w3.org/1999/xlink" x="0px"
	 y="0px" viewBox="0 0 595.3 841.9" enable-background="new 0 0 595.3 841.9" xml:space="preserve">
<path fill="none" stroke="#FFFFFF" stroke-width="12" stroke-linecap="round" stroke-linejoin="round" d="M203.4,614.4
	c-124,37.2-124-62-173.6-74.4 M377,688.8v-96.7c2.5-24.8-7.4-47.1-22.3-64.5c76.9-7.4,158.7-37.2,158.7-173.6
	c0-34.7-12.4-67-37.2-94.3c12.4-29.8,9.9-64.5-2.5-94.3c0,0-29.8-9.9-96.7,37.2c-57-14.9-116.6-14.9-173.6,0
	c-67-44.6-96.7-34.7-96.7-34.7c-12.4,27.3-12.4,62-2.5,91.8C79.4,284.5,67,319.3,67,354c0,133.9,81.9,163.7,158.7,173.6
	c-17.4,17.4-24.8,39.7-22.3,64.5v96.7"/>
</svg>
