<?xml version="1.0" encoding="utf-8"?>
<!-- Generator: Adobe Illustrator 18.0.0, SVG Export Plug-In . SVG Version: 6.00 Build 0)  -->
<!DOCTYPE svg PUBLIC "-//W3C//DTD SVG 1.1//EN" "http://www.w3.org/Graphics/SVG/1.1/DTD/svg11.dtd">
<svg version="1.1" id="svgicon-instagram" xmlns="http://www.w3.org/2000/svg" xmlns:xlink="http://www.w3.org/1999/xlink" x="0px"
	 y="0px" viewBox="0 0 595.3 841.9" enable-background="new 0 0 595.3 841.9" xml:space="preserve">
<path fill="none" stroke="#FFFFFF" stroke-width="12" stroke-linecap="round" stroke-linejoin="round" d="M173.6,172.9h248
	c69.4,0,124,54.6,124,124v248c0,69.4-54.6,124-124,124h-248c-69.4,0-124-54.6-124-124v-248C49.6,227.5,104.2,172.9,173.6,172.9z"/>
<path fill="none" stroke="#FFFFFF" stroke-width="12" stroke-linecap="round" stroke-linejoin="round" d="M396.9,406.1
	c7.4,54.6-29.8,104.2-84.3,111.6c-54.6,7.4-104.2-29.8-111.6-84.3c-7.4-52.1,29.8-104.2,84.3-111.6c9.9-2.5,19.8-2.5,29.8,0
	C357.2,329.2,389.4,361.4,396.9,406.1z"/>
<line fill="none" stroke="#FFFFFF" stroke-width="12" stroke-linecap="round" stroke-linejoin="round" x1="434.1" y1="284.5" x2="434.1" y2="284.5"/>
</svg>
