<?xml version="1.0" encoding="utf-8"?>
<!-- Generator: Adobe Illustrator 18.0.0, SVG Export Plug-In . SVG Version: 6.00 Build 0)  -->
<!DOCTYPE svg PUBLIC "-//W3C//DTD SVG 1.1//EN" "http://www.w3.org/Graphics/SVG/1.1/DTD/svg11.dtd">
<svg version="1.1" id="svgicon-assessment" xmlns="http://www.w3.org/2000/svg" xmlns:xlink="http://www.w3.org/1999/xlink" x="0px"
	 y="0px" viewBox="0 0 595.3 841.9" enable-background="new 0 0 595.3 841.9" xml:space="preserve">
<g>
	<g>
		<path fill="none" stroke="#CACACA" stroke-width="10" stroke-miterlimit="10" d="M469.9,484.2c-1.6,71.6,4.4,141.1-1.6,212.5
			c0,4-4,7.9-6,9.9c-4,4-9.9,6-15.9,6c-134.9,0-269.9,4-404.8-2c-2,0-6-2-7.9-4c-4-4-7.9-9.9-7.9-15.9c0-172.6-2-343.3,0-515.9
			c0-6,2-11.9,7.9-13.9c27.8-11.9,57.5-4,88.1-5.4"/>
		<path fill="none" stroke="#CACACA" stroke-width="10" stroke-miterlimit="10" d="M371.5,153.3c33.3,1.8,71-12.1,98.8,11.7
			c4,39.7,0,77.4,2,116.3"/>
	</g>
	<g>
		<path fill="none" stroke="#CACACA" stroke-width="10" stroke-miterlimit="10" d="M330.6,230.1H167.3c-28.8,0-50.4-24-50.4-50.4
			c0-28.8,24-50.4,50.4-50.4h163.3c28.8,0,50.4,24,50.4,50.4C381,208.4,359.4,230.1,330.6,230.1L330.6,230.1z"/>
	</g>
	<g>
		<g>
			<path fill="none" stroke="#CACACA" stroke-width="10" stroke-miterlimit="10" d="M349.6,513.4H348l-53-6.5c-5,0-8.3-3.4-11.5-6.5
				c-3.4-3.4-3.4-8.3-1.6-13.3l13.3-53c1.6-3.4,3.4-6.5,6.5-9.9l144.1-97.8l33.1-21.6l11.5-6.5c3.4-1.6,8.3-3.4,13.3-3.4
				c5,0,8.3,3.4,9.9,6.5l39.7,59.7c3.4,3.4,3.4,8.3,3.4,13.3s-3.4,8.3-6.5,9.9L363.1,511.8C356.4,511.8,353,513.4,349.6,513.4
				L349.6,513.4z M316.5,475.3l28.2,3.4l169.1-115.9l-21.6-31.5L323,447.1L316.5,475.3L316.5,475.3z"/>
		</g>
	</g>
</g>
<line fill="none" stroke="#CACACA" stroke-width="10" stroke-miterlimit="10" x1="164.9" y1="179.7" x2="333" y2="179.7"/>
</svg>
