<?xml version="1.0" encoding="utf-8"?>
<!-- Generator: Adobe Illustrator 22.0.0, SVG Export Plug-In . SVG Version: 6.00 Build 0)  -->
<svg version="1.1" id="svgicon-figma" xmlns="http://www.w3.org/2000/svg" xmlns:xlink="http://www.w3.org/1999/xlink" x="0px"
	 y="0px" viewBox="0 0 595.3 841.9" enable-background="new 0 0 595.3 841.9" xml:space="preserve">
<title>figma</title>
<title>figma</title>
<g id="storybook-icon_x2F_default">
	<g id="path1_fill-path">
		<path id="path-1_1_" fill="none" stroke="#FAAD2A" stroke-width="10" stroke-miterlimit="10" d="M25.5,750.9L3,118.5
			C2.3,97.6,17.5,79.9,37.2,78.6l510-33.6c20.1-1.3,37.5,14.8,38.7,36c0,0.8,0.1,1.6,0.1,2.4v689.1c0,21.3-16.3,38.5-36.5,38.5
			c-0.5,0-1.1,0-1.6,0L60.4,787.9C41.4,787,26.2,770.9,25.5,750.9z"/>
	</g>
	<path id="path2_fill-path" fill="none" stroke="#FAAD2A" stroke-width="10" stroke-miterlimit="10" d="M433.5,139l3.5-88.4l70-5.8
		l3,91.1c0.1,3.2-2.2,5.8-5.3,5.9c-1.3,0-2.5-0.4-3.6-1.2l-27-22.4l-32,25.6c-2.4,1.9-5.8,1.4-7.6-1.1
		C433.8,141.7,433.4,140.4,433.5,139z"/>
	<path id="path9_fill-path" fill="none" stroke="#FAAD2A" stroke-width="10" stroke-miterlimit="10" d="M343.9,333.6
		c0,15,95.7,7.8,108.5-2.7c0-102.1-51.9-155.7-147-155.7s-148.3,54.5-148.3,136.2c0,142.3,182,145,182,222.6
		c0,21.8-10.1,34.7-32.4,34.7c-29,0-40.5-15.6-39.1-68.7c0-11.5-110.6-15.1-113.9,0c-8.6,128.7,67.4,165.8,154.4,165.8
		c84.3,0,150.4-47.4,150.4-133.2c0-152.5-184.7-148.4-184.7-224c0-30.6,21.6-34.7,34.4-34.7C321.7,274,345.9,276.5,343.9,333.6z"/>
</g>
</svg>
