<?xml version="1.0" encoding="utf-8"?>
<!-- Generator: Adobe Illustrator 18.0.0, SVG Export Plug-In . SVG Version: 6.00 Build 0)  -->
<!DOCTYPE svg PUBLIC "-//W3C//DTD SVG 1.1//EN" "http://www.w3.org/Graphics/SVG/1.1/DTD/svg11.dtd">
<svg version="1.1" id="svgicon-virtual_reality" xmlns="http://www.w3.org/2000/svg" xmlns:xlink="http://www.w3.org/1999/xlink"
	 x="0px" y="0px" viewBox="0 0 595.3 841.9" enable-background="new 0 0 595.3 841.9" xml:space="preserve">
<title>virtual_reality</title>
<g>
	<path fill="#CACACA" d="M561.9,325.2c-6.7-14.3-7.5-27.8-7.5-42.8c0-11.2,0.8-21.7,0-33c-3-75.1-33.8-137.4-89.4-187
		c-6.7-6-15-10.5-22.5-1.5c-2.9,3.5-3.9,6.8-3.6,9.9c-0.3,0.3-0.5,0.6-0.8,0.9c-7.3,8.7-2.1,16,5.1,21.8
		c18.2,16,34.2,34.9,46.7,56.1c0.1,0.2,0.2,0.4,0.3,0.5c-17.7-11.6-38.7-12.4-59.6-10.4c-42.8,3.8-82.6-4.5-120.2-24
		c-23.3-12-46.6-25.5-66.1-42.8c-8.2-7.6-15.7-8.3-25.5-3.8c-30.8,13.5-58.6,32.3-78.9,59.3c-9.3,12-22.6,14.9-34.9,19.6
		C150.1,77.2,215,40.3,299,38.8c32.8,0,64.1,8.1,94,21.8c8.7,4.4,17.5,5.8,21.8-4.4c1.2-2.8,1.6-5.2,1.3-7.3c0.9-1.1,1.7-2.4,2.3-4
		c4.5-10.5-2.2-16.5-12-19.5c-3-1.5-6-3-9-4.5C271.4-33,121.2,24,63.2,148.7c-18,39-25.5,79.6-24,122.4c0,14.3,3.8,30.1-3,43.6
		c-12,23.2-11.3,46.5-1.5,69.8c3.8,9,5.3,16.5,5.3,25.5c0,66.1,0.8,131.4,0,197.5c-0.8,15.7,6,21,21,21c49.5-0.8,98.1,0,147.6,0
		c-0.4,0.1-0.9,0.3-1.3,0.4c-46,13.3-85.1,43.8-110.3,82.4C73.5,743.5,59.6,782,59.6,821.6c0,12.8,3,20.3,18,20.3
		c146.5,0,292.2,0,438.6,0c13.5,0,18-6.7,18-19.5c0-21.7-3.7-43.5-12-63.8c-7.3-18.5-16.3-35.1-27-49.8
		c-24.7-38.1-59.9-64.6-104.8-80.9c47,0,94-0.1,142.2-0.8c20.2,0,22.5-2.2,22.5-22.5c0-64.6,0-130,0-195.3c0-9,0.7-17.2,4.5-25.5
		C567.2,365,570.9,344.7,561.9,325.2z M500.9,794.9c2.2,11.6-5.8,8.7-11.6,8.7c-81.6,0-162.5,0-244,0c-45.9,0-92.5-0.8-138.4,0
		c-11.6,0-13.9-2.9-11.6-14.5c3.5-19.9,9.6-37.8,18.4-54c15.3-24.2,36.7-44.1,64-60c6-3.7,10.5-9,15,3.8
		c16.5,48.8,57.8,78.9,105.9,78.1c48.8-0.7,88.6-30,105.9-78.1c0.7-3,1.5-5.2,3-9c31.9,16.1,56.3,37.9,73.5,65
		C490.4,752.7,497.1,772.8,500.9,794.9z M522.2,383.3c0-17.9,0-35.8,0-55C535.4,344.5,534.7,365.4,522.2,383.3z M510.4,594
		c-45.9,0-92.5,0-138.4,0c-1.9,0-4.7,0.6-6.7-0.4c0.7-2.8,4.3-3.6,7.5-4.9c63.1-27,104.4-73.6,121.7-140.4
		c3.7-13.4,15.7-12.5,26.1-18.9c0,54.5,0,105-0.7,154.3C519.9,591.1,518.4,594,510.4,594z M374.9,666c-11.7,33.5-43,55.4-79.4,54.6
		c-34.9-0.7-66.2-25.5-75.8-59c-0.3-1-0.6-2-0.8-2.8c1.1-0.5,2.5-0.8,4.4-1c3,0,6.8-0.7,9.8-1.5c18.3-3.6,22.7-4.7,23.7-17.3
		c1.4-3.9,1.5-9.6,1.5-18.8c0-5.2,0-9.3,0.3-12.6c2.6-6.4,9.9-5.7,30-3.8c9,0,24.1-0.7,38.4-2.3c4.6-0.8,7.3-0.3,8.7,1.6
		c0,0.5-0.1,1.1-0.1,1.7c0,2.9,0,5.1,0,8.1c0,13-0.2,20.8,1.5,25.8c1.2,14.2,6.6,15,31.2,18.4c3.8,0.5,6.5,1.4,8.3,2.7
		C376.3,661.6,375.8,663.6,374.9,666z M74,586.7c0-52.4,0-104,0-157c15.8,5.9,26.7,14.6,31.3,33.7c3,19.6,14.2,36.1,25.5,52.6
		c5.3,7.6,11.3,12.8,20.3,6.8c1.2-0.7,2.3-1.5,3.1-2.3c0.4-0.2,0.8-0.5,1.3-0.8c8.8-5,7.4-13.1,2.2-20.4
		c-11.5-17.3-21.6-36.1-26.1-57.7c110.6,0,221.3,0,332.6,0c-13.2,49.3-40.8,86.2-85.8,109.4c-60.4,31.3-120.2,27.6-177.7-9.5
		c-2.9-1.5-5.1-3.7-8.1-5.1c-6.6-4.4-13.1-4.4-18.2,2.2c0,0,0,0.1-0.1,0.1c-1.3,0.9-2.6,2-3.7,3.5c-5.2,7.5-3.7,15,3.8,20.3
		c13.5,10.5,28.5,19.5,45,26.3c4,1.3,9.3,2.1,9.8,6c-2.5,1.4-6.6,0-9.6,0c-45.2,0-89.6,0-134,0C80.6,594.7,74,596.9,74,586.7z
		 M70.9,329.9c0,18-1.2,35.8,1.9,54.6C59.6,365.7,59.1,344,70.9,329.9z M103.8,363.8c2.2-45.9,1.6-92.5,0.8-138.4
		c-0.7-32.1,16.1-52.5,51-51c47.3,2.2,94.7,0.8,142,0.8c48.9,0,98.4,0,148.6,0c27,0,43,14.5,43.7,41.5c0.8,51.7,0.8,104.2,0,155.9
		c-0.7,25.8-14.1,40.2-38.2,42.1c-0.3,0-0.6,0-0.9,0c-102.4,0.8-204.8,0.8-307.2,0C118.4,412.4,102.4,393.1,103.8,363.8z
		 M178.7,138.3c14-13.8,29.5-23.8,46.1-31.8c4.4-2.2,7.3-1.5,10.2,1.5c13.1,11.4,28,21,42.8,30.9
		C245.6,138.9,212.8,138.8,178.7,138.3z"/>
	<path fill="#CACACA" d="M158.5,387c5.1,1.5,10.9,2.3,17.5,2.3c40.1,0,80.9,0,121,0c42.2,0,83.8,0,125.3,0.2c4.8,0,9.3-0.7,13.5-1.9
		c18.9-3.7,31.8-18.1,32.4-38.2c0.8-38.3,0.8-77.3,0-116.4c-0.8-21.8-15.8-36.8-37.6-38.3c-15.8-1.6-31.5-0.8-47.3-0.8
		c-9.2,0-15.8,2.7-16.4,11.9c-1.4,2-2.2,4.6-2.2,8c0,10.2,8.1,13.1,16.8,13.1c10.9,0,22.5,0,33.5,0c19.7,0,22.6,2.9,22.6,21.8
		c0,31.3-0.8,62.7,0,94c0,9-2.2,14.9-7.3,18.1c-2.6,0.8-5.7,1.2-9.3,1.2c-82.6,0-165.2,0-247.8,0c-3.5,0-6.5-0.4-9-1.1
		c-4.8-3.1-6.9-8.6-6.9-17.5c0.8-31.3,0-63.4,0-95.4c0-18.2,2.9-21.1,21.1-21.1c47.3,0,94.7,0,142,0c9.3,0,18.7-1.4,18.9-13.4
		c0.8-1.8,1.3-4.1,1.3-6.9c0-12-9-12.8-18.8-12.8c-50.4,0-101.4-0.8-152.5,0c-27.8,0-43.6,16.5-43.6,44.3c0,35.3,0,69.8,0,105.1
		C126.3,367.7,137.4,382.7,158.5,387z"/>
	<path fill="#CACACA" d="M245.8,506.9c0,30.1,24.8,54.9,52.6,54c27.8-1.5,50.3-26.3,50.3-54.8c0-13.4-4.8-25.8-12.6-35.4
		c-9.3-12.3-23.6-20.3-39.1-20.3c-15.4,0.4-29.6,8.7-38.8,21C250.2,481.1,245.4,493.6,245.8,506.9z M297.6,479.1
		c10.5,0,17.1,5.2,21,15c-14.5,0-28.2,0-43.5,0C279.2,483.7,287,479.1,297.6,479.1z M310,524.9c-8.7,6.2-16.7,5.8-26.4,0
		C293.2,523,301.3,523,310,524.9z"/>
</g>
</svg>
