<?xml version="1.0" encoding="utf-8"?>
<!-- Generator: Adobe Illustrator 18.0.0, SVG Export Plug-In . SVG Version: 6.00 Build 0)  -->
<!DOCTYPE svg PUBLIC "-//W3C//DTD SVG 1.1//EN" "http://www.w3.org/Graphics/SVG/1.1/DTD/svg11.dtd">
<svg version="1.1" id="svgicon-paint-palette" xmlns="http://www.w3.org/2000/svg" xmlns:xlink="http://www.w3.org/1999/xlink"
	 x="0px" y="0px" viewBox="0 0 595.3 841.9" enable-background="new 0 0 595.3 841.9" xml:space="preserve">
<title>paint-palette</title>
<path fill="none" stroke="#CACACA" stroke-width="10" stroke-miterlimit="10" d="M95.9,641.4C-15.5,530-15.5,349.4,95.9,238
	s292-111.4,403.4,0s111.4,292,0,403.4c-53.3,53.3-139.6,53.3-192.9,0L201.2,536.2c-9.7-9.7-25.4-9.7-35.1,0
	c-9.7,9.7-9.7,25.4,0,35.1c19.3,19.4,19.3,50.8,0,70.2C146.7,660.8,115.3,660.8,95.9,641.4L95.9,641.4z"/>
<path fill="none" stroke="#CACACA" stroke-width="10" stroke-miterlimit="10" d="M440,317c0,20.5-16.6,37.2-37.2,37.2
	c-20.5,0-37.2-16.6-37.2-37.2c0-20.5,16.6-37.2,37.2-37.2C423.4,279.8,440,296.4,440,317z"/>
<path fill="none" stroke="#CACACA" stroke-width="10" stroke-miterlimit="10" d="M496.1,439.7c0,13.7-11.1,18.6-18.6,18.6
	c-7.5,0-18.6-11.1-18.6-18.6c0-13.7,11.1-18.6,18.6-18.6C485,421.1,496.1,432.2,496.1,439.7z"/>
<path fill="none" d="M452.5,562.5c0,27.4-22.2,49.6-49.6,49.6c-27.4,0-49.6-22.2-49.6-49.6c0-27.4,22.2-49.6,49.6-49.6
	C430.3,512.9,452.5,535.1,452.5,562.5z"/>
<path fill="none" stroke="#CACACA" stroke-width="10" stroke-miterlimit="10" d="M291,290.6c0,20.5-16.6,37.2-37.2,37.2
	s-37.2-16.6-37.2-37.2c0-20.5,16.6-37.2,37.2-37.2S291,270.1,291,290.6z"/>
</svg>
