<?xml version="1.0" encoding="utf-8"?>
<!-- Generator: Adobe Illustrator 22.0.0, SVG Export Plug-In . SVG Version: 6.00 Build 0)  -->
<svg version="1.1" id="target_blank" xmlns="http://www.w3.org/2000/svg" xmlns:xlink="http://www.w3.org/1999/xlink" x="0px"
	 y="0px" viewBox="0 0 595.3 841.9" style="enable-background:new 0 0 595.3 841.9;" xml:space="preserve">
<style type="text/css">
	.st0{fill:#CACACA;}
</style>
<g>
	<g>
		<g>
			<path class="st0" d="M268.5,217.3c3.1,0,5.9,1,8.5,2.7c6.6,4.6,7.9,13.6,3.4,20.1l-131,181.4l132.5,180.4
				c4.8,6.4,3.3,15.6-3.1,19.9c-6.4,4.8-15.3,3.5-19.9-3.1L120.1,429.9c-3.6-5.2-3.7-11.7,0-16.8l137.2-189.9
				C259.9,219.4,264.4,217.2,268.5,217.3L268.5,217.3z"/>
		</g>
		<g>
			<path class="st0" d="M131.6,407.3l356.2-1.2c8.1,0,14.4,6.3,14.4,14.4s-6.3,14.4-14.4,14.4l-356.3,1.3c-8.1,0-14.4-6.3-14.4-14.4
				S123.7,407.1,131.6,407.3L131.6,407.3z"/>
		</g>
	</g>
</g>
</svg>
