<?xml version="1.0" encoding="utf-8"?>
<!-- Generator: Adobe Illustrator 22.0.0, SVG Export Plug-In . SVG Version: 6.00 Build 0)  -->
<svg version="1.1" id="Calque_1" xmlns="http://www.w3.org/2000/svg" xmlns:xlink="http://www.w3.org/1999/xlink" x="0px" y="0px"
	 viewBox="0 0 260 260" enable-background="new 0 0 260 260" xml:space="preserve">
<g>
	<linearGradient id="SVGID_1_" gradientUnits="userSpaceOnUse" x1="-18.0856" y1="198.734" x2="229.5864" y2="-10.7719">
		<stop  offset="0" style="stop-color:#FFC171"/>
		<stop  offset="1" style="stop-color:#FDA085"/>
	</linearGradient>
	<path fill="url(#SVGID_1_)" d="M88.2-5.5v5.4h-34v172.3c0,12,0.6,23.7,1.7,35.1c1.1,11.4,3.7,21.5,7.8,30.5
		c4.1,9,10.1,16.2,18.1,21.7c8,5.5,18.8,8.2,32.4,8.2c13.3,0,24.5-1.6,33.5-4.8c9-3.2,16.5-7.4,22.4-12.7
		c5.9-5.2,10.5-11.1,13.7-17.6c3.2-6.5,5.6-13,7-19.6c1.5-6.5,2.3-12.7,2.6-18.4c0.2-5.8,0.4-10.5,0.4-14.4V-0.1H160v-5.4h74v5.4
		h-34.4v179.9c0,4.1-0.1,9.3-0.4,15.5c-0.2,6.3-1.2,12.9-3,19.8c-1.7,6.9-4.3,13.8-7.8,20.7c-3.5,6.9-8.5,13.1-15.2,18.6
		c-6.7,5.5-15,10-25.2,13.4c-10.1,3.5-22.6,5.2-37.4,5.2c-23.9,0-43.2-2.8-57.7-8.2c-14.6-5.5-25.7-12.7-33.5-21.5
		c-7.8-8.8-12.9-18.9-15.4-30.1c-2.5-11.3-3.7-22.6-3.7-34.1V-0.1h-34.4v-5.4H88.2z"/>
	<linearGradient id="SVGID_2_" gradientUnits="userSpaceOnUse" x1="52.1377" y1="251.4198" x2="321.1924" y2="23.8263">
		<stop  offset="0" style="stop-color:#FFC171"/>
		<stop  offset="1" style="stop-color:#FDA085"/>
	</linearGradient>
	<path fill="url(#SVGID_2_)" d="M179.8-5.5v5.4h-30.3l54,95.1l57.7-95.1h-31.8v-5.4h67v5.4h-28.9l-60.7,100.5l95.5,161.9H333v5.4
		H206.1v-5.4H239l-67.3-115.5l-68.8,115.5h33.3v5.4H65.8v-5.4h30.3L168.3,141L85.5-0.1H55.9v-5.4H179.8z"/>
</g>
</svg>
