<?xml version="1.0" encoding="utf-8"?>
<!-- Generator: Adobe Illustrator 22.0.0, SVG Export Plug-In . SVG Version: 6.00 Build 0)  -->
<svg version="1.1" id="Layer_1" xmlns="http://www.w3.org/2000/svg" xmlns:xlink="http://www.w3.org/1999/xlink" x="0px" y="0px"
	 viewBox="0 0 2560 1600" style="enable-background:new 0 0 2560 1600;" xml:space="preserve">
<style type="text/css">
	.st0{fill:#363ECC;}
	.st1{fill:none;stroke:#807EE3;stroke-width:200;stroke-miterlimit:10;}
	.st2{fill:none;stroke:#E7B75E;stroke-width:200;stroke-miterlimit:10;}
	.st3{fill:#FFFFFF;}
</style>
<rect class="st0" width="2560" height="1600"/>
<path class="st1" d="M1752.4,808c0,281.9-228.5,510.4-510.4,510.4S731.6,1089.9,731.6,808S960.1,297.6,1242,297.6"/>
<path class="st2" d="M1243,296.5c281.9,0,510.4,228.5,510.4,510.4"/>
<g>
	<path class="st3" d="M1571.2,295.8v32.4c0,7.1-2,12.5-6,16.4c-4,3.9-9.7,5.8-17.3,5.8c-7.3,0-13-1.9-16.9-5.6
		c-3.9-3.8-5.9-9.2-5.9-16.2v-32.8h14.6v31.6c0,3.8,0.7,6.6,2.1,8.3c1.4,1.7,3.5,2.6,6.3,2.6c3,0,5.1-0.9,6.5-2.6
		c1.3-1.7,2-4.5,2-8.4v-31.5H1571.2z"/>
	<path class="st3" d="M1582.5,349.7v-53.9h14.6v53.9H1582.5z"/>
	<path class="st3" d="M1628.4,349.7v-53.9h14.6V338h20.7v11.8H1628.4z"/>
	<path class="st3" d="M1711.3,328.7c0,6.8-1.8,12.2-5.5,16c-3.7,3.8-8.8,5.7-15.4,5.7c-6.3,0-11.4-2-15.1-5.9
		c-3.7-3.9-5.6-9.2-5.6-15.8c0-6.8,1.8-12.1,5.5-15.9c3.7-3.8,8.8-5.7,15.5-5.7c4.1,0,7.7,0.9,10.9,2.6c3.1,1.7,5.6,4.2,7.3,7.5
		C1710.5,320.6,1711.3,324.4,1711.3,328.7z M1684.3,328.7c0,3.6,0.5,6.3,1.4,8.2s2.6,2.8,4.8,2.8c2.2,0,3.8-0.9,4.7-2.8
		c0.9-1.9,1.4-4.6,1.4-8.2c0-3.6-0.5-6.3-1.4-8.1c-0.9-1.8-2.5-2.7-4.8-2.7c-2.2,0-3.8,0.9-4.8,2.7
		C1684.8,322.5,1684.3,325.2,1684.3,328.7z"/>
	<path class="st3" d="M1738.6,350.5c-6.8,0-12-1.8-15.5-5.5c-3.5-3.7-5.3-9-5.3-15.9c0-6.9,1.9-12.3,5.7-16.1
		c3.8-3.8,9.2-5.7,16.2-5.7c4.8,0,9.4,1.1,13.7,3.2l-4.2,10.6c-1.7-0.8-3.4-1.4-4.8-1.8c-1.5-0.5-3-0.7-4.6-0.7
		c-2.3,0-4.1,0.9-5.4,2.7c-1.3,1.8-1.9,4.4-1.9,7.7c0,6.7,2.5,10,7.4,10c4.2,0,8.3-1.2,12.2-3.7v11.5
		C1748.2,349.2,1743.8,350.5,1738.6,350.5z"/>
	<path class="st3" d="M1787.5,349.7l-2.8-5.5h-0.3c-1.9,2.4-3.9,4.1-5.9,4.9c-2,0.9-4.6,1.3-7.8,1.3c-3.9,0-7-1.2-9.3-3.5
		c-2.3-2.4-3.4-5.7-3.4-9.9c0-4.4,1.5-7.8,4.6-9.9c3.1-2.2,7.6-3.4,13.4-3.7l7-0.2v-0.6c0-3.4-1.7-5.2-5.1-5.2c-3,0-6.9,1-11.6,3.1
		l-4.2-9.5c4.9-2.5,11-3.8,18.4-3.8c5.4,0,9.5,1.3,12.4,4c2.9,2.7,4.4,6.4,4.4,11.1v27.4H1787.5z M1776.8,340.3
		c1.7,0,3.2-0.6,4.5-1.7c1.2-1.1,1.9-2.5,1.9-4.3v-3.2l-3.3,0.1c-4.7,0.2-7.1,1.9-7.1,5.2C1772.7,339,1774,340.3,1776.8,340.3z"/>
	<path class="st3" d="M1821.7,349.7h-14.4v-57.3h14.4V349.7z"/>
	<path class="st3" d="M1831.3,297.6c0-2.2,0.6-3.8,1.8-4.8c1.2-1.1,3.1-1.6,5.8-1.6c2.7,0,4.6,0.5,5.9,1.6c1.2,1.1,1.8,2.7,1.8,4.8
		c0,4.2-2.6,6.3-7.7,6.3C1833.9,303.9,1831.3,301.8,1831.3,297.6z M1846.1,349.7h-14.4V308h14.4V349.7z"/>
	<path class="st3" d="M1887.6,349.7H1853v-8.2l17.3-22.5H1854v-11h32.8v8.9l-16.5,21.8h17.4V349.7z"/>
	<path class="st3" d="M1921.7,349.7l-2.8-5.5h-0.3c-1.9,2.4-3.9,4.1-5.9,4.9c-2,0.9-4.6,1.3-7.8,1.3c-3.9,0-7-1.2-9.3-3.5
		c-2.3-2.4-3.4-5.7-3.4-9.9c0-4.4,1.5-7.8,4.6-9.9c3.1-2.2,7.6-3.4,13.4-3.7l7-0.2v-0.6c0-3.4-1.7-5.2-5.1-5.2c-3,0-6.9,1-11.6,3.1
		l-4.2-9.5c4.9-2.5,11-3.8,18.4-3.8c5.4,0,9.5,1.3,12.4,4c2.9,2.7,4.4,6.4,4.4,11.1v27.4H1921.7z M1911,340.3c1.7,0,3.2-0.6,4.5-1.7
		c1.2-1.1,1.9-2.5,1.9-4.3v-3.2l-3.3,0.1c-4.7,0.2-7.1,1.9-7.1,5.2C1906.9,339,1908.3,340.3,1911,340.3z"/>
	<path class="st3" d="M1961.9,339.1c1.9,0,4.3-0.5,7-1.4v10.5c-1.9,0.8-3.8,1.4-5.5,1.8c-1.8,0.4-3.8,0.5-6.2,0.5
		c-4.8,0-8.3-1.2-10.5-3.6c-2.1-2.4-3.2-6-3.2-10.9v-17.2h-5v-5.9l6.4-4.5l3.7-8.8h9.4v8.4h10.2v10.8H1958V335
		C1958,337.7,1959.3,339.1,1961.9,339.1z"/>
	<path class="st3" d="M1975.9,297.6c0-2.2,0.6-3.8,1.8-4.8c1.2-1.1,3.1-1.6,5.8-1.6c2.7,0,4.6,0.5,5.9,1.6c1.2,1.1,1.8,2.7,1.8,4.8
		c0,4.2-2.6,6.3-7.7,6.3C1978.4,303.9,1975.9,301.8,1975.9,297.6z M1990.6,349.7h-14.4V308h14.4V349.7z"/>
	<path class="st3" d="M2040.6,328.7c0,6.8-1.8,12.2-5.5,16c-3.7,3.8-8.8,5.7-15.4,5.7c-6.3,0-11.4-2-15.1-5.9
		c-3.7-3.9-5.6-9.2-5.6-15.8c0-6.8,1.8-12.1,5.5-15.9c3.7-3.8,8.8-5.7,15.5-5.7c4.1,0,7.7,0.9,10.9,2.6c3.1,1.7,5.6,4.2,7.3,7.5
		C2039.7,320.6,2040.6,324.4,2040.6,328.7z M2013.5,328.7c0,3.6,0.5,6.3,1.4,8.2s2.6,2.8,4.8,2.8c2.2,0,3.8-0.9,4.7-2.8
		c0.9-1.9,1.4-4.6,1.4-8.2c0-3.6-0.5-6.3-1.4-8.1c-0.9-1.8-2.5-2.7-4.8-2.7c-2.2,0-3.8,0.9-4.8,2.7
		C2014,322.5,2013.5,325.2,2013.5,328.7z"/>
	<path class="st3" d="M2075.1,349.7v-22.8c0-2.8-0.4-4.9-1.2-6.3c-0.8-1.4-2.1-2.1-3.9-2.1c-2.4,0-4.2,1-5.3,2.9
		c-1.1,1.9-1.6,5.3-1.6,10v18.3h-14.4V308h10.9l1.8,5.2h0.8c1.2-2,2.9-3.4,5.1-4.4s4.7-1.5,7.5-1.5c4.6,0,8.2,1.3,10.8,4
		c2.6,2.7,3.9,6.4,3.9,11.3v27.2H2075.1z"/>
</g>
<g>
	<path class="st3" d="M1727.3,471.5c0,9-2.5,15.9-7.4,20.8c-5,4.9-11.9,7.3-20.9,7.3h-17.4v-53.9h18.6c8.6,0,15.3,2.2,20,6.6
		C1724.9,456.8,1727.3,463.2,1727.3,471.5z M1712.2,472c0-4.9-1-8.6-2.9-11c-2-2.4-4.9-3.6-8.9-3.6h-4.2v30.2h3.2
		c4.4,0,7.7-1.3,9.7-3.9S1712.2,477.3,1712.2,472z"/>
	<path class="st3" d="M1763.3,499.6l-2.8-5.5h-0.3c-1.9,2.4-3.9,4.1-5.9,4.9c-2,0.9-4.6,1.3-7.8,1.3c-3.9,0-7-1.2-9.3-3.5
		c-2.3-2.4-3.4-5.7-3.4-9.9c0-4.4,1.5-7.8,4.6-9.9c3.1-2.2,7.6-3.4,13.4-3.7l7-0.2v-0.6c0-3.4-1.7-5.2-5.1-5.2c-3,0-6.9,1-11.6,3.1
		l-4.2-9.5c4.9-2.5,11-3.8,18.4-3.8c5.4,0,9.5,1.3,12.4,4c2.9,2.7,4.4,6.4,4.4,11.1v27.4H1763.3z M1752.6,490.2
		c1.7,0,3.2-0.6,4.5-1.7c1.2-1.1,1.9-2.5,1.9-4.3V481l-3.3,0.1c-4.7,0.2-7.1,1.9-7.1,5.2C1748.6,488.9,1749.9,490.2,1752.6,490.2z"
		/>
	<path class="st3" d="M1803.6,488.9c1.9,0,4.3-0.5,7-1.4V498c-1.9,0.8-3.8,1.4-5.5,1.8c-1.8,0.4-3.8,0.5-6.2,0.5
		c-4.8,0-8.3-1.2-10.5-3.6c-2.1-2.4-3.2-6-3.2-10.9v-17.2h-5v-5.9l6.4-4.5l3.7-8.8h9.4v8.4h10.2v10.8h-10.2v16.3
		C1799.7,487.6,1801,488.9,1803.6,488.9z"/>
	<path class="st3" d="M1845.1,499.6l-2.8-5.5h-0.3c-1.9,2.4-3.9,4.1-5.9,4.9c-2,0.9-4.6,1.3-7.8,1.3c-3.9,0-7-1.2-9.3-3.5
		c-2.3-2.4-3.4-5.7-3.4-9.9c0-4.4,1.5-7.8,4.6-9.9c3.1-2.2,7.6-3.4,13.4-3.7l7-0.2v-0.6c0-3.4-1.7-5.2-5.1-5.2c-3,0-6.9,1-11.6,3.1
		l-4.2-9.5c4.9-2.5,11-3.8,18.4-3.8c5.4,0,9.5,1.3,12.4,4c2.9,2.7,4.4,6.4,4.4,11.1v27.4H1845.1z M1834.4,490.2
		c1.7,0,3.2-0.6,4.5-1.7c1.2-1.1,1.9-2.5,1.9-4.3V481l-3.3,0.1c-4.7,0.2-7.1,1.9-7.1,5.2C1830.3,488.9,1831.7,490.2,1834.4,490.2z"
		/>
	<path class="st3" d="M1935.7,499.6v-22.7c0-2.8-0.4-4.9-1.2-6.4c-0.8-1.4-2-2.1-3.7-2.1c-2.2,0-3.8,0.9-4.9,2.8
		c-1,1.9-1.5,4.9-1.5,8.9v19.5H1910v-22.7c0-2.8-0.4-4.9-1.1-6.4s-1.9-2.1-3.6-2.1c-2.3,0-3.9,1-4.9,3c-1,2-1.5,5.3-1.5,9.9v18.3
		h-14.4v-41.8h10.9l1.8,5.2h0.8c1.1-1.9,2.7-3.4,4.8-4.4c2.1-1,4.5-1.5,7.2-1.5c6,0,10.2,1.8,12.7,5.5h1.1c1.2-1.7,2.8-3.1,4.9-4
		c2.1-1,4.4-1.5,6.9-1.5c4.9,0,8.6,1.3,10.9,3.8c2.4,2.5,3.5,6.4,3.5,11.5v27.2H1935.7z"/>
	<path class="st3" d="M1999.8,478.6c0,6.8-1.8,12.2-5.5,16c-3.7,3.8-8.8,5.7-15.4,5.7c-6.3,0-11.4-2-15.1-5.9
		c-3.7-3.9-5.6-9.2-5.6-15.8c0-6.8,1.8-12.1,5.5-15.9c3.7-3.8,8.8-5.7,15.5-5.7c4.1,0,7.7,0.9,10.9,2.6c3.1,1.7,5.6,4.2,7.3,7.5
		C1998.9,470.5,1999.8,474.3,1999.8,478.6z M1972.7,478.6c0,3.6,0.5,6.3,1.4,8.2s2.6,2.8,4.8,2.8c2.2,0,3.8-0.9,4.7-2.8
		c0.9-1.9,1.4-4.6,1.4-8.2c0-3.6-0.5-6.3-1.4-8.1c-0.9-1.8-2.5-2.7-4.8-2.7c-2.2,0-3.8,0.9-4.8,2.7
		C1973.2,472.3,1972.7,475,1972.7,478.6z"/>
	<path class="st3" d="M2021,500.3c-3,0-5.6-0.8-7.8-2.5c-2.2-1.7-3.9-4.2-5.2-7.5c-1.2-3.3-1.8-7.1-1.8-11.5
		c0-6.8,1.4-12.1,4.1-15.9c2.7-3.8,6.5-5.7,11.2-5.7c2.3,0,4.4,0.5,6.1,1.4c1.8,0.9,3.4,2.5,4.8,4.7h0.3c-0.5-3.3-0.7-6.5-0.7-9.8
		v-11.2h14.5v57.3h-10.9l-3.1-5.3h-0.6C2029.6,498.3,2025.9,500.3,2021,500.3z M2026.9,488.9c2.3,0,3.9-0.7,4.9-2.2
		c0.9-1.4,1.5-3.7,1.5-6.7v-1.1c0-3.7-0.5-6.3-1.6-7.9c-1.1-1.6-2.7-2.3-5-2.3c-1.9,0-3.4,0.9-4.4,2.7c-1,1.8-1.6,4.3-1.6,7.6
		c0,3.2,0.5,5.7,1.6,7.4C2023.4,488.1,2024.9,488.9,2026.9,488.9z"/>
	<path class="st3" d="M2076.7,500.3c-7,0-12.4-1.8-16.2-5.5s-5.8-9-5.8-15.8c0-7.1,1.8-12.5,5.3-16.2c3.6-3.8,8.6-5.7,15.3-5.7
		c6.3,0,11.1,1.6,14.6,4.9c3.4,3.3,5.1,8,5.1,14.2v6.4h-25.8c0.1,2.3,1,4.2,2.6,5.5c1.6,1.3,3.8,2,6.6,2c2.5,0,4.9-0.2,7-0.7
		s4.4-1.3,6.9-2.5v10.4c-2.3,1.2-4.6,2-7,2.4C2082.9,500.1,2080,500.3,2076.7,500.3z M2075.9,466.9c-1.7,0-3.1,0.5-4.3,1.6
		c-1.1,1.1-1.8,2.7-2,5h12.4c0-2-0.6-3.6-1.7-4.8C2079.2,467.5,2077.7,466.9,2075.9,466.9z"/>
	<path class="st3" d="M2117.6,499.6h-14.4v-57.3h14.4V499.6z"/>
</g>
<g>
	<path class="st3" d="M1786.4,649.5v-53.9h14.6v42.1h20.7v11.8H1786.4z"/>
	<path class="st3" d="M1869.3,628.5c0,6.8-1.8,12.2-5.5,16c-3.7,3.8-8.8,5.7-15.4,5.7c-6.3,0-11.4-2-15.1-5.9
		c-3.7-3.9-5.6-9.2-5.6-15.8c0-6.8,1.8-12.1,5.5-15.9c3.7-3.8,8.8-5.7,15.5-5.7c4.1,0,7.7,0.9,10.9,2.6c3.1,1.7,5.6,4.2,7.3,7.5
		C1868.5,620.4,1869.3,624.2,1869.3,628.5z M1842.3,628.5c0,3.6,0.5,6.3,1.4,8.2s2.6,2.8,4.8,2.8c2.2,0,3.8-0.9,4.7-2.8
		c0.9-1.9,1.4-4.6,1.4-8.2c0-3.6-0.5-6.3-1.4-8.1c-0.9-1.8-2.5-2.7-4.8-2.7c-2.2,0-3.8,0.9-4.8,2.7
		C1842.8,622.2,1842.3,624.9,1842.3,628.5z"/>
	<path class="st3" d="M1896.6,650.2c-6.8,0-12-1.8-15.5-5.5c-3.5-3.7-5.3-9-5.3-15.9c0-6.9,1.9-12.3,5.7-16.1
		c3.8-3.8,9.2-5.7,16.2-5.7c4.8,0,9.4,1.1,13.7,3.2l-4.2,10.6c-1.7-0.8-3.4-1.4-4.8-1.8c-1.5-0.5-3-0.7-4.6-0.7
		c-2.3,0-4.1,0.9-5.4,2.7c-1.3,1.8-1.9,4.4-1.9,7.7c0,6.7,2.5,10,7.4,10c4.2,0,8.3-1.2,12.2-3.7v11.5
		C1906.2,649,1901.8,650.2,1896.6,650.2z"/>
	<path class="st3" d="M1945.5,649.5l-2.8-5.5h-0.3c-1.9,2.4-3.9,4.1-5.9,4.9c-2,0.9-4.6,1.3-7.8,1.3c-3.9,0-7-1.2-9.3-3.5
		c-2.3-2.4-3.4-5.7-3.4-9.9c0-4.4,1.5-7.8,4.6-9.9c3.1-2.2,7.6-3.4,13.4-3.7l7-0.2v-0.6c0-3.4-1.7-5.2-5.1-5.2c-3,0-6.9,1-11.6,3.1
		l-4.2-9.5c4.9-2.5,11-3.8,18.4-3.8c5.4,0,9.5,1.3,12.4,4c2.9,2.7,4.4,6.4,4.4,11.1v27.4H1945.5z M1934.8,640.1
		c1.7,0,3.2-0.6,4.5-1.7c1.2-1.1,1.9-2.5,1.9-4.3v-3.2l-3.3,0.1c-4.7,0.2-7.1,1.9-7.1,5.2C1930.7,638.8,1932,640.1,1934.8,640.1z"/>
	<path class="st3" d="M1979.7,649.5h-14.4v-57.3h14.4V649.5z"/>
	<path class="st3" d="M2034.3,650.2c-2.1,0-4-0.4-5.7-1c-1.7-0.7-3.3-2-5-3.8h-0.7c0.4,2.9,0.7,4.7,0.7,5.5v16.8h-14.4v-59.9h11.7
		l2,5.3h0.7c2.7-4,6.4-6,11.1-6c4.6,0,8.2,1.9,10.9,5.7c2.6,3.8,3.9,9.1,3.9,15.8c0,6.7-1.4,12-4.1,15.9S2039,650.2,2034.3,650.2z
		 M2029.5,618.3c-2.1,0-3.6,0.8-4.4,2.3c-0.8,1.5-1.3,3.8-1.4,6.7v1.1c0,3.6,0.5,6.2,1.4,7.8c1,1.6,2.5,2.4,4.5,2.4
		c1.8,0,3.2-0.8,4-2.4s1.3-4.2,1.3-7.9c0-3.6-0.4-6.2-1.3-7.7C2032.8,619.1,2031.4,618.3,2029.5,618.3z"/>
	<path class="st3" d="M2083,607c1.3,0,2.4,0.1,3.6,0.3l0.8,0.1l-1.3,13.6c-1.2-0.3-2.8-0.4-4.9-0.4c-3.1,0-5.4,0.7-6.9,2.2
		s-2.1,3.5-2.1,6.2v20.5h-14.4v-41.8h10.7l2.2,6.7h0.7c1.2-2.2,2.9-4,5-5.4C2078.6,607.7,2080.8,607,2083,607z"/>
	<path class="st3" d="M2133.1,628.5c0,6.8-1.8,12.2-5.5,16c-3.7,3.8-8.8,5.7-15.4,5.7c-6.3,0-11.4-2-15.1-5.9
		c-3.7-3.9-5.6-9.2-5.6-15.8c0-6.8,1.8-12.1,5.5-15.9c3.7-3.8,8.8-5.7,15.5-5.7c4.1,0,7.7,0.9,10.9,2.6c3.1,1.7,5.6,4.2,7.3,7.5
		C2132.2,620.4,2133.1,624.2,2133.1,628.5z M2106,628.5c0,3.6,0.5,6.3,1.4,8.2s2.6,2.8,4.8,2.8c2.2,0,3.8-0.9,4.7-2.8
		c0.9-1.9,1.4-4.6,1.4-8.2c0-3.6-0.5-6.3-1.4-8.1c-0.9-1.8-2.5-2.7-4.8-2.7c-2.2,0-3.8,0.9-4.8,2.7
		C2106.5,622.2,2106,624.9,2106,628.5z"/>
	<path class="st3" d="M2160.3,650.2c-6.8,0-12-1.8-15.5-5.5c-3.5-3.7-5.3-9-5.3-15.9c0-6.9,1.9-12.3,5.7-16.1
		c3.8-3.8,9.2-5.7,16.2-5.7c4.8,0,9.4,1.1,13.7,3.2l-4.2,10.6c-1.7-0.8-3.4-1.4-4.8-1.8c-1.5-0.5-3-0.7-4.6-0.7
		c-2.3,0-4.1,0.9-5.4,2.7c-1.3,1.8-1.9,4.4-1.9,7.7c0,6.7,2.5,10,7.4,10c4.2,0,8.3-1.2,12.2-3.7v11.5
		C2170,649,2165.5,650.2,2160.3,650.2z"/>
	<path class="st3" d="M2202.1,650.2c-7,0-12.4-1.8-16.2-5.5s-5.8-9-5.8-15.8c0-7.1,1.8-12.5,5.3-16.2c3.6-3.8,8.6-5.7,15.3-5.7
		c6.3,0,11.1,1.6,14.6,4.9c3.4,3.3,5.1,8,5.1,14.2v6.4h-25.8c0.1,2.3,1,4.2,2.6,5.5c1.6,1.3,3.8,2,6.6,2c2.5,0,4.9-0.2,7-0.7
		s4.4-1.3,6.9-2.5v10.4c-2.3,1.2-4.6,2-7,2.4C2208.3,650,2205.5,650.2,2202.1,650.2z M2201.3,616.8c-1.7,0-3.1,0.5-4.3,1.6
		c-1.1,1.1-1.8,2.7-2,5h12.4c0-2-0.6-3.6-1.7-4.8C2204.6,617.4,2203.1,616.8,2201.3,616.8z"/>
	<path class="st3" d="M2260.8,636.7c0,4.5-1.5,7.8-4.6,10.1c-3,2.3-7.4,3.4-13.1,3.4c-3.1,0-5.8-0.2-8.1-0.5c-2.3-0.3-4.6-0.9-7-1.8
		v-11.5c2.2,1,4.7,1.8,7.4,2.4c2.7,0.6,5,1,7.1,1c3.1,0,4.7-0.7,4.7-2.1c0-0.7-0.4-1.4-1.3-2c-0.9-0.6-3.4-1.7-7.6-3.4
		c-3.8-1.6-6.5-3.4-8-5.4c-1.5-2-2.3-4.5-2.3-7.6c0-3.9,1.5-6.9,4.5-9.1c3-2.2,7.2-3.2,12.7-3.2c2.8,0,5.3,0.3,7.8,0.9
		c2.4,0.6,4.9,1.5,7.5,2.6l-3.9,9.3c-1.9-0.9-3.9-1.6-6.1-2.2c-2.1-0.6-3.9-0.9-5.2-0.9c-2.4,0-3.5,0.6-3.5,1.7
		c0,0.7,0.4,1.3,1.2,1.8c0.8,0.5,3.2,1.5,7.1,3.1c2.9,1.2,5.1,2.4,6.5,3.5c1.4,1.2,2.5,2.5,3.2,4.1
		C2260.5,632.5,2260.8,634.4,2260.8,636.7z"/>
	<path class="st3" d="M2301.1,636.7c0,4.5-1.5,7.8-4.6,10.1c-3,2.3-7.4,3.4-13.1,3.4c-3.1,0-5.8-0.2-8.1-0.5c-2.3-0.3-4.6-0.9-7-1.8
		v-11.5c2.2,1,4.7,1.8,7.4,2.4c2.7,0.6,5,1,7.1,1c3.1,0,4.7-0.7,4.7-2.1c0-0.7-0.4-1.4-1.3-2c-0.9-0.6-3.4-1.7-7.6-3.4
		c-3.8-1.6-6.5-3.4-8-5.4c-1.5-2-2.3-4.5-2.3-7.6c0-3.9,1.5-6.9,4.5-9.1c3-2.2,7.2-3.2,12.7-3.2c2.8,0,5.3,0.3,7.8,0.9
		c2.4,0.6,4.9,1.5,7.5,2.6l-3.9,9.3c-1.9-0.9-3.9-1.6-6.1-2.2c-2.1-0.6-3.9-0.9-5.2-0.9c-2.4,0-3.5,0.6-3.5,1.7
		c0,0.7,0.4,1.3,1.2,1.8c0.8,0.5,3.2,1.5,7.1,3.1c2.9,1.2,5.1,2.4,6.5,3.5c1.4,1.2,2.5,2.5,3.2,4.1
		C2300.8,632.5,2301.1,634.4,2301.1,636.7z"/>
	<path class="st3" d="M2329.2,650.2c-7,0-12.4-1.8-16.2-5.5s-5.8-9-5.8-15.8c0-7.1,1.8-12.5,5.3-16.2c3.6-3.8,8.6-5.7,15.3-5.7
		c6.3,0,11.1,1.6,14.6,4.9c3.4,3.3,5.1,8,5.1,14.2v6.4h-25.8c0.1,2.3,1,4.2,2.6,5.5c1.6,1.3,3.8,2,6.6,2c2.5,0,4.9-0.2,7-0.7
		s4.4-1.3,6.9-2.5v10.4c-2.3,1.2-4.6,2-7,2.4C2335.5,650,2332.6,650.2,2329.2,650.2z M2328.4,616.8c-1.7,0-3.1,0.5-4.3,1.6
		c-1.1,1.1-1.8,2.7-2,5h12.4c0-2-0.6-3.6-1.7-4.8C2331.7,617.4,2330.2,616.8,2328.4,616.8z"/>
	<path class="st3" d="M2388,636.7c0,4.5-1.5,7.8-4.6,10.1c-3,2.3-7.4,3.4-13.1,3.4c-3.1,0-5.8-0.2-8.1-0.5c-2.3-0.3-4.6-0.9-7-1.8
		v-11.5c2.2,1,4.7,1.8,7.4,2.4c2.7,0.6,5,1,7.1,1c3.1,0,4.7-0.7,4.7-2.1c0-0.7-0.4-1.4-1.3-2c-0.9-0.6-3.4-1.7-7.6-3.4
		c-3.8-1.6-6.5-3.4-8-5.4c-1.5-2-2.3-4.5-2.3-7.6c0-3.9,1.5-6.9,4.5-9.1c3-2.2,7.2-3.2,12.7-3.2c2.8,0,5.3,0.3,7.8,0.9
		c2.4,0.6,4.9,1.5,7.5,2.6l-3.9,9.3c-1.9-0.9-3.9-1.6-6.1-2.2c-2.1-0.6-3.9-0.9-5.2-0.9c-2.4,0-3.5,0.6-3.5,1.7
		c0,0.7,0.4,1.3,1.2,1.8c0.8,0.5,3.2,1.5,7.1,3.1c2.9,1.2,5.1,2.4,6.5,3.5c1.4,1.2,2.5,2.5,3.2,4.1
		C2387.6,632.5,2388,634.4,2388,636.7z"/>
</g>
<g>
	<path class="st3" d="M270.8,401.1h-14.6v-22h-16.9v22h-14.6v-53.9h14.6v20h16.9v-20h14.6V401.1z"/>
	<path class="st3" d="M308.8,401.1l-2.8-5.5h-0.3c-1.9,2.4-3.9,4.1-5.9,4.9c-2,0.9-4.6,1.3-7.8,1.3c-3.9,0-7-1.2-9.3-3.5
		c-2.3-2.4-3.4-5.7-3.4-9.9c0-4.4,1.5-7.8,4.6-9.9c3.1-2.2,7.6-3.4,13.5-3.7l7-0.2v-0.6c0-3.4-1.7-5.2-5.1-5.2c-3,0-6.9,1-11.6,3.1
		l-4.2-9.5c4.9-2.5,11-3.8,18.4-3.8c5.4,0,9.5,1.3,12.4,4c2.9,2.7,4.4,6.4,4.4,11.1v27.4H308.8z M298.2,391.6c1.7,0,3.2-0.6,4.5-1.7
		c1.2-1.1,1.9-2.5,1.9-4.3v-3.2l-3.3,0.1c-4.7,0.2-7.1,1.9-7.1,5.2C294.1,390.4,295.4,391.6,298.2,391.6z"/>
	<path class="st3" d="M353.8,358.6c1.3,0,2.4,0.1,3.6,0.3l0.8,0.1l-1.3,13.6c-1.2-0.3-2.8-0.4-4.9-0.4c-3.1,0-5.4,0.7-6.9,2.2
		c-1.4,1.4-2.1,3.5-2.1,6.2v20.5h-14.4v-41.8h10.7l2.2,6.7h0.7c1.2-2.2,2.9-4,5-5.4C349.5,359.3,351.6,358.6,353.8,358.6z"/>
	<path class="st3" d="M415.3,401.1v-22.7c0-2.8-0.4-4.9-1.2-6.4s-2-2.1-3.7-2.1c-2.2,0-3.8,0.9-4.9,2.8c-1,1.9-1.5,4.9-1.5,8.9v19.5
		h-14.4v-22.7c0-2.8-0.4-4.9-1.1-6.4s-1.9-2.1-3.6-2.1c-2.3,0-3.9,1-4.9,3c-1,2-1.5,5.3-1.5,9.9v18.3H364v-41.8h10.9l1.8,5.2h0.8
		c1.1-1.9,2.7-3.4,4.8-4.4c2.1-1,4.5-1.5,7.2-1.5c6,0,10.2,1.8,12.7,5.5h1.1c1.2-1.7,2.8-3.1,4.9-4c2.1-1,4.4-1.5,6.9-1.5
		c4.9,0,8.6,1.3,10.9,3.8c2.4,2.5,3.5,6.4,3.5,11.5v27.2H415.3z"/>
	<path class="st3" d="M479.4,380.1c0,6.8-1.8,12.2-5.5,16c-3.7,3.8-8.8,5.7-15.4,5.7c-6.3,0-11.4-2-15.1-5.9
		c-3.7-3.9-5.6-9.2-5.6-15.8c0-6.8,1.8-12.1,5.5-15.9c3.7-3.8,8.8-5.7,15.5-5.7c4.1,0,7.7,0.9,10.9,2.6c3.1,1.7,5.6,4.2,7.3,7.5
		C478.5,372,479.4,375.8,479.4,380.1z M452.3,380.1c0,3.6,0.5,6.3,1.4,8.2c1,1.9,2.6,2.8,4.8,2.8c2.2,0,3.8-0.9,4.7-2.8
		c0.9-1.9,1.4-4.6,1.4-8.2c0-3.6-0.5-6.3-1.4-8.1c-0.9-1.8-2.5-2.7-4.8-2.7c-2.2,0-3.8,0.9-4.8,2.7
		C452.8,373.8,452.3,376.5,452.3,380.1z"/>
	<path class="st3" d="M513.9,401.1v-22.8c0-2.8-0.4-4.9-1.2-6.3c-0.8-1.4-2.1-2.1-3.9-2.1c-2.4,0-4.2,1-5.3,2.9
		c-1.1,1.9-1.6,5.3-1.6,10v18.3h-14.4v-41.8h10.9l1.8,5.2h0.8c1.2-2,2.9-3.4,5.1-4.4c2.2-1,4.7-1.5,7.5-1.5c4.6,0,8.2,1.3,10.8,4
		c2.6,2.7,3.9,6.4,3.9,11.3v27.2H513.9z"/>
	<path class="st3" d="M537.9,348.9c0-2.2,0.6-3.8,1.8-4.8c1.2-1.1,3.1-1.6,5.8-1.6c2.7,0,4.6,0.5,5.9,1.6c1.2,1.1,1.8,2.7,1.8,4.8
		c0,4.2-2.6,6.3-7.7,6.3C540.4,355.3,537.9,353.2,537.9,348.9z M552.6,401.1h-14.4v-41.8h14.4V401.1z"/>
	<path class="st3" d="M594.1,401.1h-34.6v-8.2l17.3-22.5h-16.3v-11h32.8v8.9l-16.5,21.8h17.4V401.1z"/>
	<path class="st3" d="M621.1,401.8c-7,0-12.4-1.8-16.2-5.5c-3.8-3.7-5.8-9-5.8-15.8c0-7.1,1.8-12.5,5.3-16.2
		c3.6-3.8,8.6-5.7,15.3-5.7c6.3,0,11.1,1.6,14.6,4.9c3.4,3.3,5.1,8,5.1,14.2v6.4h-25.8c0.1,2.3,1,4.2,2.6,5.5c1.6,1.3,3.8,2,6.6,2
		c2.5,0,4.9-0.2,7-0.7c2.1-0.5,4.4-1.3,6.9-2.5v10.4c-2.3,1.2-4.6,2-7,2.4S624.4,401.8,621.1,401.8z M620.3,368.4
		c-1.7,0-3.1,0.5-4.3,1.6c-1.1,1.1-1.8,2.7-2,5h12.4c0-2-0.6-3.6-1.7-4.8C623.6,369,622.1,368.4,620.3,368.4z"/>
	<path class="st3" d="M660.6,401.8c-3,0-5.6-0.8-7.8-2.5c-2.2-1.7-3.9-4.2-5.2-7.5c-1.2-3.3-1.8-7.1-1.8-11.5
		c0-6.8,1.4-12.1,4.1-15.9c2.7-3.8,6.5-5.7,11.2-5.7c2.3,0,4.4,0.5,6.1,1.4s3.4,2.5,4.8,4.7h0.3c-0.5-3.3-0.7-6.5-0.7-9.8v-11.2
		h14.5v57.3h-10.9l-3.1-5.3h-0.6C669.2,399.8,665.5,401.8,660.6,401.8z M666.5,390.4c2.3,0,3.9-0.7,4.9-2.2c0.9-1.4,1.5-3.7,1.5-6.7
		v-1.1c0-3.7-0.5-6.3-1.6-7.9c-1.1-1.6-2.7-2.3-5-2.3c-1.9,0-3.4,0.9-4.4,2.7c-1,1.8-1.6,4.3-1.6,7.6c0,3.2,0.5,5.7,1.6,7.4
		C663,389.6,664.5,390.4,666.5,390.4z"/>
	<path class="st3" d="M740.8,401.8c-2.1,0-4-0.4-5.7-1c-1.7-0.7-3.3-2-5-3.8h-0.7c0.4,2.9,0.7,4.7,0.7,5.5v16.8h-14.4v-59.9h11.7
		l2,5.3h0.7c2.7-4,6.4-6,11.1-6c4.6,0,8.2,1.9,10.9,5.7c2.6,3.8,3.9,9.1,3.9,15.8c0,6.7-1.4,12-4.1,15.9
		C749.2,399.9,745.5,401.8,740.8,401.8z M736,369.9c-2.1,0-3.6,0.8-4.4,2.3c-0.8,1.5-1.3,3.8-1.4,6.7v1.1c0,3.6,0.5,6.2,1.4,7.8
		c1,1.6,2.5,2.4,4.5,2.4c1.8,0,3.2-0.8,4-2.4c0.8-1.6,1.3-4.2,1.3-7.9c0-3.6-0.4-6.2-1.3-7.7C739.3,370.7,737.9,369.9,736,369.9z"/>
	<path class="st3" d="M789.5,358.6c1.3,0,2.4,0.1,3.6,0.3l0.8,0.1l-1.3,13.6c-1.2-0.3-2.8-0.4-4.9-0.4c-3.1,0-5.4,0.7-6.9,2.2
		c-1.4,1.4-2.1,3.5-2.1,6.2v20.5h-14.4v-41.8H775l2.2,6.7h0.7c1.2-2.2,2.9-4,5-5.4C785.1,359.3,787.3,358.6,789.5,358.6z"/>
	<path class="st3" d="M839.5,380.1c0,6.8-1.8,12.2-5.5,16c-3.7,3.8-8.8,5.7-15.4,5.7c-6.3,0-11.4-2-15.1-5.9
		c-3.7-3.9-5.6-9.2-5.6-15.8c0-6.8,1.8-12.1,5.5-15.9c3.7-3.8,8.8-5.7,15.5-5.7c4.1,0,7.7,0.9,10.9,2.6c3.1,1.7,5.6,4.2,7.3,7.5
		C838.7,372,839.5,375.8,839.5,380.1z M812.5,380.1c0,3.6,0.5,6.3,1.4,8.2c1,1.9,2.6,2.8,4.8,2.8c2.2,0,3.8-0.9,4.7-2.8
		c0.9-1.9,1.4-4.6,1.4-8.2c0-3.6-0.5-6.3-1.4-8.1c-0.9-1.8-2.5-2.7-4.8-2.7c-2.2,0-3.8,0.9-4.8,2.7
		C813,373.8,812.5,376.5,812.5,380.1z"/>
	<path class="st3" d="M866.8,401.8c-6.8,0-12-1.8-15.5-5.5c-3.5-3.7-5.3-9-5.3-15.9c0-6.9,1.9-12.3,5.7-16.1
		c3.8-3.8,9.2-5.7,16.3-5.7c4.8,0,9.4,1.1,13.7,3.2l-4.2,10.6c-1.7-0.8-3.4-1.4-4.8-1.8c-1.5-0.5-3-0.7-4.6-0.7
		c-2.3,0-4.1,0.9-5.4,2.7c-1.3,1.8-1.9,4.4-1.9,7.7c0,6.7,2.5,10,7.4,10c4.2,0,8.3-1.2,12.2-3.7v11.5
		C876.4,400.6,872,401.8,866.8,401.8z"/>
	<path class="st3" d="M908.6,401.8c-7,0-12.4-1.8-16.2-5.5c-3.8-3.7-5.8-9-5.8-15.8c0-7.1,1.8-12.5,5.3-16.2
		c3.6-3.8,8.6-5.7,15.3-5.7c6.3,0,11.1,1.6,14.6,4.9c3.4,3.3,5.1,8,5.1,14.2v6.4h-25.8c0.1,2.3,1,4.2,2.6,5.5c1.6,1.3,3.8,2,6.6,2
		c2.5,0,4.9-0.2,7-0.7c2.1-0.5,4.4-1.3,6.9-2.5v10.4c-2.3,1.2-4.6,2-7,2.4S911.9,401.8,908.6,401.8z M907.7,368.4
		c-1.7,0-3.1,0.5-4.3,1.6c-1.1,1.1-1.8,2.7-2,5h12.4c0-2-0.6-3.6-1.7-4.8C911.1,369,909.6,368.4,907.7,368.4z"/>
	<path class="st3" d="M967.3,388.2c0,4.5-1.5,7.8-4.6,10.1c-3,2.3-7.4,3.4-13.1,3.4c-3.1,0-5.8-0.2-8.1-0.5c-2.3-0.3-4.6-0.9-7-1.8
		V388c2.2,1,4.7,1.8,7.4,2.4c2.7,0.6,5,1,7.1,1c3.1,0,4.7-0.7,4.7-2.1c0-0.7-0.4-1.4-1.3-2c-0.9-0.6-3.4-1.7-7.6-3.4
		c-3.8-1.6-6.5-3.4-8-5.4c-1.5-2-2.3-4.5-2.3-7.6c0-3.9,1.5-6.9,4.5-9.1c3-2.2,7.2-3.2,12.7-3.2c2.8,0,5.3,0.3,7.8,0.9
		c2.4,0.6,4.9,1.5,7.5,2.6l-3.9,9.3c-1.9-0.9-3.9-1.6-6.1-2.2c-2.1-0.6-3.9-0.9-5.2-0.9c-2.4,0-3.5,0.6-3.5,1.7
		c0,0.7,0.4,1.3,1.2,1.8c0.8,0.5,3.2,1.5,7.1,3.1c2.9,1.2,5.1,2.4,6.5,3.5c1.4,1.2,2.5,2.5,3.2,4.1C967,384.1,967.3,386,967.3,388.2
		z"/>
	<path class="st3" d="M1007.6,388.2c0,4.5-1.5,7.8-4.6,10.1c-3,2.3-7.4,3.4-13.1,3.4c-3.1,0-5.8-0.2-8.1-0.5c-2.3-0.3-4.6-0.9-7-1.8
		V388c2.2,1,4.7,1.8,7.4,2.4c2.7,0.6,5,1,7.1,1c3.1,0,4.7-0.7,4.7-2.1c0-0.7-0.4-1.4-1.3-2c-0.9-0.6-3.4-1.7-7.6-3.4
		c-3.8-1.6-6.5-3.4-8-5.4c-1.5-2-2.3-4.5-2.3-7.6c0-3.9,1.5-6.9,4.5-9.1c3-2.2,7.2-3.2,12.7-3.2c2.8,0,5.3,0.3,7.8,0.9
		c2.4,0.6,4.9,1.5,7.5,2.6l-3.9,9.3c-1.9-0.9-3.9-1.6-6.1-2.2c-2.1-0.6-3.9-0.9-5.2-0.9c-2.4,0-3.5,0.6-3.5,1.7
		c0,0.7,0.4,1.3,1.2,1.8c0.8,0.5,3.2,1.5,7.1,3.1c2.9,1.2,5.1,2.4,6.5,3.5c1.4,1.2,2.5,2.5,3.2,4.1
		C1007.2,384.1,1007.6,386,1007.6,388.2z"/>
	<path class="st3" d="M1035.7,401.8c-7,0-12.4-1.8-16.2-5.5c-3.8-3.7-5.8-9-5.8-15.8c0-7.1,1.8-12.5,5.3-16.2
		c3.6-3.8,8.6-5.7,15.3-5.7c6.3,0,11.1,1.6,14.6,4.9c3.4,3.3,5.1,8,5.1,14.2v6.4h-25.8c0.1,2.3,1,4.2,2.6,5.5c1.6,1.3,3.8,2,6.6,2
		c2.5,0,4.9-0.2,7-0.7c2.1-0.5,4.4-1.3,6.9-2.5v10.4c-2.3,1.2-4.6,2-7,2.4S1039.1,401.8,1035.7,401.8z M1034.9,368.4
		c-1.7,0-3.1,0.5-4.3,1.6c-1.1,1.1-1.8,2.7-2,5h12.4c0-2-0.6-3.6-1.7-4.8C1038.2,369,1036.7,368.4,1034.9,368.4z"/>
	<path class="st3" d="M1094.5,388.2c0,4.5-1.5,7.8-4.6,10.1c-3,2.3-7.4,3.4-13.1,3.4c-3.1,0-5.8-0.2-8.1-0.5c-2.3-0.3-4.6-0.9-7-1.8
		V388c2.2,1,4.7,1.8,7.4,2.4c2.7,0.6,5,1,7.1,1c3.1,0,4.7-0.7,4.7-2.1c0-0.7-0.4-1.4-1.3-2c-0.9-0.6-3.4-1.7-7.6-3.4
		c-3.8-1.6-6.5-3.4-8-5.4c-1.5-2-2.3-4.5-2.3-7.6c0-3.9,1.5-6.9,4.5-9.1c3-2.2,7.2-3.2,12.7-3.2c2.8,0,5.3,0.3,7.8,0.9
		c2.4,0.6,4.9,1.5,7.5,2.6l-3.9,9.3c-1.9-0.9-3.9-1.6-6.1-2.2c-2.1-0.6-3.9-0.9-5.2-0.9c-2.4,0-3.5,0.6-3.5,1.7
		c0,0.7,0.4,1.3,1.2,1.8c0.8,0.5,3.2,1.5,7.1,3.1c2.9,1.2,5.1,2.4,6.5,3.5c1.4,1.2,2.5,2.5,3.2,4.1
		C1094.1,384.1,1094.5,386,1094.5,388.2z"/>
</g>
<g>
	<path class="st3" d="M340.6,582.4c-3.5,0-6.2,1.4-8.1,4.3c-1.9,2.8-2.9,6.7-2.9,11.7c0,10.4,3.9,15.6,11.8,15.6
		c2.4,0,4.7-0.3,6.9-1s4.5-1.5,6.7-2.4v12.3c-4.5,2-9.6,3-15.3,3c-8.1,0-14.4-2.4-18.7-7.1c-4.3-4.7-6.5-11.5-6.5-20.5
		c0-5.6,1-10.5,3.2-14.7s5.1-7.5,9.1-9.7c3.9-2.3,8.6-3.4,13.9-3.4c5.8,0,11.4,1.3,16.7,3.8l-4.5,11.5c-2-0.9-4-1.7-6-2.4
		C345,582.7,342.9,582.4,340.6,582.4z"/>
	<path class="st3" d="M404.6,604.1c0,6.8-1.8,12.2-5.5,16c-3.7,3.8-8.8,5.7-15.4,5.7c-6.3,0-11.4-2-15.1-5.9
		c-3.7-3.9-5.6-9.2-5.6-15.8c0-6.8,1.8-12.1,5.5-15.9c3.7-3.8,8.8-5.7,15.5-5.7c4.1,0,7.7,0.9,10.9,2.6c3.1,1.7,5.6,4.2,7.3,7.5
		C403.7,596,404.6,599.8,404.6,604.1z M377.5,604.1c0,3.6,0.5,6.3,1.4,8.2c1,1.9,2.6,2.8,4.8,2.8c2.2,0,3.8-0.9,4.7-2.8
		c0.9-1.9,1.4-4.6,1.4-8.2c0-3.6-0.5-6.3-1.4-8.1c-0.9-1.8-2.5-2.7-4.8-2.7c-2.2,0-3.8,0.9-4.8,2.7
		C378,597.9,377.5,600.6,377.5,604.1z"/>
	<path class="st3" d="M464.1,625.1v-22.7c0-2.8-0.4-4.9-1.2-6.4s-2-2.1-3.7-2.1c-2.2,0-3.8,0.9-4.9,2.8c-1,1.9-1.5,4.9-1.5,8.9v19.5
		h-14.4v-22.7c0-2.8-0.4-4.9-1.1-6.4s-1.9-2.1-3.6-2.1c-2.3,0-3.9,1-4.9,3c-1,2-1.5,5.3-1.5,9.9v18.3h-14.4v-41.8h10.9l1.8,5.2h0.8
		c1.1-1.9,2.7-3.4,4.8-4.4c2.1-1,4.5-1.5,7.2-1.5c6,0,10.2,1.8,12.7,5.5h1.1c1.2-1.7,2.8-3.1,4.9-4c2.1-1,4.4-1.5,6.9-1.5
		c4.9,0,8.6,1.3,10.9,3.8c2.4,2.5,3.5,6.4,3.5,11.5v27.2H464.1z"/>
	<path class="st3" d="M513.3,625.9c-2.1,0-4-0.4-5.7-1c-1.7-0.7-3.3-2-5-3.8H502c0.4,2.9,0.7,4.7,0.7,5.5v16.8h-14.4v-59.9H500
		l2,5.3h0.7c2.7-4,6.4-6,11.1-6c4.6,0,8.2,1.9,10.9,5.7c2.6,3.8,3.9,9.1,3.9,15.8c0,6.7-1.4,12-4.1,15.9
		C521.7,623.9,518,625.9,513.3,625.9z M508.5,593.9c-2.1,0-3.6,0.8-4.4,2.3c-0.8,1.5-1.3,3.8-1.4,6.7v1.1c0,3.6,0.5,6.2,1.4,7.8
		c1,1.6,2.5,2.4,4.5,2.4c1.8,0,3.2-0.8,4-2.4c0.8-1.6,1.3-4.2,1.3-7.9c0-3.6-0.4-6.2-1.3-7.7C511.8,594.7,510.4,593.9,508.5,593.9z"
		/>
	<path class="st3" d="M564,625.1l-2.8-5.5H561c-1.9,2.4-3.9,4.1-5.9,4.9c-2,0.9-4.6,1.3-7.8,1.3c-3.9,0-7-1.2-9.3-3.5
		c-2.3-2.4-3.4-5.7-3.4-9.9c0-4.4,1.5-7.8,4.6-9.9c3.1-2.2,7.6-3.4,13.5-3.7l7-0.2V598c0-3.4-1.7-5.2-5.1-5.2c-3,0-6.9,1-11.6,3.1
		l-4.2-9.5c4.9-2.5,11-3.8,18.4-3.8c5.4,0,9.5,1.3,12.4,4c2.9,2.7,4.4,6.4,4.4,11.1v27.4H564z M553.3,615.7c1.7,0,3.2-0.6,4.5-1.7
		c1.2-1.1,1.9-2.5,1.9-4.3v-3.2l-3.3,0.1c-4.7,0.2-7.1,1.9-7.1,5.2C549.3,614.4,550.6,615.7,553.3,615.7z"/>
	<path class="st3" d="M610.2,625.1v-22.8c0-2.8-0.4-4.9-1.2-6.3c-0.8-1.4-2.1-2.1-3.9-2.1c-2.4,0-4.2,1-5.3,2.9
		c-1.1,1.9-1.6,5.3-1.6,10v18.3h-14.4v-41.8h10.9l1.8,5.2h0.8c1.2-2,2.9-3.4,5.1-4.4c2.2-1,4.7-1.5,7.5-1.5c4.6,0,8.2,1.3,10.8,4
		c2.6,2.7,3.9,6.4,3.9,11.3v27.2H610.2z"/>
	<path class="st3" d="M629.3,583.4h15.2l7.1,24c0.3,1.3,0.6,2.8,0.7,4.5h0.3c0.2-1.7,0.5-3.2,0.9-4.5l7.3-24h14.7l-16.5,44.4
		c-2.1,5.6-4.7,9.6-7.8,12c-3.1,2.3-7.1,3.5-12.1,3.5c-1.9,0-3.9-0.2-5.9-0.6v-11.3c1.3,0.3,2.8,0.4,4.5,0.4c1.3,0,2.4-0.2,3.4-0.7
		c1-0.5,1.8-1.2,2.5-2.1c0.7-0.9,1.5-2.4,2.3-4.4L629.3,583.4z"/>
	<path class="st3" d="M719,625.9c-6.8,0-12-1.8-15.5-5.5c-3.5-3.7-5.3-9-5.3-15.9c0-6.9,1.9-12.3,5.7-16.1c3.8-3.8,9.2-5.7,16.3-5.7
		c4.8,0,9.4,1.1,13.7,3.2l-4.2,10.6c-1.7-0.8-3.4-1.4-4.8-1.8c-1.5-0.5-3-0.7-4.6-0.7c-2.3,0-4.1,0.9-5.4,2.7
		c-1.3,1.8-1.9,4.4-1.9,7.7c0,6.7,2.5,10,7.4,10c4.2,0,8.3-1.2,12.2-3.7v11.5C728.7,624.6,724.2,625.9,719,625.9z"/>
	<path class="st3" d="M770.4,625.1l-1.8-5.2h-0.8c-1.2,1.9-2.9,3.4-5,4.4c-2.1,1-4.7,1.5-7.6,1.5c-4.6,0-8.2-1.3-10.7-4
		c-2.6-2.7-3.8-6.4-3.8-11.3v-27.2H755v22.8c0,2.7,0.4,4.8,1.2,6.2c0.8,1.4,2,2.1,3.8,2.1c2.5,0,4.2-1,5.3-2.9
		c1.1-2,1.6-5.3,1.6-9.9v-18.3h14.4v41.8H770.4z"/>
	<path class="st3" d="M805.7,625.1h-14.4v-57.3h14.4V625.1z"/>
	<path class="st3" d="M836.1,614.5c1.9,0,4.3-0.5,7-1.4v10.5c-1.9,0.8-3.8,1.4-5.5,1.8s-3.8,0.5-6.2,0.5c-4.8,0-8.3-1.2-10.5-3.6
		c-2.1-2.4-3.2-6-3.2-10.9v-17.2h-5v-5.9l6.4-4.5l3.7-8.8h9.4v8.4h10.2v10.8h-10.2v16.3C832.2,613.1,833.5,614.5,836.1,614.5z"/>
	<path class="st3" d="M880.1,625.1l-1.8-5.2h-0.8c-1.2,1.9-2.9,3.4-5,4.4c-2.1,1-4.7,1.5-7.6,1.5c-4.6,0-8.2-1.3-10.7-4
		c-2.6-2.7-3.8-6.4-3.8-11.3v-27.2h14.4v22.8c0,2.7,0.4,4.8,1.2,6.2c0.8,1.4,2,2.1,3.8,2.1c2.5,0,4.2-1,5.3-2.9
		c1.1-2,1.6-5.3,1.6-9.9v-18.3H891v41.8H880.1z"/>
	<path class="st3" d="M926.1,582.6c1.3,0,2.4,0.1,3.6,0.3l0.8,0.1l-1.3,13.6c-1.2-0.3-2.8-0.4-4.9-0.4c-3.1,0-5.4,0.7-6.9,2.2
		c-1.4,1.4-2.1,3.5-2.1,6.2v20.5h-14.4v-41.8h10.7l2.2,6.7h0.7c1.2-2.2,2.9-4,5-5.4C921.8,583.3,923.9,582.6,926.1,582.6z"/>
	<path class="st3" d="M956.5,625.9c-7,0-12.4-1.8-16.2-5.5c-3.8-3.7-5.8-9-5.8-15.8c0-7.1,1.8-12.5,5.3-16.2
		c3.6-3.8,8.6-5.7,15.3-5.7c6.3,0,11.1,1.6,14.6,4.9c3.4,3.3,5.1,8,5.1,14.2v6.4h-25.8c0.1,2.3,1,4.2,2.6,5.5c1.6,1.3,3.8,2,6.6,2
		c2.5,0,4.9-0.2,7-0.7c2.1-0.5,4.4-1.3,6.9-2.5v10.4c-2.3,1.2-4.6,2-7,2.4S959.8,625.9,956.5,625.9z M955.6,592.4
		c-1.7,0-3.1,0.5-4.3,1.6c-1.1,1.1-1.8,2.7-2,5h12.4c0-2-0.6-3.6-1.7-4.8C958.9,593,957.5,592.4,955.6,592.4z"/>
</g>
<g>
	<path class="st3" d="M294.1,817.6h23.3v29c-6.3,2.2-13.3,3.2-20.8,3.2c-8.3,0-14.7-2.4-19.3-7.2c-4.5-4.8-6.8-11.7-6.8-20.6
		c0-8.7,2.5-15.5,7.4-20.3c5-4.8,11.9-7.3,20.9-7.3c3.4,0,6.6,0.3,9.6,1c3,0.6,5.6,1.4,7.9,2.4l-4.6,11.4c-3.9-1.9-8.1-2.9-12.8-2.9
		c-4.3,0-7.5,1.4-9.9,4.1c-2.3,2.8-3.5,6.7-3.5,11.8c0,5,1.1,8.9,3.2,11.5c2.1,2.6,5.1,4,9.1,4c2.2,0,4.2-0.2,6-0.6v-8.4h-9.6V817.6
		z"/>
	<path class="st3" d="M357.2,849.2l-1.8-5.2h-0.8c-1.2,1.9-2.9,3.4-5,4.4c-2.1,1-4.7,1.5-7.6,1.5c-4.6,0-8.2-1.3-10.7-4
		c-2.6-2.7-3.8-6.4-3.8-11.3v-27.2h14.4v22.8c0,2.7,0.4,4.8,1.2,6.2s2,2.1,3.8,2.1c2.5,0,4.2-1,5.3-2.9c1.1-2,1.6-5.3,1.6-9.9v-18.3
		h14.4v41.8H357.2z"/>
	<path class="st3" d="M377.8,797c0-2.2,0.6-3.8,1.8-4.8c1.2-1.1,3.1-1.6,5.8-1.6c2.7,0,4.6,0.5,5.9,1.6c1.2,1.1,1.8,2.7,1.8,4.8
		c0,4.2-2.6,6.3-7.7,6.3C380.3,803.4,377.8,801.2,377.8,797z M392.5,849.2h-14.4v-41.8h14.4V849.2z"/>
	<path class="st3" d="M415.6,849.9c-3,0-5.6-0.8-7.8-2.5c-2.2-1.7-3.9-4.2-5.2-7.5c-1.2-3.3-1.8-7.1-1.8-11.5
		c0-6.8,1.4-12.1,4.1-15.9c2.7-3.8,6.5-5.7,11.2-5.7c2.3,0,4.4,0.5,6.1,1.4c1.8,0.9,3.4,2.5,4.8,4.7h0.3c-0.5-3.3-0.7-6.5-0.7-9.8
		v-11.2h14.5v57.3h-10.9l-3.1-5.3h-0.6C424.2,847.9,420.5,849.9,415.6,849.9z M421.5,838.5c2.3,0,3.9-0.7,4.9-2.2
		c0.9-1.4,1.5-3.7,1.5-6.7v-1.1c0-3.7-0.5-6.3-1.6-7.9c-1.1-1.6-2.7-2.3-5-2.3c-1.9,0-3.4,0.9-4.4,2.7c-1,1.8-1.6,4.3-1.6,7.6
		c0,3.2,0.5,5.7,1.6,7.4C418,837.7,419.5,838.5,421.5,838.5z"/>
	<path class="st3" d="M450.8,797c0-2.2,0.6-3.8,1.8-4.8c1.2-1.1,3.1-1.6,5.8-1.6c2.7,0,4.6,0.5,5.9,1.6c1.2,1.1,1.8,2.7,1.8,4.8
		c0,4.2-2.6,6.3-7.7,6.3C453.4,803.4,450.8,801.2,450.8,797z M465.6,849.2h-14.4v-41.8h14.4V849.2z"/>
	<path class="st3" d="M502,849.2v-22.8c0-2.8-0.4-4.9-1.2-6.3c-0.8-1.4-2.1-2.1-3.9-2.1c-2.4,0-4.2,1-5.3,2.9
		c-1.1,1.9-1.6,5.3-1.6,10v18.3h-14.4v-41.8h10.9l1.8,5.2h0.8c1.2-2,2.9-3.4,5.1-4.4c2.2-1,4.7-1.5,7.5-1.5c4.6,0,8.2,1.3,10.8,4
		c2.6,2.7,3.9,6.4,3.9,11.3v27.2H502z"/>
	<path class="st3" d="M565.6,807.4v7l-5.7,2.1c0.8,1.4,1.2,3.1,1.2,5c0,4.5-1.6,8-4.7,10.5c-3.2,2.5-7.9,3.7-14.1,3.7
		c-1.5,0-2.8-0.1-3.7-0.3c-0.3,0.6-0.5,1.2-0.5,1.8c0,0.7,0.6,1.3,1.7,1.6c1.2,0.4,2.7,0.6,4.5,0.6h6.9c9.4,0,14,3.9,14,11.8
		c0,5.1-2.2,9-6.5,11.9c-4.3,2.8-10.4,4.2-18.3,4.2c-5.9,0-10.5-1-13.7-3c-3.2-2-4.8-4.8-4.8-8.5c0-5,3.1-8.2,9.3-9.7
		c-1.3-0.5-2.4-1.4-3.3-2.6c-0.9-1.2-1.4-2.4-1.4-3.6c0-1.3,0.4-2.5,1.1-3.4c0.7-1,2.2-2.2,4.5-3.6c-2.2-1-3.9-2.5-5.1-4.5
		c-1.2-2-1.9-4.5-1.9-7.4c0-4.5,1.5-8.1,4.6-10.6c3.1-2.5,7.5-3.8,13.3-3.8c0.8,0,2.1,0.1,3.9,0.3c1.9,0.2,3.2,0.3,4.1,0.5H565.6z
		 M534.1,854.4c0,1.2,0.6,2.1,1.9,2.9c1.3,0.7,3,1.1,5.1,1.1c3.5,0,6.3-0.4,8.4-1.3c2.1-0.9,3.2-2,3.2-3.4c0-1.1-0.6-1.9-1.9-2.3
		c-1.3-0.5-3.1-0.7-5.5-0.7h-5.6c-1.5,0-2.9,0.4-3.9,1.1C534.7,852.4,534.1,853.3,534.1,854.4z M538.7,821.1c0,4.3,1.5,6.4,4.5,6.4
		c1.4,0,2.4-0.5,3.2-1.6c0.7-1.1,1.1-2.6,1.1-4.8c0-4.3-1.4-6.5-4.3-6.5C540.2,814.7,538.7,816.8,538.7,821.1z"/>
	<path class="st3" d="M616.6,849.9c-2.1,0-4-0.4-5.7-1.1s-3.3-2-5-3.8h-0.7c0.4,2.9,0.7,4.7,0.7,5.5v16.8h-14.4v-59.9h11.7l2,5.3
		h0.7c2.7-4,6.4-6,11.1-6c4.6,0,8.2,1.9,10.9,5.7c2.6,3.8,3.9,9.1,3.9,15.8c0,6.7-1.4,12-4.1,15.9C625,848,621.3,849.9,616.6,849.9z
		 M611.8,818c-2.1,0-3.6,0.8-4.4,2.3c-0.8,1.5-1.3,3.8-1.4,6.7v1.1c0,3.6,0.5,6.2,1.4,7.8c1,1.6,2.5,2.4,4.5,2.4
		c1.8,0,3.2-0.8,4-2.4c0.8-1.6,1.3-4.2,1.3-7.9c0-3.6-0.4-6.2-1.3-7.7C615.1,818.8,613.7,818,611.8,818z"/>
	<path class="st3" d="M665.3,806.7c1.3,0,2.4,0.1,3.6,0.3l0.8,0.1l-1.3,13.6c-1.2-0.3-2.8-0.4-4.9-0.4c-3.1,0-5.4,0.7-6.9,2.2
		c-1.4,1.4-2.1,3.5-2.1,6.2v20.5h-14.4v-41.8h10.7l2.2,6.7h0.7c1.2-2.2,2.9-4,5-5.4C660.9,807.4,663.1,806.7,665.3,806.7z"/>
	<path class="st3" d="M675.2,797c0-2.2,0.6-3.8,1.8-4.8c1.2-1.1,3.1-1.6,5.8-1.6c2.7,0,4.6,0.5,5.9,1.6c1.2,1.1,1.8,2.7,1.8,4.8
		c0,4.2-2.6,6.3-7.7,6.3C677.7,803.4,675.2,801.2,675.2,797z M690,849.2h-14.4v-41.8H690V849.2z"/>
	<path class="st3" d="M726.4,849.2v-22.8c0-2.8-0.4-4.9-1.2-6.3c-0.8-1.4-2.1-2.1-3.9-2.1c-2.4,0-4.2,1-5.3,2.9
		c-1.1,1.9-1.6,5.3-1.6,10v18.3H700v-41.8h10.9l1.8,5.2h0.8c1.2-2,2.9-3.4,5.1-4.4c2.2-1,4.7-1.5,7.5-1.5c4.6,0,8.2,1.3,10.8,4
		c2.6,2.7,3.9,6.4,3.9,11.3v27.2H726.4z"/>
	<path class="st3" d="M769.6,849.9c-6.8,0-12-1.8-15.5-5.5c-3.5-3.7-5.3-9-5.3-15.9c0-6.9,1.9-12.3,5.7-16.1
		c3.8-3.8,9.2-5.7,16.3-5.7c4.8,0,9.4,1.1,13.7,3.2l-4.2,10.6c-1.7-0.8-3.4-1.4-4.8-1.8c-1.5-0.5-3-0.7-4.6-0.7
		c-2.3,0-4.1,0.9-5.4,2.7c-1.3,1.8-1.9,4.4-1.9,7.7c0,6.7,2.5,10,7.4,10c4.2,0,8.3-1.2,12.2-3.7v11.5
		C779.3,848.7,774.8,849.9,769.6,849.9z"/>
	<path class="st3" d="M791,797c0-2.2,0.6-3.8,1.8-4.8c1.2-1.1,3.1-1.6,5.8-1.6c2.7,0,4.6,0.5,5.9,1.6c1.2,1.1,1.8,2.7,1.8,4.8
		c0,4.2-2.6,6.3-7.7,6.3C793.5,803.4,791,801.2,791,797z M805.8,849.2h-14.4v-41.8h14.4V849.2z"/>
	<path class="st3" d="M840.9,849.9c-2.1,0-4-0.4-5.7-1.1s-3.3-2-5-3.8h-0.7c0.4,2.9,0.7,4.7,0.7,5.5v16.8h-14.4v-59.9h11.7l2,5.3
		h0.7c2.7-4,6.4-6,11.1-6c4.6,0,8.2,1.9,10.9,5.7c2.6,3.8,3.9,9.1,3.9,15.8c0,6.7-1.4,12-4.1,15.9
		C849.3,848,845.6,849.9,840.9,849.9z M836,818c-2.1,0-3.6,0.8-4.4,2.3c-0.8,1.5-1.3,3.8-1.4,6.7v1.1c0,3.6,0.5,6.2,1.4,7.8
		c1,1.6,2.5,2.4,4.5,2.4c1.8,0,3.2-0.8,4-2.4c0.8-1.6,1.3-4.2,1.3-7.9c0-3.6-0.4-6.2-1.3-7.7C839.4,818.8,838,818,836,818z"/>
	<path class="st3" d="M878.8,849.2h-14.4v-57.3h14.4V849.2z"/>
	<path class="st3" d="M908.9,849.9c-7,0-12.4-1.8-16.2-5.5c-3.8-3.7-5.8-9-5.8-15.8c0-7,1.8-12.5,5.3-16.2c3.6-3.8,8.6-5.7,15.3-5.7
		c6.3,0,11.1,1.6,14.6,4.9s5.1,8,5.1,14.2v6.4h-25.8c0.1,2.3,1,4.2,2.6,5.5c1.6,1.3,3.8,2,6.6,2c2.5,0,4.9-0.2,7-0.7
		c2.1-0.5,4.4-1.3,6.9-2.5v10.4c-2.3,1.2-4.6,2-7,2.4C915.1,849.7,912.2,849.9,908.9,849.9z M908.1,816.5c-1.7,0-3.1,0.5-4.3,1.6
		c-1.1,1.1-1.8,2.7-2,5h12.4c0-2-0.6-3.6-1.7-4.8C911.4,817.1,909.9,816.5,908.1,816.5z"/>
	<path class="st3" d="M967.6,836.3c0,4.5-1.5,7.8-4.6,10.1c-3,2.3-7.4,3.4-13.1,3.4c-3.1,0-5.8-0.2-8.1-0.5c-2.3-0.3-4.6-0.9-7-1.8
		V836c2.2,1,4.7,1.8,7.4,2.4c2.7,0.6,5,1,7.1,1c3.1,0,4.7-0.7,4.7-2.1c0-0.7-0.4-1.4-1.3-2c-0.9-0.6-3.4-1.7-7.6-3.4
		c-3.8-1.6-6.5-3.4-8-5.4c-1.5-2-2.3-4.5-2.3-7.6c0-3.9,1.5-6.9,4.5-9.1c3-2.2,7.2-3.2,12.7-3.2c2.8,0,5.3,0.3,7.8,0.9
		c2.4,0.6,4.9,1.5,7.5,2.6l-3.9,9.3c-1.9-0.9-3.9-1.6-6.1-2.2c-2.1-0.6-3.9-0.9-5.2-0.9c-2.4,0-3.5,0.6-3.5,1.7
		c0,0.7,0.4,1.3,1.2,1.8c0.8,0.5,3.2,1.5,7.1,3.1c2.9,1.2,5.1,2.4,6.5,3.5c1.4,1.2,2.5,2.5,3.2,4.1
		C967.3,832.2,967.6,834.1,967.6,836.3z"/>
</g>
<g>
	<path class="st3" d="M507,1073.2h-14.6v-22h-16.9v22h-14.6v-53.9h14.6v20h16.9v-20H507V1073.2z"/>
	<path class="st3" d="M533.2,1053.6v19.6h-14.6v-53.9h17.7c14.6,0,22,5.3,22,15.9c0,6.2-3,11.1-9.1,14.5l15.7,23.5h-16.5l-11.4-19.6
		H533.2z M533.2,1042.7h2.7c5.1,0,7.6-2.2,7.6-6.7c0-3.7-2.5-5.6-7.5-5.6h-2.9V1042.7z"/>
	<path class="st3" d="M635.1,1045.1c0,9-2.5,15.9-7.4,20.8c-5,4.9-11.9,7.3-20.9,7.3h-17.4v-53.9H608c8.6,0,15.3,2.2,20,6.6
		C632.7,1030.4,635.1,1036.8,635.1,1045.1z M620,1045.6c0-4.9-1-8.6-2.9-11s-4.9-3.6-8.9-3.6h-4.2v30.2h3.2c4.4,0,7.7-1.3,9.7-3.8
		S620,1050.9,620,1045.6z"/>
	<path class="st3" d="M671.1,1073.2l-2.8-5.5h-0.3c-1.9,2.4-3.9,4.1-5.9,4.9c-2,0.9-4.6,1.3-7.8,1.3c-3.9,0-7-1.2-9.3-3.5
		c-2.3-2.4-3.4-5.7-3.4-9.9c0-4.4,1.5-7.8,4.6-9.9c3.1-2.2,7.6-3.4,13.5-3.7l7-0.2v-0.6c0-3.4-1.7-5.2-5.1-5.2c-3,0-6.9,1-11.6,3.1
		l-4.2-9.5c4.9-2.5,11-3.8,18.4-3.8c5.4,0,9.5,1.3,12.4,4c2.9,2.7,4.4,6.4,4.4,11.1v27.4H671.1z M660.4,1063.8
		c1.7,0,3.2-0.6,4.5-1.7c1.2-1.1,1.9-2.5,1.9-4.3v-3.2l-3.3,0.1c-4.7,0.2-7.1,1.9-7.1,5.2C656.3,1062.5,657.7,1063.8,660.4,1063.8z"
		/>
	<path class="st3" d="M711.4,1062.5c1.9,0,4.3-0.5,7-1.4v10.5c-1.9,0.8-3.8,1.4-5.5,1.8s-3.8,0.5-6.2,0.5c-4.8,0-8.3-1.2-10.5-3.6
		s-3.2-6-3.2-10.9v-17.2h-5v-5.9l6.4-4.5l3.7-8.8h9.4v8.4h10.2v10.8h-10.2v16.2C707.5,1061.2,708.8,1062.5,711.4,1062.5z"/>
	<path class="st3" d="M752.9,1073.2l-2.8-5.5h-0.3c-1.9,2.4-3.9,4.1-5.9,4.9c-2,0.9-4.6,1.3-7.8,1.3c-3.9,0-7-1.2-9.3-3.5
		c-2.3-2.4-3.4-5.7-3.4-9.9c0-4.4,1.5-7.8,4.6-9.9c3.1-2.2,7.6-3.4,13.5-3.7l7-0.2v-0.6c0-3.4-1.7-5.2-5.1-5.2c-3,0-6.9,1-11.6,3.1
		l-4.2-9.5c4.9-2.5,11-3.8,18.4-3.8c5.4,0,9.5,1.3,12.4,4c2.9,2.7,4.4,6.4,4.4,11.1v27.4H752.9z M742.2,1063.8
		c1.7,0,3.2-0.6,4.5-1.7c1.2-1.1,1.9-2.5,1.9-4.3v-3.2l-3.3,0.1c-4.7,0.2-7.1,1.9-7.1,5.2C738.1,1062.5,739.4,1063.8,742.2,1063.8z"
		/>
	<path class="st3" d="M843.5,1073.2v-22.7c0-2.8-0.4-4.9-1.2-6.4s-2-2.1-3.7-2.1c-2.2,0-3.8,0.9-4.9,2.8c-1,1.9-1.5,4.9-1.5,8.9
		v19.5h-14.4v-22.7c0-2.8-0.4-4.9-1.1-6.4s-1.9-2.1-3.6-2.1c-2.3,0-3.9,1-4.9,3c-1,2-1.5,5.3-1.5,9.9v18.3h-14.4v-41.8h10.9l1.8,5.2
		h0.8c1.1-1.9,2.7-3.4,4.8-4.4c2.1-1,4.5-1.5,7.2-1.5c6,0,10.2,1.8,12.7,5.5h1.1c1.2-1.7,2.8-3.1,4.9-4c2.1-1,4.4-1.5,6.9-1.5
		c4.9,0,8.6,1.3,10.9,3.8c2.4,2.5,3.5,6.4,3.5,11.5v27.2H843.5z"/>
	<path class="st3" d="M907.6,1052.2c0,6.8-1.8,12.2-5.5,16c-3.7,3.8-8.8,5.7-15.4,5.7c-6.3,0-11.4-2-15.1-5.9
		c-3.7-3.9-5.6-9.2-5.6-15.8c0-6.8,1.8-12.1,5.5-15.9c3.7-3.8,8.8-5.7,15.5-5.7c4.1,0,7.7,0.9,10.9,2.6s5.6,4.2,7.3,7.5
		C906.7,1044.1,907.6,1047.9,907.6,1052.2z M880.5,1052.2c0,3.6,0.5,6.3,1.4,8.2c1,1.9,2.6,2.8,4.8,2.8c2.2,0,3.8-0.9,4.7-2.8
		c0.9-1.9,1.4-4.6,1.4-8.2c0-3.6-0.5-6.3-1.4-8.1c-0.9-1.8-2.5-2.7-4.8-2.7c-2.2,0-3.8,0.9-4.8,2.7
		C881,1045.9,880.5,1048.6,880.5,1052.2z"/>
	<path class="st3" d="M928.8,1073.9c-3,0-5.6-0.8-7.8-2.5c-2.2-1.7-3.9-4.2-5.2-7.5c-1.2-3.3-1.8-7.1-1.8-11.5
		c0-6.8,1.4-12.1,4.1-15.9c2.7-3.8,6.5-5.7,11.2-5.7c2.3,0,4.4,0.5,6.1,1.4s3.4,2.5,4.8,4.7h0.3c-0.5-3.3-0.7-6.5-0.7-9.8v-11.2
		h14.5v57.3h-10.9l-3.1-5.3h-0.6C937.4,1071.9,933.7,1073.9,928.8,1073.9z M934.7,1062.5c2.3,0,3.9-0.7,4.9-2.2
		c0.9-1.4,1.5-3.7,1.5-6.7v-1.1c0-3.7-0.5-6.3-1.6-7.9c-1.1-1.6-2.7-2.3-5-2.3c-1.9,0-3.4,0.9-4.4,2.7c-1,1.8-1.6,4.3-1.6,7.6
		c0,3.2,0.5,5.7,1.6,7.4C931.2,1061.7,932.7,1062.5,934.7,1062.5z"/>
	<path class="st3" d="M984.5,1073.9c-7,0-12.4-1.8-16.2-5.5c-3.8-3.7-5.8-9-5.8-15.8c0-7.1,1.8-12.5,5.3-16.2
		c3.6-3.8,8.6-5.7,15.3-5.7c6.3,0,11.1,1.6,14.6,4.9s5.1,8,5.1,14.2v6.4h-25.8c0.1,2.3,1,4.2,2.6,5.5s3.8,2,6.6,2
		c2.5,0,4.9-0.2,7-0.7c2.1-0.5,4.4-1.3,6.9-2.5v10.4c-2.3,1.2-4.6,2-7,2.4S987.8,1073.9,984.5,1073.9z M983.6,1040.5
		c-1.7,0-3.1,0.5-4.3,1.6c-1.1,1.1-1.8,2.7-2,5h12.4c0-2-0.6-3.6-1.7-4.8C987,1041.1,985.5,1040.5,983.6,1040.5z"/>
	<path class="st3" d="M1025.4,1073.2H1011v-57.3h14.4V1073.2z"/>
</g>
<g>
	<path class="st3" d="M495.7,1280.9c0,3.3-0.8,6.3-2.5,8.9c-1.7,2.6-4.1,4.6-7.3,6c-3.2,1.4-6.9,2.2-11.2,2.2c-3.6,0-6.6-0.3-9-0.8
		s-5-1.4-7.6-2.6v-13c2.8,1.4,5.7,2.5,8.7,3.3c3,0.8,5.7,1.2,8.3,1.2c2.2,0,3.7-0.4,4.8-1.1c1-0.7,1.5-1.7,1.5-2.9
		c0-0.7-0.2-1.4-0.6-1.9s-1.1-1.1-2-1.7c-0.9-0.6-3.3-1.7-7.2-3.5c-3.5-1.6-6.1-3.1-7.9-4.6c-1.8-1.5-3.1-3.2-3.9-5.2
		c-0.8-1.9-1.3-4.2-1.3-6.9c0-5,1.8-8.8,5.4-11.6c3.6-2.8,8.6-4.2,14.9-4.2c5.6,0,11.3,1.3,17.1,3.9l-4.5,11.2
		c-5-2.3-9.4-3.5-13-3.5c-1.9,0-3.3,0.3-4.1,1c-0.9,0.7-1.3,1.5-1.3,2.5c0,1.1,0.5,2,1.6,2.8c1.1,0.8,4.1,2.4,8.9,4.6
		c4.6,2.1,7.9,4.3,9.7,6.7S495.7,1277.2,495.7,1280.9z"/>
	<path class="st3" d="M523.6,1286.6c1.9,0,4.3-0.5,7-1.4v10.5c-1.9,0.8-3.8,1.4-5.5,1.8c-1.8,0.4-3.8,0.5-6.2,0.5
		c-4.8,0-8.3-1.2-10.5-3.6c-2.1-2.4-3.2-6-3.2-10.9v-17.2h-5v-5.9l6.4-4.5l3.7-8.8h9.4v8.4H530v10.8h-10.2v16.2
		C519.7,1285.2,521,1286.6,523.6,1286.6z"/>
	<path class="st3" d="M565.1,1297.2l-2.8-5.5h-0.3c-1.9,2.4-3.9,4.1-5.9,4.9c-2,0.9-4.6,1.3-7.8,1.3c-3.9,0-7-1.2-9.3-3.5
		s-3.4-5.7-3.4-9.9c0-4.4,1.5-7.8,4.6-9.9c3.1-2.2,7.6-3.4,13.5-3.7l7-0.2v-0.6c0-3.4-1.7-5.2-5.1-5.2c-3,0-6.9,1-11.6,3.1l-4.2-9.5
		c4.9-2.5,11-3.8,18.4-3.8c5.4,0,9.5,1.3,12.4,4c2.9,2.7,4.4,6.4,4.4,11.1v27.4H565.1z M554.5,1287.8c1.7,0,3.2-0.6,4.5-1.7
		c1.2-1.1,1.9-2.5,1.9-4.3v-3.2l-3.3,0.1c-4.7,0.2-7.1,1.9-7.1,5.2C550.4,1286.5,551.7,1287.8,554.5,1287.8z"/>
	<path class="st3" d="M611.3,1297.2v-22.8c0-2.8-0.4-4.9-1.2-6.3c-0.8-1.4-2.1-2.1-3.9-2.1c-2.4,0-4.2,1-5.3,2.9
		c-1.1,1.9-1.6,5.3-1.6,10v18.3h-14.4v-41.8h10.9l1.8,5.2h0.8c1.2-2,2.9-3.4,5.1-4.4c2.2-1,4.7-1.5,7.5-1.5c4.6,0,8.2,1.3,10.8,4
		c2.6,2.7,3.9,6.4,3.9,11.3v27.2H611.3z"/>
	<path class="st3" d="M648.5,1298c-3,0-5.6-0.8-7.8-2.5c-2.2-1.7-3.9-4.2-5.2-7.5c-1.2-3.3-1.8-7.1-1.8-11.5
		c0-6.8,1.4-12.1,4.1-15.9c2.7-3.8,6.5-5.7,11.2-5.7c2.3,0,4.4,0.5,6.1,1.4c1.8,0.9,3.4,2.5,4.8,4.7h0.3c-0.5-3.3-0.7-6.5-0.7-9.8
		v-11.2h14.5v57.3h-10.9l-3.1-5.3h-0.6C657.1,1296,653.4,1298,648.5,1298z M654.4,1286.6c2.3,0,3.9-0.7,4.9-2.2
		c0.9-1.4,1.5-3.7,1.5-6.7v-1.1c0-3.7-0.5-6.3-1.6-7.9c-1.1-1.6-2.7-2.3-5-2.3c-1.9,0-3.4,0.9-4.4,2.7c-1,1.8-1.6,4.3-1.6,7.6
		c0,3.2,0.5,5.7,1.6,7.4C650.9,1285.7,652.4,1286.6,654.4,1286.6z"/>
	<path class="st3" d="M711.2,1297.2l-2.8-5.5h-0.3c-1.9,2.4-3.9,4.1-5.9,4.9c-2,0.9-4.6,1.3-7.8,1.3c-3.9,0-7-1.2-9.3-3.5
		s-3.4-5.7-3.4-9.9c0-4.4,1.5-7.8,4.6-9.9c3.1-2.2,7.6-3.4,13.5-3.7l7-0.2v-0.6c0-3.4-1.7-5.2-5.1-5.2c-3,0-6.9,1-11.6,3.1l-4.2-9.5
		c4.9-2.5,11-3.8,18.4-3.8c5.4,0,9.5,1.3,12.4,4c2.9,2.7,4.4,6.4,4.4,11.1v27.4H711.2z M700.6,1287.8c1.7,0,3.2-0.6,4.5-1.7
		c1.2-1.1,1.9-2.5,1.9-4.3v-3.2l-3.3,0.1c-4.7,0.2-7.1,1.9-7.1,5.2C696.5,1286.5,697.8,1287.8,700.6,1287.8z"/>
	<path class="st3" d="M756.2,1254.8c1.3,0,2.4,0.1,3.6,0.3l0.8,0.1l-1.3,13.6c-1.2-0.3-2.8-0.4-4.9-0.4c-3.1,0-5.4,0.7-6.9,2.2
		c-1.4,1.4-2.1,3.5-2.1,6.2v20.5H731v-41.8h10.7l2.2,6.7h0.7c1.2-2.2,2.9-4,5-5.4C751.9,1255.4,754.1,1254.8,756.2,1254.8z"/>
	<path class="st3" d="M779.4,1298c-3,0-5.6-0.8-7.8-2.5c-2.2-1.7-3.9-4.2-5.2-7.5c-1.2-3.3-1.8-7.1-1.8-11.5
		c0-6.8,1.4-12.1,4.1-15.9c2.7-3.8,6.5-5.7,11.2-5.7c2.3,0,4.4,0.5,6.1,1.4c1.8,0.9,3.4,2.5,4.8,4.7h0.3c-0.5-3.3-0.7-6.5-0.7-9.8
		v-11.2H805v57.3h-10.9l-3.1-5.3h-0.6C788,1296,784.3,1298,779.4,1298z M785.3,1286.6c2.3,0,3.9-0.7,4.9-2.2
		c0.9-1.4,1.5-3.7,1.5-6.7v-1.1c0-3.7-0.5-6.3-1.6-7.9c-1.1-1.6-2.7-2.3-5-2.3c-1.9,0-3.4,0.9-4.4,2.7c-1,1.8-1.6,4.3-1.6,7.6
		c0,3.2,0.5,5.7,1.6,7.4C781.8,1285.7,783.3,1286.6,785.3,1286.6z"/>
	<path class="st3" d="M881.2,1243.4v32.4c0,7.1-2,12.5-6,16.4s-9.7,5.8-17.3,5.8c-7.3,0-13-1.9-16.9-5.6c-3.9-3.8-5.9-9.2-5.9-16.2
		v-32.8h14.6v31.6c0,3.8,0.7,6.6,2.1,8.3c1.4,1.7,3.5,2.6,6.3,2.6c3,0,5.1-0.9,6.5-2.6c1.3-1.7,2-4.5,2-8.4v-31.5H881.2z"/>
	<path class="st3" d="M892.5,1297.2v-53.9h14.6v53.9H892.5z"/>
	<path class="st3" d="M962.6,1298c-2.1,0-4-0.4-5.7-1.1s-3.3-2-5-3.8h-0.7c0.4,2.9,0.7,4.7,0.7,5.5v16.8h-14.4v-59.9h11.7l2,5.3h0.7
		c2.7-4,6.4-6,11.1-6c4.6,0,8.2,1.9,10.9,5.7c2.6,3.8,3.9,9.1,3.9,15.8c0,6.7-1.4,12-4.1,15.9C971,1296,967.3,1298,962.6,1298z
		 M957.8,1266.1c-2.1,0-3.6,0.8-4.4,2.3c-0.8,1.5-1.3,3.8-1.4,6.7v1.1c0,3.6,0.5,6.2,1.4,7.8c1,1.6,2.5,2.4,4.5,2.4
		c1.8,0,3.2-0.8,4-2.4c0.8-1.6,1.3-4.2,1.3-7.9c0-3.6-0.4-6.2-1.3-7.7C961.1,1266.8,959.7,1266.1,957.8,1266.1z"/>
	<path class="st3" d="M1013.3,1297.2l-2.8-5.5h-0.3c-1.9,2.4-3.9,4.1-5.9,4.9c-2,0.9-4.6,1.3-7.8,1.3c-3.9,0-7-1.2-9.3-3.5
		s-3.4-5.7-3.4-9.9c0-4.4,1.5-7.8,4.6-9.9c3.1-2.2,7.6-3.4,13.5-3.7l7-0.2v-0.6c0-3.4-1.7-5.2-5.1-5.2c-3,0-6.9,1-11.6,3.1l-4.2-9.5
		c4.9-2.5,11-3.8,18.4-3.8c5.4,0,9.5,1.3,12.4,4c2.9,2.7,4.4,6.4,4.4,11.1v27.4H1013.3z M1002.6,1287.8c1.7,0,3.2-0.6,4.5-1.7
		c1.2-1.1,1.9-2.5,1.9-4.3v-3.2l-3.3,0.1c-4.7,0.2-7.1,1.9-7.1,5.2C998.6,1286.5,999.9,1287.8,1002.6,1287.8z"/>
	<path class="st3" d="M1053.6,1286.6c1.9,0,4.3-0.5,7-1.4v10.5c-1.9,0.8-3.8,1.4-5.5,1.8c-1.8,0.4-3.8,0.5-6.2,0.5
		c-4.8,0-8.3-1.2-10.5-3.6c-2.1-2.4-3.2-6-3.2-10.9v-17.2h-5v-5.9l6.4-4.5l3.7-8.8h9.4v8.4h10.2v10.8h-10.2v16.2
		C1049.7,1285.2,1051,1286.6,1053.6,1286.6z"/>
	<path class="st3" d="M1088.3,1286.6c1.9,0,4.3-0.5,7-1.4v10.5c-1.9,0.8-3.8,1.4-5.5,1.8c-1.8,0.4-3.8,0.5-6.2,0.5
		c-4.8,0-8.3-1.2-10.5-3.6c-2.1-2.4-3.2-6-3.2-10.9v-17.2h-5v-5.9l6.4-4.5l3.7-8.8h9.4v8.4h10.2v10.8h-10.2v16.2
		C1084.4,1285.2,1085.7,1286.6,1088.3,1286.6z"/>
	<path class="st3" d="M1122.7,1298c-7,0-12.4-1.8-16.2-5.5c-3.8-3.7-5.8-9-5.8-15.8c0-7,1.8-12.5,5.3-16.2c3.6-3.8,8.6-5.7,15.3-5.7
		c6.3,0,11.1,1.6,14.6,4.9s5.1,8,5.1,14.2v6.4h-25.8c0.1,2.3,1,4.2,2.6,5.5c1.6,1.3,3.8,2,6.6,2c2.5,0,4.9-0.2,7-0.7
		c2.1-0.5,4.4-1.3,6.9-2.5v10.4c-2.3,1.2-4.6,2-7,2.4C1128.9,1297.8,1126,1298,1122.7,1298z M1121.9,1264.6c-1.7,0-3.1,0.5-4.3,1.6
		c-1.1,1.1-1.8,2.7-2,5h12.4c0-2-0.6-3.6-1.7-4.8C1125.2,1265.2,1123.7,1264.6,1121.9,1264.6z"/>
	<path class="st3" d="M1174.4,1254.8c1.3,0,2.4,0.1,3.6,0.3l0.8,0.1l-1.3,13.6c-1.2-0.3-2.8-0.4-4.9-0.4c-3.1,0-5.4,0.7-6.9,2.2
		c-1.4,1.4-2.1,3.5-2.1,6.2v20.5h-14.4v-41.8h10.7l2.2,6.7h0.7c1.2-2.2,2.9-4,5-5.4C1170,1255.4,1172.2,1254.8,1174.4,1254.8z"/>
	<path class="st3" d="M1211,1297.2v-22.8c0-2.8-0.4-4.9-1.2-6.3c-0.8-1.4-2.1-2.1-3.9-2.1c-2.4,0-4.2,1-5.3,2.9s-1.6,5.3-1.6,10
		v18.3h-14.4v-41.8h10.9l1.8,5.2h0.8c1.2-2,2.9-3.4,5.1-4.4s4.7-1.5,7.5-1.5c4.6,0,8.2,1.3,10.8,4c2.6,2.7,3.9,6.4,3.9,11.3v27.2
		H1211z"/>
	<path class="st3" d="M1267.4,1284.4c0,4.5-1.5,7.8-4.6,10.1c-3,2.3-7.4,3.4-13.1,3.4c-3.1,0-5.8-0.2-8.1-0.5
		c-2.3-0.3-4.6-0.9-7-1.8v-11.5c2.2,1,4.7,1.8,7.4,2.4c2.7,0.6,5,1,7.1,1c3.1,0,4.7-0.7,4.7-2.1c0-0.7-0.4-1.4-1.3-2
		c-0.9-0.6-3.4-1.7-7.6-3.4c-3.8-1.6-6.5-3.4-8-5.4c-1.5-2-2.3-4.5-2.3-7.6c0-3.9,1.5-6.9,4.5-9.1c3-2.2,7.2-3.2,12.7-3.2
		c2.8,0,5.3,0.3,7.8,0.9c2.4,0.6,4.9,1.5,7.5,2.6l-3.9,9.3c-1.9-0.9-3.9-1.6-6.1-2.2c-2.1-0.6-3.9-0.9-5.2-0.9
		c-2.4,0-3.5,0.6-3.5,1.7c0,0.7,0.4,1.3,1.2,1.8c0.8,0.5,3.2,1.5,7.1,3.1c2.9,1.2,5.1,2.4,6.5,3.5c1.4,1.2,2.5,2.5,3.2,4.1
		C1267.1,1280.3,1267.4,1282.2,1267.4,1284.4z"/>
</g>
</svg>
