<svg version="1.1" id="Calque_1" xmlns="http://www.w3.org/2000/svg" x="0" y="0" viewBox="0 0 942.8 738.1" xml:space="preserve"><style>.st4{fill:#ed9e6e}.st7{fill:#2d275e}.st8{fill:none}.st11{fill:#70728e}.st12{opacity:.29}.st13{fill:#53508f}.st17{fill:none;stroke:#fff;stroke-width:2;stroke-miterlimit:10}.st18{fill:#fff}.st19{font-family:&apos;OpenSans-Light&apos;}.st20{font-size:15.9809px}</style><g opacity=".84"><circle cx="546.9" cy="293.7" r="87.8" fill="#dedefc"/><path d="M532.7 270.5c-.4 21.9-4.9 42.8-8 57.5-3.2 15.1-5.2 23.9-5.2 25.2-.2 1.2.8-5.9-1.6-17.6-2.1-11.7-7.2-27.9-14.7-43.2-7.4-15.7-14.7-27.2-16.9-37.8-2.4-10.5.3-20.1 8.4-27.8 7.9-7.4 18.7-9.7 26.3-2.2 7.8 7.3 12.3 24.2 11.7 45.9z" fill="#ff7473" opacity=".58"/><path class="st4" d="M496.8 345.4c0 .1.1.1 0 0 .1-.1.1-.3-.1-.4.1.1.1.3.1.4M614.6 327.2s.1-.1 0 0c.1-.2 0-.4-.1-.5 0 .2 0 .3.1.5"/><linearGradient id="SVGID_1_" gradientUnits="userSpaceOnUse" x1="582.404" y1="423.04" x2="610.776" y2="423.04" gradientTransform="rotate(-8.824 -260.026 366.828)"><stop offset="0" stop-color="#ff7bac"/><stop offset="1" stop-color="#ff7bac" stop-opacity="0"/></linearGradient><path d="M609.1 288.8c1.2 7.7-4.1 14.9-11.8 16.2-7.7 1.3-14.9-4.1-16.2-11.8-1.3-7.7 4.1-14.9 11.8-16.2 7.8-1.2 15 4.1 16.2 11.8" opacity=".56" fill="url(#SVGID_1_)"/><linearGradient id="SVGID_2_" gradientUnits="userSpaceOnUse" x1="494.748" y1="444.451" x2="523.12" y2="444.451" gradientTransform="rotate(-8.824 -260.026 366.828)"><stop offset="0" stop-color="#ff7bac"/><stop offset="1" stop-color="#ff7bac" stop-opacity="0"/></linearGradient><path d="M525.8 323.4c1.2 7.7-4.1 14.9-11.8 16.2-7.7 1.2-14.9-4.1-16.2-11.8-1.3-7.7 4.1-14.9 11.8-16.2 7.7-1.2 15 4.1 16.2 11.8" opacity=".56" fill="url(#SVGID_2_)"/><g id="boquita"><path class="st7" d="M564.4 335.6c-14.3 5.6-22.7.3-24.2-3.5-.5-1 .1-2.1 1.2-2.6l35.6-14.1c1-.5 2.1.1 2.6 1.2 1.5 3.8-1.2 13.3-15.2 19z"/><path class="st8" d="M572.8 322.2c2.3-.8 4.7-1.4 6.9-1.8 0-1.3-.2-2.2-.7-3-.5-.8-1.7-1.2-2.6-.7L543.8 332c-1 .4-1.4 1.5-.8 2.2.9 1.5 3.3 2.9 7.1 3.5 4.3-6.3 12.4-12.2 22.7-15.5z"/><path d="M550.1 337.8c4.1.6 9.8 0 16.5-3.1 9.9-4.6 13-10.4 13.2-14.3-2.3.4-4.6 1-6.9 1.8-10.4 3.3-18.5 9.2-22.8 15.6z" fill="#eb7c87"/><g><path class="st8" d="M573.7 318.7c2-.6 3.9-1.1 5.8-1.3.2-1.6.2-3-.1-4-.3-1.1-1.2-1.7-2-1.2l-28.6 15.1c-.8.4-1.4 1.7-1.1 2.8.5 1.9 2.2 4.3 5 5.5 4.7-7.7 12.1-14 21-16.9z"/><path d="M555.9 331.4c3.2 1.4 4.7 6.4 10.7 3.3 8.7-4.6 12.9-9.6 13.2-14.3-1.1-.1-5.2 1.2-7.6 1.2-8.8 4.2-9.6 4-16.3 9.8z" opacity=".54" fill="#843843"/></g></g><g id="eye_right"><path class="st7" d="M570.6 257.6c-6.3 1-10.6 6.9-9.7 13.3 1 6.3 6.9 10.6 13.3 9.7 6.3-1 10.6-6.9 9.7-13.3-1.1-6.4-7-10.7-13.3-9.7"/><path class="st11" d="M578.5 264.9c-.4.1-1.2-1-2.3-1.8-1.2-.8-2-1.3-1.6-1.7.4-.4 2.1-.3 3.1 1 1.1 1.1 1.1 2.5.8 2.5zM579.2 266.3c-.1 0-.2-.2-.3-.4-.1-.2 0-.4.2-.5.2 0 .4.2.3.5 0 .2-.1.4-.2.4z"/><g class="st12"><path transform="rotate(-61.828 576.265 269.062)" class="st8" d="M569.9 262.6h12.6v13h-12.6z"/><path class="st13" d="M577.6 270.9s.1 0 0 0c.1.1.1.1 0 0l.2.1v-.1c-.1-.1-.2-.1-.2 0zM575.5 267.1h.2v-.2l-.1-.1c-.1-.1-.2 0-.3.1v.1s.1.1.2.1zM575.3 265.9s0 .1 0 0c.1.1.1.1 0 0 .1-.1 0-.1 0 0-.2-.1-.2-.1-.2 0h.2zM581.1 264.7s0 .1 0 0c0 .1 0 .1 0 0 .1 0 .1 0 0 0zM572.5 262.5c-.1 0-.1 0 0 0-.1 0-.1 0 0 0z"/><path class="st13" d="M575.9 267.4l.2-.1v-.1c0-.1 0-.2-.1-.2h-.1c-.1 0-.1 0-.2.1V267.4c.1-.1.2 0 .2 0zM578.1 268.3l.1-.2-.1-.1h-.2c-.1 0-.1.1-.1.1v.1l.1.1h.2zM582.2 267.7c.1 0 .1 0 0 0 .1.1.1 0 0 0 .1-.1 0-.1 0 0 0-.1 0-.1 0 0zM578.4 263.6s0 .1 0 0c.1.1.1.1 0 0 .1 0 .1 0 0 0 .1 0 .1 0 0 0 .1 0 0 0 0 0zM576.2 266.5c.1.2 0 .2 0 .2l-.1.1-.1.1h-.2v-.1c0-.1.1-.1.1-.1v-.1l.1-.1h.2s0 .1.1.2v.2l-.1-.4zm-.3-.1zM576.5 264.4l-.1.2v.1s.1 0 .1-.1v-.2zM579.3 266.2v-.2c-.1 0-.1.1 0 .2-.1-.1-.1 0 0 0zM574.4 265.6l.1-.2h-.2l-.1.1v.1h.2zM572.6 265.2c0-.1-.1-.1 0 0-.1-.1-.1-.1 0 0-.1-.1-.1 0 0 0-.1 0-.1 0 0 0zM571.1 266.4c-.1-.1-.1-.1 0 0-.1 0-.1 0 0 0zM575.5 269.2c-.1.1-.2.1-.2.2v.2l.1.1c.1 0 .1.1.2 0h.2l.1-.1c0-.1 0-.2-.1-.2 0-.1-.1-.2-.3-.2zM576.9 272.3s0 .1 0 0c.1.1.1.1 0 0 .1 0 .1 0 0 0zM575.4 270.8c.1 0 .1 0 0 0h.2v-.1s0-.1-.1-.1h-.2l.1.2zM575.2 270l-.1.2v.1h.2v-.1l-.1-.2c.1 0 0 0 0 0zM575.5 273.6c-.1 0-.1 0 0 0-.1.1 0 .1 0 0zM576.5 269.4c0 .1 0 .2.1.3.1 0 .1.1.2 0h.1c0-.1 0-.2-.1-.2s-.1-.1-.3-.1c.1-.1.1 0 0 0zM577.6 267.6c-.1.2 0 .3 0 .3h.1l.1-.1v-.1l-.2-.1c.2 0 .1 0 0 0zM578.7 268.5l.1-.2v-.1s-.1-.1-.2 0c0 0-.1 0-.1.1 0 0-.1 0-.1.1v.1l.1.1.2-.1zM576.7 267c-.1 0-.1 0-.2.1v.2h.2c.1 0 .1 0 .1-.1s0-.1-.1-.2c.1 0 .1 0 0 0zM582.4 271c0 .1 0 .1 0 0 .1.1.1.1 0 0 .1 0 .1 0 0 0 0-.1 0 0 0 0zM576.1 267.8c.1-.1.1-.2.1-.3l-.1-.1h-.1c-.1 0-.1.1-.1.1v.2c0 .1.1.1.2.1zM577.7 268.6c0 .1 0 .2.1.3h.1c.1 0 .1 0 .1-.1.1-.1 0-.2-.1-.3l-.2.1zM579.8 267.1V267.4h.2c0-.1 0-.1-.2-.3.1-.1.1-.1 0 0zM577.4 262.5c0 .1 0 .1 0 0 0 .1 0 .1 0 0 .1 0 0 0 0 0zM578.5 266.6l-.1-.2c-.1 0-.2-.1-.3.1v.2c0 .1.1.1.2.1.1-.1.1-.2.2-.2zM576.2 265.4h-.2c0-.1.1 0 .2 0zM577.5 266.3c.1-.1.1-.1.2-.1v-.2c0-.1-.1-.1-.2-.1h-.1l-.1.1c-.1.1 0 .2.2.3zM581.3 268.8c.1-.1.1-.1 0 0 0-.1 0 0 0 0zM576.8 265.6v-.2.2c-.1.1-.1.1 0 0zM577.2 266.7l.1.2h.2v-.1c0-.1 0-.2-.1-.2l-.2.1.2-.1-.2.1zM580.9 266.5c0 .1 0 .1 0 0 0 .1 0 0 0 0 .1 0 .1 0 0 0zM578.3 267.1c-.1-.1-.2-.1-.2-.1-.1 0-.1.1-.1.1v.1l.1.1c.1 0 .1.1.2 0 .1 0 .1-.1 0-.2zM580.1 268v.2c.1 0 .1.1.2 0 0-.1 0-.1-.2-.2.1-.1.1-.1 0 0zM578.9 267l-.2.1v.1l.1.1h.2c.1 0 .1-.1.1-.1v-.2c-.1.1-.1 0-.2 0zM584 266.6c0 .1 0 .1 0 0 0 .1 0 .1 0 0 0 .1 0 .1 0 0 .1.1.1.1 0 0 .1 0 .1 0 0 0zM579.3 268.3c.2 0 .1 0 0 0zM577.6 265.4c-.1.2 0 .2 0 .2s.1 0 0-.2c.1.1.1 0 0 0 .1-.1 0-.1 0 0zM578.3 264.6l-.1.2v.1H578.5v-.2l-.2-.1zM578.6 266l-.1.2.1.1c.1 0 .1 0 .1-.1.1-.2.1-.2-.1-.2zM579.4 266.6c0 .1 0 .1.1.2h.1v-.1c0-.1 0-.1-.2-.1.1-.1.1-.1 0 0zM580.4 267.3c-.1.1-.1.2 0 .3h.2v-.1c-.1-.2-.1-.2-.2-.2zM578.4 269.4l-.2-.1h-.1l-.1.1-.1.1h-.1l-.1.1v.1l.1.1h.1l.1-.1h.2c.1 0 .2 0 .2-.1.1 0 .1-.1 0-.2zM575.1 267.9c0 .1.1.1 0 0 .2.1.2 0 .2 0v-.2c0-.1-.1-.1-.1-.1-.1 0-.2 0-.2.1s0 .2.1.2zM572.6 268.3c-.1-.1-.1-.1 0 0-.1.1-.1.1 0 0zM579.8 268.9c0 .1 0 .2.1.2h.1c0-.1-.1-.1-.2-.2.1 0 .1 0 0 0zM579.3 269.6c-.1 0-.1 0-.2.1v.1h.1s.1 0 .1-.2zM573.5 272.3c0 .1.1.1 0 0 .1 0 .1 0 0 0 .1 0 .1 0 0 0 .1 0 .1 0 0 0zM580.8 270.5s0 .1 0 0c.1 0 .1 0 0 0 .1 0 .1 0 0 0zM576.9 268.5c.1 0 .2 0 .2-.1v-.1c0-.1-.1-.2-.1-.2h-.2c0 .2 0 .3.1.4zM580 269.3c-.1 0-.1.1-.1.2h.1v-.2c0 .1 0 .1 0 0zM577.1 267.9s.1 0 .2-.1c0-.1 0-.2-.1-.2h-.1c-.1-.1-.2 0-.2 0l-.1.1v.2s0 .1.1.1l.2-.1c-.1 0-.1 0 0 0zM579.5 268.9s0-.1 0 0c-.1 0-.1 0 0 0 0 .1 0 .1 0 0zM574.6 266.7c.1.1.1.1 0 0 .1.1.2.1.2.1s.1 0 .1-.1v-.1h.1s.1 0 .1-.1v-.1s0-.1-.1-.1c0 0-.1 0-.1.1h-.1v.1l-.2.2zM574.3 264c0 .1 0 .1 0 0 0 .1 0 .1 0 0 .1 0 .1 0 0 0 .1 0 .1 0 0 0zM574.5 266.8h.1v-.1l-.1-.1h-.2v.1l.1.1zM578.7 268.9c-.1 0-.1 0 0 0l-.1.2v.1c0 .1.1.1.2.1s.1 0 .2-.1v-.2c-.2-.1-.2-.1-.3-.1z"/><path class="st13" d="M576.5 267.7c.1-.2 0-.3-.1-.3h-.1l-.1.1v.1l.1.1h.2zM579.6 272c.1.1.1.1 0 0 .1.1.1.1 0 0 .1 0 .1 0 0 0 .1 0 .1 0 0 0zM574 268.4c.1.1.2.1.3.1 0 0 .1 0 .1-.1v-.1h-.1c0-.1 0-.1-.1-.1h-.2v.2zM577.8 272.1c0 .1 0 .1 0 0 0 .1 0 .1 0 0 .1.1.1.1 0 0 .1.1.1.1 0 0 .1 0 .1 0 0 0 .1 0 0 0 0 0zM576.3 270.8c-.1.1 0 .2 0 .2H576.6v-.1c-.1-.1-.2-.1-.3-.1zM576.5 271.2l.2.1h.1s0-.1-.1-.1h-.2zM574.8 271c0 .1.1.2 0 0 .1.1.2.1.2 0v-.1l-.2.1c.1 0 .1 0 0 0zM577 270.4c-.1.2-.1.3 0 .3h.2s.1 0 .2-.1V270.3s-.1-.1-.2-.1l-.2.2zM578.3 271s-.1 0 0 0zM582.2 265.8c0-.1 0-.1 0 0-.1-.1-.1-.1 0 0-.1 0-.1 0 0 0zM573.2 270.4c.1-.1.1-.1 0-.2h-.2v.1c.1.1.1.1.2.1zM577.9 271c0 .1.1.1 0 0 .1.1.1 0 0 0zM571.9 272.4c0 .1 0 .1 0 0 .1 0 .1 0 0 0 .1 0 .1 0 0 0 .1-.1 0-.1 0 0 0-.1 0 0 0 0zM576.3 275.8c.1-.1.1-.1 0 0 .1-.1.1-.1 0 0 0-.1 0 0 0 0zM577.2 270.8c0 .1.1.1 0 0 .1.1.1 0 0 0zM574.3 271.1c.1.1.1 0 0 0 .1-.1.1-.1.1-.2l-.1-.1h-.2c0 .2.1.3.2.3zM575 271.4s-.1-.1-.2 0v.1l.2-.1v.2-.2zM575 269.1c0-.2-.2-.3-.2-.3h-.1l-.1.1v.1l.1.1c.1.1.2.1.3 0zM576.7 270.5c.1-.2.1-.2.1-.3 0 0 0-.1-.1-.1h-.1l-.1.1v.2c0 .1.1.1.2.1zM573.2 269.3l.1-.2v-.1h-.2v.1l.1.2zM573.5 268.3c.1 0 .1 0 0 0-.2-.1-.1 0 0 0zM574 267.3c.1-.2 0-.2 0-.2h-.1l.1.2c-.2 0-.2 0 0 0zM577.2 269.4c.1 0 .1-.1.2-.1 0-.1 0-.2-.1-.2h-.1c-.1 0-.1 0-.2.1v.1c0 .1 0 .1.2.1zM572.9 274.3c0 .1 0 .1 0 0 0 .1 0 .1 0 0 .1.1.1.1 0 0 .1.1.1.1 0 0 .1.1.1.1 0 0 .1.1.1.1 0 0zM572.4 270.2c-.1-.1-.1-.1 0 0-.1.1 0 0 0 0zM574 269.6c-.1 0-.1.1 0 0-.1.1-.1.1 0 .2h.2v-.1l-.2-.1c.1 0 .1 0 0 0zM575.2 272.2s0 .1 0 0c.1.1.1 0 0 0 .1 0 .1 0 0 0 .1 0 .1 0 0 0zM575.3 270.3s0 .1 0 0l.2.1v-.2l-.2.1c.1 0 0 0 0 0z"/><path class="st13" d="M574.5 268.1c-.1-.1-.2-.1-.2 0v.1s.1 0 .2-.1zM576.5 269l.2-.1c0-.1 0-.2-.1-.3h-.1l-.1.1v.1l.1.2c-.2-.1-.1-.1 0 0zM578.9 270.7c0 .1 0 .2.1.2l-.1-.2c.1-.1 0-.1 0 0zM569.9 270.4c.1 0 .1 0 0 0 .1 0 .1 0 0 0 .1 0 .1-.1 0 0 .1-.1.1-.1 0 0zM580.2 264.8c0 .1 0 .1 0 0 .1 0 .1 0 0 0 .1 0 .1 0 0 0zM573 266.7c0-.1 0 0 0 0-.1 0-.1 0 0 0-.1-.1-.2-.1-.2 0 .2.1.2 0 .2 0zM575.9 268.8c0-.1 0-.1 0 0l-.2-.1-.1.1v.2h.1c.1 0 .2-.1.2-.2z"/><g><path transform="rotate(-64.793 575.206 268.165)" class="st8" d="M568.9 261.7h12.6v13h-12.6z"/><path class="st13" d="M573.7 266.4c0-.1 0-.1 0 0-.1-.1-.1-.1 0 0h-.2v.1l.2-.1zM576.1 270.1h-.2v.2l.1.1c.1.1.2 0 .3-.1v-.1c0-.1-.1-.1-.2-.1zM576.4 271.2s0-.1 0 0c-.1-.1-.1-.1 0 0-.1.1 0 .1 0 0 .2.1.2.1.2 0h-.2zM570.6 272.7c-.1 0-.1 0 0 0-.1 0-.1.1 0 0 0 .1 0 .1 0 0zM579.4 274.5c0 .1 0 .1 0 0 0 .1.1.1 0 0z"/><path class="st13" d="M575.7 269.8l-.2.1v.1c0 .1 0 .2.1.2h.1c.1 0 .1 0 .2-.1v-.1-.2h-.2zM573.4 269l-.1.2.1.1h.2c.1 0 .1-.1.1-.1v-.1l-.1-.1h-.2zM569.3 269.9c0-.1 0-.1 0 0-.1-.1-.1-.1 0 0-.1 0-.1 0 0 0zM573.3 273.7s0-.1 0 0c-.1-.1-.1-.1 0 0-.1 0-.1 0 0 0-.1 0-.1 0 0 0zM575.5 270.8c-.1-.2 0-.2 0-.2l.1-.1.1-.1h.2v.1c0 .1-.1.1-.1.1v.1l-.1.1h-.2s0-.1-.1-.2v-.2l.1.4zm.3 0zM575.3 272.8l.1-.2v-.1s-.1 0-.1.1v.2zM572.4 271.2l.1.2c0-.1 0-.1-.1-.2.1 0 .1 0 0 0zM577.2 271.5l-.1.2h.2l.1-.1v-.1h-.2zM579.2 271.8c0 .1 0 .1 0 0 .1.1.1.1 0 0zM580.6 270.6s0 .1 0 0c0 .1.1.1 0 0zM576 267.9c.1 0 .1 0 0 0 .1-.1.2-.1.2-.2v-.2l-.1-.1h-.4l-.1.1c0 .1 0 .2.1.2 0 .2.1.3.3.2zM574.3 264.9s0-.1 0 0c-.1-.1-.1-.1 0 0-.1 0-.1 0 0 0zM576 266.4c-.1 0-.1 0 0 0h-.2v.1s0 .1.1.1.1 0 .1-.2c.1.1.1.1 0 0zM576.2 267.2l.1-.2h-.2l.1.2c0-.1 0-.1 0 0zM575.8 263.6c.1 0 .1 0 0 0 0-.1 0-.1 0 0 0-.1 0-.1 0 0zM575 267.8c0-.1 0-.2-.1-.2H574.6c0 .1 0 .2.1.2h.3c-.1.1-.1 0 0 0zM573.9 269.6c0-.2-.1-.3-.1-.3h-.1l-.1.1v.1l.1.1c0 .1.1.1.2 0zM572.7 268.8l-.1.2v.1s.1.1.2 0c0 0 .1 0 .1-.1l.1-.1v-.1l-.1-.1-.2.1zM575 270.2c.1 0 .1 0 .2-.1v-.1l-.1-.1h-.2c-.1 0-.1.1-.1.1v.2h.2zM568.9 266.5c-.1-.1-.1 0 0 0 0 .1 0 0 0 0zM575.5 269.4c-.1.1-.1.2-.1.3l.1.1h.1c.1 0 .1-.1.1-.1v-.2c0-.1-.1-.1-.2-.1zM573.8 268.6c0-.1 0-.2-.1-.3h-.1c-.1 0-.1.1-.1.1 0 .1 0 .2.1.3l.2-.1zM576.6 274.7c-.1 0-.1.1 0 0 0 .1 0 0 0 0zM571.8 270.3v-.2h-.2c0 .1 0 .1.2.2-.1.1 0 .1 0 0zM574.4 274.7c0-.1 0-.1 0 0-.1 0-.1.1 0 0zM573.1 270.8l.1.2c.1 0 .2 0 .3-.1v-.2c0-.1-.1-.1-.2-.1s-.2.1-.2.2c0-.1 0 0 0 0zM575.5 271.8h0zM574 271c-.1.1-.1.1 0 0-.1.2-.1.2-.1.3s.1.1.2.1h.1l.1-.1c.1-.1 0-.2-.1-.3h-.2zM574.9 271.6v.2h.1l-.1-.2c.1-.1.1-.1 0 0zM574.3 270.6l-.1-.2h-.2v.1c0 .1 0 .2.1.2l.2-.1zM570.8 271c0-.1 0-.1 0 0-.1-.1-.1-.1 0 0-.1-.1-.1 0 0 0-.1 0-.1 0 0 0zM573.3 270.2c.1.1.2.1.2.1.1 0 .1-.1.1-.1v-.1l-.1-.1c-.1 0-.1-.1-.2 0-.1 0-.1.1 0 .2zM571.5 269.4v-.2h-.2c0 .1 0 .1.2.2-.1.1-.1.1 0 0zM572.7 270.3l.2-.1v-.1l-.1-.1h-.2c-.1 0-.1.1-.1.1v.2c.1-.1.1 0 .2 0zM567.7 270.9c0-.1 0-.1 0 0 0-.1 0-.1 0 0-.1-.1-.1-.1 0 0-.1-.1-.1-.1 0 0-.1 0-.1 0 0 0zM572.3 269.1c-.2 0-.2 0 0 0zM574 271.9c.1-.2 0-.2 0-.2s-.1 0 0 .2c-.1 0-.1 0 0 0-.1 0 0 0 0 0zM573.3 272.7s.1 0 0 0l.1-.2h-.2l.1.2zM572.9 271.3c.1-.1.1-.2.1-.2l-.1-.1c-.1 0-.1 0-.1.1 0 .2 0 .2.1.2zM572.2 270.8c-.1 0-.1 0 0 0l-.2-.1v.1s0 .1.2 0c-.1.1 0 0 0 0zM571.3 270.1c.1-.1.1-.2 0-.3h-.2v.1c0 .2 0 .2.2.2zM573 267.9H573.3l.1-.1.1-.1h.1l.1-.1v-.1l-.1-.1h-.1l-.1.1h-.1-.1c-.1 0-.2 0-.2.1-.1.2-.1.2 0 .3zM576.5 269.2c0-.1-.1-.1 0 0-.2-.1-.2 0-.2 0v.2c0 .1.1.1.1.1.1 0 .2 0 .2-.1-.1 0-.1-.1-.1-.2zM579 268.7c.1.1.1.1 0 0 0-.1 0-.1 0 0zM571.7 268.5c0-.1 0-.1 0 0 0-.1 0-.2-.1-.2h-.1c0 .1.1.1.2.2-.1 0 0 0 0 0zM572.2 267.7c.1 0 .1 0 .2-.1v-.1h-.1s-.1 0-.1.2zM577.7 264.8c0-.1 0-.1 0 0-.1-.1-.1-.1 0 0-.1-.1-.1 0 0 0-.1 0 0 0 0 0zM570.6 266.9c-.1.1 0 .1 0 0 0 .1 0 0 0 0zM574.6 268.7c-.1 0-.2 0-.2.1v.1c0 .1.1.1.1.2h.2v-.1c.1-.1.1-.2-.1-.3zM571.5 268.1c.1-.1.1-.1.1-.2h-.1v.2c0-.1 0-.1 0 0zM574.4 269.4s-.1 0-.2.1c0 .1 0 .2.1.2H574.6l.1-.1v-.2s0-.1-.1-.1l-.2.1c.1 0 0-.1 0 0zM572 268.5s.1 0 0 0c.1 0 .1 0 0 0-.1-.1-.1-.1-.2 0h.2zM576.9 270.4c0-.1 0-.1 0 0-.1-.1-.2-.1-.2-.1s-.1 0-.1.1v.1h-.1s-.1 0-.1.1v.1l.1.1s.1 0 .1-.1h.1v-.1l.2-.2zM577.4 273.1c0-.1 0-.1 0 0 0-.1 0-.1 0 0-.1 0-.1 0 0 0-.1 0-.1 0 0 0-.1 0 0 0 0 0zM577 270.3v.2h.2v-.2h-.1zM572.8 268.5c.1 0 .1-.1 0 0l.1-.2v-.1c0-.1-.1-.1-.2-.1s-.1 0-.2.1v.2c.2 0 .2.1.3.1z"/><path class="st13" d="M575.1 269.5c-.1.2 0 .2.1.3h.1l.1-.1v-.1l-.1-.1h-.2zM571.7 265.3c-.1-.1-.1 0 0 0-.1 0-.1 0 0 0-.1.1-.1.1 0 0zM577.5 268.7c-.2-.1-.2-.1-.3 0 0 0-.1 0-.1.1v.1h.1c0 .1 0 .1.1.1h.1v-.1l.1-.2zM573.4 265.2c0-.1 0-.1 0 0 0-.1 0-.1 0 0 0-.1 0-.1 0 0-.1-.1-.1-.1 0 0-.1 0 0 0 0 0zM575.1 266.4c.1-.1 0-.2 0-.2H574.8v.1c.2.1.2.1.3.1zM574.9 266l-.2-.1h-.1s0 .1.1.1h.2zM576.6 266.1c-.1-.1-.2-.1-.2 0v.1l.2-.1c-.1.1-.1.1 0 0zM574.3 266.9c.1-.2.1-.3 0-.3h-.2s-.1 0-.2.1V267s.1.1.2 0l.2-.1zM573 266.3s.1 0 0 0zM569.4 271.7c0 .1 0 .1 0 0 .1.1.1.1 0 0 .1 0 .1 0 0 0zM578.1 266.6c-.1.1-.1.2 0 .2h.1l.1-.1v-.1c0 .1 0 0-.2 0zM573.5 266.3c0-.1 0-.1 0 0 0-.1-.1-.1 0 0-.1.1-.1.1 0 0-.2-.1-.2 0 0 0zM579.5 264.5c-.1 0-.1 0 0 0-.1 0-.1 0 0 0-.1 0-.1 0 0 0-.1.1-.1.1 0 0 0 .1 0 .1 0 0zM574.9 261.4c-.1.1-.1.1 0 0-.1.1-.1.1 0 0zM574.1 266.5c0-.1-.1-.1 0 0-.1-.1-.1-.1 0 0zM577 266c-.1-.1-.1 0 0 0-.1.1-.1.1-.1.2H577.2c0-.1-.1-.2-.2-.2zM576.4 265.8s.1.1.2 0v-.2h-.2v-.1.3zM576.5 268c0 .2.2.2.2.2h.1v-.2l-.1-.1s-.1 0-.2.1zM574.7 266.7c-.1.1-.1.2-.1.3l.1.1h.1l.1-.1v-.2c0-.1-.1-.1-.2-.1zM578.2 267.7l-.1.2h.2l-.1-.2zM578 268.8c-.1 0-.1 0 0 0s.1 0 0 0zM577.5 269.8c-.1.2 0 .2 0 .2h.1l-.1-.2c.2 0 .2-.1 0 0zM574.2 267.8c-.1 0-.1.1-.2.1 0 .1 0 .2.1.2h.1c.1 0 .1 0 .2-.1v-.1c0-.1 0-.1-.2-.1zM578.2 262.7s0-.1 0 0c0-.1 0-.1 0 0-.1-.1-.1 0 0 0-.1 0 0 0 0 0s-.1 0 0 0zM579.1 266.8c.1.1.1.1 0 0 0-.1 0-.1 0 0zM577.3 267.5c.1-.1.1-.1 0 0 .1-.1.1-.1 0-.2-.1 0-.1 0-.2.1v.1h.2zM580.3 268.7c0 .1 0 .1 0 0 .1.1.1.1 0 0 .1 0 .1 0 0 0zM576.2 265c0-.1-.1-.1 0 0-.1-.1-.1-.1 0 0-.1-.1-.1 0 0 0-.1 0-.1 0 0 0zM576.1 266.8s.1 0 0 0l-.2-.1c0 .1 0 .1.2.1 0 .1 0 .1 0 0zM573.8 262.6c-.1.1-.1.1 0 0-.1.1 0 .1 0 0z"/><path class="st13" d="M577 269c.1.1.2.1.2 0v-.1c-.1 0-.1 0-.2.1zM575 268.3l-.2.1c0 .1 0 .2.1.3h.1l.1-.1v-.1l-.1-.2c.2 0 .1 0 0 0zM572.6 266.7c0-.1 0-.2-.1-.2l.1.2c-.2 0-.1 0 0 0zM578.5 270.3c0 .1.1.1 0 0 .1 0 .1 0 0 0h.2c-.1-.1-.2 0-.2 0zM575.6 268.4s0 .1 0 0l.2.1.1-.1v-.2h-.1c-.1 0-.2.1-.2.2z"/></g><g><path transform="rotate(-17.936 574.259 267.395)" class="st8" d="M568 260.9h12.6v13H568z"/><path class="st13" d="M574.6 265c-.1 0-.1 0 0 0 0-.1 0-.1 0 0v-.2.2c-.1 0-.1.1 0 0zM573.4 269.3c-.2-.1-.2 0-.2 0v.1c0 .1.2.2.3.1l.1-.1c-.1 0-.1-.1-.2-.1zM572.7 270.3v-.2h-.1c.1.1.1.1.1.2 0 0 0 .1 0 0zM572.5 274.7c-.1.1-.1.1 0 0 0 .1 0 .1 0 0 0 .1 0 0 0 0zM573.3 268.7l-.2-.1c-.1 0-.1.1-.1.1-.1 0-.1.1-.1.2 0 0 0 .1.1.1 0 0 .1.1.2 0 .1 0 .1-.1.1-.1.1 0 .1-.1 0-.2zM572.5 266.6l-.2.1v.1c0 .1 0 .1.1.1h.2l.1-.1v-.1l-.2-.1zM569 264.2c0-.1 0-.1 0 0-.1-.1-.1-.1 0 0-.1 0-.1 0 0 0-.1 0-.1 0 0 0zM568.8 269.8c0-.1 0-.1 0 0 0-.1 0-.1 0 0zM572.5 269.3c.1-.1.1-.1.2-.1h.1v.2l-.1.1h-.2-.2l-.1-.1c0-.1-.1-.1 0-.2h.1l.2.1zm.2.2zM570.8 270.6c.1 0 .1 0 0 0 .1-.1.1-.1.1-.2h-.1v.2zM570.1 267.3l-.1.2c.1 0 .1-.1.1-.2 0 .1 0 .1 0 0zM573.1 271c-.1 0-.1 0 0 0l-.1.2h.2l-.1-.2zM574.2 272.7c0 .1 0 .1 0 0 .1.1.1.1 0 0 0 .1 0 0 0 0zM576.2 272.9c-.1 0-.1 0 0 0-.1 0-.1.1 0 0zM574.9 267.7c.1 0 .1 0 0 0 .1 0 .2.1.2 0l.1-.1v-.2c0-.1 0-.1-.1-.1 0-.1-.1-.1-.2-.1h-.1c-.1 0-.1.1-.1.2s.1.2.2.3zM576 264.4c0-.1 0-.1 0 0zM576.1 266.6c-.1 0-.1 0 0 0-.1-.1-.2-.1-.2 0v.1c0 .1.1.1.2.1v-.2c0 .1 0 .1 0 0zM575.6 267.4c.1.1.1.1 0 0l.2.1v-.1-.2h-.1-.1v.2c0-.1 0-.1 0 0zM577.9 264.6c0 .1.1.1 0 0 .1 0 .1 0 0 0zM574.3 266.9c.1 0 .1-.1.1-.2s0-.1-.1-.1h-.2c-.1 0-.1.1-.1.2s0 .1.1.1h.2zM572.3 267.4c.2-.1.1-.2.1-.2l-.1-.1h-.1s-.1 0-.1.1v.1s.1.1.2.1zM572.1 266c-.2 0-.2.1-.2.1v.1s0 .1.1.2H572.3l.1-.1v-.1l-.3-.2zM572.6 268.5c0 .1.1.1.2.1l.1-.1v-.1c0-.1-.1-.1-.1-.2h-.2c-.1 0-.1.1-.1.1 0 .1 0 .2.1.2zM571.2 261.6c0-.1 0-.1 0 0-.1 0-.1 0 0 0-.1.1 0 0 0 0zM573.5 268.3c-.1 0-.2.1-.2.2v.1l.1.1h.2c.1 0 .1-.1.1-.1v-.2l-.2-.1zM572.9 266.6c.1-.1.1-.2.1-.3v-.1h-.2c-.1 0-.2.2-.1.3l.2.1zM570.4 272.8c0-.1 0-.1 0 0-.1-.1-.1-.1 0 0zM570.3 266.3c.1-.1.1-.1.1-.2h-.1-.1c-.1 0-.1.1-.1.2h.2zM568.8 271.1s.1 0 0 0c.1 0 .1 0 0 0 .1 0 .1 0 0 0zM570.9 267.6l-.1.2c0 .1.1.2.3.1l.1-.1v-.1-.2c-.1 0-.2 0-.3.1.1-.1 0-.1 0 0zM571.8 270.1c.1.1.1.1 0 0zM571.4 268.4h-.2c-.1 0-.1.1-.1.1v.2h.2c.1 0 .2-.1.1-.3zM570.4 264s0-.1 0 0c0-.1 0-.1 0 0-.1 0-.1 0 0 0-.1 0 0 0 0 0zM571.5 269.5c-.1.1-.1.1 0 0-.1.1-.1.1 0 0 0 .1.1.1 0 0 .1 0 .1 0 0 0zM571.9 268.3l.1-.2v-.1l-.1-.1h-.1c-.1 0-.1.1-.1.2h.1-.1v.1l.2.1zM569.1 266.1c.1-.1 0-.1 0 0 0-.1 0-.1 0 0-.1-.1-.1-.1 0 0-.1-.1-.1 0 0 0zM571.5 267.2c0 .2 0 .2.1.2h.2l.1-.1v-.1c0-.1 0-.1-.1-.2h-.2l-.1.2zM570.8 265.5c.1 0 .1-.1.1-.2s-.1-.1-.1-.1l-.1.1c-.1.1 0 .2.1.2zM571 266.9l.2.1h.1l.1-.1v-.1c0-.1-.1-.1-.1-.2H571c-.1.1-.1.2 0 .3zM567.1 263.7c0-.1 0-.1 0 0 0-.1 0-.1 0 0 0-.1 0-.1 0 0-.1-.1-.1-.1 0 0-.1-.1-.1-.1 0 0-.1 0-.1 0 0 0zM571.5 265.8l.1-.2h-.1s-.1 0 0 .2c-.1-.1-.1-.1 0 0zM570.7 269.1c.2-.1.2-.1.2-.2h-.1c-.1 0-.1.1-.1.2-.1-.1-.1 0 0 0zM569.6 269.1c.1-.1.1-.1.1-.2v-.1h-.1-.1v.1c0 .1 0 .1.1.2zM570.4 267.8c.2 0 .2-.1.2-.1v-.1s-.1-.1-.2 0-.1.2 0 .2zM570.2 266.9v-.2h-.1s-.1 0-.1.1v.1h.2zM570.1 265.8c.1 0 .2-.1.2-.2v-.1h-.2s-.1 0-.1.1 0 .1.1.2zM572.9 265.6c0 .1 0 .2.1.2l.1.1h.2l.1.1h.1l.1-.1v-.1l-.1-.1h-.2v-.1c0-.1-.1-.1-.2-.1-.2 0-.2 0-.2.1zM574.3 269v-.2h-.2c-.1 0-.1.1-.1.1v.2c0 .1.1.1.2.1 0-.1.1-.2.1-.2zM571.6 265c0-.1 0-.1 0 0 .1-.1.1-.1.1-.2s-.1-.1-.1-.1v.3c-.1 0 0 0 0 0zM572.5 264.8c0 .1.1.1.2.1s.1-.1.1-.1v-.1h-.1l-.2.1zM578.4 266.8c.1-.1 0-.1 0 0 0-.1-.1-.1 0 0zM572 263.1c-.1 0-.1 0 0 0-.1.1 0 .1 0 0zM573.4 267.3c0-.1-.1-.1-.2-.1l-.1.1c-.1.1-.1.2 0 .2 0 0 .1.1.2.1h.1v-.3zM571.8 264.6c.2 0 .2-.1.2-.1l-.2.1c-.1-.1-.1-.1 0 0zM572.8 267.5s-.1-.1-.2 0-.1.2-.1.2l.1.1c0 .1.1.1.2.1l.1-.1v-.1l-.1-.2c0 .1 0 0 0 0zM571.8 265.2s0 .1 0 0c.1.1.1 0 0 0 .1-.2 0-.2-.1-.2l.1.2zM573.8 270.1c0-.1 0-.1 0 0l-.1-.2h-.1v0h-.1s-.1 0-.1.1v.1h.4c0 .1 0 0 0 0zM572.2 272.3c0-.1 0-.1 0 0 0-.1 0-.1 0 0-.1-.1-.1-.1 0 0-.1-.1-.1 0 0 0-.1 0-.1 0 0 0zM573.9 270.1v.1h-.1v.2h.2v-.2zM572.4 265.8H572.7v-.1c0-.1 0-.1-.1-.2-.1 0-.1-.1-.2 0-.1 0-.1.1-.1.1s0 .1.1.2z"/><path class="st13" d="M573.1 268.1c-.2.2-.2.3-.1.3l.1.1h.1v-.1c.1-.2 0-.2-.1-.3zM573.9 262.8c0-.1 0-.1 0 0 0-.1-.1-.1 0 0-.1-.1-.1-.1 0 0-.1 0-.1 0 0 0zM575.4 269.4c.1-.1.1-.2 0-.2 0-.1-.1-.1-.2-.1h-.1s-.1 0-.1.1v.1s-.1.1 0 .1v.1h.2l.2-.1zM575.2 264c0-.1 0-.1 0 0 0-.1 0-.1 0 0 .1-.1.1-.1 0 0 0-.1 0-.1 0 0 0-.1 0-.1 0 0zM576.6 267.8l-.1.2v.1c.1 0 .1-.1.1-.1v-.2zM575.5 266.1c.1 0 .1-.1 0 0l.1-.2h-.1c-.1 0-.1.1 0 .2-.1-.2-.1-.1 0 0zM575.6 265.6c.1-.1.1-.1.1-.2v-.1h-.1-.1v.1c0 .2.1.2.1.2zM576.7 266.8l.1-.2h-.2l.1.2c-.1 0-.1 0 0 0zM574.6 265.9c.2 0 .2-.1.2-.2v-.1h-.1s-.1-.1-.2 0h-.1l-.1.1v.1c0 .1 0 .1.1.1h.2zM574.1 264.5s.1 0 0 0zM567.7 265.6c-.1 0-.1 0 0 0 0 .1 0 .1 0 0zM577.3 268.4c-.1 0-.2 0-.1.2h.1s.1 0 0-.2c.1.2.1.1 0 0zM574.5 264.7c.1-.1.1-.1 0 0-.1-.1-.2-.1-.2 0 .1-.1.1 0 .2 0zM579.8 267.9c-.1-.1-.1-.1 0 0-.1-.1-.1 0 0 0-.1.1 0 .1 0 0zM578.9 262.5c-.1 0-.1 0 0 0-.1 0-.1 0 0 0zM574.7 265.4l.2.1s0-.1-.2-.1c.1-.2 0-.1 0 0zM577 267.2c0-.1 0-.1 0 0-.1-.1-.2 0-.2 0v.1l.2-.1c.1.1.1 0 0 0z"/><path class="st13" d="M576.8 266.6l.2.1V266.4h-.1l-.1.2zM575.2 268.1c-.2.2-.1.3-.1.4H575.4l.1-.1v-.1c0-.1-.1-.1-.1-.2h-.2zM574.9 266.1c-.2 0-.2.1-.2.1v.2l.1.1h.1c.1 0 .1-.1.1-.1 0-.2 0-.3-.1-.3zM576.6 269.2c-.1-.1-.1-.1 0 0l-.2-.1v.2l.2-.1c-.1.1-.1.1 0 0 0 .1 0 .1 0 0zM575.7 269.8h-.2c0 .1 0 .1.2 0-.1.1 0 .1 0 0 .1.1.1.1 0 0zM574.7 270.2c-.1.1-.1.1 0 0-.1.1-.1.2 0 0 .1.1.1 0 0 0zM573.7 266.5h-.2c-.1 0-.1.1-.1.2l.1.1c.1.1.1.1.2.1l.1-.1c.1-.1.1-.1.1-.2l-.2-.1zM580.3 265.8c.1-.1.1-.1 0 0-.1-.1-.1-.1 0 0-.1 0-.1 0 0 0-.1 0-.1 0 0 0zM577.8 269.2c0 .1 0 .1 0 0 0 .1 0 .1 0 0 .1 0 0 0 0 0zM576.2 268.5c.1 0 .1 0 0 0 .1-.2 0-.2-.1-.2l.1.2c-.1-.1-.1-.1 0 0zM577.2 271.3c0 .1 0 .1 0 0 0 .1.1.1 0 0 .1.1.1.1 0 0 .1.1 0 0 0 0zM577.2 265.8c0-.1-.1-.1 0 0-.1-.1-.1-.1 0 0-.1 0-.1 0 0 0zM575.8 267l.1-.2s0-.1-.1-.1-.1.1 0 .3c-.1.1 0 .1 0 0zM574.9 269.2c-.1.1-.1.2 0 .2h.1c.1 0 .1-.1.1-.1-.1 0-.1-.1-.2-.1zM575.2 261.8c.1-.1.1-.1 0 0 0-.1 0-.1 0 0 0-.1 0-.1 0 0zM574 267.2c-.2 0-.3.1-.2.3l.1.1h.2v-.1c0-.1 0-.2-.1-.3zM573.4 264.4c.1-.1.2-.1.1-.2h-.1c-.1.1-.1.2 0 .2zM579.7 270.8c0-.1-.1-.1 0 0-.1 0-.1 0 0 0-.1 0 0 0 0 0zM568.5 267.6c0 .1 0 .1 0 0-.1 0-.1 0 0 0zM574.9 271.1c0 .1.1.1 0 0 0 .1 0 .1 0 0 0 .1 0 .2 0 0 .2 0 .1 0 0 0zM574.3 267.7l.1.2h.2c.1 0 .1-.1.1-.2l-.1-.1c-.1-.1-.2-.1-.2-.1l-.1.2z"/></g><g><path transform="rotate(-22.205 573.422 266.42)" class="st8" d="M566.9 260.1h13v12.6h-13z"/><path class="st13" d="M571.1 266.2c-.1 0-.1 0 0 0-.1 0-.1 0 0 0h-.2s.1.1.2 0c0 .1 0 .1 0 0zM575.4 266.9l-.1.2c0 .1.1.1.1.1h.1c.1 0 .2-.2.1-.3h-.2zM576.5 267.6c0 .1 0 .1 0 0 .1 0 .1-.1.1-.2l-.1.2zM573.6 272.9c0-.1-.1-.1 0 0-.1 0-.1 0 0 0-.1 0-.1 0 0 0zM580.9 267.5c0 .1 0 .1 0 0 .1 0 .1 0 0 0zM574.8 267.1l-.1.2.1.1c0 .1.2.1.2.1s.1 0 .1-.1v-.2c0-.1-.1-.1-.1-.1 0-.1-.1-.1-.2 0zM572.7 268.2l.1.2h.1c.1 0 .1-.1.1-.1v-.2l-.1-.1h-.1l-.1.2zM570.6 271.8c0-.1 0-.1 0 0-.1 0-.1 0 0 0-.1 0-.1 0 0 0zM576.2 271.5c-.1 0-.1 0 0 0zM575.5 267.9c-.1-.1-.1-.1-.1-.2v-.1.1-.1h.2l.1.1v.4l-.1.1c-.1 0-.1.1-.2 0h-.1v-.1l.2-.2zm.2-.2zM576.9 269.5s0-.1 0 0c-.1-.1-.1-.1-.2-.1v.1s0 .1.2 0zM573.7 270.5l.2.1c0-.1-.1-.1-.2-.1zM577.1 267.1c0 .1 0 .1 0 0 .1 0 .1 0 0 0zM578.7 266c.1 0 .1 0 0 0 .1-.1.1-.1 0 0 .1-.1 0-.1 0 0zM578.7 264c.1 0 .1.1 0 0 .1 0 .1 0 0 0 .1 0 .1 0 0 0zM573.7 265.7v-.2l-.1-.1h-.2c-.1 0-.1.1-.1.1-.1 0-.1.1-.1.2v.1c.1.1.1.1.2.1.1-.1.2-.1.3-.2zM570.3 264.8s-.1-.1 0 0c-.1.1-.1.1 0 0 0 .1 0 .1 0 0zM572.6 264.6s-.1 0 0 0c-.1.1-.1.2 0 .2h.1c.1 0 .1-.1.1-.2h-.2c.1 0 .1 0 0 0zM573.3 265c.1-.1.1-.1 0 0 0-.1 0-.1 0 0-.1 0-.1 0 0 0-.1 0 0 0 0 0zM570.4 262.8c.1 0 .1-.1 0 0 0-.1-.1-.1 0 0-.1 0-.1 0 0 0zM572.9 266.3c0-.1-.1-.1-.2-.1s-.1.1-.1.1v.2c0 .1.1.1.2.1s.1-.1.1-.1v-.2zM573.5 268.3c-.2-.2-.3-.1-.3-.1l-.1.1v.1s0 .1.1.1h.1c.2-.1.2-.1.2-.2zM572.2 268.6c0 .2.1.2.1.2h.1s.1 0 .2-.1v-.1-.2l-.1-.1h-.1l-.2.3zM574.7 267.9c.1 0 .1-.1 0-.2l-.1-.1h-.1c-.1 0-.1.1-.1.1v.2c0 .1.1.1.1.1.1 0 .1 0 .2-.1zM567.9 269.8c-.1 0-.1.1 0 0-.1.1-.1.1 0 0 0 .1 0 .1 0 0zM574.4 266.9c0 .1.1.2.2.2h.1l.1-.1v-.2c0-.1-.1-.1-.1-.1h-.2l-.1.2zM572.7 267.7c-.1-.1-.2-.1-.3-.1v.2c0 .1.2.2.3.1v-.2zM579.1 269.8s-.1 0 0 0c-.1.1 0 .1 0 0zM572.6 270.3c-.1-.1-.1-.1-.2-.1v.2c0 .1.1.1.2.1 0 0 .1-.1 0-.2zM577.6 271.4c0-.1 0-.1 0 0-.1-.1-.1-.1 0 0-.1-.1-.1-.1 0 0-.1 0 0 0 0 0zM573.9 269.6l.2.1c.1 0 .2-.1.1-.3l-.1-.1H573.8c0 .2 0 .2.1.3-.1 0-.1 0 0 0zM576.3 268.6c.1-.1.1-.1 0 0zM574.7 269.1v.2c0 .1.1.1.1.1.1 0 .1 0 .2-.1v-.2s-.1-.1-.3 0zM570.3 270.5c0 .1 0 .1 0 0 .1 0 0 0 0 0zM575.7 268.9c.1.1.1.1 0 0 .1.1.1.1 0 0 .1 0 .1 0 0 0 0-.1 0-.1 0 0zM574.5 268.6l-.2-.1h-.1v.2c0 .1.1.1.2.1l.1-.2v.2h.1l-.1-.2zM572.5 271.5c0-.1-.1-.1 0 0-.1 0-.1 0 0 0-.1.1 0 .1 0 0 0 .1 0 0 0 0zM573.5 269.1c.2 0 .2 0 .2-.1v-.2l-.1-.1h-.1c-.1 0-.1.1-.1.1 0 .1 0 .1.1.3zM571.8 269.9c0-.1-.1-.1-.2-.1s-.1.1-.1.1.1.1.3 0c-.1.2 0 .2 0 0zM573.2 269.6l.1-.2v-.1l-.1-.1h-.1c-.1 0-.1.1-.1.1V269.6c0 .1.1.1.2 0zM570.3 273.8c-.1 0-.1 0 0 0-.1 0-.1 0 0 0-.1 0-.1 0 0 0-.1 0-.1 0 0 0-.1.1-.1.1 0 0zM572.1 269.2l-.2-.1h-.1v.1s0 .1.1.1c0 0 .1 0 .2-.1zM575.4 269.8c-.1-.2-.2-.2-.2-.1v.1c0 .1.1.1.2 0-.1.1 0 0 0 0zM575.5 270.8c-.1-.1-.1-.1-.2-.1v.2l.2-.1c-.1 0-.1 0 0 0zM574.2 270.2c0-.2-.1-.2-.1-.2h-.1s-.1.1 0 .2.1.1.2 0zM573.2 270.4h-.2v.1s0 .1.1.1h.1c0-.1.1-.1 0-.2zM572.1 270.6c0-.1-.1-.2-.2-.2l-.1.1v.2s0 .1.1.1c.1-.1.2-.1.2-.2zM571.7 267.7c.1 0 .1 0 .2-.1l.1-.1v-.2l.1-.1v-.1l-.1-.1h-.1l-.1.1v.2h-.1c-.1.1-.1.2-.1.2 0 .2.1.2.1.2zM575 266.2h-.2v.2c0 .1.1.1.1.1h.2c.1-.1.1-.1.1-.2-.1-.1-.1-.1-.2-.1zM576.3 263.9c.1 0 .1 0 0 0 0-.1 0-.1 0 0zM571.2 269.2s0-.1 0 0c-.1-.1-.1-.1-.2-.1s-.1.1-.1.1h.3c0 .1 0 0 0 0zM571 268.3c.1 0 .1-.1 0-.2l-.1-.1h-.1v.1l.2.2zM572.6 262.2c-.1-.1-.1 0 0 0-.1.1-.1.1 0 0 0 .1 0 .1 0 0zM569.3 268.9c0 .1.1.1 0 0 .1.1.1 0 0 0zM573.4 267.1c-.1.1-.1.1-.1.2l.1.1c.1.1.2 0 .2 0s.1-.1.1-.2v-.1h-.3zM570.8 269c0-.2-.1-.2-.1-.2l.1.2c0 .1 0 .1 0 0zM573.6 267.7s-.1.1 0 .2.2.1.2 0l.1-.1c.1-.1.1-.1.1-.2l-.1-.1h-.2l-.1.2c.1 0 .1 0 0 0zM571.5 268.9c.1-.1 0-.1 0 0-.2-.1-.2 0-.2.1l.2-.1zM576.2 266.6c-.1 0-.1 0 0 0l-.2.1v.1h.1v.1s0 .1.1.1h.1v-.2c0-.1 0-.1-.1-.2zM578.4 268s.1 0 0 0c.1 0 .1 0 0 0 0 .1 0 .1 0 0 0 .1 0 .1 0 0 .1.1.1.1 0 0zM576.2 266.4v.2h.2V266.3h-.1v.1zM572 268.3V268h-.1c-.1 0-.1 0-.2.1 0 .1-.1.1 0 .2 0 .1.1.1.1.1s.1 0 .2-.1zM574.3 267.3c.2.1.3.1.3.1l.1-.1v-.1h-.1c-.3 0-.3.1-.3.1zM568.9 267c-.1 0-.1 0 0 0-.1 0-.1 0 0 0-.1.1-.1.1 0 0zM575.3 265c-.1-.1-.2-.1-.2 0-.1 0-.1.1-.1.2v.1s0 .1.1.1h.2v-.1V265c0 .1 0 0 0 0zM570 265.6c-.1 0-.1 0 0 0-.1 0-.1 0 0 0-.1 0-.1 0 0 0-.1 0-.1 0 0 0-.1.1-.1.1 0 0 0 .1 0 0 0 0zM573.6 264l.2.1h.1c0-.1-.1-.1-.1-.1h-.2zM572 265.2c0-.1-.1-.1 0 0l-.2-.1v.1c0 .1.1.1.2 0-.1.1-.1.1 0 0zM571.5 265.1c-.1-.1-.1-.1-.2-.1v.2l.2-.1c0 .1 0 0 0 0zM572.7 263.9c-.1-.1-.2-.1-.2 0v.1l.2-.1c0 .2 0 .1 0 0zM571.9 266.2c-.1-.2-.2-.2-.2-.2h-.1v.1s-.1.1 0 .2v.1h.2c.1 0 .1 0 .1-.2 0 .1 0 0 0 0zM570.5 266.6zM572.1 273c.1.1.1.1 0 0 .1 0 .1 0 0 0 .1 0 .1 0 0 0zM574.2 263.2c0 .1.1.2.2.1v-.1s0-.1-.2 0c.2-.1.1-.1 0 0zM570.8 266.3c-.2-.1-.2-.1-.2 0v.1s0 .1.1.1c-.1-.1 0-.1.1-.2zM573.5 260.8c-.1.1 0 .1 0 0 .1 0 .1 0 0 0zM568.2 262.1c0 .1 0 .1 0 0 0 .1 0 .1 0 0zM571.4 266l.1-.2s-.1 0-.1.2c-.2 0-.1 0 0 0zM573 263.5c-.1 0-.1 0 0 0v.2h.1l-.1-.2c.1-.1 0-.1 0 0zM572.4 263.8s.1 0 0 0l.1-.2-.1.2zM574.1 265.4c.2.2.3.1.4 0V265.1l-.1-.1h-.1c-.1 0-.1.1-.2.2v.2zM572.1 265.8c0 .2.1.2.1.2h.2l.1-.1v-.1c0-.1-.1-.1-.1-.1-.2-.1-.3 0-.3.1zM575.1 263.8c-.1.1-.1.1 0 0 0 .1 0 .1 0 0 .1 0 .1 0 0 0l.1-.2-.1.2zM575.7 264.7v.2s.1 0 0-.2c.1.1.1 0 0 0 .1-.1.1-.1 0 0zM576.2 265.7l.2.1v-.1h-.2c.1-.1 0-.1 0 0z"/><path class="st13" d="M572.5 266.8v.2c0 .1.1.1.2.1l.1-.1c.1-.1.1-.1.1-.2l-.1-.1c-.1-.1-.1-.1-.2-.1l-.1.2zM571.4 260.5c0-.1 0-.1 0 0-.1-.1-.1 0 0 0-.1 0-.1 0 0 0zM575 262.5c0 .1.1.1 0 0 .1 0 .1 0 0 0zM574.4 264.3c0-.1 0-.1 0 0-.2-.1-.2 0-.2.1l.2-.1c-.1.1-.1.1 0 0zM577.1 263c.1 0 .1 0 0 0 .1-.1.1-.1 0 0 .1-.1.1-.1 0 0 0-.1 0-.1 0 0zM571.6 263.5c0-.1 0-.1 0 0-.1 0-.1 0 0 0zM573 264.8l-.2-.1s-.1 0-.1.1.1.1.3 0c0 .1 0 .1 0 0zM575.2 265.6c.1.1.2.1.2 0v-.1l-.1-.1c-.1 0-.1.1-.1.2zM567.7 265.8s-.1 0 0 0c0 .1 0 .1 0 0zM573.3 266.6l-.1.2c0 .1.1.2.3.1l.1-.1v-.2h-.1c-.1-.1-.1-.1-.2 0zM570.5 267.3c-.1-.1-.2-.1-.2-.1v.1c.1.2.2.1.2 0zM576.4 260.7c-.1 0-.1 0 0 0 0 0 0 .1 0 0zM574.1 272.1c0-.1 0-.1 0 0-.1 0-.1 0 0 0zM577.1 265.4c.1 0 .1-.1 0 0 .1-.1.1-.1 0 0 .1-.1.2-.1 0 0 0-.2 0-.1 0 0zM573.8 266.3l.2-.1v-.2c0-.1-.1-.1-.2-.1l-.1.1c-.1.1-.1.2.1.3z"/></g><g><path transform="rotate(-29.191 572.608 265.342)" class="st8" d="M566.3 258.8h12.6v13h-12.6z"/><path class="st13" d="M572.5 262.9c0-.1 0-.1 0 0 0-.1 0-.1 0 0l-.1-.2s-.1.1.1.2c-.1 0 0 0 0 0zM572.3 267.3h-.2c-.1 0-.1.1-.1.2v.1c.1.1.2.1.3.1v-.1c.1-.2 0-.3 0-.3zM571.7 268.5c-.1 0-.1 0 0 0 0 .1.1.1.2.1l-.2-.1zM566.1 266.4c.1-.1.1-.1 0 0 0-.1 0-.1 0 0 0-.1 0-.1 0 0zM572.4 272.8c-.1.1-.1.1 0 0-.1.1 0 .1 0 0 0 .1 0 0 0 0z"/><path class="st13" d="M572.1 266.8h-.2l-.1.1c-.1.1-.1.2-.1.3 0 0 0 .1.1.1h.2c.1 0 .1-.1.1-.2v-.3zM570.7 264.9l-.2.1v.1c0 .1.1.1.1.1h.2v-.1l-.1-.2zM566.9 263.2c0-.1 0-.1 0 0-.1-.1-.1-.1 0 0-.1-.1-.1-.1 0 0-.1-.1-.1-.1 0 0-.1 0-.1 0 0 0-.1 0-.1 0 0 0zM567.9 268.7c0-.1 0-.1 0 0-.1-.1-.1-.1 0 0-.1-.1-.1-.1 0 0-.1-.1-.1 0 0 0-.1 0-.1 0 0 0zM571.3 267.5c.1-.1.1-.1.2-.1h.1v.2l-.1.1h-.2l-.1.1h-.1l-.1-.1c0-.1-.1-.1-.1-.2v-.1h.1l.3.1zm.2.2zM569.9 269.1c.1-.1.1-.1.1-.2h-.1c-.1 0-.1.1 0 .2zM568.5 266.1v.2c.1 0 .1-.1 0-.2 0 .1 0 .1 0 0zM572.3 269.2l-.1.2v.1h.2l-.1-.3zM573.6 270.6c0 .1.1.1 0 0 .1.1.1.1 0 0 .1 0 0 0 0 0zM575.5 270.4c0 .1.1.1 0 0 .1 0 .1 0 0 0zM573.3 265.5h.2V265.2c0-.1-.1-.1-.1-.1 0-.1-.1-.1-.2-.1l-.1.1c-.1.1-.1.1-.1.2.1.1.1.2.3.2zM573.7 262.1s.1-.1 0 0c0-.1-.1-.1 0 0zM574.3 264.3c-.1-.1-.1-.1 0 0l-.2-.1-.1.1v.1c0 .1.1.1.3-.1-.1.1 0 0 0 0zM573.9 265.1c.1.1.1.1.2.1v-.1-.1l-.2.1c.1-.1.1-.1 0 0 0-.1 0-.1 0 0zM575.7 261.9s0 .1 0 0c.1.1.1.1 0 0 .1 0 .1 0 0 0zM572.6 264.9c.1 0 .1-.2.1-.2 0-.1-.1-.1-.1-.1h-.2c-.1 0-.1.2-.1.2 0 .1.1.1.1.1h.2zM570.7 265.8c.2-.2.1-.3.1-.3h-.2s-.1 0-.1.1v.1s.1.1.2.1zM570.2 264.4h-.2c-.1 0-.1.1-.1.1v.1s0 .1.1.1H570.3v-.1l-.1-.2zM571.2 266.7c.1 0 .1.1.2 0v-.2c0-.1-.1-.1-.1-.1h-.2c-.1 0-.1.1-.1.2.1 0 .1.1.2.1zM568.5 260.3c0-.1 0-.1 0 0 0-.1 0-.1 0 0 0-.1 0-.1 0 0z"/><path class="st13" d="M572.2 266.5c-.1 0-.2.1-.2.2v.1l.1.1h.2c.1 0 .1-.1.1-.1v-.2l-.2-.1zM571.2 264.8c.1-.1.1-.2 0-.3h-.2c-.1.1-.1.2-.1.3l.1.1.2-.1zM569.9 271.3c-.1 0-.1 0 0 0 0 .1 0 0 0 0zM568.5 265c.1-.1.1-.1.1-.2h-.1-.1s0 .1.1.2zM568.1 270.1s.1 0 0 0c.1 0 .1 0 0 0 .1-.1.1-.1 0 0zM569.4 266.2l-.1.2c0 .1.1.1.3.1l.1-.1v-.1c0-.1 0-.1-.1-.2-.1 0-.1 0-.2.1zM570.7 268.5c.1.1.1 0 0 0zM570 266.9h-.2c-.1 0-.1.1-.1.1 0 .1 0 .1.1.2h.2c.1 0 .1-.1 0-.3zM568.2 262.7c-.1 0-.1 0 0 0 0 .1 0 0 0 0zM570.3 267.9c-.1.1-.1.1-.1.2h.1v-.2c.2 0 .1 0 0 0zM570.5 266.7l.1-.2v-.2h-.1-.1c-.1 0-.1.1-.1.2h.1l-.1.1v.1h.2zM567.3 265c.1 0 .1 0 0 0 .1 0 .1 0 0 0 .1-.1 0-.1 0 0zM569.9 265.8c0 .2.1.2.1.2h.2l.1-.1v-.1c0-.1-.1-.1-.1-.1-.1 0-.1 0-.3.1zM568.8 264.1c.1 0 .1-.1.1-.2s-.1-.1-.2-.1c0 0 0 .1.1.3-.1 0-.1 0 0 0zM569.3 265.6l.2.1.1-.1v-.1c0-.1-.1-.1-.1-.1h-.2v.2c-.1-.2-.1-.1 0 0zM564.8 263.1c0-.1 0-.1 0 0 0-.1 0-.1 0 0 0-.1 0-.1 0 0 0-.1 0-.1 0 0-.1-.1-.1-.1 0 0zM569.6 264.3l.1-.2h-.1v.2c-.1-.1-.1-.1 0 0zM569.4 267.6c.1-.1.1-.2.1-.2h-.1s-.1.1 0 .2c-.1 0 0 0 0 0zM568.5 267.9c.1-.1.1-.1.1-.2h-.1-.1l.1.2c-.1-.1-.1-.1 0 0zM568.9 266.6l.2-.1v-.1h-.2c-.2.1-.1.2 0 .2zM568.5 265.7v-.2h-.1l-.1.1v.1h.2zM568.3 264.5c.1 0 .2-.1.2-.2l-.1-.1h-.2s-.1 0-.1.1c.1.1.1.2.2.2zM571 263.8l.2.2.1.1h.2l.1.1h.1l.1-.1v-.1l-.1-.1h-.2v-.1c-.1-.1-.2-.1-.3-.1-.2-.1-.2 0-.2.1zM573 266.8v-.2h-.2c-.1 0-.1.1-.1.1v.2c.1.1.2.1.3-.1-.1.1 0 .1 0 0zM569.5 263.4c.1-.1.1-.2 0-.2 0 0-.1-.1-.1 0s0 .1.1.2c-.1.1 0 .1 0 0zM570.4 263.1c0 .1.1.1.2 0l.1-.1v-.1h-.1l-.2.2zM576.7 264c0-.1 0-.1 0 0-.1-.1-.1-.1 0 0-.1 0-.1 0 0 0zM569.5 261.7c0-.1 0-.1 0 0 0-.1 0-.1 0 0-.1 0-.1 0 0 0zM571.8 265.4c-.1-.1-.2-.1-.2-.1l-.1.1c-.1.1 0 .2 0 .2s.1.1.2.1h.1c.1 0 .1-.1 0-.3zM569.6 263.1l.2-.1-.2.1c-.1-.1-.1-.1 0 0zM571.3 265.8h-.2c-.1.1-.1.2 0 .2l.1.1c.1.1.2.1.2.1l.1-.1v-.2l-.2-.1zM569.8 263.7c.2.1.2 0 .2-.1s-.1-.1-.2-.1v.2zM572.7 268c0-.1 0-.1 0 0l-.2-.1v.1h-.2l-.1.1s0 .1.1.1H572.6l.1-.2c0 .1 0 .1 0 0zM571.5 270.6c.1 0 .1 0 0 0 .1-.1.1-.1 0 0 .1-.1.1-.1 0 0z"/><path class="st13" d="M572.8 268v.1h-.1v.2h.2v-.2zM570.5 264.1h.2v-.2c0-.1 0-.1-.1-.2h-.2c-.1 0-.1.1-.1.1 0 .2.1.2.2.3zM571.7 266.3c-.1.2-.1.3-.1.3h.1l.1-.1-.1-.2c.2.1.1 0 0 0zM571.4 260.9c0-.1 0-.1 0 0-.1-.1-.1 0 0 0zM574.2 267c.1-.1.1-.2 0-.2 0-.1-.1-.1-.2-.1h-.1l-.1.1v.2h.4c-.1 0-.1 0 0 0zM572.9 261.9c0-.1 0-.1 0 0 0-.1 0-.1 0 0 0-.1 0-.1 0 0-.1-.1-.1-.1 0 0-.1 0-.1 0 0 0zM575 265.3l-.1.2c.1 0 .1-.1.1-.2zM573.5 263.7c.1 0 .1-.1.1-.2v-.1h-.1c-.1 0-.1.1-.1.1 0 .1 0 .2.1.2zM573.6 263.3c.1-.1.1-.1.1-.2h-.1-.1l.1.2c-.1 0-.1 0 0 0zM574.9 264.4c.1-.1.1-.2 0-.2h-.1l.1.2c-.1-.1-.1 0 0 0zM572.7 263.7c.2-.1.2-.2.2-.3v-.1h-.1-.2-.1v.2c0 .1.1.1.2.2-.1.1-.1 0 0 0zM565.8 264.8c0 .1 0 .1 0 0 0 .1 0 .1 0 0 0 .1.1.1 0 0zM575.9 265.8c-.1 0-.2.1-.1.2h.1v-.2c.1.1.1.1 0 0zM572.4 262.6c.1-.2 0-.2 0-.2h-.1l-.1.1s.1.1.2.1zM578.1 264.8s0-.1 0 0c0-.1 0-.1 0 0-.1 0-.1 0 0 0-.1 0-.1.1 0 0 0 .1 0 0 0 0zM576.3 259.6c-.1 0-.1 0 0 0-.1 0-.1 0 0 0zM572.7 263.2h.2s0-.1-.2 0c0-.1 0-.1 0 0zM575.4 264.6c-.1-.1-.1-.1 0 0-.2 0-.2 0-.2.1v.1h.1c.2-.1.2-.2.1-.2zM575 264s0 .1.2.1h.1-.1v-.2l-.2.1zM573.6 265.9c-.1.2 0 .3 0 .3h.2l.1-.1v-.1c0-.1-.1-.1-.3-.1zM573 263.9c-.2 0-.2.1-.2.1v.2l.1.1h.1c.1 0 .1-.1.1-.2s0-.2-.1-.2zM575.3 266.6c-.1-.1-.1-.1-.2-.1v.2l.2-.1c-.1.1-.1.1 0 0 0 .1 0 .1 0 0zM574.5 267.4h-.2s0 .1.2 0c-.1.1-.1.1 0 0 .1.1.1 0 0 0zM573.6 267.9l-.1.2h.1v-.2c.1.1.1.1 0 0zM572 264.5h-.2c-.1 0-.1.2-.1.2l.1.1h.2l.1-.1c.1-.1 0-.1-.1-.2zM578.2 262.6s0-.1 0 0c0-.1 0-.1 0 0-.1-.1-.1-.1 0 0-.1-.1-.1-.1 0 0-.1-.1-.1-.1 0 0zM576.6 266.5c-.1 0-.1 0 0 0 0 .1 0 .1 0 0zM574.7 266.1c.1 0 .1 0 0 0l.1-.2c0-.1-.1-.1-.2-.1v.1l.1.2zM576.4 268.7c0 .1.1.1 0 0 .1 0 .1 0 0 0zM575.2 263.2c0-.1 0-.1 0 0 0-.1 0-.1 0 0-.1-.1-.1-.1 0 0-.1-.1-.1 0 0 0zM574.1 264.7l.1-.2-.1-.1c-.1 0-.1.1 0 .3-.1.1-.1.1 0 0zM573.6 267c-.1.1-.1.2 0 .2h.1l.1-.1c-.1-.1-.1-.2-.2-.1zM572.4 265.3h-.2c-.1 0-.2.2-.1.3l.1.1h.1l.1-.1v-.1c.1-.1.1-.1 0-.2zM571.3 262.5c.1-.1.1-.2.1-.3h-.1c-.2.3-.1.3 0 .3zM578.6 267.6c0-.1 0-.1 0 0-.1-.1-.1-.1 0 0-.1-.1-.1-.1 0 0zM567 266.7c0-.1 0-.1 0 0 0-.1 0-.1 0 0-.1 0-.1 0 0 0zM574 268.9c0 .1.1.1 0 0 .1.1.1.1 0 0 .1.1.1.1 0 0 .1 0 .1 0 0 0zM572.7 265.7l.1.2h.2c.1 0 .1-.1.1-.2l-.1-.1c-.1-.1-.2 0-.3.1z"/></g></g></g><g id="eye_left"><path class="st7" d="M526.4 289.8c-1-6.3-6.9-10.6-13.3-9.7-6.3 1-10.6 6.9-9.7 13.3 1 6.3 6.9 10.6 13.3 9.7 6.2-1.1 10.6-7.1 9.7-13.3"/><g class="st12"><path transform="rotate(-64.793 517.262 289.758)" class="st8" d="M511 283.3h12.6v13H511z"/><path class="st13" d="M515.8 287.8c-.1 0-.1 0 0 0-.1 0-.1 0 0 0-.1-.1-.1-.1 0 0h-.2v.1c.1 0 .2 0 .2-.1zM518.2 291.6h-.2v.2l.1.1c.1.1.2 0 .3-.1v-.1c-.1 0-.2-.1-.2-.1zM518.4 292.8s0-.1 0 0c-.1-.1-.1-.1 0 0-.1.1 0 .1 0 0 .2.1.2.1.2 0h-.2zM512.6 294.3s0-.1 0 0c-.1-.1-.1-.1 0 0-.1 0-.1 0 0 0zM521.4 296s0 .1 0 0c.1.1.1 0 0 0 .1 0 .1 0 0 0zM517.7 291.3l-.2.1v.1c0 .1 0 .2.1.2h.1c.1 0 .1 0 .2-.1v-.1-.2c-.1.1-.1 0-.2 0zM515.4 290.5l-.1.2.1.1h.2c.1 0 .1-.1.1-.1v-.1l-.1-.1h-.2zM511.4 291.4c-.1 0-.1 0 0 0-.1-.1-.1 0 0 0-.1 0-.1 0 0 0-.1.1-.1.1 0 0-.1 0 0 0 0 0zM515.3 295.3c0-.1 0-.1 0 0-.1-.1-.1-.1 0 0-.1 0-.1 0 0 0zM517.5 292.3c-.1-.2 0-.2 0-.2l.1-.1.1-.1h.2v.1c0 .1-.1.1-.1.1v.1l-.1.1h-.2s0-.1-.1-.2v-.2l.1.4zm.3 0zM517.3 294.4s0-.1 0 0l.1-.2v-.1s-.1 0-.1.1v.2zM514.4 292.7l.1.2s0-.1-.1-.2c0 .1 0 0 0 0zM519.2 293l-.1.2h.2l.1-.1v-.1h-.2zM521.2 293.4s0 .1 0 0c.1.1.1.1 0 0 .1 0 .1 0 0 0 .1 0 0 0 0 0zM522.6 292.1c0-.1 0-.1 0 0zM518 289.5c.1-.1.1-.1 0 0 .1-.1.2-.1.2-.2v-.2l-.1-.1h-.4l-.1.1c0 .1 0 .2.1.2.1.2.2.2.3.2zM516.3 286.4s0-.1 0 0c-.1-.1-.1-.1 0 0 0 .1 0 .1 0 0 0 .1 0 .1 0 0zM518.1 287.9c-.1 0-.1 0 0 0h-.2v.1s0 .1.1.1.1 0 .1-.2zM518.3 288.7l.1-.2h-.2l.1.2c-.1 0 0 0 0 0zM517.8 285.1s.1.1 0 0c.1 0 .1 0 0 0 .1-.1.1-.1 0 0zM517 289.3c0-.1 0-.2-.1-.2H516.6c0 .1 0 .2.1.2h.3c-.1.1 0 .1 0 0zM516 291.2c0-.2-.1-.3-.1-.3h-.1l-.1.1v.1l.1.1c0 .1.1.1.2 0zM514.8 290.4l-.1.2v.1s.1.1.2 0c0 0 .1 0 .1-.1l.1-.1v-.1l-.1-.1-.2.1zM517 291.7c.1 0 .1 0 .2-.1v-.1l-.1-.1h-.2c-.1 0-.1.1-.1.1v.2h.2zM511 288c-.1-.1-.1-.1 0 0-.1-.1-.1 0 0 0-.1 0-.1 0 0 0zM517.5 290.9c-.1.1-.1.2-.1.3l.1.1h.1c.1 0 .1-.1.1-.1v-.2c0-.1-.1-.1-.2-.1zM515.8 290.2c0-.1 0-.2-.1-.3h-.1c-.1 0-.1.1-.1.1 0 .1 0 .2.1.3l.2-.1zM518.5 296.2s0-.1 0 0c0 0 .1 0 0 0zM513.8 291.7v-.2h-.2c0 .2 0 .2.2.2-.1.1 0 .1 0 0zM516.4 296.2c0-.1 0-.1 0 0 0-.1 0-.1 0 0-.1 0 0 0 0 0zM515.1 292.3l.1.2c.1 0 .2 0 .3-.1v-.2c0-.1-.1-.1-.2-.1s-.1 0-.2.2c0-.1 0-.1 0 0zM517.6 293.4h0zM516.1 292.5c-.1.1-.1.1-.2.1v.2c0 .1.1.1.2.1h.1l.1-.1c.1-.1 0-.2-.2-.3zM512.2 290.2c-.1 0-.1 0 0 0-.1.1-.1.1 0 0 0 .1 0 .1 0 0zM517 293.1v.2h.1l-.1-.2c.1 0 0 0 0 0zM516.4 292l-.1-.2h-.2v.1c0 .1 0 .2.1.2l.2-.1zM512.8 292.5c0-.1 0-.1 0 0 0-.1 0-.1 0 0-.1 0-.1 0 0 0zM515.3 291.7c.1.1.2.1.2.1.1 0 .1-.1.1-.1v-.1l-.1-.1c-.1 0-.1-.1-.2 0-.1 0-.1.1 0 .2zM513.6 291v-.2h-.2c0 .1 0 .1.2.2-.2 0-.1 0 0 0zM514.7 291.8l.2-.1v-.1l-.1-.1h-.2c-.1 0-.1.1-.1.1v.2c0-.1.1 0 .2 0zM509.7 292.4c0-.1-.1 0 0 0-.1 0-.1 0 0 0-.1 0-.1 0 0 0zM514.2 290.6zM516.1 293.4c.1-.2 0-.2 0-.2s-.1 0 0 .2c-.1 0-.1 0 0 0-.1.1-.1.1 0 0zM515.4 294.3l.1-.2h-.2l.1.2zM515 292.8c.1-.1.1-.2.1-.2l-.1-.1c-.1 0-.1 0-.1.1-.1.3 0 .3.1.2zM514.2 292.3c0-.1 0-.1 0 0l-.2-.1v.1c.1 0 .1.1.2 0 0 .1 0 .1 0 0zM513.3 291.7c.1-.1.1-.2 0-.3h-.2v.1c0 .2.1.2.2.2zM515 289.4H515.3l.1-.1.1-.1h.1l.1-.1v-.1l-.1-.1h-.1l-.1.1h-.1-.1c-.1 0-.2 0-.2.1v.3zM518.5 290.8c0-.1-.1-.1 0 0-.2-.1-.2 0-.2 0v.2c0 .1.1.1.1.1.1 0 .2 0 .2-.1-.1-.1-.1-.2-.1-.2zM521 290.2c.1.1.1.1 0 0 .1 0 .1 0 0 0zM513.7 290c0-.1 0-.2-.1-.2h-.1c0 .1.1.1.2.2 0 .1 0 .1 0 0zM514.2 289.3c.1 0 .1 0 .2-.1v-.1h-.1s-.1 0-.1.2zM519.8 286.3c-.1 0-.1 0 0 0-.1-.1-.1-.1 0 0-.2 0-.2 0 0 0-.1 0-.1.1 0 0zM512.7 288.5c0-.1 0-.1 0 0-.1-.1-.1-.1 0 0-.1 0-.1 0 0 0zM516.7 290.3c-.1 0-.2 0-.2.1v.1c0 .1.1.1.1.2h.2v-.1c0-.1 0-.2-.1-.3zM513.6 289.7c.1-.1.1-.1.1-.2h-.1v.2c-.1-.1-.1-.1 0 0-.1-.1-.1-.1 0 0zM516.4 290.9s-.1 0-.2.1c0 .1 0 .2.1.2H516.6l.1-.1v-.2s0-.1-.1-.1l-.2.1c.1 0 .1 0 0 0zM514.1 290c0 .1 0 .1 0 0 .1 0 .1 0 0 0-.1-.1-.1-.1-.2 0h.2zM518.9 291.8c-.1-.1-.2-.1-.2-.1s-.1 0-.1.1v.1h-.1s-.1 0-.1.1v.1l.1.1s.1 0 .1-.1h.1v-.1l.2-.2c.1.1.1 0 0 0zM519.4 294.6s.1 0 0 0c0-.1 0-.1 0 0 0-.1 0-.1 0 0-.1 0-.1 0 0 0-.1.1 0 .1 0 0 0 .1 0 .1 0 0zM519.1 291.7l-.1.1v.1h.1v.1h.1v-.1h.1v-.1h-.1v-.1zM514.8 290c.1 0 .1-.1 0 0l.1-.2v-.1c0-.1-.1-.1-.2-.1s-.1 0-.2.1v.2c.1.1.2.1.3.1z"/><path class="st13" d="M517.1 291.1c-.1.2 0 .2.1.3h.1l.1-.1v-.1l-.1-.1c0-.1-.1 0-.2 0zM513.8 286.9c-.1-.1-.1-.1 0 0-.1-.1-.1 0 0 0-.1 0-.1 0 0 0-.1 0-.1.1 0 0zM519.5 290.2c-.2-.1-.2-.1-.3 0 0 0-.1 0-.1.1v.1h.1c0 .1 0 .1.1.1h.1v-.1l.1-.2c0 .1 0 .1 0 0zM515.5 286.7c-.1 0-.1 0 0 0-.1 0-.1 0 0 0-.1 0-.1-.1 0 0-.1-.1-.1-.1 0 0-.1 0-.1.1 0 0-.1 0 0 0 0 0zM517.2 287.9c.1-.1 0-.2 0-.2H516.9v.1c.1 0 .1.1.3.1zM516.9 287.5l-.2-.1h-.1s0 .1.1.1h.2zM518.5 287.6c-.1-.1-.2-.1-.2 0v.1l.2-.1c-.1 0 0 0 0 0zM516.4 288.4c.1-.2.1-.3 0-.3h-.2s-.1 0-.2.1V288.5s.1.1.2 0c.1 0 .2-.1.2-.1zM515.1 287.8s0-.1 0 0zM520.2 288.2c-.1.1-.1.2 0 .2h.1l.1-.1v-.1h-.2zM515.5 287.7c0-.1 0-.1 0 0 0-.1-.1-.1 0 0-.2 0-.1 0 0 0zM521.5 286.1c-.1 0-.1 0 0 0-.1 0-.1 0 0 0-.1.1-.1.1 0 0 0 .1 0 0 0 0zM516.9 283c-.1 0-.1 0 0 0-.1.1-.1.1 0 0zM516.2 287.9c0-.1-.1-.1 0 0-.1-.1-.1 0 0 0zM519.1 287.5c-.1 0-.1 0 0 0-.1.1-.1.1-.1.2H519.3c-.1-.2-.1-.2-.2-.2zM518.4 287.3s.1.1.2 0v-.2h-.2v-.1.3zM518.4 289.6c0 .2.2.2.2.2h.1v-.2l-.1-.1-.2.1zM516.8 288.3c-.1.1-.1.2-.1.3l.1.1h.1l.1-.1v-.2c0-.1-.1-.1-.2-.1zM520.2 289.3l-.1.2h.2l-.1-.2c.1 0 .1 0 0 0zM520 290.3c-.1 0-.1 0 0 0s.1 0 0 0zM519.6 291.3c-.1.2 0 .2 0 .2h.1l-.1-.2c.1 0 .1 0 0 0zM516.3 289.4c-.1 0-.1.1-.2.1 0 .1 0 .2.1.2h.1c.1 0 .1 0 .2-.1v-.1c0-.1 0-.1-.2-.1zM520.2 284.2c.1 0 .1 0 0 0 0-.1 0-.1 0 0-.1 0-.1 0 0 0zM521.1 288.3c0 .1 0 .1 0 0 .1.1.1.1 0 0zM519.4 289.1c.1-.1.1-.1 0 0 .1-.1.1-.1 0-.2-.1 0-.1 0-.2.1v.1h.2zM522.3 290.3c.1 0 .1 0 0 0 .1 0 .1-.1 0 0 .1-.1 0 0 0 0zM518.2 286.5s0-.1 0 0c-.1-.1-.1 0 0 0-.1 0-.1 0 0 0-.1 0-.1 0 0 0zM518.2 288.4c0-.1 0-.1 0 0l-.2-.1c0 .1 0 .1.2.1-.1 0 0 0 0 0z"/><path class="st13" d="M519 290.5c.1.1.2.1.2 0v-.1c0 .1-.1.1-.2.1zM513.9 285.1c-.1 0-.1 0 0 0-.1 0-.1.1 0 0 0 .1 0 0 0 0zM517.1 289.8l-.2.1c0 .1 0 .2.1.3h.1l.1-.1v-.1l-.1-.2c.1.1.1 0 0 0zM514.5 288.2c0-.1 0-.2-.1-.2l.1.2c-.1.1-.1.1 0 0zM513.5 294.2c.1 0 .1 0 0 0 .1-.1 0-.1 0 0 0-.1 0-.1 0 0zM520.5 291.8c.1 0 .1 0 0 0 .1 0 .1 0 0 0h.2c-.1-.1-.1-.1-.2 0zM517.6 290s.1 0 0 0l.2.1.1-.1v-.2h-.1c-.1 0-.2.1-.2.2z"/><g><path transform="rotate(-17.936 516.133 288.997)" class="st8" d="M509.8 282.5h12.6v13h-12.6z"/><path class="st13" d="M516.5 286.7c0-.1 0-.1 0 0 0-.1 0-.1 0 0v-.2.2c-.1 0 0 0 0 0zM515.4 290.9c-.2-.1-.2 0-.2 0v.1c0 .1.2.2.3.1l.1-.1c-.1.1-.2 0-.2-.1zM514.6 291.9v-.2h-.1c0 .1 0 .1.1.2-.1 0 0 .1 0 0zM509.7 288.7c0-.1 0-.1 0 0 0-.1-.1-.1 0 0zM514.4 296.3c-.1 0-.1 0 0 0-.1.1 0 .1 0 0zM515.3 290.4l-.2-.1c-.1 0-.1.1-.1.1-.1 0-.1.1-.1.2 0 0 0 .1.1.1 0 0 .1.1.2 0 .1 0 .1-.1.1-.1v-.2zM514.3 288.2l-.2.1v.1c0 .1 0 .1.1.1h.2l.1-.1v-.1l-.2-.1zM510.9 285.8c-.1-.1-.1 0 0 0-.1 0-.1 0 0 0 0 .1 0 .1 0 0zM510.8 291.4c-.1 0-.1 0 0 0-.1 0-.1 0 0 0zM514.4 291c.1-.1.1-.1.2-.1h.1v.2l-.1.1h-.2-.2l-.1-.1c0-.1-.1-.1 0-.2h.1l.2.1zm.2.2c-.1 0-.1 0 0 0zM512.8 292.1c0 .1.1.1 0 0 .1-.1.1-.1.1-.2h-.1s-.1.1 0 .2zM512 289l-.1.2c.1 0 .1-.1.1-.2 0 .1 0 0 0 0zM515.1 292.7c-.1 0-.1 0 0 0l-.1.2h.2l-.1-.2zM516.2 294.4c0 .1 0 .1 0 0 0 .1 0 0 0 0zM518.1 294.5s0 .1 0 0c0 .1 0 .1 0 0 .1.1.1 0 0 0zM516.8 289.4c.2 0 .1 0 0 0 .1 0 .2.1.2 0l.1-.1v-.2c0-.1 0-.1-.1-.1 0-.1-.1-.1-.2-.1h-.1c-.1 0-.1.1-.1.2.1.1.1.2.2.3zM518 286.1c-.1-.1-.1-.1 0 0-.1-.1-.1 0 0 0zM518.1 288.3c-.1-.1-.1-.1 0 0-.1-.1-.2-.1-.2 0v.1c0 .1.1.1.2.1v-.2c-.1.1-.1.1 0 0zM517.6 289c.1.1.1.1 0 0l.2.1v-.1-.2h-.1-.1v.2zM519.8 286.3s.1 0 0 0c.1 0 .1 0 0 0 .2 0 .1-.1 0 0 .1-.1.1-.1 0 0zM516.3 288.5c.1 0 .1-.1.1-.2s0-.1-.1-.1h-.2c-.1 0-.1.1-.1.2s0 .1.1.1h.2zM514.2 289c.2-.1.1-.2.1-.2l-.1-.1h-.1s-.1 0-.1.1v.1c.1 0 .2.1.2.1zM514.1 287.6c-.2 0-.2.1-.2.1v.1s0 .1.1.2H514.3l.1-.1v-.1l-.3-.2zM514.5 290.2c0 .1.1.1.2.1l.1-.1v-.1c0-.1-.1-.1-.1-.2h-.2c-.1 0-.1.1-.1.1 0 .1 0 .1.1.2zM513.1 283.3c.1-.1.1-.1 0 0 0-.1 0-.1 0 0 0-.1 0-.1 0 0zM515.5 290c-.1 0-.2.1-.2.2v.1l.1.1h.2c.1 0 .1-.1.1-.1v-.2l-.2-.1zM514.8 288.2c.1-.1.1-.2.1-.3v-.1h-.2c-.1 0-.2.2-.1.3l.2.1zM512.3 294.4c.1 0 .1 0 0 0 0 .1 0 0 0 0zM512.3 287.9c.1-.1.1-.1.1-.2h-.1-.1c-.1 0-.1.1-.1.2 0-.1.1 0 .2 0zM510.8 292.8c.1 0 .1 0 0 0 .1-.1.1-.1 0 0zM512.9 289.2l-.1.2c0 .1.1.2.3.1l.1-.1v-.1-.2c-.1.1-.2.1-.3.1zM513.7 291.7c.1.1.1 0 0 0zM513.3 290.1h-.2c-.1 0-.1.1-.1.1v.2h.2c.2 0 .2-.1.1-.3zM512.3 285.6c-.1 0-.1 0 0 0 0 .1 0 .1 0 0zM513.5 291.2c-.1.1-.1.1 0 0-.1.1-.1.1 0 0 0 .1.1.1 0 0 .1 0 0 0 0 0zM513.9 290l.1-.2v-.1l-.1-.1h-.1c-.1 0-.1.1-.1.2h.1-.1v.1l.2.1zM511 287.6s.1 0 0 0c.1 0 .1 0 0 0 .1-.1 0-.1 0 0zM513.5 288.9c0 .2 0 .2.1.2h.2l.1-.1v-.1c0-.1 0-.1-.1-.2h-.2l-.1.2zM512.7 287.2c.1 0 .1-.1.1-.2s-.1-.1-.1-.1l-.1.1c0 .1 0 .1.1.2zM512.9 288.6l.2.1h.1l.1-.1v-.1c0-.1-.1-.1-.1-.2H512.9v.3zM509 285.3s.1 0 0 0c0-.1 0-.1 0 0 0-.1 0-.1 0 0 0-.1 0-.1 0 0zM513.5 287.5l.1-.2h-.1s-.1 0 0 .2c-.1-.2-.1-.1 0 0zM512.7 290.7c.2-.1.2-.1.2-.2h-.1c-.1 0-.1.1-.1.2-.1 0-.1 0 0 0zM511.6 290.8c.1-.1.1-.1.1-.2v-.1h-.1-.1v.1s0 .1.1.2zM512.3 289.5c.2 0 .2-.1.2-.1v-.1s-.1-.1-.2 0-.1.1 0 .2zM512.2 288.6v-.2h-.1s-.1 0-.1.1v.1c0-.1.1 0 .2 0zM512 287.4c.1 0 .2-.1.2-.2v-.1h-.2s-.1 0-.1.1c.1.1 0 .2.1.2zM514.8 287.3c0 .1 0 .2.1.2l.1.1h.2l.1.1h.1l.1-.1v-.1l-.1-.1h-.2v-.1c0-.1-.1-.1-.2-.1-.1-.1-.2 0-.2.1zM516.3 290.6v-.2h-.2c-.1 0-.1.1-.1.1v.2c0 .1.1.1.2.1 0-.1 0-.1.1-.2zM518.4 292c0 .1 0 .1 0 0 0 .1 0 .1 0 0zM513.6 286.6c.1-.1.1-.1.1-.2s-.1-.1-.1-.1v.3c-.1 0-.1 0 0 0zM514.4 286.5c0 .1.1.1.2.1s.1-.1.1-.1v-.1h-.1l-.2.1zM520.4 288.5c.1-.1 0-.1 0 0-.1-.1-.1-.1 0 0-.1-.1-.1 0 0 0zM514 284.8c-.1-.1-.1 0 0 0-.1 0-.1 0 0 0-.1 0 0 0 0 0zM515.3 288.9c0-.1-.1-.1-.2-.1l-.1.1c-.1.1-.1.2 0 .2 0 0 .1.1.2.1h.1s.1-.1 0-.3zM513.7 286.3c.2 0 .2-.1.2-.1l-.2.1c0-.1 0-.1 0 0zM514.7 289.2s-.1-.1-.2 0-.1.2-.1.2l.1.1c0 .1.1.1.2.1l.1-.1v-.1l-.1-.2c.1 0 .1 0 0 0zM513.8 286.9c.1.1.1 0 0 0 .1-.2 0-.2-.1-.2l.1.2zM515.7 291.7l-.1-.2h-.1v0h-.1s-.1 0-.1.1v.1h.4zM514.1 293.9c0 .1.1.1 0 0 .1 0 .1 0 0 0 .1 0 .1 0 0 0 0 .1 0 .1 0 0zM515.9 291.7h-.1V292h.1l.1-.1v-.1zM514.3 287.5H514.6v-.1c0-.1 0-.1-.1-.2-.1 0-.1-.1-.2 0-.1 0-.1.1-.1.1s0 .1.1.2zM515.1 289.8c-.2.2-.2.3-.1.3l.1.1h.1v-.1c0-.2-.1-.3-.1-.3zM515.8 284.4c0-.1 0-.1 0 0 0 0-.1 0 0 0-.1 0-.1 0 0 0zM517.4 291.1c.1-.1.1-.2 0-.2 0-.1-.1-.1-.2-.1h-.1s-.1 0-.1.1v.1s-.1.1 0 .1v.1h.2l.2-.1c-.1 0 0 0 0 0zM517.2 285.6c0-.1 0-.1 0 0-.1 0-.1 0 0 0-.1 0 0 .1 0 0zM518.4 289.4l-.1.2v.1c.1 0 .1-.1.1-.1v-.2zM517.4 287.6c.1 0 .1-.1 0 0l.1-.2h-.1c-.1.1-.1.1 0 .2 0-.1-.1-.1 0 0zM517.6 287.3c.1-.1.1-.1.1-.2v-.1h-.1-.1v.1c0 .1.1.2.1.2zM518.5 288.5l.1-.2h-.2l.1.2c-.1 0 0 0 0 0zM516.5 287.5c.2 0 .2-.1.2-.2v-.1h-.1s-.1-.1-.2 0h-.1l-.1.1v.1c0 .1 0 .1.1.1h.2zM509.6 287.2c0 .1 0 .1 0 0 0 .1.1.1 0 0 .1.1.1.1 0 0 .1 0 0 0 0 0zM519.2 290.1c-.1 0-.2 0-.1.2h.1s.1 0 0-.2c.1.2.1.1 0 0zM516.4 286.4c.1-.1.1-.1 0 0-.1-.1-.2-.1-.2 0 .1-.1.1-.1.2 0zM521.7 289.6c0-.1 0-.1 0 0 0-.1 0-.1 0 0-.1-.1-.1 0 0 0zM520.9 284.1c-.1 0-.1 0 0 0-.1 0-.1 0 0 0-.1 0 0 0 0 0zM516.7 287l.2.1s0-.1-.2-.1c0-.1 0 0 0 0zM519 288.8c0-.1-.1-.1 0 0-.1-.1-.2 0-.2 0v.1l.2-.1c.1.2.1.1 0 0zM518.7 288.1s0 .1 0 0l.2.1V287.9h-.1l-.1.2zM517.1 289.8c-.2.2-.1.3-.1.4H517.3l.1-.1v-.1c0-.1-.1-.1-.1-.2h-.2zM516.9 287.6c-.2 0-.2.1-.2.1v.2l.1.1h.1c.1 0 .1-.1.1-.1 0-.1-.1-.2-.1-.3zM518.5 290.9c-.1-.1-.1-.1 0 0l-.2-.1v.2l.2-.1c-.1.1-.1.1 0 0zM517.7 291.5h-.2c0 .1 0 .1.2 0-.1.1 0 .1 0 0 0 .1 0 0 0 0zM516.6 291.7c-.1.1-.1.1 0 0-.1.1-.1.2 0 0 .1.1.1.1 0 0zM515.7 288h-.2c-.1 0-.1.1-.1.2l.1.1c.1.1.1.1.2.1l.1-.1c.1-.1.1-.1.1-.2l-.2-.1zM522.2 287.5c.1 0 .1 0 0 0 .1-.1.1-.1 0 0 0-.1 0-.1 0 0zM519.8 290.9c-.1 0-.1.1 0 0 0 .1 0 .1 0 0zM518.1 290.1c.1 0 .1 0 0 0 .1-.2 0-.2-.1-.2l.1.2c0-.1 0-.1 0 0zM519.2 293c0 .1 0 .1 0 0 0 .1 0 .1 0 0 .1.1.1.1 0 0zM519.1 287.5c0-.1 0-.1 0 0 0-.1 0-.1 0 0 0-.1-.1-.1 0 0-.1-.1-.1 0 0 0zM517.8 288.7l.1-.2s0-.1-.1-.1-.1.1 0 .3c-.1 0-.1 0 0 0zM519.2 284.1c-.1 0-.1 0 0 0-.1.1 0 .1 0 0z"/><path class="st13" d="M516.8 290.9c-.1.1-.1.2 0 .2h.1c.1 0 .1-.1.1-.1 0-.1-.1-.1-.2-.1zM517.2 283.4c0-.1 0-.1 0 0-.1 0-.1 0 0 0zM516 288.9c-.2-.1-.3 0-.2.2l.1.1h.2v-.1c-.1-.1-.1-.1-.1-.2zM515.4 286c.1-.1.2-.1.1-.2h-.1c-.2.2-.1.2 0 .2zM521.6 292.4c0-.1.1-.1 0 0 0-.1 0-.1 0 0 0-.1 0-.1 0 0zM510.3 289.3c.1 0 .1-.1 0 0 0-.1 0-.1 0 0zM516.9 292.8c0 .1 0 .1 0 0 0 .1 0 .1 0 0 0 .1 0 .2 0 0 .1 0 0 0 0 0zM516.2 289.4l.1.2h.2c.1 0 .1-.1.1-.2l-.1-.1c-.1-.1-.2-.1-.2-.1l-.1.2z"/></g><g><path transform="rotate(-22.205 515.188 288.186)" class="st8" d="M508.7 281.9h13v12.6h-13z"/><path class="st13" d="M512.8 288c-.1 0 0 0 0 0-.1 0-.1 0 0 0h-.2s.1.1.2 0c-.1-.1 0 0 0 0zM517.1 288.8l-.1.2c0 .1.1.1.1.1h.1c.1 0 .2-.2.1-.3v-.1s-.1 0-.2.1zM518.2 289.5c0 .1 0 .1 0 0 .1 0 .1-.1.1-.2l-.1.2zM515.3 294.7c-.1 0-.1 0 0 0 0 .1 0 .1 0 0 0 .1 0 0 0 0zM522.6 289.4c0 .1 0 .1 0 0s0-.1 0 0zM516.6 288.9l-.1.2.1.1c0 .1.2.1.2.1s.1 0 .1-.1v-.2c0-.1-.1-.1-.1-.1h-.2zM514.4 290.1l.1.2h.1c.1 0 .1-.1.1-.1v-.2l-.1-.1h-.1l-.1.2zM512.4 293.6c-.1 0-.1 0 0 0-.1.1-.1.1 0 0-.1.1-.1.1 0 0 0 .1 0 .1 0 0 0 .1 0 0 0 0zM518 293.3c-.1.1-.1.1 0 0-.1.1-.1.1 0 0 0 .1 0 0 0 0zM517.2 289.8c-.1-.1-.1-.1-.1-.2v-.1.1-.1h.2l.1.1v.4l-.1.1c-.1 0-.1.1-.2 0h-.1v-.1l.2-.2zm.3-.3c-.1.1 0 .1 0 0 0 .1 0 .1 0 0zM518.5 291.4c0-.1 0-.1 0 0-.1-.1-.1-.1-.2-.1v.1h.2zM515.4 292.3l.2.1c0-.1-.1-.1-.2-.1.1 0 .1 0 0 0zM518.9 289c0 .1 0 .1 0 0 .1 0 .1 0 0 0zM520.5 287.7c.1 0 .1 0 0 0 .1 0 .1 0 0 0zM520.5 285.9c.1 0 .1 0 0 0 0-.1 0-.1 0 0zM515.4 287.5v-.2l-.1-.1h-.2c-.1 0-.1.1-.1.1-.1 0-.1.1-.1.2v.1c.1.1.1.1.2.1.2-.1.3-.1.3-.2zM512.1 286.7s-.1-.1 0 0c-.1 0-.1 0 0 0zM514.3 286.4c-.1.1-.1.1 0 0-.1.1-.1.2 0 .2h.1c.1 0 .1-.1.1-.2h-.2c.1 0 .1 0 0 0zM515 286.8c.1-.1.1-.1 0 0 0-.1 0-.1 0 0-.1 0-.1 0 0 0zM512.1 284.7s.1 0 0 0c.1 0 .1-.1 0 0 0-.1 0-.1 0 0 0-.1 0-.1 0 0zM514.7 288.1c0-.1-.1-.1-.2-.1s-.1.1-.1.1v.2c0 .1.1.1.2.1s.1-.1.1-.1v-.2zM515.3 290.1c-.2-.2-.3-.1-.3-.1l-.1.1v.1s0 .1.1.1h.1c.1 0 .2-.1.2-.2zM514 290.4c0 .2.1.2.1.2h.1s.1 0 .2-.1v-.1-.2l-.1-.1h-.1l-.2.3zM516.4 289.7c.1 0 .1-.1 0-.2l-.1-.1h-.1c-.1 0-.1.1-.1.1v.2c0 .1.1.1.1.1.1 0 .2 0 .2-.1zM509.7 291.7c-.1 0-.1 0 0 0-.1 0-.1 0 0 0-.1 0-.1 0 0 0z"/><path class="st13" d="M516.2 288.8c0 .1.1.2.2.2h.1l.1-.1v-.2c0-.1-.1-.1-.1-.1h-.2l-.1.2zM514.5 289.5c-.1-.1-.2-.1-.3-.1v.2c0 .1.2.2.3.1v-.2zM520.8 291.6c0 .1 0 .1 0 0 .1.1.1 0 0 0zM514.3 292.1c-.1-.1-.1-.1-.2-.1v.2c0 .1.1.1.2.1v-.2zM519.3 293.2c0-.1 0-.1 0 0-.1-.1-.1-.1 0 0 0 .1 0 0 0 0zM515.6 291.5l.2.1c.1 0 .2-.1.1-.3l-.1-.1H515.5c0 .1 0 .2.1.3zM518.1 290.5c.1-.2.1-.1 0 0zM516.5 291v.2c0 .1.1.1.1.1.1 0 .1 0 .2-.1v-.2c0-.1-.2-.1-.3 0zM512.1 292.2s-.1 0 0 0c-.1.1-.1 0 0 0 0 .1 0 .1 0 0 0 .1 0 0 0 0zM517.5 290.8c.1.1.1.1 0 0 .1.1.1.1 0 0 .1 0 .1 0 0 0 0-.2 0-.1 0 0zM516.3 290.4l-.2-.1h-.1v.2c0 .1.1.1.2.1l.1-.2v.2h.1l-.1-.2zM514.2 293.4s0-.1 0 0c0-.1 0-.1 0 0 0-.1 0 0 0 0zM515.2 291c.2 0 .2 0 .2-.1v-.2l-.1-.1h-.1c-.1 0-.1.1-.1.1 0 .1 0 .1.1.3zM513.6 291.7c0-.1-.1-.1-.2-.1s-.1.1-.1.1.1.1.3 0c-.1.2-.1.1 0 0zM515 291.5l.1-.2v-.1l-.1-.1h-.1c-.1 0-.1.1-.1.1V291.5c0 .1.1.1.2 0zM512 295.7c0-.1 0-.1 0 0 0-.1 0-.1 0 0-.1 0-.1 0 0 0-.1 0-.1 0 0 0-.1 0-.1 0 0 0zM513.8 291l-.2-.1h-.1v.1s0 .1.1.1.1 0 .2-.1zM517.1 291.6c-.1-.2-.2-.2-.2-.1v.1c0 .1.1.1.2 0 0 .1 0 .1 0 0zM517.3 292.6c-.1-.1-.1-.1-.2-.1v.2l.2-.1c-.2.1-.2.1 0 0zM515.9 291.9c0-.2-.1-.2-.1-.2h-.1s-.1.1 0 .2c.1.2.2.1.2 0zM515 292.2h-.2v.1s0 .1.1.1h.1v-.2zM513.9 292.4c0-.1-.1-.2-.2-.2l-.1.1v.2s0 .1.1.1l.2-.2zM513.5 289.6c.1 0 .1 0 .2-.1l.1-.1v-.2l.1-.1v-.1l-.1-.1h-.1l-.1.1v.2h-.1c-.1.1-.1.2-.1.2 0 .2 0 .2.1.2zM516.8 287.9h-.2v.2c0 .1.1.1.1.1h.2c.1-.1.1-.1.1-.2-.1 0-.2-.1-.2-.1zM518.1 285.8c.1 0 .1-.1 0 0 0-.1 0-.1 0 0zM513 291c-.1-.1-.1-.1-.2-.1s-.1.1-.1.1h.3c0 .1 0 .1 0 0zM512.8 290.1c.1 0 .1-.1 0-.2l-.1-.1h-.1v.1l.2.2zM514.3 284c-.1-.1-.1 0 0 0-.1 0-.1.1 0 0 0 .1 0 .1 0 0zM515.1 289c-.1.1-.1.1-.1.2l.1.1c.1.1.2 0 .2 0s.1-.1.1-.2v-.1s-.1-.1-.3 0zM512.6 290.9c0-.2-.1-.2-.1-.2l.1.2c-.1 0-.1 0 0 0zM515.4 289.6s-.1.1 0 .2.2.1.2 0l.1-.1c.1-.1.1-.1.1-.2l-.1-.1h-.2l-.1.2c.1-.1 0-.1 0 0zM513.2 290.8s.1 0 0 0c.1-.1 0-.1 0 0-.2-.1-.2 0-.2.1l.2-.1zM517.9 288.4c-.1 0-.1 0 0 0l-.2.1v.1h.1v.1s0 .1.1.1h.1v-.2l-.1-.2c.1 0 .1 0 0 0zM520.2 289.9c-.1-.1-.1-.1 0 0-.1-.1-.1-.1 0 0 0 .1 0 .1 0 0 0 .1 0 .1 0 0zM518 288.2v.1h.2v-.2h-.2zM513.8 290.2V289.9h-.1c-.1 0-.1 0-.2.1 0 .1-.1.1 0 .2 0 .1.1.1.1.1s.1 0 .2-.1zM516 289.2c.2.1.3.1.3.1l.1-.1v-.1h-.1c-.2-.1-.3 0-.3.1zM510.6 288.8c-.1 0-.1 0 0 0-.1.1-.1.1 0 0-.1.1-.1.1 0 0zM517.1 286.9c-.1-.1-.2-.1-.2 0-.1 0-.1.1-.1.2v.1s0 .1.1.1h.2v-.1V286.9zM511.7 287.5c-.1 0-.1 0 0 0-.1 0-.1 0 0 0zM515.4 285.8l.2.1h.1c0-.1-.1-.1-.1-.1h-.2zM513.8 287.1c0-.1-.1-.1 0 0l-.2-.1v.1c0 .1.1.1.2 0-.2.1-.1.1 0 0zM513.3 287c-.1-.1-.1-.1-.2-.1v.2l.2-.1c0 .1 0 0 0 0zM514.5 285.8c-.1-.1-.2-.1-.2 0v.1l.2-.1c-.1.1-.1.1 0 0zM513.6 287.9c-.1-.2-.2-.2-.2-.2h-.1v.1s-.1.1 0 .2v.1h.2c.1 0 .1 0 .1-.2.1.1 0 .1 0 0zM512.3 288.5c0-.1 0-.1 0 0zM513.9 294.9c.1 0 .1 0 0 0 0-.1 0-.1 0 0zM516 285c0 .1.1.2.2.1v-.1s0-.1-.2 0c.1-.1.1-.1 0 0zM512.5 288.1c-.2-.1-.2-.1-.2 0v.1s0 .1.1.1c0-.1.1-.1.1-.2zM515.3 282.6c-.1 0-.1.1 0 0-.1.1-.1.1 0 0-.1.1 0 .1 0 0 .1.1 0 .1 0 0zM509.9 283.8c0 .1 0 .1 0 0 0 .1 0 .1 0 0 .1.1.1 0 0 0zM513.1 287.8l.1-.2s-.1 0-.1.2c-.1-.1 0 0 0 0zM514.8 285.3c-.1.1-.1.1 0 0v.2h.1l-.1-.2c.1 0 0 0 0 0zM514.2 285.7l.1-.2-.1.2zM515.9 287.2c.2.2.3.1.4 0V286.9l-.1-.1h-.1c-.1 0-.1.1-.2.2v.2zM513.8 287.6c0 .2.1.2.1.2h.2l.1-.1v-.1c0-.1-.1-.1-.1-.1-.1 0-.2 0-.3.1zM516.8 285.7c-.1.1-.1.1 0 0 0 .1 0 .1 0 0 .1 0 .1 0 0 0l.1-.2-.1.2c.1 0 .1 0 0 0zM517.5 286.6v.2s.1 0 0-.2c.1.1.1 0 0 0 .1-.1 0-.1 0 0zM517.9 287.5l.2.1v-.1h-.2c.1 0 .1 0 0 0zM514.2 288.7v.2c0 .1.1.1.2.1l.1-.1c.1-.1.1-.1.1-.2l-.1-.1c-.1-.1-.1-.1-.2-.1l-.1.2zM513.2 282.3c-.1-.1-.1 0 0 0-.1.1-.1.1 0 0-.1.1-.1 0 0 0-.1 0-.1 0 0 0zM516.7 284.4c.1 0 .1 0 0 0 .1 0 .2 0 0 0 0-.1 0 0 0 0zM516.1 286.2c0-.1 0-.1 0 0-.2-.1-.2 0-.2.1l.2-.1c-.1.1-.1.1 0 0zM513.4 285.3s-.1 0 0 0c-.1 0-.1.1 0 0-.1.1-.1.1 0 0 0 .1 0 .1 0 0zM514.7 286.7s0-.1 0 0l-.2-.1s-.1 0-.1.1.1.1.3 0c0 .1.1 0 0 0z"/><path class="st13" d="M517 287.5c.1.1.2.1.2 0v-.1l-.1-.1c-.1 0-.1 0-.1.2zM509.5 287.6c0-.1-.1-.1 0 0-.1 0-.1 0 0 0zM515 288.4l-.1.2c0 .1.1.2.3.1l.1-.1v-.2h-.1c0-.1-.1-.1-.2 0zM512.2 289.2c-.1-.1-.2-.1-.2-.1v.1c.2.1.2.1.2 0zM518.2 282.5s-.1 0 0 0c-.1.1-.1.1 0 0-.1.1 0 .1 0 0 0 .1 0 .1 0 0zM515.9 294s0-.1 0 0c-.1-.1-.1-.1 0 0-.1-.1-.1 0 0 0zM518.9 287.2c.1 0 .1 0 0 0 .1-.1.2-.1 0 0 0-.1 0 0 0 0zM515.5 288.1l.2-.1v-.2c0-.1-.1-.1-.2-.1l-.1.1c-.1.1-.1.2.1.3z"/></g><g><path transform="rotate(-29.191 514.175 287.301)" class="st8" d="M507.9 280.8h12.6v13h-12.6z"/><path class="st13" d="M514.1 285c0-.1 0-.1 0 0 0-.1 0-.1 0 0-.1-.1-.1-.1 0 0l-.1-.2s-.1.1.1.2c-.1 0-.1 0 0 0zM513.8 289.3h-.2c-.1 0-.1.1-.1.2v.1c.1.1.2.1.3.1v-.1c.1-.1.1-.2 0-.3zM513.3 290.5c-.1 0-.1 0 0 0 0 .1.1.1.2.1l-.2-.1zM507.7 288.3c0-.1 0-.1 0 0 0-.1-.1 0 0 0zM513.9 294.9c-.1 0-.1.1 0 0 0 .1 0 .1 0 0z"/><path class="st13" d="M513.6 288.8h-.2l-.1.1c-.1.1-.1.2-.1.3 0 0 0 .1.1.1h.2c.1 0 .1-.1.1-.2.1-.1.1-.2 0-.3zM512.2 286.9l-.2.1v.1c0 .1.1.1.1.1h.2v-.1l-.1-.2zM508.4 285.2c0-.1 0-.1 0 0 0-.1 0-.1 0 0-.1-.1-.1-.1 0 0-.1 0-.1 0 0 0 0 .1 0 .1 0 0zM509.4 290.7c0-.1 0-.1 0 0 0-.1 0-.1 0 0-.1 0 0 0 0 0zM512.8 289.6c.1-.1.1-.1.2-.1h.1v.2l-.1.1h-.2l-.1.1h-.1l-.1-.1c0-.1-.1-.1-.1-.2v-.1h.1l.3.1zm.3.2s-.1 0 0 0zM511.4 291.2c.1 0 .1 0 0 0 .1-.1.1-.1.1-.2h-.1v.2zM510 288.1v.2c.1 0 .1-.1 0-.2.1.1.1 0 0 0zM513.9 291.2l-.1.2v.1h.2l-.1-.3zM517.1 292.3s0 .1 0 0c0 .1 0 .1 0 0 .1 0 .1 0 0 0zM514.8 287.5h.2V287.2c0-.1-.1-.1-.1-.1 0-.1-.1-.1-.2-.1l-.1.1c-.1.1-.1.1-.1.2.2.1.2.2.3.2zM515.3 284.1s.1-.1 0 0c-.1-.1-.1-.1 0 0-.1 0-.1 0 0 0zM515.8 286.3c-.1 0-.1 0 0 0l-.2-.1-.1.1v.1c0 .1.1.1.3-.1 0 .1 0 .1 0 0zM515.5 287.1c.1.1.1.1.2.1v-.1-.1l-.2.1c.1-.1.1-.1 0 0zM517.3 283.9c.1.1.1.1 0 0 .1-.1.1-.1 0 0 0-.1 0-.1 0 0zM514.2 286.9c.1 0 .1-.2.1-.2 0-.1-.1-.1-.1-.1h-.2c-.1 0-.1.2-.1.2 0 .1.1.1.1.1h.2zM512.3 287.7c.2-.2.1-.3.1-.3h-.2s-.1 0-.1.1v.1c0 .1.1.1.2.1zM511.8 286.5h-.2c-.1 0-.1.1-.1.1v.1s0 .1.1.1H511.9v-.1l-.1-.2zM512.8 288.8c.1 0 .1.1.2 0v-.2c0-.1-.1-.1-.1-.1h-.2c-.1 0-.1.1-.1.2.1 0 .1 0 .2.1zM510 282.3s0-.1 0 0c0-.1 0-.1 0 0 0-.1 0-.1 0 0zM513.7 288.4c-.1 0-.2.1-.2.2v.1l.1.1h.2c.1 0 .1-.1.1-.1v-.2l-.2-.1zM512.7 286.9c.1-.1.1-.2 0-.3h-.2c-.1.1-.1.2-.1.3l.1.1.2-.1zM511.4 293.4s0-.1 0 0c0-.1-.1 0 0 0zM510.1 287c.1-.1.1-.1.1-.2h-.1-.1s0 .1.1.2c-.1.1-.1.1 0 0zM509.7 292.1c.1-.1.1-.1 0 0 .1-.1.1-.1 0 0zM510.9 288.2l-.1.2c0 .1.1.1.3.1l.1-.1v-.1c0-.1 0-.1-.1-.2 0 0-.1 0-.2.1.1-.1 0-.1 0 0zM512.3 290.5c.1.1.1.1 0 0zM511.5 289h-.2c-.1 0-.1.1-.1.1 0 .1 0 .1.1.2h.2c.2-.1.2-.2 0-.3zM509.8 284.8c0-.1 0-.1 0 0-.1-.1-.1-.1 0 0-.1 0-.1 0 0 0-.1 0 0 0 0 0zM511.9 290c-.1.1-.1.1-.1.2h.1v-.2c.1-.1.1-.1 0 0zM512.1 288.7l.1-.2v-.2h-.1-.1c-.1 0-.1.1-.1.2h.1l-.1.1v.1h.2zM508.9 287.1c.1-.1.1-.1 0 0 0-.1 0-.1 0 0 0-.1 0-.1 0 0zM511.4 287.7c0 .2.1.2.1.2h.2l.1-.1v-.1c0-.1-.1-.1-.1-.1-.1 0-.1 0-.3.1zM510.4 286.2c.1 0 .1-.1.1-.2s-.1-.1-.2-.1c0 0 0 .1.1.3-.2-.1-.1 0 0 0zM510.9 287.5l.2.1.1-.1v-.1c0-.1-.1-.1-.1-.1h-.2v.2c-.1 0-.1 0 0 0zM506.4 285.1c-.1-.1-.1-.1 0 0-.1-.1-.1-.1 0 0-.1-.1-.1-.1 0 0-.1 0-.1 0 0 0zM511.2 286.3l.1-.2h-.1v.2c-.1-.1-.1 0 0 0zM511 289.7c.1-.1.1-.2.1-.2h-.1s-.1.1 0 .2c-.1 0-.1 0 0 0zM510 289.9s0 .1 0 0c.1-.1.1-.1.1-.2h-.1-.1l.1.2c-.1-.1-.1 0 0 0zM510.5 288.6l.2-.1v-.1h-.2c-.2.1-.1.1 0 .2zM510.1 287.7v-.2h-.1l-.1.1v.1h.2zM509.8 286.6c.1 0 .2-.1.2-.2l-.1-.1h-.2s-.1 0-.1.1l.2.2zM512.5 285.8l.2.2.1.1h.2l.1.1h.1l.1-.1v-.1l-.1-.1h-.2v-.1c-.1-.1-.2-.1-.3-.1s-.2.1-.2.1zM514.5 288.9v-.2h-.2c-.1 0-.1.1-.1.1v.2c.1.1.2.1.3-.1 0 .1 0 0 0 0zM516.9 289.9c0 .1.1.1 0 0 .1 0 .1 0 0 0zM511.1 285.5c.1-.1.1-.2 0-.2 0 0-.1-.1-.1 0s0 .1.1.2c-.1 0-.1 0 0 0zM511.9 285.2c0 .1.1.1.2 0l.1-.1v-.1h-.1l-.2.2zM518.2 286c0-.1 0-.1 0 0 0-.1-.1 0 0 0zM511.1 283.6c-.1 0-.1 0 0 0-.1.1 0 0 0 0zM513.4 287.5c-.1-.1-.2-.1-.2-.1l-.1.1c-.1.1 0 .2 0 .2s.1.1.2.1h.1v-.3zM511.1 285.1l.2-.1-.2.1c0-.1 0-.1 0 0zM512.8 287.7h-.2c-.1.1-.1.2 0 .2l.1.1c.1.1.2.1.2.1l.1-.1v-.2l-.2-.1c.1.1.1.1 0 0zM511.3 285.7s0 .1 0 0c.2.1.2 0 .2-.1s-.1-.1-.2-.1v.2zM514.2 290.1c0-.1 0-.1 0 0l-.2-.1v.1h-.2l-.1.1s0 .1.1.1H514.1l.1-.2zM513.1 292.5c0 .1 0 .1 0 0-.1 0-.1 0 0 0-.1 0-.1 0 0 0 0 .1 0 .1 0 0zM514.4 290.1h-.1v.2h.2v-.2zM512 286.2h.2v-.2c0-.1 0-.1-.1-.2h-.2c-.1 0-.1.1-.1.1.1.1.1.2.2.3zM513.3 288.3c-.1.2-.1.3-.1.3h.1l.1-.1-.1-.2c.1 0 0 0 0 0zM513 283c0-.1 0-.1 0 0-.1-.1-.1-.1 0 0-.1-.1-.1 0 0 0zM515.7 289.1c.1-.1.1-.2 0-.2 0-.1-.1-.1-.2-.1h-.1l-.1.1v.2h.4zM516.5 287.4l-.1.2c.1-.1.1-.1.1-.2zM515.1 285.8c.1 0 .1-.1.1-.2v-.1h-.1c-.1 0-.1.1-.1.1 0 .1 0 .1.1.2zM515.1 285.3c.1-.1.1-.1.1-.2h-.1-.1l.1.2c-.1 0 0 0 0 0zM516.4 286.4c.1-.1.1-.2 0-.2h-.1l.1.2c-.1 0 0 0 0 0zM514.2 285.8c.2-.1.2-.2.2-.3v-.1h-.1-.2-.1v.2c0 .1.1.1.2.2-.1 0 0 0 0 0zM513.5 284.5c.1 0 .1 0 0 0zM507.3 286.9c.1.1.1.1 0 0 .1 0 .1 0 0 0 .1 0 .1 0 0 0zM517.4 287.8c-.1 0-.2.1-.1.2h.1v-.2c.1.1.1 0 0 0zM513.9 284.7c.1-.2 0-.2 0-.2h-.1l-.1.1c.1 0 .1 0 .2.1zM519.7 286.9c0-.1 0-.1 0 0-.1-.1-.1-.1 0 0-.1 0-.1 0 0 0-.1 0-.1 0 0 0-.1 0 0 0 0 0zM517.8 281.6c-.1 0-.1 0 0 0-.1 0-.1 0 0 0 0 .1 0 0 0 0zM514.2 285.3h.2s0-.1-.2 0c0-.2 0-.1 0 0zM516.9 286.7c0-.1 0-.1 0 0-.2 0-.2 0-.2.1v.1h.1c.2-.1.2-.2.1-.2zM516.5 286s0 .1.2.1h.1-.1v-.2l-.2.1zM515.2 287.9c-.1.2 0 .3 0 .3h.2l.1-.1v-.1c0-.1-.1-.1-.3-.1zM514.5 285.9c-.2 0-.2.1-.2.1v.2l.1.1h.1c.1 0 .1-.1.1-.2.1-.1 0-.1-.1-.2zM516.9 288.7c-.1-.1-.1-.1-.2-.1v.2l.2-.1c-.1.1-.1.1 0 0zM516.1 289.4h-.2s0 .1.2 0c-.1.1-.1.1 0 0 0 .1 0 .1 0 0zM515.1 290l-.1.2h.1v-.2c.1.1.1 0 0 0zM513.6 286.5h-.2c-.1 0-.1.2-.1.2l.1.1h.2l.1-.1c.1-.1 0-.1-.1-.2zM519.7 284.6c.1 0 .1 0 0 0 0-.1 0-.1 0 0 0-.1 0-.1 0 0zM518.1 288.4c0 .1 0 .1 0 0 0 .1.1.1 0 0 .1 0 0 0 0 0zM516.3 288c.1 0 .1 0 0 0l.1-.2c0-.1-.1-.1-.2-.1v.1l.1.2zM518 290.7c0 .1 0 .1 0 0 0 .1 0 .1 0 0 0 .1.1 0 0 0zM516.8 285.2s0-.1 0 0c0-.1-.1-.1 0 0-.1-.1-.1 0 0 0-.1 0-.1 0 0 0z"/><path class="st13" d="M515.6 286.8s.1 0 0 0l.1-.2-.1-.1c-.1 0-.1.1 0 .3-.1 0 0 0 0 0zM515.1 289c-.1.1-.1.2 0 .2h.1l.1-.1c0-.1-.1-.1-.2-.1zM514.1 281.6c0-.1 0-.1 0 0-.1 0-.1 0 0 0zM514 287.3h-.2c-.1 0-.2.2-.1.3l.1.1h.1l.1-.1v-.1c.1-.1.1-.1 0-.2zM512.8 284.5c.1-.1.1-.2.1-.3h-.1c-.1.3-.1.3 0 .3zM520.1 289.6c.1 0 .1 0 0 0 0-.1 0-.1 0 0zM508.5 288.8s.1 0 0 0c.1-.1.1-.1 0 0 0-.1 0-.1 0 0 0-.1 0 0 0 0zM515.6 291s0 .1 0 0c0 .1 0 .1 0 0 .1.1.1.1 0 0 .1 0 0 0 0 0zM514.3 287.7l.1.2h.2c.1 0 .1-.1.1-.2l-.1-.1c-.1-.1-.2 0-.3.1z"/></g></g><path class="st11" d="M520.2 287.9c-.4.1-1.3-1.2-2.6-2.1-1.3-1-2.2-1.6-1.8-2.1.5-.5 2.3-.3 3.5 1.2 1.3 1.4 1.3 3 .9 3zM521.5 289.3c-.1 0-.2-.2-.4-.5-.1-.2-.1-.5.2-.6.3-.1.5.2.5.5-.1.3-.3.6-.3.6z"/></g></g><linearGradient id="SVGID_3_" gradientUnits="userSpaceOnUse" x1="234.883" y1="348.106" x2="434.675" y2="348.106" gradientTransform="rotate(40.226 421.627 389.732)"><stop offset="0" stop-color="#ffc171"/><stop offset="1" stop-color="#e23d66"/></linearGradient><path d="M406.9 427.4C331 363.3 321.6 249.8 385.7 174" opacity=".72" fill="none" stroke="url(#SVGID_3_)" stroke-width="40" stroke-miterlimit="10"/><linearGradient id="SVGID_4_" gradientUnits="userSpaceOnUse" x1="118.906" y1="399.144" x2="457.341" y2="399.144" gradientTransform="rotate(40.226 421.627 389.732)"><stop offset="0" stop-color="#ff7a28"/><stop offset=".206" stop-color="#f86b37"/><stop offset=".72" stop-color="#e84a59"/><stop offset="1" stop-color="#e23d66"/></linearGradient><path d="M342.1 535.5C226.3 412 212.5 222.7 310.2 83.5" opacity=".72" fill="none" stroke="url(#SVGID_4_)" stroke-width="40" stroke-miterlimit="10"/><circle class="st17" cx="230" cy="310.8" r="9.6"/><circle class="st17" cx="362.6" cy="310.8" r="9.6"/><circle class="st17" cx="635.3" cy="310.8" r="9.6"/><path class="st17" d="M136.4 626.1l1.1-313.4M371.8 310.8h75.6M447.4 625.3L446.3 310M644.8 309.5l95.8-.8M741.2 622.4l-.8-313.8M137.5 313.1l81.3-1.5"/><text transform="translate(99.078 655.408)" class="st18 st19 st20">Psychology</text><text transform="translate(384.96 655.408)" class="st18 st19 st20">Conversational UI</text><text transform="translate(666.401 655.408)" class="st18 st19 st20">Artificial Intelligence</text></svg>