<svg version="1.1" id="Calque_1" xmlns="http://www.w3.org/2000/svg" x="0" y="0" viewBox="0 0 942.8 738.1" xml:space="preserve"><style>.st7{fill:#2d275e}.st8{fill:none}.st11{fill:#70728e}.st12{opacity:.29}.st13{fill:#53508f}.st17{fill:none;stroke:#fff;stroke-width:2;stroke-miterlimit:10}.st18{fill:#fff}.st19{font-family:&apos;OpenSans-Light&apos;}.st20{font-size:15.9809px}</style><g opacity=".84"><circle cx="546.9" cy="293.7" r="87.8" fill="#dedefc"/><path d="M532.7 270.5c-.4 21.9-4.9 42.8-8 57.5-3.2 15.1-5.2 23.9-5.2 25.2-.2 1.2.8-5.9-1.6-17.6-2.1-11.7-7.2-27.9-14.7-43.2-7.4-15.7-14.7-27.2-16.9-37.8-2.4-10.5.3-20.1 8.4-27.8 7.9-7.4 18.7-9.7 26.3-2.2 7.8 7.3 12.3 24.2 11.7 45.9z" fill="#ff7473" opacity=".58"/><path d="M496.8 345.4c0 .1.1.1 0 0 .1-.1.1-.3-.1-.4.1.1.1.3.1.4m117.8-18.2s.1-.1 0 0c.1-.2 0-.4-.1-.5 0 .2 0 .3.1.5" fill="#ed9e6e"/><linearGradient id="SVGID_1_" gradientUnits="userSpaceOnUse" x1="582.404" y1="423.04" x2="610.776" y2="423.04" gradientTransform="rotate(-8.824 -260.026 366.828)"><stop offset="0" stop-color="#ff7bac"/><stop offset="1" stop-color="#ff7bac" stop-opacity="0"/></linearGradient><path d="M609.1 288.8c1.2 7.7-4.1 14.9-11.8 16.2-7.7 1.3-14.9-4.1-16.2-11.8-1.3-7.7 4.1-14.9 11.8-16.2 7.8-1.2 15 4.1 16.2 11.8" opacity=".56" fill="url(#SVGID_1_)"/><linearGradient id="SVGID_2_" gradientUnits="userSpaceOnUse" x1="494.748" y1="444.451" x2="523.12" y2="444.451" gradientTransform="rotate(-8.824 -260.026 366.828)"><stop offset="0" stop-color="#ff7bac"/><stop offset="1" stop-color="#ff7bac" stop-opacity="0"/></linearGradient><path d="M525.8 323.4c1.2 7.7-4.1 14.9-11.8 16.2-7.7 1.2-14.9-4.1-16.2-11.8-1.3-7.7 4.1-14.9 11.8-16.2 7.7-1.2 15 4.1 16.2 11.8" opacity=".56" fill="url(#SVGID_2_)"/><g id="boquita"><path class="st7" d="M564.4 335.6c-14.3 5.6-22.7.3-24.2-3.5-.5-1 .1-2.1 1.2-2.6l35.6-14.1c1-.5 2.1.1 2.6 1.2 1.5 3.8-1.2 13.3-15.2 19z"/><path class="st8" d="M572.8 322.2c2.3-.8 4.7-1.4 6.9-1.8 0-1.3-.2-2.2-.7-3-.5-.8-1.7-1.2-2.6-.7L543.8 332c-1 .4-1.4 1.5-.8 2.2.9 1.5 3.3 2.9 7.1 3.5 4.3-6.3 12.4-12.2 22.7-15.5z"/><path d="M550.1 337.8c4.1.6 9.8 0 16.5-3.1 9.9-4.6 13-10.4 13.2-14.3-2.3.4-4.6 1-6.9 1.8-10.4 3.3-18.5 9.2-22.8 15.6z" fill="#eb7c87"/><path class="st8" d="M573.7 318.7c2-.6 3.9-1.1 5.8-1.3.2-1.6.2-3-.1-4-.3-1.1-1.2-1.7-2-1.2l-28.6 15.1c-.8.4-1.4 1.7-1.1 2.8.5 1.9 2.2 4.3 5 5.5 4.7-7.7 12.1-14 21-16.9z"/><path d="M555.9 331.4c3.2 1.4 4.7 6.4 10.7 3.3 8.7-4.6 12.9-9.6 13.2-14.3-1.1-.1-5.2 1.2-7.6 1.2-8.8 4.2-9.6 4-16.3 9.8z" opacity=".54" fill="#843843"/></g><g id="eye_right"><path class="st7" d="M570.6 257.6c-6.3 1-10.6 6.9-9.7 13.3 1 6.3 6.9 10.6 13.3 9.7 6.3-1 10.6-6.9 9.7-13.3-1.1-6.4-7-10.7-13.3-9.7"/><path class="st11" d="M578.5 264.9c-.4.1-1.2-1-2.3-1.8-1.2-.8-2-1.3-1.6-1.7.4-.4 2.1-.3 3.1 1 1.1 1.1 1.1 2.5.8 2.5zm.7 1.4c-.1 0-.2-.2-.3-.4-.1-.2 0-.4.2-.5.2 0 .4.2.3.5 0 .2-.1.4-.2.4z"/><g class="st12"><path transform="rotate(-61.828 576.265 269.062)" class="st8" d="M569.9 262.6h12.6v13h-12.6z"/><path class="st13" d="M577.6 270.9s.1 0 0 0c.1.1.1.1 0 0l.2.1v-.1c-.1-.1-.2-.1-.2 0zm-2.1-3.8h.2v-.2l-.1-.1c-.1-.1-.2 0-.3.1v.1s.1.1.2.1zm-.2-1.2s0 .1 0 0c.1.1.1.1 0 0 .1-.1 0-.1 0 0-.2-.1-.2-.1-.2 0h.2zm5.8-1.2s0 .1 0 0c0 .1 0 .1 0 0 .1 0 .1 0 0 0zm-8.6-2.2c-.1 0-.1 0 0 0-.1 0-.1 0 0 0z"/><path class="st13" d="M575.9 267.4l.2-.1v-.1c0-.1 0-.2-.1-.2h-.1c-.1 0-.1 0-.2.1v.3c.1-.1.2 0 .2 0zm2.2.9l.1-.2-.1-.1h-.2c-.1 0-.1.1-.1.1v.1l.1.1h.2zm4.1-.6c.1 0 .1 0 0 0 .1.1.1 0 0 0 .1-.1 0-.1 0 0 0-.1 0-.1 0 0zm-3.8-4.1s0 .1 0 0c.1.1.1.1 0 0 .1 0 .1 0 0 0 .1 0 .1 0 0 0 .1 0 0 0 0 0zm-2.2 2.9c.1.2 0 .2 0 .2l-.1.1-.1.1h-.2v-.1c0-.1.1-.1.1-.1v-.1l.1-.1h.2s0 .1.1.2v.2l-.1-.4zm-.3-.1zm.6-2l-.1.2v.1s.1 0 .1-.1v-.2zm2.8 1.8v-.2c-.1 0-.1.1 0 .2-.1-.1-.1 0 0 0zm-4.9-.6l.1-.2h-.2l-.1.1v.1h.2zm-1.8-.4c0-.1-.1-.1 0 0-.1-.1-.1-.1 0 0-.1-.1-.1 0 0 0-.1 0-.1 0 0 0zm-1.5 1.2c-.1-.1-.1-.1 0 0-.1 0-.1 0 0 0zm4.4 2.8c-.1.1-.2.1-.2.2v.2l.1.1c.1 0 .1.1.2 0h.2l.1-.1c0-.1 0-.2-.1-.2 0-.1-.1-.2-.3-.2zm1.4 3.1s0 .1 0 0c.1.1.1.1 0 0 .1 0 .1 0 0 0zm-1.5-1.5c.1 0 .1 0 0 0h.2v-.1s0-.1-.1-.1h-.2l.1.2zm-.2-.8l-.1.2v.1h.2v-.1l-.1-.2c.1 0 0 0 0 0zm.3 3.6c-.1 0-.1 0 0 0-.1.1 0 .1 0 0zm1-4.2c0 .1 0 .2.1.3.1 0 .1.1.2 0h.1c0-.1 0-.2-.1-.2s-.1-.1-.3-.1c.1-.1.1 0 0 0zm1.1-1.8c-.1.2 0 .3 0 .3h.1l.1-.1v-.1l-.2-.1c.2 0 .1 0 0 0zm1.1.9l.1-.2v-.1s-.1-.1-.2 0c0 0-.1 0-.1.1 0 0-.1 0-.1.1v.1l.1.1.2-.1zm-2-1.5c-.1 0-.1 0-.2.1v.2h.2c.1 0 .1 0 .1-.1s0-.1-.1-.2c.1 0 .1 0 0 0zm5.7 4c0 .1 0 .1 0 0 .1.1.1.1 0 0 .1 0 .1 0 0 0 0-.1 0 0 0 0zm-6.3-3.2c.1-.1.1-.2.1-.3l-.1-.1h-.1c-.1 0-.1.1-.1.1v.2c0 .1.1.1.2.1zm1.6.8c0 .1 0 .2.1.3h.1c.1 0 .1 0 .1-.1.1-.1 0-.2-.1-.3l-.2.1zm2.1-1.5v.3h.2c0-.1 0-.1-.2-.3.1-.1.1-.1 0 0zm-2.4-4.6c0 .1 0 .1 0 0 0 .1 0 .1 0 0 .1 0 0 0 0 0zm1.1 4.1l-.1-.2c-.1 0-.2-.1-.3.1v.2c0 .1.1.1.2.1.1-.1.1-.2.2-.2zm-2.3-1.2h-.2c0-.1.1 0 .2 0zm1.3.9c.1-.1.1-.1.2-.1v-.2c0-.1-.1-.1-.2-.1h-.1l-.1.1c-.1.1 0 .2.2.3zm3.8 2.5c.1-.1.1-.1 0 0 0-.1 0 0 0 0zm-4.5-3.2v-.2.2c-.1.1-.1.1 0 0zm.4 1.1l.1.2h.2v-.1c0-.1 0-.2-.1-.2l-.2.1.2-.1-.2.1zm3.7-.2c0 .1 0 .1 0 0 0 .1 0 0 0 0 .1 0 .1 0 0 0zm-2.6.6c-.1-.1-.2-.1-.2-.1-.1 0-.1.1-.1.1v.1l.1.1c.1 0 .1.1.2 0 .1 0 .1-.1 0-.2zm1.8.9v.2c.1 0 .1.1.2 0 0-.1 0-.1-.2-.2.1-.1.1-.1 0 0zm-1.2-1l-.2.1v.1l.1.1h.2c.1 0 .1-.1.1-.1v-.2c-.1.1-.1 0-.2 0zm5.1-.4c0 .1 0 .1 0 0 0 .1 0 .1 0 0 0 .1 0 .1 0 0 .1.1.1.1 0 0 .1 0 .1 0 0 0zm-4.7 1.7c.2 0 .1 0 0 0zm-1.7-2.9c-.1.2 0 .2 0 .2s.1 0 0-.2c.1.1.1 0 0 0 .1-.1 0-.1 0 0zm.7-.8l-.1.2v.1h.3v-.2l-.2-.1zm.3 1.4l-.1.2.1.1c.1 0 .1 0 .1-.1.1-.2.1-.2-.1-.2zm.8.6c0 .1 0 .1.1.2h.1v-.1c0-.1 0-.1-.2-.1.1-.1.1-.1 0 0zm1 .7c-.1.1-.1.2 0 .3h.2v-.1c-.1-.2-.1-.2-.2-.2zm-2 2.1l-.2-.1h-.1l-.1.1-.1.1h-.1l-.1.1v.1l.1.1h.1l.1-.1h.2c.1 0 .2 0 .2-.1.1 0 .1-.1 0-.2zm-3.3-1.5c0 .1.1.1 0 0 .2.1.2 0 .2 0v-.2c0-.1-.1-.1-.1-.1-.1 0-.2 0-.2.1s0 .2.1.2zm-2.5.4c-.1-.1-.1-.1 0 0-.1.1-.1.1 0 0zm7.2.6c0 .1 0 .2.1.2h.1c0-.1-.1-.1-.2-.2.1 0 .1 0 0 0zm-.5.7c-.1 0-.1 0-.2.1v.1h.1s.1 0 .1-.2zm-5.8 2.7c0 .1.1.1 0 0 .1 0 .1 0 0 0 .1 0 .1 0 0 0 .1 0 .1 0 0 0zm7.3-1.8s0 .1 0 0c.1 0 .1 0 0 0 .1 0 .1 0 0 0zm-3.9-2c.1 0 .2 0 .2-.1v-.1c0-.1-.1-.2-.1-.2h-.2c0 .2 0 .3.1.4zm3.1.8c-.1 0-.1.1-.1.2h.1v-.2c0 .1 0 .1 0 0zm-2.9-1.4s.1 0 .2-.1c0-.1 0-.2-.1-.2h-.1c-.1-.1-.2 0-.2 0l-.1.1v.2s0 .1.1.1l.2-.1c-.1 0-.1 0 0 0zm2.4 1s0-.1 0 0c-.1 0-.1 0 0 0 0 .1 0 .1 0 0zm-4.9-2.2c.1.1.1.1 0 0 .1.1.2.1.2.1s.1 0 .1-.1v-.1h.1s.1 0 .1-.1v-.1s0-.1-.1-.1c0 0-.1 0-.1.1h-.1v.1l-.2.2zm-.3-2.7c0 .1 0 .1 0 0 0 .1 0 .1 0 0 .1 0 .1 0 0 0 .1 0 .1 0 0 0zm.2 2.8h.1v-.1l-.1-.1h-.2v.1l.1.1zm4.2 2.1c-.1 0-.1 0 0 0l-.1.2v.1c0 .1.1.1.2.1s.1 0 .2-.1v-.2c-.2-.1-.2-.1-.3-.1z"/><path class="st13" d="M576.5 267.7c.1-.2 0-.3-.1-.3h-.1l-.1.1v.1l.1.1h.2zm3.1 4.3c.1.1.1.1 0 0 .1.1.1.1 0 0 .1 0 .1 0 0 0 .1 0 .1 0 0 0zm-5.6-3.6c.1.1.2.1.3.1 0 0 .1 0 .1-.1v-.1h-.1c0-.1 0-.1-.1-.1h-.2v.2zm3.8 3.7c0 .1 0 .1 0 0 0 .1 0 .1 0 0 .1.1.1.1 0 0 .1.1.1.1 0 0 .1 0 .1 0 0 0 .1 0 0 0 0 0zm-1.5-1.3c-.1.1 0 .2 0 .2h.3v-.1c-.1-.1-.2-.1-.3-.1zm.2.4l.2.1h.1s0-.1-.1-.1h-.2zm-1.7-.2c0 .1.1.2 0 0 .1.1.2.1.2 0v-.1l-.2.1c.1 0 .1 0 0 0zm2.2-.6c-.1.2-.1.3 0 .3h.2s.1 0 .2-.1v-.3s-.1-.1-.2-.1l-.2.2zm1.3.6s-.1 0 0 0zm3.9-5.2c0-.1 0-.1 0 0-.1-.1-.1-.1 0 0-.1 0-.1 0 0 0zm-9 4.6c.1-.1.1-.1 0-.2h-.2v.1c.1.1.1.1.2.1zm4.7.6c0 .1.1.1 0 0 .1.1.1 0 0 0zm-6 1.4c0 .1 0 .1 0 0 .1 0 .1 0 0 0 .1 0 .1 0 0 0 .1-.1 0-.1 0 0 0-.1 0 0 0 0zm4.4 3.4c.1-.1.1-.1 0 0 .1-.1.1-.1 0 0 0-.1 0 0 0 0zm.9-5c0 .1.1.1 0 0 .1.1.1 0 0 0zm-2.9.3c.1.1.1 0 0 0 .1-.1.1-.1.1-.2l-.1-.1h-.2c0 .2.1.3.2.3zm.7.3s-.1-.1-.2 0v.1l.2-.1v.2-.2zm0-2.3c0-.2-.2-.3-.2-.3h-.1l-.1.1v.1l.1.1c.1.1.2.1.3 0zm1.7 1.4c.1-.2.1-.2.1-.3 0 0 0-.1-.1-.1h-.1l-.1.1v.2c0 .1.1.1.2.1zm-3.5-1.2l.1-.2v-.1h-.2v.1l.1.2zm.3-1c.1 0 .1 0 0 0-.2-.1-.1 0 0 0zm.5-1c.1-.2 0-.2 0-.2h-.1l.1.2c-.2 0-.2 0 0 0zm3.2 2.1c.1 0 .1-.1.2-.1 0-.1 0-.2-.1-.2h-.1c-.1 0-.1 0-.2.1v.1c0 .1 0 .1.2.1zm-4.3 4.9c0 .1 0 .1 0 0 0 .1 0 .1 0 0 .1.1.1.1 0 0 .1.1.1.1 0 0 .1.1.1.1 0 0 .1.1.1.1 0 0zm-.5-4.1c-.1-.1-.1-.1 0 0-.1.1 0 0 0 0zm1.6-.6c-.1 0-.1.1 0 0-.1.1-.1.1 0 .2h.2v-.1l-.2-.1c.1 0 .1 0 0 0zm1.2 2.6s0 .1 0 0c.1.1.1 0 0 0 .1 0 .1 0 0 0 .1 0 .1 0 0 0zm.1-1.9s0 .1 0 0l.2.1v-.2l-.2.1c.1 0 0 0 0 0z"/><path class="st13" d="M574.5 268.1c-.1-.1-.2-.1-.2 0v.1s.1 0 .2-.1zm2 .9l.2-.1c0-.1 0-.2-.1-.3h-.1l-.1.1v.1l.1.2c-.2-.1-.1-.1 0 0zm2.4 1.7c0 .1 0 .2.1.2l-.1-.2c.1-.1 0-.1 0 0zm-9-.3c.1 0 .1 0 0 0 .1 0 .1 0 0 0 .1 0 .1-.1 0 0 .1-.1.1-.1 0 0zm10.3-5.6c0 .1 0 .1 0 0 .1 0 .1 0 0 0 .1 0 .1 0 0 0zm-7.2 1.9c0-.1 0 0 0 0-.1 0-.1 0 0 0-.1-.1-.2-.1-.2 0 .2.1.2 0 .2 0zm2.9 2.1c0-.1 0-.1 0 0l-.2-.1-.1.1v.2h.1c.1 0 .2-.1.2-.2z"/><path transform="rotate(-64.793 575.206 268.165)" class="st8" d="M568.9 261.7h12.6v13h-12.6z"/><path class="st13" d="M573.7 266.4c0-.1 0-.1 0 0-.1-.1-.1-.1 0 0h-.2v.1l.2-.1zm2.4 3.7h-.2v.2l.1.1c.1.1.2 0 .3-.1v-.1c0-.1-.1-.1-.2-.1zm.3 1.1s0-.1 0 0c-.1-.1-.1-.1 0 0-.1.1 0 .1 0 0 .2.1.2.1.2 0h-.2zm-5.8 1.5c-.1 0-.1 0 0 0-.1 0-.1.1 0 0 0 .1 0 .1 0 0zm8.8 1.8c0 .1 0 .1 0 0 0 .1.1.1 0 0z"/><path class="st13" d="M575.7 269.8l-.2.1v.1c0 .1 0 .2.1.2h.1c.1 0 .1 0 .2-.1v-.3h-.2zm-2.3-.8l-.1.2.1.1h.2c.1 0 .1-.1.1-.1v-.1l-.1-.1h-.2zm-4.1.9c0-.1 0-.1 0 0-.1-.1-.1-.1 0 0-.1 0-.1 0 0 0zm4 3.8s0-.1 0 0c-.1-.1-.1-.1 0 0-.1 0-.1 0 0 0-.1 0-.1 0 0 0zm2.2-2.9c-.1-.2 0-.2 0-.2l.1-.1.1-.1h.2v.1c0 .1-.1.1-.1.1v.1l-.1.1h-.2s0-.1-.1-.2v-.2l.1.4zm.3 0zm-.5 2l.1-.2v-.1s-.1 0-.1.1v.2zm-2.9-1.6l.1.2c0-.1 0-.1-.1-.2.1 0 .1 0 0 0zm4.8.3l-.1.2h.2l.1-.1v-.1h-.2zm2 .3c0 .1 0 .1 0 0 .1.1.1.1 0 0zm1.4-1.2s0 .1 0 0c0 .1.1.1 0 0zm-4.6-2.7c.1 0 .1 0 0 0 .1-.1.2-.1.2-.2v-.2l-.1-.1h-.4l-.1.1c0 .1 0 .2.1.2 0 .2.1.3.3.2zm-1.7-3s0-.1 0 0c-.1-.1-.1-.1 0 0-.1 0-.1 0 0 0zm1.7 1.5c-.1 0-.1 0 0 0h-.2v.1s0 .1.1.1.1 0 .1-.2c.1.1.1.1 0 0zm.2.8l.1-.2h-.2l.1.2c0-.1 0-.1 0 0zm-.4-3.6c.1 0 .1 0 0 0 0-.1 0-.1 0 0 0-.1 0-.1 0 0zm-.8 4.2c0-.1 0-.2-.1-.2h-.3c0 .1 0 .2.1.2h.3c-.1.1-.1 0 0 0zm-1.1 1.8c0-.2-.1-.3-.1-.3h-.1l-.1.1v.1l.1.1c0 .1.1.1.2 0zm-1.2-.8l-.1.2v.1s.1.1.2 0c0 0 .1 0 .1-.1l.1-.1v-.1l-.1-.1-.2.1zm2.3 1.4c.1 0 .1 0 .2-.1v-.1l-.1-.1h-.2c-.1 0-.1.1-.1.1v.2h.2zm-6.1-3.7c-.1-.1-.1 0 0 0 0 .1 0 0 0 0zm6.6 2.9c-.1.1-.1.2-.1.3l.1.1h.1c.1 0 .1-.1.1-.1v-.2c0-.1-.1-.1-.2-.1zm-1.7-.8c0-.1 0-.2-.1-.3h-.1c-.1 0-.1.1-.1.1 0 .1 0 .2.1.3l.2-.1zm2.8 6.1c-.1 0-.1.1 0 0 0 .1 0 0 0 0zm-4.8-4.4v-.2h-.2c0 .1 0 .1.2.2-.1.1 0 .1 0 0zm2.6 4.4c0-.1 0-.1 0 0-.1 0-.1.1 0 0zm-1.3-3.9l.1.2c.1 0 .2 0 .3-.1v-.2c0-.1-.1-.1-.2-.1s-.2.1-.2.2c0-.1 0 0 0 0zm2.4 1zm-1.5-.8c-.1.1-.1.1 0 0-.1.2-.1.2-.1.3s.1.1.2.1h.1l.1-.1c.1-.1 0-.2-.1-.3h-.2zm.9.6v.2h.1l-.1-.2c.1-.1.1-.1 0 0zm-.6-1l-.1-.2h-.2v.1c0 .1 0 .2.1.2l.2-.1zm-3.5.4c0-.1 0-.1 0 0-.1-.1-.1-.1 0 0-.1-.1-.1 0 0 0-.1 0-.1 0 0 0zm2.5-.8c.1.1.2.1.2.1.1 0 .1-.1.1-.1v-.1l-.1-.1c-.1 0-.1-.1-.2 0-.1 0-.1.1 0 .2zm-1.8-.8v-.2h-.2c0 .1 0 .1.2.2-.1.1-.1.1 0 0zm1.2.9l.2-.1v-.1l-.1-.1h-.2c-.1 0-.1.1-.1.1v.2c.1-.1.1 0 .2 0zm-5 .6c0-.1 0-.1 0 0 0-.1 0-.1 0 0-.1-.1-.1-.1 0 0-.1-.1-.1-.1 0 0-.1 0-.1 0 0 0zm4.6-1.8c-.2 0-.2 0 0 0zm1.7 2.8c.1-.2 0-.2 0-.2s-.1 0 0 .2c-.1 0-.1 0 0 0-.1 0 0 0 0 0zm-.7.8s.1 0 0 0l.1-.2h-.2l.1.2zm-.4-1.4c.1-.1.1-.2.1-.2l-.1-.1c-.1 0-.1 0-.1.1 0 .2 0 .2.1.2zm-.7-.5c-.1 0-.1 0 0 0l-.2-.1v.1s0 .1.2 0c-.1.1 0 0 0 0zm-.9-.7c.1-.1.1-.2 0-.3h-.2v.1c0 .2 0 .2.2.2zm1.7-2.2h.3l.1-.1.1-.1h.1l.1-.1v-.1l-.1-.1h-.1l-.1.1h-.2c-.1 0-.2 0-.2.1-.1.2-.1.2 0 .3zm3.5 1.3c0-.1-.1-.1 0 0-.2-.1-.2 0-.2 0v.2c0 .1.1.1.1.1.1 0 .2 0 .2-.1-.1 0-.1-.1-.1-.2zm2.5-.5c.1.1.1.1 0 0 0-.1 0-.1 0 0zm-7.3-.2c0-.1 0-.1 0 0 0-.1 0-.2-.1-.2h-.1c0 .1.1.1.2.2-.1 0 0 0 0 0zm.5-.8c.1 0 .1 0 .2-.1v-.1h-.1s-.1 0-.1.2zm5.5-2.9c0-.1 0-.1 0 0-.1-.1-.1-.1 0 0-.1-.1-.1 0 0 0-.1 0 0 0 0 0zm-7.1 2.1c-.1.1 0 .1 0 0 0 .1 0 0 0 0zm4 1.8c-.1 0-.2 0-.2.1v.1c0 .1.1.1.1.2h.2v-.1c.1-.1.1-.2-.1-.3zm-3.1-.6c.1-.1.1-.1.1-.2h-.1v.2c0-.1 0-.1 0 0zm2.9 1.3s-.1 0-.2.1c0 .1 0 .2.1.2h.3l.1-.1v-.2s0-.1-.1-.1l-.2.1c.1 0 0-.1 0 0zm-2.4-.9s.1 0 0 0c.1 0 .1 0 0 0-.1-.1-.1-.1-.2 0h.2zm4.9 1.9c0-.1 0-.1 0 0-.1-.1-.2-.1-.2-.1s-.1 0-.1.1v.1h-.1s-.1 0-.1.1v.1l.1.1s.1 0 .1-.1h.1v-.1l.2-.2zm.5 2.7c0-.1 0-.1 0 0 0-.1 0-.1 0 0-.1 0-.1 0 0 0-.1 0-.1 0 0 0-.1 0 0 0 0 0zm-.4-2.8v.2h.2v-.2h-.1zm-4.2-1.8c.1 0 .1-.1 0 0l.1-.2v-.1c0-.1-.1-.1-.2-.1s-.1 0-.2.1v.2c.2 0 .2.1.3.1z"/><path class="st13" d="M575.1 269.5c-.1.2 0 .2.1.3h.1l.1-.1v-.1l-.1-.1h-.2zm-3.4-4.2c-.1-.1-.1 0 0 0-.1 0-.1 0 0 0-.1.1-.1.1 0 0zm5.8 3.4c-.2-.1-.2-.1-.3 0 0 0-.1 0-.1.1v.1h.1c0 .1 0 .1.1.1h.1v-.1l.1-.2zm-4.1-3.5c0-.1 0-.1 0 0 0-.1 0-.1 0 0 0-.1 0-.1 0 0-.1-.1-.1-.1 0 0-.1 0 0 0 0 0zm1.7 1.2c.1-.1 0-.2 0-.2h-.3v.1c.2.1.2.1.3.1zm-.2-.4l-.2-.1h-.1s0 .1.1.1h.2zm1.7.1c-.1-.1-.2-.1-.2 0v.1l.2-.1c-.1.1-.1.1 0 0zm-2.3.8c.1-.2.1-.3 0-.3h-.2s-.1 0-.2.1v.3s.1.1.2 0l.2-.1zm-1.3-.6s.1 0 0 0zm-3.6 5.4c0 .1 0 .1 0 0 .1.1.1.1 0 0 .1 0 .1 0 0 0zm8.7-5.1c-.1.1-.1.2 0 .2h.1l.1-.1v-.1c0 .1 0 0-.2 0zm-4.6-.3c0-.1 0-.1 0 0 0-.1-.1-.1 0 0-.1.1-.1.1 0 0-.2-.1-.2 0 0 0zm6-1.8c-.1 0-.1 0 0 0-.1 0-.1 0 0 0-.1 0-.1 0 0 0-.1.1-.1.1 0 0 0 .1 0 .1 0 0zm-4.6-3.1c-.1.1-.1.1 0 0-.1.1-.1.1 0 0zm-.8 5.1c0-.1-.1-.1 0 0-.1-.1-.1-.1 0 0zm2.9-.5c-.1-.1-.1 0 0 0-.1.1-.1.1-.1.2h.3c0-.1-.1-.2-.2-.2zm-.6-.2s.1.1.2 0v-.2h-.2v-.1.3zm.1 2.2c0 .2.2.2.2.2h.1v-.2l-.1-.1s-.1 0-.2.1zm-1.8-1.3c-.1.1-.1.2-.1.3l.1.1h.1l.1-.1v-.2c0-.1-.1-.1-.2-.1zm3.5 1l-.1.2h.2l-.1-.2zm-.2 1.1c-.1 0-.1 0 0 0s.1 0 0 0zm-.5 1c-.1.2 0 .2 0 .2h.1l-.1-.2c.2 0 .2-.1 0 0zm-3.3-2c-.1 0-.1.1-.2.1 0 .1 0 .2.1.2h.1c.1 0 .1 0 .2-.1v-.1c0-.1 0-.1-.2-.1zm4-5.1s0-.1 0 0c0-.1 0-.1 0 0-.1-.1-.1 0 0 0-.1 0 0 0 0 0s-.1 0 0 0zm.9 4.1c.1.1.1.1 0 0 0-.1 0-.1 0 0zm-1.8.7c.1-.1.1-.1 0 0 .1-.1.1-.1 0-.2-.1 0-.1 0-.2.1v.1h.2zm3 1.2c0 .1 0 .1 0 0 .1.1.1.1 0 0 .1 0 .1 0 0 0zm-4.1-3.7c0-.1-.1-.1 0 0-.1-.1-.1-.1 0 0-.1-.1-.1 0 0 0-.1 0-.1 0 0 0zm-.1 1.8s.1 0 0 0l-.2-.1c0 .1 0 .1.2.1 0 .1 0 .1 0 0zm-2.3-4.2c-.1.1-.1.1 0 0-.1.1 0 .1 0 0z"/><path class="st13" d="M577 269c.1.1.2.1.2 0v-.1c-.1 0-.1 0-.2.1zm-2-.7l-.2.1c0 .1 0 .2.1.3h.1l.1-.1v-.1l-.1-.2c.2 0 .1 0 0 0zm-2.4-1.6c0-.1 0-.2-.1-.2l.1.2c-.2 0-.1 0 0 0zm5.9 3.6c0 .1.1.1 0 0 .1 0 .1 0 0 0h.2c-.1-.1-.2 0-.2 0zm-2.9-1.9s0 .1 0 0l.2.1.1-.1v-.2h-.1c-.1 0-.2.1-.2.2z"/><path transform="rotate(-17.936 574.259 267.395)" class="st8" d="M568 260.9h12.6v13H568z"/><path class="st13" d="M574.6 265c-.1 0-.1 0 0 0 0-.1 0-.1 0 0v-.2.2c-.1 0-.1.1 0 0zm-1.2 4.3c-.2-.1-.2 0-.2 0v.1c0 .1.2.2.3.1l.1-.1c-.1 0-.1-.1-.2-.1zm-.7 1v-.2h-.1c.1.1.1.1.1.2 0 0 0 .1 0 0zm-.2 4.4c-.1.1-.1.1 0 0 0 .1 0 .1 0 0 0 .1 0 0 0 0zm.8-6l-.2-.1c-.1 0-.1.1-.1.1-.1 0-.1.1-.1.2 0 0 0 .1.1.1 0 0 .1.1.2 0 .1 0 .1-.1.1-.1.1 0 .1-.1 0-.2zm-.8-2.1l-.2.1v.1c0 .1 0 .1.1.1h.2l.1-.1v-.1l-.2-.1zm-3.5-2.4c0-.1 0-.1 0 0-.1-.1-.1-.1 0 0-.1 0-.1 0 0 0-.1 0-.1 0 0 0zm-.2 5.6c0-.1 0-.1 0 0 0-.1 0-.1 0 0zm3.7-.5c.1-.1.1-.1.2-.1h.1v.2l-.1.1h-.4l-.1-.1c0-.1-.1-.1 0-.2h.1l.2.1zm.2.2zm-1.9 1.1c.1 0 .1 0 0 0 .1-.1.1-.1.1-.2h-.1v.2zm-.7-3.3l-.1.2c.1 0 .1-.1.1-.2 0 .1 0 .1 0 0zm3 3.7c-.1 0-.1 0 0 0l-.1.2h.2l-.1-.2zm1.1 1.7c0 .1 0 .1 0 0 .1.1.1.1 0 0 0 .1 0 0 0 0zm2 .2c-.1 0-.1 0 0 0-.1 0-.1.1 0 0zm-1.3-5.2c.1 0 .1 0 0 0 .1 0 .2.1.2 0l.1-.1v-.2c0-.1 0-.1-.1-.1 0-.1-.1-.1-.2-.1h-.1c-.1 0-.1.1-.1.2s.1.2.2.3zm1.1-3.3c0-.1 0-.1 0 0zm.1 2.2c-.1 0-.1 0 0 0-.1-.1-.2-.1-.2 0v.1c0 .1.1.1.2.1v-.2c0 .1 0 .1 0 0zm-.5.8c.1.1.1.1 0 0l.2.1v-.3h-.2v.2c0-.1 0-.1 0 0zm2.3-2.8c0 .1.1.1 0 0 .1 0 .1 0 0 0zm-3.6 2.3c.1 0 .1-.1.1-.2s0-.1-.1-.1h-.2c-.1 0-.1.1-.1.2s0 .1.1.1h.2zm-2 .5c.2-.1.1-.2.1-.2l-.1-.1h-.1s-.1 0-.1.1v.1s.1.1.2.1zm-.2-1.4c-.2 0-.2.1-.2.1v.1s0 .1.1.2h.3l.1-.1v-.1l-.3-.2zm.5 2.5c0 .1.1.1.2.1l.1-.1v-.1c0-.1-.1-.1-.1-.2h-.2c-.1 0-.1.1-.1.1 0 .1 0 .2.1.2zm-1.4-6.9c0-.1 0-.1 0 0-.1 0-.1 0 0 0-.1.1 0 0 0 0zm2.3 6.7c-.1 0-.2.1-.2.2v.1l.1.1h.2c.1 0 .1-.1.1-.1v-.2l-.2-.1zm-.6-1.7c.1-.1.1-.2.1-.3v-.1h-.2c-.1 0-.2.2-.1.3l.2.1zm-2.5 6.2c0-.1 0-.1 0 0-.1-.1-.1-.1 0 0zm-.1-6.5c.1-.1.1-.1.1-.2h-.2c-.1 0-.1.1-.1.2h.2zm-1.5 4.8s.1 0 0 0c.1 0 .1 0 0 0 .1 0 .1 0 0 0zm2.1-3.5l-.1.2c0 .1.1.2.3.1l.1-.1v-.3c-.1 0-.2 0-.3.1.1-.1 0-.1 0 0zm.9 2.5c.1.1.1.1 0 0zm-.4-1.7h-.2c-.1 0-.1.1-.1.1v.2h.2c.1 0 .2-.1.1-.3zm-1-4.4s0-.1 0 0c0-.1 0-.1 0 0-.1 0-.1 0 0 0-.1 0 0 0 0 0zm1.1 5.5c-.1.1-.1.1 0 0-.1.1-.1.1 0 0 0 .1.1.1 0 0 .1 0 .1 0 0 0zm.4-1.2l.1-.2v-.1l-.1-.1h-.1c-.1 0-.1.1-.1.2h.1-.1v.1l.2.1zm-2.8-2.2c.1-.1 0-.1 0 0 0-.1 0-.1 0 0-.1-.1-.1-.1 0 0-.1-.1-.1 0 0 0zm2.4 1.1c0 .2 0 .2.1.2h.2l.1-.1v-.1c0-.1 0-.1-.1-.2h-.2l-.1.2zm-.7-1.7c.1 0 .1-.1.1-.2s-.1-.1-.1-.1l-.1.1c-.1.1 0 .2.1.2zm.2 1.4l.2.1h.1l.1-.1v-.1c0-.1-.1-.1-.1-.2h-.3c-.1.1-.1.2 0 .3zm-3.9-3.2c0-.1 0-.1 0 0 0-.1 0-.1 0 0 0-.1 0-.1 0 0-.1-.1-.1-.1 0 0-.1-.1-.1-.1 0 0-.1 0-.1 0 0 0zm4.4 2.1l.1-.2h-.1s-.1 0 0 .2c-.1-.1-.1-.1 0 0zm-.8 3.3c.2-.1.2-.1.2-.2h-.1c-.1 0-.1.1-.1.2-.1-.1-.1 0 0 0zm-1.1 0c.1-.1.1-.1.1-.2v-.1h-.2v.1c0 .1 0 .1.1.2zm.8-1.3c.2 0 .2-.1.2-.1v-.1s-.1-.1-.2 0-.1.2 0 .2zm-.2-.9v-.2h-.1s-.1 0-.1.1v.1h.2zm-.1-1.1c.1 0 .2-.1.2-.2v-.1h-.2s-.1 0-.1.1 0 .1.1.2zm2.8-.2c0 .1 0 .2.1.2l.1.1h.2l.1.1h.1l.1-.1v-.1l-.1-.1h-.2v-.1c0-.1-.1-.1-.2-.1-.2 0-.2 0-.2.1zm1.4 3.4v-.2h-.2c-.1 0-.1.1-.1.1v.2c0 .1.1.1.2.1 0-.1.1-.2.1-.2zm-2.7-4c0-.1 0-.1 0 0 .1-.1.1-.1.1-.2s-.1-.1-.1-.1v.3c-.1 0 0 0 0 0zm.9-.2c0 .1.1.1.2.1s.1-.1.1-.1v-.1h-.1l-.2.1zm5.9 2c.1-.1 0-.1 0 0 0-.1-.1-.1 0 0zm-6.4-3.7c-.1 0-.1 0 0 0-.1.1 0 .1 0 0zm1.4 4.2c0-.1-.1-.1-.2-.1l-.1.1c-.1.1-.1.2 0 .2 0 0 .1.1.2.1h.1v-.3zm-1.6-2.7c.2 0 .2-.1.2-.1l-.2.1c-.1-.1-.1-.1 0 0zm1 2.9s-.1-.1-.2 0-.1.2-.1.2l.1.1c0 .1.1.1.2.1l.1-.1v-.1l-.1-.2c0 .1 0 0 0 0zm-1-2.3s0 .1 0 0c.1.1.1 0 0 0 .1-.2 0-.2-.1-.2l.1.2zm2 4.9c0-.1 0-.1 0 0l-.1-.2h-.2s-.1 0-.1.1v.1h.4c0 .1 0 0 0 0zm-1.6 2.2c0-.1 0-.1 0 0 0-.1 0-.1 0 0-.1-.1-.1-.1 0 0-.1-.1-.1 0 0 0-.1 0-.1 0 0 0zm1.7-2.2v.1h-.1v.2h.2v-.2zm-1.5-4.3h.3v-.1c0-.1 0-.1-.1-.2-.1 0-.1-.1-.2 0-.1 0-.1.1-.1.1s0 .1.1.2zm.7 2.3c-.2.2-.2.3-.1.3l.1.1h.1v-.1c.1-.2 0-.2-.1-.3zm.8-5.3c0-.1 0-.1 0 0 0-.1-.1-.1 0 0-.1-.1-.1-.1 0 0-.1 0-.1 0 0 0zm1.5 6.6c.1-.1.1-.2 0-.2 0-.1-.1-.1-.2-.1h-.1s-.1 0-.1.1v.1s-.1.1 0 .1v.1h.2l.2-.1zm-.2-5.4c0-.1 0-.1 0 0 0-.1 0-.1 0 0 .1-.1.1-.1 0 0 0-.1 0-.1 0 0 0-.1 0-.1 0 0zm1.4 3.8l-.1.2v.1c.1 0 .1-.1.1-.1v-.2zm-1.1-1.7c.1 0 .1-.1 0 0l.1-.2h-.1c-.1 0-.1.1 0 .2-.1-.2-.1-.1 0 0zm.1-.5c.1-.1.1-.1.1-.2v-.1h-.2v.1c0 .2.1.2.1.2zm1.1 1.2l.1-.2h-.2l.1.2c-.1 0-.1 0 0 0zm-2.1-.9c.2 0 .2-.1.2-.2v-.1h-.1s-.1-.1-.2 0h-.1l-.1.1v.1c0 .1 0 .1.1.1h.2zm-.5-1.4s.1 0 0 0zm-6.4 1.1c-.1 0-.1 0 0 0 0 .1 0 .1 0 0zm9.6 2.8c-.1 0-.2 0-.1.2h.1s.1 0 0-.2c.1.2.1.1 0 0zm-2.8-3.7c.1-.1.1-.1 0 0-.1-.1-.2-.1-.2 0 .1-.1.1 0 .2 0zm5.3 3.2c-.1-.1-.1-.1 0 0-.1-.1-.1 0 0 0-.1.1 0 .1 0 0zm-.9-5.4c-.1 0-.1 0 0 0-.1 0-.1 0 0 0zm-4.2 2.9l.2.1s0-.1-.2-.1c.1-.2 0-.1 0 0zm2.3 1.8c0-.1 0-.1 0 0-.1-.1-.2 0-.2 0v.1l.2-.1c.1.1.1 0 0 0z"/><path class="st13" d="M576.8 266.6l.2.1v-.3h-.1l-.1.2zm-1.6 1.5c-.2.2-.1.3-.1.4h.3l.1-.1v-.1c0-.1-.1-.1-.1-.2h-.2zm-.3-2c-.2 0-.2.1-.2.1v.2l.1.1h.1c.1 0 .1-.1.1-.1 0-.2 0-.3-.1-.3zm1.7 3.1c-.1-.1-.1-.1 0 0l-.2-.1v.2l.2-.1c-.1.1-.1.1 0 0 0 .1 0 .1 0 0zm-.9.6h-.2c0 .1 0 .1.2 0-.1.1 0 .1 0 0 .1.1.1.1 0 0zm-1 .4c-.1.1-.1.1 0 0-.1.1-.1.2 0 0 .1.1.1 0 0 0zm-1-3.7h-.2c-.1 0-.1.1-.1.2l.1.1c.1.1.1.1.2.1l.1-.1c.1-.1.1-.1.1-.2l-.2-.1zm6.6-.7c.1-.1.1-.1 0 0-.1-.1-.1-.1 0 0-.1 0-.1 0 0 0-.1 0-.1 0 0 0zm-2.5 3.4c0 .1 0 .1 0 0 0 .1 0 .1 0 0 .1 0 0 0 0 0zm-1.6-.7c.1 0 .1 0 0 0 .1-.2 0-.2-.1-.2l.1.2c-.1-.1-.1-.1 0 0zm1 2.8c0 .1 0 .1 0 0 0 .1.1.1 0 0 .1.1.1.1 0 0 .1.1 0 0 0 0zm0-5.5c0-.1-.1-.1 0 0-.1-.1-.1-.1 0 0-.1 0-.1 0 0 0zm-1.4 1.2l.1-.2s0-.1-.1-.1-.1.1 0 .3c-.1.1 0 .1 0 0zm-.9 2.2c-.1.1-.1.2 0 .2h.1c.1 0 .1-.1.1-.1-.1 0-.1-.1-.2-.1zm.3-7.4c.1-.1.1-.1 0 0 0-.1 0-.1 0 0 0-.1 0-.1 0 0zm-1.2 5.4c-.2 0-.3.1-.2.3l.1.1h.2v-.1c0-.1 0-.2-.1-.3zm-.6-2.8c.1-.1.2-.1.1-.2h-.1c-.1.1-.1.2 0 .2zm6.3 6.4c0-.1-.1-.1 0 0-.1 0-.1 0 0 0-.1 0 0 0 0 0zm-11.2-3.2c0 .1 0 .1 0 0-.1 0-.1 0 0 0zm6.4 3.5c0 .1.1.1 0 0 0 .1 0 .1 0 0 0 .1 0 .2 0 0 .2 0 .1 0 0 0zm-.6-3.4l.1.2h.2c.1 0 .1-.1.1-.2l-.1-.1c-.1-.1-.2-.1-.2-.1l-.1.2z"/><path transform="rotate(-22.205 573.422 266.42)" class="st8" d="M566.9 260.1h13v12.6h-13z"/><path class="st13" d="M571.1 266.2c-.1 0-.1 0 0 0-.1 0-.1 0 0 0h-.2s.1.1.2 0c0 .1 0 .1 0 0zm4.3.7l-.1.2c0 .1.1.1.1.1h.1c.1 0 .2-.2.1-.3h-.2zm1.1.7c0 .1 0 .1 0 0 .1 0 .1-.1.1-.2l-.1.2zm-2.9 5.3c0-.1-.1-.1 0 0-.1 0-.1 0 0 0-.1 0-.1 0 0 0zm7.3-5.4c0 .1 0 .1 0 0 .1 0 .1 0 0 0zm-6.1-.4l-.1.2.1.1c0 .1.2.1.2.1s.1 0 .1-.1v-.2c0-.1-.1-.1-.1-.1 0-.1-.1-.1-.2 0zm-2.1 1.1l.1.2h.1c.1 0 .1-.1.1-.1v-.2l-.1-.1h-.1l-.1.2zm-2.1 3.6c0-.1 0-.1 0 0-.1 0-.1 0 0 0-.1 0-.1 0 0 0zm5.6-.3c-.1 0-.1 0 0 0zm-.7-3.6c-.1-.1-.1-.1-.1-.2v-.1.1-.1h.2l.1.1v.4l-.1.1c-.1 0-.1.1-.2 0h-.1v-.1l.2-.2zm.2-.2zm1.2 1.8s0-.1 0 0c-.1-.1-.1-.1-.2-.1v.1s0 .1.2 0zm-3.2 1l.2.1c0-.1-.1-.1-.2-.1zm3.4-3.4c0 .1 0 .1 0 0 .1 0 .1 0 0 0zm1.6-1.1c.1 0 .1 0 0 0 .1-.1.1-.1 0 0 .1-.1 0-.1 0 0zm0-2c.1 0 .1.1 0 0 .1 0 .1 0 0 0 .1 0 .1 0 0 0zm-5 1.7v-.2l-.1-.1h-.2c-.1 0-.1.1-.1.1-.1 0-.1.1-.1.2v.1c.1.1.1.1.2.1.1-.1.2-.1.3-.2zm-3.4-.9s-.1-.1 0 0c-.1.1-.1.1 0 0 0 .1 0 .1 0 0zm2.3-.2s-.1 0 0 0c-.1.1-.1.2 0 .2h.1c.1 0 .1-.1.1-.2h-.2c.1 0 .1 0 0 0zm.7.4c.1-.1.1-.1 0 0 0-.1 0-.1 0 0-.1 0-.1 0 0 0-.1 0 0 0 0 0zm-2.9-2.2c.1 0 .1-.1 0 0 0-.1-.1-.1 0 0-.1 0-.1 0 0 0zm2.5 3.5c0-.1-.1-.1-.2-.1s-.1.1-.1.1v.2c0 .1.1.1.2.1s.1-.1.1-.1v-.2zm.6 2c-.2-.2-.3-.1-.3-.1l-.1.1v.1s0 .1.1.1h.1c.2-.1.2-.1.2-.2zm-1.3.3c0 .2.1.2.1.2h.1s.1 0 .2-.1v-.3l-.1-.1h-.1l-.2.3zm2.5-.7c.1 0 .1-.1 0-.2l-.1-.1h-.1c-.1 0-.1.1-.1.1v.2c0 .1.1.1.1.1.1 0 .1 0 .2-.1zm-6.8 1.9c-.1 0-.1.1 0 0-.1.1-.1.1 0 0 0 .1 0 .1 0 0zm6.5-2.9c0 .1.1.2.2.2h.1l.1-.1v-.2c0-.1-.1-.1-.1-.1h-.2l-.1.2zm-1.7.8c-.1-.1-.2-.1-.3-.1v.2c0 .1.2.2.3.1v-.2zm6.4 2.1s-.1 0 0 0c-.1.1 0 .1 0 0zm-6.5.5c-.1-.1-.1-.1-.2-.1v.2c0 .1.1.1.2.1 0 0 .1-.1 0-.2zm5 1.1c0-.1 0-.1 0 0-.1-.1-.1-.1 0 0-.1-.1-.1-.1 0 0-.1 0 0 0 0 0zm-3.7-1.8l.2.1c.1 0 .2-.1.1-.3l-.1-.1h-.3c0 .2 0 .2.1.3-.1 0-.1 0 0 0zm2.4-1c.1-.1.1-.1 0 0zm-1.6.5v.2c0 .1.1.1.1.1.1 0 .1 0 .2-.1v-.2s-.1-.1-.3 0zm-4.4 1.4c0 .1 0 .1 0 0 .1 0 0 0 0 0zm5.4-1.6c.1.1.1.1 0 0 .1.1.1.1 0 0 .1 0 .1 0 0 0 0-.1 0-.1 0 0zm-1.2-.3l-.2-.1h-.1v.2c0 .1.1.1.2.1l.1-.2v.2h.1l-.1-.2zm-2 2.9c0-.1-.1-.1 0 0-.1 0-.1 0 0 0-.1.1 0 .1 0 0 0 .1 0 0 0 0zm1-2.4c.2 0 .2 0 .2-.1v-.2l-.1-.1h-.1c-.1 0-.1.1-.1.1 0 .1 0 .1.1.3zm-1.7.8c0-.1-.1-.1-.2-.1s-.1.1-.1.1.1.1.3 0c-.1.2 0 .2 0 0zm1.4-.3l.1-.2v-.1l-.1-.1h-.1c-.1 0-.1.1-.1.1v.3c0 .1.1.1.2 0zm-2.9 4.2c-.1 0-.1 0 0 0-.1 0-.1 0 0 0-.1 0-.1 0 0 0-.1 0-.1 0 0 0-.1.1-.1.1 0 0zm1.8-4.6l-.2-.1h-.1v.1s0 .1.1.1c0 0 .1 0 .2-.1zm3.3.6c-.1-.2-.2-.2-.2-.1v.1c0 .1.1.1.2 0-.1.1 0 0 0 0zm.1 1c-.1-.1-.1-.1-.2-.1v.2l.2-.1c-.1 0-.1 0 0 0zm-1.3-.6c0-.2-.1-.2-.1-.2h-.1s-.1.1 0 .2.1.1.2 0zm-1 .2h-.2v.1s0 .1.1.1h.1c0-.1.1-.1 0-.2zm-1.1.2c0-.1-.1-.2-.2-.2l-.1.1v.2s0 .1.1.1c.1-.1.2-.1.2-.2zm-.4-2.9c.1 0 .1 0 .2-.1l.1-.1v-.2l.1-.1v-.1l-.1-.1h-.1l-.1.1v.2h-.1c-.1.1-.1.2-.1.2 0 .2.1.2.1.2zm3.3-1.5h-.2v.2c0 .1.1.1.1.1h.2c.1-.1.1-.1.1-.2-.1-.1-.1-.1-.2-.1zm1.3-2.3c.1 0 .1 0 0 0 0-.1 0-.1 0 0zm-5.1 5.3s0-.1 0 0c-.1-.1-.1-.1-.2-.1s-.1.1-.1.1h.3c0 .1 0 0 0 0zm-.2-.9c.1 0 .1-.1 0-.2l-.1-.1h-.1v.1l.2.2zm1.6-6.1c-.1-.1-.1 0 0 0-.1.1-.1.1 0 0 0 .1 0 .1 0 0zm-3.3 6.7c0 .1.1.1 0 0 .1.1.1 0 0 0zm4.1-1.8c-.1.1-.1.1-.1.2l.1.1c.1.1.2 0 .2 0s.1-.1.1-.2v-.1h-.3zm-2.6 1.9c0-.2-.1-.2-.1-.2l.1.2c0 .1 0 .1 0 0zm2.8-1.3s-.1.1 0 .2.2.1.2 0l.1-.1c.1-.1.1-.1.1-.2l-.1-.1h-.2l-.1.2c.1 0 .1 0 0 0zm-2.1 1.2c.1-.1 0-.1 0 0-.2-.1-.2 0-.2.1l.2-.1zm4.7-2.3c-.1 0-.1 0 0 0l-.2.1v.1h.1v.1s0 .1.1.1h.1v-.2c0-.1 0-.1-.1-.2zm2.2 1.4s.1 0 0 0c.1 0 .1 0 0 0 0 .1 0 .1 0 0 0 .1 0 .1 0 0 .1.1.1.1 0 0zm-2.2-1.6v.2h.2v-.3h-.1v.1zm-4.2 1.9v-.3h-.1c-.1 0-.1 0-.2.1 0 .1-.1.1 0 .2 0 .1.1.1.1.1s.1 0 .2-.1zm2.3-1c.2.1.3.1.3.1l.1-.1v-.1h-.1c-.3 0-.3.1-.3.1zm-5.4-.3c-.1 0-.1 0 0 0-.1 0-.1 0 0 0-.1.1-.1.1 0 0zm6.4-2c-.1-.1-.2-.1-.2 0-.1 0-.1.1-.1.2v.1s0 .1.1.1h.2v-.4c0 .1 0 0 0 0zm-5.3.6c-.1 0-.1 0 0 0-.1 0-.1 0 0 0-.1 0-.1 0 0 0-.1 0-.1 0 0 0-.1.1-.1.1 0 0 0 .1 0 0 0 0zm3.6-1.6l.2.1h.1c0-.1-.1-.1-.1-.1h-.2zm-1.6 1.2c0-.1-.1-.1 0 0l-.2-.1v.1c0 .1.1.1.2 0-.1.1-.1.1 0 0zm-.5-.1c-.1-.1-.1-.1-.2-.1v.2l.2-.1c0 .1 0 0 0 0zm1.2-1.2c-.1-.1-.2-.1-.2 0v.1l.2-.1c0 .2 0 .1 0 0zm-.8 2.3c-.1-.2-.2-.2-.2-.2h-.1v.1s-.1.1 0 .2v.1h.2c.1 0 .1 0 .1-.2 0 .1 0 0 0 0zm-1.4.4zm1.6 6.4c.1.1.1.1 0 0 .1 0 .1 0 0 0 .1 0 .1 0 0 0zm2.1-9.8c0 .1.1.2.2.1v-.1s0-.1-.2 0c.2-.1.1-.1 0 0zm-3.4 3.1c-.2-.1-.2-.1-.2 0v.1s0 .1.1.1c-.1-.1 0-.1.1-.2zm2.7-5.5c-.1.1 0 .1 0 0 .1 0 .1 0 0 0zm-5.3 1.3c0 .1 0 .1 0 0 0 .1 0 .1 0 0zm3.2 3.9l.1-.2s-.1 0-.1.2c-.2 0-.1 0 0 0zm1.6-2.5c-.1 0-.1 0 0 0v.2h.1l-.1-.2c.1-.1 0-.1 0 0zm-.6.3s.1 0 0 0l.1-.2-.1.2zm1.7 1.6c.2.2.3.1.4 0v-.3l-.1-.1h-.1c-.1 0-.1.1-.2.2v.2zm-2 .4c0 .2.1.2.1.2h.2l.1-.1v-.1c0-.1-.1-.1-.1-.1-.2-.1-.3 0-.3.1zm3-2c-.1.1-.1.1 0 0 0 .1 0 .1 0 0 .1 0 .1 0 0 0l.1-.2-.1.2zm.6.9v.2s.1 0 0-.2c.1.1.1 0 0 0 .1-.1.1-.1 0 0zm.5 1l.2.1v-.1h-.2c.1-.1 0-.1 0 0z"/><path class="st13" d="M572.5 266.8v.2c0 .1.1.1.2.1l.1-.1c.1-.1.1-.1.1-.2l-.1-.1c-.1-.1-.1-.1-.2-.1l-.1.2zm-1.1-6.3c0-.1 0-.1 0 0-.1-.1-.1 0 0 0-.1 0-.1 0 0 0zm3.6 2c0 .1.1.1 0 0 .1 0 .1 0 0 0zm-.6 1.8c0-.1 0-.1 0 0-.2-.1-.2 0-.2.1l.2-.1c-.1.1-.1.1 0 0zm2.7-1.3c.1 0 .1 0 0 0 .1-.1.1-.1 0 0 .1-.1.1-.1 0 0 0-.1 0-.1 0 0zm-5.5.5c0-.1 0-.1 0 0-.1 0-.1 0 0 0zm1.4 1.3l-.2-.1s-.1 0-.1.1.1.1.3 0c0 .1 0 .1 0 0zm2.2.8c.1.1.2.1.2 0v-.1l-.1-.1c-.1 0-.1.1-.1.2zm-7.5.2s-.1 0 0 0c0 .1 0 .1 0 0zm5.6.8l-.1.2c0 .1.1.2.3.1l.1-.1v-.2h-.1c-.1-.1-.1-.1-.2 0zm-2.8.7c-.1-.1-.2-.1-.2-.1v.1c.1.2.2.1.2 0zm5.9-6.6c-.1 0-.1 0 0 0 0 0 0 .1 0 0zm-2.3 11.4c0-.1 0-.1 0 0-.1 0-.1 0 0 0zm3-6.7c.1 0 .1-.1 0 0 .1-.1.1-.1 0 0 .1-.1.2-.1 0 0 0-.2 0-.1 0 0zm-3.3.9l.2-.1v-.2c0-.1-.1-.1-.2-.1l-.1.1c-.1.1-.1.2.1.3z"/><g><path transform="rotate(-29.191 572.608 265.342)" class="st8" d="M566.3 258.8h12.6v13h-12.6z"/><path class="st13" d="M572.5 262.9c0-.1 0-.1 0 0 0-.1 0-.1 0 0l-.1-.2s-.1.1.1.2c-.1 0 0 0 0 0zm-.2 4.4h-.2c-.1 0-.1.1-.1.2v.1c.1.1.2.1.3.1v-.1c.1-.2 0-.3 0-.3zm-.6 1.2c-.1 0-.1 0 0 0 0 .1.1.1.2.1l-.2-.1zm-5.6-2.1c.1-.1.1-.1 0 0 0-.1 0-.1 0 0 0-.1 0-.1 0 0zm6.3 6.4c-.1.1-.1.1 0 0-.1.1 0 .1 0 0 0 .1 0 0 0 0z"/><path class="st13" d="M572.1 266.8h-.2l-.1.1c-.1.1-.1.2-.1.3 0 0 0 .1.1.1h.2c.1 0 .1-.1.1-.2v-.3zm-1.4-1.9l-.2.1v.1c0 .1.1.1.1.1h.2v-.1l-.1-.2zm-3.8-1.7c0-.1 0-.1 0 0-.1-.1-.1-.1 0 0-.1-.1-.1-.1 0 0-.1-.1-.1-.1 0 0-.1 0-.1 0 0 0-.1 0-.1 0 0 0zm1 5.5c0-.1 0-.1 0 0-.1-.1-.1-.1 0 0-.1-.1-.1-.1 0 0-.1-.1-.1 0 0 0-.1 0-.1 0 0 0zm3.4-1.2c.1-.1.1-.1.2-.1h.1v.2l-.1.1h-.2l-.1.1h-.1l-.1-.1c0-.1-.1-.1-.1-.2v-.1h.1l.3.1zm.2.2zm-1.6 1.4c.1-.1.1-.1.1-.2h-.1c-.1 0-.1.1 0 .2zm-1.4-3v.2c.1 0 .1-.1 0-.2 0 .1 0 .1 0 0zm3.8 3.1l-.1.2v.1h.2l-.1-.3zm1.3 1.4c0 .1.1.1 0 0 .1.1.1.1 0 0 .1 0 0 0 0 0zm1.9-.2c0 .1.1.1 0 0 .1 0 .1 0 0 0zm-2.2-4.9h.2v-.3c0-.1-.1-.1-.1-.1 0-.1-.1-.1-.2-.1l-.1.1c-.1.1-.1.1-.1.2.1.1.1.2.3.2zm.4-3.4s.1-.1 0 0c0-.1-.1-.1 0 0zm.6 2.2c-.1-.1-.1-.1 0 0l-.2-.1-.1.1v.1c0 .1.1.1.3-.1-.1.1 0 0 0 0zm-.4.8c.1.1.1.1.2.1v-.2l-.2.1c.1-.1.1-.1 0 0 0-.1 0-.1 0 0zm1.8-3.2s0 .1 0 0c.1.1.1.1 0 0 .1 0 .1 0 0 0zm-3.1 3c.1 0 .1-.2.1-.2 0-.1-.1-.1-.1-.1h-.2c-.1 0-.1.2-.1.2 0 .1.1.1.1.1h.2zm-1.9.9c.2-.2.1-.3.1-.3h-.2s-.1 0-.1.1v.1s.1.1.2.1zm-.5-1.4h-.2c-.1 0-.1.1-.1.1v.1s0 .1.1.1h.3v-.1l-.1-.2zm1 2.3c.1 0 .1.1.2 0v-.2c0-.1-.1-.1-.1-.1h-.2c-.1 0-.1.1-.1.2.1 0 .1.1.2.1zm-2.7-6.4c0-.1 0-.1 0 0 0-.1 0-.1 0 0 0-.1 0-.1 0 0z"/><path class="st13" d="M572.2 266.5c-.1 0-.2.1-.2.2v.1l.1.1h.2c.1 0 .1-.1.1-.1v-.2l-.2-.1zm-1-1.7c.1-.1.1-.2 0-.3h-.2c-.1.1-.1.2-.1.3l.1.1.2-.1zm-1.3 6.5c-.1 0-.1 0 0 0 0 .1 0 0 0 0zm-1.4-6.3c.1-.1.1-.1.1-.2h-.2s0 .1.1.2zm-.4 5.1s.1 0 0 0c.1 0 .1 0 0 0 .1-.1.1-.1 0 0zm1.3-3.9l-.1.2c0 .1.1.1.3.1l.1-.1v-.1c0-.1 0-.1-.1-.2-.1 0-.1 0-.2.1zm1.3 2.3c.1.1.1 0 0 0zm-.7-1.6h-.2c-.1 0-.1.1-.1.1 0 .1 0 .1.1.2h.2c.1 0 .1-.1 0-.3zm-1.8-4.2c-.1 0-.1 0 0 0 0 .1 0 0 0 0zm2.1 5.2c-.1.1-.1.1-.1.2h.1v-.2c.2 0 .1 0 0 0zm.2-1.2l.1-.2v-.2h-.2c-.1 0-.1.1-.1.2h.1l-.1.1v.1h.2zm-3.2-1.7c.1 0 .1 0 0 0 .1 0 .1 0 0 0 .1-.1 0-.1 0 0zm2.6.8c0 .2.1.2.1.2h.2l.1-.1v-.1c0-.1-.1-.1-.1-.1-.1 0-.1 0-.3.1zm-1.1-1.7c.1 0 .1-.1.1-.2s-.1-.1-.2-.1c0 0 0 .1.1.3-.1 0-.1 0 0 0zm.5 1.5l.2.1.1-.1v-.1c0-.1-.1-.1-.1-.1h-.2v.2c-.1-.2-.1-.1 0 0zm-4.5-2.5c0-.1 0-.1 0 0 0-.1 0-.1 0 0 0-.1 0-.1 0 0 0-.1 0-.1 0 0-.1-.1-.1-.1 0 0zm4.8 1.2l.1-.2h-.1v.2c-.1-.1-.1-.1 0 0zm-.2 3.3c.1-.1.1-.2.1-.2h-.1s-.1.1 0 .2c-.1 0 0 0 0 0zm-.9.3c.1-.1.1-.1.1-.2h-.2l.1.2c-.1-.1-.1-.1 0 0zm.4-1.3l.2-.1v-.1h-.2c-.2.1-.1.2 0 .2zm-.4-.9v-.2h-.1l-.1.1v.1h.2zm-.2-1.2c.1 0 .2-.1.2-.2l-.1-.1h-.2s-.1 0-.1.1c.1.1.1.2.2.2zm2.7-.7l.2.2.1.1h.2l.1.1h.1l.1-.1v-.1l-.1-.1h-.2v-.1c-.1-.1-.2-.1-.3-.1-.2-.1-.2 0-.2.1zm2 3v-.2h-.2c-.1 0-.1.1-.1.1v.2c.1.1.2.1.3-.1-.1.1 0 .1 0 0zm-3.5-3.4c.1-.1.1-.2 0-.2 0 0-.1-.1-.1 0s0 .1.1.2c-.1.1 0 .1 0 0zm.9-.3c0 .1.1.1.2 0l.1-.1v-.1h-.1l-.2.2zm6.3.9c0-.1 0-.1 0 0-.1-.1-.1-.1 0 0-.1 0-.1 0 0 0zm-7.2-2.3c0-.1 0-.1 0 0 0-.1 0-.1 0 0-.1 0-.1 0 0 0zm2.3 3.7c-.1-.1-.2-.1-.2-.1l-.1.1c-.1.1 0 .2 0 .2s.1.1.2.1h.1c.1 0 .1-.1 0-.3zm-2.2-2.3l.2-.1-.2.1c-.1-.1-.1-.1 0 0zm1.7 2.7h-.2c-.1.1-.1.2 0 .2l.1.1c.1.1.2.1.2.1l.1-.1v-.2l-.2-.1zm-1.5-2.1c.2.1.2 0 .2-.1s-.1-.1-.2-.1v.2zm2.9 4.3c0-.1 0-.1 0 0l-.2-.1v.1h-.2l-.1.1s0 .1.1.1h.3l.1-.2c0 .1 0 .1 0 0zm-1.2 2.6c.1 0 .1 0 0 0 .1-.1.1-.1 0 0 .1-.1.1-.1 0 0zm1.3-2.6v.1h-.1v.2h.2v-.2zm-2.3-3.9h.2v-.2c0-.1 0-.1-.1-.2h-.2c-.1 0-.1.1-.1.1 0 .2.1.2.2.3zm1.2 2.2c-.1.2-.1.3-.1.3h.1l.1-.1-.1-.2c.2.1.1 0 0 0zm-.3-5.4c0-.1 0-.1 0 0-.1-.1-.1 0 0 0zm2.8 6.1c.1-.1.1-.2 0-.2 0-.1-.1-.1-.2-.1h-.1l-.1.1v.2h.4c-.1 0-.1 0 0 0zm-1.3-5.1c0-.1 0-.1 0 0 0-.1 0-.1 0 0 0-.1 0-.1 0 0-.1-.1-.1-.1 0 0-.1 0-.1 0 0 0zm2.1 3.4l-.1.2c.1 0 .1-.1.1-.2zm-1.5-1.6c.1 0 .1-.1.1-.2v-.1h-.1c-.1 0-.1.1-.1.1 0 .1 0 .2.1.2zm.1-.4c.1-.1.1-.1.1-.2h-.2l.1.2c-.1 0-.1 0 0 0zm1.3 1.1c.1-.1.1-.2 0-.2h-.1l.1.2c-.1-.1-.1 0 0 0zm-2.2-.7c.2-.1.2-.2.2-.3v-.1h-.4v.2c0 .1.1.1.2.2-.1.1-.1 0 0 0zm-6.9 1.1c0 .1 0 .1 0 0 0 .1 0 .1 0 0 0 .1.1.1 0 0zm10.1 1c-.1 0-.2.1-.1.2h.1v-.2c.1.1.1.1 0 0zm-3.5-3.2c.1-.2 0-.2 0-.2h-.1l-.1.1s.1.1.2.1zm5.7 2.2s0-.1 0 0c0-.1 0-.1 0 0-.1 0-.1 0 0 0-.1 0-.1.1 0 0 0 .1 0 0 0 0zm-1.8-5.2c-.1 0-.1 0 0 0-.1 0-.1 0 0 0zm-3.6 3.6h.2s0-.1-.2 0c0-.1 0-.1 0 0zm2.7 1.4c-.1-.1-.1-.1 0 0-.2 0-.2 0-.2.1v.1h.1c.2-.1.2-.2.1-.2zm-.4-.6s0 .1.2.1h.1-.1v-.2l-.2.1zm-1.4 1.9c-.1.2 0 .3 0 .3h.2l.1-.1v-.1c0-.1-.1-.1-.3-.1zm-.6-2c-.2 0-.2.1-.2.1v.2l.1.1h.1c.1 0 .1-.1.1-.2s0-.2-.1-.2zm2.3 2.7c-.1-.1-.1-.1-.2-.1v.2l.2-.1c-.1.1-.1.1 0 0 0 .1 0 .1 0 0zm-.8.8h-.2s0 .1.2 0c-.1.1-.1.1 0 0 .1.1.1 0 0 0zm-.9.5l-.1.2h.1v-.2c.1.1.1.1 0 0zm-1.6-3.4h-.2c-.1 0-.1.2-.1.2l.1.1h.2l.1-.1c.1-.1 0-.1-.1-.2zm6.2-1.9s0-.1 0 0c0-.1 0-.1 0 0-.1-.1-.1-.1 0 0-.1-.1-.1-.1 0 0-.1-.1-.1-.1 0 0zm-1.6 3.9c-.1 0-.1 0 0 0 0 .1 0 .1 0 0zm-1.9-.4c.1 0 .1 0 0 0l.1-.2c0-.1-.1-.1-.2-.1v.1l.1.2zm1.7 2.6c0 .1.1.1 0 0 .1 0 .1 0 0 0zm-1.2-5.5c0-.1 0-.1 0 0 0-.1 0-.1 0 0-.1-.1-.1-.1 0 0-.1-.1-.1 0 0 0zm-1.1 1.5l.1-.2-.1-.1c-.1 0-.1.1 0 .3-.1.1-.1.1 0 0zm-.5 2.3c-.1.1-.1.2 0 .2h.1l.1-.1c-.1-.1-.1-.2-.2-.1zm-1.2-1.7h-.2c-.1 0-.2.2-.1.3l.1.1h.1l.1-.1v-.1c.1-.1.1-.1 0-.2zm-1.1-2.8c.1-.1.1-.2.1-.3h-.1c-.2.3-.1.3 0 .3zm7.3 5.1c0-.1 0-.1 0 0-.1-.1-.1-.1 0 0-.1-.1-.1-.1 0 0zm-11.6-.9c0-.1 0-.1 0 0 0-.1 0-.1 0 0-.1 0-.1 0 0 0zm7 2.2c0 .1.1.1 0 0 .1.1.1.1 0 0 .1.1.1.1 0 0 .1 0 .1 0 0 0zm-1.3-3.2l.1.2h.2c.1 0 .1-.1.1-.2l-.1-.1c-.1-.1-.2 0-.3.1z"/></g></g></g><g id="eye_left"><path class="st7" d="M526.4 289.8c-1-6.3-6.9-10.6-13.3-9.7-6.3 1-10.6 6.9-9.7 13.3 1 6.3 6.9 10.6 13.3 9.7 6.2-1.1 10.6-7.1 9.7-13.3"/><g class="st12"><path transform="rotate(-64.793 517.262 289.758)" class="st8" d="M511 283.3h12.6v13H511z"/><path class="st13" d="M515.8 287.8c-.1 0-.1 0 0 0-.1 0-.1 0 0 0-.1-.1-.1-.1 0 0h-.2v.1c.1 0 .2 0 .2-.1zm2.4 3.8h-.2v.2l.1.1c.1.1.2 0 .3-.1v-.1c-.1 0-.2-.1-.2-.1zm.2 1.2s0-.1 0 0c-.1-.1-.1-.1 0 0-.1.1 0 .1 0 0 .2.1.2.1.2 0h-.2zm-5.8 1.5s0-.1 0 0c-.1-.1-.1-.1 0 0-.1 0-.1 0 0 0zm8.8 1.7s0 .1 0 0c.1.1.1 0 0 0 .1 0 .1 0 0 0zm-3.7-4.7l-.2.1v.1c0 .1 0 .2.1.2h.1c.1 0 .1 0 .2-.1v-.3c-.1.1-.1 0-.2 0zm-2.3-.8l-.1.2.1.1h.2c.1 0 .1-.1.1-.1v-.1l-.1-.1h-.2zm-4 .9c-.1 0-.1 0 0 0-.1-.1-.1 0 0 0-.1 0-.1 0 0 0-.1.1-.1.1 0 0-.1 0 0 0 0 0zm3.9 3.9c0-.1 0-.1 0 0-.1-.1-.1-.1 0 0-.1 0-.1 0 0 0zm2.2-3c-.1-.2 0-.2 0-.2l.1-.1.1-.1h.2v.1c0 .1-.1.1-.1.1v.1l-.1.1h-.2s0-.1-.1-.2v-.2l.1.4zm.3 0zm-.5 2.1s0-.1 0 0l.1-.2v-.1s-.1 0-.1.1v.2zm-2.9-1.7l.1.2s0-.1-.1-.2c0 .1 0 0 0 0zm4.8.3l-.1.2h.2l.1-.1v-.1h-.2zm2 .4s0 .1 0 0c.1.1.1.1 0 0 .1 0 .1 0 0 0 .1 0 0 0 0 0zm1.4-1.3c0-.1 0-.1 0 0zm-4.6-2.6c.1-.1.1-.1 0 0 .1-.1.2-.1.2-.2v-.2l-.1-.1h-.4l-.1.1c0 .1 0 .2.1.2.1.2.2.2.3.2zm-1.7-3.1s0-.1 0 0c-.1-.1-.1-.1 0 0 0 .1 0 .1 0 0 0 .1 0 .1 0 0zm1.8 1.5c-.1 0-.1 0 0 0h-.2v.1s0 .1.1.1.1 0 .1-.2zm.2.8l.1-.2h-.2l.1.2c-.1 0 0 0 0 0zm-.5-3.6s.1.1 0 0c.1 0 .1 0 0 0 .1-.1.1-.1 0 0zm-.8 4.2c0-.1 0-.2-.1-.2h-.3c0 .1 0 .2.1.2h.3c-.1.1 0 .1 0 0zm-1 1.9c0-.2-.1-.3-.1-.3h-.1l-.1.1v.1l.1.1c0 .1.1.1.2 0zm-1.2-.8l-.1.2v.1s.1.1.2 0c0 0 .1 0 .1-.1l.1-.1v-.1l-.1-.1-.2.1zm2.2 1.3c.1 0 .1 0 .2-.1v-.1l-.1-.1h-.2c-.1 0-.1.1-.1.1v.2h.2zm-6-3.7c-.1-.1-.1-.1 0 0-.1-.1-.1 0 0 0-.1 0-.1 0 0 0zm6.5 2.9c-.1.1-.1.2-.1.3l.1.1h.1c.1 0 .1-.1.1-.1v-.2c0-.1-.1-.1-.2-.1zm-1.7-.7c0-.1 0-.2-.1-.3h-.1c-.1 0-.1.1-.1.1 0 .1 0 .2.1.3l.2-.1zm2.7 6s0-.1 0 0c0 0 .1 0 0 0zm-4.7-4.5v-.2h-.2c0 .2 0 .2.2.2-.1.1 0 .1 0 0zm2.6 4.5c0-.1 0-.1 0 0 0-.1 0-.1 0 0-.1 0 0 0 0 0zm-1.3-3.9l.1.2c.1 0 .2 0 .3-.1v-.2c0-.1-.1-.1-.2-.1s-.1 0-.2.2c0-.1 0-.1 0 0zm2.5 1.1zm-1.5-.9c-.1.1-.1.1-.2.1v.2c0 .1.1.1.2.1h.1l.1-.1c.1-.1 0-.2-.2-.3zm-3.9-2.3c-.1 0-.1 0 0 0-.1.1-.1.1 0 0 0 .1 0 .1 0 0zm4.8 2.9v.2h.1l-.1-.2c.1 0 0 0 0 0zm-.6-1.1l-.1-.2h-.2v.1c0 .1 0 .2.1.2l.2-.1zm-3.6.5c0-.1 0-.1 0 0 0-.1 0-.1 0 0-.1 0-.1 0 0 0zm2.5-.8c.1.1.2.1.2.1.1 0 .1-.1.1-.1v-.1l-.1-.1c-.1 0-.1-.1-.2 0-.1 0-.1.1 0 .2zm-1.7-.7v-.2h-.2c0 .1 0 .1.2.2-.2 0-.1 0 0 0zm1.1.8l.2-.1v-.1l-.1-.1h-.2c-.1 0-.1.1-.1.1v.2c0-.1.1 0 .2 0zm-5 .6c0-.1-.1 0 0 0-.1 0-.1 0 0 0-.1 0-.1 0 0 0zm4.5-1.8zm1.9 2.8c.1-.2 0-.2 0-.2s-.1 0 0 .2c-.1 0-.1 0 0 0-.1.1-.1.1 0 0zm-.7.9l.1-.2h-.2l.1.2zm-.4-1.5c.1-.1.1-.2.1-.2l-.1-.1c-.1 0-.1 0-.1.1-.1.3 0 .3.1.2zm-.8-.5c0-.1 0-.1 0 0l-.2-.1v.1c.1 0 .1.1.2 0 0 .1 0 .1 0 0zm-.9-.6c.1-.1.1-.2 0-.3h-.2v.1c0 .2.1.2.2.2zm1.7-2.3h.3l.1-.1.1-.1h.1l.1-.1v-.1l-.1-.1h-.1l-.1.1h-.2c-.1 0-.2 0-.2.1v.3zm3.5 1.4c0-.1-.1-.1 0 0-.2-.1-.2 0-.2 0v.2c0 .1.1.1.1.1.1 0 .2 0 .2-.1-.1-.1-.1-.2-.1-.2zm2.5-.6c.1.1.1.1 0 0 .1 0 .1 0 0 0zm-7.3-.2c0-.1 0-.2-.1-.2h-.1c0 .1.1.1.2.2 0 .1 0 .1 0 0zm.5-.7c.1 0 .1 0 .2-.1v-.1h-.1s-.1 0-.1.2zm5.6-3c-.1 0-.1 0 0 0-.1-.1-.1-.1 0 0-.2 0-.2 0 0 0-.1 0-.1.1 0 0zm-7.1 2.2c0-.1 0-.1 0 0-.1-.1-.1-.1 0 0-.1 0-.1 0 0 0zm4 1.8c-.1 0-.2 0-.2.1v.1c0 .1.1.1.1.2h.2v-.1c0-.1 0-.2-.1-.3zm-3.1-.6c.1-.1.1-.1.1-.2h-.1v.2c-.1-.1-.1-.1 0 0-.1-.1-.1-.1 0 0zm2.8 1.2s-.1 0-.2.1c0 .1 0 .2.1.2h.3l.1-.1v-.2s0-.1-.1-.1l-.2.1c.1 0 .1 0 0 0zm-2.3-.9c0 .1 0 .1 0 0 .1 0 .1 0 0 0-.1-.1-.1-.1-.2 0h.2zm4.8 1.8c-.1-.1-.2-.1-.2-.1s-.1 0-.1.1v.1h-.1s-.1 0-.1.1v.1l.1.1s.1 0 .1-.1h.1v-.1l.2-.2c.1.1.1 0 0 0zm.5 2.8s.1 0 0 0c0-.1 0-.1 0 0 0-.1 0-.1 0 0-.1 0-.1 0 0 0-.1.1 0 .1 0 0 0 .1 0 .1 0 0zm-.3-2.9l-.1.1v.1h.1v.1h.1v-.1h.1v-.1h-.1v-.1zm-4.3-1.7c.1 0 .1-.1 0 0l.1-.2v-.1c0-.1-.1-.1-.2-.1s-.1 0-.2.1v.2c.1.1.2.1.3.1z"/><path class="st13" d="M517.1 291.1c-.1.2 0 .2.1.3h.1l.1-.1v-.1l-.1-.1c0-.1-.1 0-.2 0zm-3.3-4.2c-.1-.1-.1-.1 0 0-.1-.1-.1 0 0 0-.1 0-.1 0 0 0-.1 0-.1.1 0 0zm5.7 3.3c-.2-.1-.2-.1-.3 0 0 0-.1 0-.1.1v.1h.1c0 .1 0 .1.1.1h.1v-.1l.1-.2c0 .1 0 .1 0 0zm-4-3.5c-.1 0-.1 0 0 0-.1 0-.1 0 0 0-.1 0-.1-.1 0 0-.1-.1-.1-.1 0 0-.1 0-.1.1 0 0-.1 0 0 0 0 0zm1.7 1.2c.1-.1 0-.2 0-.2h-.3v.1c.1 0 .1.1.3.1zm-.3-.4l-.2-.1h-.1s0 .1.1.1h.2zm1.6.1c-.1-.1-.2-.1-.2 0v.1l.2-.1c-.1 0 0 0 0 0zm-2.1.8c.1-.2.1-.3 0-.3h-.2s-.1 0-.2.1v.3s.1.1.2 0c.1 0 .2-.1.2-.1zm-1.3-.6s0-.1 0 0zm5.1.4c-.1.1-.1.2 0 .2h.1l.1-.1v-.1h-.2zm-4.7-.5c0-.1 0-.1 0 0 0-.1-.1-.1 0 0-.2 0-.1 0 0 0zm6-1.6c-.1 0-.1 0 0 0-.1 0-.1 0 0 0-.1.1-.1.1 0 0 0 .1 0 0 0 0zm-4.6-3.1c-.1 0-.1 0 0 0-.1.1-.1.1 0 0zm-.7 4.9c0-.1-.1-.1 0 0-.1-.1-.1 0 0 0zm2.9-.4c-.1 0-.1 0 0 0-.1.1-.1.1-.1.2h.3c-.1-.2-.1-.2-.2-.2zm-.7-.2s.1.1.2 0v-.2h-.2v-.1.3zm0 2.3c0 .2.2.2.2.2h.1v-.2l-.1-.1-.2.1zm-1.6-1.3c-.1.1-.1.2-.1.3l.1.1h.1l.1-.1v-.2c0-.1-.1-.1-.2-.1zm3.4 1l-.1.2h.2l-.1-.2c.1 0 .1 0 0 0zm-.2 1c-.1 0-.1 0 0 0s.1 0 0 0zm-.4 1c-.1.2 0 .2 0 .2h.1l-.1-.2c.1 0 .1 0 0 0zm-3.3-1.9c-.1 0-.1.1-.2.1 0 .1 0 .2.1.2h.1c.1 0 .1 0 .2-.1v-.1c0-.1 0-.1-.2-.1zm3.9-5.2c.1 0 .1 0 0 0 0-.1 0-.1 0 0-.1 0-.1 0 0 0zm.9 4.1c0 .1 0 .1 0 0 .1.1.1.1 0 0zm-1.7.8c.1-.1.1-.1 0 0 .1-.1.1-.1 0-.2-.1 0-.1 0-.2.1v.1h.2zm2.9 1.2c.1 0 .1 0 0 0 .1 0 .1-.1 0 0 .1-.1 0 0 0 0zm-4.1-3.8s0-.1 0 0c-.1-.1-.1 0 0 0-.1 0-.1 0 0 0-.1 0-.1 0 0 0zm0 1.9c0-.1 0-.1 0 0l-.2-.1c0 .1 0 .1.2.1-.1 0 0 0 0 0z"/><path class="st13" d="M519 290.5c.1.1.2.1.2 0v-.1c0 .1-.1.1-.2.1zm-5.1-5.4c-.1 0-.1 0 0 0-.1 0-.1.1 0 0 0 .1 0 0 0 0zm3.2 4.7l-.2.1c0 .1 0 .2.1.3h.1l.1-.1v-.1l-.1-.2c.1.1.1 0 0 0zm-2.6-1.6c0-.1 0-.2-.1-.2l.1.2c-.1.1-.1.1 0 0zm-1 6c.1 0 .1 0 0 0 .1-.1 0-.1 0 0 0-.1 0-.1 0 0zm7-2.4c.1 0 .1 0 0 0 .1 0 .1 0 0 0h.2c-.1-.1-.1-.1-.2 0zm-2.9-1.8s.1 0 0 0l.2.1.1-.1v-.2h-.1c-.1 0-.2.1-.2.2z"/><path transform="rotate(-17.936 516.133 288.997)" class="st8" d="M509.8 282.5h12.6v13h-12.6z"/><path class="st13" d="M516.5 286.7c0-.1 0-.1 0 0 0-.1 0-.1 0 0v-.2.2c-.1 0 0 0 0 0zm-1.1 4.2c-.2-.1-.2 0-.2 0v.1c0 .1.2.2.3.1l.1-.1c-.1.1-.2 0-.2-.1zm-.8 1v-.2h-.1c0 .1 0 .1.1.2-.1 0 0 .1 0 0zm-4.9-3.2c0-.1 0-.1 0 0 0-.1-.1-.1 0 0zm4.7 7.6c-.1 0-.1 0 0 0-.1.1 0 .1 0 0zm.9-5.9l-.2-.1c-.1 0-.1.1-.1.1-.1 0-.1.1-.1.2 0 0 0 .1.1.1 0 0 .1.1.2 0 .1 0 .1-.1.1-.1v-.2zm-1-2.2l-.2.1v.1c0 .1 0 .1.1.1h.2l.1-.1v-.1l-.2-.1zm-3.4-2.4c-.1-.1-.1 0 0 0-.1 0-.1 0 0 0 0 .1 0 .1 0 0zm-.1 5.6c-.1 0-.1 0 0 0-.1 0-.1 0 0 0zm3.6-.4c.1-.1.1-.1.2-.1h.1v.2l-.1.1h-.4l-.1-.1c0-.1-.1-.1 0-.2h.1l.2.1zm.2.2c-.1 0-.1 0 0 0zm-1.8.9c0 .1.1.1 0 0 .1-.1.1-.1.1-.2h-.1s-.1.1 0 .2zm-.8-3.1l-.1.2c.1 0 .1-.1.1-.2 0 .1 0 0 0 0zm3.1 3.7c-.1 0-.1 0 0 0l-.1.2h.2l-.1-.2zm1.1 1.7c0 .1 0 .1 0 0 0 .1 0 0 0 0zm1.9.1s0 .1 0 0c0 .1 0 .1 0 0 .1.1.1 0 0 0zm-1.3-5.1c.2 0 .1 0 0 0 .1 0 .2.1.2 0l.1-.1v-.2c0-.1 0-.1-.1-.1 0-.1-.1-.1-.2-.1h-.1c-.1 0-.1.1-.1.2.1.1.1.2.2.3zm1.2-3.3c-.1-.1-.1-.1 0 0-.1-.1-.1 0 0 0zm.1 2.2c-.1-.1-.1-.1 0 0-.1-.1-.2-.1-.2 0v.1c0 .1.1.1.2.1v-.2c-.1.1-.1.1 0 0zm-.5.7c.1.1.1.1 0 0l.2.1v-.3h-.2v.2zm2.2-2.7s.1 0 0 0c.1 0 .1 0 0 0 .2 0 .1-.1 0 0 .1-.1.1-.1 0 0zm-3.5 2.2c.1 0 .1-.1.1-.2s0-.1-.1-.1h-.2c-.1 0-.1.1-.1.2s0 .1.1.1h.2zm-2.1.5c.2-.1.1-.2.1-.2l-.1-.1h-.1s-.1 0-.1.1v.1c.1 0 .2.1.2.1zm-.1-1.4c-.2 0-.2.1-.2.1v.1s0 .1.1.2h.3l.1-.1v-.1l-.3-.2zm.4 2.6c0 .1.1.1.2.1l.1-.1v-.1c0-.1-.1-.1-.1-.2h-.2c-.1 0-.1.1-.1.1 0 .1 0 .1.1.2zm-1.4-6.9c.1-.1.1-.1 0 0 0-.1 0-.1 0 0 0-.1 0-.1 0 0zm2.4 6.7c-.1 0-.2.1-.2.2v.1l.1.1h.2c.1 0 .1-.1.1-.1v-.2l-.2-.1zm-.7-1.8c.1-.1.1-.2.1-.3v-.1h-.2c-.1 0-.2.2-.1.3l.2.1zm-2.5 6.2c.1 0 .1 0 0 0 0 .1 0 0 0 0zm0-6.5c.1-.1.1-.1.1-.2h-.2c-.1 0-.1.1-.1.2 0-.1.1 0 .2 0zm-1.5 4.9c.1 0 .1 0 0 0 .1-.1.1-.1 0 0zm2.1-3.6l-.1.2c0 .1.1.2.3.1l.1-.1v-.3c-.1.1-.2.1-.3.1zm.8 2.5c.1.1.1 0 0 0zm-.4-1.6h-.2c-.1 0-.1.1-.1.1v.2h.2c.2 0 .2-.1.1-.3zm-1-4.5c-.1 0-.1 0 0 0 0 .1 0 .1 0 0zm1.2 5.6c-.1.1-.1.1 0 0-.1.1-.1.1 0 0 0 .1.1.1 0 0 .1 0 0 0 0 0zm.4-1.2l.1-.2v-.1l-.1-.1h-.1c-.1 0-.1.1-.1.2h.1-.1v.1l.2.1zm-2.9-2.4s.1 0 0 0c.1 0 .1 0 0 0 .1-.1 0-.1 0 0zm2.5 1.3c0 .2 0 .2.1.2h.2l.1-.1v-.1c0-.1 0-.1-.1-.2h-.2l-.1.2zm-.8-1.7c.1 0 .1-.1.1-.2s-.1-.1-.1-.1l-.1.1c0 .1 0 .1.1.2zm.2 1.4l.2.1h.1l.1-.1v-.1c0-.1-.1-.1-.1-.2h-.3v.3zm-3.9-3.3s.1 0 0 0c0-.1 0-.1 0 0 0-.1 0-.1 0 0 0-.1 0-.1 0 0zm4.5 2.2l.1-.2h-.1s-.1 0 0 .2c-.1-.2-.1-.1 0 0zm-.8 3.2c.2-.1.2-.1.2-.2h-.1c-.1 0-.1.1-.1.2-.1 0-.1 0 0 0zm-1.1.1c.1-.1.1-.1.1-.2v-.1h-.2v.1s0 .1.1.2zm.7-1.3c.2 0 .2-.1.2-.1v-.1s-.1-.1-.2 0-.1.1 0 .2zm-.1-.9v-.2h-.1s-.1 0-.1.1v.1c0-.1.1 0 .2 0zm-.2-1.2c.1 0 .2-.1.2-.2v-.1h-.2s-.1 0-.1.1c.1.1 0 .2.1.2zm2.8-.1c0 .1 0 .2.1.2l.1.1h.2l.1.1h.1l.1-.1v-.1l-.1-.1h-.2v-.1c0-.1-.1-.1-.2-.1-.1-.1-.2 0-.2.1zm1.5 3.3v-.2h-.2c-.1 0-.1.1-.1.1v.2c0 .1.1.1.2.1 0-.1 0-.1.1-.2zm2.1 1.4c0 .1 0 .1 0 0 0 .1 0 .1 0 0zm-4.8-5.4c.1-.1.1-.1.1-.2s-.1-.1-.1-.1v.3c-.1 0-.1 0 0 0zm.8-.1c0 .1.1.1.2.1s.1-.1.1-.1v-.1h-.1l-.2.1zm6 2c.1-.1 0-.1 0 0-.1-.1-.1-.1 0 0-.1-.1-.1 0 0 0zm-6.4-3.7c-.1-.1-.1 0 0 0-.1 0-.1 0 0 0-.1 0 0 0 0 0zm1.3 4.1c0-.1-.1-.1-.2-.1l-.1.1c-.1.1-.1.2 0 .2 0 0 .1.1.2.1h.1s.1-.1 0-.3zm-1.6-2.6c.2 0 .2-.1.2-.1l-.2.1c0-.1 0-.1 0 0zm1 2.9s-.1-.1-.2 0-.1.2-.1.2l.1.1c0 .1.1.1.2.1l.1-.1v-.1l-.1-.2c.1 0 .1 0 0 0zm-.9-2.3c.1.1.1 0 0 0 .1-.2 0-.2-.1-.2l.1.2zm1.9 4.8l-.1-.2h-.2s-.1 0-.1.1v.1h.4zm-1.6 2.2c0 .1.1.1 0 0 .1 0 .1 0 0 0 .1 0 .1 0 0 0 0 .1 0 .1 0 0zm1.8-2.2h-.1v.3h.1l.1-.1v-.1zm-1.6-4.2h.3v-.1c0-.1 0-.1-.1-.2-.1 0-.1-.1-.2 0-.1 0-.1.1-.1.1s0 .1.1.2zm.8 2.3c-.2.2-.2.3-.1.3l.1.1h.1v-.1c0-.2-.1-.3-.1-.3zm.7-5.4c0-.1 0-.1 0 0 0 0-.1 0 0 0-.1 0-.1 0 0 0zm1.6 6.7c.1-.1.1-.2 0-.2 0-.1-.1-.1-.2-.1h-.1s-.1 0-.1.1v.1s-.1.1 0 .1v.1h.2l.2-.1c-.1 0 0 0 0 0zm-.2-5.5c0-.1 0-.1 0 0-.1 0-.1 0 0 0-.1 0 0 .1 0 0zm1.2 3.8l-.1.2v.1c.1 0 .1-.1.1-.1v-.2zm-1-1.8c.1 0 .1-.1 0 0l.1-.2h-.1c-.1.1-.1.1 0 .2 0-.1-.1-.1 0 0zm.2-.3c.1-.1.1-.1.1-.2v-.1h-.2v.1c0 .1.1.2.1.2zm.9 1.2l.1-.2h-.2l.1.2c-.1 0 0 0 0 0zm-2-1c.2 0 .2-.1.2-.2v-.1h-.1s-.1-.1-.2 0h-.1l-.1.1v.1c0 .1 0 .1.1.1h.2zm-6.9-.3c0 .1 0 .1 0 0 0 .1.1.1 0 0 .1.1.1.1 0 0 .1 0 0 0 0 0zm9.6 2.9c-.1 0-.2 0-.1.2h.1s.1 0 0-.2c.1.2.1.1 0 0zm-2.8-3.7c.1-.1.1-.1 0 0-.1-.1-.2-.1-.2 0 .1-.1.1-.1.2 0zm5.3 3.2c0-.1 0-.1 0 0 0-.1 0-.1 0 0-.1-.1-.1 0 0 0zm-.8-5.5c-.1 0-.1 0 0 0-.1 0-.1 0 0 0-.1 0 0 0 0 0zm-4.2 2.9l.2.1s0-.1-.2-.1c0-.1 0 0 0 0zm2.3 1.8c0-.1-.1-.1 0 0-.1-.1-.2 0-.2 0v.1l.2-.1c.1.2.1.1 0 0zm-.3-.7s0 .1 0 0l.2.1v-.3h-.1l-.1.2zm-1.6 1.7c-.2.2-.1.3-.1.4h.3l.1-.1v-.1c0-.1-.1-.1-.1-.2h-.2zm-.2-2.2c-.2 0-.2.1-.2.1v.2l.1.1h.1c.1 0 .1-.1.1-.1 0-.1-.1-.2-.1-.3zm1.6 3.3c-.1-.1-.1-.1 0 0l-.2-.1v.2l.2-.1c-.1.1-.1.1 0 0zm-.8.6h-.2c0 .1 0 .1.2 0-.1.1 0 .1 0 0 0 .1 0 0 0 0zm-1.1.2c-.1.1-.1.1 0 0-.1.1-.1.2 0 0 .1.1.1.1 0 0zm-.9-3.7h-.2c-.1 0-.1.1-.1.2l.1.1c.1.1.1.1.2.1l.1-.1c.1-.1.1-.1.1-.2l-.2-.1zm6.5-.5c.1 0 .1 0 0 0 .1-.1.1-.1 0 0 0-.1 0-.1 0 0zm-2.4 3.4c-.1 0-.1.1 0 0 0 .1 0 .1 0 0zm-1.7-.8c.1 0 .1 0 0 0 .1-.2 0-.2-.1-.2l.1.2c0-.1 0-.1 0 0zm1.1 2.9c0 .1 0 .1 0 0 0 .1 0 .1 0 0 .1.1.1.1 0 0zm-.1-5.5c0-.1 0-.1 0 0 0-.1 0-.1 0 0 0-.1-.1-.1 0 0-.1-.1-.1 0 0 0zm-1.3 1.2l.1-.2s0-.1-.1-.1-.1.1 0 .3c-.1 0-.1 0 0 0zm1.4-4.6c-.1 0-.1 0 0 0-.1.1 0 .1 0 0z"/><path class="st13" d="M516.8 290.9c-.1.1-.1.2 0 .2h.1c.1 0 .1-.1.1-.1 0-.1-.1-.1-.2-.1zm.4-7.5c0-.1 0-.1 0 0-.1 0-.1 0 0 0zm-1.2 5.5c-.2-.1-.3 0-.2.2l.1.1h.2v-.1c-.1-.1-.1-.1-.1-.2zm-.6-2.9c.1-.1.2-.1.1-.2h-.1c-.2.2-.1.2 0 .2zm6.2 6.4c0-.1.1-.1 0 0 0-.1 0-.1 0 0 0-.1 0-.1 0 0zm-11.3-3.1c.1 0 .1-.1 0 0 0-.1 0-.1 0 0zm6.6 3.5c0 .1 0 .1 0 0 0 .1 0 .1 0 0 0 .1 0 .2 0 0 .1 0 0 0 0 0zm-.7-3.4l.1.2h.2c.1 0 .1-.1.1-.2l-.1-.1c-.1-.1-.2-.1-.2-.1l-.1.2z"/><path transform="rotate(-22.205 515.188 288.186)" class="st8" d="M508.7 281.9h13v12.6h-13z"/><path class="st13" d="M512.8 288c-.1 0 0 0 0 0-.1 0-.1 0 0 0h-.2s.1.1.2 0c-.1-.1 0 0 0 0zm4.3.8l-.1.2c0 .1.1.1.1.1h.1c.1 0 .2-.2.1-.3v-.1s-.1 0-.2.1zm1.1.7c0 .1 0 .1 0 0 .1 0 .1-.1.1-.2l-.1.2zm-2.9 5.2c-.1 0-.1 0 0 0 0 .1 0 .1 0 0 0 .1 0 0 0 0zm7.3-5.3c0 .1 0 .1 0 0s0-.1 0 0zm-6-.5l-.1.2.1.1c0 .1.2.1.2.1s.1 0 .1-.1v-.2c0-.1-.1-.1-.1-.1h-.2zm-2.2 1.2l.1.2h.1c.1 0 .1-.1.1-.1v-.2l-.1-.1h-.1l-.1.2zm-2 3.5c-.1 0-.1 0 0 0-.1.1-.1.1 0 0-.1.1-.1.1 0 0 0 .1 0 .1 0 0 0 .1 0 0 0 0zm5.6-.3c-.1.1-.1.1 0 0-.1.1-.1.1 0 0 0 .1 0 0 0 0zm-.8-3.5c-.1-.1-.1-.1-.1-.2v-.1.1-.1h.2l.1.1v.4l-.1.1c-.1 0-.1.1-.2 0h-.1v-.1l.2-.2zm.3-.3c-.1.1 0 .1 0 0 0 .1 0 .1 0 0zm1 1.9c0-.1 0-.1 0 0-.1-.1-.1-.1-.2-.1v.1h.2zm-3.1.9l.2.1c0-.1-.1-.1-.2-.1.1 0 .1 0 0 0zm3.5-3.3c0 .1 0 .1 0 0 .1 0 .1 0 0 0zm1.6-1.3c.1 0 .1 0 0 0 .1 0 .1 0 0 0zm0-1.8c.1 0 .1 0 0 0 0-.1 0-.1 0 0zm-5.1 1.6v-.2l-.1-.1h-.2c-.1 0-.1.1-.1.1-.1 0-.1.1-.1.2v.1c.1.1.1.1.2.1.2-.1.3-.1.3-.2zm-3.3-.8s-.1-.1 0 0c-.1 0-.1 0 0 0zm2.2-.3c-.1.1-.1.1 0 0-.1.1-.1.2 0 .2h.1c.1 0 .1-.1.1-.2h-.2c.1 0 .1 0 0 0zm.7.4c.1-.1.1-.1 0 0 0-.1 0-.1 0 0-.1 0-.1 0 0 0zm-2.9-2.1s.1 0 0 0c.1 0 .1-.1 0 0 0-.1 0-.1 0 0 0-.1 0-.1 0 0zm2.6 3.4c0-.1-.1-.1-.2-.1s-.1.1-.1.1v.2c0 .1.1.1.2.1s.1-.1.1-.1v-.2zm.6 2c-.2-.2-.3-.1-.3-.1l-.1.1v.1s0 .1.1.1h.1c.1 0 .2-.1.2-.2zm-1.3.3c0 .2.1.2.1.2h.1s.1 0 .2-.1v-.3l-.1-.1h-.1l-.2.3zm2.4-.7c.1 0 .1-.1 0-.2l-.1-.1h-.1c-.1 0-.1.1-.1.1v.2c0 .1.1.1.1.1.1 0 .2 0 .2-.1zm-6.7 2c-.1 0-.1 0 0 0-.1 0-.1 0 0 0-.1 0-.1 0 0 0z"/><path class="st13" d="M516.2 288.8c0 .1.1.2.2.2h.1l.1-.1v-.2c0-.1-.1-.1-.1-.1h-.2l-.1.2zm-1.7.7c-.1-.1-.2-.1-.3-.1v.2c0 .1.2.2.3.1v-.2zm6.3 2.1c0 .1 0 .1 0 0 .1.1.1 0 0 0zm-6.5.5c-.1-.1-.1-.1-.2-.1v.2c0 .1.1.1.2.1v-.2zm5 1.1c0-.1 0-.1 0 0-.1-.1-.1-.1 0 0 0 .1 0 0 0 0zm-3.7-1.7l.2.1c.1 0 .2-.1.1-.3l-.1-.1h-.3c0 .1 0 .2.1.3zm2.5-1c.1-.2.1-.1 0 0zm-1.6.5v.2c0 .1.1.1.1.1.1 0 .1 0 .2-.1v-.2c0-.1-.2-.1-.3 0zm-4.4 1.2s-.1 0 0 0c-.1.1-.1 0 0 0 0 .1 0 .1 0 0 0 .1 0 0 0 0zm5.4-1.4c.1.1.1.1 0 0 .1.1.1.1 0 0 .1 0 .1 0 0 0 0-.2 0-.1 0 0zm-1.2-.4l-.2-.1h-.1v.2c0 .1.1.1.2.1l.1-.2v.2h.1l-.1-.2zm-2.1 3s0-.1 0 0c0-.1 0-.1 0 0 0-.1 0 0 0 0zm1-2.4c.2 0 .2 0 .2-.1v-.2l-.1-.1h-.1c-.1 0-.1.1-.1.1 0 .1 0 .1.1.3zm-1.6.7c0-.1-.1-.1-.2-.1s-.1.1-.1.1.1.1.3 0c-.1.2-.1.1 0 0zm1.4-.2l.1-.2v-.1l-.1-.1h-.1c-.1 0-.1.1-.1.1v.3c0 .1.1.1.2 0zm-3 4.2c0-.1 0-.1 0 0 0-.1 0-.1 0 0-.1 0-.1 0 0 0-.1 0-.1 0 0 0-.1 0-.1 0 0 0zm1.8-4.7l-.2-.1h-.1v.1s0 .1.1.1.1 0 .2-.1zm3.3.6c-.1-.2-.2-.2-.2-.1v.1c0 .1.1.1.2 0 0 .1 0 .1 0 0zm.2 1c-.1-.1-.1-.1-.2-.1v.2l.2-.1c-.2.1-.2.1 0 0zm-1.4-.7c0-.2-.1-.2-.1-.2h-.1s-.1.1 0 .2c.1.2.2.1.2 0zm-.9.3h-.2v.1s0 .1.1.1h.1v-.2zm-1.1.2c0-.1-.1-.2-.2-.2l-.1.1v.2s0 .1.1.1l.2-.2zm-.4-2.8c.1 0 .1 0 .2-.1l.1-.1v-.2l.1-.1v-.1l-.1-.1h-.1l-.1.1v.2h-.1c-.1.1-.1.2-.1.2 0 .2 0 .2.1.2zm3.3-1.7h-.2v.2c0 .1.1.1.1.1h.2c.1-.1.1-.1.1-.2-.1 0-.2-.1-.2-.1zm1.3-2.1c.1 0 .1-.1 0 0 0-.1 0-.1 0 0zM513 291c-.1-.1-.1-.1-.2-.1s-.1.1-.1.1h.3c0 .1 0 .1 0 0zm-.2-.9c.1 0 .1-.1 0-.2l-.1-.1h-.1v.1l.2.2zm1.5-6.1c-.1-.1-.1 0 0 0-.1 0-.1.1 0 0 0 .1 0 .1 0 0zm.8 5c-.1.1-.1.1-.1.2l.1.1c.1.1.2 0 .2 0s.1-.1.1-.2v-.1s-.1-.1-.3 0zm-2.5 1.9c0-.2-.1-.2-.1-.2l.1.2c-.1 0-.1 0 0 0zm2.8-1.3s-.1.1 0 .2.2.1.2 0l.1-.1c.1-.1.1-.1.1-.2l-.1-.1h-.2l-.1.2c.1-.1 0-.1 0 0zm-2.2 1.2s.1 0 0 0c.1-.1 0-.1 0 0-.2-.1-.2 0-.2.1l.2-.1zm4.7-2.4c-.1 0-.1 0 0 0l-.2.1v.1h.1v.1s0 .1.1.1h.1v-.2l-.1-.2c.1 0 .1 0 0 0zm2.3 1.5c-.1-.1-.1-.1 0 0-.1-.1-.1-.1 0 0 0 .1 0 .1 0 0 0 .1 0 .1 0 0zm-2.2-1.7v.1h.2v-.2h-.2zm-4.2 2v-.3h-.1c-.1 0-.1 0-.2.1 0 .1-.1.1 0 .2 0 .1.1.1.1.1s.1 0 .2-.1zm2.2-1c.2.1.3.1.3.1l.1-.1v-.1h-.1c-.2-.1-.3 0-.3.1zm-5.4-.4c-.1 0-.1 0 0 0-.1.1-.1.1 0 0-.1.1-.1.1 0 0zm6.5-1.9c-.1-.1-.2-.1-.2 0-.1 0-.1.1-.1.2v.1s0 .1.1.1h.2v-.4zm-5.4.6c-.1 0-.1 0 0 0-.1 0-.1 0 0 0zm3.7-1.7l.2.1h.1c0-.1-.1-.1-.1-.1h-.2zm-1.6 1.3c0-.1-.1-.1 0 0l-.2-.1v.1c0 .1.1.1.2 0-.2.1-.1.1 0 0zm-.5-.1c-.1-.1-.1-.1-.2-.1v.2l.2-.1c0 .1 0 0 0 0zm1.2-1.2c-.1-.1-.2-.1-.2 0v.1l.2-.1c-.1.1-.1.1 0 0zm-.9 2.1c-.1-.2-.2-.2-.2-.2h-.1v.1s-.1.1 0 .2v.1h.2c.1 0 .1 0 .1-.2.1.1 0 .1 0 0zm-1.3.6c0-.1 0-.1 0 0zm1.6 6.4c.1 0 .1 0 0 0 0-.1 0-.1 0 0zm2.1-9.9c0 .1.1.2.2.1v-.1s0-.1-.2 0c.1-.1.1-.1 0 0zm-3.5 3.1c-.2-.1-.2-.1-.2 0v.1s0 .1.1.1c0-.1.1-.1.1-.2zm2.8-5.5c-.1 0-.1.1 0 0-.1.1-.1.1 0 0-.1.1 0 .1 0 0 .1.1 0 .1 0 0zm-5.4 1.2c0 .1 0 .1 0 0 0 .1 0 .1 0 0 .1.1.1 0 0 0zm3.2 4l.1-.2s-.1 0-.1.2c-.1-.1 0 0 0 0zm1.7-2.5c-.1.1-.1.1 0 0v.2h.1l-.1-.2c.1 0 0 0 0 0zm-.6.4l.1-.2-.1.2zm1.7 1.5c.2.2.3.1.4 0v-.3l-.1-.1h-.1c-.1 0-.1.1-.2.2v.2zm-2.1.4c0 .2.1.2.1.2h.2l.1-.1v-.1c0-.1-.1-.1-.1-.1-.1 0-.2 0-.3.1zm3-1.9c-.1.1-.1.1 0 0 0 .1 0 .1 0 0 .1 0 .1 0 0 0l.1-.2-.1.2c.1 0 .1 0 0 0zm.7.9v.2s.1 0 0-.2c.1.1.1 0 0 0 .1-.1 0-.1 0 0zm.4.9l.2.1v-.1h-.2c.1 0 .1 0 0 0zm-3.7 1.2v.2c0 .1.1.1.2.1l.1-.1c.1-.1.1-.1.1-.2l-.1-.1c-.1-.1-.1-.1-.2-.1l-.1.2zm-1-6.4c-.1-.1-.1 0 0 0-.1.1-.1.1 0 0-.1.1-.1 0 0 0-.1 0-.1 0 0 0zm3.5 2.1c.1 0 .1 0 0 0 .1 0 .2 0 0 0 0-.1 0 0 0 0zm-.6 1.8c0-.1 0-.1 0 0-.2-.1-.2 0-.2.1l.2-.1c-.1.1-.1.1 0 0zm-2.7-.9s-.1 0 0 0c-.1 0-.1.1 0 0-.1.1-.1.1 0 0 0 .1 0 .1 0 0zm1.3 1.4s0-.1 0 0l-.2-.1s-.1 0-.1.1.1.1.3 0c0 .1.1 0 0 0z"/><path class="st13" d="M517 287.5c.1.1.2.1.2 0v-.1l-.1-.1c-.1 0-.1 0-.1.2zm-7.5.1c0-.1-.1-.1 0 0-.1 0-.1 0 0 0zm5.5.8l-.1.2c0 .1.1.2.3.1l.1-.1v-.2h-.1c0-.1-.1-.1-.2 0zm-2.8.8c-.1-.1-.2-.1-.2-.1v.1c.2.1.2.1.2 0zm6-6.7s-.1 0 0 0c-.1.1-.1.1 0 0-.1.1 0 .1 0 0 0 .1 0 .1 0 0zm-2.3 11.5s0-.1 0 0c-.1-.1-.1-.1 0 0-.1-.1-.1 0 0 0zm3-6.8c.1 0 .1 0 0 0 .1-.1.2-.1 0 0 0-.1 0 0 0 0zm-3.4.9l.2-.1v-.2c0-.1-.1-.1-.2-.1l-.1.1c-.1.1-.1.2.1.3z"/><path transform="rotate(-29.191 514.175 287.301)" class="st8" d="M507.9 280.8h12.6v13h-12.6z"/><path class="st13" d="M514.1 285c0-.1 0-.1 0 0 0-.1 0-.1 0 0-.1-.1-.1-.1 0 0l-.1-.2s-.1.1.1.2c-.1 0-.1 0 0 0zm-.3 4.3h-.2c-.1 0-.1.1-.1.2v.1c.1.1.2.1.3.1v-.1c.1-.1.1-.2 0-.3zm-.5 1.2c-.1 0-.1 0 0 0 0 .1.1.1.2.1l-.2-.1zm-5.6-2.2c0-.1 0-.1 0 0 0-.1-.1 0 0 0zm6.2 6.6c-.1 0-.1.1 0 0 0 .1 0 .1 0 0z"/><path class="st13" d="M513.6 288.8h-.2l-.1.1c-.1.1-.1.2-.1.3 0 0 0 .1.1.1h.2c.1 0 .1-.1.1-.2.1-.1.1-.2 0-.3zm-1.4-1.9l-.2.1v.1c0 .1.1.1.1.1h.2v-.1l-.1-.2zm-3.8-1.7c0-.1 0-.1 0 0 0-.1 0-.1 0 0-.1-.1-.1-.1 0 0-.1 0-.1 0 0 0 0 .1 0 .1 0 0zm1 5.5c0-.1 0-.1 0 0 0-.1 0-.1 0 0-.1 0 0 0 0 0zm3.4-1.1c.1-.1.1-.1.2-.1h.1v.2l-.1.1h-.2l-.1.1h-.1l-.1-.1c0-.1-.1-.1-.1-.2v-.1h.1l.3.1zm.3.2s-.1 0 0 0zm-1.7 1.4c.1 0 .1 0 0 0 .1-.1.1-.1.1-.2h-.1v.2zm-1.4-3.1v.2c.1 0 .1-.1 0-.2.1.1.1 0 0 0zm3.9 3.1l-.1.2v.1h.2l-.1-.3zm3.2 1.1s0 .1 0 0c0 .1 0 .1 0 0 .1 0 .1 0 0 0zm-2.3-4.8h.2v-.3c0-.1-.1-.1-.1-.1 0-.1-.1-.1-.2-.1l-.1.1c-.1.1-.1.1-.1.2.2.1.2.2.3.2zm.5-3.4s.1-.1 0 0c-.1-.1-.1-.1 0 0-.1 0-.1 0 0 0zm.5 2.2c-.1 0-.1 0 0 0l-.2-.1-.1.1v.1c0 .1.1.1.3-.1 0 .1 0 .1 0 0zm-.3.8c.1.1.1.1.2.1v-.2l-.2.1c.1-.1.1-.1 0 0zm1.8-3.2c.1.1.1.1 0 0 .1-.1.1-.1 0 0 0-.1 0-.1 0 0zm-3.1 3c.1 0 .1-.2.1-.2 0-.1-.1-.1-.1-.1h-.2c-.1 0-.1.2-.1.2 0 .1.1.1.1.1h.2zm-1.9.8c.2-.2.1-.3.1-.3h-.2s-.1 0-.1.1v.1c0 .1.1.1.2.1zm-.5-1.2h-.2c-.1 0-.1.1-.1.1v.1s0 .1.1.1h.3v-.1l-.1-.2zm1 2.3c.1 0 .1.1.2 0v-.2c0-.1-.1-.1-.1-.1h-.2c-.1 0-.1.1-.1.2.1 0 .1 0 .2.1zm-2.8-6.5s0-.1 0 0c0-.1 0-.1 0 0 0-.1 0-.1 0 0zm3.7 6.1c-.1 0-.2.1-.2.2v.1l.1.1h.2c.1 0 .1-.1.1-.1v-.2l-.2-.1zm-1-1.5c.1-.1.1-.2 0-.3h-.2c-.1.1-.1.2-.1.3l.1.1.2-.1zm-1.3 6.5s0-.1 0 0c0-.1-.1 0 0 0zm-1.3-6.4c.1-.1.1-.1.1-.2h-.2s0 .1.1.2c-.1.1-.1.1 0 0zm-.4 5.1c.1-.1.1-.1 0 0 .1-.1.1-.1 0 0zm1.2-3.9l-.1.2c0 .1.1.1.3.1l.1-.1v-.1c0-.1 0-.1-.1-.2 0 0-.1 0-.2.1.1-.1 0-.1 0 0zm1.4 2.3c.1.1.1.1 0 0zm-.8-1.5h-.2c-.1 0-.1.1-.1.1 0 .1 0 .1.1.2h.2c.2-.1.2-.2 0-.3zm-1.7-4.2c0-.1 0-.1 0 0-.1-.1-.1-.1 0 0-.1 0-.1 0 0 0-.1 0 0 0 0 0zm2.1 5.2c-.1.1-.1.1-.1.2h.1v-.2c.1-.1.1-.1 0 0zm.2-1.3l.1-.2v-.2h-.2c-.1 0-.1.1-.1.2h.1l-.1.1v.1h.2zm-3.2-1.6c.1-.1.1-.1 0 0 0-.1 0-.1 0 0 0-.1 0-.1 0 0zm2.5.6c0 .2.1.2.1.2h.2l.1-.1v-.1c0-.1-.1-.1-.1-.1-.1 0-.1 0-.3.1zm-1-1.5c.1 0 .1-.1.1-.2s-.1-.1-.2-.1c0 0 0 .1.1.3-.2-.1-.1 0 0 0zm.5 1.3l.2.1.1-.1v-.1c0-.1-.1-.1-.1-.1h-.2v.2c-.1 0-.1 0 0 0zm-4.5-2.4c-.1-.1-.1-.1 0 0-.1-.1-.1-.1 0 0-.1-.1-.1-.1 0 0-.1 0-.1 0 0 0zm4.8 1.2l.1-.2h-.1v.2c-.1-.1-.1 0 0 0zm-.2 3.4c.1-.1.1-.2.1-.2h-.1s-.1.1 0 .2c-.1 0-.1 0 0 0zm-1 .2s0 .1 0 0c.1-.1.1-.1.1-.2h-.2l.1.2c-.1-.1-.1 0 0 0zm.5-1.3l.2-.1v-.1h-.2c-.2.1-.1.1 0 .2zm-.4-.9v-.2h-.1l-.1.1v.1h.2zm-.3-1.1c.1 0 .2-.1.2-.2l-.1-.1h-.2s-.1 0-.1.1l.2.2zm2.7-.8l.2.2.1.1h.2l.1.1h.1l.1-.1v-.1l-.1-.1h-.2v-.1c-.1-.1-.2-.1-.3-.1s-.2.1-.2.1zm2 3.1v-.2h-.2c-.1 0-.1.1-.1.1v.2c.1.1.2.1.3-.1 0 .1 0 0 0 0zm2.4 1c0 .1.1.1 0 0 .1 0 .1 0 0 0zm-5.8-4.4c.1-.1.1-.2 0-.2 0 0-.1-.1-.1 0s0 .1.1.2c-.1 0-.1 0 0 0zm.8-.3c0 .1.1.1.2 0l.1-.1v-.1h-.1l-.2.2zm6.3.8c0-.1 0-.1 0 0 0-.1-.1 0 0 0zm-7.1-2.4c-.1 0-.1 0 0 0-.1.1 0 0 0 0zm2.3 3.9c-.1-.1-.2-.1-.2-.1l-.1.1c-.1.1 0 .2 0 .2s.1.1.2.1h.1v-.3zm-2.3-2.4l.2-.1-.2.1c0-.1 0-.1 0 0zm1.7 2.6h-.2c-.1.1-.1.2 0 .2l.1.1c.1.1.2.1.2.1l.1-.1v-.2l-.2-.1c.1.1.1.1 0 0zm-1.5-2s0 .1 0 0c.2.1.2 0 .2-.1s-.1-.1-.2-.1v.2zm2.9 4.4c0-.1 0-.1 0 0l-.2-.1v.1h-.2l-.1.1s0 .1.1.1h.3l.1-.2zm-1.1 2.4c0 .1 0 .1 0 0-.1 0-.1 0 0 0-.1 0-.1 0 0 0 0 .1 0 .1 0 0zm1.3-2.4h-.1v.2h.2v-.2zm-2.4-3.9h.2v-.2c0-.1 0-.1-.1-.2h-.2c-.1 0-.1.1-.1.1.1.1.1.2.2.3zm1.3 2.1c-.1.2-.1.3-.1.3h.1l.1-.1-.1-.2c.1 0 0 0 0 0zm-.3-5.3c0-.1 0-.1 0 0-.1-.1-.1-.1 0 0-.1-.1-.1 0 0 0zm2.7 6.1c.1-.1.1-.2 0-.2 0-.1-.1-.1-.2-.1h-.1l-.1.1v.2h.4zm.8-1.7l-.1.2c.1-.1.1-.1.1-.2zm-1.4-1.6c.1 0 .1-.1.1-.2v-.1h-.1c-.1 0-.1.1-.1.1 0 .1 0 .1.1.2zm0-.5c.1-.1.1-.1.1-.2h-.2l.1.2c-.1 0 0 0 0 0zm1.3 1.1c.1-.1.1-.2 0-.2h-.1l.1.2c-.1 0 0 0 0 0zm-2.2-.6c.2-.1.2-.2.2-.3v-.1h-.4v.2c0 .1.1.1.2.2-.1 0 0 0 0 0zm-.7-1.3c.1 0 .1 0 0 0zm-6.2 2.4c.1.1.1.1 0 0 .1 0 .1 0 0 0 .1 0 .1 0 0 0zm10.1.9c-.1 0-.2.1-.1.2h.1v-.2c.1.1.1 0 0 0zm-3.5-3.1c.1-.2 0-.2 0-.2h-.1l-.1.1c.1 0 .1 0 .2.1zm5.8 2.2c0-.1 0-.1 0 0-.1-.1-.1-.1 0 0-.1 0-.1 0 0 0-.1 0-.1 0 0 0-.1 0 0 0 0 0zm-1.9-5.3c-.1 0-.1 0 0 0-.1 0-.1 0 0 0 0 .1 0 0 0 0zm-3.6 3.7h.2s0-.1-.2 0c0-.2 0-.1 0 0zm2.7 1.4c0-.1 0-.1 0 0-.2 0-.2 0-.2.1v.1h.1c.2-.1.2-.2.1-.2zm-.4-.7s0 .1.2.1h.1-.1v-.2l-.2.1zm-1.3 1.9c-.1.2 0 .3 0 .3h.2l.1-.1v-.1c0-.1-.1-.1-.3-.1zm-.7-2c-.2 0-.2.1-.2.1v.2l.1.1h.1c.1 0 .1-.1.1-.2.1-.1 0-.1-.1-.2zm2.4 2.8c-.1-.1-.1-.1-.2-.1v.2l.2-.1c-.1.1-.1.1 0 0zm-.8.7h-.2s0 .1.2 0c-.1.1-.1.1 0 0 0 .1 0 .1 0 0zm-1 .6l-.1.2h.1v-.2c.1.1.1 0 0 0zm-1.5-3.5h-.2c-.1 0-.1.2-.1.2l.1.1h.2l.1-.1c.1-.1 0-.1-.1-.2zm6.1-1.9c.1 0 .1 0 0 0 0-.1 0-.1 0 0 0-.1 0-.1 0 0zm-1.6 3.8c0 .1 0 .1 0 0 0 .1.1.1 0 0 .1 0 0 0 0 0zm-1.8-.4c.1 0 .1 0 0 0l.1-.2c0-.1-.1-.1-.2-.1v.1l.1.2zm1.7 2.7c0 .1 0 .1 0 0 0 .1 0 .1 0 0 0 .1.1 0 0 0zm-1.2-5.5s0-.1 0 0c0-.1-.1-.1 0 0-.1-.1-.1 0 0 0-.1 0-.1 0 0 0z"/><path class="st13" d="M515.6 286.8s.1 0 0 0l.1-.2-.1-.1c-.1 0-.1.1 0 .3-.1 0 0 0 0 0zm-.5 2.2c-.1.1-.1.2 0 .2h.1l.1-.1c0-.1-.1-.1-.2-.1zm-1-7.4c0-.1 0-.1 0 0-.1 0-.1 0 0 0zm-.1 5.7h-.2c-.1 0-.2.2-.1.3l.1.1h.1l.1-.1v-.1c.1-.1.1-.1 0-.2zm-1.2-2.8c.1-.1.1-.2.1-.3h-.1c-.1.3-.1.3 0 .3zm7.3 5.1c.1 0 .1 0 0 0 0-.1 0-.1 0 0zm-11.6-.8s.1 0 0 0c.1-.1.1-.1 0 0 0-.1 0-.1 0 0 0-.1 0 0 0 0zm7.1 2.2s0 .1 0 0c0 .1 0 .1 0 0 .1.1.1.1 0 0 .1 0 0 0 0 0zm-1.3-3.3l.1.2h.2c.1 0 .1-.1.1-.2l-.1-.1c-.1-.1-.2 0-.3.1z"/></g><path class="st11" d="M520.2 287.9c-.4.1-1.3-1.2-2.6-2.1-1.3-1-2.2-1.6-1.8-2.1.5-.5 2.3-.3 3.5 1.2 1.3 1.4 1.3 3 .9 3zm1.3 1.4c-.1 0-.2-.2-.4-.5-.1-.2-.1-.5.2-.6.3-.1.5.2.5.5-.1.3-.3.6-.3.6z"/></g></g><linearGradient id="SVGID_3_" gradientUnits="userSpaceOnUse" x1="234.883" y1="348.106" x2="434.675" y2="348.106" gradientTransform="rotate(40.226 421.627 389.732)"><stop offset="0" stop-color="#ffc171"/><stop offset="1" stop-color="#e23d66"/></linearGradient><path d="M406.9 427.4C331 363.3 321.6 249.8 385.7 174" opacity=".72" fill="none" stroke="url(#SVGID_3_)" stroke-width="40" stroke-miterlimit="10"/><linearGradient id="SVGID_4_" gradientUnits="userSpaceOnUse" x1="118.906" y1="399.144" x2="457.341" y2="399.144" gradientTransform="rotate(40.226 421.627 389.732)"><stop offset="0" stop-color="#ff7a28"/><stop offset=".206" stop-color="#f86b37"/><stop offset=".72" stop-color="#e84a59"/><stop offset="1" stop-color="#e23d66"/></linearGradient><path d="M342.1 535.5C226.3 412 212.5 222.7 310.2 83.5" opacity=".72" fill="none" stroke="url(#SVGID_4_)" stroke-width="40" stroke-miterlimit="10"/><circle class="st17" cx="230" cy="310.8" r="9.6"/><circle class="st17" cx="362.6" cy="310.8" r="9.6"/><circle class="st17" cx="635.3" cy="310.8" r="9.6"/><path class="st17" d="M136.4 626.1l1.1-313.4m234.3-1.9h75.6m0 314.5L446.3 310m198.5-.5l95.8-.8m.6 313.7l-.8-313.8m-602.9 4.5l81.3-1.5"/><text transform="translate(99.078 655.408)" class="st18 st19 st20">Psychology</text><text transform="translate(384.96 655.408)" class="st18 st19 st20">Conversational UI</text><text transform="translate(666.401 655.408)" class="st18 st19 st20">Artificial Intelligence</text></svg>