<svg version="1.1" id="Calque_1" xmlns="http://www.w3.org/2000/svg" x="0" y="0" viewBox="0 0 942.8 738.1" xml:space="preserve"><style>.st4{fill:#ed9e6e}.st7{fill:#2d275e}.st8{fill:none}.st11{fill:#70728e}.st12{opacity:.29}.st13{fill:#53508f}.st17{fill:none;stroke:#fff;stroke-width:3;stroke-miterlimit:10}.st18{fill:#fff}.st19{font-family:&apos;OpenSans-Light&apos;}.st20{font-size:24px}</style><g opacity=".84"><circle cx="576.4" cy="279.3" r="98.9" fill="#dedefc"/><path d="M560.5 253.1c-.5 24.7-5.5 48.2-9 64.8-3.7 17-5.9 26.9-5.8 28.4-.2 1.4.9-6.7-1.7-19.9-2.3-13.2-8.1-31.4-16.6-48.7-8.3-17.6-16.5-30.6-19-42.6-2.7-11.8.3-22.6 9.5-31.3 8.9-8.3 21.1-10.9 29.7-2.5 8.5 8.4 13.5 27.4 12.9 51.8z" fill="#ff7473" opacity=".58"/><path class="st4" d="M520 337.5c0 .1.1.1 0 0 .1-.1.1-.3-.1-.4.1 0 .1.2.1.4M652.8 317s.1-.1 0 0c.1-.2 0-.4-.1-.6 0 .3 0 .4.1.6"/><linearGradient id="SVGID_1_" gradientUnits="userSpaceOnUse" x1="618.125" y1="413.901" x2="650.081" y2="413.901" gradientTransform="rotate(-8.824 -260.026 366.828)"><stop offset="0" stop-color="#ff7bac"/><stop offset="1" stop-color="#ff7bac" stop-opacity="0"/></linearGradient><path d="M646.5 273.7c1.3 8.7-4.6 16.8-13.3 18.3-8.7 1.4-16.8-4.6-18.3-13.3-1.4-8.7 4.6-16.8 13.3-18.3 8.9-1.3 17 4.6 18.3 13.3" opacity=".56" fill="url(#SVGID_1_)"/><linearGradient id="SVGID_2_" gradientUnits="userSpaceOnUse" x1="519.394" y1="438.017" x2="551.35" y2="438.017" gradientTransform="rotate(-8.824 -260.026 366.828)"><stop offset="0" stop-color="#ff7bac"/><stop offset="1" stop-color="#ff7bac" stop-opacity="0"/></linearGradient><path d="M552.7 312.7c1.3 8.7-4.6 16.8-13.3 18.3-8.7 1.3-16.8-4.6-18.3-13.3-1.4-8.7 4.6-16.8 13.3-18.3 8.7-1.3 17 4.6 18.3 13.3" opacity=".56" fill="url(#SVGID_2_)"/><g id="boquita"><path class="st7" d="M596.1 326.5c-16.1 6.3-25.5.3-27.3-4-.5-1.1.1-2.4 1.3-3l40.2-15.8c1.1-.5 2.4.1 3 1.3 1.6 4.3-1.3 15.1-17.2 21.5z"/><path class="st8" d="M605.7 311.4c2.6-.9 5.3-1.5 7.8-2 0-1.4-.2-2.5-.8-3.4-.5-.9-1.9-1.3-3-.8L573 322.5c-1.1.4-1.5 1.7-.9 2.5 1 1.7 3.7 3.3 8 4 4.8-7.3 13.9-13.9 25.6-17.6z"/><path d="M580.1 329c4.6.7 11 0 18.6-3.5 11.1-5.2 14.6-11.8 14.9-16.1-2.6.4-5.2 1.1-7.8 2-11.8 3.7-20.9 10.3-25.7 17.6z" fill="#eb7c87"/><g><path class="st8" d="M606.7 307.5c2.2-.7 4.4-1.2 6.5-1.4.2-1.8.2-3.4-.1-4.5-.3-1.3-1.4-2-2.3-1.4l-32.2 17c-.9.5-1.5 1.9-1.2 3.2.5 2.2 2.4 4.9 5.7 6.2 5.2-8.8 13.5-15.9 23.6-19.1z"/><path d="M586.6 321.7c3.6 1.5 5.3 7.3 12.1 3.8 9.8-5.2 14.6-10.8 14.9-16.1-1.2-.1-5.9 1.4-8.5 1.3-10 4.7-11 4.5-18.5 11z" opacity=".54" fill="#843843"/></g></g><g id="eye_right"><path class="st7" d="M603.2 238.6c-7.2 1.1-12 7.8-10.9 15 1.1 7.2 7.8 12 15 10.9 7.2-1.1 12-7.8 10.9-15-1.3-7.2-8-12-15-10.9"/><path class="st11" d="M612.1 246.8c-.4.1-1.3-1.1-2.6-2s-2.2-1.4-1.8-1.9 2.3-.3 3.5 1.1c1.2 1.3 1.2 2.8.9 2.8zM612.9 248.4c-.1 0-.2-.2-.3-.4-.1-.2 0-.4.2-.6.2 0 .4.2.3.6 0 .1-.1.4-.2.4z"/><g class="st12"><path transform="rotate(-61.828 609.553 251.505)" class="st8" d="M602.4 244.2h14.2v14.6h-14.2z"/><path class="st13" d="M611.1 253.6s.1 0 0 0l.1.1h.1v-.1c-.1-.1-.2-.1-.2 0zM608.7 249.3h.2v-.2l-.1-.1c-.1-.1-.2 0-.3.1v.1s.1.1.2.1zM608.5 247.9s0 .1.1.1v-.1c0-.1-.1-.1-.2-.1s-.1 0-.1.1h.2zM615.1 246.6s0 .1 0 0c0 .1 0 .1 0 0 .1 0 .1 0 0 0zM605.3 244.2c0-.1 0-.1 0 0-.1-.1-.1-.1 0 0-.1 0-.1 0 0 0zM609.1 249.7h.1l.1-.1v-.1c0-.1 0-.2-.1-.2h-.1c-.1 0-.1 0-.2.1V249.7c.1-.1.2 0 .2 0zM611.6 250.7l.1-.1v-.1l-.1-.1h-.2c-.1 0-.1.1-.1.1v.1l.1.1h.2zM616.3 250c.1 0 .1 0 0 0 .1.1.1 0 .1 0 0-.1-.1-.1-.1 0 0-.1 0-.1 0 0zM612 245.4s0 .1 0 0l.1.1-.1-.1c.1 0 .1 0 0 0 .1 0 .1 0 0 0 .1 0 0 0 0 0zM609.4 248.6l.1.1c0 .1-.1.1-.1.1l-.1.1-.1.1h-.2v-.1c0-.1.1-.1.1-.1v-.1l.1-.1h.1c.1 0 .1.1.2.2v.2l-.1-.4zm-.3-.1zM609.8 246.3l-.1.1v.2s.1 0 .1-.1v-.2zM613 248.2l.1-.1-.1-.1c-.1 0-.1.1 0 .2-.1-.1-.1 0 0 0zM607.5 247.6l.1-.1v-.1h-.2l-.1.1v.1h.2zM605.4 247.1c0-.1-.1-.1 0 0-.1-.1-.1-.1-.1 0h.1c-.1-.1-.1 0 0 0-.1 0-.1 0 0 0zM603.7 248.5c-.1-.1-.1-.1 0 0-.1 0-.1 0 0 0zM608.7 251.7l-.1.1s-.1 0-.1.1v.2l.1.1c.1 0 .1.1.2 0h.2l.1-.1c0-.1 0-.2-.1-.2 0-.1-.1-.2-.3-.2zM610.3 255.2s0 .1.1.1v-.1h-.1c.1 0 .1 0 0 0zM608.6 253.4h.2v-.1s0-.1-.1-.1h-.2l.1.2zM608.3 252.5h-.1V252.8h.2v-.1l-.1-.2c.2 0 0 0 0 0zM608.7 256.6h-.1.1c-.1.1 0 .1 0 0zM609.8 251.9c0 .1 0 .2.1.3.1 0 .1.1.2 0h.1c0-.1 0-.2-.1-.2s-.1-.1-.2 0c0-.2 0-.1-.1-.1zM611.1 249.9l-.1.1c0 .1.1.2.1.2h.1l.1-.1v-.1l-.1-.1h-.1zM612.3 250.9l.1-.1v-.2s-.1-.1-.2 0c0 0-.1 0-.1.1 0 0-.1 0-.1.1v.1l.1.1h.1l.1-.1zM610 249.2c-.1 0-.1 0-.2.1v.2h.2c.1 0 .1 0 .1-.1v-.2h-.1zM616.5 253.7c0 .2 0 .2 0 0 .1.2.1.2 0 0h.1-.1c0-.1 0 0 0 0zM609.3 250.1l.1-.1v-.2l-.1-.1h-.1c-.1 0-.1.1-.1.1v.2c0 .1.1.1.1.1h.1zM611.2 251c0 .1 0 .2.1.3h.1c.1 0 .1 0 .1-.1.1-.1 0-.2-.1-.3h-.1l-.1.1zM613.5 249.3V249.6h.2c0-.1 0-.1-.1-.2 0-.2 0-.2-.1-.1zM610.9 244.2c0 .1 0 .1 0 0v.1-.1c.1 0 0 0 0 0zM612.1 248.7v-.1l-.1-.1c-.1 0-.2-.1-.3.1v.2c0 .1.1.1.2.1s.1-.1.2-.2c0 .1 0 0 0 0zM609.4 247.4l-.1-.1-.1.1c0-.1.1 0 .2 0zM611 248.4c.1-.1.1-.1.2-.1v-.2c0-.1-.1-.1-.2-.1h-.1l-.1.1c-.1.1 0 .2.1.3h.1zM615.3 251.2c.1-.1.1-.1 0 0 0-.1 0 0 0 0zM610.1 247.6v-.2.1h.1l-.1.1zM610.7 248.9v.1l.1.1h.2v-.1c0-.1 0-.2-.1-.2l-.1.1.1-.1h-.1l-.1.1zM614.7 248.6c0 .1 0 .1 0 0 0 .1 0 0 0 0 .1 0 .1 0 0 0zM611.9 249.3c-.1-.1-.2-.1-.2-.1-.1 0-.1.1-.1.1v.1l.1.1c.1 0 .1.1.2 0 .1 0 .1-.1.1-.1l-.1-.1zM613.8 250.3v.2c.1 0 .1.1.2 0 0-.1 0-.1-.1-.1.1-.2.1-.2-.1-.1zM612.5 249.2h-.1l-.1.1v.1l.1.1h.2c.1 0 .1-.1.1-.1v-.2c-.1.1-.1 0-.2 0zM618.2 248.8c0 .1 0 .1 0 0 0 .1 0 .1 0 0 0 .1 0 .1 0 0 .2.1.2.1 0 0h.1-.1zM613 250.7l-.1.1v-.1h.1zM611.1 247.4c-.1.2 0 .2 0 .2s.1 0 .1-.1v-.2s-.1 0-.1.1zM611.9 246.5l-.1.2v.1H612.1v-.2l-.2-.1zM612.2 248l-.1.1v.1l.1.1c.1 0 .1 0 .1-.1.1-.2.1-.2-.1-.2zM613.1 248.7v.1l.1.1h.1v-.1s0-.1-.1-.1c0-.1 0-.1-.1 0zM614.2 249.6c-.1.1-.1.2 0 .3h.2v-.1c-.1-.2-.1-.2-.2-.2zM612 251.9l-.1-.1h-.2l-.1.1-.1.1h-.1l-.1.1v.1l.1.1h.1l.1-.1h.2c.1 0 .2 0 .2-.1.1 0 .1-.1 0-.2zM608.2 250.2c0 .1.1.1.1.1.1 0 .1-.1.1-.1v-.2c0-.1-.1-.1-.1-.1-.1 0-.2 0-.2.1s0 .2.1.2zM605.4 250.7c-.1-.1-.1-.1-.1 0h.1c-.1.1-.1.1 0 0zM613.5 251.3c0 .1 0 .2.1.2h.1c0-.1-.1-.1-.1-.1 0-.1 0-.1-.1-.1zM613 252.1c-.1 0-.1 0-.2.1v.1h.1s.1 0 .1-.1v-.1zM606.5 255.2c0 .1.1.1 0 0 .1 0 .1 0 0 0 .1 0 .1 0 0 0 .1 0 .1 0 0 0zM614.6 253.1s0 .1 0 0c.1 0 .1 0 0 0 .1 0 .1 0 0 0zM610.2 250.9c.1 0 .2 0 .2-.1v-.1c0-.1-.1-.2-.1-.2h-.2c0 .2 0 .3.1.4zM613.7 251.8h-.1v.2h.1v-.2c0 .1 0 .1 0 0zM610.5 250.2s.1 0 .2-.1c0-.1 0-.2-.1-.2h-.1c-.1-.1-.2 0-.2 0l-.1.1v.2s0 .1.1.1h.1c0-.1 0-.1.1-.1zM613.2 251.3s0-.1 0 0l-.1-.1v.2h.2l-.1-.1zM607.7 248.9c.1.1.1.1 0 0 .1.1.2.1.2.1s.1 0 .1-.1v-.1h.1s.1 0 .1-.1v-.1s0-.1-.1-.1c0 0-.1 0-.1.1h-.1v.1l-.2.2zM607.4 245.8c0 .1 0 .1 0 0 0 .1 0 .1 0 0h.1-.1c.1 0 .1 0 0 0 .1 0 .1 0 0 0zM607.6 249h.1v-.1l-.1-.1h-.2v.1l.1.1zM612.3 251.3c-.1 0-.1 0-.1.1v.2c0 .1.1.1.2.1s.1 0 .2-.1v-.2c-.2-.1-.2-.1-.3-.1zM609.8 250l.1-.1c0-.1-.1-.2-.2-.2h-.1l-.1.1v.1l.1.1h.2zM613.3 254.8c.1.2.1.2 0 0 .1.2.1.2 0 0h0zM607 250.8v.1H607.3s.1 0 .1-.1v-.1h-.1c0-.1 0-.1-.1-.1h-.2l-.1.1.1.1zM611.3 255c0 .1 0 .1 0 0 0 .1 0 .1 0 0 .1.1.1.1 0 0 .1.1.1.1 0 0 .1 0 .1 0 0 0 .1 0 0 0 0 0zM609.6 253.5c-.1.1 0 .2 0 .2H609.9v-.1c-.1-.1-.2-.1-.3-.1zM609.8 254v.1H610.1s0-.1-.1-.1h-.2zM607.9 253.7v.1s.1.1.1 0c0 0 .1 0 .1-.1v-.1h-.1c0 .1 0 .1-.1.1zM610.4 253c-.1.2-.1.3 0 .3h.2s.1 0 .2-.1V252.9s-.1-.1-.2-.1l-.2.2zM611.9 253.7s-.1 0 0 0l.1.1-.1-.1zM616.3 247.8c0-.1 0-.1 0 0-.1-.1-.1-.1 0 0-.1 0-.1 0 0 0zM606.1 253c.1-.1.1-.1 0-.2h-.2v.1c.1.1.1.1.2.1zM611.4 253.7l-.1.1h.1s.1 0 .1-.1v-.1c0 .3 0 .1-.1.1zM604.6 255.3c0 .1 0 .1 0 0h.1v-.1s-.1 0-.1.1c0-.1 0 0 0 0zM609.6 259.1c.1-.1.1-.1 0 0l.1-.1c-.1 0-.1.1-.1.1zM610.7 253.5h-.1v.1h.1s.1 0 .1-.1c0 .1 0 0-.1 0zM607.4 253.9c.1.1.1 0 .1 0v-.2l-.1-.1h-.2c-.1.1 0 .3.2.3zM608.1 254.2s-.1-.1-.2 0v.1h.2v.1-.2zM608.1 251.5v-.1c0-.1-.2-.2-.2-.2h-.1l-.1.1v.1l.1.1c.1.2.2.2.3 0zM610 253.1l.1-.1v-.2s0-.1-.1-.1h-.1l-.1.1v.2c0 .1.1.1.2.1zM606.1 251.8h.1v-.2-.1h-.2v.1l.1.2zM606.5 250.7c.1 0 .1 0 .1-.1h-.1v.1c-.2-.1-.1 0 0 0zM607 249.6l.1-.1c0-.1-.1-.1-.1-.1h-.1v.2h.1zM610.7 251.9c.1 0 .1-.1.2-.1 0-.1 0-.2-.1-.2h-.1c-.1 0-.1 0-.2.1v.1c0 .1 0 .1.1.2l.1-.1zM605.8 257.4c0 .1 0 .1 0 0 0 .1 0 .1.1.1l-.1-.1c.1.1.1.1 0 0 .1.1.1.1 0 0 .1.1.1.1 0 0zM605.2 252.8c-.1-.1-.1-.1-.1 0-.1.1.1 0 .1 0zM607 252.1c-.1 0-.1.1-.1.1l.1.1h.2v-.1l-.2-.1c.1 0 .1 0 0 0zM608.3 255.1s0 .1 0 0c.2.1.2 0 0 0 .2 0 .2 0 0 0 .2 0 .2 0 0 0zM608.5 252.9s0 .1 0 0v.1h.2v-.2h-.1c0 .1-.1.1-.1.1zM607.6 250.4v-.1h-.1s-.1 0-.1.1v.1c0 .1.1.1.2-.1zM609.8 251.4l.2-.1c0-.1 0-.2-.1-.3h-.1l-.1.1v.2c-.1 0 0 0 .1.1zM612.5 253.3v.1s0 .1.1.1v-.1c0-.2-.1-.2-.1-.1zM602.4 253c.1 0 .1 0 0 0 .1 0 .1 0 0 0 .1 0 .1-.1 0 0 .1-.1.1-.1 0 0zM614 246.7c0 .1 0 .1 0 0 .1 0 .1 0 0 0 .1 0 .1 0 0 0zM605.9 248.9c0-.1 0 0 0 0-.1 0-.1 0 0 0-.1-.1-.2-.1-.2 0 .2.1.2 0 .2 0zM609.1 251.2c0-.1 0-.1 0 0l-.2-.1-.1.1v.2h.1c.1 0 .2-.1.2-.1v-.1z"/><g><path transform="rotate(-64.793 608.363 250.498)" class="st8" d="M601.3 243.2h14.2v14.6h-14.2z"/><path class="st13" d="M606.7 248.5c0-.1 0-.1 0 0-.1-.1-.1-.1-.1 0h-.1v.1l.2-.1zM609.3 252.6h-.2v.2l.1.1c.1.1.2 0 .3-.1v-.1c.1-.1-.1-.1-.2-.1zM609.7 254s0-.1-.1-.1v.1c0 .1.1.1.2.1s.1 0 .1-.1h-.2zM603.2 255.6c-.1 0-.1 0 0 0-.1 0-.1.1 0 0 0 .1 0 .1 0 0zM613.1 257.6c0 .1 0 .1 0 0 0 .1.1.1 0 0z"/><path class="st13" d="M608.9 252.3h-.1l-.1.1v.1c0 .1 0 .2.1.2h.1c.1 0 .1 0 .2-.1v-.1-.2h-.2zM606.4 251.4l-.1.1v.1l.1.1h.2c.1 0 .1-.1.1-.1v-.1l-.1-.1h-.2zM601.7 252.4c0-.1 0-.1 0 0-.1-.1-.1-.1 0 0h-.1.1zM606.3 256.7s0-.1 0 0c-.1-.1-.1-.1-.1 0h.1c-.2 0-.2 0 0 0-.2 0-.2 0 0 0zM608.7 253.4l-.1-.1c0-.1.1-.1.1-.1l.1-.1.1-.1h.2v.1c0 .1-.1.1-.1.1v.1l-.1.1h-.1c-.1 0-.1-.1-.2-.2v-.2l.1.4zm.3 0c0 .1 0 .1 0 0 0 .1 0 .1 0 0zM608.5 255.7l.1-.1v-.1-.1s-.1 0-.1.1v.2zM605.2 254v.1l.1.1c0-.1 0-.1-.1-.2.1 0 .1 0 0 0zM610.7 254.3l-.1.1v.1h.2l.1-.1v-.1h-.2zM612.9 254.6c0 .1 0 .1 0 0 .1.1.1.1.1 0h-.1zM614.4 253.2s0 .1 0 0c0 .1.1.1 0 0zM609.2 250.2l.1-.1c0 .1 0 .1-.1.1.1-.1.2-.1.2-.2v-.2l-.1-.1h-.4l-.1.1c0 .1 0 .2.1.2 0 .2.1.3.3.2zM607.4 246.8s0-.1-.1-.1v.1h.1c-.2 0-.2 0 0 0zM609.2 248.5h-.2v.1s0 .1.1.1.1 0 .2-.1l-.1-.1c.1.1.1.1 0 0zM609.4 249.5h.1v-.2h-.2v.1l.1.1c0-.2 0-.2 0 0zM609 245.4h.1-.1c0-.1 0-.1 0 0 0-.1 0-.1 0 0zM608.1 250.1c0-.1 0-.2-.1-.2H607.7c0 .1 0 .2.1.2h.2c0 .1 0 0 .1 0zM606.9 252.1v-.1c0-.1-.1-.2-.1-.2h-.1l-.1.1v.1l.1.1c0 .1.1.1.2 0zM605.6 251.2l-.1.1v.2s.1.1.2 0c0 0 .1 0 .1-.1l.1-.1v-.1l-.1-.1h-.1l-.1.1zM608.1 252.8c.1 0 .1 0 .2-.1v-.1l-.1-.1h-.2c-.1 0-.1.1-.1.1v.2h.2zM601.3 248.6c-.1-.1-.1 0-.1 0h.1c0 .1 0 0 0 0zM608.7 251.9l-.1.1v.2l.1.1h.1c.1 0 .1-.1.1-.1v-.2c0-.1-.1-.1-.1-.1h-.1zM606.8 251c0-.1 0-.2-.1-.3h-.1c-.1 0-.1.1-.1.1 0 .1 0 .2.1.3h.1l.1-.1zM609.9 257.8c-.1 0-.1.1 0 0 0 .1 0 0 0 0zM604.5 252.9v-.2h-.2c0 .1 0 .1.1.1 0 .2.1.2.1.1zM607.5 257.8v-.1.1c-.1 0-.1.1 0 0zM606 253.4v.1l.1.1c.1 0 .2 0 .3-.1v-.2c0-.1-.1-.1-.2-.1s-.2.1-.2.2c0-.1 0 0 0 0zM608.7 254.6l.1.1.1-.1h-.2zM607 253.7l-.1.1v.2c0 .1.1.1.2.1h.1l.1-.1c.1-.1 0-.2-.1-.3h-.2zM608 254.4v.2h.1v-.1h-.1c.1-.2.1-.2 0-.1zM607.4 253.2v-.1l-.1-.1H607v.1c0 .1 0 .2.1.2l.1-.1v.1h.1v-.1h.1zM603.4 253.7c0-.1 0-.1 0 0-.1-.1-.1-.1 0 0-.1-.1-.1 0 0 0-.1 0-.1 0 0 0zM606.3 252.8c.1.1.2.1.2.1.1 0 .1-.1.1-.1v-.1l-.1-.1c-.1 0-.1-.1-.2 0-.1 0-.1.1-.1.1l.1.1zM604.2 251.9v-.2h-.2c0 .1 0 .1.1.1 0 .2 0 .2.1.1zM605.6 252.9h.1l.1-.1v-.1l-.1-.1h-.2c-.1 0-.1.1-.1.1v.2c0-.1 0 0 .2 0zM599.9 253.6c0-.1 0-.1 0 0 0-.1 0-.1 0 0-.1-.1-.1-.1 0 0-.1-.1-.1-.1 0 0h-.1.1zM605 251.5l.1-.1h-.1v.1c-.2 0-.2 0 0 0zM607 254.7c.1-.2 0-.2 0-.2s-.1 0-.1.1v.2c0-.1.1-.1.1-.1zM606.3 255.6s.1 0 0 0l.1-.2h-.2v.2h.1zM605.8 254.1c.1-.1.1-.2.1-.2l-.1-.1c-.1 0-.1 0-.1.1 0 .2 0 .2.1.2zM604.9 253.5l-.1-.1h-.1v.1s0 .1.1.1l.1-.1zM603.9 252.6c.1-.1.1-.2 0-.3h-.2v.1c0 .2 0 .2.2.2zM605.9 250.2H606.2l.1-.1.1-.1h.1l.1-.1v-.1l-.1-.1h-.1l-.1.1h-.1-.1c-.1 0-.2 0-.2.1-.1.2-.1.2 0 .3zM609.8 251.7c0-.1-.1-.1-.1-.1-.1 0-.1.1-.1.1v.2c0 .1.1.1.1.1.1 0 .2 0 .2-.1-.1 0-.1-.1-.1-.2zM612.6 251.1c.1.1.1.1.1 0h-.1c0-.1 0-.1 0 0zM604.4 250.9c0-.1 0-.1 0 0 0-.1 0-.2-.1-.2h-.1c0 .1.1.1.1.1 0 .1.1.1.1.1zM604.9 250c.1 0 .1 0 .2-.1v-.1h-.1s-.1 0-.1.1v.1zM611.2 246.7c0-.1 0-.1 0 0l-.1-.1s0 .1.1.1c-.1 0 0 0 0 0zM603.2 249.1c-.1.1 0 .1 0 0 0 .1 0 0 0 0zM607.7 251.1c-.1 0-.2 0-.2.1v.1c0 .1.1.1.1.2h.2v-.1c.1-.1.1-.2-.1-.3zM604.2 250.4h.1v-.2h-.1v.2c0-.1 0-.1 0 0zM607.5 251.9s-.1 0-.2.1c0 .1 0 .2.1.2H607.7l.1-.1v-.2s0-.1-.1-.1h-.1c0 .1-.1 0-.1.1zM604.7 250.9s.1 0 0 0l.1.1c0-.1 0-.1-.1-.2-.1 0-.1 0-.2.1h.2zM610.3 253c0-.1-.1-.1 0 0-.1-.1-.2-.1-.2-.1s-.1 0-.1.1v.1h-.1s-.1 0-.1.1v.1l.1.1s.1 0 .1-.1h.1v-.1l.2-.2zM610.9 256.1c0-.2 0-.2 0 0 0-.2 0-.2 0 0h-.1.1c-.1 0-.1 0 0 0-.1 0-.1 0 0 0-.1 0 0 0 0 0zM610.4 252.9v.2H610.7v-.2h-.2zM605.7 250.9c.1 0 .1-.1.1-.1v-.2c0-.1-.1-.1-.2-.1s-.1 0-.2.1v.2c.1 0 .1.1.3.1zM608.2 252l-.1.1c0 .1.1.1.2.2h.1l.1-.1v-.1l-.1-.1h-.2zM604.4 247.3c-.1-.1-.1 0-.1 0v.1l.1-.1zM611 251.1v-.1h-.1c-.1 0-.1 0-.2.1 0 0-.1 0-.1.1v.1h.1c0 .1 0 .1.1.1h.1v-.1l.1-.2zM606.4 247.1c0-.1 0-.1 0 0 0-.1 0-.1 0 0 0-.1 0-.1 0 0l-.1-.1.1.1c-.1 0 0 0 0 0zM608.2 248.5c.1-.1 0-.2 0-.2H607.9v.1c.2.1.2.1.3.1zM608 248v-.1h-.2-.1s0 .1.1.1h.2zM609.9 248.1v-.1h-.1s-.1 0-.1.1v.1h.1l.1-.1zM607.4 249.1c.1-.2.1-.3 0-.3h-.2s-.1 0-.2.1V249.2s.1.1.2 0l.2-.1zM605.9 248.4s.1 0 0 0l-.1-.1.1.1zM601.9 254.5c0 .1 0 .1 0 0 .1.1.1.1 0 0 .1 0 .1 0 0 0zM611.6 248.8c-.1.1-.1.2 0 .2h.1l.1-.1v-.1c.1.1.1 0-.2 0zM606.5 248.4l.1-.1h-.1s-.1 0-.1.1v.1c-.1-.3-.1-.1.1-.1zM613.2 246.4c-.1 0-.1 0 0 0h-.1v.1l.1-.1c0 .1 0 .1 0 0zM608 242.9c-.1.1-.1.1 0 0-.1.1-.1.1 0 .1v-.1zM607.1 248.6h.1v-.1h-.1s-.1 0-.1.1c0-.1 0-.1.1 0zM610.4 248c-.1-.1-.1 0-.1 0v.2H610.6c.1-.1-.1-.2-.2-.2zM609.7 247.8s.1.1.2 0v-.2h-.2v-.1.3zM609.8 250.3v.1c0 .1.2.1.2.1h.1v-.2l-.1-.1s-.1 0-.2.1zM607.8 248.9c-.1.1-.1.2-.1.3l.1.1h.1l.1-.1v-.2c0-.1-.1-.1-.2-.1zM611.8 250h-.1v.2h.2v-.1l-.1-.1zM611.5 251.2c-.1 0-.1 0-.1.1h.1v-.1c.1 0 .1 0 0 0zM611 252.3l-.1.1c0 .1.1.1.1.1h.1v-.2c.1 0 .1-.1-.1 0zM607.2 250.1c-.1 0-.1.1-.2.1 0 .1 0 .2.1.2h.1c.1 0 .1 0 .2-.1v-.1c0-.1 0-.1-.1-.2l-.1.1zM611.8 244.4s0-.1 0 0c0-.1 0-.1-.1-.1s-.1.1.1.1c-.2 0 0 0 0 0s-.2 0 0 0zM612.7 249c.1.1.1.1.1 0-.1-.1-.1-.1-.1 0zM610.8 249.8l.1-.1-.1-.1c-.1 0-.1 0-.2.1v.1h.2zM614.1 251.1c0 .1 0 .1 0 0 .1.1.1.1 0 0 .1 0 .1 0 0 0zM609.4 246.9c0-.1-.1-.1 0 0-.1-.1-.1-.1 0 0-.1-.1-.1 0 0 0-.1 0-.1 0 0 0zM609.3 249s.1 0 0 0v-.1h-.2c0 .1 0 .1.1.2h.1v-.1zM606.8 244.3h-.1.1c-.1.1-.1.1 0 0-.1.1 0 .1 0 0z"/><path class="st13" d="M610.4 251.4v.1h.1s.1 0 .1-.1v-.1c-.1 0-.1 0-.2.1zM608.1 250.7l-.2.1c0 .1 0 .2.1.3h.1l.1-.1v-.2c.1-.1 0-.1-.1-.1zM605.4 248.9v-.1s0-.1-.1-.1v.1c-.1.1 0 .1.1.1zM612.1 252.9c0 .1.1.1 0 0h.2c-.1-.1-.2 0-.2 0zM608.8 250.8s0 .1 0 0l.2.1.1-.1v-.2h-.1c-.1 0-.2.1-.2.1v.1z"/></g><g><path transform="rotate(-17.936 607.298 249.627)" class="st8" d="M600.2 242.3h14.2v14.6h-14.2z"/><path class="st13" d="M607.7 246.9c-.1 0-.1 0 0 0v-.2l-.1.1c0 .1 0 .2.1.1zM606.4 251.8l-.1-.1c-.1 0-.1.1-.1.1v.1c0 .1.2.2.3.1l.1-.1c-.1 0-.1-.1-.2-.1zM605.6 252.9v-.2h-.1v.2s.1.1.2 0h-.1zM605.3 257.8c-.1.1-.1.1 0 0 0 .1 0 .1 0 0 0 .1 0 0 0 0zM606.3 251.1l-.1-.1h-.2c-.1 0-.1.1-.1.1-.1 0-.1.1-.1.2 0 0 0 .1.1.1 0 0 .1.1.2 0 .1 0 .1-.1.1-.1.2 0 .2-.1.1-.2zM605.3 248.7h-.1l-.1.1v.1c0 .1 0 .1.1.1h.2l.1-.1v-.1l-.2-.1zM601.4 246c0-.1 0-.1 0 0v-.1c-.1 0-.1 0 0 .1-.1 0-.1 0 0 0-.1 0-.1 0 0 0zM601.2 252.3v-.1h-.1l.1.1c0-.1 0-.1 0 0 0-.1 0-.1 0 0zM605.3 251.8v-.1H605.6v.2l-.1.1h-.2H605l-.1-.1c0-.1-.1-.1 0-.2h.1l.3.1zm.2.2zM603.4 253.2c.1 0 .1 0 0 0h.1v-.1-.1h-.1v.2zM602.6 249.6l-.1.1v.1c.1 0 .1-.1.1-.1v-.1zM606 253.7h-.1v.2h.2l-.1-.2zM607.2 255.6v.1h.1l-.1-.1c.2.1.2.1 0 0 0 .1 0 0 0 0zM609.4 255.8c-.1 0-.1 0 0 0-.1 0-.1.1 0 0zM608 250h0c.1 0 .2.1.2 0l.1-.1v-.2c0-.1 0-.1-.1-.1 0-.1-.1-.1-.2-.1h-.1c-.1 0-.1.1-.1.2s.1.2.2.3zM609.2 246.3l.1-.1c-.1 0-.1 0-.1.1zM609.3 248.8c-.1-.1-.1-.1 0 0l-.1-.1s-.1 0-.1.1v.1c0 .1.1.1.2.1v-.2c0 .1 0 .1 0 0zM608.8 249.7l.1.1h.1v-.1-.2h-.1-.1v.2c0-.1 0-.1 0 0zM611.4 246.5c0 .1.1.1 0 0h0zM607.4 249.1c.1 0 .1-.1.1-.2s0-.1-.1-.1h-.2c-.1 0-.1.1-.1.2s0 .1.1.1h.2zM605 249.7h.1c.1-.1 0-.2 0-.2l-.1-.1h-.1s-.1 0-.1.1v.1s.1.1.2.1zM604.8 248h-.1c-.1 0-.1.1-.1.1v.1s0 .1.1.2H605l.1-.1v-.1l-.3-.2zM605.4 250.9c0 .1.1.1.2.1l.1-.1v-.1c0-.1-.1-.1-.1-.2h-.2c-.1 0-.1.1-.1.1 0 .1 0 .2.1.2zM603.8 243.1c0-.1 0-.1 0 0-.1 0-.1 0 0 0-.1.1 0 0 0 0zM606.5 250.7h-.1s-.1.1-.1.2v.1l.1.1h.2c.1 0 .1-.1.1-.1v-.2l-.2-.1zM605.8 248.8c.1-.1.1-.2.1-.3v-.1h-.2c-.1 0-.2.2-.1.3l.1.1h.1zM603 255.7c0-.1 0-.1 0 0-.2-.1-.2-.1 0 0zM602.8 248.4l.1-.1v-.1h-.1-.1c-.1 0-.1.1-.1.2h.2zM601.2 253.9s.1 0 0 0c.1 0 .1 0 0 0 .1 0 .1 0 0 0v-.1.1zM603.5 249.9l-.1.2c0 .1.1.2.3.1l.1-.1v-.1-.2c-.1 0-.2 0-.3.1.1-.1 0-.1 0 0zM604.5 252.6v.1h.1c0 .1 0 .1-.1-.1zM604.1 250.8h-.2c-.1 0-.1.1-.1.1v.2h.2c.1 0 .2-.1.1-.3zM603 245.8s0-.1 0 0c0-.1 0-.1 0 0h0c-.2 0 0 0 0 0zM604.2 252l-.1.1h.1s.1 0 .1-.1v-.1c0 .1 0 .1-.1.1zM604.6 250.7l.1-.1v-.2l-.1-.1h-.1c-.1 0-.1.1-.1.2h.1-.1v.1l.2.1zM601.5 248.1c.1-.1 0-.1 0 0 0-.1 0-.1 0 0-.1-.1-.1-.1 0 0-.1-.1-.1 0 0 0zM604.2 249.5c0 .2 0 .2.1.2h.2l.1-.1v-.1c0-.1 0-.1-.1-.2h-.2l-.1.2zM603.4 247.5c.1 0 .1-.1.1-.2s-.1-.1-.1-.1l-.1.1c-.1.1 0 .2.1.2zM603.6 249.1l.2.1h.1l.1-.1v-.1c0-.1-.1-.1-.1-.2H603.6c-.1.1-.1.2 0 .3zM599.2 245.5c0-.1 0-.1 0 0 0-.1 0-.1 0 0 0-.1 0-.1 0 0-.1-.1-.1-.1 0 0-.1-.1-.1-.1 0 0-.1 0-.1 0 0 0zM604.2 247.8h.1v-.2h-.1s-.1 0-.1.1l.1.1zM603.3 251.5c.2-.1.2-.1.2-.2h-.1c-.1 0-.1.1-.1.1-.1 0-.1.1 0 .1zM602.1 251.5h.1v-.1-.2h-.1-.1v.1c0 .1 0 .1.1.2zM603 250.1h.1c.1 0 .1-.1.1-.1v-.1s-.1-.1-.2 0c-.2.1-.2.2 0 .2zM602.7 249.1v-.1-.1h-.1s-.1 0-.1.1v.1h.2zM602.6 247.8c.1 0 .2-.1.2-.2v-.1h-.2s-.1 0-.1.1 0 .1.1.2zM605.8 247.6v.1s0 .1.1.1l.1.1h.2l.1.1h.1l.1-.1v-.1l-.1-.1h-.2v-.1c0-.1-.1-.1-.2-.1-.2 0-.2 0-.2.1zM607.4 251.4v-.2h-.2c-.1 0-.1.1-.1.1v.2c0 .1.1.1.2.1-.1-.1.1-.2.1-.2zM604.3 246.9c0-.1 0-.1 0 0 .1-.1.1-.1.1-.2s-.1-.1-.1-.1v.2c-.1.1 0 .1 0 .1zM605.3 246.7c0 .1.1.1.2.1s.1-.1.1-.1v-.1h-.2l-.1.1zM612 249c.1-.1 0-.1 0-.1s-.1 0 0 .1zM604.7 244.8h-.1.1c-.1.1 0 .1 0 0zM606.4 249.6c0-.1-.1-.1-.2-.1l-.1.1c-.1.1-.1.2 0 .2 0 0 .1.1.2.1h.1v-.3zM604.5 246.5h.1c.1 0 .1-.1.1-.1h-.2v.1c-.1-.1-.1-.1 0 0zM605.7 249.8s-.1-.1-.2 0-.1.2-.1.2l.1.1c0 .1.1.1.2.1l.1-.1v-.2l-.1-.1c0 .1 0 0 0 0zM604.5 247.1s0 .2 0 0v.1c.1 0 .1-.1.1-.2s-.1-.1-.2-.1l.1.2zM606.8 252.6v-.1l-.1-.1h-.1v0h-.1s-.1 0-.1.1v.1h.4c0 .2 0 0 0 0zM604.9 255.2c0-.1 0-.1 0 0 0-.1 0-.1 0 0v-.1.1c-.1-.1-.1-.1 0 0-.1-.1-.1 0 0 0-.1 0-.1 0 0 0zM606.9 252.6v.2h-.1v.2h.2v-.2zM605.2 247.8H605.5v-.1c0-.1 0-.1-.1-.2-.1 0-.1-.1-.2 0-.1 0-.1.1-.1.1s-.1.1.1.2zM606 250.4l-.1.1c-.1.1-.1.2 0 .2l.1.1h.1v-.1c.2-.1 0-.1-.1-.3zM606.9 244.5c0-.1 0-.1 0 0 0-.1-.1-.1 0 0-.1-.1-.1-.1 0 0h-.1.1zM608.6 251.9l.1-.1s0-.1-.1-.1c0-.1-.1-.1-.2-.1h-.1s-.1 0-.1.1v.1s-.1.1 0 .1v.1h.2l.2-.1zM608.3 245.8c0-.1 0-.1 0 0 0-.1 0-.1 0 0 .2-.1.2-.1 0 0v-.1.1c0-.1 0-.1 0 0zM609.9 250.1l-.1.1v.2c.1 0 .1-.1.1-.1v-.2zM608.7 248.1c.1 0 .1-.1.1-.1v-.1h-.1c-.1 0-.1.1-.1.1 0-.1 0 0 .1.1zM608.8 247.6l.1-.1v-.2h-.1-.1v.1c0 .2.1.2.1.2zM610 249l.1-.1v-.1h-.2v.1c0 .1 0 .1.1.1zM607.7 247.9h.1c.1 0 .1-.1.1-.2v-.1h-.1s-.1-.1-.2 0h-.1l-.1.1v.1c0 .1 0 .1.1.1h.2zM607.1 246.4s.1 0 0 0v-.1.1zM599.9 247.6c-.1 0-.1 0 0 0 0 .1 0 .1 0 0zM610.8 250.8c-.1 0-.2 0-.1.2h.1s.1 0 .1-.1c0 .1 0 0-.1-.1zM607.6 246.6h.1c0-.1 0-.1-.1-.1h-.1s-.1 0-.1.1c.1-.1.1 0 .2 0zM613.5 250.2c-.1-.1-.1-.1 0 0-.1-.1-.1 0-.1 0 0 .1.1.1.1 0zM612.5 244.1h-.1v.1l.1-.1c0 .1 0 0 0 0zM607.8 247.4l.1.1h.1s0-.1-.1-.1h-.1c.1-.3 0-.1 0 0zM610.4 249.5c0-.2 0-.2 0 0-.1-.1-.2 0-.2 0v.1h.1c.2 0 .2-.1.1-.1zM610.1 248.7s0 .1.1.1h.1V248.5h-.1l-.1.2zM608.3 250.4l-.1.1c-.1.1 0 .2 0 .3H608.5l.1-.1v-.1c0-.1-.1-.1-.1-.2h-.2zM608 248.1h-.1c-.1 0-.1.1-.1.1v.2l.1.1h.1c.1 0 .1-.1.1-.1 0-.2 0-.3-.1-.3zM609.9 251.7l-.1-.1h-.1v.2H610l-.1-.1c0 .1 0 .1 0 0zM608.9 252.3h-.2c0 .1 0 .1.1.1 0 0 .1 0 .1-.1.1.1.1.1 0 0zM607.8 252.8h-.1v.1s0 .1.1 0h.1v-.1c0 .1 0 0-.1 0zM606.7 248.6h-.2c-.1 0-.1.1-.1.2l.1.1c.1.1.1.1.2.1l.1-.1c.1-.1.1-.1.1-.2l-.2-.1zM614.1 247.8c.1-.1.1-.1 0-.1s-.1 0 0 .1c-.1 0-.1 0 0 0-.1 0-.1 0 0 0zM611.3 251.7c0 .1 0 .1 0 0 0 .1 0 .1.1.1l-.1-.1c.1 0 0 0 0 0zM609.4 250.9h.1v-.1c0-.1-.1-.1-.2-.1v.1l.1.1zM610.7 254.1c0 .1 0 .1 0 0 0 .1.1.1 0 0 .1.1.1.1 0 0 .1.1 0 0 0 0zM610.7 247.8c0-.1-.2-.1 0 0-.2-.1-.2-.1 0 0-.2 0-.2 0 0 0z"/><path class="st13" d="M609 249.2l.1-.1v-.1s0-.1-.1-.1-.1.1-.1.2c0 .2.1.2.1.1zM608 251.7l-.1.1s0 .1.1.1h.1c.1 0 .1-.1.1-.1-.1 0-.1-.1-.2-.1zM608.3 243.3c.2-.1.2-.1 0 0 0-.1 0-.1 0 0 0-.1 0-.1 0 0zM607 249.5h-.1c-.1 0-.2.1-.1.3l.1.1h.2v-.1c0-.1 0-.2-.1-.3zM606.4 246.3c.1-.1.2-.1.1-.2h-.1c-.1.1-.1.2 0 .2zM613.4 253.4c0-.1-.1-.1 0 0-.1 0-.1 0 0 0-.1 0 0 0 0 0zM600.8 249.9c0 .1 0 .1 0 0-.2 0-.2 0 0 0zM608 253.9c0 .1.1.1 0 0v.1s0 .1.1 0 0-.1-.1-.1zM607.4 250v.1l.1.1h.2c.1 0 .1-.1.1-.2l-.1-.1c-.1-.1-.2-.1-.2-.1l-.1.2z"/></g><g><path transform="rotate(-22.205 606.351 248.529)" class="st8" d="M599 241.4h14.6v14.2H599z"/><path class="st13" d="M603.7 248.2c-.1 0-.1 0 0 0h-.2s.1.1.1 0c.1.2.1.2.1 0zM608.6 249.1l-.1.1v.1c0 .1.1.1.1.1h.1c.1 0 .2-.2.1-.3l-.1-.1-.1.1zM609.8 249.9h-.1v.1c.1 0 .1 0 .2-.1v-.2l-.1.2zM606.6 255.8c0-.1-.1-.1 0 0-.1 0-.1 0 0 0-.1 0-.1 0 0 0zM614.7 249.8c0 .1 0 .1 0 0 .1 0 .1 0 0 0zM607.9 249.3l-.1.1v.1l.1.1c0 .1.2.1.2.1s.1 0 .1-.1v-.2c0-.1-.1-.1-.1-.1 0-.1-.1-.1-.2 0zM605.6 250.6v.1l.1.1h.1c.1 0 .1-.1.1-.1v-.2l-.1-.1h-.1l-.1.2zM603.2 254.6c0-.1 0-.1 0 0h-.1.1c-.1 0-.1 0 0 0l-.1.1.1-.1zM609.4 254.3h-.1v.1l.1-.1c-.1 0-.1 0 0 0zM608.7 250.2h-.1v-.2-.1.1-.1h.2l.1.1v.4l-.1.1c-.1 0-.1.1-.2 0h-.1v-.1l.2-.2zm.2-.2zM610.2 252s0-.1 0 0v-.1h-.1-.1v.1s0 .1.2 0zM606.7 253.1l.1.1h.1c0-.1-.1-.1-.1-.1h-.1zM610.5 249.3v.1h.1v-.1-.1l-.1.1zM612.3 248h.1v-.1l-.1.1c.1-.1.1-.1 0 0 .1-.1 0-.1 0 0zM612.3 245.8c.1 0 .1.1 0 0 .1 0 .1 0 0 0 .1 0 .1 0 0 0zM606.7 247.7v-.2l-.1-.1h-.2c-.1 0-.1.1-.1.1-.1 0-.1.1-.1.2v.1c.1.1.1.1.2.1.1-.1.2-.1.3-.2zM602.8 246.7s-.1-.1-.1 0 0 .1.1 0c0 .1 0 .1 0 0zM605.4 246.5s-.1 0 0 0l-.1.1s0 .1.1.1h.1c.1 0 .1-.1.1-.2h-.2c.1 0 .1 0 0 0zM606.3 246.9l.1-.1h-.1-.1v.2l.1-.1c-.2 0 0 0 0 0zM603 244.5c.1 0 .1-.1 0-.1 0 0-.2 0 0 .1-.2 0-.2 0 0 0zM605.8 248.4c0-.1-.1-.1-.2-.1s-.1.1-.1.1v.2c0 .1.1.1.2.1s.1-.1.1-.1v-.2zM606.5 250.7l-.1-.1c-.1-.1-.2 0-.2 0l-.1.1v.1s0 .1.1.1h.1c.2-.1.2-.1.2-.2zM604.9 251v.1c0 .1.1.1.1.1h.1s.1 0 .2-.1v-.1-.2l-.1-.1h-.1l-.2.3zM607.8 250.2c.1 0 .1-.1 0-.2l-.1-.1h-.1c-.1 0-.1.1-.1.1v.2c0 .1.1.1.1.1.1 0 .1 0 .2-.1zM600.1 252.3c-.1 0-.1.1 0 0-.1.1-.1.1 0 0 0 .1 0 .1 0 0zM607.5 249.1v.1s.1.1.2.1h.1l.1-.1v-.2c0-.1-.1-.1-.1-.1h-.2l-.1.2zM605.6 250c-.1-.1-.2-.1-.3-.1v.2c0 .1.2.2.3.1l.1-.1-.1-.1zM612.7 252.3s-.1 0 0 0c-.1.1 0 .1 0 0zM605.4 252.9l-.1-.1h-.1v.2c0 .1.1.1.2.1 0 0 .1-.1 0-.2zM611.1 254.2c0-.1 0-.1 0 0-.1-.1-.1-.1 0 0l-.1-.1.1.1c-.1 0 0 0 0 0zM606.9 252.1l.2.1c.1 0 .2-.1.1-.3l-.1-.1H606.8c0 .2 0 .2.1.3-.1 0-.1 0 0 0zM609.6 251h.1v-.1l-.1.1zM607.8 251.5v.2c0 .1.1.1.1.1.1 0 .1 0 .2-.1v-.2s-.1-.1-.3 0zM602.8 253.1v0c.2 0 0 0 0 0zM608.9 251.3l.1.1v-.1l-.1-.1h-.1c.1 0 .1 0 .1.1zM607.6 251l-.1-.1h-.2v.2c0 .1.1.1.2.1v-.1l.1.1h.1l-.1-.2zM605.3 254.3c0-.1-.1-.1 0 0-.1 0-.1 0 0 0-.1.1 0 .1 0 0 0 .1 0 0 0 0zM606.5 251.5c.2 0 .2 0 .2-.1v-.2l-.1-.1h-.1c-.1 0-.1.1-.1.1v.2l.1.1zM604.5 252.4c0-.1-.1-.1-.2-.1s-.1.1-.1.1.1.1.2 0c0 .2.1.2.1 0zM606.1 252.1l.1-.2v-.1l-.1-.1h-.1c-.1 0-.1.1-.1.1V252.1c0 .1.1.1.2 0zM602.8 256.8c-.1 0-.1 0 0 0-.1 0-.1 0 0 0-.1 0-.1 0 0 0-.1 0-.1 0 0 0-.1.1-.1.1 0 0zM604.8 251.7l-.1-.1h-.2v.1s0 .1.1.1c0 0 .1 0 .2-.1zM608.6 252.3c-.1-.2-.2-.2-.2-.1v.1c0 .1.1.1.1.1l.1-.1zM608.7 253.4v-.1h-.1-.1v.2h.1l.1-.1zM607.2 252.8v-.1c0-.1-.1-.1-.1-.1h-.1s-.1.1 0 .2.1.1.2 0zM606.1 253h-.1-.1v.1s0 .1.1.1h.1c0-.1.2-.1 0-.2zM604.8 253.2c0-.1-.1-.2-.2-.2l-.1.1v.2s0 .1.1.1c.1-.1.2-.1.2-.2zM604.4 250h.1l.1-.1.1-.1v-.2l.1-.1v-.1l-.1-.1h-.1l-.1.1v.2h-.1c-.1.1-.1.2-.1.2 0 .2.1.2.1.2zM608.1 248.2h-.2v.2c0 .1.1.1.1.1h.2c.1-.1.1-.1.1-.2-.1-.1-.1-.1-.2-.1zM609.6 245.7c.1 0 .1 0 0 0 0-.1 0-.1 0 0zM603.8 251.7s0-.2 0 0c-.1-.1-.1-.1-.2-.1s-.1.1-.1.1h.2c.1.1.1 0 .1 0zM603.6 250.7c.1 0 .1-.1 0-.2l-.1-.1h-.1v.1l.2.2zM605.4 243.7c-.1-.1-.1 0-.1 0 0 .1 0 .1.1 0 0 .1 0 .1 0 0zM601.7 251.3v.1s.2 0 0-.1c.2.1.2 0 0 0zM606.4 249.3c-.1.1-.1.1-.1.2l.1.1c.1.1.2 0 .2 0s.1-.1.1-.2v-.1h-.3zM603.4 251.4v-.1c0-.1-.1-.1-.1-.1v.2h.1c0 .1 0 .1 0 0zM606.6 250s-.1.1 0 .2.2.1.2 0l.1-.1c.1-.1.1-.1.1-.2l-.1-.1h-.2v.1c0 .1 0 .1-.1.1zM604.2 251.3h.1c0-.1-.1-.1-.2-.1s-.1.1-.1.2l.2-.1zM609.4 248.7h-.1l-.1.1v.1h.1v.1s0 .1.1.1h.1v-.2-.1l-.1-.1zM612 250.3s.1 0 0 0c.1 0 .1 0 0 0h-.1.1c0 .1 0 .1 0 0 0 .1 0 .1 0 0 .1.1.1.1 0 0zM609.4 248.5v.2H609.7V248.4h-.1v.1zM604.7 250.7V250.4h-.1c-.1 0-.1 0-.2.1 0 .1-.1.1 0 .2 0 .1.1.1.1.1s.1 0 .2-.1z"/><path class="st13" d="M607.4 249.6l.1.1h.2l.1-.1v-.1h-.1c-.3 0-.3.1-.3.1zM601.3 249.2c-.1 0-.1 0 0 0-.1 0-.1 0 0 0-.1.1-.1.1 0 .1v-.1zM608.5 246.9l-.1-.1s-.1 0-.1.1c-.1 0-.1.1-.1.2v.1s0 .1.1.1h.2v-.1V246.9c0 .1 0 0 0 0zM602.5 247.6c-.1 0-.1 0 0 0-.1 0-.1 0 0 0-.1 0-.1 0 0 0h-.1.1c-.1.1-.1.1 0 0 0 .1 0 0 0 0zM606.6 245.8l.1.1h.2c0-.1-.1-.1-.1-.1h-.2zM604.7 247.1c0-.1-.1-.1-.1-.1h-.1v.1c0 .1.1.1.1.1s0 .1.1-.1zM604.2 247l-.1-.1h-.1v.2h.1c.1 0 .1-.1.1-.1zM605.6 245.7l-.1-.1s-.1 0-.1.1v.1h.2v-.1zM604.6 248.2v-.1c-.1-.1-.2-.1-.2-.1h-.1v.1s-.1.1 0 .2v.1h.2c.1 0 .1 0 .1-.1v-.1zM603.1 248.8s0-.1 0 0h-.1.1zM604.8 255.9c.1.2.1.2 0 0 .1 0 .1 0 0 0 .1 0 .1 0 0 0zM607.2 244.9c0 .1.1.2.2.1v-.1s0-.1-.1-.1c.2 0 .1 0-.1.1zM603.4 248.4l-.1-.1c-.1 0-.1 0-.1.1v.1s0 .1.1.1c-.1-.1 0-.1.1-.2zM606.5 242.2c-.1.1 0 .1 0 .1.1-.1.1-.1 0-.1zM600.4 243.6v.1h.1l-.1-.1zM604.1 248l.1-.1v-.1s-.1 0-.1.1v.1c-.3 0-.2 0 0 0zM605.9 245.3c-.1 0-.1 0 0 0v.2h.1v-.1c0-.2-.1-.2-.1-.1zM605.2 245.6s.1 0 .1-.1v-.1.1H605v.1h.2zM607.1 247.4l.1.1c.1.1.2 0 .3-.1v-.4l-.1-.1h-.1c-.1 0-.1.1-.2.2v.3zM604.8 247.8v.1c0 .1.1.1.1.1h.2l.1-.1v-.1c0-.1-.1-.1-.1-.1-.2-.1-.3 0-.3.1zM608.2 245.6l-.1.1h.2v-.1-.2l-.1.2zM608.9 246.6v.2s.1 0 .1-.1c0 0 0-.1-.1-.1.1-.1.1-.1 0 0zM609.4 247.7l.1.1h.1v-.1h-.1c.1-.1-.1-.1-.1 0zM605.3 249v.2c0 .1.1.1.2.1l.1-.1c.1-.1.1-.1.1-.2l-.1-.1c-.1-.1-.1-.1-.2-.1l-.1.2zM604.1 241.9c0-.1 0-.1 0 0-.1-.1-.1 0-.1 0h.1zM608.1 244.2c0 .1.1.1 0 0 .1 0 .1 0 0 0zM607.5 246.2v-.1h-.1c-.1 0-.1.1-.1.2h.1l.1-.1zM610.5 244.7c.2 0 .2 0 0 0 .2-.1.2-.1 0 0 .2-.1.2-.1 0 0 0-.1 0-.1 0 0zM604.3 245.3c0-.1 0-.1 0 0-.1 0-.1 0 0 0zM605.9 246.7l-.1-.1h-.1s-.1 0-.1.1.1.1.2.1.1 0 .1-.1zM608.3 247.6c.1.1.2.1.2 0v-.1l-.1-.1c-.1 0-.1.1-.1.2zM599.9 247.8s-.1 0 0 0c0 .1 0 .1 0 0zM606.3 248.7l-.1.2c0 .1.1.2.3.1l.1-.1v-.2h-.1c-.1-.1-.1-.1-.2 0zM603.1 249.6c-.1-.1-.2-.1-.2-.1v.1c.1.2.2.1.2 0zM609.7 242.1c-.1 0-.1 0 0 0 0 0 0 .1 0 0zM607.1 255c0-.2 0-.2 0 0-.1 0-.1 0 0 0zM610.5 247.4c.2 0 .2-.1 0 0 .2-.1.2-.1 0 0 .1-.1.2-.1.1-.1-.1-.2-.1 0-.1.1zM606.8 248.4h.1l.1-.1V248c0-.1-.1-.1-.2-.1l-.1.1c-.1.1-.1.2 0 .2l.1.2z"/></g><g><path transform="rotate(-29.191 605.436 247.316)" class="st8" d="M598.3 240h14.2v14.6h-14.2z"/><path class="st13" d="M605.3 244.6v-.1.1l-.1-.2s-.1.1 0 .1c0 .1.1.1.1.1zM605 249.6h-.2c-.1 0-.1.1-.1.2v.1c.1.1.2.1.3.1v-.1c.2-.2 0-.3 0-.3zM604.4 250.9v-.1h-.1c0 .1 0 .1.1.2h.2l-.2-.1zM598.1 248.5c.1-.1.1-.1 0 0 0-.1 0-.1 0 0 0-.1 0-.1 0 0zM605.2 255.7c-.2.1-.2.1 0 0-.2.1 0 .1 0 0 0 .1 0 0 0 0zM604.8 249h-.2l-.1.1c-.1.1-.1.2-.1.3 0 0 0 .1.1.1h.2c.1 0 .1-.1.1-.2v-.3zM603.3 246.8h-.1l-.1.1v.1c0 .1.1.1.1.1h.2v-.2l-.1-.1zM599 244.9c0-.1 0-.1 0 0-.1-.1-.1-.1 0 0-.1-.1-.1-.1 0 0l-.1-.1c0 .1 0 .1.1.1-.1 0-.1 0 0 0zM600.1 251.1v-.1c-.1 0-.1 0 0 .1-.1-.1-.1-.1 0 0-.1-.1-.1 0 0 0-.1 0-.1 0 0 0zM603.9 249.8v-.1H604.2v.2l-.1.1h-.2l-.1.1h-.1l-.1-.1c0-.1-.1-.1-.1-.2v-.1h.1l.3.1zm.3.2zM602.4 251.5h.1v-.1-.1h-.1c-.1 0-.1.1 0 .2zM600.9 248.1l-.1.1.1.1c.1 0 .1-.1.1-.1-.1 0-.1 0-.1-.1zM605 251.7l-.1.1v.2h.2l-.1-.3zM606.6 253.2v.1s.1 0 0-.1c.1.1.1.1 0 0 .1 0 0 0 0 0zM608.7 253c0 .1.1.1 0 0 .1 0 .1 0 0 0zM606.3 247.5h.2V247.2c0-.1-.1-.1-.1-.1 0-.1-.1-.1-.2-.1h-.2c-.1.1-.1.1-.1.2.1.2.1.3.4.3zM606.7 243.6s.1-.1 0-.1c0 0-.1 0 0 .1zM607.4 246.2c-.2-.2-.2-.2 0 0l-.2-.1-.1.1v.1c0 .1.1.1.2 0l.1-.1c-.2.1 0 0 0 0zM606.9 247c.1.1.1.1.2.1v-.1-.1h-.1-.1v.1c0-.1 0-.1 0 0zM608.9 243.4s0 .1 0 0c.1.1.1.1.1 0h-.1zM605.4 246.8c.1 0 .1-.2.1-.2 0-.1-.1-.1-.1-.1h-.2c-.1 0-.1.2-.1.2 0 .1.1.1.1.1h.2zM603.3 247.8l.1-.1c.1-.1 0-.2 0-.2h-.2s-.1 0-.1.1v.1s.1.1.2.1zM602.7 246.3h-.2c-.1 0-.1.1-.1.1v.1s0 .1.1.1H602.8v-.2l-.1-.1zM603.8 248.9c.1 0 .1.1.2 0v-.2c0-.1-.1-.1-.1-.1h-.2c-.1 0-.1.1-.1.2.1 0 .1.1.2.1zM600.8 241.6c.1-.1 0-.1 0 0 0-.1 0-.1 0 0 0-.1 0-.1 0 0zM604.9 248.6h-.1s-.1.1-.1.2v.1l.1.1h.2c.1 0 .1-.1.1-.1v-.2l-.2-.1zM603.8 246.7c.1-.1.1-.2 0-.3h-.2c-.1.1-.1.2-.1.3l.1.1.2-.1zM602.4 254.1c-.1 0-.1 0 0 0 0 .1 0 0 0 0zM600.9 246.9l.1-.1v-.1h-.1-.1c-.1 0-.1.1 0 .2h.1zM600.3 252.6s.1 0 0 0c.1 0 .1 0 0 0l.1-.1-.1.1zM601.9 248.2l-.1.1v.1c0 .1.1.1.3.1l.1-.1v-.1c0-.1 0-.1-.1-.2-.1 0-.1 0-.2.1zM603.3 250.9v.1h.1s0-.1-.1-.1zM602.5 249.1h-.2c-.1 0-.1.1-.1.1 0 .1 0 .1.1.2h.2c.1.1.1-.1 0-.3zM600.4 244.4h-.1.1c0 .1 0 0 0 0zM602.8 250.2c-.1.1-.1.1-.1.2h.1l.1-.1v-.1h-.1zM603.1 248.9l.1-.1V248.5h-.1-.1c-.1 0-.1.1-.1.2h.1l-.1.1v.1h.2zM599.4 246.9c.1 0 .1 0 0 0 .1 0 .1 0 0 0 .1-.1 0-.1 0 0zM602.4 247.8c0 .2.1.2.1.2h.2l.1-.1v-.1c0-.1-.1-.1-.1-.1h-.2l-.1.1zM601.2 245.9c.1 0 .1-.1.1-.2s-.1-.1-.2-.1v.2c0 .1 0 .1.1.1zM601.7 247.6l.1.1h.1l.1-.1v-.1c0-.1-.1-.1-.1-.1h-.2v.1c-.1-.1-.1 0 0 .1zM596.7 244.8c0-.1 0-.1 0 0 0-.1 0-.1 0 0 0-.1 0-.1 0 0 0-.1 0-.1 0 0-.1-.1-.1-.1 0 0zM602.1 246.2l.1-.1v-.1h-.2l.1.2zM601.9 249.9c.1-.1.1-.2.1-.2h-.1s-.1.1-.1.2h.1zM600.8 250.2h.1v-.1-.1h-.1-.1v.1c-.1 0-.1 0 .1.1zM601.3 248.7h.1l.1-.1v-.1h-.2c-.2.1-.1.2 0 .2zM600.9 247.7v-.1-.1h-.1l-.1.1v.1h.2zM600.5 246.4c.1 0 .2-.1.2-.2l-.1-.1h-.2s-.1 0-.1.1c.1.1.1.2.2.2zM603.6 245.6l.1.1.1.1.1.1h.2l.1.1h.1l.1-.1v-.1l-.1-.1h-.2v-.1c-.1-.1-.2-.1-.3-.1-.2-.1-.2 0-.2.1zM605.9 249v-.2h-.2c-.1 0-.1.1-.1.1v.2c.1.1.2.1.2 0 0 0 .1 0 .1-.1zM602 245.2c.1-.1.1-.2 0-.2 0 0-.1-.1-.1 0v.2c0 .1.1.1.1 0zM603 244.8c0 .1.1.1.2 0l.1-.1v-.1h-.1l-.2.2zM610 245.8v-.1c-.1 0-.1 0 0 .1-.1 0-.1 0 0 0zM602 243.2c0-.1 0-.1 0 0 0-.1 0-.1 0 0h-.1.1zM604.5 247.4c-.1-.1-.2-.1-.2-.1l-.1.1c-.1.1 0 .2 0 .2s.1.1.2.1h.1c.1 0 .1-.1 0-.3zM602.1 244.8h.1l.1-.1h-.2v.1c-.1-.1-.1-.1 0 0zM603.9 247.8h-.2c-.1.1-.1.2 0 .2l.1.1c.1.1.2.1.2.1l.1-.1v-.2l-.2-.1zM602.3 245.5l.1.1c.1 0 .1-.1.1-.2s-.1-.1-.2-.1v.2zM605.6 250.3v-.1h-.2v.1h-.2l-.1.1s0 .1.1.1H605.5l.1-.2c0 .1 0 .1 0 0zM604.2 253.2c.1 0 .1 0 0 0 .1-.1.1-.1 0 0 .1-.1.1-.1 0 0v-.1.1zM605.7 250.3v.1h-.1V250.7h.2V250.4zM603.1 245.9h.2v-.2c0-.1 0-.1-.1-.2h-.2c-.1 0-.1.1-.1.1-.1.2.1.2.2.3zM604.4 248.4l-.1.1v.2h.1l.1-.1v-.1c.1 0 0-.1-.1-.1zM604.1 242.3c0-.1 0-.1 0 0-.1-.1-.1 0-.1 0h.1zM607.2 249.2l.1-.1s0-.1-.1-.1c0-.1-.1-.1-.2-.1h-.1l-.1.1v.2h.4c-.1 0-.1 0 0 0zM605.8 243.4c0-.1 0-.1 0 0 0-.1 0-.1 0 0v-.1.1c-.1-.1-.1-.1 0 0-.1 0-.1 0 0 0zM608.1 247.3l-.1.2c.1 0 .1-.1.1-.2zM606.5 245.5c.1 0 .1-.1.1-.2v-.1h-.1c-.1 0-.1.1-.1.1 0 .1 0 .2.1.2zM606.6 245.1l.1-.1v-.1h-.1-.1v.1c0 .1 0 .1.1.1zM608 246.3l.1-.1s0-.1-.1-.1h-.1V246.4c0-.2 0-.1.1-.1zM605.5 245.5c.2-.1.2-.2.2-.3v-.1h-.1-.2-.1v.2c0 .1.1.1.1.1 0 .2 0 .1.1.1zM597.8 246.7c0 .1 0 .1 0 0 0 .1 0 .1 0 0 0 .1.1.1 0 0zM609.1 247.8c-.1 0-.2.1-.1.2h.1l.1-.1-.1-.1zM605.2 244.3l.1-.1c0-.1-.1-.1-.1-.1h-.2l-.1.1s.1.1.3.1zM611.6 246.7s0-.1 0 0c0-.1 0-.1 0 0h-.1s0 .1.1 0c0 .1 0 0 0 0zM609.6 240.9h-.1v.1l.1-.1zM605.6 244.9h.2s0-.1-.1-.1h-.1s-.1 0 0 .1zM608.6 246.5c-.1-.1-.1-.1 0 0-.2 0-.2 0-.2.1v.1h.1c.2-.1.2-.2.1-.2zM608.1 245.8s0 .1.2.1h.1-.1v-.2l-.2.1zM606.6 247.9l-.1.1c0 .1.1.2.1.2h.2l.1-.1v-.1c0-.1-.1-.1-.2-.1h-.1zM605.9 245.7h-.1c-.1 0-.1.1-.1.1v.2l.1.1h.1c.1 0 .1-.1.1-.2s0-.2-.1-.2zM608.5 248.8c-.1-.1-.1-.1-.2-.1v.2h.2v-.1c0 .1 0 .1 0 0zM607.6 249.7h-.2s0 .1.1.1l.1-.1c.1.1.1 0 0 0zM606.6 250.2l-.1.1v.1h.1v-.1c.1 0 .1 0 0-.1zM604.7 246.4h-.2c-.1 0-.1.2-.1.2l.1.1h.2l.1-.1c.1-.1 0-.1 0-.2h-.1zM611.8 244.3s0-.1 0 0v-.1c-.2 0-.2 0 0 .1-.2-.1-.2-.1 0 0-.2-.1-.2-.1 0 0zM609.9 248.6c-.1 0-.1 0 0 0 0 .1 0 .1 0 0zM607.8 248.1c.1 0 .1 0 .1-.1v-.1c0-.1-.1-.1-.2-.1v.2l.1.1zM609.7 251.1c0 .1.1.1 0 0 .1 0 .1 0 0 0zM608.3 244.9c0-.1 0-.1 0 0 0-.1 0-.1 0 0-.1-.1-.1-.1 0 0-.1-.1-.1 0 0 0z"/><path class="st13" d="M607.1 246.6l.1-.1v-.1l-.1-.1c-.1 0-.1.1-.1.2h.1c-.1.2-.1.2 0 .1zM606.6 249.2l-.1.1s0 .1.1.1h.1l.1-.1c-.1-.1-.1-.2-.2-.1zM605.2 247.3h-.2c-.1 0-.2.2-.1.3l.1.1h.1l.1-.1v-.1c.1-.1.1-.1 0-.2zM603.9 244.2c.1-.1.1-.2.1-.3h-.1c-.2.2-.1.3 0 .3zM612.2 249.9c0-.1 0-.1 0 0-.1-.1-.1-.1 0 0-.1-.1-.1-.1 0 0zM599.1 248.9c0-.1 0-.1 0 0 0-.1 0-.1 0 0-.1 0-.1 0 0 0zM607 251.3c0 .1.1.1 0 0 .1.1.1.1 0 0l.1.1c0-.1 0-.1-.1-.1zM605.6 247.7v.1l.1.1h.2c.1 0 .1-.1.1-.2l-.1-.1c-.1-.1-.2 0-.2 0l-.1.1z"/></g></g></g><g id="eye_left"><path class="st7" d="M553.3 274.9c-1.1-7.2-7.8-12-15-10.9-7.2 1.1-12 7.8-10.9 15 1.1 7.2 7.8 12 15 10.9 7.1-1.3 12-8 10.9-15"/><g class="st12"><path transform="rotate(-64.793 543.098 274.82)" class="st8" d="M536 267.5h14.2v14.6H536z"/><path class="st13" d="M541.5 272.7c-.1 0-.1 0 0 0-.1 0-.1 0 0 0-.1-.1-.1-.1-.1 0h-.1v.1c.1 0 .2 0 .2-.1zM544.1 276.8h-.2v.2l.1.1c.1.1.2 0 .3-.1-.1 0-.2-.2-.2-.2zM544.3 278.3s0-.1-.1-.1v.1c0 .1.1.1.2.1s.1 0 .1-.1h-.2zM537.8 279.9s0-.1 0 0c-.1-.1-.1-.1 0 0-.1 0-.1 0 0 0zM547.7 281.9s0 .1 0 0c.1.1.1 0 0 0 .1 0 .1 0 0 0zM543.6 276.5h-.1l-.1.1v.1c0 .1 0 .2.1.2h.1c.1 0 .1 0 .2-.1v-.1-.2c-.1.1-.1 0-.2 0zM541 275.6l-.1.1v.1l.1.1h.2c.1 0 .1-.1.1-.1v-.1l-.1-.1h-.2zM536.5 276.6c-.1 0-.1 0 0 0-.1-.1-.1 0 0 0h-.1c0 .1 0 .1.1 0-.1 0 0 0 0 0zM540.9 281c0-.1 0-.1 0 0-.1-.1-.1-.1-.1 0h.1c-.1 0-.1 0 0 0zM543.3 277.7l-.1-.1c0-.1.1-.1.1-.1l.1-.1.1-.1h.2v.1c0 .1-.1.1-.1.1v.1l-.1.1h-.1c-.1 0-.1-.1-.2-.2v-.2l.1.4zm.4 0zM543.1 280s0-.1 0 0l.1-.1v-.1-.1s-.1 0-.1.1v.2zM539.9 278.2v.1l.1.1s0-.1-.1-.2c0 .1 0 0 0 0zM545.3 278.5l-.1.1v.1h.2l.1-.1v-.1h-.2zM547.5 278.9s0 .1 0 0c.1.1.1.1.1 0h-.1c.1 0 .1 0 0 0 .1 0 0 0 0 0zM549.1 277.5c.1 0 .1 0 0 0 .1-.1.1-.1 0 0zM543.9 274.5l.1-.1-.1.1c.1-.1.2-.1.2-.2v-.2l-.1-.1h-.4l-.1.1c0 .1 0 .2.1.2.1.2.2.2.3.2zM542 271s0-.1-.1-.1v.1h.1c0 .1 0 .1 0 0 0 .1 0 .1 0 0zM544 272.8h-.2v.1s0 .1.1.1.1 0 .2-.1l-.1-.1zM544.2 273.7h.1v-.2h-.2v.1l.1.1c-.1 0 0 0 0 0zM543.7 269.6s.1.1 0 0h.1-.1c.1-.1.1-.1 0 0zM542.8 274.3c0-.1 0-.2-.1-.2H542.4c0 .1 0 .2.1.2h.2c0 .1.1.1.1 0zM541.7 276.4v-.1c0-.1-.1-.2-.1-.2h-.1l-.1.1v.1l.1.1c0 .1.1.1.2 0zM540.4 275.5l-.1.1v.2s.1.1.2 0c0 0 .1 0 .1-.1l.1-.1v-.1l-.1-.1h-.1l-.1.1zM542.8 277.1c.1 0 .1 0 .2-.1v-.1l-.1-.1h-.2c-.1 0-.1.1-.1.1v.2h.2zM536.1 272.9c-.1-.1-.1-.1 0 0-.1-.1-.1 0-.1 0h.1c-.1 0-.1 0 0 0zM543.3 276.1l-.1.1v.2l.1.1h.1c.1 0 .1-.1.1-.1v-.2c0-.1-.1-.1-.1-.1h-.1zM541.5 275.3c0-.1 0-.2-.1-.3h-.1c-.1 0-.1.1-.1.1 0 .1 0 .2.1.3h.1l.1-.1zM544.5 282.1s0-.1 0 0c0 0 .2 0 0 0zM539.2 277.1v-.2H538.9c0 .1 0 .1.1.1 0 .2.2.2.2.1zM542.1 282.1c0-.1 0-.1 0 0v-.1.1c-.1 0 0 0 0 0zM540.7 277.7v.1l.1.1c.1 0 .2 0 .3-.1v-.2c0-.1-.1-.1-.2-.1s-.1 0-.2.2c0-.1 0-.1 0 0zM543.4 278.9l.1.1.1-.1h-.2zM541.8 277.9c-.1.1-.1.1-.2.1v.2c0 .1.1.1.2.1h.1l.1-.1c.1-.1 0-.2-.1-.3h-.1zM537.4 275.3c-.1 0-.1 0 0 0-.1.1-.1.1 0 0 0 .1 0 .1 0 0zM542.8 278.6v.2h.1v-.1h-.1c.1-.1 0-.1 0-.1zM542.1 277.4v-.1l-.1-.1h-.2v.1c0 .1 0 .2.1.2l.1-.1v.1h.1v-.1zM538.1 277.9c0-.1 0-.1 0 0 0-.1 0-.1 0 0-.2 0-.2 0 0 0zM540.9 277c.1.1.2.1.2.1.1 0 .1-.1.1-.1v-.1l-.1-.1c-.1 0-.1-.1-.2 0-.1 0-.1.1-.1.1l.1.1zM538.9 276.2v-.2h-.2c0 .1 0 .1.1.1-.1.1 0 .1.1.1zM540.3 277.2h.1l.1-.1v-.1l-.1-.1h-.2c-.1 0-.2.1-.2.1v.2c0-.1.1 0 .3 0zM534.5 277.8c0-.1-.1 0 0 0-.1 0-.1 0 0 0h-.1.1zM539.7 275.7l.1-.1h-.1v.1c-.1 0-.1 0 0 0zM541.8 278.9c.1-.2 0-.2 0-.2s-.1 0-.1.1v.2l.1-.1zM541 279.9l.1-.2h-.2v.2h.1zM540.6 278.3c.1-.1.1-.2.1-.2l-.1-.1c-.1 0-.1 0-.1.1-.1.3 0 .3.1.2zM539.7 277.7l-.1-.1h-.1v.1s0 .1.1.1l.1-.1zM538.6 277c.1-.1.1-.2 0-.3h-.2v.1c0 .2.1.2.2.2zM540.6 274.4H540.9l.1-.1.1-.1h.1l.1-.1v-.1l-.1-.1h-.1l-.1.1h-.1-.1c-.1 0-.2 0-.2.1v.3zM544.5 276c0-.1-.1-.1-.1-.1-.1 0-.1.1-.1.1v.2c0 .1.1.1.1.1.1 0 .2 0 .2-.1-.1-.1-.1-.2-.1-.2zM547.3 275.3c.1.1.1.1.1 0h-.1c.1 0 .1 0 0 0zM539 275.1c0-.1 0-.2-.1-.2h-.1c0 .1.1.1.1.1.1.2.1.2.1.1zM539.7 274.3c.1 0 .1 0 .2-.1v-.1h-.1s-.1 0-.1.1v.1zM546 270.9c-.1 0-.1 0 0 0l-.1-.1c-.1.1-.1.1.1.1-.1 0-.1.1 0 0zM537.9 273.4c0-.1 0-.1 0 0-.1-.1-.1-.1 0 0-.1 0-.1 0 0 0zM542.5 275.4c-.1 0-.2 0-.2.1v.1c0 .1.1.1.1.2h.2v-.1c0-.1 0-.2-.1-.3zM538.9 274.8h.1v-.2h-.1v.2c-.1-.2-.1-.2 0 0-.1-.2-.1-.2 0 0zM542.1 276.1s-.1 0-.2.1c0 .1 0 .2.1.2H542.3l.1-.1v-.2s0-.1-.1-.1h-.1c0 .1 0 .1-.1.1zM539.5 275.1c0 .1 0 .1 0 0l.1.1c0-.1 0-.1-.1-.2-.1 0-.1 0-.2.1h.2zM545 277.2c-.1-.1-.2-.1-.2-.1s-.1 0-.1.1v.1h-.1s-.1 0-.1.1v.1l.1.1s.1 0 .1-.1h.1v-.1l.2-.2c.1.1.1 0 0 0zM545.5 280.3s.1 0 0 0c0-.2 0-.2 0 0 0-.2 0-.2 0 0h-.1.1c-.1 0-.1 0 0 0-.1.1 0 .1 0 0 0 .1 0 .1 0 0zM545.2 277.1l-.1.1v.1h.1v.1h.1v-.1h.1v-.1h-.1v-.1zM540.4 275.1c.1 0 .1-.1.1-.1v-.2c0-.1-.1-.1-.2-.1s-.1 0-.2.1v.2c0 .1.2.1.3.1z"/><path class="st13" d="M542.9 276.3l-.1.1c0 .1.1.1.2.2h.1l.1-.1v-.1l-.1-.1c0-.1-.1 0-.2 0zM539.2 271.6c-.2-.1-.2-.1 0 0-.1-.1-.1 0-.1 0v.1c-.1-.1-.1 0 .1-.1zM545.6 275.3v-.1h-.1c-.1 0-.1 0-.2.1 0 0-.1 0-.1.1v.1h.1c0 .1 0 .1.1.1h.1v-.1l.1-.2c0 .1 0 .1 0 0zM541.1 271.3c-.1 0-.1 0 0 0-.1 0-.1 0 0 0-.1 0-.1-.1 0 0l-.1-.1.1.1c-.1 0-.1.2 0 0-.1 0 0 0 0 0zM543 272.8c.1-.1 0-.2 0-.2H542.7v.1c.1 0 .1.1.3.1zM542.7 272.2v-.1h-.2-.1s0 .1.1.1c.1.1.2.1.2 0zM544.5 272.4v-.1h-.1s-.1 0-.1.1v.1h.1c0-.1.1-.1.1-.1zM542.1 273.3c.1-.2.1-.3 0-.3h-.2s-.1 0-.2.1V273.4s.1.1.2 0c.1 0 .2-.1.2-.1zM540.7 272.7s0-.1 0 0l-.1-.1.1.1zM546.4 273.1c-.1.1-.1.2 0 .2h.1l.1-.1v-.1h-.2zM541.1 272.6l.1-.1h-.1s-.1 0-.1.1v.1c-.1-.1 0-.1.1-.1zM547.8 270.7h-.1v.1l.1-.1c0 .1 0 0 0 0zM542.7 267.2c-.1 0-.1 0 0 0-.1.1-.1.1 0 .1v-.1zM541.9 272.8h.1v-.1h-.1s-.1 0-.1.1c0-.1 0 0 .1 0zM545.2 272.3c-.1-.1-.1 0-.1 0v.2H545.4c-.1-.2-.1-.2-.2-.2zM544.4 272s.1.1.2 0v-.2h-.2v-.1.3zM544.4 274.6v.1c0 .1.2.1.2.1h.1v-.2l-.1-.1c.1 0 .1 0-.2.1zM542.6 273.2c-.1.1-.1.2-.1.3l.1.1h.1l.1-.1v-.2c0-.1-.1-.1-.2-.1zM546.4 274.3h-.1v.2h.2v-.1l-.1-.1c.1 0 .1 0 0 0zM546.2 275.4c-.1 0-.1 0-.1.1h.1v-.1c.1 0 .1 0 0 0zM545.8 276.5l-.1.1c0 .1.1.1.1.1h.1v-.2h-.1zM542 274.4c-.1 0-.1.1-.2.1 0 .1 0 .2.1.2h.1c.1 0 .1 0 .2-.1v-.1c0-.1 0-.1-.1-.2l-.1.1zM546.4 268.6c.1 0 .1 0 0 0 0-.1 0-.1-.1-.1 0 .1 0 .1.1.1zM547.4 273.2c0 .1 0 .1 0 0 .1.1.1.1.1 0h-.1zM545.5 274.1l.1-.1-.1-.1c-.1 0-.1 0-.2.1v.1h.2zM548.7 275.4c.1 0 .1 0 0 0 .1 0 .1-.1 0 0 .1-.1 0 0 0 0zM544.1 271.1s0-.1 0 0c-.1-.1-.1 0 0 0-.1 0-.1 0 0 0-.1 0-.1 0 0 0zM544.1 273.3c0-.1 0-.1 0 0v-.1h-.2c0 .1 0 .1.1.2h.1c-.1-.1 0-.1 0-.1z"/><path class="st13" d="M545.1 275.6v.1h.1s.1 0 .1-.1v-.1c0 .1-.1.1-.2.1zM539.3 269.6c-.1 0-.1 0 0 0-.1 0-.1.1 0 0 0 .1 0 0 0 0zM542.9 274.9l-.2.1c0 .1 0 .2.1.3h.1l.1-.1v-.2s0-.1-.1-.1zM540 273.1v-.1s0-.1-.1-.1v.1c0 .2 0 .2.1.1zM538.8 279.8c.1 0 .1 0 0 0 .1-.1 0-.1 0 0 0-.1 0-.1 0 0zM546.7 277.2c.2 0 .2 0 0 0h.2c0-.1 0-.1-.2 0zM543.4 275.1s.2 0 0 0l.2.1.1-.1v-.2h-.1c-.1 0-.2.1-.2.1v.1z"/><g><path transform="rotate(-17.936 541.827 273.957)" class="st8" d="M534.7 266.6h14.2v14.6h-14.2z"/><path class="st13" d="M542.2 271.3c0-.1 0-.1 0 0v-.2l-.1.1c0 .1.1.1.1.1zM541 276.1l-.1-.1c-.1 0-.1.1-.1.1v.1c0 .1.2.2.3.1l.1-.1c-.1.1-.2 0-.2-.1zM540.1 277.3v-.2h-.1v.2s.1.1.2 0h-.1zM534.5 273.7c0-.2 0-.2 0 0 0-.2-.1-.2 0 0zM539.9 282.2c-.1 0-.1 0 0 0-.1.1 0 .1 0 0zM540.9 275.5l-.1-.1h-.1c-.1 0-.1.1-.1.1-.1 0-.1.1-.1.2 0 0 0 .1.1.1 0 0 .1.1.2 0 .1 0 .1-.1.1-.1v-.2zM539.8 273.1h-.1l-.1.1v.1c0 .1 0 .1.1.1h.2l.1-.1v-.1l-.2-.1zM536 270.4v-.1c-.1-.1-.1.1 0 .1-.1 0-.1 0 0 0 0 .1 0 .1 0 0zM535.9 276.6v-.1h-.1l.1.1c-.2 0-.2 0 0 0-.2 0-.2 0 0 0zM539.9 276.2v-.1H540.2v.2l-.1.1h-.2-.2l-.1-.1c0-.1-.1-.1 0-.2h.1l.2.1zm.2.2c-.1 0-.1 0 0 0zM538.1 277.5c0 .1.1.1 0 0h.1v-.1-.1h-.1s-.2.1 0 .2zM537.2 274l-.1.1v.1c.1 0 .1-.1.1-.1v-.1zM540.7 278.2h-.1v.2h.2l-.1-.2zM541.9 280v.1h.1l-.1-.1c0 .1 0 0 0 0zM544 280.1s0 .2 0 0c0 .2 0 .2 0 0 .1.2.1 0 0 0zM542.6 274.4h0c.1 0 .2.1.2 0l.1-.1v-.2c0-.1 0-.1-.1-.1 0-.1-.1-.1-.2-.1h-.1c-.1 0-.1.1-.1.2.1.1.1.2.2.3zM543.9 270.7l.1-.1c-.2 0-.2 0-.1.1-.1-.1-.1 0 0 0zM544 273.2c-.1-.1-.1-.1 0 0l-.1-.1s-.1 0-.1.1v.1c0 .1.1.1.2.1v-.2c-.1.1-.1.1 0 0zM543.4 274l.1.1h.1v-.1-.2h-.1-.1v.2zM546 270.9s.1 0 0 0c.1 0 .1 0 0 0h.1c.1 0 0-.1-.1 0 .1-.1.1-.1 0 0zM542 273.4c.1 0 .1-.1.1-.2s0-.1-.1-.1h-.2c-.1 0-.1.1-.1.2s0 .1.1.1h.2zM539.7 274h.1c.1-.1 0-.2 0-.2l-.1-.1h-.1s-.1 0-.1.1v.1s.1.1.2.1zM539.5 272.4h-.1c-.1 0-.1.1-.1.1v.1s0 .1.1.2H539.7l.1-.1v-.1l-.3-.2zM540 275.3c0 .1.1.1.2.1l.1-.1v-.1c0-.1-.1-.1-.1-.2h-.2c-.1 0-.1.1-.1.1 0 .1 0 .1.1.2zM538.4 267.5c.1-.1.1-.1 0 0 0-.1 0-.1 0 0 0-.1 0-.1 0 0zM541.1 275.1h-.1s-.1.1-.1.2v.1l.1.1h.2c.1 0 .1-.1.1-.1v-.2l-.2-.1zM540.4 273.1c.1-.1.1-.2.1-.3v-.1h-.2c-.1 0-.2.2-.1.3l.1.1h.1zM537.5 280c.1 0 .1 0 0 0 0 .1 0 0 0 0zM537.5 272.8l.1-.1v-.1h-.1-.1c-.1 0-.1.1-.1.2 0-.1.1 0 .2 0zM535.9 278.3c.1 0 .1 0 0 0 .1-.1.1-.1 0 0v-.1.1zM538.2 274.2l-.1.2c0 .1.1.2.3.1l.1-.1v-.1-.2c-.1.1-.2.1-.3.1zM539 277.1v.1h.1c.1 0 .1-.1-.1-.1zM538.6 275.2h-.2c-.1 0-.1.1-.1.1v.2h.2c.2 0 .2-.1.1-.3zM537.5 270.1h-.1.1c0 .1 0 .1 0 0zM538.8 276.4l-.1.1h.1s.1 0 .1-.1v-.1c0 .1-.1.1-.1.1zM539.3 275.1l.1-.1v-.2l-.1-.1h-.1c-.1 0-.1.1-.1.2h.1-.2v.1l.3.1zM536.1 272.4s.1 0 0 0c.1 0 .1 0 0 0 .1-.1 0-.1 0 0zM538.8 273.9c0 .2 0 .2.1.2h.2l.1-.1v-.1c0-.1 0-.1-.1-.2h-.2l-.1.2zM537.9 271.9c.1 0 .1-.1.1-.2s-.1-.1-.1-.1l-.1.1c0 .1 0 .1.1.2zM538.2 273.5l.2.1h.1l.1-.1v-.1c0-.1-.1-.1-.1-.2H538.2v.3zM533.8 269.8s.1 0 0 0c0-.1 0-.1 0 0 0-.1 0-.1 0 0 0-.1 0-.1 0 0zM538.8 272.2h.1v-.2h-.1s-.1 0-.1.1c0-.1 0 0 .1.1zM537.9 275.9c.2-.1.2-.1.2-.2h-.1c-.1 0-.1.1-.1.1-.1.1-.1.1 0 .1zM536.7 276h.1v-.1-.2h-.1-.1v.1c0-.1 0 .1.1.2zM537.5 274.5h.1c.1 0 .1-.1.1-.1v-.1s-.1-.1-.2 0-.1.1 0 .2zM537.4 273.5v-.1-.1h-.1s-.1 0-.1.1v.1c0-.1.1 0 .2 0zM537.2 272.1c.1 0 .2-.1.2-.2v-.1h-.2s-.1 0-.1.1c.1.1 0 .2.1.2zM540.4 272v.1s0 .1.1.1l.1.1h.2l.1.1h.1l.1-.1v-.1l-.1-.1h-.2v-.1c0-.1-.1-.1-.2-.1-.1-.1-.2 0-.2.1zM542 275.7v-.2h-.2c-.1 0-.1.1-.1.1v.2c0 .1.1.1.2.1l.1-.2zM544.3 277.4c0 .1 0 .1 0 0 .1.1.1.1 0 0zM538.9 271.2c.1-.1.1-.1.1-.2s-.1-.1-.1-.1v.2c-.1.1-.1.1 0 .1zM539.9 271.1c0 .1.1.1.2.1s.1-.1.1-.1v-.1h-.2l-.1.1zM546.6 273.4c.1-.1 0-.1 0-.1-.1 0-.1 0 0 .1-.1-.1-.1 0 0 0zM539.4 269.3c-.1-.2-.1 0 0 0h-.1.1c-.1 0 0 0 0 0zM540.9 273.9c0-.1-.1-.1-.2-.1l-.1.1c-.1.1-.1.2 0 .2 0 0 .1.1.2.1h.1s.1-.1 0-.3zM539 270.9h.1c.1 0 .1-.1.1-.1h-.2v.1c0-.1 0-.1 0 0zM540.3 274.2s-.1-.1-.2 0-.1.2-.1.2l.1.1c0 .1.1.1.2.1l.1-.1v-.2l-.1-.1c.1 0 .1 0 0 0zM539.2 271.6v.1c.1 0 .1-.1.1-.2s-.1-.1-.2-.1l.1.2zM541.4 277.1v-.1l-.1-.1h-.1v0h-.2s-.1 0-.1.1v.1h.5zM539.5 279.5c0 .1.1.1 0 0 .1 0 .1 0 0 0 .1 0 .1 0 0 0v-.1.1c0 .1 0 .1 0 0zM541.6 277.1h-.1V277.4h.1l.1-.1v-.1zM539.8 272.2H540.1v-.1c0-.1 0-.1-.1-.2-.1 0-.1-.1-.2 0-.1 0-.1.1-.1.1s0 .1.1.2zM540.7 274.9l-.1.1c-.1.1-.1.2 0 .2l.1.1h.1v-.1c0-.2-.1-.3-.1-.3zM541.5 268.8c0-.1 0-.1 0 0 0 0-.1 0 0 0h-.1.1zM543.2 276.3l.1-.1s0-.1-.1-.1c0-.1-.1-.1-.2-.1h-.1s-.1 0-.1.1v.1s-.1.1 0 .1v.1h.2l.2-.1c-.1 0 0 0 0 0zM543 270.1v-.1.1c-.1 0-.1 0 0 0-.1 0 0 .1 0 0zM544.4 274.4l-.1.1v.2c.1 0 .1-.1.1-.1v-.2zM543.2 272.4c.1 0 .1-.1.1-.1v-.1h-.1c-.1 0-.1.1-.1.1.1 0 0 0 .1.1zM543.4 272l.1-.1v-.2h-.1-.1v.1c0 .1.1.2.1.2zM544.5 273.4l.1-.1v-.1h-.2v.1c0 .1.1.1.1.1zM542.2 272.2h.1c.1 0 .1-.1.1-.2v-.1h-.1s-.1-.1-.2 0h-.1l-.1.1v.1c0 .1 0 .1.1.1h.2zM534.4 271.9c0 .1 0 .1 0 0 0 .1.1.1 0 0 .1.1.1.1 0 0 .1 0 0 0 0 0zM545.3 275.2c-.1 0-.2 0-.1.2h.1s.1 0 .1-.1c0 .1 0 0-.1-.1zM542.1 271h.1c0-.1 0-.1-.1-.1h-.1s-.1 0-.1.1c.1-.1.1-.1.2 0zM548.1 274.6c0-.1 0-.1 0 0 0-.1 0-.1 0 0-.1-.1-.1 0-.1 0h.1zM547.2 268.5h-.1v.1l.1-.1c-.1 0 0 0 0 0zM542.5 271.7l.1.1h.1s0-.1-.1-.1h-.1c0-.1 0 0 0 0zM545.1 273.8c0-.1-.1-.1 0 0-.1-.1-.2 0-.2 0v.1h.1c.2.1.2 0 .1-.1zM544.8 273s0 .1.1.1h.1V272.8h-.1l-.1.2zM542.9 274.9l-.1.1c-.1.1 0 .2 0 .3H543.1l.1-.1v-.1c0-.1-.1-.1-.1-.2h-.2zM542.7 272.4h-.1c-.1 0-.1.1-.1.1v.2l.1.1h.1c.1 0 .1-.1.1-.1s-.1-.1-.1-.3zM544.5 276.1l-.1-.1h-.1v.2H544.6l-.1-.1zM543.6 276.7h-.2c0 .1 0 .1.1.1-.1 0 .1 0 .1-.1 0 .1 0 0 0 0zM542.3 277.1h-.1v.1s0 .1.1 0h.1v-.1c.1.1.1.1-.1 0zM541.4 272.9h-.2c-.1 0-.1.1-.1.2l.1.1c.1.1.1.1.2.1l.1-.1c.1-.1.1-.1.1-.2l-.2-.1zM548.6 272.2c.1 0 .1 0 0 0 .1-.1.1-.1 0-.1v.1zM546 276.1c-.1 0-.1.1 0 0 0 .1 0 .1.1.1l-.1-.1zM544 275.2h.1v-.1c0-.1-.1-.1-.2-.1v.1c.1 0 .1 0 .1.1zM545.3 278.5c0 .1 0 .1 0 0 0 .1 0 .1 0 0 .1.1.1.1 0 0zM545.2 272.2c0-.1 0-.1 0 0 0-.1 0-.1 0 0 0-.1-.1-.1 0 0-.1-.1-.1 0 0 0zM543.7 273.7l.1-.1v-.1s0-.1-.1-.1-.1.1-.1.2 0 .1.1.1zM545.3 268.5c-.1 0-.1 0 0 0-.1.1 0 .1 0 0z"/><path class="st13" d="M542.6 276.1l-.1.1s0 .1.1.1h.1c.1 0 .1-.1.1-.1 0-.1-.1-.1-.2-.1zM543 267.6c0-.1 0-.1 0 0-.1 0-.1 0 0 0zM541.7 273.9l-.1-.1c-.1 0-.2.1-.1.3l.1.1h.2v-.1c-.1-.1-.1-.1-.1-.2zM541 270.6c.1-.1.2-.1.1-.2h-.1c-.2.2-.1.2 0 .2zM548 277.8c0-.1.1-.1 0 0 0-.1 0-.1 0 0 0-.1 0-.1 0 0zM535.3 274.3c.1 0 .1-.1 0 0 0-.1 0-.1 0 0zM542.7 278.3c0 .1 0 .1 0 0v.1s0 .1.1 0c0-.1-.1-.1-.1-.1zM541.9 274.4v.1l.1.1h.2c.1 0 .1-.1.1-.2l-.1-.1c-.1-.1-.2-.1-.2-.1l-.1.2z"/></g><g><path transform="rotate(-22.205 540.759 273.045)" class="st8" d="M533.4 265.9H548v14.2h-14.6z"/><path class="st13" d="M538.1 272.9c-.2 0 0 0 0 0h-.2s.1.1.1 0 .1 0 .1 0zM542.9 273.8l-.1.1v.1c0 .1.1.1.1.1h.1c.1 0 .2-.2.1-.3v-.1s-.1 0-.2.1zM544.1 274.5h-.1v.1c.1 0 .1 0 .2-.1v-.2l-.1.2zM540.9 280.4c-.1 0-.1 0 0 0 0 .1 0 .1 0 0 0 .1 0 0 0 0zM549.1 274.4c.1.1.1.1 0 0 .1 0 .1 0 0 0 .1-.1.1-.1 0 0zM542.3 273.9l-.1.1v.1l.1.1c0 .1.2.1.2.1s.1 0 .1-.1v-.2c0-.1-.1-.1-.1-.1h-.2zM539.9 275.2v.1l.1.1h.1c.1 0 .1-.1.1-.1v-.2l-.1-.1h-.1l-.1.2zM537.6 279.2c-.1 0-.1 0 0 0h-.1c0 .1 0 .1.1 0-.1.1-.1.1 0 0l-.1.1c.1 0 .1 0 .1-.1 0 .1 0 0 0 0zM543.9 278.8h-.1v.1l.1-.1c-.1.1-.1.1 0 0-.1.1-.1.1 0 0 0 .1 0 0 0 0zM543 274.9h-.1v-.2-.1.1-.1h.2l.1.1v.4l-.1.1c-.1 0-.1.1-.2 0h-.1v-.1l.2-.2zm.3-.4c-.1.1 0 .1 0 0 0 .1 0 .1 0 0zM544.5 276.6c0-.1 0-.1 0 0v-.1h-.1-.1v.1h.2zM541 277.7l.1.1h.1c0-.1-.1-.1-.1-.1h-.1zM545 274v.1h.1v-.1-.1l-.1.1zM546.7 272.6h.1v-.1l-.1.1c.2 0 .2 0 0 0zM546.7 270.5c.2 0 .2 0 0 0 0-.1 0-.1 0 0zM541 272.2v-.2l-.1-.1h-.2c-.1 0-.1.1-.1.1-.1 0-.1.1-.1.2v.1c.1.1.1.1.2.1.2 0 .3 0 .3-.2zM537.3 271.3s-.1-.1-.1 0h.1zM539.8 271c-.1.1-.1.1 0 0l-.1.1s0 .1.1.1h.1c.1 0 .1-.1.1-.2h-.2c.1 0 .1 0 0 0zM540.6 271.5l.1-.1h-.1-.1v.2l.1-.1zM537.3 269.1s.1 0 0 0c.1 0 .1-.1 0-.1v.1c0-.1 0-.1 0 0zM540.3 273c0-.1-.1-.1-.2-.1s-.1.1-.1.1v.2c0 .1.1.1.2.1s.1-.1.1-.1v-.2zM540.9 275.2l-.1-.1c-.1-.1-.2 0-.2 0l-.1.1v.1s0 .1.1.1h.1c.1 0 .2-.1.2-.2zM539.4 275.5v.1c0 .1.1.1.1.1h.1s.1 0 .2-.1v-.1-.2l-.1-.1h-.1l-.2.3zM542.1 274.8c.1 0 .1-.1 0-.2l-.1-.1h-.1c-.1 0-.1.1-.1.1v.2c0 .1.1.1.1.1.1 0 .2 0 .2-.1zM534.5 277c-.1 0-.1 0 0 0-.1 0-.1 0 0 0-.1.1-.1.1 0 0 0 .1 0 0 0 0z"/><path class="st13" d="M541.9 273.8v.1s.1.1.2.1h.1l.1-.1v-.2c0-.1-.1-.1-.1-.1h-.2l-.1.2zM540 274.5c-.1-.1-.2-.1-.3-.1v.2c0 .1.2.2.3.1l.1-.1-.1-.1zM547.1 276.8c0 .2 0 .2 0 0 .1.2.1 0 0 0zM539.8 277.5l-.1-.1h-.1v.2c0 .1.1.1.2.1v-.2zM545.4 278.7c0-.1 0-.1 0 0l-.1-.1.1.1c0 .1 0 0 0 0zM541.2 276.7l.2.1c.1 0 .2-.1.1-.3l-.1-.1H541.1c0 .1 0 .2.1.3zM544 275.6h.1v-.1c0-.1 0 0-.1.1zM542.2 276.2v.2c0 .1.1.1.1.1.1 0 .1 0 .2-.1v-.2c.1-.1-.2-.1-.3 0zM537.3 277.6s-.1 0 0 0c-.1.1-.1 0 0 0v0c0 .1 0 0 0 0zM543.3 276l.1.1v-.1l-.1-.1h-.1c.1-.2.1 0 .1.1zM542 275.5l-.1-.1h-.2v.2c0 .1.1.1.2.1v-.1l.1.1h.1l-.1-.2zM539.7 278.9s0-.1 0 0c-.1-.1-.1-.1 0 0-.1-.1-.1 0 0 0-.1 0-.1 0 0 0-.1 0 0 0 0 0zM540.8 276.2c.2 0 .2 0 .2-.1v-.2l-.1-.1h-.1c-.1 0-.1.1-.1.1v.2l.1.1zM538.9 277.1c0-.1-.1-.1-.2-.1s-.1.1-.1.1.1.1.2 0c0 .2 0 .1.1 0zM540.6 276.7l.1-.2v-.1l-.1-.1h-.1c-.1 0-.1.1-.1.1V276.7c0 .1.1.1.2 0zM537.2 281.5c0-.1 0-.1 0 0 0-.1 0-.1 0 0-.1 0-.1 0 0 0-.1 0-.1 0 0 0-.1 0-.1 0 0 0zM539.2 276.2l-.1-.1h-.2v.1s0 .1.1.1l.2-.1zM542.9 276.8c-.1-.2-.2-.2-.2-.1v.1c0 .1.1.1.1.1.1.1.1.1.1-.1zM543.1 278.1v-.1h-.1-.1v.2h.1c-.1 0-.1 0 .1-.1zM541.6 277.3v-.1c0-.1-.1-.1-.1-.1h-.1s-.1.1 0 .2c.1.2.2.1.2 0zM540.6 277.6h-.1-.1v.1s0 .1.1.1h.1v-.2zM539.3 277.8c0-.1-.1-.2-.2-.2l-.1.1v.2s0 .1.1.1l.2-.2zM538.8 274.6h.1l.1-.1.1-.1v-.2l.1-.1v-.1l-.1-.1h-.1l-.1.1v.2h-.1c-.1.1-.1.2-.1.2 0 .2 0 .2.1.2zM542.6 272.8h-.2v.2c0 .1.1.1.1.1h.2c.1-.1.1-.1.1-.2-.1 0-.2-.1-.2-.1zM544 270.4c.1 0 .1-.2 0 0 0-.2 0-.2 0 0zM538.3 276.2c-.1-.1-.1-.1-.2-.1s-.1.1-.1.1h.2c.1.1.1.1.1 0zM538.1 275.2c.1 0 .1-.1 0-.2l-.1-.1h-.1v.1l.2.2zM539.8 268.4c-.1-.1-.1 0-.1 0s0 .1.1 0c0 .1 0 .1 0 0zM540.7 274c-.1.1-.1.1-.1.2l.1.1c.1.1.2 0 .2 0s.1-.1.1-.2v-.1s-.1-.1-.3 0zM537.8 276.1v-.1c0-.1-.1-.1-.1-.1v.2h.1c-.1 0-.1 0 0 0zM541 274.6s-.1.1 0 .2.2.1.2 0l.1-.1c.1-.1.1-.1.1-.2l-.1-.1h-.2v.1s-.1 0-.1.1zM538.5 276s.1 0 0 0h.1c0-.1-.1-.1-.2-.1s-.1.1-.1.2l.2-.1zM543.8 273.3h-.1l-.1.1v.1h.1v.1s0 .1.1.1h.1v-.2-.1l-.1-.1c.1 0 .1 0 0 0zM546.4 275c-.1-.1-.1-.1 0 0-.1-.1-.1-.1 0 0h-.1.1c0 .1 0 .1 0 0 0 .1 0 .1 0 0zM543.9 273.1v.1h.2v-.2h-.2zM539.2 275.3V275h-.2c-.1 0-.1 0-.2.1 0 .1-.1.1 0 .2 0 .1.1.1.1.1s.1 0 .3-.1zM541.7 274.2l.1.1h.2l.1-.1v-.1h-.1c-.2-.1-.3 0-.3.1zM535.6 273.8c-.1 0-.1 0 0 0-.1.1-.1.1 0 0-.1.1-.1.1 0 .1v-.1zM542.9 271.6l-.1-.1s-.1 0-.1.1c-.1 0-.1.1-.1.2v.1s0 .1.1.1h.2v-.1V271.6zM536.8 272.2c-.1 0-.1 0 0 0h-.1.1c0 .1 0 .1 0 0zM541 270.4l.1.1h.2c0-.1-.1-.1-.1-.1h-.2zM539.2 271.8c0-.1-.1-.1-.1-.1h-.1v.1c0 .1.1.1.1.1-.2 0-.1 0 .1-.1zM538.6 271.7l-.1-.1h-.1v.2h.1c.1 0 .1-.1.1-.1zM540 270.4l-.1-.1s-.1 0-.1.1v.1h.2c-.1 0-.1 0 0-.1zM538.9 272.8v-.1c-.1-.1-.2-.1-.2-.1h-.1v.1s-.1.1 0 .2v.1h.2c.1 0 .1 0 .1-.1.1 0 0 0 0-.1zM537.5 273.4c0-.1 0-.1 0 0h-.1.1zM539.3 280.6c.1 0 .1 0 0 0 0-.1 0-.1 0 0zM541.7 269.5c0 .1.1.2.2.1v-.1s0-.1-.1-.1l-.1.1zM537.7 273l-.1-.1c-.1 0-.1 0-.1.1v.1s0 .1.1.1c0-.1.1-.1.1-.2zM540.9 266.7c-.1 0-.1.1 0 0-.1.1-.1.1 0 0-.1.1 0 .1 0 .1.1 0 0 0 0-.1zM534.8 268.2v.1h.1l-.1-.1c.1.1.1 0 0 0zM538.4 272.7l.1-.1v-.1s-.1 0-.1.1v.1c-.1-.1 0 0 0 0zM540.4 269.8c-.1.1-.1.1 0 0v.2h.1v-.1c0-.1-.1-.1-.1-.1zM539.6 270.2s.1 0 .1-.1v-.1.1h-.2v.1h.1zM541.6 271.9l.1.1c.1.1.2 0 .3-.1V271.6l-.1-.1h-.1c-.1 0-.1.1-.2.2v.2zM539.2 272.4v.1c0 .1.1.1.1.1h.2l.1-.1v-.1c0-.1-.1-.1-.1-.1-.1-.1-.2 0-.3.1zM542.6 270.2l-.1.1h.2v-.1-.2l-.1.2c.1 0 .1 0 0 0zM543.3 271.2v.2s.1 0 .1-.1c0 0 0-.1-.1-.1.1-.1 0-.1 0 0zM543.8 272.3l.1.1h.1v-.1h-.1c0-.1 0-.1-.1 0zM539.7 273.7v.2c0 .1.1.1.2.1l.1-.1c.1-.1.1-.1.1-.2l-.1-.1c-.1-.1-.1-.1-.2-.1l-.1.2zM538.5 266.4c-.1-.1-.1 0-.1 0 0 .1 0 .1.1 0-.1.1-.1 0 0 0-.1 0-.1 0 0 0zM542.5 268.8c.1 0 .1 0 0 0 .1 0 .2 0 0 0 0-.1 0 0 0 0zM541.8 270.8v-.1h-.1c-.1 0-.1.1-.1.2h.1l.1-.1zM538.7 269.8s-.1 0 0 0c-.1 0-.1.1 0 0-.1.1-.1.1 0 0 0 .1 0 .1 0 0zM540.3 271.3s0-.1 0 0l-.1-.1h-.2s-.1 0-.1.1.1.1.2.1c.2.1.3-.1.2-.1z"/><path class="st13" d="M542.8 272.2c.1.1.2.1.2 0v-.1l-.1-.1c-.1 0-.1 0-.1.2zM534.3 272.4c0-.1-.1-.1 0 0-.1 0-.1 0 0 0zM540.6 273.3l-.1.2c0 .1.1.2.3.1l.1-.1v-.2h-.1c0-.1-.1-.1-.2 0zM537.4 274.2c-.1-.1-.2-.1-.2-.1v.1c.2.1.2.1.2 0zM544.1 266.6s-.1 0 0 0c-.1.1-.1.1 0 0-.1.1 0 .1 0 0 0 .1 0 .1 0 0zM541.6 279.6s0-.1 0 0c-.1-.1-.1-.1 0 0-.1-.1-.1 0 0 0zM545 271.9c.1 0 .1 0 0 0 .1-.1.2-.1.1-.1s-.1.1-.1.1zM541.1 273h.1l.1-.1v-.2c0-.1-.1-.1-.2-.1l-.1.1c-.1.1-.1.2 0 .2l.1.1z"/></g><g><path transform="rotate(-29.191 539.62 272.05)" class="st8" d="M532.5 264.7h14.2v14.6h-14.2z"/><path class="st13" d="M539.5 269.5c0-.1 0-.1 0 0v-.1c-.1 0-.1 0 0 .1l-.1-.2s-.1.1 0 .1c0 .1 0 .1.1.1zM539.2 274.3H538.9c-.1 0-.1.1-.1.2v.1c.1.1.2.1.3.1v-.1c.2-.1.2-.2.1-.3zM538.6 275.6v-.1h-.1c0 .1 0 .1.1.2h.2l-.2-.1zM532.3 273.2c0-.1 0-.1 0 0 0-.1-.1 0 0 0zM539.3 280.6c-.1 0-.1.1 0 0 0 .1 0 .1 0 0z"/><path class="st13" d="M538.9 273.8h-.2l-.1.1c-.1.1-.1.2-.1.3 0 0 0 .1.1.1h.2c.1 0 .1-.1.1-.2.1-.1.1-.2 0-.3zM537.4 271.6h-.1l-.1.1v.1c0 .1.1.1.1.1h.2v-.2l-.1-.1zM533.1 269.7c0-.1 0-.1 0 0 0-.1 0-.1 0 0l-.1-.1c0 .1 0 .1.1.1 0 .1 0 .1 0 0zM534.2 275.9v-.1.1c-.1 0 0 0 0 0zM538.1 274.6v-.1H538.4v.2l-.1.1h-.2l-.1.1h-.1l-.1-.1c0-.1-.1-.1-.1-.2v-.1h.1l.3.1zm.3.3s-.1 0 0 0zM536.5 276.4c.1 0 .1 0 0 0h.1v-.1-.1h-.1v.2zM535 273l-.1.1.1.1c.1 0 .1-.1.1-.1s0-.1-.1-.1zM539.3 276.4l-.1.1v.2h.2l-.1-.3zM542.9 277.7s0 .1 0 0c0 .1 0 .1 0 0 .1 0 .1 0 0 0zM540.4 272.3h.2V272c0-.1-.1-.1-.1-.1 0-.1-.1-.1-.2-.1l-.1.1c-.1.1-.1.1-.1.2.2 0 .2.1.3.2zM540.9 268.5s.1-.1 0-.1-.1 0 0 .1c-.1 0-.1 0 0 0zM541.5 270.9c-.1 0-.1 0 0 0l-.2-.1-.1.1v.1c0 .1.1.1.2 0l.1-.1c0 .1 0 .1 0 0zM541.1 271.8c.1.1.1.1.2.1v-.1-.1h-.1-.1v.1zM543.1 268.3c.1.1.1.1.1 0s0-.1-.1 0c0-.1 0-.1 0 0zM539.6 271.6c.1 0 .1-.2.1-.2 0-.1-.1-.1-.1-.1h-.2c-.1 0-.1.2-.1.2 0 .1.1.1.1.1h.2zM537.5 272.6l.1-.1c.1-.1 0-.2 0-.2h-.2s-.1 0-.1.1v.1c0 .1.1.1.2.1zM537 271.1h-.2c-.1 0-.1.1-.1.1v.1s0 .1.1.1H537.1v-.2l-.1-.1zM538.1 273.8c.1 0 .1.1.2 0v-.2c0-.1-.1-.1-.1-.1h-.2c-.1 0-.1.1-.1.2l.2.1zM535 266.4s0-.1 0 0c0-.1 0-.1 0 0-.1-.1-.1-.1 0 0-.1 0 0 0 0 0zM539 273.3h-.1s-.1.1-.1.2v.1l.1.1h.2c.1 0 .1-.1.1-.1v-.2l-.2-.1zM537.9 271.6c.1-.1.1-.2 0-.3h-.2c-.1.1-.1.2-.1.3l.1.1.2-.1zM536.5 278.9s0-.1 0 0c0-.1-.1 0 0 0zM535.1 271.7l.1-.1v-.1h-.1-.1c-.1 0-.1.1 0 .2-.1.1 0 .1.1 0zM534.5 277.5c.1-.1.1-.1 0 0l.1-.1-.1.1zM536 273.1l-.1.1v.1c0 .1.1.1.3.1l.1-.1v-.1c0-.1 0-.1-.1-.2 0 0-.1 0-.2.1.1-.1 0-.1 0 0zM537.5 275.6v.1h.1l-.1-.1zM536.6 274h-.2c-.1 0-.1.1-.1.1 0 .1 0 .1.1.2h.2c.2-.1.2-.2 0-.3zM534.6 269.3c0-.2 0-.2 0 0-.1-.2-.1-.2 0 0h-.1.1c-.1 0 0 0 0 0zM537.1 275.1c-.1.1-.1.1-.1.2h.1l.1-.1v-.1c0-.1 0-.1-.1 0zM537.3 273.7l.1-.1V273.3h-.1-.1c-.1 0-.1.1-.1.2h.1l-.1.1v.1h.2zM533.7 271.8c.1-.1.1-.1 0 0 0-.1 0-.1 0 0 0-.1 0-.1 0 0zM536.5 272.6c0 .2.1.2.1.2h.2l.1-.1v-.1c0-.1-.1-.1-.1-.1h-.2l-.1.1zM535.4 270.8c.1 0 .1-.1.1-.2s-.1-.1-.2-.1v.2c-.1 0 0 .1.1.1zM536 272.3l.1.1h.1l.1-.1v-.1c0-.1-.1-.1-.1-.1h-.2v.1c-.1 0-.1 0 0 .1zM530.9 269.6c-.1-.1-.1-.1 0 0-.1-.1-.1-.1 0 0-.1-.1-.1-.1 0 0-.1 0-.1 0 0 0zM536.3 270.9l.1-.1v-.1h-.1l-.1.1s0 .1.1.1zM536.1 274.8c.1-.1.1-.2.1-.2h-.1s-.1.1-.1.2h.1zM534.9 275c.1 0 .1.1 0 0h.1v-.1-.1h-.1-.1v.1s0 .1.1.1zM535.5 273.5h.1l.1-.1v-.1h-.2c-.2.1-.1.1 0 .2zM535.1 272.6v-.1-.1h-.1l-.1.1v.1h.2zM534.6 271.2c.1 0 .2-.1.2-.2l-.1-.1h-.2s-.1 0-.1.1l.2.2zM537.7 270.4l.1.1.1.1.1.1h.2l.1.1h.1l.1-.1v-.1l-.1-.1h-.2v-.1c-.1-.1-.2-.1-.3-.1-.1-.1-.2.1-.2.1zM540 273.9v-.2h-.2c-.1 0-.1.1-.1.1v.2c.1.1.2.1.2 0 .1 0 .1-.1.1-.1zM542.7 275c0 .1.1.1 0 0 .1 0 .1 0 0 0zM536.2 270c.1-.1.1-.2 0-.2 0 0-.1-.1-.1 0v.2h.1zM537.1 269.7c0 .1.1.1.2 0l.1-.1v-.1h-.1l-.2.2zM544.1 270.6v-.1s-.1.1 0 .1zM536.2 267.9h-.1.1c-.1.1 0 0 0 0zM538.7 272.2c-.1-.1-.2-.1-.2-.1l-.1.1c-.1.1 0 .2 0 .2s.1.1.2.1h.1v-.3zM536.2 269.6h.1l.1-.1h-.2v.1c0-.1 0-.1 0 0zM538.1 272.6h-.2c-.1.1-.1.2 0 .2l.1.1c.1.1.2.1.2.1l.1-.1v-.2l-.2-.1c.1.1.1.1 0 0zM536.4 270.2s0 .2 0 0l.1.1c.1 0 .1-.1.1-.2s-.1-.1-.2-.1v.2zM539.7 275.2v-.1h-.2v.1h-.2l-.1.1s0 .1.1.1H539.6l.1-.2zM538.4 277.9c0 .2 0 .2 0 0v-.1.1c-.1 0-.1 0 0 0-.1 0-.1 0 0 0 0 .2 0 .2 0 0zM539.9 275.2h-.1v.2h.2v-.2zM537.2 270.8h.2v-.2c0-.1 0-.1-.1-.2h-.2c-.1 0-.1.1-.1.1.1.1.1.2.2.3zM538.6 273.2l-.1.1v.2h.1l.1-.1v-.1c0-.1-.1-.1-.1-.1zM538.3 267.2c0-.1 0-.1 0 0-.1-.1-.1-.1 0 0-.1-.1-.1 0-.1 0h.1zM541.4 274.1l.1-.1s0-.1-.1-.1c0-.1-.1-.1-.2-.1h-.2l-.1.1v.2h.5zM542.2 272.1l-.1.2c.1 0 .1-.1.1-.2zM540.7 270.4c.1 0 .1-.1.1-.2v-.2h-.1c-.1 0-.1.1-.1.1 0 .1 0 .1.1.3zM540.7 269.8l.1-.1v-.1h-.1-.1v.1c0 .1.1.1.1.1zM542.1 271l.1-.1s0-.1-.1-.1h-.1V271.1c0-.1.1-.1.1-.1zM539.6 270.4c.2-.1.2-.2.2-.3v-.1h-.1-.2-.1v.2c0 .1.1.1.1.1 0 .1.1.1.1.1zM538.8 268.9c.1 0 .1 0 0 0v-.1.1zM531.9 271.6c.1.1.1.1 0 0 .1 0 .1 0 0 0 .1 0 .1 0 0 0zM543.2 272.7c-.1 0-.2.1-.1.2h.1l.1-.1s0-.1-.1-.1zM539.3 269.1l.1-.1c0-.1-.1-.1-.1-.1h-.1l-.2.1c.2 0 .2 0 .3.1zM545.9 271.6c0-.1 0-.1 0 0-.1-.1-.1-.1 0 0h-.1.1c-.1 0 0 0 0 0zM543.7 265.6h-.1v.1l.1-.1c0 .1 0 0 0 0zM539.7 269.8h.2s0-.1-.1-.1h-.1v.1zM542.7 271.3c0-.1 0-.1 0 0-.2 0-.2 0-.2.1v.1h.1c.2 0 .2-.2.1-.2zM542.2 270.6s0 .1.2.1h.1-.1v-.2l-.2.1zM540.8 272.8l-.1.1c0 .1.1.2.1.2h.2l.1-.1v-.1c0-.1-.1-.1-.2-.1h-.1zM540 270.5h-.1c-.1 0-.1.1-.1.1v.2l.1.1h.1c.1 0 .1-.1.1-.2.2-.1 0-.1-.1-.2zM542.7 273.7c-.1-.1-.1-.1-.2-.1v.2h.2v-.1zM541.8 274.4h-.2s0 .1.1.1l.1-.1c0 .1 0 .1 0 0zM540.7 275.1l-.1.1v.1h.1v-.1c.1 0 .1-.1 0-.1zM538.9 271.1h-.2c-.1 0-.1.2-.1.2l.1.1h.2l.1-.1c.1-.1 0-.1 0-.2h-.1zM545.9 269c.1 0 .1 0 0 0v-.1.1zM544 273.3c0 .1 0 .1 0 0 0 .1.1.1 0 0 .1 0 0 0 0 0zM542 272.9c.1 0 .1 0 .1-.1v-.1c0-.1-.1-.1-.2-.1v.2l.1.1zM543.9 275.9c0 .1 0 .1 0 0 0 .1 0 .1 0 0 0 .1.1 0 0 0zM542.6 269.7s0-.1 0 0c0-.1-.1-.1 0 0-.1-.1-.1 0 0 0-.1 0-.1 0 0 0zM541.2 271.5s.2 0 0 0l.1-.1v-.1l-.1-.1c-.1 0-.1.1-.1.2h.1c-.1.1 0 .1 0 .1z"/><path class="st13" d="M540.7 274l-.1.1s0 .1.1.1h.1l.1-.1c0-.1-.1-.1-.2-.1zM539.5 265.6c0-.1 0-.1 0 0-.1 0-.1 0 0 0zM539.4 272h-.2c-.1 0-.2.2-.1.3l.1.1h.1l.1-.1v-.1c.1-.1.1-.1 0-.2zM538.1 268.9c.1-.1.1-.2.1-.3h-.1c-.2.3-.2.3 0 .3zM546.3 274.6c.1 0 .1 0 0 0 0-.1 0-.1 0 0zM533.2 273.8s.1 0 0 0c.1-.1.1-.1 0 0 0-.1 0-.1 0 0 0-.1 0 0 0 0zM541.2 276.2s0 .1 0 0c0 .1 0 .1 0 0l.1.1c.1-.1-.1-.1-.1-.1zM539.8 272.6v.1l.1.1h.2c.1 0 .1-.1.1-.2l-.1-.1c-.1-.1-.2 0-.2 0l-.1.1z"/></g></g><path class="st11" d="M546.4 272.8c-.4.1-1.4-1.3-3-2.4-1.4-1.1-2.5-1.8-2-2.3.6-.5 2.6-.3 4 1.3 1.5 1.5 1.5 3.4 1 3.4zM547.8 274.3c-.1 0-.2-.2-.4-.5-.1-.2-.1-.6.2-.7.3-.1.6.2.6.6-.1.3-.4.6-.4.6z"/></g></g><linearGradient id="SVGID_3_" gradientUnits="userSpaceOnUse" x1="222.823" y1="330.942" x2="445.33" y2="330.942" gradientTransform="rotate(40.226 421.627 389.732)"><stop offset="0" stop-color="#ffc171"/><stop offset="1" stop-color="#e23d66"/></linearGradient><path d="M418.7 429.8c-85.4-72.2-96.1-200-23.8-285.4" opacity=".72" fill="none" stroke="url(#SVGID_3_)" stroke-width="40" stroke-miterlimit="10"/><linearGradient id="SVGID_4_" gradientUnits="userSpaceOnUse" x1="92.183" y1="388.549" x2="470.568" y2="388.549" gradientTransform="rotate(40.226 421.627 389.732)"><stop offset="0" stop-color="#ff7a28"/><stop offset=".206" stop-color="#f86b37"/><stop offset=".72" stop-color="#e84a59"/><stop offset="1" stop-color="#e23d66"/></linearGradient><path d="M345.8 551.6c-130.4-139.1-146-352.3-35.9-509.1" opacity=".72" fill="none" stroke="url(#SVGID_4_)" stroke-width="40" stroke-miterlimit="10"/><circle class="st17" cx="219.5" cy="298.6" r="10.8"/><circle class="st17" cx="368.9" cy="298.6" r="10.8"/><circle class="st17" cx="676" cy="298.6" r="10.8"/><path class="st17" d="M114.2 652.7l1.2-353M378.2 298.5h85.2M463.4 652.7l-1.2-355.1M686.8 297.1l107.9-.9M795.3 648.5l-.9-353.4M115.4 301.1l91.5-1.7"/><text transform="translate(51.078 686.666)" class="st18 st19 st20">Psychology</text><text transform="translate(369.078 686.666)" class="st18 st19 st20">Conversational UI</text><text transform="translate(675.078 686.666)" class="st18 st19 st20">Artificial Intelligence</text></svg>