<svg version="1.1" id="Calque_1" xmlns="http://www.w3.org/2000/svg" x="0" y="0" viewBox="0 0 942.8 738.1" xml:space="preserve"><style>.st7{fill:#2d275e}.st8{fill:none}.st11{fill:#70728e}.st12{opacity:.29}.st13{fill:#53508f}.st17{fill:none;stroke:#fff;stroke-width:3;stroke-miterlimit:10}.st18{fill:#fff}.st19{font-family:&apos;OpenSans-Light&apos;}.st20{font-size:24px}</style><g opacity=".84"><circle cx="576.4" cy="279.3" r="98.9" fill="#dedefc"/><path d="M560.5 253.1c-.5 24.7-5.5 48.2-9 64.8-3.7 17-5.9 26.9-5.8 28.4-.2 1.4.9-6.7-1.7-19.9-2.3-13.2-8.1-31.4-16.6-48.7-8.3-17.6-16.5-30.6-19-42.6-2.7-11.8.3-22.6 9.5-31.3 8.9-8.3 21.1-10.9 29.7-2.5 8.5 8.4 13.5 27.4 12.9 51.8z" fill="#ff7473" opacity=".58"/><path d="M520 337.5c0 .1.1.1 0 0 .1-.1.1-.3-.1-.4.1 0 .1.2.1.4M652.8 317s.1-.1 0 0c.1-.2 0-.4-.1-.6 0 .3 0 .4.1.6" fill="#ed9e6e"/><linearGradient id="SVGID_1_" gradientUnits="userSpaceOnUse" x1="618.125" y1="413.901" x2="650.081" y2="413.901" gradientTransform="rotate(-8.824 -260.026 366.828)"><stop offset="0" stop-color="#ff7bac"/><stop offset="1" stop-color="#ff7bac" stop-opacity="0"/></linearGradient><path d="M646.5 273.7c1.3 8.7-4.6 16.8-13.3 18.3-8.7 1.4-16.8-4.6-18.3-13.3-1.4-8.7 4.6-16.8 13.3-18.3 8.9-1.3 17 4.6 18.3 13.3" opacity=".56" fill="url(#SVGID_1_)"/><linearGradient id="SVGID_2_" gradientUnits="userSpaceOnUse" x1="519.394" y1="438.017" x2="551.35" y2="438.017" gradientTransform="rotate(-8.824 -260.026 366.828)"><stop offset="0" stop-color="#ff7bac"/><stop offset="1" stop-color="#ff7bac" stop-opacity="0"/></linearGradient><path d="M552.7 312.7c1.3 8.7-4.6 16.8-13.3 18.3-8.7 1.3-16.8-4.6-18.3-13.3-1.4-8.7 4.6-16.8 13.3-18.3 8.7-1.3 17 4.6 18.3 13.3" opacity=".56" fill="url(#SVGID_2_)"/><g id="boquita"><path class="st7" d="M596.1 326.5c-16.1 6.3-25.5.3-27.3-4-.5-1.1.1-2.4 1.3-3l40.2-15.8c1.1-.5 2.4.1 3 1.3 1.6 4.3-1.3 15.1-17.2 21.5z"/><path class="st8" d="M605.7 311.4c2.6-.9 5.3-1.5 7.8-2 0-1.4-.2-2.5-.8-3.4-.5-.9-1.9-1.3-3-.8L573 322.5c-1.1.4-1.5 1.7-.9 2.5 1 1.7 3.7 3.3 8 4 4.8-7.3 13.9-13.9 25.6-17.6z"/><path d="M580.1 329c4.6.7 11 0 18.6-3.5 11.1-5.2 14.6-11.8 14.9-16.1-2.6.4-5.2 1.1-7.8 2-11.8 3.7-20.9 10.3-25.7 17.6z" fill="#eb7c87"/><path class="st8" d="M606.7 307.5c2.2-.7 4.4-1.2 6.5-1.4.2-1.8.2-3.4-.1-4.5-.3-1.3-1.4-2-2.3-1.4l-32.2 17c-.9.5-1.5 1.9-1.2 3.2.5 2.2 2.4 4.9 5.7 6.2 5.2-8.8 13.5-15.9 23.6-19.1z"/><path d="M586.6 321.7c3.6 1.5 5.3 7.3 12.1 3.8 9.8-5.2 14.6-10.8 14.9-16.1-1.2-.1-5.9 1.4-8.5 1.3-10 4.7-11 4.5-18.5 11z" opacity=".54" fill="#843843"/></g><g id="eye_right"><path class="st7" d="M603.2 238.6c-7.2 1.1-12 7.8-10.9 15 1.1 7.2 7.8 12 15 10.9 7.2-1.1 12-7.8 10.9-15-1.3-7.2-8-12-15-10.9"/><path class="st11" d="M612.1 246.8c-.4.1-1.3-1.1-2.6-2s-2.2-1.4-1.8-1.9 2.3-.3 3.5 1.1c1.2 1.3 1.2 2.8.9 2.8zm.8 1.6c-.1 0-.2-.2-.3-.4-.1-.2 0-.4.2-.6.2 0 .4.2.3.6 0 .1-.1.4-.2.4z"/><g class="st12"><path transform="rotate(-61.828 609.553 251.505)" class="st8" d="M602.4 244.2h14.2v14.6h-14.2z"/><path class="st13" d="M611.1 253.6s.1 0 0 0l.1.1h.1v-.1c-.1-.1-.2-.1-.2 0zm-2.4-4.3h.2v-.2l-.1-.1c-.1-.1-.2 0-.3.1v.1s.1.1.2.1zm-.2-1.4s0 .1.1.1v-.1c0-.1-.1-.1-.2-.1s-.1 0-.1.1h.2zm6.6-1.3s0 .1 0 0c0 .1 0 .1 0 0 .1 0 .1 0 0 0zm-9.8-2.4c0-.1 0-.1 0 0-.1-.1-.1-.1 0 0-.1 0-.1 0 0 0zm3.8 5.5h.1l.1-.1v-.1c0-.1 0-.2-.1-.2h-.1c-.1 0-.1 0-.2.1v.3c.1-.1.2 0 .2 0zm2.5 1l.1-.1v-.1l-.1-.1h-.2c-.1 0-.1.1-.1.1v.1l.1.1h.2zm4.7-.7c.1 0 .1 0 0 0 .1.1.1 0 .1 0 0-.1-.1-.1-.1 0 0-.1 0-.1 0 0zm-4.3-4.6s0 .1 0 0l.1.1-.1-.1c.1 0 .1 0 0 0 .1 0 .1 0 0 0 .1 0 0 0 0 0zm-2.6 3.2l.1.1c0 .1-.1.1-.1.1l-.1.1-.1.1h-.2v-.1c0-.1.1-.1.1-.1v-.1l.1-.1h.1c.1 0 .1.1.2.2v.2l-.1-.4zm-.3-.1zm.7-2.2l-.1.1v.2s.1 0 .1-.1v-.2zm3.2 1.9l.1-.1-.1-.1c-.1 0-.1.1 0 .2-.1-.1-.1 0 0 0zm-5.5-.6l.1-.1v-.1h-.2l-.1.1v.1h.2zm-2.1-.5c0-.1-.1-.1 0 0-.1-.1-.1-.1-.1 0h.1c-.1-.1-.1 0 0 0-.1 0-.1 0 0 0zm-1.7 1.4c-.1-.1-.1-.1 0 0-.1 0-.1 0 0 0zm5 3.2l-.1.1s-.1 0-.1.1v.2l.1.1c.1 0 .1.1.2 0h.2l.1-.1c0-.1 0-.2-.1-.2 0-.1-.1-.2-.3-.2zm1.6 3.5s0 .1.1.1v-.1h-.1c.1 0 .1 0 0 0zm-1.7-1.8h.2v-.1s0-.1-.1-.1h-.2l.1.2zm-.3-.9h-.1v.3h.2v-.1l-.1-.2c.2 0 0 0 0 0zm.4 4.1h-.1.1c-.1.1 0 .1 0 0zm1.1-4.7c0 .1 0 .2.1.3.1 0 .1.1.2 0h.1c0-.1 0-.2-.1-.2s-.1-.1-.2 0c0-.2 0-.1-.1-.1zm1.3-2l-.1.1c0 .1.1.2.1.2h.1l.1-.1v-.1l-.1-.1h-.1zm1.2 1l.1-.1v-.2s-.1-.1-.2 0c0 0-.1 0-.1.1 0 0-.1 0-.1.1v.1l.1.1h.1l.1-.1zm-2.3-1.7c-.1 0-.1 0-.2.1v.2h.2c.1 0 .1 0 .1-.1v-.2h-.1zm6.5 4.5c0 .2 0 .2 0 0 .1.2.1.2 0 0h.1-.1c0-.1 0 0 0 0zm-7.2-3.6l.1-.1v-.2l-.1-.1h-.1c-.1 0-.1.1-.1.1v.2c0 .1.1.1.1.1h.1zm1.9.9c0 .1 0 .2.1.3h.1c.1 0 .1 0 .1-.1.1-.1 0-.2-.1-.3h-.1l-.1.1zm2.3-1.7v.3h.2c0-.1 0-.1-.1-.2 0-.2 0-.2-.1-.1zm-2.6-5.1c0 .1 0 .1 0 0v.1-.1c.1 0 0 0 0 0zm1.2 4.5v-.1l-.1-.1c-.1 0-.2-.1-.3.1v.2c0 .1.1.1.2.1s.1-.1.2-.2c0 .1 0 0 0 0zm-2.7-1.3l-.1-.1-.1.1c0-.1.1 0 .2 0zm1.6 1c.1-.1.1-.1.2-.1v-.2c0-.1-.1-.1-.2-.1h-.1l-.1.1c-.1.1 0 .2.1.3h.1zm4.3 2.8c.1-.1.1-.1 0 0 0-.1 0 0 0 0zm-5.2-3.6v-.2.1h.1l-.1.1zm.6 1.3v.1l.1.1h.2v-.1c0-.1 0-.2-.1-.2l-.1.1.1-.1h-.1l-.1.1zm4-.3c0 .1 0 .1 0 0 0 .1 0 0 0 0 .1 0 .1 0 0 0zm-2.8.7c-.1-.1-.2-.1-.2-.1-.1 0-.1.1-.1.1v.1l.1.1c.1 0 .1.1.2 0 .1 0 .1-.1.1-.1l-.1-.1zm1.9 1v.2c.1 0 .1.1.2 0 0-.1 0-.1-.1-.1.1-.2.1-.2-.1-.1zm-1.3-1.1h-.1l-.1.1v.1l.1.1h.2c.1 0 .1-.1.1-.1v-.2c-.1.1-.1 0-.2 0zm5.7-.4c0 .1 0 .1 0 0 0 .1 0 .1 0 0 0 .1 0 .1 0 0 .2.1.2.1 0 0h.1-.1zm-5.2 1.9l-.1.1v-.1h.1zm-1.9-3.3c-.1.2 0 .2 0 .2s.1 0 .1-.1v-.2s-.1 0-.1.1zm.8-.9l-.1.2v.1h.3v-.2l-.2-.1zm.3 1.5l-.1.1v.1l.1.1c.1 0 .1 0 .1-.1.1-.2.1-.2-.1-.2zm.9.7v.1l.1.1h.1v-.1s0-.1-.1-.1c0-.1 0-.1-.1 0zm1.1.9c-.1.1-.1.2 0 .3h.2v-.1c-.1-.2-.1-.2-.2-.2zm-2.2 2.3l-.1-.1h-.2l-.1.1-.1.1h-.1l-.1.1v.1l.1.1h.1l.1-.1h.2c.1 0 .2 0 .2-.1.1 0 .1-.1 0-.2zm-3.8-1.7c0 .1.1.1.1.1.1 0 .1-.1.1-.1v-.2c0-.1-.1-.1-.1-.1-.1 0-.2 0-.2.1s0 .2.1.2zm-2.8.5c-.1-.1-.1-.1-.1 0h.1c-.1.1-.1.1 0 0zm8.1.6c0 .1 0 .2.1.2h.1c0-.1-.1-.1-.1-.1 0-.1 0-.1-.1-.1zm-.5.8c-.1 0-.1 0-.2.1v.1h.1s.1 0 .1-.1v-.1zm-6.5 3.1c0 .1.1.1 0 0 .1 0 .1 0 0 0 .1 0 .1 0 0 0 .1 0 .1 0 0 0zm8.1-2.1s0 .1 0 0c.1 0 .1 0 0 0 .1 0 .1 0 0 0zm-4.4-2.2c.1 0 .2 0 .2-.1v-.1c0-.1-.1-.2-.1-.2h-.2c0 .2 0 .3.1.4zm3.5.9h-.1v.2h.1v-.2c0 .1 0 .1 0 0zm-3.2-1.6s.1 0 .2-.1c0-.1 0-.2-.1-.2h-.1c-.1-.1-.2 0-.2 0l-.1.1v.2s0 .1.1.1h.1c0-.1 0-.1.1-.1zm2.7 1.1s0-.1 0 0l-.1-.1v.2h.2l-.1-.1zm-5.5-2.4c.1.1.1.1 0 0 .1.1.2.1.2.1s.1 0 .1-.1v-.1h.1s.1 0 .1-.1v-.1s0-.1-.1-.1c0 0-.1 0-.1.1h-.1v.1l-.2.2zm-.3-3.1c0 .1 0 .1 0 0 0 .1 0 .1 0 0h.1-.1c.1 0 .1 0 0 0 .1 0 .1 0 0 0zm.2 3.2h.1v-.1l-.1-.1h-.2v.1l.1.1zm4.7 2.3c-.1 0-.1 0-.1.1v.2c0 .1.1.1.2.1s.1 0 .2-.1v-.2c-.2-.1-.2-.1-.3-.1zm-2.5-1.3l.1-.1c0-.1-.1-.2-.2-.2h-.1l-.1.1v.1l.1.1h.2zm3.5 4.8c.1.2.1.2 0 0 .1.2.1.2 0 0zm-6.3-4v.1h.3s.1 0 .1-.1v-.1h-.1c0-.1 0-.1-.1-.1h-.2l-.1.1.1.1zm4.3 4.2c0 .1 0 .1 0 0 0 .1 0 .1 0 0 .1.1.1.1 0 0 .1.1.1.1 0 0 .1 0 .1 0 0 0 .1 0 0 0 0 0zm-1.7-1.5c-.1.1 0 .2 0 .2h.3v-.1c-.1-.1-.2-.1-.3-.1zm.2.5v.1h.3s0-.1-.1-.1h-.2zm-1.9-.3v.1s.1.1.1 0c0 0 .1 0 .1-.1v-.1h-.1c0 .1 0 .1-.1.1zm2.5-.7c-.1.2-.1.3 0 .3h.2s.1 0 .2-.1v-.3s-.1-.1-.2-.1l-.2.2zm1.5.7s-.1 0 0 0l.1.1-.1-.1zm4.4-5.9c0-.1 0-.1 0 0-.1-.1-.1-.1 0 0-.1 0-.1 0 0 0zm-10.2 5.2c.1-.1.1-.1 0-.2h-.2v.1c.1.1.1.1.2.1zm5.3.7l-.1.1h.1s.1 0 .1-.1v-.1c0 .3 0 .1-.1.1zm-6.8 1.6c0 .1 0 .1 0 0h.1v-.1s-.1 0-.1.1c0-.1 0 0 0 0zm5 3.8c.1-.1.1-.1 0 0l.1-.1c-.1 0-.1.1-.1.1zm1.1-5.6h-.1v.1h.1s.1 0 .1-.1c0 .1 0 0-.1 0zm-3.3.4c.1.1.1 0 .1 0v-.2l-.1-.1h-.2c-.1.1 0 .3.2.3zm.7.3s-.1-.1-.2 0v.1h.2v.1-.2zm0-2.7v-.1c0-.1-.2-.2-.2-.2h-.1l-.1.1v.1l.1.1c.1.2.2.2.3 0zm1.9 1.6l.1-.1v-.2s0-.1-.1-.1h-.1l-.1.1v.2c0 .1.1.1.2.1zm-3.9-1.3h.1v-.3h-.2v.1l.1.2zm.4-1.1c.1 0 .1 0 .1-.1h-.1v.1c-.2-.1-.1 0 0 0zm.5-1.1l.1-.1c0-.1-.1-.1-.1-.1h-.1v.2h.1zm3.7 2.3c.1 0 .1-.1.2-.1 0-.1 0-.2-.1-.2h-.1c-.1 0-.1 0-.2.1v.1c0 .1 0 .1.1.2l.1-.1zm-4.9 5.5c0 .1 0 .1 0 0 0 .1 0 .1.1.1l-.1-.1c.1.1.1.1 0 0 .1.1.1.1 0 0 .1.1.1.1 0 0zm-.6-4.6c-.1-.1-.1-.1-.1 0-.1.1.1 0 .1 0zm1.8-.7c-.1 0-.1.1-.1.1l.1.1h.2v-.1l-.2-.1c.1 0 .1 0 0 0zm1.3 3s0 .1 0 0c.2.1.2 0 0 0 .2 0 .2 0 0 0 .2 0 .2 0 0 0zm.2-2.2s0 .1 0 0v.1h.2v-.2h-.1c0 .1-.1.1-.1.1zm-.9-2.5v-.1h-.1s-.1 0-.1.1v.1c0 .1.1.1.2-.1zm2.2 1l.2-.1c0-.1 0-.2-.1-.3h-.1l-.1.1v.2c-.1 0 0 0 .1.1zm2.7 1.9v.1s0 .1.1.1v-.1c0-.2-.1-.2-.1-.1zm-10.1-.3c.1 0 .1 0 0 0 .1 0 .1 0 0 0 .1 0 .1-.1 0 0 .1-.1.1-.1 0 0zm11.6-6.3c0 .1 0 .1 0 0 .1 0 .1 0 0 0 .1 0 .1 0 0 0zm-8.1 2.2c0-.1 0 0 0 0-.1 0-.1 0 0 0-.1-.1-.2-.1-.2 0 .2.1.2 0 .2 0zm3.2 2.3c0-.1 0-.1 0 0l-.2-.1-.1.1v.2h.1c.1 0 .2-.1.2-.1v-.1z"/><path transform="rotate(-64.793 608.363 250.498)" class="st8" d="M601.3 243.2h14.2v14.6h-14.2z"/><path class="st13" d="M606.7 248.5c0-.1 0-.1 0 0-.1-.1-.1-.1-.1 0h-.1v.1l.2-.1zm2.6 4.1h-.2v.2l.1.1c.1.1.2 0 .3-.1v-.1c.1-.1-.1-.1-.2-.1zm.4 1.4s0-.1-.1-.1v.1c0 .1.1.1.2.1s.1 0 .1-.1h-.2zm-6.5 1.6c-.1 0-.1 0 0 0-.1 0-.1.1 0 0 0 .1 0 .1 0 0zm9.9 2c0 .1 0 .1 0 0 0 .1.1.1 0 0zm-4.2-5.3h-.1l-.1.1v.1c0 .1 0 .2.1.2h.1c.1 0 .1 0 .2-.1v-.3h-.2zm-2.5-.9l-.1.1v.1l.1.1h.2c.1 0 .1-.1.1-.1v-.1l-.1-.1h-.2zm-4.7 1c0-.1 0-.1 0 0-.1-.1-.1-.1 0 0h-.1.1zm4.6 4.3s0-.1 0 0c-.1-.1-.1-.1-.1 0h.1c-.2 0-.2 0 0 0-.2 0-.2 0 0 0zm2.4-3.3l-.1-.1c0-.1.1-.1.1-.1l.1-.1.1-.1h.2v.1c0 .1-.1.1-.1.1v.1l-.1.1h-.1c-.1 0-.1-.1-.2-.2v-.2l.1.4zm.3 0c0 .1 0 .1 0 0 0 .1 0 .1 0 0zm-.5 2.3l.1-.1v-.2s-.1 0-.1.1v.2zm-3.3-1.7v.1l.1.1c0-.1 0-.1-.1-.2.1 0 .1 0 0 0zm5.5.3l-.1.1v.1h.2l.1-.1v-.1h-.2zm2.2.3c0 .1 0 .1 0 0 .1.1.1.1.1 0h-.1zm1.5-1.4s0 .1 0 0c0 .1.1.1 0 0zm-5.2-3l.1-.1c0 .1 0 .1-.1.1.1-.1.2-.1.2-.2v-.2l-.1-.1h-.4l-.1.1c0 .1 0 .2.1.2 0 .2.1.3.3.2zm-1.8-3.4s0-.1-.1-.1v.1h.1c-.2 0-.2 0 0 0zm1.8 1.7h-.2v.1s0 .1.1.1.1 0 .2-.1l-.1-.1c.1.1.1.1 0 0zm.2 1h.1v-.2h-.2v.1l.1.1c0-.2 0-.2 0 0zm-.4-4.1h.1-.1c0-.1 0-.1 0 0 0-.1 0-.1 0 0zm-.9 4.7c0-.1 0-.2-.1-.2h-.3c0 .1 0 .2.1.2h.2c0 .1 0 0 .1 0zm-1.2 2v-.1c0-.1-.1-.2-.1-.2h-.1l-.1.1v.1l.1.1c0 .1.1.1.2 0zm-1.3-.9l-.1.1v.2s.1.1.2 0c0 0 .1 0 .1-.1l.1-.1v-.1l-.1-.1h-.1l-.1.1zm2.5 1.6c.1 0 .1 0 .2-.1v-.1l-.1-.1h-.2c-.1 0-.1.1-.1.1v.2h.2zm-6.8-4.2c-.1-.1-.1 0-.1 0h.1c0 .1 0 0 0 0zm7.4 3.3l-.1.1v.2l.1.1h.1c.1 0 .1-.1.1-.1v-.2c0-.1-.1-.1-.1-.1h-.1zm-1.9-.9c0-.1 0-.2-.1-.3h-.1c-.1 0-.1.1-.1.1 0 .1 0 .2.1.3h.1l.1-.1zm3.1 6.8c-.1 0-.1.1 0 0 0 .1 0 0 0 0zm-5.4-4.9v-.2h-.2c0 .1 0 .1.1.1 0 .2.1.2.1.1zm3 4.9v-.1.1c-.1 0-.1.1 0 0zm-1.5-4.4v.1l.1.1c.1 0 .2 0 .3-.1v-.2c0-.1-.1-.1-.2-.1s-.2.1-.2.2c0-.1 0 0 0 0zm2.7 1.2l.1.1.1-.1h-.2zm-1.7-.9l-.1.1v.2c0 .1.1.1.2.1h.1l.1-.1c.1-.1 0-.2-.1-.3h-.2zm1 .7v.2h.1v-.1h-.1c.1-.2.1-.2 0-.1zm-.6-1.2v-.1l-.1-.1h-.3v.1c0 .1 0 .2.1.2l.1-.1v.1h.1v-.1h.1zm-4 .5c0-.1 0-.1 0 0-.1-.1-.1-.1 0 0-.1-.1-.1 0 0 0-.1 0-.1 0 0 0zm2.9-.9c.1.1.2.1.2.1.1 0 .1-.1.1-.1v-.1l-.1-.1c-.1 0-.1-.1-.2 0-.1 0-.1.1-.1.1l.1.1zm-2.1-.9v-.2h-.2c0 .1 0 .1.1.1 0 .2 0 .2.1.1zm1.4 1h.1l.1-.1v-.1l-.1-.1h-.2c-.1 0-.1.1-.1.1v.2c0-.1 0 0 .2 0zm-5.7.7c0-.1 0-.1 0 0 0-.1 0-.1 0 0-.1-.1-.1-.1 0 0-.1-.1-.1-.1 0 0h-.1.1zm5.1-2.1l.1-.1h-.1v.1c-.2 0-.2 0 0 0zm2 3.2c.1-.2 0-.2 0-.2s-.1 0-.1.1v.2c0-.1.1-.1.1-.1zm-.7.9s.1 0 0 0l.1-.2h-.2v.2h.1zm-.5-1.5c.1-.1.1-.2.1-.2l-.1-.1c-.1 0-.1 0-.1.1 0 .2 0 .2.1.2zm-.9-.6l-.1-.1h-.1v.1s0 .1.1.1l.1-.1zm-1-.9c.1-.1.1-.2 0-.3h-.2v.1c0 .2 0 .2.2.2zm2-2.4h.3l.1-.1.1-.1h.1l.1-.1v-.1l-.1-.1h-.1l-.1.1h-.2c-.1 0-.2 0-.2.1-.1.2-.1.2 0 .3zm3.9 1.5c0-.1-.1-.1-.1-.1-.1 0-.1.1-.1.1v.2c0 .1.1.1.1.1.1 0 .2 0 .2-.1-.1 0-.1-.1-.1-.2zm2.8-.6c.1.1.1.1.1 0h-.1c0-.1 0-.1 0 0zm-8.2-.2c0-.1 0-.1 0 0 0-.1 0-.2-.1-.2h-.1c0 .1.1.1.1.1 0 .1.1.1.1.1zm.5-.9c.1 0 .1 0 .2-.1v-.1h-.1s-.1 0-.1.1v.1zm6.3-3.3c0-.1 0-.1 0 0l-.1-.1s0 .1.1.1c-.1 0 0 0 0 0zm-8 2.4c-.1.1 0 .1 0 0 0 .1 0 0 0 0zm4.5 2c-.1 0-.2 0-.2.1v.1c0 .1.1.1.1.2h.2v-.1c.1-.1.1-.2-.1-.3zm-3.5-.7h.1v-.2h-.1v.2c0-.1 0-.1 0 0zm3.3 1.5s-.1 0-.2.1c0 .1 0 .2.1.2h.3l.1-.1v-.2s0-.1-.1-.1h-.1c0 .1-.1 0-.1.1zm-2.8-1s.1 0 0 0l.1.1c0-.1 0-.1-.1-.2-.1 0-.1 0-.2.1h.2zm5.6 2.1c0-.1-.1-.1 0 0-.1-.1-.2-.1-.2-.1s-.1 0-.1.1v.1h-.1s-.1 0-.1.1v.1l.1.1s.1 0 .1-.1h.1v-.1l.2-.2zm.6 3.1c0-.2 0-.2 0 0 0-.2 0-.2 0 0h-.1.1c-.1 0-.1 0 0 0-.1 0-.1 0 0 0-.1 0 0 0 0 0zm-.5-3.2v.2h.3v-.2h-.2zm-4.7-2c.1 0 .1-.1.1-.1v-.2c0-.1-.1-.1-.2-.1s-.1 0-.2.1v.2c.1 0 .1.1.3.1zm2.5 1.1l-.1.1c0 .1.1.1.2.2h.1l.1-.1v-.1l-.1-.1h-.2zm-3.8-4.7c-.1-.1-.1 0-.1 0v.1l.1-.1zm6.6 3.8v-.1h-.1c-.1 0-.1 0-.2.1 0 0-.1 0-.1.1v.1h.1c0 .1 0 .1.1.1h.1v-.1l.1-.2zm-4.6-4c0-.1 0-.1 0 0 0-.1 0-.1 0 0 0-.1 0-.1 0 0l-.1-.1.1.1c-.1 0 0 0 0 0zm1.8 1.4c.1-.1 0-.2 0-.2h-.3v.1c.2.1.2.1.3.1zm-.2-.5v-.1h-.3s0 .1.1.1h.2zm1.9.1v-.1h-.1s-.1 0-.1.1v.1h.1l.1-.1zm-2.5 1c.1-.2.1-.3 0-.3h-.2s-.1 0-.2.1v.3s.1.1.2 0l.2-.1zm-1.5-.7s.1 0 0 0l-.1-.1.1.1zm-4 6.1c0 .1 0 .1 0 0 .1.1.1.1 0 0 .1 0 .1 0 0 0zm9.7-5.7c-.1.1-.1.2 0 .2h.1l.1-.1v-.1c.1.1.1 0-.2 0zm-5.1-.4l.1-.1h-.1s-.1 0-.1.1v.1c-.1-.3-.1-.1.1-.1zm6.7-2c-.1 0-.1 0 0 0h-.1v.1l.1-.1c0 .1 0 .1 0 0zm-5.2-3.5c-.1.1-.1.1 0 0-.1.1-.1.1 0 .1v-.1zm-.9 5.7h.1v-.1h-.1s-.1 0-.1.1c0-.1 0-.1.1 0zm3.3-.6c-.1-.1-.1 0-.1 0v.2h.3c.1-.1-.1-.2-.2-.2zm-.7-.2s.1.1.2 0v-.2h-.2v-.1.3zm.1 2.5v.1c0 .1.2.1.2.1h.1v-.2l-.1-.1s-.1 0-.2.1zm-2-1.4c-.1.1-.1.2-.1.3l.1.1h.1l.1-.1v-.2c0-.1-.1-.1-.2-.1zm4 1.1h-.1v.2h.2v-.1l-.1-.1zm-.3 1.2c-.1 0-.1 0-.1.1h.1v-.1c.1 0 .1 0 0 0zm-.5 1.1l-.1.1c0 .1.1.1.1.1h.1v-.2c.1 0 .1-.1-.1 0zm-3.8-2.2c-.1 0-.1.1-.2.1 0 .1 0 .2.1.2h.1c.1 0 .1 0 .2-.1v-.1c0-.1 0-.1-.1-.2l-.1.1zm4.6-5.7s0-.1 0 0c0-.1 0-.1-.1-.1s-.1.1.1.1c-.2 0 0 0 0 0s-.2 0 0 0zm.9 4.6c.1.1.1.1.1 0-.1-.1-.1-.1-.1 0zm-1.9.8l.1-.1-.1-.1c-.1 0-.1 0-.2.1v.1h.2zm3.3 1.3c0 .1 0 .1 0 0 .1.1.1.1 0 0 .1 0 .1 0 0 0zm-4.7-4.2c0-.1-.1-.1 0 0-.1-.1-.1-.1 0 0-.1-.1-.1 0 0 0-.1 0-.1 0 0 0zm-.1 2.1s.1 0 0 0v-.1h-.2c0 .1 0 .1.1.2h.1v-.1zm-2.5-4.7h-.1.1c-.1.1-.1.1 0 0-.1.1 0 .1 0 0z"/><path class="st13" d="M610.4 251.4v.1h.1s.1 0 .1-.1v-.1c-.1 0-.1 0-.2.1zm-2.3-.7l-.2.1c0 .1 0 .2.1.3h.1l.1-.1v-.2c.1-.1 0-.1-.1-.1zm-2.7-1.8v-.1s0-.1-.1-.1v.1c-.1.1 0 .1.1.1zm6.7 4c0 .1.1.1 0 0h.2c-.1-.1-.2 0-.2 0zm-3.3-2.1s0 .1 0 0l.2.1.1-.1v-.2h-.1c-.1 0-.2.1-.2.1v.1z"/><path transform="rotate(-17.936 607.298 249.627)" class="st8" d="M600.2 242.3h14.2v14.6h-14.2z"/><path class="st13" d="M607.7 246.9c-.1 0-.1 0 0 0v-.2l-.1.1c0 .1 0 .2.1.1zm-1.3 4.9l-.1-.1c-.1 0-.1.1-.1.1v.1c0 .1.2.2.3.1l.1-.1c-.1 0-.1-.1-.2-.1zm-.8 1.1v-.2h-.1v.2s.1.1.2 0h-.1zm-.3 4.9c-.1.1-.1.1 0 0 0 .1 0 .1 0 0 0 .1 0 0 0 0zm1-6.7l-.1-.1h-.2c-.1 0-.1.1-.1.1-.1 0-.1.1-.1.2 0 0 0 .1.1.1 0 0 .1.1.2 0 .1 0 .1-.1.1-.1.2 0 .2-.1.1-.2zm-1-2.4h-.1l-.1.1v.1c0 .1 0 .1.1.1h.2l.1-.1v-.1l-.2-.1zm-3.9-2.7c0-.1 0-.1 0 0v-.1c-.1 0-.1 0 0 .1-.1 0-.1 0 0 0-.1 0-.1 0 0 0zm-.2 6.3v-.1h-.1l.1.1c0-.1 0-.1 0 0 0-.1 0-.1 0 0zm4.1-.5v-.1h.3v.2l-.1.1h-.5l-.1-.1c0-.1-.1-.1 0-.2h.1l.3.1zm.2.2zm-2.1 1.2c.1 0 .1 0 0 0h.1v-.2h-.1v.2zm-.8-3.6l-.1.1v.1c.1 0 .1-.1.1-.1v-.1zm3.4 4.1h-.1v.2h.2l-.1-.2zm1.2 1.9v.1h.1l-.1-.1c.2.1.2.1 0 0 0 .1 0 0 0 0zm2.2.2c-.1 0-.1 0 0 0-.1 0-.1.1 0 0zM608 250c.1 0 .2.1.2 0l.1-.1v-.2c0-.1 0-.1-.1-.1 0-.1-.1-.1-.2-.1h-.1c-.1 0-.1.1-.1.2s.1.2.2.3zm1.2-3.7l.1-.1c-.1 0-.1 0-.1.1zm.1 2.5c-.1-.1-.1-.1 0 0l-.1-.1s-.1 0-.1.1v.1c0 .1.1.1.2.1v-.2c0 .1 0 .1 0 0zm-.5.9l.1.1h.1v-.3h-.2v.2c0-.1 0-.1 0 0zm2.6-3.2c0 .1.1.1 0 0zm-4 2.6c.1 0 .1-.1.1-.2s0-.1-.1-.1h-.2c-.1 0-.1.1-.1.2s0 .1.1.1h.2zm-2.4.6h.1c.1-.1 0-.2 0-.2l-.1-.1h-.1s-.1 0-.1.1v.1s.1.1.2.1zm-.2-1.7h-.1c-.1 0-.1.1-.1.1v.1s0 .1.1.2h.3l.1-.1v-.1l-.3-.2zm.6 2.9c0 .1.1.1.2.1l.1-.1v-.1c0-.1-.1-.1-.1-.2h-.2c-.1 0-.1.1-.1.1 0 .1 0 .2.1.2zm-1.6-7.8c0-.1 0-.1 0 0-.1 0-.1 0 0 0-.1.1 0 0 0 0zm2.7 7.6h-.1s-.1.1-.1.2v.1l.1.1h.2c.1 0 .1-.1.1-.1v-.2l-.2-.1zm-.7-1.9c.1-.1.1-.2.1-.3v-.1h-.2c-.1 0-.2.2-.1.3l.1.1h.1zm-2.8 6.9c0-.1 0-.1 0 0-.2-.1-.2-.1 0 0zm-.2-7.3l.1-.1v-.1h-.2c-.1 0-.1.1-.1.2h.2zm-1.6 5.5s.1 0 0 0c.1 0 .1 0 0 0 .1 0 .1 0 0 0v-.1.1zm2.3-4l-.1.2c0 .1.1.2.3.1l.1-.1v-.3c-.1 0-.2 0-.3.1.1-.1 0-.1 0 0zm1 2.7v.1h.1c0 .1 0 .1-.1-.1zm-.4-1.8h-.2c-.1 0-.1.1-.1.1v.2h.2c.1 0 .2-.1.1-.3zm-1.1-5s0-.1 0 0c0-.1 0-.1 0 0-.2 0 0 0 0 0zm1.2 6.2l-.1.1h.1s.1 0 .1-.1v-.1c0 .1 0 .1-.1.1zm.4-1.3l.1-.1v-.2l-.1-.1h-.1c-.1 0-.1.1-.1.2h.1-.1v.1l.2.1zm-3.1-2.6c.1-.1 0-.1 0 0 0-.1 0-.1 0 0-.1-.1-.1-.1 0 0-.1-.1-.1 0 0 0zm2.7 1.4c0 .2 0 .2.1.2h.2l.1-.1v-.1c0-.1 0-.1-.1-.2h-.2l-.1.2zm-.8-2c.1 0 .1-.1.1-.2s-.1-.1-.1-.1l-.1.1c-.1.1 0 .2.1.2zm.2 1.6l.2.1h.1l.1-.1v-.1c0-.1-.1-.1-.1-.2h-.3c-.1.1-.1.2 0 .3zm-4.4-3.6c0-.1 0-.1 0 0 0-.1 0-.1 0 0 0-.1 0-.1 0 0-.1-.1-.1-.1 0 0-.1-.1-.1-.1 0 0-.1 0-.1 0 0 0zm5 2.3h.1v-.2h-.1s-.1 0-.1.1l.1.1zm-.9 3.7c.2-.1.2-.1.2-.2h-.1c-.1 0-.1.1-.1.1-.1 0-.1.1 0 .1zm-1.2 0h.1v-.3h-.2v.1c0 .1 0 .1.1.2zm.9-1.4h.1c.1 0 .1-.1.1-.1v-.1s-.1-.1-.2 0c-.2.1-.2.2 0 .2zm-.3-1v-.2h-.1s-.1 0-.1.1v.1h.2zm-.1-1.3c.1 0 .2-.1.2-.2v-.1h-.2s-.1 0-.1.1 0 .1.1.2zm3.2-.2v.1s0 .1.1.1l.1.1h.2l.1.1h.1l.1-.1v-.1l-.1-.1h-.2v-.1c0-.1-.1-.1-.2-.1-.2 0-.2 0-.2.1zm1.6 3.8v-.2h-.2c-.1 0-.1.1-.1.1v.2c0 .1.1.1.2.1-.1-.1.1-.2.1-.2zm-3.1-4.5c0-.1 0-.1 0 0 .1-.1.1-.1.1-.2s-.1-.1-.1-.1v.2c-.1.1 0 .1 0 .1zm1-.2c0 .1.1.1.2.1s.1-.1.1-.1v-.1h-.2l-.1.1zm6.7 2.3c.1-.1 0-.1 0-.1s-.1 0 0 .1zm-7.3-4.2h-.1.1c-.1.1 0 .1 0 0zm1.7 4.8c0-.1-.1-.1-.2-.1l-.1.1c-.1.1-.1.2 0 .2 0 0 .1.1.2.1h.1v-.3zm-1.9-3.1h.1c.1 0 .1-.1.1-.1h-.2v.1c-.1-.1-.1-.1 0 0zm1.2 3.3s-.1-.1-.2 0-.1.2-.1.2l.1.1c0 .1.1.1.2.1l.1-.1v-.2l-.1-.1c0 .1 0 0 0 0zm-1.2-2.7s0 .2 0 0v.1c.1 0 .1-.1.1-.2s-.1-.1-.2-.1l.1.2zm2.3 5.5v-.1l-.1-.1h-.2s-.1 0-.1.1v.1h.4c0 .2 0 0 0 0zm-1.9 2.6c0-.1 0-.1 0 0 0-.1 0-.1 0 0v-.1.1c-.1-.1-.1-.1 0 0-.1-.1-.1 0 0 0-.1 0-.1 0 0 0zm2-2.6v.2h-.1v.2h.2v-.2zm-1.7-4.8h.3v-.1c0-.1 0-.1-.1-.2-.1 0-.1-.1-.2 0-.1 0-.1.1-.1.1s-.1.1.1.2zm.8 2.6l-.1.1c-.1.1-.1.2 0 .2l.1.1h.1v-.1c.2-.1 0-.1-.1-.3zm.9-5.9c0-.1 0-.1 0 0 0-.1-.1-.1 0 0-.1-.1-.1-.1 0 0h-.1.1zm1.7 7.4l.1-.1s0-.1-.1-.1c0-.1-.1-.1-.2-.1h-.1s-.1 0-.1.1v.1s-.1.1 0 .1v.1h.2l.2-.1zm-.3-6.1c0-.1 0-.1 0 0 0-.1 0-.1 0 0 .2-.1.2-.1 0 0v-.1.1c0-.1 0-.1 0 0zm1.6 4.3l-.1.1v.2c.1 0 .1-.1.1-.1v-.2zm-1.2-2c.1 0 .1-.1.1-.1v-.1h-.1c-.1 0-.1.1-.1.1 0-.1 0 0 .1.1zm.1-.5l.1-.1v-.2h-.2v.1c0 .2.1.2.1.2zm1.2 1.4l.1-.1v-.1h-.2v.1c0 .1 0 .1.1.1zm-2.3-1.1h.1c.1 0 .1-.1.1-.2v-.1h-.1s-.1-.1-.2 0h-.1l-.1.1v.1c0 .1 0 .1.1.1h.2zm-.6-1.5s.1 0 0 0v-.1.1zm-7.2 1.2c-.1 0-.1 0 0 0 0 .1 0 .1 0 0zm10.9 3.2c-.1 0-.2 0-.1.2h.1s.1 0 .1-.1c0 .1 0 0-.1-.1zm-3.2-4.2h.1c0-.1 0-.1-.1-.1h-.1s-.1 0-.1.1c.1-.1.1 0 .2 0zm5.9 3.6c-.1-.1-.1-.1 0 0-.1-.1-.1 0-.1 0 0 .1.1.1.1 0zm-1-6.1h-.1v.1l.1-.1c0 .1 0 0 0 0zm-4.7 3.3l.1.1h.1s0-.1-.1-.1h-.1c.1-.3 0-.1 0 0zm2.6 2.1c0-.2 0-.2 0 0-.1-.1-.2 0-.2 0v.1h.1c.2 0 .2-.1.1-.1zm-.3-.8s0 .1.1.1h.1v-.3h-.1l-.1.2zm-1.8 1.7l-.1.1c-.1.1 0 .2 0 .3h.3l.1-.1v-.1c0-.1-.1-.1-.1-.2h-.2zm-.3-2.3h-.1c-.1 0-.1.1-.1.1v.2l.1.1h.1c.1 0 .1-.1.1-.1 0-.2 0-.3-.1-.3zm1.9 3.6l-.1-.1h-.1v.2h.3l-.1-.1c0 .1 0 .1 0 0zm-1 .6h-.2c0 .1 0 .1.1.1 0 0 .1 0 .1-.1.1.1.1.1 0 0zm-1.1.5h-.1v.1s0 .1.1 0h.1v-.1c0 .1 0 0-.1 0zm-1.1-4.2h-.2c-.1 0-.1.1-.1.2l.1.1c.1.1.1.1.2.1l.1-.1c.1-.1.1-.1.1-.2l-.2-.1zm7.4-.8c.1-.1.1-.1 0-.1s-.1 0 0 .1c-.1 0-.1 0 0 0-.1 0-.1 0 0 0zm-2.8 3.9c0 .1 0 .1 0 0 0 .1 0 .1.1.1l-.1-.1c.1 0 0 0 0 0zm-1.9-.8h.1v-.1c0-.1-.1-.1-.2-.1v.1l.1.1zm1.3 3.2c0 .1 0 .1 0 0 0 .1.1.1 0 0 .1.1.1.1 0 0 .1.1 0 0 0 0zm0-6.3c0-.1-.2-.1 0 0-.2-.1-.2-.1 0 0-.2 0-.2 0 0 0z"/><path class="st13" d="M609 249.2l.1-.1v-.1s0-.1-.1-.1-.1.1-.1.2c0 .2.1.2.1.1zm-1 2.5l-.1.1s0 .1.1.1h.1c.1 0 .1-.1.1-.1-.1 0-.1-.1-.2-.1zm.3-8.4c.2-.1.2-.1 0 0 0-.1 0-.1 0 0 0-.1 0-.1 0 0zm-1.3 6.2h-.1c-.1 0-.2.1-.1.3l.1.1h.2v-.1c0-.1 0-.2-.1-.3zm-.6-3.2c.1-.1.2-.1.1-.2h-.1c-.1.1-.1.2 0 .2zm7 7.1c0-.1-.1-.1 0 0-.1 0-.1 0 0 0-.1 0 0 0 0 0zm-12.6-3.5c0 .1 0 .1 0 0-.2 0-.2 0 0 0zm7.2 4c0 .1.1.1 0 0v.1s0 .1.1 0 0-.1-.1-.1zm-.6-3.9v.1l.1.1h.2c.1 0 .1-.1.1-.2l-.1-.1c-.1-.1-.2-.1-.2-.1l-.1.2z"/><path transform="rotate(-22.205 606.351 248.529)" class="st8" d="M599 241.4h14.6v14.2H599z"/><path class="st13" d="M603.7 248.2c-.1 0-.1 0 0 0h-.2s.1.1.1 0c.1.2.1.2.1 0zm4.9.9l-.1.1v.1c0 .1.1.1.1.1h.1c.1 0 .2-.2.1-.3l-.1-.1-.1.1zm1.2.8h-.1v.1c.1 0 .1 0 .2-.1v-.2l-.1.2zm-3.2 5.9c0-.1-.1-.1 0 0-.1 0-.1 0 0 0-.1 0-.1 0 0 0zm8.1-6c0 .1 0 .1 0 0 .1 0 .1 0 0 0zm-6.8-.5l-.1.1v.1l.1.1c0 .1.2.1.2.1s.1 0 .1-.1v-.2c0-.1-.1-.1-.1-.1 0-.1-.1-.1-.2 0zm-2.3 1.3v.1l.1.1h.1c.1 0 .1-.1.1-.1v-.2l-.1-.1h-.1l-.1.2zm-2.4 4c0-.1 0-.1 0 0h-.1.1c-.1 0-.1 0 0 0l-.1.1.1-.1zm6.2-.3h-.1v.1l.1-.1c-.1 0-.1 0 0 0zm-.7-4.1h-.1v-.3.1-.1h.2l.1.1v.4l-.1.1c-.1 0-.1.1-.2 0h-.1v-.1l.2-.2zm.2-.2zm1.3 2s0-.1 0 0v-.1h-.2v.1s0 .1.2 0zm-3.5 1.1l.1.1h.1c0-.1-.1-.1-.1-.1h-.1zm3.8-3.8v.1h.1v-.2l-.1.1zm1.8-1.3h.1v-.1l-.1.1c.1-.1.1-.1 0 0 .1-.1 0-.1 0 0zm0-2.2c.1 0 .1.1 0 0 .1 0 .1 0 0 0 .1 0 .1 0 0 0zm-5.6 1.9v-.2l-.1-.1h-.2c-.1 0-.1.1-.1.1-.1 0-.1.1-.1.2v.1c.1.1.1.1.2.1.1-.1.2-.1.3-.2zm-3.9-1s-.1-.1-.1 0 0 .1.1 0c0 .1 0 .1 0 0zm2.6-.2s-.1 0 0 0l-.1.1s0 .1.1.1h.1c.1 0 .1-.1.1-.2h-.2c.1 0 .1 0 0 0zm.9.4l.1-.1h-.2v.2l.1-.1c-.2 0 0 0 0 0zm-3.3-2.4c.1 0 .1-.1 0-.1 0 0-.2 0 0 .1-.2 0-.2 0 0 0zm2.8 3.9c0-.1-.1-.1-.2-.1s-.1.1-.1.1v.2c0 .1.1.1.2.1s.1-.1.1-.1v-.2zm.7 2.3l-.1-.1c-.1-.1-.2 0-.2 0l-.1.1v.1s0 .1.1.1h.1c.2-.1.2-.1.2-.2zm-1.6.3v.1c0 .1.1.1.1.1h.1s.1 0 .2-.1v-.3l-.1-.1h-.1l-.2.3zm2.9-.8c.1 0 .1-.1 0-.2l-.1-.1h-.1c-.1 0-.1.1-.1.1v.2c0 .1.1.1.1.1.1 0 .1 0 .2-.1zm-7.7 2.1c-.1 0-.1.1 0 0-.1.1-.1.1 0 0 0 .1 0 .1 0 0zm7.4-3.2v.1s.1.1.2.1h.1l.1-.1v-.2c0-.1-.1-.1-.1-.1h-.2l-.1.2zm-1.9.9c-.1-.1-.2-.1-.3-.1v.2c0 .1.2.2.3.1l.1-.1-.1-.1zm7.1 2.3s-.1 0 0 0c-.1.1 0 .1 0 0zm-7.3.6l-.1-.1h-.1v.2c0 .1.1.1.2.1 0 0 .1-.1 0-.2zm5.7 1.3c0-.1 0-.1 0 0-.1-.1-.1-.1 0 0l-.1-.1.1.1c-.1 0 0 0 0 0zm-4.2-2.1l.2.1c.1 0 .2-.1.1-.3l-.1-.1h-.3c0 .2 0 .2.1.3-.1 0-.1 0 0 0zm2.7-1.1h.1v-.1l-.1.1zm-1.8.5v.2c0 .1.1.1.1.1.1 0 .1 0 .2-.1v-.2s-.1-.1-.3 0zm-5 1.6c.2 0 0 0 0 0zm6.1-1.8l.1.1v-.1l-.1-.1h-.1c.1 0 .1 0 .1.1zm-1.3-.3l-.1-.1h-.2v.2c0 .1.1.1.2.1v-.1l.1.1h.1l-.1-.2zm-2.3 3.3c0-.1-.1-.1 0 0-.1 0-.1 0 0 0-.1.1 0 .1 0 0 0 .1 0 0 0 0zm1.2-2.8c.2 0 .2 0 .2-.1v-.2l-.1-.1h-.1c-.1 0-.1.1-.1.1v.2l.1.1zm-2 .9c0-.1-.1-.1-.2-.1s-.1.1-.1.1.1.1.2 0c0 .2.1.2.1 0zm1.6-.3l.1-.2v-.1l-.1-.1h-.1c-.1 0-.1.1-.1.1v.3c0 .1.1.1.2 0zm-3.3 4.7c-.1 0-.1 0 0 0-.1 0-.1 0 0 0-.1 0-.1 0 0 0-.1 0-.1 0 0 0-.1.1-.1.1 0 0zm2-5.1l-.1-.1h-.2v.1s0 .1.1.1c0 0 .1 0 .2-.1zm3.8.6c-.1-.2-.2-.2-.2-.1v.1c0 .1.1.1.1.1l.1-.1zm.1 1.1v-.1h-.2v.2h.1l.1-.1zm-1.5-.6v-.1c0-.1-.1-.1-.1-.1h-.1s-.1.1 0 .2.1.1.2 0zm-1.1.2h-.2v.1s0 .1.1.1h.1c0-.1.2-.1 0-.2zm-1.3.2c0-.1-.1-.2-.2-.2l-.1.1v.2s0 .1.1.1c.1-.1.2-.1.2-.2zm-.4-3.2h.1l.1-.1.1-.1v-.2l.1-.1v-.1l-.1-.1h-.1l-.1.1v.2h-.1c-.1.1-.1.2-.1.2 0 .2.1.2.1.2zm3.7-1.8h-.2v.2c0 .1.1.1.1.1h.2c.1-.1.1-.1.1-.2-.1-.1-.1-.1-.2-.1zm1.5-2.5c.1 0 .1 0 0 0 0-.1 0-.1 0 0zm-5.8 6s0-.2 0 0c-.1-.1-.1-.1-.2-.1s-.1.1-.1.1h.2c.1.1.1 0 .1 0zm-.2-1c.1 0 .1-.1 0-.2l-.1-.1h-.1v.1l.2.2zm1.8-7c-.1-.1-.1 0-.1 0 0 .1 0 .1.1 0 0 .1 0 .1 0 0zm-3.7 7.6v.1s.2 0 0-.1c.2.1.2 0 0 0zm4.7-2c-.1.1-.1.1-.1.2l.1.1c.1.1.2 0 .2 0s.1-.1.1-.2v-.1h-.3zm-3 2.1v-.1c0-.1-.1-.1-.1-.1v.2h.1c0 .1 0 .1 0 0zm3.2-1.4s-.1.1 0 .2.2.1.2 0l.1-.1c.1-.1.1-.1.1-.2l-.1-.1h-.2v.1c0 .1 0 .1-.1.1zm-2.4 1.3h.1c0-.1-.1-.1-.2-.1s-.1.1-.1.2l.2-.1zm5.2-2.6h-.1l-.1.1v.1h.1v.1s0 .1.1.1h.1v-.3l-.1-.1zm2.6 1.6s.1 0 0 0c.1 0 .1 0 0 0h-.1.1c0 .1 0 .1 0 0 0 .1 0 .1 0 0 .1.1.1.1 0 0zm-2.6-1.8v.2h.3v-.3h-.1v.1zm-4.7 2.2v-.3h-.1c-.1 0-.1 0-.2.1 0 .1-.1.1 0 .2 0 .1.1.1.1.1s.1 0 .2-.1z"/><path class="st13" d="M607.4 249.6l.1.1h.2l.1-.1v-.1h-.1c-.3 0-.3.1-.3.1zm-6.1-.4c-.1 0-.1 0 0 0-.1 0-.1 0 0 0-.1.1-.1.1 0 .1v-.1zm7.2-2.3l-.1-.1s-.1 0-.1.1c-.1 0-.1.1-.1.2v.1s0 .1.1.1h.2v-.4c0 .1 0 0 0 0zm-6 .7c-.1 0-.1 0 0 0-.1 0-.1 0 0 0-.1 0-.1 0 0 0h-.1.1c-.1.1-.1.1 0 0 0 .1 0 0 0 0zm4.1-1.8l.1.1h.2c0-.1-.1-.1-.1-.1h-.2zm-1.9 1.3c0-.1-.1-.1-.1-.1h-.1v.1c0 .1.1.1.1.1s0 .1.1-.1zm-.5-.1l-.1-.1h-.1v.2h.1c.1 0 .1-.1.1-.1zm1.4-1.3l-.1-.1s-.1 0-.1.1v.1h.2v-.1zm-1 2.5v-.1c-.1-.1-.2-.1-.2-.1h-.1v.1s-.1.1 0 .2v.1h.2c.1 0 .1 0 .1-.1v-.1zm-1.5.6s0-.1 0 0h-.1.1zm1.7 7.1c.1.2.1.2 0 0 .1 0 .1 0 0 0 .1 0 .1 0 0 0zm2.4-11c0 .1.1.2.2.1v-.1s0-.1-.1-.1c.2 0 .1 0-.1.1zm-3.8 3.5l-.1-.1c-.1 0-.1 0-.1.1v.1s0 .1.1.1c-.1-.1 0-.1.1-.2zm3.1-6.2c-.1.1 0 .1 0 .1.1-.1.1-.1 0-.1zm-6.1 1.4v.1h.1l-.1-.1zm3.7 4.4l.1-.1v-.1s-.1 0-.1.1v.1c-.3 0-.2 0 0 0zm1.8-2.7c-.1 0-.1 0 0 0v.2h.1v-.1c0-.2-.1-.2-.1-.1zm-.7.3s.1 0 .1-.1v-.1.1h-.3v.1h.2zm1.9 1.8l.1.1c.1.1.2 0 .3-.1v-.4l-.1-.1h-.1c-.1 0-.1.1-.2.2v.3zm-2.3.4v.1c0 .1.1.1.1.1h.2l.1-.1v-.1c0-.1-.1-.1-.1-.1-.2-.1-.3 0-.3.1zm3.4-2.2l-.1.1h.2v-.3l-.1.2zm.7 1v.2s.1 0 .1-.1c0 0 0-.1-.1-.1.1-.1.1-.1 0 0zm.5 1.1l.1.1h.1v-.1h-.1c.1-.1-.1-.1-.1 0zm-4.1 1.3v.2c0 .1.1.1.2.1l.1-.1c.1-.1.1-.1.1-.2l-.1-.1c-.1-.1-.1-.1-.2-.1l-.1.2zm-1.2-7.1c0-.1 0-.1 0 0-.1-.1-.1 0-.1 0h.1zm4 2.3c0 .1.1.1 0 0 .1 0 .1 0 0 0zm-.6 2v-.1h-.1c-.1 0-.1.1-.1.2h.1l.1-.1zm3-1.5c.2 0 .2 0 0 0 .2-.1.2-.1 0 0 .2-.1.2-.1 0 0 0-.1 0-.1 0 0zm-6.2.6c0-.1 0-.1 0 0-.1 0-.1 0 0 0zm1.6 1.4l-.1-.1h-.1s-.1 0-.1.1.1.1.2.1.1 0 .1-.1zm2.4.9c.1.1.2.1.2 0v-.1l-.1-.1c-.1 0-.1.1-.1.2zm-8.4.2s-.1 0 0 0c0 .1 0 .1 0 0zm6.4.9l-.1.2c0 .1.1.2.3.1l.1-.1v-.2h-.1c-.1-.1-.1-.1-.2 0zm-3.2.9c-.1-.1-.2-.1-.2-.1v.1c.1.2.2.1.2 0zm6.6-7.5c-.1 0-.1 0 0 0 0 0 0 .1 0 0zm-2.6 12.9c0-.2 0-.2 0 0-.1 0-.1 0 0 0zm3.4-7.6c.2 0 .2-.1 0 0 .2-.1.2-.1 0 0 .1-.1.2-.1.1-.1-.1-.2-.1 0-.1.1zm-3.7 1h.1l.1-.1v-.3c0-.1-.1-.1-.2-.1l-.1.1c-.1.1-.1.2 0 .2l.1.2z"/><g><path transform="rotate(-29.191 605.436 247.316)" class="st8" d="M598.3 240h14.2v14.6h-14.2z"/><path class="st13" d="M605.3 244.6v-.1.1l-.1-.2s-.1.1 0 .1c0 .1.1.1.1.1zm-.3 5h-.2c-.1 0-.1.1-.1.2v.1c.1.1.2.1.3.1v-.1c.2-.2 0-.3 0-.3zm-.6 1.3v-.1h-.1c0 .1 0 .1.1.2h.2l-.2-.1zm-6.3-2.4c.1-.1.1-.1 0 0 0-.1 0-.1 0 0 0-.1 0-.1 0 0zm7.1 7.2c-.2.1-.2.1 0 0-.2.1 0 .1 0 0 0 .1 0 0 0 0zm-.4-6.7h-.2l-.1.1c-.1.1-.1.2-.1.3 0 0 0 .1.1.1h.2c.1 0 .1-.1.1-.2v-.3zm-1.5-2.2h-.1l-.1.1v.1c0 .1.1.1.1.1h.2v-.2l-.1-.1zm-4.3-1.9c0-.1 0-.1 0 0-.1-.1-.1-.1 0 0-.1-.1-.1-.1 0 0l-.1-.1c0 .1 0 .1.1.1-.1 0-.1 0 0 0zm1.1 6.2v-.1c-.1 0-.1 0 0 .1-.1-.1-.1-.1 0 0-.1-.1-.1 0 0 0-.1 0-.1 0 0 0zm3.8-1.3v-.1h.3v.2l-.1.1h-.2l-.1.1h-.1l-.1-.1c0-.1-.1-.1-.1-.2v-.1h.1l.3.1zm.3.2zm-1.8 1.5h.1v-.2h-.1c-.1 0-.1.1 0 .2zm-1.5-3.4l-.1.1.1.1c.1 0 .1-.1.1-.1-.1 0-.1 0-.1-.1zm4.1 3.6l-.1.1v.2h.2l-.1-.3zm1.6 1.5v.1s.1 0 0-.1c.1.1.1.1 0 0 .1 0 0 0 0 0zm2.1-.2c0 .1.1.1 0 0 .1 0 .1 0 0 0zm-2.4-5.5h.2v-.3c0-.1-.1-.1-.1-.1 0-.1-.1-.1-.2-.1h-.2c-.1.1-.1.1-.1.2.1.2.1.3.4.3zm.4-3.9s.1-.1 0-.1c0 0-.1 0 0 .1zm.7 2.6c-.2-.2-.2-.2 0 0l-.2-.1-.1.1v.1c0 .1.1.1.2 0l.1-.1c-.2.1 0 0 0 0zm-.5.8c.1.1.1.1.2.1v-.2h-.2v.1c0-.1 0-.1 0 0zm2-3.6s0 .1 0 0c.1.1.1.1.1 0h-.1zm-3.5 3.4c.1 0 .1-.2.1-.2 0-.1-.1-.1-.1-.1h-.2c-.1 0-.1.2-.1.2 0 .1.1.1.1.1h.2zm-2.1 1l.1-.1c.1-.1 0-.2 0-.2h-.2s-.1 0-.1.1v.1s.1.1.2.1zm-.6-1.5h-.2c-.1 0-.1.1-.1.1v.1s0 .1.1.1h.3v-.2l-.1-.1zm1.1 2.6c.1 0 .1.1.2 0v-.2c0-.1-.1-.1-.1-.1h-.2c-.1 0-.1.1-.1.2.1 0 .1.1.2.1zm-3-7.3c.1-.1 0-.1 0 0 0-.1 0-.1 0 0 0-.1 0-.1 0 0zm4.1 7h-.1s-.1.1-.1.2v.1l.1.1h.2c.1 0 .1-.1.1-.1v-.2l-.2-.1zm-1.1-1.9c.1-.1.1-.2 0-.3h-.2c-.1.1-.1.2-.1.3l.1.1.2-.1zm-1.4 7.4c-.1 0-.1 0 0 0 0 .1 0 0 0 0zm-1.5-7.2l.1-.1v-.1h-.2c-.1 0-.1.1 0 .2h.1zm-.6 5.7s.1 0 0 0c.1 0 .1 0 0 0l.1-.1-.1.1zm1.6-4.4l-.1.1v.1c0 .1.1.1.3.1l.1-.1v-.1c0-.1 0-.1-.1-.2-.1 0-.1 0-.2.1zm1.4 2.7v.1h.1s0-.1-.1-.1zm-.8-1.8h-.2c-.1 0-.1.1-.1.1 0 .1 0 .1.1.2h.2c.1.1.1-.1 0-.3zm-2.1-4.7h-.1.1c0 .1 0 0 0 0zm2.4 5.8c-.1.1-.1.1-.1.2h.1l.1-.1v-.1h-.1zm.3-1.3l.1-.1v-.3h-.2c-.1 0-.1.1-.1.2h.1l-.1.1v.1h.2zm-3.7-2c.1 0 .1 0 0 0 .1 0 .1 0 0 0 .1-.1 0-.1 0 0zm3 .9c0 .2.1.2.1.2h.2l.1-.1v-.1c0-.1-.1-.1-.1-.1h-.2l-.1.1zm-1.2-1.9c.1 0 .1-.1.1-.2s-.1-.1-.2-.1v.2c0 .1 0 .1.1.1zm.5 1.7l.1.1h.1l.1-.1v-.1c0-.1-.1-.1-.1-.1h-.2v.1c-.1-.1-.1 0 0 .1zm-5-2.8c0-.1 0-.1 0 0 0-.1 0-.1 0 0 0-.1 0-.1 0 0 0-.1 0-.1 0 0-.1-.1-.1-.1 0 0zm5.4 1.4l.1-.1v-.1h-.2l.1.2zm-.2 3.7c.1-.1.1-.2.1-.2h-.1s-.1.1-.1.2h.1zm-1.1.3h.1v-.2h-.2v.1c-.1 0-.1 0 .1.1zm.5-1.5h.1l.1-.1v-.1h-.2c-.2.1-.1.2 0 .2zm-.4-1v-.2h-.1l-.1.1v.1h.2zm-.4-1.3c.1 0 .2-.1.2-.2l-.1-.1h-.2s-.1 0-.1.1c.1.1.1.2.2.2zm3.1-.8l.1.1.1.1.1.1h.2l.1.1h.1l.1-.1v-.1l-.1-.1h-.2v-.1c-.1-.1-.2-.1-.3-.1-.2-.1-.2 0-.2.1zm2.3 3.4v-.2h-.2c-.1 0-.1.1-.1.1v.2c.1.1.2.1.2 0 0 0 .1 0 .1-.1zm-3.9-3.8c.1-.1.1-.2 0-.2 0 0-.1-.1-.1 0v.2c0 .1.1.1.1 0zm1-.4c0 .1.1.1.2 0l.1-.1v-.1h-.1l-.2.2zm7 1v-.1c-.1 0-.1 0 0 .1-.1 0-.1 0 0 0zm-8-2.6c0-.1 0-.1 0 0 0-.1 0-.1 0 0h-.1.1zm2.5 4.2c-.1-.1-.2-.1-.2-.1l-.1.1c-.1.1 0 .2 0 .2s.1.1.2.1h.1c.1 0 .1-.1 0-.3zm-2.4-2.6h.1l.1-.1h-.2v.1c-.1-.1-.1-.1 0 0zm1.8 3h-.2c-.1.1-.1.2 0 .2l.1.1c.1.1.2.1.2.1l.1-.1v-.2l-.2-.1zm-1.6-2.3l.1.1c.1 0 .1-.1.1-.2s-.1-.1-.2-.1v.2zm3.3 4.8v-.1h-.2v.1h-.2l-.1.1s0 .1.1.1h.3l.1-.2c0 .1 0 .1 0 0zm-1.4 2.9c.1 0 .1 0 0 0 .1-.1.1-.1 0 0 .1-.1.1-.1 0 0v-.1.1zm1.5-2.9v.1h-.1v.3h.2v-.3zm-2.6-4.4h.2v-.2c0-.1 0-.1-.1-.2h-.2c-.1 0-.1.1-.1.1-.1.2.1.2.2.3zm1.3 2.5l-.1.1v.2h.1l.1-.1v-.1c.1 0 0-.1-.1-.1zm-.3-6.1c0-.1 0-.1 0 0-.1-.1-.1 0-.1 0h.1zm3.1 6.9l.1-.1s0-.1-.1-.1c0-.1-.1-.1-.2-.1h-.1l-.1.1v.2h.4c-.1 0-.1 0 0 0zm-1.4-5.8c0-.1 0-.1 0 0 0-.1 0-.1 0 0v-.1.1c-.1-.1-.1-.1 0 0-.1 0-.1 0 0 0zm2.3 3.9l-.1.2c.1 0 .1-.1.1-.2zm-1.6-1.8c.1 0 .1-.1.1-.2v-.1h-.1c-.1 0-.1.1-.1.1 0 .1 0 .2.1.2zm.1-.4l.1-.1v-.1h-.2v.1c0 .1 0 .1.1.1zm1.4 1.2l.1-.1s0-.1-.1-.1h-.1v.3c0-.2 0-.1.1-.1zm-2.5-.8c.2-.1.2-.2.2-.3v-.1h-.4v.2c0 .1.1.1.1.1 0 .2 0 .1.1.1zm-7.7 1.2c0 .1 0 .1 0 0 0 .1 0 .1 0 0 0 .1.1.1 0 0zm11.3 1.1c-.1 0-.2.1-.1.2h.1l.1-.1-.1-.1zm-3.9-3.5l.1-.1c0-.1-.1-.1-.1-.1h-.2l-.1.1s.1.1.3.1zm6.4 2.4s0-.1 0 0c0-.1 0-.1 0 0h-.1s0 .1.1 0c0 .1 0 0 0 0zm-2-5.8h-.1v.1l.1-.1zm-4 4h.2s0-.1-.1-.1h-.1s-.1 0 0 .1zm3 1.6c-.1-.1-.1-.1 0 0-.2 0-.2 0-.2.1v.1h.1c.2-.1.2-.2.1-.2zm-.5-.7s0 .1.2.1h.1-.1v-.2l-.2.1zm-1.5 2.1l-.1.1c0 .1.1.2.1.2h.2l.1-.1v-.1c0-.1-.1-.1-.2-.1h-.1zm-.7-2.2h-.1c-.1 0-.1.1-.1.1v.2l.1.1h.1c.1 0 .1-.1.1-.2s0-.2-.1-.2zm2.6 3.1c-.1-.1-.1-.1-.2-.1v.2h.2v-.1c0 .1 0 .1 0 0zm-.9.9h-.2s0 .1.1.1l.1-.1c.1.1.1 0 0 0zm-1 .5l-.1.1v.1h.1v-.1c.1 0 .1 0 0-.1zm-1.9-3.8h-.2c-.1 0-.1.2-.1.2l.1.1h.2l.1-.1c.1-.1 0-.1 0-.2h-.1zm7.1-2.1s0-.1 0 0v-.1c-.2 0-.2 0 0 .1-.2-.1-.2-.1 0 0-.2-.1-.2-.1 0 0zm-1.9 4.3c-.1 0-.1 0 0 0 0 .1 0 .1 0 0zm-2.1-.5c.1 0 .1 0 .1-.1v-.1c0-.1-.1-.1-.2-.1v.2l.1.1zm1.9 3c0 .1.1.1 0 0 .1 0 .1 0 0 0zm-1.4-6.2c0-.1 0-.1 0 0 0-.1 0-.1 0 0-.1-.1-.1-.1 0 0-.1-.1-.1 0 0 0z"/><path class="st13" d="M607.1 246.6l.1-.1v-.1l-.1-.1c-.1 0-.1.1-.1.2h.1c-.1.2-.1.2 0 .1zm-.5 2.6l-.1.1s0 .1.1.1h.1l.1-.1c-.1-.1-.1-.2-.2-.1zm-1.4-1.9h-.2c-.1 0-.2.2-.1.3l.1.1h.1l.1-.1v-.1c.1-.1.1-.1 0-.2zm-1.3-3.1c.1-.1.1-.2.1-.3h-.1c-.2.2-.1.3 0 .3zm8.3 5.7c0-.1 0-.1 0 0-.1-.1-.1-.1 0 0-.1-.1-.1-.1 0 0zm-13.1-1c0-.1 0-.1 0 0 0-.1 0-.1 0 0-.1 0-.1 0 0 0zm7.9 2.4c0 .1.1.1 0 0 .1.1.1.1 0 0l.1.1c0-.1 0-.1-.1-.1zm-1.4-3.6v.1l.1.1h.2c.1 0 .1-.1.1-.2l-.1-.1c-.1-.1-.2 0-.2 0l-.1.1z"/></g></g></g><g id="eye_left"><path class="st7" d="M553.3 274.9c-1.1-7.2-7.8-12-15-10.9-7.2 1.1-12 7.8-10.9 15 1.1 7.2 7.8 12 15 10.9 7.1-1.3 12-8 10.9-15"/><g class="st12"><path transform="rotate(-64.793 543.098 274.82)" class="st8" d="M536 267.5h14.2v14.6H536z"/><path class="st13" d="M541.5 272.7c-.1 0-.1 0 0 0-.1 0-.1 0 0 0-.1-.1-.1-.1-.1 0h-.1v.1c.1 0 .2 0 .2-.1zm2.6 4.1h-.2v.2l.1.1c.1.1.2 0 .3-.1-.1 0-.2-.2-.2-.2zm.2 1.5s0-.1-.1-.1v.1c0 .1.1.1.2.1s.1 0 .1-.1h-.2zm-6.5 1.6s0-.1 0 0c-.1-.1-.1-.1 0 0-.1 0-.1 0 0 0zm9.9 2s0 .1 0 0c.1.1.1 0 0 0 .1 0 .1 0 0 0zm-4.1-5.4h-.1l-.1.1v.1c0 .1 0 .2.1.2h.1c.1 0 .1 0 .2-.1v-.3c-.1.1-.1 0-.2 0zm-2.6-.9l-.1.1v.1l.1.1h.2c.1 0 .1-.1.1-.1v-.1l-.1-.1h-.2zm-4.5 1c-.1 0-.1 0 0 0-.1-.1-.1 0 0 0h-.1c0 .1 0 .1.1 0-.1 0 0 0 0 0zm4.4 4.4c0-.1 0-.1 0 0-.1-.1-.1-.1-.1 0h.1c-.1 0-.1 0 0 0zm2.4-3.3l-.1-.1c0-.1.1-.1.1-.1l.1-.1.1-.1h.2v.1c0 .1-.1.1-.1.1v.1l-.1.1h-.1c-.1 0-.1-.1-.2-.2v-.2l.1.4zm.4 0zm-.6 2.3s0-.1 0 0l.1-.1v-.2s-.1 0-.1.1v.2zm-3.2-1.8v.1l.1.1s0-.1-.1-.2c0 .1 0 0 0 0zm5.4.3l-.1.1v.1h.2l.1-.1v-.1h-.2zm2.2.4s0 .1 0 0c.1.1.1.1.1 0h-.1c.1 0 .1 0 0 0 .1 0 0 0 0 0zm1.6-1.4c.1 0 .1 0 0 0 .1-.1.1-.1 0 0zm-5.2-3l.1-.1-.1.1c.1-.1.2-.1.2-.2v-.2l-.1-.1h-.4l-.1.1c0 .1 0 .2.1.2.1.2.2.2.3.2zM542 271s0-.1-.1-.1v.1h.1c0 .1 0 .1 0 0 0 .1 0 .1 0 0zm2 1.8h-.2v.1s0 .1.1.1.1 0 .2-.1l-.1-.1zm.2.9h.1v-.2h-.2v.1l.1.1c-.1 0 0 0 0 0zm-.5-4.1s.1.1 0 0h.1-.1c.1-.1.1-.1 0 0zm-.9 4.7c0-.1 0-.2-.1-.2h-.3c0 .1 0 .2.1.2h.2c0 .1.1.1.1 0zm-1.1 2.1v-.1c0-.1-.1-.2-.1-.2h-.1l-.1.1v.1l.1.1c0 .1.1.1.2 0zm-1.3-.9l-.1.1v.2s.1.1.2 0c0 0 .1 0 .1-.1l.1-.1v-.1l-.1-.1h-.1l-.1.1zm2.4 1.6c.1 0 .1 0 .2-.1v-.1l-.1-.1h-.2c-.1 0-.1.1-.1.1v.2h.2zm-6.7-4.2c-.1-.1-.1-.1 0 0-.1-.1-.1 0-.1 0h.1c-.1 0-.1 0 0 0zm7.2 3.2l-.1.1v.2l.1.1h.1c.1 0 .1-.1.1-.1v-.2c0-.1-.1-.1-.1-.1h-.1zm-1.8-.8c0-.1 0-.2-.1-.3h-.1c-.1 0-.1.1-.1.1 0 .1 0 .2.1.3h.1l.1-.1zm3 6.8s0-.1 0 0c0 0 .2 0 0 0zm-5.3-5v-.2h-.3c0 .1 0 .1.1.1 0 .2.2.2.2.1zm2.9 5c0-.1 0-.1 0 0v-.1.1c-.1 0 0 0 0 0zm-1.4-4.4v.1l.1.1c.1 0 .2 0 .3-.1v-.2c0-.1-.1-.1-.2-.1s-.1 0-.2.2c0-.1 0-.1 0 0zm2.7 1.2l.1.1.1-.1h-.2zm-1.6-1c-.1.1-.1.1-.2.1v.2c0 .1.1.1.2.1h.1l.1-.1c.1-.1 0-.2-.1-.3h-.1zm-4.4-2.6c-.1 0-.1 0 0 0-.1.1-.1.1 0 0 0 .1 0 .1 0 0zm5.4 3.3v.2h.1v-.1h-.1c.1-.1 0-.1 0-.1zm-.7-1.2v-.1l-.1-.1h-.2v.1c0 .1 0 .2.1.2l.1-.1v.1h.1v-.1zm-4 .5c0-.1 0-.1 0 0 0-.1 0-.1 0 0-.2 0-.2 0 0 0zm2.8-.9c.1.1.2.1.2.1.1 0 .1-.1.1-.1v-.1l-.1-.1c-.1 0-.1-.1-.2 0-.1 0-.1.1-.1.1l.1.1zm-2-.8v-.2h-.2c0 .1 0 .1.1.1-.1.1 0 .1.1.1zm1.4 1h.1l.1-.1v-.1l-.1-.1h-.2c-.1 0-.2.1-.2.1v.2c0-.1.1 0 .3 0zm-5.8.6c0-.1-.1 0 0 0-.1 0-.1 0 0 0h-.1.1zm5.2-2.1l.1-.1h-.1v.1c-.1 0-.1 0 0 0zm2.1 3.2c.1-.2 0-.2 0-.2s-.1 0-.1.1v.2l.1-.1zm-.8 1l.1-.2h-.2v.2h.1zm-.4-1.6c.1-.1.1-.2.1-.2l-.1-.1c-.1 0-.1 0-.1.1-.1.3 0 .3.1.2zm-.9-.6l-.1-.1h-.1v.1s0 .1.1.1l.1-.1zm-1.1-.7c.1-.1.1-.2 0-.3h-.2v.1c0 .2.1.2.2.2zm2-2.6h.3l.1-.1.1-.1h.1l.1-.1v-.1l-.1-.1h-.1l-.1.1h-.2c-.1 0-.2 0-.2.1v.3zm3.9 1.6c0-.1-.1-.1-.1-.1-.1 0-.1.1-.1.1v.2c0 .1.1.1.1.1.1 0 .2 0 .2-.1-.1-.1-.1-.2-.1-.2zm2.8-.7c.1.1.1.1.1 0h-.1c.1 0 .1 0 0 0zm-8.3-.2c0-.1 0-.2-.1-.2h-.1c0 .1.1.1.1.1.1.2.1.2.1.1zm.7-.8c.1 0 .1 0 .2-.1v-.1h-.1s-.1 0-.1.1v.1zm6.3-3.4c-.1 0-.1 0 0 0l-.1-.1c-.1.1-.1.1.1.1-.1 0-.1.1 0 0zm-8.1 2.5c0-.1 0-.1 0 0-.1-.1-.1-.1 0 0-.1 0-.1 0 0 0zm4.6 2c-.1 0-.2 0-.2.1v.1c0 .1.1.1.1.2h.2v-.1c0-.1 0-.2-.1-.3zm-3.6-.6h.1v-.2h-.1v.2c-.1-.2-.1-.2 0 0-.1-.2-.1-.2 0 0zm3.2 1.3s-.1 0-.2.1c0 .1 0 .2.1.2h.3l.1-.1v-.2s0-.1-.1-.1h-.1c0 .1 0 .1-.1.1zm-2.6-1c0 .1 0 .1 0 0l.1.1c0-.1 0-.1-.1-.2-.1 0-.1 0-.2.1h.2zm5.5 2.1c-.1-.1-.2-.1-.2-.1s-.1 0-.1.1v.1h-.1s-.1 0-.1.1v.1l.1.1s.1 0 .1-.1h.1v-.1l.2-.2c.1.1.1 0 0 0zm.5 3.1s.1 0 0 0c0-.2 0-.2 0 0 0-.2 0-.2 0 0h-.1.1c-.1 0-.1 0 0 0-.1.1 0 .1 0 0 0 .1 0 .1 0 0zm-.3-3.2l-.1.1v.1h.1v.1h.1v-.1h.1v-.1h-.1v-.1zm-4.8-2c.1 0 .1-.1.1-.1v-.2c0-.1-.1-.1-.2-.1s-.1 0-.2.1v.2c0 .1.2.1.3.1zm2.5 1.2l-.1.1c0 .1.1.1.2.2h.1l.1-.1v-.1l-.1-.1c0-.1-.1 0-.2 0zm-3.7-4.7c-.2-.1-.2-.1 0 0-.1-.1-.1 0-.1 0v.1c-.1-.1-.1 0 .1-.1zm6.4 3.7v-.1h-.1c-.1 0-.1 0-.2.1 0 0-.1 0-.1.1v.1h.1c0 .1 0 .1.1.1h.1v-.1l.1-.2c0 .1 0 .1 0 0zm-4.5-4c-.1 0-.1 0 0 0-.1 0-.1 0 0 0-.1 0-.1-.1 0 0l-.1-.1.1.1c-.1 0-.1.2 0 0-.1 0 0 0 0 0zm1.9 1.5c.1-.1 0-.2 0-.2h-.3v.1c.1 0 .1.1.3.1zm-.3-.6v-.1h-.3s0 .1.1.1c.1.1.2.1.2 0zm1.8.2v-.1h-.1s-.1 0-.1.1v.1h.1c0-.1.1-.1.1-.1zm-2.4.9c.1-.2.1-.3 0-.3h-.2s-.1 0-.2.1v.3s.1.1.2 0c.1 0 .2-.1.2-.1zm-1.4-.6s0-.1 0 0l-.1-.1.1.1zm5.7.4c-.1.1-.1.2 0 .2h.1l.1-.1v-.1h-.2zm-5.3-.5l.1-.1h-.1s-.1 0-.1.1v.1c-.1-.1 0-.1.1-.1zm6.7-1.9h-.1v.1l.1-.1c0 .1 0 0 0 0zm-5.1-3.5c-.1 0-.1 0 0 0-.1.1-.1.1 0 .1v-.1zm-.8 5.6h.1v-.1h-.1s-.1 0-.1.1c0-.1 0 0 .1 0zm3.3-.5c-.1-.1-.1 0-.1 0v.2h.3c-.1-.2-.1-.2-.2-.2zm-.8-.3s.1.1.2 0v-.2h-.2v-.1.3zm0 2.6v.1c0 .1.2.1.2.1h.1v-.2l-.1-.1c.1 0 .1 0-.2.1zm-1.8-1.4c-.1.1-.1.2-.1.3l.1.1h.1l.1-.1v-.2c0-.1-.1-.1-.2-.1zm3.8 1.1h-.1v.2h.2v-.1l-.1-.1c.1 0 .1 0 0 0zm-.2 1.1c-.1 0-.1 0-.1.1h.1v-.1c.1 0 .1 0 0 0zm-.4 1.1l-.1.1c0 .1.1.1.1.1h.1v-.2h-.1zm-3.8-2.1c-.1 0-.1.1-.2.1 0 .1 0 .2.1.2h.1c.1 0 .1 0 .2-.1v-.1c0-.1 0-.1-.1-.2l-.1.1zm4.4-5.8c.1 0 .1 0 0 0 0-.1 0-.1-.1-.1 0 .1 0 .1.1.1zm1 4.6c0 .1 0 .1 0 0 .1.1.1.1.1 0h-.1zm-1.9.9l.1-.1-.1-.1c-.1 0-.1 0-.2.1v.1h.2zm3.2 1.3c.1 0 .1 0 0 0 .1 0 .1-.1 0 0 .1-.1 0 0 0 0zm-4.6-4.3s0-.1 0 0c-.1-.1-.1 0 0 0-.1 0-.1 0 0 0-.1 0-.1 0 0 0zm0 2.2c0-.1 0-.1 0 0v-.1h-.2c0 .1 0 .1.1.2h.1c-.1-.1 0-.1 0-.1z"/><path class="st13" d="M545.1 275.6v.1h.1s.1 0 .1-.1v-.1c0 .1-.1.1-.2.1zm-5.8-6c-.1 0-.1 0 0 0-.1 0-.1.1 0 0 0 .1 0 0 0 0zm3.6 5.3l-.2.1c0 .1 0 .2.1.3h.1l.1-.1v-.2s0-.1-.1-.1zm-2.9-1.8v-.1s0-.1-.1-.1v.1c0 .2 0 .2.1.1zm-1.2 6.7c.1 0 .1 0 0 0 .1-.1 0-.1 0 0 0-.1 0-.1 0 0zm7.9-2.6c.2 0 .2 0 0 0h.2c0-.1 0-.1-.2 0zm-3.3-2.1s.2 0 0 0l.2.1.1-.1v-.2h-.1c-.1 0-.2.1-.2.1v.1z"/><path transform="rotate(-17.936 541.827 273.957)" class="st8" d="M534.7 266.6h14.2v14.6h-14.2z"/><path class="st13" d="M542.2 271.3c0-.1 0-.1 0 0v-.2l-.1.1c0 .1.1.1.1.1zm-1.2 4.8l-.1-.1c-.1 0-.1.1-.1.1v.1c0 .1.2.2.3.1l.1-.1c-.1.1-.2 0-.2-.1zm-.9 1.2v-.2h-.1v.2s.1.1.2 0h-.1zm-5.6-3.6c0-.2 0-.2 0 0 0-.2-.1-.2 0 0zm5.4 8.5c-.1 0-.1 0 0 0-.1.1 0 .1 0 0zm1-6.7l-.1-.1h-.1c-.1 0-.1.1-.1.1-.1 0-.1.1-.1.2 0 0 0 .1.1.1 0 0 .1.1.2 0 .1 0 .1-.1.1-.1v-.2zm-1.1-2.4h-.1l-.1.1v.1c0 .1 0 .1.1.1h.2l.1-.1v-.1l-.2-.1zm-3.8-2.7v-.1c-.1-.1-.1.1 0 .1-.1 0-.1 0 0 0 0 .1 0 .1 0 0zm-.1 6.2v-.1h-.1l.1.1c-.2 0-.2 0 0 0-.2 0-.2 0 0 0zm4-.4v-.1h.3v.2l-.1.1h-.4l-.1-.1c0-.1-.1-.1 0-.2h.1l.2.1zm.2.2c-.1 0-.1 0 0 0zm-2 1.1c0 .1.1.1 0 0h.1v-.2h-.1s-.2.1 0 .2zm-.9-3.5l-.1.1v.1c.1 0 .1-.1.1-.1v-.1zm3.5 4.2h-.1v.2h.2l-.1-.2zm1.2 1.8v.1h.1l-.1-.1c0 .1 0 0 0 0zm2.1.1s0 .2 0 0c0 .2 0 .2 0 0 .1.2.1 0 0 0zm-1.4-5.7c.1 0 .2.1.2 0l.1-.1v-.2c0-.1 0-.1-.1-.1 0-.1-.1-.1-.2-.1h-.1c-.1 0-.1.1-.1.2.1.1.1.2.2.3zm1.3-3.7l.1-.1c-.2 0-.2 0-.1.1-.1-.1-.1 0 0 0zm.1 2.5c-.1-.1-.1-.1 0 0l-.1-.1s-.1 0-.1.1v.1c0 .1.1.1.2.1v-.2c-.1.1-.1.1 0 0zm-.6.8l.1.1h.1v-.3h-.2v.2zm2.6-3.1s.1 0 0 0c.1 0 .1 0 0 0h.1c.1 0 0-.1-.1 0 .1-.1.1-.1 0 0zm-4 2.5c.1 0 .1-.1.1-.2s0-.1-.1-.1h-.2c-.1 0-.1.1-.1.2s0 .1.1.1h.2zm-2.3.6h.1c.1-.1 0-.2 0-.2l-.1-.1h-.1s-.1 0-.1.1v.1s.1.1.2.1zm-.2-1.6h-.1c-.1 0-.1.1-.1.1v.1s0 .1.1.2h.3l.1-.1v-.1l-.3-.2zm.5 2.9c0 .1.1.1.2.1l.1-.1v-.1c0-.1-.1-.1-.1-.2h-.2c-.1 0-.1.1-.1.1 0 .1 0 .1.1.2zm-1.6-7.8c.1-.1.1-.1 0 0 0-.1 0-.1 0 0 0-.1 0-.1 0 0zm2.7 7.6h-.1s-.1.1-.1.2v.1l.1.1h.2c.1 0 .1-.1.1-.1v-.2l-.2-.1zm-.7-2c.1-.1.1-.2.1-.3v-.1h-.2c-.1 0-.2.2-.1.3l.1.1h.1zm-2.9 6.9c.1 0 .1 0 0 0 0 .1 0 0 0 0zm0-7.2l.1-.1v-.1h-.2c-.1 0-.1.1-.1.2 0-.1.1 0 .2 0zm-1.6 5.5c.1 0 .1 0 0 0 .1-.1.1-.1 0 0v-.1.1zm2.3-4.1l-.1.2c0 .1.1.2.3.1l.1-.1v-.3c-.1.1-.2.1-.3.1zm.8 2.9v.1h.1c.1 0 .1-.1-.1-.1zm-.4-1.9h-.2c-.1 0-.1.1-.1.1v.2h.2c.2 0 .2-.1.1-.3zm-1.1-5.1h-.1.1c0 .1 0 .1 0 0zm1.3 6.3l-.1.1h.1s.1 0 .1-.1v-.1c0 .1-.1.1-.1.1zm.5-1.3l.1-.1v-.2l-.1-.1h-.1c-.1 0-.1.1-.1.2h.1-.2v.1l.3.1zm-3.2-2.7s.1 0 0 0c.1 0 .1 0 0 0 .1-.1 0-.1 0 0zm2.7 1.5c0 .2 0 .2.1.2h.2l.1-.1v-.1c0-.1 0-.1-.1-.2h-.2l-.1.2zm-.9-2c.1 0 .1-.1.1-.2s-.1-.1-.1-.1l-.1.1c0 .1 0 .1.1.2zm.3 1.6l.2.1h.1l.1-.1v-.1c0-.1-.1-.1-.1-.2h-.3v.3zm-4.4-3.7s.1 0 0 0c0-.1 0-.1 0 0 0-.1 0-.1 0 0 0-.1 0-.1 0 0zm5 2.4h.1v-.2h-.1s-.1 0-.1.1c0-.1 0 0 .1.1zm-.9 3.7c.2-.1.2-.1.2-.2h-.1c-.1 0-.1.1-.1.1-.1.1-.1.1 0 .1zm-1.2.1h.1v-.3h-.2v.1c0-.1 0 .1.1.2zm.8-1.5h.1c.1 0 .1-.1.1-.1v-.1s-.1-.1-.2 0-.1.1 0 .2zm-.1-1v-.2h-.1s-.1 0-.1.1v.1c0-.1.1 0 .2 0zm-.2-1.4c.1 0 .2-.1.2-.2v-.1h-.2s-.1 0-.1.1c.1.1 0 .2.1.2zm3.2-.1v.1s0 .1.1.1l.1.1h.2l.1.1h.1l.1-.1v-.1l-.1-.1h-.2v-.1c0-.1-.1-.1-.2-.1-.1-.1-.2 0-.2.1zm1.6 3.7v-.2h-.2c-.1 0-.1.1-.1.1v.2c0 .1.1.1.2.1l.1-.2zm2.3 1.7c0 .1 0 .1 0 0 .1.1.1.1 0 0zm-5.4-6.2c.1-.1.1-.1.1-.2s-.1-.1-.1-.1v.2c-.1.1-.1.1 0 .1zm1-.1c0 .1.1.1.2.1s.1-.1.1-.1v-.1h-.2l-.1.1zm6.7 2.3c.1-.1 0-.1 0-.1-.1 0-.1 0 0 .1-.1-.1-.1 0 0 0zm-7.2-4.1c-.1-.2-.1 0 0 0h-.1.1c-.1 0 0 0 0 0zm1.5 4.6c0-.1-.1-.1-.2-.1l-.1.1c-.1.1-.1.2 0 .2 0 0 .1.1.2.1h.1s.1-.1 0-.3zm-1.9-3h.1c.1 0 .1-.1.1-.1h-.2v.1c0-.1 0-.1 0 0zm1.3 3.3s-.1-.1-.2 0-.1.2-.1.2l.1.1c0 .1.1.1.2.1l.1-.1v-.2l-.1-.1c.1 0 .1 0 0 0zm-1.1-2.6v.1c.1 0 .1-.1.1-.2s-.1-.1-.2-.1l.1.2zm2.2 5.5v-.1l-.1-.1h-.3s-.1 0-.1.1v.1h.5zm-1.9 2.4c0 .1.1.1 0 0 .1 0 .1 0 0 0 .1 0 .1 0 0 0v-.1.1c0 .1 0 .1 0 0zm2.1-2.4h-.1v.3h.1l.1-.1v-.1zm-1.8-4.9h.3v-.1c0-.1 0-.1-.1-.2-.1 0-.1-.1-.2 0-.1 0-.1.1-.1.1s0 .1.1.2zm.9 2.7l-.1.1c-.1.1-.1.2 0 .2l.1.1h.1v-.1c0-.2-.1-.3-.1-.3zm.8-6.1c0-.1 0-.1 0 0 0 0-.1 0 0 0h-.1.1zm1.7 7.5l.1-.1s0-.1-.1-.1c0-.1-.1-.1-.2-.1h-.1s-.1 0-.1.1v.1s-.1.1 0 .1v.1h.2l.2-.1c-.1 0 0 0 0 0zm-.2-6.2v-.1.1c-.1 0-.1 0 0 0-.1 0 0 .1 0 0zm1.4 4.3l-.1.1v.2c.1 0 .1-.1.1-.1v-.2zm-1.2-2c.1 0 .1-.1.1-.1v-.1h-.1c-.1 0-.1.1-.1.1.1 0 0 0 .1.1zm.2-.4l.1-.1v-.2h-.2v.1c0 .1.1.2.1.2zm1.1 1.4l.1-.1v-.1h-.2v.1c0 .1.1.1.1.1zm-2.3-1.2h.1c.1 0 .1-.1.1-.2v-.1h-.1s-.1-.1-.2 0h-.1l-.1.1v.1c0 .1 0 .1.1.1h.2zm-7.8-.3c0 .1 0 .1 0 0 0 .1.1.1 0 0 .1.1.1.1 0 0 .1 0 0 0 0 0zm10.9 3.3c-.1 0-.2 0-.1.2h.1s.1 0 .1-.1c0 .1 0 0-.1-.1zm-3.2-4.2h.1c0-.1 0-.1-.1-.1h-.1s-.1 0-.1.1c.1-.1.1-.1.2 0zm6 3.6c0-.1 0-.1 0 0 0-.1 0-.1 0 0-.1-.1-.1 0-.1 0h.1zm-.9-6.1h-.1v.1l.1-.1c-.1 0 0 0 0 0zm-4.7 3.2l.1.1h.1s0-.1-.1-.1h-.1c0-.1 0 0 0 0zm2.6 2.1c0-.1-.1-.1 0 0-.1-.1-.2 0-.2 0v.1h.1c.2.1.2 0 .1-.1zm-.3-.8s0 .1.1.1h.1v-.3h-.1l-.1.2zm-1.9 1.9l-.1.1c-.1.1 0 .2 0 .3h.3l.1-.1v-.1c0-.1-.1-.1-.1-.2h-.2zm-.2-2.5h-.1c-.1 0-.1.1-.1.1v.2l.1.1h.1c.1 0 .1-.1.1-.1s-.1-.1-.1-.3zm1.8 3.7l-.1-.1h-.1v.2h.3l-.1-.1zm-.9.6h-.2c0 .1 0 .1.1.1-.1 0 .1 0 .1-.1 0 .1 0 0 0 0zm-1.3.4h-.1v.1s0 .1.1 0h.1v-.1c.1.1.1.1-.1 0zm-.9-4.2h-.2c-.1 0-.1.1-.1.2l.1.1c.1.1.1.1.2.1l.1-.1c.1-.1.1-.1.1-.2l-.2-.1zm7.2-.7c.1 0 .1 0 0 0 .1-.1.1-.1 0-.1v.1zm-2.6 3.9c-.1 0-.1.1 0 0 0 .1 0 .1.1.1l-.1-.1zm-2-.9h.1v-.1c0-.1-.1-.1-.2-.1v.1c.1 0 .1 0 .1.1zm1.3 3.3c0 .1 0 .1 0 0 0 .1 0 .1 0 0 .1.1.1.1 0 0zm-.1-6.3c0-.1 0-.1 0 0 0-.1 0-.1 0 0 0-.1-.1-.1 0 0-.1-.1-.1 0 0 0zm-1.5 1.5l.1-.1v-.1s0-.1-.1-.1-.1.1-.1.2 0 .1.1.1zm1.6-5.2c-.1 0-.1 0 0 0-.1.1 0 .1 0 0z"/><path class="st13" d="M542.6 276.1l-.1.1s0 .1.1.1h.1c.1 0 .1-.1.1-.1 0-.1-.1-.1-.2-.1zm.4-8.5c0-.1 0-.1 0 0-.1 0-.1 0 0 0zm-1.3 6.3l-.1-.1c-.1 0-.2.1-.1.3l.1.1h.2v-.1c-.1-.1-.1-.1-.1-.2zm-.7-3.3c.1-.1.2-.1.1-.2h-.1c-.2.2-.1.2 0 .2zm7 7.2c0-.1.1-.1 0 0 0-.1 0-.1 0 0 0-.1 0-.1 0 0zm-12.7-3.5c.1 0 .1-.1 0 0 0-.1 0-.1 0 0zm7.4 4c0 .1 0 .1 0 0v.1s0 .1.1 0c0-.1-.1-.1-.1-.1zm-.8-3.9v.1l.1.1h.2c.1 0 .1-.1.1-.2l-.1-.1c-.1-.1-.2-.1-.2-.1l-.1.2z"/><path transform="rotate(-22.205 540.759 273.045)" class="st8" d="M533.4 265.9H548v14.2h-14.6z"/><path class="st13" d="M538.1 272.9c-.2 0 0 0 0 0h-.2s.1.1.1 0 .1 0 .1 0zm4.8.9l-.1.1v.1c0 .1.1.1.1.1h.1c.1 0 .2-.2.1-.3v-.1s-.1 0-.2.1zm1.2.7h-.1v.1c.1 0 .1 0 .2-.1v-.2l-.1.2zm-3.2 5.9c-.1 0-.1 0 0 0 0 .1 0 .1 0 0 0 .1 0 0 0 0zm8.2-6c.1.1.1.1 0 0 .1 0 .1 0 0 0 .1-.1.1-.1 0 0zm-6.8-.5l-.1.1v.1l.1.1c0 .1.2.1.2.1s.1 0 .1-.1v-.2c0-.1-.1-.1-.1-.1h-.2zm-2.4 1.3v.1l.1.1h.1c.1 0 .1-.1.1-.1v-.2l-.1-.1h-.1l-.1.2zm-2.3 4c-.1 0-.1 0 0 0h-.1c0 .1 0 .1.1 0-.1.1-.1.1 0 0l-.1.1c.1 0 .1 0 .1-.1 0 .1 0 0 0 0zm6.3-.4h-.1v.1l.1-.1c-.1.1-.1.1 0 0-.1.1-.1.1 0 0 0 .1 0 0 0 0zm-.9-3.9h-.1v-.3.1-.1h.2l.1.1v.4l-.1.1c-.1 0-.1.1-.2 0h-.1v-.1l.2-.2zm.3-.4c-.1.1 0 .1 0 0 0 .1 0 .1 0 0zm1.2 2.1c0-.1 0-.1 0 0v-.1h-.2v.1h.2zm-3.5 1.1l.1.1h.1c0-.1-.1-.1-.1-.1h-.1zm4-3.7v.1h.1v-.2l-.1.1zm1.7-1.4h.1v-.1l-.1.1c.2 0 .2 0 0 0zm0-2.1c.2 0 .2 0 0 0 0-.1 0-.1 0 0zm-5.7 1.7v-.2l-.1-.1h-.2c-.1 0-.1.1-.1.1-.1 0-.1.1-.1.2v.1c.1.1.1.1.2.1.2 0 .3 0 .3-.2zm-3.7-.9s-.1-.1-.1 0h.1zm2.5-.3c-.1.1-.1.1 0 0l-.1.1s0 .1.1.1h.1c.1 0 .1-.1.1-.2h-.2c.1 0 .1 0 0 0zm.8.5l.1-.1h-.2v.2l.1-.1zm-3.3-2.4s.1 0 0 0c.1 0 .1-.1 0-.1v.1c0-.1 0-.1 0 0zm3 3.9c0-.1-.1-.1-.2-.1s-.1.1-.1.1v.2c0 .1.1.1.2.1s.1-.1.1-.1v-.2zm.6 2.2l-.1-.1c-.1-.1-.2 0-.2 0l-.1.1v.1s0 .1.1.1h.1c.1 0 .2-.1.2-.2zm-1.5.3v.1c0 .1.1.1.1.1h.1s.1 0 .2-.1v-.3l-.1-.1h-.1l-.2.3zm2.7-.7c.1 0 .1-.1 0-.2l-.1-.1h-.1c-.1 0-.1.1-.1.1v.2c0 .1.1.1.1.1.1 0 .2 0 .2-.1zm-7.6 2.2c-.1 0-.1 0 0 0-.1 0-.1 0 0 0-.1.1-.1.1 0 0 0 .1 0 0 0 0z"/><path class="st13" d="M541.9 273.8v.1s.1.1.2.1h.1l.1-.1v-.2c0-.1-.1-.1-.1-.1h-.2l-.1.2zm-1.9.7c-.1-.1-.2-.1-.3-.1v.2c0 .1.2.2.3.1l.1-.1-.1-.1zm7.1 2.3c0 .2 0 .2 0 0 .1.2.1 0 0 0zm-7.3.7l-.1-.1h-.1v.2c0 .1.1.1.2.1v-.2zm5.6 1.2c0-.1 0-.1 0 0l-.1-.1.1.1c0 .1 0 0 0 0zm-4.2-2l.2.1c.1 0 .2-.1.1-.3l-.1-.1h-.3c0 .1 0 .2.1.3zm2.8-1.1h.1v-.1c0-.1 0 0-.1.1zm-1.8.6v.2c0 .1.1.1.1.1.1 0 .1 0 .2-.1v-.2c.1-.1-.2-.1-.3 0zm-4.9 1.4s-.1 0 0 0c-.1.1-.1 0 0 0 0 .1 0 0 0 0zm6-1.6l.1.1v-.1l-.1-.1h-.1c.1-.2.1 0 .1.1zm-1.3-.5l-.1-.1h-.2v.2c0 .1.1.1.2.1v-.1l.1.1h.1l-.1-.2zm-2.3 3.4s0-.1 0 0c-.1-.1-.1-.1 0 0-.1-.1-.1 0 0 0-.1 0-.1 0 0 0-.1 0 0 0 0 0zm1.1-2.7c.2 0 .2 0 .2-.1v-.2l-.1-.1h-.1c-.1 0-.1.1-.1.1v.2l.1.1zm-1.9.9c0-.1-.1-.1-.2-.1s-.1.1-.1.1.1.1.2 0c0 .2 0 .1.1 0zm1.7-.4l.1-.2v-.1l-.1-.1h-.1c-.1 0-.1.1-.1.1v.3c0 .1.1.1.2 0zm-3.4 4.8c0-.1 0-.1 0 0 0-.1 0-.1 0 0-.1 0-.1 0 0 0-.1 0-.1 0 0 0-.1 0-.1 0 0 0zm2-5.3l-.1-.1h-.2v.1s0 .1.1.1l.2-.1zm3.7.6c-.1-.2-.2-.2-.2-.1v.1c0 .1.1.1.1.1.1.1.1.1.1-.1zm.2 1.3v-.1h-.2v.2h.1c-.1 0-.1 0 .1-.1zm-1.5-.8v-.1c0-.1-.1-.1-.1-.1h-.1s-.1.1 0 .2c.1.2.2.1.2 0zm-1 .3h-.2v.1s0 .1.1.1h.1v-.2zm-1.3.2c0-.1-.1-.2-.2-.2l-.1.1v.2s0 .1.1.1l.2-.2zm-.5-3.2h.1l.1-.1.1-.1v-.2l.1-.1v-.1l-.1-.1h-.1l-.1.1v.2h-.1c-.1.1-.1.2-.1.2 0 .2 0 .2.1.2zm3.8-1.8h-.2v.2c0 .1.1.1.1.1h.2c.1-.1.1-.1.1-.2-.1 0-.2-.1-.2-.1zm1.4-2.4c.1 0 .1-.2 0 0 0-.2 0-.2 0 0zm-5.7 5.8c-.1-.1-.1-.1-.2-.1s-.1.1-.1.1h.2c.1.1.1.1.1 0zm-.2-1c.1 0 .1-.1 0-.2l-.1-.1h-.1v.1l.2.2zm1.7-6.8c-.1-.1-.1 0-.1 0s0 .1.1 0c0 .1 0 .1 0 0zm.9 5.6c-.1.1-.1.1-.1.2l.1.1c.1.1.2 0 .2 0s.1-.1.1-.2v-.1s-.1-.1-.3 0zm-2.9 2.1v-.1c0-.1-.1-.1-.1-.1v.2h.1c-.1 0-.1 0 0 0zm3.2-1.5s-.1.1 0 .2.2.1.2 0l.1-.1c.1-.1.1-.1.1-.2l-.1-.1h-.2v.1s-.1 0-.1.1zm-2.5 1.4s.1 0 0 0h.1c0-.1-.1-.1-.2-.1s-.1.1-.1.2l.2-.1zm5.3-2.7h-.1l-.1.1v.1h.1v.1s0 .1.1.1h.1v-.3l-.1-.1c.1 0 .1 0 0 0zm2.6 1.7c-.1-.1-.1-.1 0 0-.1-.1-.1-.1 0 0h-.1.1c0 .1 0 .1 0 0 0 .1 0 .1 0 0zm-2.5-1.9v.1h.2v-.2h-.2zm-4.7 2.2v-.3h-.2c-.1 0-.1 0-.2.1 0 .1-.1.1 0 .2 0 .1.1.1.1.1s.1 0 .3-.1zm2.5-1.1l.1.1h.2l.1-.1v-.1h-.1c-.2-.1-.3 0-.3.1zm-6.1-.4c-.1 0-.1 0 0 0-.1.1-.1.1 0 0-.1.1-.1.1 0 .1v-.1zm7.3-2.2l-.1-.1s-.1 0-.1.1c-.1 0-.1.1-.1.2v.1s0 .1.1.1h.2v-.4zm-6.1.6c-.1 0-.1 0 0 0h-.1.1c0 .1 0 .1 0 0zm4.2-1.8l.1.1h.2c0-.1-.1-.1-.1-.1h-.2zm-1.8 1.4c0-.1-.1-.1-.1-.1h-.1v.1c0 .1.1.1.1.1-.2 0-.1 0 .1-.1zm-.6-.1l-.1-.1h-.1v.2h.1c.1 0 .1-.1.1-.1zm1.4-1.3l-.1-.1s-.1 0-.1.1v.1h.2c-.1 0-.1 0 0-.1zm-1.1 2.4v-.1c-.1-.1-.2-.1-.2-.1h-.1v.1s-.1.1 0 .2v.1h.2c.1 0 .1 0 .1-.1.1 0 0 0 0-.1zm-1.4.6c0-.1 0-.1 0 0h-.1.1zm1.8 7.2c.1 0 .1 0 0 0 0-.1 0-.1 0 0zm2.4-11.1c0 .1.1.2.2.1v-.1s0-.1-.1-.1l-.1.1zm-4 3.5l-.1-.1c-.1 0-.1 0-.1.1v.1s0 .1.1.1c0-.1.1-.1.1-.2zm3.2-6.3c-.1 0-.1.1 0 0-.1.1-.1.1 0 0-.1.1 0 .1 0 .1.1 0 0 0 0-.1zm-6.1 1.5v.1h.1l-.1-.1c.1.1.1 0 0 0zm3.6 4.5l.1-.1v-.1s-.1 0-.1.1v.1c-.1-.1 0 0 0 0zm2-2.9c-.1.1-.1.1 0 0v.2h.1v-.1c0-.1-.1-.1-.1-.1zm-.8.4s.1 0 .1-.1v-.1.1h-.2v.1h.1zm2 1.7l.1.1c.1.1.2 0 .3-.1v-.3l-.1-.1h-.1c-.1 0-.1.1-.2.2v.2zm-2.4.5v.1c0 .1.1.1.1.1h.2l.1-.1v-.1c0-.1-.1-.1-.1-.1-.1-.1-.2 0-.3.1zm3.4-2.2l-.1.1h.2v-.3l-.1.2c.1 0 .1 0 0 0zm.7 1v.2s.1 0 .1-.1c0 0 0-.1-.1-.1.1-.1 0-.1 0 0zm.5 1.1l.1.1h.1v-.1h-.1c0-.1 0-.1-.1 0zm-4.1 1.4v.2c0 .1.1.1.2.1l.1-.1c.1-.1.1-.1.1-.2l-.1-.1c-.1-.1-.1-.1-.2-.1l-.1.2zm-1.2-7.3c-.1-.1-.1 0-.1 0 0 .1 0 .1.1 0-.1.1-.1 0 0 0-.1 0-.1 0 0 0zm4 2.4c.1 0 .1 0 0 0 .1 0 .2 0 0 0 0-.1 0 0 0 0zm-.7 2v-.1h-.1c-.1 0-.1.1-.1.2h.1l.1-.1zm-3.1-1s-.1 0 0 0c-.1 0-.1.1 0 0-.1.1-.1.1 0 0 0 .1 0 .1 0 0zm1.6 1.5s0-.1 0 0l-.1-.1h-.2s-.1 0-.1.1.1.1.2.1c.2.1.3-.1.2-.1z"/><path class="st13" d="M542.8 272.2c.1.1.2.1.2 0v-.1l-.1-.1c-.1 0-.1 0-.1.2zm-8.5.2c0-.1-.1-.1 0 0-.1 0-.1 0 0 0zm6.3.9l-.1.2c0 .1.1.2.3.1l.1-.1v-.2h-.1c0-.1-.1-.1-.2 0zm-3.2.9c-.1-.1-.2-.1-.2-.1v.1c.2.1.2.1.2 0zm6.7-7.6s-.1 0 0 0c-.1.1-.1.1 0 0-.1.1 0 .1 0 0 0 .1 0 .1 0 0zm-2.5 13s0-.1 0 0c-.1-.1-.1-.1 0 0-.1-.1-.1 0 0 0zm3.4-7.7c.1 0 .1 0 0 0 .1-.1.2-.1.1-.1s-.1.1-.1.1zm-3.9 1.1h.1l.1-.1v-.2c0-.1-.1-.1-.2-.1l-.1.1c-.1.1-.1.2 0 .2l.1.1z"/><path transform="rotate(-29.191 539.62 272.05)" class="st8" d="M532.5 264.7h14.2v14.6h-14.2z"/><path class="st13" d="M539.5 269.5c0-.1 0-.1 0 0v-.1c-.1 0-.1 0 0 .1l-.1-.2s-.1.1 0 .1c0 .1 0 .1.1.1zm-.3 4.8h-.3c-.1 0-.1.1-.1.2v.1c.1.1.2.1.3.1v-.1c.2-.1.2-.2.1-.3zm-.6 1.3v-.1h-.1c0 .1 0 .1.1.2h.2l-.2-.1zm-6.3-2.4c0-.1 0-.1 0 0 0-.1-.1 0 0 0zm7 7.4c-.1 0-.1.1 0 0 0 .1 0 .1 0 0zm-.4-6.8h-.2l-.1.1c-.1.1-.1.2-.1.3 0 0 0 .1.1.1h.2c.1 0 .1-.1.1-.2.1-.1.1-.2 0-.3zm-1.5-2.2h-.1l-.1.1v.1c0 .1.1.1.1.1h.2v-.2l-.1-.1zm-4.3-1.9c0-.1 0-.1 0 0 0-.1 0-.1 0 0l-.1-.1c0 .1 0 .1.1.1 0 .1 0 .1 0 0zm1.1 6.2v-.1.1c-.1 0 0 0 0 0zm3.9-1.3v-.1h.3v.2l-.1.1h-.2l-.1.1h-.1l-.1-.1c0-.1-.1-.1-.1-.2v-.1h.1l.3.1zm.3.3s-.1 0 0 0zm-1.9 1.5c.1 0 .1 0 0 0h.1v-.2h-.1v.2zM535 273l-.1.1.1.1c.1 0 .1-.1.1-.1s0-.1-.1-.1zm4.3 3.4l-.1.1v.2h.2l-.1-.3zm3.6 1.3s0 .1 0 0c0 .1 0 .1 0 0 .1 0 .1 0 0 0zm-2.5-5.4h.2v-.3c0-.1-.1-.1-.1-.1 0-.1-.1-.1-.2-.1l-.1.1c-.1.1-.1.1-.1.2.2 0 .2.1.3.2zm.5-3.8s.1-.1 0-.1-.1 0 0 .1c-.1 0-.1 0 0 0zm.6 2.4c-.1 0-.1 0 0 0l-.2-.1-.1.1v.1c0 .1.1.1.2 0l.1-.1c0 .1 0 .1 0 0zm-.4.9c.1.1.1.1.2.1v-.2h-.2v.1zm2-3.5c.1.1.1.1.1 0s0-.1-.1 0c0-.1 0-.1 0 0zm-3.5 3.3c.1 0 .1-.2.1-.2 0-.1-.1-.1-.1-.1h-.2c-.1 0-.1.2-.1.2 0 .1.1.1.1.1h.2zm-2.1 1l.1-.1c.1-.1 0-.2 0-.2h-.2s-.1 0-.1.1v.1c0 .1.1.1.2.1zm-.5-1.5h-.2c-.1 0-.1.1-.1.1v.1s0 .1.1.1h.3v-.2l-.1-.1zm1.1 2.7c.1 0 .1.1.2 0v-.2c0-.1-.1-.1-.1-.1h-.2c-.1 0-.1.1-.1.2l.2.1zm-3.1-7.4s0-.1 0 0c0-.1 0-.1 0 0-.1-.1-.1-.1 0 0-.1 0 0 0 0 0zm4 6.9h-.1s-.1.1-.1.2v.1l.1.1h.2c.1 0 .1-.1.1-.1v-.2l-.2-.1zm-1.1-1.7c.1-.1.1-.2 0-.3h-.2c-.1.1-.1.2-.1.3l.1.1.2-.1zm-1.4 7.3s0-.1 0 0c0-.1-.1 0 0 0zm-1.4-7.2l.1-.1v-.1h-.2c-.1 0-.1.1 0 .2-.1.1 0 .1.1 0zm-.6 5.8c.1-.1.1-.1 0 0l.1-.1-.1.1zm1.5-4.4l-.1.1v.1c0 .1.1.1.3.1l.1-.1v-.1c0-.1 0-.1-.1-.2 0 0-.1 0-.2.1.1-.1 0-.1 0 0zm1.5 2.5v.1h.1l-.1-.1zm-.9-1.6h-.2c-.1 0-.1.1-.1.1 0 .1 0 .1.1.2h.2c.2-.1.2-.2 0-.3zm-2-4.7c0-.2 0-.2 0 0-.1-.2-.1-.2 0 0h-.1.1c-.1 0 0 0 0 0zm2.5 5.8c-.1.1-.1.1-.1.2h.1l.1-.1v-.1c0-.1 0-.1-.1 0zm.2-1.4l.1-.1v-.3h-.2c-.1 0-.1.1-.1.2h.1l-.1.1v.1h.2zm-3.6-1.9c.1-.1.1-.1 0 0 0-.1 0-.1 0 0 0-.1 0-.1 0 0zm2.8.8c0 .2.1.2.1.2h.2l.1-.1v-.1c0-.1-.1-.1-.1-.1h-.2l-.1.1zm-1.1-1.8c.1 0 .1-.1.1-.2s-.1-.1-.2-.1v.2c-.1 0 0 .1.1.1zm.6 1.5l.1.1h.1l.1-.1v-.1c0-.1-.1-.1-.1-.1h-.2v.1c-.1 0-.1 0 0 .1zm-5.1-2.7c-.1-.1-.1-.1 0 0-.1-.1-.1-.1 0 0-.1-.1-.1-.1 0 0-.1 0-.1 0 0 0zm5.4 1.3l.1-.1v-.1h-.1l-.1.1s0 .1.1.1zm-.2 3.9c.1-.1.1-.2.1-.2h-.1s-.1.1-.1.2h.1zm-1.2.2c.1 0 .1.1 0 0h.1v-.2h-.2v.1s0 .1.1.1zm.6-1.5h.1l.1-.1v-.1h-.2c-.2.1-.1.1 0 .2zm-.4-.9v-.2h-.1l-.1.1v.1h.2zm-.5-1.4c.1 0 .2-.1.2-.2l-.1-.1h-.2s-.1 0-.1.1l.2.2zm3.1-.8l.1.1.1.1.1.1h.2l.1.1h.1l.1-.1v-.1l-.1-.1h-.2v-.1c-.1-.1-.2-.1-.3-.1-.1-.1-.2.1-.2.1zm2.3 3.5v-.2h-.2c-.1 0-.1.1-.1.1v.2c.1.1.2.1.2 0 .1 0 .1-.1.1-.1zm2.7 1.1c0 .1.1.1 0 0 .1 0 .1 0 0 0zm-6.5-5c.1-.1.1-.2 0-.2 0 0-.1-.1-.1 0v.2h.1zm.9-.3c0 .1.1.1.2 0l.1-.1v-.1h-.1l-.2.2zm7 .9v-.1s-.1.1 0 .1zm-7.9-2.7h-.1.1c-.1.1 0 0 0 0zm2.5 4.3c-.1-.1-.2-.1-.2-.1l-.1.1c-.1.1 0 .2 0 .2s.1.1.2.1h.1v-.3zm-2.5-2.6h.1l.1-.1h-.2v.1c0-.1 0-.1 0 0zm1.9 3h-.2c-.1.1-.1.2 0 .2l.1.1c.1.1.2.1.2.1l.1-.1v-.2l-.2-.1c.1.1.1.1 0 0zm-1.7-2.4s0 .2 0 0l.1.1c.1 0 .1-.1.1-.2s-.1-.1-.2-.1v.2zm3.3 5v-.1h-.2v.1h-.2l-.1.1s0 .1.1.1h.3l.1-.2zm-1.3 2.7c0 .2 0 .2 0 0v-.1.1c-.1 0-.1 0 0 0-.1 0-.1 0 0 0 0 .2 0 .2 0 0zm1.5-2.7h-.1v.2h.2v-.2zm-2.7-4.4h.2v-.2c0-.1 0-.1-.1-.2h-.2c-.1 0-.1.1-.1.1.1.1.1.2.2.3zm1.4 2.4l-.1.1v.2h.1l.1-.1v-.1c0-.1-.1-.1-.1-.1zm-.3-6c0-.1 0-.1 0 0-.1-.1-.1-.1 0 0-.1-.1-.1 0-.1 0h.1zm3.1 6.9l.1-.1s0-.1-.1-.1c0-.1-.1-.1-.2-.1h-.2l-.1.1v.2h.5zm.8-2l-.1.2c.1 0 .1-.1.1-.2zm-1.5-1.7c.1 0 .1-.1.1-.2v-.2h-.1c-.1 0-.1.1-.1.1 0 .1 0 .1.1.3zm0-.6l.1-.1v-.1h-.2v.1c0 .1.1.1.1.1zm1.4 1.2l.1-.1s0-.1-.1-.1h-.1v.3c0-.1.1-.1.1-.1zm-2.5-.6c.2-.1.2-.2.2-.3v-.1h-.4v.2c0 .1.1.1.1.1 0 .1.1.1.1.1zm-.8-1.5c.1 0 .1 0 0 0v-.1.1zm-6.9 2.7c.1.1.1.1 0 0 .1 0 .1 0 0 0 .1 0 .1 0 0 0zm11.3 1.1c-.1 0-.2.1-.1.2h.1l.1-.1s0-.1-.1-.1zm-3.9-3.6l.1-.1c0-.1-.1-.1-.1-.1h-.1l-.2.1c.2 0 .2 0 .3.1zm6.6 2.5c0-.1 0-.1 0 0-.1-.1-.1-.1 0 0h-.1.1c-.1 0 0 0 0 0zm-2.2-6h-.1v.1l.1-.1c0 .1 0 0 0 0zm-4 4.2h.2s0-.1-.1-.1h-.1v.1zm3 1.5c0-.1 0-.1 0 0-.2 0-.2 0-.2.1v.1h.1c.2 0 .2-.2.1-.2zm-.5-.7s0 .1.2.1h.1-.1v-.2l-.2.1zm-1.4 2.2l-.1.1c0 .1.1.2.1.2h.2l.1-.1v-.1c0-.1-.1-.1-.2-.1h-.1zm-.8-2.3h-.1c-.1 0-.1.1-.1.1v.2l.1.1h.1c.1 0 .1-.1.1-.2.2-.1 0-.1-.1-.2zm2.7 3.2c-.1-.1-.1-.1-.2-.1v.2h.2v-.1zm-.9.7h-.2s0 .1.1.1l.1-.1c0 .1 0 .1 0 0zm-1.1.7l-.1.1v.1h.1v-.1c.1 0 .1-.1 0-.1zm-1.8-4h-.2c-.1 0-.1.2-.1.2l.1.1h.2l.1-.1c.1-.1 0-.1 0-.2h-.1zm7-2.1c.1 0 .1 0 0 0v-.1.1zm-1.9 4.3c0 .1 0 .1 0 0 0 .1.1.1 0 0 .1 0 0 0 0 0zm-2-.4c.1 0 .1 0 .1-.1v-.1c0-.1-.1-.1-.2-.1v.2l.1.1zm1.9 3c0 .1 0 .1 0 0 0 .1 0 .1 0 0 0 .1.1 0 0 0zm-1.3-6.2s0-.1 0 0c0-.1-.1-.1 0 0-.1-.1-.1 0 0 0-.1 0-.1 0 0 0zm-1.4 1.8s.2 0 0 0l.1-.1v-.1l-.1-.1c-.1 0-.1.1-.1.2h.1c-.1.1 0 .1 0 .1z"/><path class="st13" d="M540.7 274l-.1.1s0 .1.1.1h.1l.1-.1c0-.1-.1-.1-.2-.1zm-1.2-8.4c0-.1 0-.1 0 0-.1 0-.1 0 0 0zm-.1 6.4h-.2c-.1 0-.2.2-.1.3l.1.1h.1l.1-.1v-.1c.1-.1.1-.1 0-.2zm-1.3-3.1c.1-.1.1-.2.1-.3h-.1c-.2.3-.2.3 0 .3zm8.2 5.7c.1 0 .1 0 0 0 0-.1 0-.1 0 0zm-13.1-.8s.1 0 0 0c.1-.1.1-.1 0 0 0-.1 0-.1 0 0 0-.1 0 0 0 0zm8 2.4s0 .1 0 0c0 .1 0 .1 0 0l.1.1c.1-.1-.1-.1-.1-.1zm-1.4-3.6v.1l.1.1h.2c.1 0 .1-.1.1-.2l-.1-.1c-.1-.1-.2 0-.2 0l-.1.1z"/></g><path class="st11" d="M546.4 272.8c-.4.1-1.4-1.3-3-2.4-1.4-1.1-2.5-1.8-2-2.3.6-.5 2.6-.3 4 1.3 1.5 1.5 1.5 3.4 1 3.4zm1.4 1.5c-.1 0-.2-.2-.4-.5-.1-.2-.1-.6.2-.7.3-.1.6.2.6.6-.1.3-.4.6-.4.6z"/></g></g><linearGradient id="SVGID_3_" gradientUnits="userSpaceOnUse" x1="222.823" y1="330.942" x2="445.33" y2="330.942" gradientTransform="rotate(40.226 421.627 389.732)"><stop offset="0" stop-color="#ffc171"/><stop offset="1" stop-color="#e23d66"/></linearGradient><path d="M418.7 429.8c-85.4-72.2-96.1-200-23.8-285.4" opacity=".72" fill="none" stroke="url(#SVGID_3_)" stroke-width="40" stroke-miterlimit="10"/><linearGradient id="SVGID_4_" gradientUnits="userSpaceOnUse" x1="92.183" y1="388.549" x2="470.568" y2="388.549" gradientTransform="rotate(40.226 421.627 389.732)"><stop offset="0" stop-color="#ff7a28"/><stop offset=".206" stop-color="#f86b37"/><stop offset=".72" stop-color="#e84a59"/><stop offset="1" stop-color="#e23d66"/></linearGradient><path d="M345.8 551.6c-130.4-139.1-146-352.3-35.9-509.1" opacity=".72" fill="none" stroke="url(#SVGID_4_)" stroke-width="40" stroke-miterlimit="10"/><circle class="st17" cx="219.5" cy="298.6" r="10.8"/><circle class="st17" cx="368.9" cy="298.6" r="10.8"/><circle class="st17" cx="676" cy="298.6" r="10.8"/><path class="st17" d="M114.2 652.7l1.2-353m262.8-1.2h85.2m0 354.2l-1.2-355.1m224.6-.5l107.9-.9m.6 352.3l-.9-353.4m-679 6l91.5-1.7"/><text transform="translate(51.078 686.666)" class="st18 st19 st20">Psychology</text><text transform="translate(369.078 686.666)" class="st18 st19 st20">Conversational UI</text><text transform="translate(675.078 686.666)" class="st18 st19 st20">Artificial Intelligence</text></svg>