<svg viewBox="0 0 642 1186" xmlns="http://www.w3.org/2000/svg" xmlns:xlink="http://www.w3.org/1999/xlink"><defs><path d="M3.7 0h19.6c1.7 0 3.1 1.4 3.1 3.1v7c0 1.7-1.4 3.1-3.1 3.1H3.7C2 13.2.6 11.8.6 10.1v-7C.5 1.4 1.9 0 3.7 0z" id="path-1"/><path id="path-3" d="M0 .7h440.4v51.7H0z"/><path d="M.6.3V5c.9-.4 1.6-1.3 1.6-2.3 0-1-.7-2-1.6-2.4" id="path-5"/><path id="path-7" d="M0 .7h440.4v51.7H0z"/><path d="M2.5.4h18c.9 0 1.6.7 1.6 1.6v5.5c0 .9-.7 1.6-1.6 1.6h-18C1.6 9.1.9 8.4.9 7.5V2c0-.9.7-1.6 1.6-1.6z" id="path-9"/><path id="path-11" d="M0 .7h440.4v51.7H0z"/><path d="M12.3 11.4c.1-.1.1-.2.1-.3 0-.1 0-.2-.1-.3-1.5-1.3-3.7-1.3-5.2 0-.1.1-.1.2-.1.3 0 .1 0 .2.1.3l2.3 2.4c.1.1.2.1.3.1.1 0 .2 0 .3-.1l2.3-2.4zM9.7 8.2c1.4 0 2.8.5 3.9 1.5.1.1.4.1.5 0l1.4-1.4c.1-.1.1-.2.1-.3 0-.1 0-.2-.1-.3-3.2-3-8.2-3-11.5 0-.1.1-.1.2-.1.3 0 .1 0 .2.1.3l1.4 1.4c.1.1.4.1.5 0 1-1 2.3-1.5 3.8-1.5zm0-4.5c2.6 0 5.1 1 7 2.8.1.1.4.1.5 0l1.4-1.4c.1-.1.1-.2.1-.3 0-.1 0-.2-.1-.3C13.7-.2 5.8-.2.9 4.5c-.1.1-.1.2-.1.3 0 .1 0 .2.1.3l1.4 1.4c.1.1.4.1.5 0 1.8-1.8 4.3-2.8 6.9-2.8z" id="path-13"/><path id="path-15" d="M0 .7h440.4v51.7H0z"/><path d="M18.4.4h1.2c.6 0 1.2.5 1.2 1.2v10.2c0 .6-.5 1.2-1.2 1.2h-1.2c-.6 0-1.2-.5-1.2-1.2V1.6c.1-.6.6-1.2 1.2-1.2zM13 3.2h1.2c.6 0 1.2.5 1.2 1.2v7.4c0 .6-.5 1.2-1.2 1.2H13c-.6 0-1.2-.5-1.2-1.2V4.4c0-.7.5-1.2 1.2-1.2zM7.5 5.9h1.2c.6 0 1.2.5 1.2 1.2v4.7c0 .6-.5 1.2-1.2 1.2H7.5c-.6 0-1.2-.5-1.2-1.2V7.1c0-.7.5-1.2 1.2-1.2zM2 8.3h1.2c.6 0 1.2.5 1.2 1.2v2.3c0 .6-.5 1.2-1.2 1.2H2c-.6 0-1.2-.5-1.2-1.2V9.5c0-.7.6-1.2 1.2-1.2z" id="path-17"/><path id="path-19" d="M0 .7h440.4v51.7H0z"/><path d="M1.7.7h18c.9 0 1.6.7 1.6 1.6v5.5c0 .9-.7 1.6-1.6 1.6h-18C.8 9.4.1 8.7.1 7.8V2.3C.1 1.4.8.7 1.7.7z" id="path-21"/><path id="path-23" d="M.2 0h440.4v51.7H.2z"/><path d="M11.5 10.8c.1-.1.1-.2.1-.3 0-.1 0-.2-.1-.3-1.5-1.3-3.7-1.3-5.2 0-.1.1-.1.2-.1.3 0 .1 0 .2.1.3l2.3 2.4c.1.1.2.1.3.1.1 0 .2 0 .3-.1l2.3-2.4zM8.9 7.5c1.4 0 2.8.5 3.9 1.5.1.1.4.1.5 0l1.4-1.4c.1-.1.1-.2.1-.3 0-.1 0-.2-.1-.3-3.2-3-8.2-3-11.5 0-.1.1-.1.2-.1.3 0 .1 0 .2.1.3L4.6 9c.1.1.4.1.5 0 1-1 2.3-1.5 3.8-1.5zm0-4.5c2.6 0 5.1 1 7 2.8.1.1.4.1.5 0l1.4-1.4c.1-.1.1-.2.1-.3 0-.1 0-.2-.1-.3C12.9-.9 5-.9.1 3.8c-.1.1-.1.2-.1.3 0 .1 0 .2.1.3l1.4 1.4c.1.1.4.1.5 0C3.8 4 6.3 3 8.9 3z" id="path-25"/><path id="path-27" d="M.2 0h440.4v51.7H.2z"/><path d="M17.7.7h1.2c.6 0 1.2.5 1.2 1.2v10.2c0 .6-.5 1.2-1.2 1.2h-1.2c-.6 0-1.2-.5-1.2-1.2V1.9c0-.6.5-1.2 1.2-1.2zm-5.5 2.8h1.2c.6 0 1.2.5 1.2 1.2v7.4c0 .6-.5 1.2-1.2 1.2h-1.2c-.6 0-1.2-.5-1.2-1.2V4.7c0-.7.5-1.2 1.2-1.2zM6.7 6.2h1.2c.6 0 1.2.5 1.2 1.2v4.7c0 .6-.5 1.2-1.2 1.2H6.7c-.6 0-1.2-.5-1.2-1.2V7.4c0-.6.5-1.2 1.2-1.2zM1.2 8.6h1.2c.6 0 1.2.5 1.2 1.2v2.3c0 .6-.5 1.2-1.2 1.2H1.2c-.6 0-1.2-.5-1.2-1.2V9.8c0-.7.6-1.2 1.2-1.2z" id="path-29"/><path id="path-31" d="M.2 0h440.4v51.7H.2z"/><linearGradient x1="49.994%" y1="100.011%" x2="49.994%" y2="-.013%" id="linearGradient-33"><stop stop-color="gray" stop-opacity=".25" offset="0%"/><stop stop-color="gray" stop-opacity=".12" offset="54%"/><stop stop-color="gray" stop-opacity=".1" offset="100%"/></linearGradient><linearGradient x1="49.972%" y1="99.968%" x2="49.972%" y2=".013%" id="linearGradient-34"><stop stop-color="gray" stop-opacity=".25" offset="0%"/><stop stop-color="gray" stop-opacity=".12" offset="54%"/><stop stop-color="gray" stop-opacity=".1" offset="100%"/></linearGradient><linearGradient x1="49.931%" y1="99.89%" x2="49.931%" y2="-.133%" id="linearGradient-35"><stop stop-color="gray" stop-opacity=".25" offset="0%"/><stop stop-color="gray" stop-opacity=".12" offset="54%"/><stop stop-color="gray" stop-opacity=".1" offset="100%"/></linearGradient><linearGradient x1="49.955%" y1="99.969%" x2="49.955%" y2="-.03%" id="linearGradient-36"><stop stop-color="gray" stop-opacity=".25" offset="0%"/><stop stop-color="gray" stop-opacity=".12" offset="54%"/><stop stop-color="gray" stop-opacity=".1" offset="100%"/></linearGradient><linearGradient x1="49.93%" y1="99.89%" x2="49.93%" y2="-.133%" id="linearGradient-37"><stop stop-color="gray" stop-opacity=".25" offset="0%"/><stop stop-color="gray" stop-opacity=".12" offset="54%"/><stop stop-color="gray" stop-opacity=".1" offset="100%"/></linearGradient><linearGradient x1="49.971%" y1="99.967%" x2="49.971%" y2="-.014%" id="linearGradient-38"><stop stop-color="gray" stop-opacity=".25" offset="0%"/><stop stop-color="gray" stop-opacity=".12" offset="54%"/><stop stop-color="gray" stop-opacity=".1" offset="100%"/></linearGradient><linearGradient x1="49.929%" y1="99.89%" x2="49.929%" y2="-.133%" id="linearGradient-39"><stop stop-color="gray" stop-opacity=".25" offset="0%"/><stop stop-color="gray" stop-opacity=".12" offset="54%"/><stop stop-color="gray" stop-opacity=".1" offset="100%"/></linearGradient><linearGradient x1="49.915%" y1="100.078%" x2="49.915%" y2=".102%" id="linearGradient-40"><stop stop-color="gray" stop-opacity=".25" offset="0%"/><stop stop-color="gray" stop-opacity=".12" offset="54%"/><stop stop-color="gray" stop-opacity=".1" offset="100%"/></linearGradient><linearGradient x1="49.923%" y1="100.02%" x2="49.923%" y2=".016%" id="linearGradient-41"><stop stop-color="gray" stop-opacity=".25" offset="0%"/><stop stop-color="gray" stop-opacity=".12" offset="54%"/><stop stop-color="gray" stop-opacity=".1" offset="100%"/></linearGradient><linearGradient x1="50.008%" y1="99.997%" x2="50.008%" y2="-.007%" id="linearGradient-42"><stop stop-color="gray" stop-opacity=".25" offset="0%"/><stop stop-color="gray" stop-opacity=".12" offset="54%"/><stop stop-color="gray" stop-opacity=".1" offset="100%"/></linearGradient><style>@-webkit-keyframes slideInDownsmall-balls5{50%{opacity:1;-webkit-transform:translate3d(0,0,0);transform:translate3d(0,0,0)}}@keyframes slideInDownsmall-balls5{50%{opacity:1;-webkit-transform:translate3d(0,0,0);transform:translate3d(0,0,0)}}@-webkit-keyframes fadeIn{50%{opacity:1}}@keyframes fadeIn{50%{opacity:1}}@-webkit-keyframes zoomIn{50%{opacity:1}}@keyframes zoomIn{50%{opacity:1}}@-webkit-keyframes slideInDown{50%{-webkit-transform:translate3d(0,0,0);transform:translate3d(0,0,0)}}@keyframes slideInDown{50%{-webkit-transform:translate3d(0,0,0);transform:translate3d(0,0,0)}}@-webkit-keyframes slideInLeft{50%{-webkit-transform:translate3d(0,0,0);transform:translate3d(0,0,0)}}@keyframes slideInLeft{50%{-webkit-transform:translate3d(0,0,0);transform:translate3d(0,0,0)}}</style></defs><g id="Page-1" stroke="none" stroke-width="1" fill="none" fill-rule="evenodd"><g id="hdiw_iphonex1"><path id="Rectangle-path" d="M.1 48.1h640.4v1137.3H.1z"/><g id="Calque_2" transform="translate(0 44)" fill="#DBDBDB" fill-rule="nonzero"><path id="Rectangle-path" d="M0 .4h641.7v1135.4H0z"/></g><path id="Rectangle-path" fill="#25DDDF" fill-rule="nonzero" d="M.9 43.3H641v242.3H.9z"/><g id="Clipped" transform="translate(377 55)"><mask id="mask-2" fill="#fff"><use xlink:href="#path-1"/></mask><g mask="url(#mask-2)"><g transform="translate(-394 -21)"><mask id="mask-4" fill="#fff"><use xlink:href="#path-3"/></mask><path d="M397.7 21h19.6c1.7 0 3.1 1.4 3.1 3.1v7c0 1.7-1.4 3.1-3.1 3.1h-19.6c-1.7 0-3.1-1.4-3.1-3.1v-7c-.1-1.7 1.3-3.1 3.1-3.1z" id="Shape" stroke="#FFF" stroke-width="2" fill="none" opacity=".35" mask="url(#mask-4)"/></g></g></g><g id="Clipped" transform="translate(404 59)"><mask id="mask-6" fill="#fff"><use xlink:href="#path-5"/></mask><g mask="url(#mask-6)"><g transform="translate(-421 -25)"><mask id="mask-8" fill="#fff"><use xlink:href="#path-7"/></mask><path id="Rectangle-path" stroke="none" fill="#FFF" fill-rule="nonzero" opacity=".4" mask="url(#mask-8)" d="M415.7 19.5H429v16.4h-13.3z"/></g></g></g><g id="Clipped" transform="translate(379 57)"><mask id="mask-10" fill="#fff"><use xlink:href="#path-9"/></mask><g mask="url(#mask-10)"><g transform="translate(-396 -23)"><mask id="mask-12" fill="#fff"><use xlink:href="#path-11"/></mask><path id="Rectangle-path" stroke="none" fill="#FFF" fill-rule="nonzero" mask="url(#mask-12)" d="M391 17.5h32.9v20.4H391z"/></g></g></g><g id="Clipped" transform="translate(353 54)"><mask id="mask-14" fill="#fff"><use xlink:href="#path-13"/></mask><g mask="url(#mask-14)"><g transform="translate(-370 -20)"><mask id="mask-16" fill="#fff"><use xlink:href="#path-15"/></mask><path id="Rectangle-path" stroke="none" fill="#FFF" fill-rule="nonzero" mask="url(#mask-16)" d="M364.8 15.2h29.7v24.6h-29.7z"/></g></g></g><g id="Clipped" transform="translate(327 55)"><mask id="mask-18" fill="#fff"><use xlink:href="#path-17"/></mask><g mask="url(#mask-18)"><g transform="translate(-344 -21)"><mask id="mask-20" fill="#fff"><use xlink:href="#path-19"/></mask><path id="Rectangle-path" stroke="none" fill="#FFF" fill-rule="nonzero" mask="url(#mask-20)" d="M339 15.6h31.7v24.3H339z"/></g></g></g><g id="Clipped" transform="translate(573 68)"><mask id="mask-22" fill="#fff"><use xlink:href="#path-21"/></mask><g mask="url(#mask-22)"><g transform="translate(-397 -22)"><mask id="mask-24" fill="#fff"><use xlink:href="#path-23"/></mask><path id="Rectangle-path" stroke="none" fill="#FFF" fill-rule="nonzero" mask="url(#mask-24)" d="M391.2 16.8h32.9v20.4h-32.9z"/></g></g></g><g id="Clipped" transform="translate(547 66)"><mask id="mask-26" fill="#fff"><use xlink:href="#path-25"/></mask><g mask="url(#mask-26)"><g transform="translate(-371 -20)"><mask id="mask-28" fill="#fff"><use xlink:href="#path-27"/></mask><path id="Rectangle-path" stroke="none" fill="#FFF" fill-rule="nonzero" mask="url(#mask-28)" d="M365 14.5h29.7v24.6H365z"/></g></g></g><g id="Clipped" transform="translate(521 66)"><mask id="mask-30" fill="#fff"><use xlink:href="#path-29"/></mask><g mask="url(#mask-30)"><g transform="translate(-345 -20)"><mask id="mask-32" fill="#fff"><use xlink:href="#path-31"/></mask><path id="Rectangle-path" stroke="none" fill="#FFF" fill-rule="nonzero" mask="url(#mask-32)" d="M339.2 14.9h31.7v24.3h-31.7z"/></g></g></g><path d="M465.6 101.1H177c-22.3 0-40.6-18.3-40.6-40.6v-19C136.4 19.2 154.7.9 177 .9h288.6c22.3 0 40.6 18.3 40.6 40.6v19.1c0 22.3-18.3 40.5-40.6 40.5z" id="Shape" fill="#FFF" fill-rule="nonzero"/><g id="Group" transform="translate(63 65)" fill="#FFF" fill-rule="nonzero"><path d="M9.7 7.7c0 4.6-1.7 7.2-4.7 7.2-2.7 0-4.5-2.5-4.5-7C.5 3.3 2.5.8 5.2.8c2.9 0 4.5 2.5 4.5 6.9zm-7.4.2c0 3.5 1.1 5.6 2.8 5.6 1.9 0 2.8-2.2 2.8-5.7 0-3.4-.9-5.6-2.8-5.6-1.6 0-2.8 2-2.8 5.7zm10.2 5.4c.4 0 .9 0 1.5-.1 1.1-.1 2.1-.6 2.9-1.3.9-.8 1.6-2 1.8-3.6h-.1c-.8.9-1.8 1.5-3.2 1.5-2.5 0-4-1.8-4-4.2C11.4 3 13.3.7 16.1.7c2.8 0 4.5 2.3 4.5 5.8 0 3-1 5.1-2.4 6.4-1 1-2.5 1.7-4 1.8-.7.1-1.3.1-1.7.1v-1.5zm.6-7.8c0 1.7 1 2.9 2.6 2.9 1.2 0 2.2-.6 2.7-1.4.1-.2.2-.4.2-.7 0-2.3-.9-4.1-2.8-4.1-1.5 0-2.7 1.4-2.7 3.3zm9.2.7c0-.8.5-1.3 1.3-1.3s1.2.5 1.2 1.3c0 .7-.5 1.3-1.3 1.3-.7 0-1.2-.6-1.2-1.3zm0 7.4c0-.8.5-1.3 1.3-1.3s1.2.5 1.2 1.3c0 .7-.5 1.3-1.3 1.3-.7 0-1.2-.6-1.2-1.3zm9.9 1v-3.7h-6.3V9.7L32 1h2v8.5h1.9v1.4H34v3.7h-1.8zm0-5.1V4.9c0-.7 0-1.4.1-2.1h-.1c-.4.8-.8 1.4-1.1 2l-3.3 4.6h4.4v.1zm9.1-6.8L38.9 4l-.4-1.4 3-1.6h1.6v13.6h-1.8V2.7z" id="Shape"/></g><g id="Group" transform="translate(124 400)"><path id="Shape" fill="#25DDDF" fill-rule="nonzero" d="M124.7 235v-46.9h-22V235H95l18.7 22.4 18.4-22.4z"/><path d="M65.9.3H1.6c-.6 0-1 .4-1 1s.4 1 1 1h63.7c.1-.6.2-1.3.6-2zM189 .3H95.5c.2.7.3 1.4.1 2.1H189c.6 0 1-.4 1-1 0-.7-.4-1.1-1-1.1z" transform="translate(33 156)" fill="#FFF" fill-rule="nonzero" id="Shape" stroke="#FFF"/><path d="M206.4 176.5H17.7c-.6 0-1-.4-1-1s.4-1 1-1h188.6c.6 0 1 .4 1 1s-.3 1-.9 1zm-16 19.3H1.2c-.6 0-1-.4-1-1s.4-1 1-1h189.2c.6 0 1 .4 1 1 0 .4-.4 1-1 1z" id="Shape" stroke="#FFF" fill="#FFF" fill-rule="nonzero"/><path d="M13.4 206.4c-.2 0-.6 0-.6-.2-.4-.4-.4-1 0-1.5l59.8-59.8c.4-.4 1-.4 1.5 0s.4 1 0 1.5l-59.8 59.8c-.2.2-.4.2-.9.2zm85-52.7l-50.9 50.9c-.4.4-.4 1 0 1.5 0 .2.4.2.6.2.2 0 .4 0 .8-.2l50.5-50.5c-.5-.5-.8-1.1-1-1.9z" id="Shape" stroke="#FFF" fill="#FFF" fill-rule="nonzero"/><path d="M41.2 20.6L1.1 60.7c-.4.4-.4 1 0 1.5 0 .2.4.2.6.2.2 0 .4 0 .6-.2L43 21.6c-.8-.1-1.4-.5-1.8-1zM62.3 1c-.4-.4-1-.4-1.5 0L46.7 15.1c.5.5.8 1.2.9 1.9L62.3 2.4c.4-.4.4-1 0-1.4z" transform="translate(81 144)" fill="#FFF" fill-rule="nonzero" id="Shape" stroke="#FFF"/><path d="M117.1 206.4c-.2 0-.6 0-.6-.2-.4-.4-.4-1 0-1.5l59.8-59.8c.4-.4 1-.4 1.5 0s.4 1 0 1.5L118 206.1c-.2.3-.7.3-.9.3zm34.7 0c-.2 0-.6 0-.6-.2-.4-.4-.4-1 0-1.5l59.8-59.8c.4-.4 1-.4 1.5 0 .4.4.4 1 0 1.5l-59.8 59.8c-.5.2-.7.2-.9.2z" id="Shape" stroke="#FFF" fill="#FFF" fill-rule="nonzero"/><g transform="translate(27)" fill="#FECBA7" fill-rule="nonzero"><path id="Rectangle-path" d="M1.3 1.2h170.6v16.2H1.3z"/><path d="M171.9 18.7H1.3c-.6 0-1-.4-1-1V1.5c0-.6.4-1 1-1h170.6c.6 0 1 .4 1 1v16.2c0 .4-.6 1-1 1zM2.4 16.6h168.5V2.5H2.4v14.1z" id="Shape"/></g><path d="M127.1 166.3H99.7c-.6 0-1-.4-1-1v-49.4C36 73.8 27.3 19.8 27.3 19.2c0-.2 0-.6.2-.8.2-.2.4-.4.8-.4h170.6c.2 0 .6.2.8.4.2.2.2.6.2.8 0 .6-8.7 54.6-71.8 96.9v49.2c0 .6-.4 1-1 1z" id="Shape" stroke="#FFF" stroke-width="4"/><path d="M140.4 93.3c-.2 0-.6-.2-.8-.4-.4-.4-.4-1 0-1.5C170.3 62.6 178.8 37 179 36.8c.2-.6.8-.8 1.3-.6.6.2.8.8.6 1.3 0 .2-8.9 26.1-39.8 55.4-.1.2-.5.4-.7.4z" id="Shape" stroke="#FFF" fill="#FFF" fill-rule="nonzero"/><g id="small-balls" transform="translate(62 10)" fill="#FFF"><ellipse cx="11.5" cy="37" rx="11.5" ry="11" style="-webkit-animation:slideInDown 2s .3s infinite ease-in-out;animation-name:slideInDown"/><ellipse cx="50.5" cy="82" rx="11.5" ry="11" style="-webkit-animation:slideInDownsmall-balls5 3s 1.3s infinite ease-in-out;animation-name:slideInDownsmall-balls5"/><ellipse cx="19.5" cy="71" rx="11.5" ry="11" style="-webkit-animation:slideInDown 4s 2.3s infinite ease-in-out;animation-name:slideInDown"/><ellipse cx="70.5" cy="44" rx="11.5" ry="11" style="-webkit-animation:slideInDown 5s 3.3s infinite ease-in-out;animation-name:slideInDown"/><ellipse cx="54.5" cy="11" rx="11.5" ry="11" style="-webkit-animation:slideInDownsmall-balls5 6s 3s infinite ease-in-out;animation-name:slideInDownsmall-balls5"/></g></g><path d="M504.2 328.3l-170.5 55.6 26.1 80.3 24.3-7.9c.1 3.5-.1 14.6-5.7 17.4 0 0 11.9.4 19.3-21.8l132.6-43.3-26.1-80.3z" id="Shape" fill="url(#linearGradient-33)" fill-rule="nonzero"/><path d="M500.5 332.3L339 385l24.7 76 23-7.5c.1 3.4-.1 13.9-5.4 16.5 0 0 11.3.4 18.2-20.7l125.6-41-24.6-76z" id="Shape" fill="#25DDDF" fill-rule="nonzero"/><path d="M355.9 391.7l16.1 49.4" id="Shape" stroke="#FFF" stroke-linecap="round" stroke-linejoin="round" stroke-dasharray="0,4.07"/><path d="M373.6 447.8l133.9-43.7" id="Shape" stroke="#FFF" stroke-linecap="round" stroke-linejoin="round"/><path d="M376.6 431.1l113-36.9M372 416.8l113-36.9m-117.7 22.6l113-36.8m-117.6 22.6l113-36.9" id="Shape" stroke="#FFF" opacity=".3" stroke-linecap="round" stroke-linejoin="round"/><path d="M399.7 425c0-.2-.1-.4 0-.7.1-1.9 1.5-3.4 3.4-3.7l.5-.1c3.2-.8 6.4-2 8.6-4.4 3.4-3.9 3-9.9 2.4-14.7-.2-1.5 0-3.1.6-4.5 2.1-4.6 6.7-3.4 10.6-3.6 6.7-.5 12.3-5.4 13.6-12 .5-2.8.2-5.6.6-8.4.6-3.8 2.4-7.3 5.3-9.9 2.9-2.6 6.8-4.1 10.4-5.4 2.9-1 6-1.5 9.1-1.5h.2c5.3.2 10.1 3.6 11.9 8.6.8 2.1 1.5 4.3 2.2 6.5 4 12.4 7.7 23.8 12.4 38.1-5.7 1.8-19.1 6.2-20.9 6.8l-19.9 6.5c-13.3 4.3-26 8.9-40.8 13.3-3.1.9 0 0-6.6 2.2-1.4-3.5-1.5-3.7-3.6-13.1z" id="Shape" fill="#FFF" fill-rule="nonzero" opacity=".2"/><g id="small-potential-fix-13" transform="translate(111 1039)" fill-rule="nonzero"><path id="Rectangle-path" fill="url(#linearGradient-34)" d="M.2.1h111v106.7H.2z"/><path id="Rectangle-path" fill="#F5F5F5" d="M1.9 2.7h107.5v101.9H1.9z"/><g id="Group" opacity=".5" transform="translate(32 15)" fill="url(#linearGradient-35)"><path d="M33.2 5.6V.4h-19v5.2H.9v25.7h45.6V5.6H33.2zM16.5 2.3h14.3v3.3H16.5V2.3z" id="Shape"/></g><path id="Rectangle-path" fill="#25DDDF" opacity=".6" d="M34.8 21.4h41.8v23.5H34.8z"/><path id="Shape" fill="#25DDDF" opacity=".6" d="M47 16.7v6.1h2.1v-4.4h13.1v4.4h2.2v-6.1z"/><g id="Group" opacity=".6" transform="translate(37 63)" fill="#25DDDF"><path id="Rectangle-path" d="M.2.2h38.7v5.2H.2z"/></g><path id="Rectangle-path" fill="#BDBDBD" d="M22.6 72.8h66.2V78H22.6z"/></g><g id="small-potential-fix-23" transform="translate(250 1036)" fill-rule="nonzero"><path id="Rectangle-path" fill="url(#linearGradient-36)" d="M.5.1h110.6v109.7H.5z"/><path id="Rectangle-path" fill="#F5F5F5" d="M2.2 5.7h107.5v101.9H2.2z"/><g id="Group" opacity=".5" transform="translate(33 18)" fill="url(#linearGradient-37)"><path d="M32.5 5.6V.4h-19v5.2H.2v25.7h45.6V5.6H32.5zM15.8 2.3h14.3v3.3H15.8V2.3z" id="Shape"/></g><path id="Rectangle-path" fill="#25DDDF" opacity=".6" d="M35.1 24.4h41.8v23.5H35.1z"/><path id="Shape" fill="#25DDDF" d="M47.3 19.7v6.1h2.1v-4.4h13.1v4.4h2.2v-6.1z"/><g id="Group" opacity=".6" transform="translate(37 66)" fill="#25DDDF"><path id="Rectangle-path" d="M.5.2h38.7v5.2H.5z"/></g><path id="Rectangle-path" fill="#BDBDBD" d="M22.9 75.8h66.2V81H22.9z"/></g><g id="small-potential-fix-33" transform="translate(389 1040)" fill-rule="nonzero"><path id="Rectangle-path" fill="url(#linearGradient-38)" d="M.8 0h111v105.8H.8z"/><path id="Rectangle-path" fill="#F5F5F5" d="M2.5 1.7H110v101.9H2.5z"/><g id="Group" opacity=".5" transform="translate(33 14)" fill="url(#linearGradient-39)"><path d="M32.8 5.6V.4h-19v5.2H.5v25.7h45.6V5.6H32.8zM16.1 2.3h14.3v3.3H16.1V2.3z" id="Shape"/></g><path id="Rectangle-path" fill="#25DDDF" opacity=".6" d="M35.4 20.4h41.8v23.5H35.4z"/><path id="Shape" fill="#25DDDF" opacity=".6" d="M47.6 15.7v6.1h2.1v-4.4h13.1v4.4H65v-6.1z"/><g id="Group" opacity=".6" transform="translate(37 62)" fill="#25DDDF"><path id="Rectangle-path" d="M.8.2h38.7v5.2H.8z"/></g><path id="Rectangle-path" fill="#BDBDBD" d="M23.2 71.8h66.2V77H23.2z"/></g><g transform="translate(185 811)" fill-rule="nonzero" style="-webkit-animation:fadeIn 3s infinite ease-in-out;animation-name:fadeIn"><path id="Rectangle-path" fill="#FFF" d="M24.3 5.1h209v249.1h-209z"/><path id="Rectangle-path" fill="#25DDDF" d="M103.7 45.7h50v28.1h-50z"/><path id="Rectangle-path" fill="#E0E0E0" d="M55.5 114.3h147v6.3h-147zm0 41.2h147v6.3h-147zm0 11h147v6.3h-147zm0-21.9h62v6.3h-62z"/><path id="Rectangle-path" fill="#3AD29F" opacity=".6" d="M156.1 144.6h46.4v6.3h-46.4z"/><path id="Rectangle-path" fill="#25DDDF" d="M107.1 192h46.4v6.3h-46.4z"/><path id="Shape" fill="#25DDDF" d="M118.3 40v7.3h2.6v-5.2h15.7v5.2h2.6V40z"/><g id="Group" opacity=".5" transform="translate(0 43)" fill="url(#linearGradient-40)"><circle id="Oval" cx="21.1" cy="21.4" r="20.9"/></g><g id="Group" opacity=".5" transform="translate(101 38)" fill="url(#linearGradient-41)"><path d="M39.1 6.7V.4H16.4v6.3H.5v30.7h54.6V6.7h-16zm-19.9-4h17.1v4H19.2v-4z" id="Shape"/></g><g id="Group" opacity=".5" transform="translate(17)" fill="url(#linearGradient-42)"><path id="Rectangle-path" d="M.5.9h220.4v259H.5z"/></g><g transform="translate(1 44)" style="-webkit-animation:slideInLeft 4s .3s infinite ease-in-out;animation-name:slideInLeft"><circle id="Oval" fill="#69F0AE" cx="40.1" cy="40.4" r="40.7"/><path id="Shape" fill="#FFF" d="M23 35l17 14 20-31 6 6-27 36.8L17 37z"/></g></g><circle id="Oval" fill="#FFF" fill-rule="nonzero" cx="48.4" cy="766.9" r="24.4"/><g id="Group" transform="translate(36 747)" fill="#25DDDF" fill-rule="nonzero"><path d="M22.6 30.5c.6 0 1.1.2 1.5.5.4.4.6.8.6 1.4V36H.9v-2c0-.4.1-.8.3-1.3.2-.4.4-.8.8-1.2L12.5 21c.9-.9 1.7-1.8 2.4-2.6s1.3-1.6 1.7-2.4c.5-.8.8-1.6 1.1-2.4.3-.8.4-1.7.4-2.6 0-.8-.1-1.6-.4-2.2-.3-.6-.6-1.2-1-1.6-.4-.4-1-.8-1.6-1-.6-.2-1.3-.3-2.1-.3-.7 0-1.4.1-2 .3-.6.2-1.1.5-1.6.8-.5.4-.9.8-1.2 1.3-.3.5-.6 1-.7 1.6-.3.7-.6 1.2-1.1 1.5-.4.2-1.1.3-1.9.2L1.4 11c.2-1.7.7-3.1 1.4-4.4.7-1.3 1.5-2.3 2.6-3.1C6.4 2.7 7.6 2 9 1.6c1.3-.4 2.8-.6 4.3-.6 1.6 0 3.1.2 4.4.7 1.3.5 2.5 1.1 3.4 2 .9.9 1.7 1.9 2.2 3.1.5 1.2.8 2.6.8 4.1 0 1.3-.2 2.5-.6 3.6-.4 1.1-.9 2.1-1.5 3.1s-1.4 2-2.2 2.9c-.8.9-1.7 1.9-2.7 2.8l-7.8 8c.8-.2 1.5-.4 2.2-.5.7-.1 1.5-.2 2.1-.2h9v-.1zm59.5-15.8c1-1.1 2.2-2.1 3.4-2.8 1.3-.7 2.8-1.1 4.5-1.1 1.3 0 2.6.3 3.7.8 1.1.6 2.1 1.4 2.9 2.4.8 1.1 1.4 2.4 1.9 3.9.4 1.6.7 3.3.7 5.4 0 1.8-.2 3.5-.7 5.1-.5 1.6-1.2 2.9-2.1 4.1-.9 1.2-2 2.1-3.3 2.7-1.3.6-2.8 1-4.4 1-1.4 0-2.6-.2-3.5-.6-1-.4-1.8-1-2.6-1.8V44h-5.9V11.3h3.6c.8 0 1.3.4 1.5 1.1l.3 2.3zm.3 14.9c.7.8 1.4 1.4 2.2 1.7.8.3 1.7.5 2.6.5.9 0 1.7-.2 2.4-.5s1.3-.8 1.8-1.5.9-1.6 1.2-2.6c.3-1 .4-2.3.4-3.7 0-1.4-.1-2.7-.3-3.7-.2-1-.6-1.8-1-2.4-.4-.6-1-1.1-1.6-1.4-.6-.3-1.3-.4-2.1-.4-1.2 0-2.3.3-3.1.8-.9.5-1.7 1.3-2.4 2.2v11h-.1zM114.6 11c1.8 0 3.5.3 5 .9 1.5.6 2.8 1.4 3.8 2.5 1.1 1.1 1.9 2.4 2.5 4 .6 1.6.9 3.3.9 5.3s-.3 3.7-.9 5.3c-.6 1.6-1.4 2.9-2.5 4s-2.3 2-3.8 2.5c-1.5.6-3.2.9-5 .9-1.8 0-3.5-.3-5-.9-1.5-.6-2.8-1.4-3.9-2.5s-1.9-2.4-2.5-4c-.6-1.6-.9-3.3-.9-5.3 0-1.9.3-3.7.9-5.3.6-1.6 1.4-2.9 2.5-4s2.3-1.9 3.9-2.5c1.5-.6 3.2-.9 5-.9zm0 20.8c2 0 3.6-.7 4.5-2.1 1-1.4 1.5-3.4 1.5-6 0-2.7-.5-4.7-1.5-6.1-1-1.4-2.5-2.1-4.5-2.1-2.1 0-3.6.7-4.6 2.1-1 1.4-1.5 3.4-1.5 6.1 0 2.6.5 4.7 1.5 6 1 1.3 2.6 2.1 4.6 2.1zm24.5 4.6c-2.1 0-3.8-.6-4.9-1.8-1.1-1.2-1.7-2.9-1.7-5V15.8H130c-.3 0-.6-.1-.8-.3-.2-.2-.3-.5-.3-.9v-2.4l4-.6 1.2-6.7c.1-.3.2-.6.5-.7.2-.2.5-.3.9-.3h3.1v7.8h6.6v4.2h-6.6v13.3c0 .8.2 1.4.6 1.8.4.4.9.6 1.5.6.4 0 .7 0 .9-.1.2-.1.5-.2.6-.3.2-.1.3-.2.5-.3.1-.1.3-.1.4-.1.2 0 .3 0 .4.1l.4.4 1.8 2.9c-.9.7-1.9 1.3-3 1.6-1.3.4-2.4.6-3.6.6zm14-12c.1 1.3.3 2.4.7 3.3.4.9.8 1.7 1.4 2.3.6.6 1.3 1 2.1 1.3.8.3 1.7.4 2.6.4.9 0 1.8-.1 2.5-.3.7-.2 1.3-.5 1.8-.7.5-.3 1-.5 1.4-.7.4-.2.8-.3 1.1-.3.5 0 .9.2 1.1.6l1.7 2.2c-.7.8-1.4 1.4-2.2 1.9-.8.5-1.7.9-2.6 1.2-.9.3-1.8.5-2.7.7-.9.1-1.8.2-2.7.2-1.7 0-3.3-.3-4.8-.9-1.5-.6-2.8-1.4-3.8-2.5-1.1-1.1-1.9-2.5-2.6-4.1-.6-1.6-.9-3.5-.9-5.7 0-1.7.3-3.3.8-4.7.5-1.4 1.3-2.8 2.3-3.9 1-1.1 2.3-2 3.7-2.6 1.5-.6 3.1-1 5-1 1.6 0 3 .2 4.3.7 1.3.5 2.4 1.2 3.4 2.2.9 1 1.7 2.1 2.2 3.5.5 1.4.8 3 .8 4.7 0 .9-.1 1.5-.3 1.8-.2.3-.6.5-1.1.5h-15.2v-.1zm11.3-3.5c0-.8-.1-1.5-.3-2.2-.2-.7-.5-1.3-1-1.8-.4-.5-1-.9-1.6-1.2-.7-.3-1.4-.4-2.3-.4-1.7 0-3.1.5-4 1.5-1 1-1.6 2.4-1.9 4.2h11.1v-.1zm15.3-6.5c.5-.5 1-1 1.6-1.4.6-.4 1.1-.8 1.8-1.1.6-.3 1.3-.5 2-.7.7-.2 1.5-.3 2.3-.3 1.3 0 2.5.2 3.6.7 1.1.5 1.9 1.1 2.6 1.9.7.8 1.2 1.8 1.6 3 .4 1.1.5 2.4.5 3.8V36h-5.9V20.3c0-1.5-.3-2.7-1-3.5-.7-.8-1.7-1.2-3.1-1.2-1 0-2 .2-2.9.7-.9.5-1.7 1.1-2.5 1.9V36h-5.9V11.4h3.6c.8 0 1.3.4 1.5 1.1l.2 1.9zm46 21.6h-5.9V15.8h-11.4v13.3c0 .8.2 1.4.6 1.8.4.4.9.6 1.5.6.4 0 .7 0 .9-.1.2-.1.5-.2.6-.3.2-.1.3-.2.5-.3.1-.1.3-.1.4-.1.2 0 .3 0 .4.1l.4.4 1.8 2.9c-.9.7-1.9 1.3-3 1.6-1.1.4-2.3.6-3.5.6-2.1 0-3.8-.6-4.9-1.8-1.1-1.2-1.7-2.9-1.7-5V15.7h-2.5c-.3 0-.6-.1-.8-.3-.2-.2-.3-.5-.3-.9v-2.4l4-.7 1.2-6.7c.1-.3.2-.6.5-.7.2-.2.5-.3.9-.3h3.1v7.8h17.4V36h-.2zm1.1-31.9c0 .5-.1 1-.3 1.5-.2.5-.5.9-.8 1.2-.3.3-.8.6-1.2.8-.5.2-1 .3-1.5.3s-1-.1-1.4-.3c-.4-.2-.8-.5-1.2-.8-.4-.3-.6-.7-.8-1.2-.2-.5-.3-.9-.3-1.5 0-.5.1-1 .3-1.5.2-.5.5-.9.8-1.2.3-.3.7-.6 1.2-.8.4-.2.9-.3 1.4-.3.5 0 1 .1 1.5.3.5.2.9.5 1.2.8.3.3.6.7.8 1.2.2.5.3 1 .3 1.5zm4.4 10.7c2.8-2.6 6.2-3.9 10.2-3.9 1.4 0 2.7.2 3.9.7 1.1.5 2.1 1.1 2.9 2 .8.8 1.4 1.8 1.8 3 .4 1.2.6 2.4.6 3.8V36h-2.7c-.6 0-1-.1-1.3-.3-.3-.2-.5-.5-.7-1l-.5-1.8c-.6.6-1.2 1.1-1.8 1.5-.6.4-1.2.8-1.8 1.1-.6.3-1.3.5-2.1.7-.7.2-1.5.2-2.4.2-1 0-2-.1-2.9-.4-.9-.3-1.6-.7-2.3-1.3-.6-.6-1.1-1.3-1.5-2.1-.4-.8-.5-1.8-.5-2.9 0-.6.1-1.2.3-1.9.2-.6.5-1.2 1-1.8.5-.6 1.1-1.1 1.8-1.6.8-.5 1.7-.9 2.8-1.3 1.1-.4 2.4-.7 3.8-.9 1.5-.2 3.1-.4 5-.4v-1.4c0-1.6-.4-2.9-1.1-3.7-.7-.8-1.7-1.2-3-1.2-1 0-1.8.1-2.4.3-.6.2-1.2.5-1.7.8-.5.3-.9.5-1.3.8-.4.2-.8.3-1.3.3-.4 0-.8-.1-1.1-.3-.3-.2-.5-.5-.7-.8l-1-1.8zm13.6 10.7c-1.7.1-3.2.2-4.3.4-1.1.2-2.1.5-2.8.8-.7.3-1.2.7-1.5 1.2-.3.4-.5.9-.5 1.5 0 1 .3 1.8.9 2.2.6.4 1.4.7 2.4.7 1.2 0 2.3-.2 3.2-.7.9-.4 1.8-1.1 2.6-2v-4.1zM262.1.3V36h-5.9V.3zM281.5 36V15.8l-2.1-.3c-.5-.1-.8-.3-1.1-.5-.3-.2-.4-.6-.4-1v-2.4h3.7v-.8c0-1.5.2-2.9.7-4.2.5-1.3 1.2-2.4 2.3-3.3 1-.9 2.3-1.7 3.8-2.2 1.5-.5 3.4-.8 5.5-.8.7 0 1.4 0 2.1.1.7.1 1.3.2 1.8.3l-.2 3.1c0 .4-.2.6-.6.7-.4.1-.8.1-1.4.1-1.6 0-2.9.1-3.9.4-1 .3-1.9.7-2.5 1.2-.6.5-1.1 1.2-1.4 2-.3.8-.4 1.7-.4 2.8v.6h15.3V36h-5.9V15.8h-9.1V36h-6.2zm49 0h-5.7c-.4 0-.8-.1-1-.3-.3-.2-.5-.5-.7-.8l-5.2-8.6c-.1.3-.2.5-.3.8-.1.2-.2.5-.3.7l-4.6 7.1c-.2.3-.4.5-.6.8-.3.2-.6.3-1 .3h-5.3l8.4-12.7-8.1-11.9h5.7c.4 0 .8.1 1 .2.2.1.4.3.6.6l5.2 8.2c.2-.5.4-1.1.7-1.6l4.2-6.5c.4-.6.8-.9 1.4-.9h5.4l-8.1 11.7 8.3 12.9zm6.6-11.6c.1 1.3.3 2.4.7 3.3.4.9.8 1.7 1.4 2.3.6.6 1.3 1 2.1 1.3.8.3 1.7.4 2.6.4.9 0 1.8-.1 2.5-.3.7-.2 1.3-.5 1.8-.7.5-.3 1-.5 1.4-.7.4-.2.8-.3 1.1-.3.5 0 .9.2 1.1.6l1.7 2.2c-.7.8-1.4 1.4-2.2 1.9-.8.5-1.7.9-2.6 1.2-.9.3-1.8.5-2.7.7-.9.1-1.8.2-2.7.2-1.7 0-3.3-.3-4.8-.9-1.5-.6-2.8-1.4-3.8-2.5-1.1-1.1-1.9-2.5-2.6-4.1-.6-1.6-.9-3.5-.9-5.7 0-1.7.3-3.3.8-4.7.5-1.4 1.3-2.8 2.3-3.9 1-1.1 2.3-2 3.7-2.6 1.5-.6 3.1-1 5-1 1.6 0 3 .2 4.3.7 1.3.5 2.4 1.2 3.4 2.2.9 1 1.7 2.1 2.2 3.5.5 1.4.8 3 .8 4.7 0 .9-.1 1.5-.3 1.8-.2.3-.6.5-1.1.5h-15.2v-.1zm11.3-3.5c0-.8-.1-1.5-.3-2.2-.2-.7-.5-1.3-1-1.8-.4-.5-1-.9-1.6-1.2-.7-.3-1.4-.4-2.3-.4-1.7 0-3.1.5-4 1.5-1 1-1.6 2.4-1.9 4.2h11.1v-.1zm24.7-4.7c-.2.3-.3.4-.5.5-.2.1-.4.2-.7.2-.3 0-.6-.1-.9-.2-.3-.2-.7-.3-1.1-.5-.4-.2-.9-.4-1.5-.5-.6-.1-1.2-.2-2-.2-1.2 0-2.1.2-2.7.7-.6.5-1 1.1-1 1.9 0 .5.2 1 .5 1.3.3.4.8.7 1.4.9.6.3 1.2.5 1.9.7.7.2 1.5.5 2.2.7.7.3 1.5.5 2.2.9.7.4 1.4.7 1.9 1.2.6.5 1 1.1 1.4 1.8.3.7.5 1.6.5 2.5 0 1.2-.2 2.3-.6 3.3-.4 1-1.1 1.9-1.9 2.6-.8.7-1.9 1.3-3.1 1.7-1.2.4-2.6.6-4.2.6-.8 0-1.7-.1-2.5-.2-.8-.2-1.6-.4-2.3-.6-.7-.3-1.4-.6-2.1-1-.6-.4-1.2-.8-1.7-1.2l1.4-2.3c.2-.3.4-.5.6-.6.2-.1.5-.2.9-.2s.7.1 1 .3c.3.2.7.4 1.1.7.4.2.9.5 1.5.7.6.2 1.3.3 2.2.3.7 0 1.3-.1 1.8-.3.5-.2.9-.4 1.2-.7.3-.3.6-.6.7-.9.2-.4.2-.7.2-1.1 0-.6-.2-1-.5-1.4-.3-.4-.8-.7-1.4-1-.6-.3-1.2-.5-1.9-.7-.7-.2-1.5-.5-2.2-.7-.8-.3-1.5-.6-2.2-.9-.7-.3-1.4-.8-1.9-1.3-.6-.5-1-1.2-1.4-1.9-.3-.8-.5-1.7-.5-2.8 0-1 .2-2 .6-2.9.4-.9 1-1.7 1.8-2.4s1.7-1.2 2.9-1.6c1.2-.4 2.5-.6 4-.6 1.7 0 3.2.3 4.6.8 1.4.6 2.6 1.3 3.5 2.2l-1.2 2.2z" id="Shape"/></g><circle id="Oval" fill="#FFF" fill-rule="nonzero" cx="43.4" cy="249.9" r="24.4"/><g id="Group" transform="translate(33 230)" fill-rule="nonzero"><path d="M22 30.575V35H2.624v-4.425h7.064V10.259c0-.805 0-1.61.101-2.515l-5.046 4.224c-.303.202-.605.403-.908.403-.303.1-.505.1-.807 0-.303-.1-.505-.1-.707-.302-.202-.1-.303-.302-.404-.402L0 9.052 10.697 0h4.945v30.474H22v.1z" id="Shape" fill="#25DDDF"/><path d="M75.6 35V15.014l-2.1-.298c-.5-.1-.8-.298-1.1-.497-.3-.2-.4-.597-.4-.995v-2.386h3.7v-1.79c0-1.392.2-2.684.6-3.778.4-1.094 1-2.088 1.8-2.884.8-.795 1.8-1.392 2.9-1.79C82.1.2 83.4 0 84.8 0c1.1 0 2.2.199 3.2.497l-.1 2.983c0 .199-.1.398-.2.497-.1.1-.3.2-.4.299-.2.099-.4.099-.6.099h-.8c-.7 0-1.3.1-1.9.199-.6.199-1 .398-1.4.795-.4.398-.7.895-.9 1.492-.2.596-.3 1.392-.3 2.287v1.59h6.4v4.177h-6.2V35h-6zM112 10.2v24.5h-3.533c-.785 0-1.275-.398-1.472-1.095l-.392-1.992c-.982.996-2.06 1.892-3.239 2.49-1.177.597-2.55.896-4.22.896-1.275 0-2.452-.2-3.532-.697-.981-.498-1.864-1.096-2.551-1.893-.687-.796-1.178-1.792-1.57-2.988-.393-1.095-.491-2.39-.491-3.785V10.1h5.79v15.537c0 1.494.294 2.69.981 3.487.687.796 1.668 1.195 3.042 1.195.981 0 1.963-.2 2.846-.697a10.84 10.84 0 002.453-1.893V10H112v.2zm12.225 3.286c.493-.498.986-.996 1.578-1.394.591-.399 1.084-.797 1.774-1.096.592-.299 1.282-.498 1.972-.697.69-.2 1.48-.299 2.268-.299 1.282 0 2.465.2 3.55.697 1.084.498 1.872 1.096 2.563 1.893.69.796 1.183 1.792 1.577 2.988.394 1.095.493 2.39.493 3.785V35h-5.817V19.363c0-1.494-.296-2.69-.986-3.487-.69-.796-1.676-1.195-3.056-1.195-.986 0-1.972.2-2.86.697a10.885 10.885 0 00-2.464 1.893V35H119V10.498h3.55c.788 0 1.281.398 1.478 1.096l.197 1.892zm27.075 0c.49-.498.98-.996 1.57-1.394.588-.399 1.079-.797 1.766-1.096.588-.299 1.275-.498 1.962-.697a8.249 8.249 0 012.257-.299c1.276 0 2.453.2 3.533.697 1.08.498 1.864 1.096 2.551 1.893.687.796 1.178 1.792 1.57 2.988.393 1.095.491 2.39.491 3.785V35h-5.888V19.363c0-1.494-.294-2.69-.981-3.487-.687-.796-1.668-1.195-3.042-1.195-.982 0-1.963.2-2.846.697a10.84 10.84 0 00-2.453 1.893V35H146V10.498h3.533c.785 0 1.275.398 1.472 1.096l.294 1.892zm25.731 9.604c.102 1.28.307 2.363.716 3.249.409.885.817 1.673 1.43 2.263.614.59 1.33.985 2.147 1.28.818.295 1.738.394 2.658.394.92 0 1.84-.099 2.556-.296.715-.197 1.329-.492 1.84-.689.51-.295 1.022-.492 1.43-.689.41-.196.819-.295 1.125-.295.511 0 .92.197 1.125.59l1.738 2.166a9.8 9.8 0 01-2.25 1.87c-.817.492-1.737.886-2.657 1.181-.92.295-1.84.492-2.76.69-.92.098-1.84.196-2.76.196-1.738 0-3.373-.295-4.907-.886-1.533-.59-2.862-1.378-3.884-2.46-1.125-1.083-1.942-2.461-2.658-4.036-.613-1.575-.92-3.445-.92-5.61 0-1.673.307-3.248.818-4.626.51-1.378 1.329-2.756 2.35-3.839 1.023-1.082 2.352-1.968 3.783-2.559 1.533-.59 3.169-.984 5.111-.984 1.636 0 3.067.197 4.396.689a9.744 9.744 0 013.475 2.165c.92.985 1.738 2.067 2.25 3.445.51 1.378.817 2.953.817 4.626 0 .886-.102 1.477-.307 1.772-.204.295-.613.492-1.124.492H177.03v-.098zm11.551-3.444a7.41 7.41 0 00-.306-2.166c-.205-.689-.512-1.28-1.023-1.771-.409-.492-1.022-.886-1.635-1.181-.716-.296-1.431-.394-2.351-.394-1.738 0-3.17.492-4.09 1.476-1.021.984-1.635 2.362-1.941 4.134h11.346v-.098zM204 0v36h-6V0zm17.127 13.824c2.868-2.55 6.351-3.824 10.449-3.824 1.434 0 2.765.196 3.995.686 1.127.49 2.151 1.079 2.97 1.961.82.784 1.435 1.765 1.844 2.941.41 1.177.615 2.353.615 3.726v15.294h-2.766c-.614 0-1.024-.098-1.332-.294-.307-.196-.512-.49-.717-.98l-.512-1.765a12.106 12.106 0 01-1.844 1.47c-.614.392-1.229.785-1.844 1.079-.614.294-1.331.49-2.15.686-.718.196-1.537.196-2.46.196-1.024 0-2.048-.098-2.97-.392a6.781 6.781 0 01-2.356-1.275 7.868 7.868 0 01-1.537-2.058c-.41-.785-.512-1.765-.512-2.844 0-.588.102-1.176.307-1.862a5.255 5.255 0 011.025-1.765c.512-.588 1.127-1.079 1.844-1.569.82-.49 1.741-.882 2.868-1.274 1.127-.392 2.458-.686 3.893-.883 1.536-.196 3.175-.392 5.122-.392v-1.372c0-1.569-.41-2.843-1.127-3.628-.717-.784-1.742-1.176-3.073-1.176-1.025 0-1.844.098-2.459.294a9.27 9.27 0 00-1.741.784c-.513.294-.922.49-1.332.785a2.94 2.94 0 01-1.332.294c-.41 0-.82-.098-1.127-.294-.307-.197-.512-.49-.717-.785l-1.024-1.764zm13.932 10.49c-1.742.098-3.279.196-4.405.392-1.23.196-2.152.49-2.869.784-.717.294-1.229.686-1.536 1.177a2.342 2.342 0 00-.512 1.47c0 .98.307 1.765.922 2.157.614.392 1.434.686 2.458.686 1.23 0 2.356-.196 3.278-.686.922-.392 1.844-1.078 2.664-1.96v-4.02zm16.166-10.828c.493-.498.986-.996 1.578-1.394.591-.399 1.084-.797 1.774-1.096.592-.299 1.282-.498 1.972-.697.69-.2 1.48-.299 2.268-.299 1.282 0 2.465.2 3.55.697 1.084.498 1.872 1.096 2.563 1.893.69.796 1.183 1.792 1.577 2.988.394 1.095.493 2.39.493 3.785V35h-5.817V19.363c0-1.494-.296-2.69-.986-3.487-.69-.796-1.676-1.195-3.056-1.195-.986 0-1.972.2-2.86.697a10.885 10.885 0 00-2.464 1.893V35H246V10.498h3.55c.788 0 1.281.398 1.478 1.096l.197 1.892zm21.902.338c2.868-2.55 6.351-3.824 10.449-3.824 1.434 0 2.765.196 3.995.686 1.127.49 2.151 1.079 2.97 1.961.82.784 1.435 1.765 1.844 2.941.41 1.177.615 2.353.615 3.726v15.294h-2.766c-.614 0-1.024-.098-1.332-.294-.307-.196-.512-.49-.717-.98l-.512-1.765a12.106 12.106 0 01-1.844 1.47c-.614.392-1.229.785-1.844 1.079-.614.294-1.331.49-2.15.686-.718.196-1.537.196-2.46.196-1.024 0-2.048-.098-2.97-.392a6.781 6.781 0 01-2.356-1.275 7.868 7.868 0 01-1.537-2.058c-.41-.785-.512-1.765-.512-2.844 0-.588.102-1.176.307-1.862a5.255 5.255 0 011.025-1.765c.512-.588 1.127-1.079 1.844-1.569.82-.49 1.741-.882 2.868-1.274 1.127-.392 2.458-.686 3.893-.883 1.536-.196 3.175-.392 5.122-.392v-1.372c0-1.569-.41-2.843-1.127-3.628-.717-.784-1.742-1.176-3.073-1.176-1.025 0-1.844.098-2.459.294a9.27 9.27 0 00-1.741.784c-.513.294-.922.49-1.332.785a2.94 2.94 0 01-1.332.294c-.41 0-.82-.098-1.127-.294-.307-.197-.512-.49-.717-.785l-1.024-1.764zm13.932 10.49c-1.742.098-3.279.196-4.405.392-1.23.196-2.152.49-2.869.784-.717.294-1.229.686-1.536 1.177a2.342 2.342 0 00-.512 1.47c0 .98.307 1.765.922 2.157.614.392 1.434.686 2.458.686 1.23 0 2.356-.196 3.278-.686.922-.392 1.844-1.078 2.664-1.96v-4.02zM304 0v36h-6V0zm13 3.843c0 .505-.105 1.01-.316 1.415-.21.405-.526.81-.842 1.214a3.798 3.798 0 01-1.263.809 4.374 4.374 0 01-1.579.303 4.374 4.374 0 01-1.579-.303 3.798 3.798 0 01-1.263-.81 3.632 3.632 0 01-.842-1.213c-.21-.404-.316-.91-.316-1.415 0-.506.105-1.012.316-1.517.21-.506.526-.91.842-1.214a3.798 3.798 0 011.263-.809C311.947.101 312.368 0 313 0a4.38 4.38 0 011.579.303c.526.203.947.506 1.263.81.316.303.632.707.842 1.213A3.92 3.92 0 01317 3.843zm-.947 7.28V36h-6.316V11.124h6.316zm20.382 4.015c-.196.297-.294.396-.49.494-.195.1-.39.198-.684.198-.294 0-.587-.099-.88-.198-.294-.098-.685-.296-1.077-.494a5.121 5.121 0 00-1.467-.494c-.587-.197-1.174-.197-1.957-.197-1.173 0-2.054.197-2.64.691-.686.494-.98 1.087-.98 1.878 0 .494.197.988.49 1.284.293.396.783.692 1.37.89.587.296 1.173.494 1.858.691.685.198 1.468.494 2.152.692.685.198 1.468.494 2.153.89.684.296 1.37.691 1.858 1.185.587.494.979 1.087 1.37 1.779a6.53 6.53 0 01.489 2.47c0 1.186-.196 2.273-.587 3.261-.391.988-1.076 1.878-1.859 2.57-.782.691-1.858 1.284-3.032 1.68-1.174.394-2.544.592-4.109.592-.783 0-1.663-.099-2.446-.198a70.197 70.197 0 01-2.25-.593c-.684-.296-1.37-.592-2.054-.988-.685-.395-1.174-.79-1.663-1.185l1.37-2.273c.195-.297.39-.494.587-.593.195-.099.489-.198.88-.198s.685.1.978.297c.294.197.685.395 1.076.691.392.198.88.495 1.468.692.587.198 1.271.297 2.152.297.685 0 1.272-.1 1.76-.297.49-.197.881-.395 1.175-.692.293-.296.587-.592.684-.889.196-.395.196-.692.196-1.087 0-.593-.196-.988-.489-1.383-.294-.395-.783-.692-1.37-.988-.587-.297-1.174-.494-1.858-.692-.685-.198-1.468-.494-2.152-.692a48.348 48.348 0 01-2.153-.89 6.264 6.264 0 01-1.858-1.284c-.587-.494-.979-1.185-1.37-1.877a7.758 7.758 0 01-.489-2.767c0-.988.196-1.976.587-2.866.391-.889.978-1.68 1.76-2.371.783-.692 1.664-1.186 2.838-1.581 1.174-.395 2.445-.593 3.913-.593 1.663 0 3.13.296 4.5.79 1.37.593 2.543 1.285 3.424 2.174l-1.174 2.174zM350 3.843c0 .505-.105 1.01-.316 1.415-.21.405-.526.81-.842 1.214a3.798 3.798 0 01-1.263.809 4.374 4.374 0 01-1.579.303 4.374 4.374 0 01-1.579-.303 3.798 3.798 0 01-1.263-.81 3.632 3.632 0 01-.842-1.213c-.21-.404-.316-.91-.316-1.415 0-.506.105-1.012.316-1.517.21-.506.526-.91.842-1.214a3.798 3.798 0 011.263-.809C344.947.101 345.368 0 346 0a4.38 4.38 0 011.579.303c.526.203.947.506 1.263.81.316.303.632.707.842 1.213.105.505.316 1.011.316 1.517zm-.947 7.28V36h-6.316V11.124h6.316zm20.382 4.015c-.196.297-.294.396-.49.494-.195.1-.39.198-.684.198-.294 0-.587-.099-.88-.198-.294-.197-.685-.296-1.077-.494a5.121 5.121 0 00-1.467-.494c-.587-.099-1.174-.197-1.957-.197-1.173 0-2.054.197-2.64.691-.588.494-.98 1.087-.98 1.878 0 .494.197.988.49 1.284.293.396.783.692 1.37.89.587.296 1.173.494 1.858.691.685.198 1.468.494 2.152.692.685.297 1.468.494 2.153.89.684.395 1.37.691 1.858 1.185.587.494.979 1.087 1.37 1.779a6.53 6.53 0 01.489 2.47c0 1.186-.196 2.273-.587 3.261-.391.988-1.076 1.878-1.859 2.57-.782.691-1.858 1.284-3.032 1.68-1.174.394-2.544.592-4.109.592-.783 0-1.663-.099-2.446-.198a70.197 70.197 0 01-2.25-.593c-.684-.296-1.37-.592-2.054-.988-.587-.395-1.174-.79-1.663-1.185l1.37-2.273c.195-.297.39-.494.587-.593.195-.099.489-.198.88-.198s.685.1.978.297c.294.197.685.395 1.076.691.392.198.88.495 1.468.692.587.198 1.271.297 2.152.297.685 0 1.272-.1 1.76-.297.49-.197.881-.395 1.175-.692.293-.296.587-.592.684-.889.196-.395.196-.692.196-1.087 0-.593-.196-.988-.489-1.383-.294-.395-.783-.692-1.37-.988-.587-.297-1.174-.494-1.858-.692-.685-.198-1.468-.494-2.152-.692a48.348 48.348 0 01-2.153-.89 6.264 6.264 0 01-1.858-1.284c-.587-.494-.979-1.185-1.37-1.877a7.758 7.758 0 01-.489-2.767c0-.988.196-1.976.587-2.866.391-.889.978-1.68 1.76-2.371.783-.692 1.664-1.186 2.838-1.581 1.174-.395 2.445-.593 3.913-.593 1.663 0 3.13.296 4.5.79 1.37.593 2.543 1.285 3.424 2.174l-1.174 2.174z" id="Shape" fill="#FFF"/></g></g></g></svg>