<svg viewBox="0 0 642 1188" version="1.1" xmlns="http://www.w3.org/2000/svg" xmlns:xlink="http://www.w3.org/1999/xlink">
    <!-- Generator: Sketch 48.2 (47327) - http://www.bohemiancoding.com/sketch -->
    <defs>
        <style type="text/css"><![CDATA[
         @-webkit-keyframes slideInDownsmall-balls5 {
  from {
    opacity: 1;
    -webkit-transform: translate3d(0, -100%, 0);
    transform: translate3d(0, -100%, 0);
    visibility: visible;
  }

  50%  {
    opacity: 1;
    -webkit-transform: translate3d(0, 0, 0);
    transform: translate3d(0, 0, 0);
  }
  100%  {
    opacity: 0;
    -webkit-transform: translate3d(0, 30%, 0);
    transform: translate3d(0, 30%, 0);
  }
}

@keyframes slideInDownsmall-balls5 {
  from {
    opacity: 1;
    -webkit-transform: translate3d(0, -100%, 0);
    transform: translate3d(0, -100%, 0);
    visibility: visible;
  }

  50% {
    opacity: 1;
    -webkit-transform: translate3d(0, 0, 0);
    transform: translate3d(0, 0, 0);
  }
  100% {
    opacity: 0;
    -webkit-transform: translate3d(0, 30%, 0);
    transform: translate3d(0, 30%, 0);
  }
}


      #validated-icon {
    -webkit-animation: slideInLeft 4s 0.3s infinite ease-in-out;
  animation-name: slideInLeft;
/*   -webkit-transform:translateX(1000px);
  -webkit-animation: sprinkle-spin 8s infinite ease-in-out; */
}

#small-balls1 {
    -webkit-animation: slideInDown 2s 0.3s infinite ease-in-out;
  animation-name: slideInDown;
/*   -webkit-transform:translateX(1000px);
  -webkit-animation: sprinkle-spin 8s infinite ease-in-out; */
}

#small-balls2 {
    -webkit-animation: slideInDownsmall-balls5 3s 1.3s infinite ease-in-out;
  animation-name: slideInDownsmall-balls5;
/*   -webkit-transform:translateX(1000px);
  -webkit-animation: sprinkle-spin 8s infinite ease-in-out; */
}

#small-balls3 {
    -webkit-animation: slideInDown 4s 2.3s infinite ease-in-out;
  animation-name: slideInDown;
/*   -webkit-transform:translateX(1000px);
  -webkit-animation: sprinkle-spin 8s infinite ease-in-out; */
}

#small-balls4 {
    -webkit-animation: slideInDown 5s 3.3s infinite ease-in-out;
  animation-name: slideInDown;
/*   -webkit-transform:translateX(1000px);
  -webkit-animation: sprinkle-spin 8s infinite ease-in-out; */
}

#small-balls5 {
    -webkit-animation: slideInDownsmall-balls5 6s 3s infinite ease-in-out;
  animation-name: slideInDownsmall-balls5;
/*   -webkit-transform:translateX(1000px);
  -webkit-animation: sprinkle-spin 8s infinite ease-in-out; */
}

@-webkit-keyframes fadeIn {
  from {
    opacity: 0.3;
  }

  50% {
    opacity: 1;
  }
  100% {
    opacity: 1;
  }
}

@keyframes fadeIn {
  from {
    opacity: 0.3;
  }

  50% {
    opacity: 1;
  }

  100% {
    opacity: 1;
  }
}


@-webkit-keyframes zoomIn {
  from {
    opacity: 0;
    -webkit-transform: scale3d(0.3, 0.3, 0.3);
    transform: scale3d(0.3, 0.3, 0.3);
  }

  50% {
    opacity: 1;
  }
}

@keyframes zoomIn {
  from {
    opacity: 0;
    -webkit-transform: scale3d(0.3, 0.3, 0.3);
    transform: scale3d(0.3, 0.3, 0.3);
  }

  50% {
    opacity: 1;
  }
}

.zoomIn {
  -webkit-animation-name: zoomIn;
  animation-name: zoomIn;
}

#potential-fixes-paper, #version-a{
    -webkit-animation: fadeIn 3s infinite ease-in-out;
  animation-name: fadeIn;
/*   -webkit-transform:translateX(1000px);
  -webkit-animation: sprinkle-spin 8s infinite ease-in-out; */
}

@-webkit-keyframes slideInDown {
  from {
    -webkit-transform: translate3d(0, -100%, 0);
    transform: translate3d(0, -100%, 0);
    visibility: visible;
  }

  50%  {
    -webkit-transform: translate3d(0, 0, 0);
    transform: translate3d(0, 0, 0);
  }
  100%  {
    -webkit-transform: translate3d(0, 0, 0);
    transform: translate3d(0, 0, 0);
  }
}

@keyframes slideInDown {
  from {
    -webkit-transform: translate3d(0, -100%, 0);
    transform: translate3d(0, -100%, 0);
    visibility: visible;
  }

  50% {
    -webkit-transform: translate3d(0, 0, 0);
    transform: translate3d(0, 0, 0);
  }
  100% {
    -webkit-transform: translate3d(0, 0, 0);
    transform: translate3d(0, 0, 0);
  }
}

@-webkit-keyframes slideInLeft {
  from {
    -webkit-transform: translate3d(-100%, 0, 0);
    transform: translate3d(-100%, 0, 0);
    visibility: visible;
  }

  50% {
    -webkit-transform: translate3d(0, 0, 0);
    transform: translate3d(0, 0, 0);
  }
  100% {
    -webkit-transform: translate3d(0, 0, 0);
    transform: translate3d(0, 0, 0);
  }
}

@keyframes slideInLeft {
  from {
    -webkit-transform: translate3d(-100%, 0, 0);
    transform: translate3d(-100%, 0, 0);
    visibility: visible;
  }

  50% {
    -webkit-transform: translate3d(0, 0, 0);
    transform: translate3d(0, 0, 0);
  }
  100% {
    -webkit-transform: translate3d(0, 0, 0);
    transform: translate3d(0, 0, 0);
  }
}
.path {
  stroke-dasharray: 1000;
  stroke-dashoffset: 1000;
  animation: dash 3s linear alternate infinite;
}
.path2 {
  stroke-dasharray: 1000;
  stroke-dashoffset: 1000;
  animation: dash 2s 4s linear alternate infinite;
}
@keyframes dash {
  from {
    stroke-dashoffset: 1000;
  }
  to {
    stroke-dashoffset: 0;
  }
}

        ]]></style>

        <path d="M3.7,0 L23.3,0 C25,0 26.4,1.4 26.4,3.1 L26.4,10.1 C26.4,11.8 25,13.2 23.3,13.2 L3.7,13.2 C2,13.2 0.6,11.8 0.6,10.1 L0.6,3.1 C0.5,1.4 1.9,0 3.7,0 Z" id="path-1"></path>
        <rect id="path-3" x="0" y="0.7" width="440.4" height="51.7"></rect>
        <path d="M0.6,0.3 L0.6,5 C1.5,4.6 2.2,3.7 2.2,2.7 C2.2,1.7 1.5,0.7 0.6,0.3" id="path-5"></path>
        <rect id="path-7" x="0" y="0.7" width="440.4" height="51.7"></rect>
        <path d="M2.5,0.4 L20.5,0.4 C21.4,0.4 22.1,1.1 22.1,2 L22.1,7.5 C22.1,8.4 21.4,9.1 20.5,9.1 L2.5,9.1 C1.6,9.1 0.9,8.4 0.9,7.5 L0.9,2 C0.9,1.1 1.6,0.4 2.5,0.4 Z" id="path-9"></path>
        <rect id="path-11" x="0" y="0.7" width="440.4" height="51.7"></rect>
        <path d="M12.3,11.4 C12.4,11.3 12.4,11.2 12.4,11.1 C12.4,11 12.4,10.9 12.3,10.8 C10.8,9.5 8.6,9.5 7.1,10.8 C7,10.9 7,11 7,11.1 C7,11.2 7,11.3 7.1,11.4 L9.4,13.8 C9.5,13.9 9.6,13.9 9.7,13.9 C9.8,13.9 9.9,13.9 10,13.8 L12.3,11.4 Z M9.7,8.2 C11.1,8.2 12.5,8.7 13.6,9.7 C13.7,9.8 14,9.8 14.1,9.7 L15.5,8.3 C15.6,8.2 15.6,8.1 15.6,8 C15.6,7.9 15.6,7.8 15.5,7.7 C12.3,4.7 7.3,4.7 4,7.7 C3.9,7.8 3.9,7.9 3.9,8 C3.9,8.1 3.9,8.2 4,8.3 L5.4,9.7 C5.5,9.8 5.8,9.8 5.9,9.7 C6.9,8.7 8.2,8.2 9.7,8.2 Z M9.7,3.7 C12.3,3.7 14.8,4.7 16.7,6.5 C16.8,6.6 17.1,6.6 17.2,6.5 L18.6,5.1 C18.7,5 18.7,4.9 18.7,4.8 C18.7,4.7 18.7,4.6 18.6,4.5 C13.7,-0.2 5.8,-0.2 0.9,4.5 C0.8,4.6 0.8,4.7 0.8,4.8 C0.8,4.9 0.8,5 0.9,5.1 L2.3,6.5 C2.4,6.6 2.7,6.6 2.8,6.5 C4.6,4.7 7.1,3.7 9.7,3.7 Z" id="path-13"></path>
        <rect id="path-15" x="0" y="0.7" width="440.4" height="51.7"></rect>
        <path d="M18.4,0.4 L19.6,0.4 C20.2,0.4 20.8,0.9 20.8,1.6 L20.8,11.8 C20.8,12.4 20.3,13 19.6,13 L18.4,13 C17.8,13 17.2,12.5 17.2,11.8 L17.2,1.6 C17.3,1 17.8,0.4 18.4,0.4 Z M13,3.2 L14.2,3.2 C14.8,3.2 15.4,3.7 15.4,4.4 L15.4,11.8 C15.4,12.4 14.9,13 14.2,13 L13,13 C12.4,13 11.8,12.5 11.8,11.8 L11.8,4.4 C11.8,3.7 12.3,3.2 13,3.2 Z M7.5,5.9 L8.7,5.9 C9.3,5.9 9.9,6.4 9.9,7.1 L9.9,11.8 C9.9,12.4 9.4,13 8.7,13 L7.5,13 C6.9,13 6.3,12.5 6.3,11.8 L6.3,7.1 C6.3,6.4 6.8,5.9 7.5,5.9 Z M2,8.3 L3.2,8.3 C3.8,8.3 4.4,8.8 4.4,9.5 L4.4,11.8 C4.4,12.4 3.9,13 3.2,13 L2,13 C1.4,13 0.8,12.5 0.8,11.8 L0.8,9.5 C0.8,8.8 1.4,8.3 2,8.3 Z" id="path-17"></path>
        <rect id="path-19" x="0" y="0.7" width="440.4" height="51.7"></rect>
        <path d="M2.1,0.7 L20.1,0.7 C21,0.7 21.7,1.4 21.7,2.3 L21.7,7.8 C21.7,8.7 21,9.4 20.1,9.4 L2.1,9.4 C1.2,9.4 0.5,8.7 0.5,7.8 L0.5,2.3 C0.6,1.4 1.3,0.7 2.1,0.7 Z" id="path-21"></path>
        <rect id="path-23" x="0.6" y="0" width="440.4" height="51.7"></rect>
        <path d="M11.9,10.8 C12,10.7 12,10.6 12,10.5 C12,10.4 12,10.3 11.9,10.2 C10.4,8.9 8.2,8.9 6.7,10.2 C6.6,10.3 6.6,10.4 6.6,10.5 C6.6,10.6 6.6,10.7 6.7,10.8 L9,13.2 C9.1,13.3 9.2,13.3 9.3,13.3 C9.4,13.3 9.5,13.3 9.6,13.2 L11.9,10.8 Z M9.3,7.5 C10.7,7.5 12.1,8 13.2,9 C13.3,9.1 13.6,9.1 13.7,9 L15.1,7.6 C15.2,7.5 15.2,7.4 15.2,7.3 C15.2,7.2 15.2,7.1 15.1,7 C11.9,4 6.9,4 3.6,7 C3.5,7.1 3.5,7.2 3.5,7.3 C3.5,7.4 3.5,7.5 3.6,7.6 L5,9 C5.1,9.1 5.4,9.1 5.5,9 C6.5,8 7.9,7.5 9.3,7.5 Z M9.3,3 C11.9,3 14.4,4 16.3,5.8 C16.4,5.9 16.7,5.9 16.8,5.8 L18.2,4.4 C18.3,4.3 18.3,4.2 18.3,4.1 C18.3,4 18.3,3.9 18.2,3.8 C13.3,-0.9 5.4,-0.9 0.5,3.8 C0.4,3.9 0.4,4 0.4,4.1 C0.4,4.2 0.4,4.3 0.5,4.4 L1.9,5.8 C2,5.9 2.3,5.9 2.4,5.8 C4.2,4 6.7,3 9.3,3 Z" id="path-25"></path>
        <rect id="path-27" x="0.6" y="0" width="440.4" height="51.7"></rect>
        <path d="M18.1,0.7 L19.3,0.7 C19.9,0.7 20.5,1.2 20.5,1.9 L20.5,12.1 C20.5,12.7 20,13.3 19.3,13.3 L18.1,13.3 C17.5,13.3 16.9,12.8 16.9,12.1 L16.9,1.9 C16.9,1.3 17.5,0.7 18.1,0.7 Z M12.6,3.5 L13.8,3.5 C14.4,3.5 15,4 15,4.7 L15,12.1 C15,12.7 14.5,13.3 13.8,13.3 L12.6,13.3 C12,13.3 11.4,12.8 11.4,12.1 L11.4,4.7 C11.5,4 12,3.5 12.6,3.5 Z M7.1,6.2 L8.3,6.2 C8.9,6.2 9.5,6.7 9.5,7.4 L9.5,12.1 C9.5,12.7 9,13.3 8.3,13.3 L7.1,13.3 C6.5,13.3 5.9,12.8 5.9,12.1 L5.9,7.4 C6,6.8 6.5,6.2 7.1,6.2 Z M1.7,8.6 L2.9,8.6 C3.5,8.6 4.1,9.1 4.1,9.8 L4.1,12.1 C4.1,12.7 3.6,13.3 2.9,13.3 L1.7,13.3 C1.1,13.3 0.5,12.8 0.5,12.1 L0.5,9.8 C0.5,9.1 1,8.6 1.7,8.6 Z" id="path-29"></path>
        <rect id="path-31" x="0.6" y="0" width="440.4" height="51.7"></rect>
        <linearGradient x1="49.9997985%" y1="99.9991273%" x2="49.9997985%" y2="0.00850225225%" id="linearGradient-33">
            <stop stop-color="#808080" stop-opacity="0.25" offset="0%"></stop>
            <stop stop-color="#808080" stop-opacity="0.12" offset="54%"></stop>
            <stop stop-color="#808080" stop-opacity="0.1" offset="100%"></stop>
        </linearGradient>
        <linearGradient x1="50.0131529%" y1="99.6345238%" x2="50.0131529%" y2="-0.589285714%" id="linearGradient-34">
            <stop stop-color="#808080" stop-opacity="0.25" offset="0%"></stop>
            <stop stop-color="#808080" stop-opacity="0.12" offset="54%"></stop>
            <stop stop-color="#808080" stop-opacity="0.1" offset="100%"></stop>
        </linearGradient>
        <linearGradient x1="50.0131529%" y1="100.279762%" x2="50.0131529%" y2="0.0571428571%" id="linearGradient-35">
            <stop stop-color="#808080" stop-opacity="0.25" offset="0%"></stop>
            <stop stop-color="#808080" stop-opacity="0.12" offset="54%"></stop>
            <stop stop-color="#808080" stop-opacity="0.1" offset="100%"></stop>
        </linearGradient>
        <linearGradient x1="50.0425461%" y1="99.8848485%" x2="50.0425461%" y2="0.231060606%" id="linearGradient-36">
            <stop stop-color="#808080" stop-opacity="0.25" offset="0%"></stop>
            <stop stop-color="#808080" stop-opacity="0.12" offset="54%"></stop>
            <stop stop-color="#808080" stop-opacity="0.1" offset="100%"></stop>
        </linearGradient>
        <linearGradient x1="50.0520101%" y1="99.8848485%" x2="50.0520101%" y2="0.231060606%" id="linearGradient-37">
            <stop stop-color="#000000" stop-opacity="0.12" offset="0%"></stop>
            <stop stop-color="#000000" stop-opacity="0.09" offset="55%"></stop>
            <stop stop-color="#000000" stop-opacity="0.02" offset="100%"></stop>
        </linearGradient>
        <linearGradient x1="50.0131529%" y1="100.177381%" x2="50.0131529%" y2="-0.0464285714%" id="linearGradient-38">
            <stop stop-color="#808080" stop-opacity="0.25" offset="0%"></stop>
            <stop stop-color="#808080" stop-opacity="0.12" offset="54%"></stop>
            <stop stop-color="#808080" stop-opacity="0.1" offset="100%"></stop>
        </linearGradient>
        <linearGradient x1="50.0202643%" y1="100.177381%" x2="50.0202643%" y2="-0.0464285714%" id="linearGradient-39">
            <stop stop-color="#000000" stop-opacity="0.12" offset="0%"></stop>
            <stop stop-color="#000000" stop-opacity="0.09" offset="55%"></stop>
            <stop stop-color="#000000" stop-opacity="0.02" offset="100%"></stop>
        </linearGradient>
        <linearGradient x1="50.0202643%" y1="99.6345238%" x2="50.0202643%" y2="-0.589285714%" id="linearGradient-40">
            <stop stop-color="#000000" stop-opacity="0.12" offset="0%"></stop>
            <stop stop-color="#000000" stop-opacity="0.09" offset="55%"></stop>
            <stop stop-color="#000000" stop-opacity="0.02" offset="100%"></stop>
        </linearGradient>
        <linearGradient x1="50.0202643%" y1="100.279762%" x2="50.0202643%" y2="0.0571428571%" id="linearGradient-41">
            <stop stop-color="#000000" stop-opacity="0.12" offset="0%"></stop>
            <stop stop-color="#000000" stop-opacity="0.09" offset="55%"></stop>
            <stop stop-color="#000000" stop-opacity="0.02" offset="100%"></stop>
        </linearGradient>
        <linearGradient x1="50.0202643%" y1="99.7357143%" x2="50.0202643%" y2="-0.486904762%" id="linearGradient-42">
            <stop stop-color="#000000" stop-opacity="0.12" offset="0%"></stop>
            <stop stop-color="#000000" stop-opacity="0.09" offset="55%"></stop>
            <stop stop-color="#000000" stop-opacity="0.02" offset="100%"></stop>
        </linearGradient>
        <linearGradient x1="50.0202643%" y1="100.383333%" x2="50.0202643%" y2="0.15952381%" id="linearGradient-43">
            <stop stop-color="#000000" stop-opacity="0.12" offset="0%"></stop>
            <stop stop-color="#000000" stop-opacity="0.09" offset="55%"></stop>
            <stop stop-color="#000000" stop-opacity="0.02" offset="100%"></stop>
        </linearGradient>
        <linearGradient x1="50.0131529%" y1="99.7357143%" x2="50.0131529%" y2="-0.486904762%" id="linearGradient-44">
            <stop stop-color="#808080" stop-opacity="0.25" offset="0%"></stop>
            <stop stop-color="#808080" stop-opacity="0.12" offset="54%"></stop>
            <stop stop-color="#808080" stop-opacity="0.1" offset="100%"></stop>
        </linearGradient>
        <linearGradient x1="50.0131529%" y1="100.383333%" x2="50.0131529%" y2="0.15952381%" id="linearGradient-45">
            <stop stop-color="#808080" stop-opacity="0.25" offset="0%"></stop>
            <stop stop-color="#808080" stop-opacity="0.12" offset="54%"></stop>
            <stop stop-color="#808080" stop-opacity="0.1" offset="100%"></stop>
        </linearGradient>
        <linearGradient x1="50.0198355%" y1="100.020266%" x2="50.0198355%" y2="0.00980725624%" id="linearGradient-46">
            <stop stop-color="#808080" stop-opacity="0.25" offset="0%"></stop>
            <stop stop-color="#808080" stop-opacity="0.12" offset="54%"></stop>
            <stop stop-color="#808080" stop-opacity="0.1" offset="100%"></stop>
        </linearGradient>
        <linearGradient x1="49.9589286%" y1="100.070942%" x2="49.9589286%" y2="0.0358766234%" id="linearGradient-47">
            <stop stop-color="#808080" stop-opacity="0.25" offset="0%"></stop>
            <stop stop-color="#808080" stop-opacity="0.12" offset="54%"></stop>
            <stop stop-color="#808080" stop-opacity="0.1" offset="100%"></stop>
        </linearGradient>
        <linearGradient x1="49.9589286%" y1="100.081656%" x2="49.9589286%" y2="0.0465909091%" id="linearGradient-48">
            <stop stop-color="#808080" stop-opacity="0.25" offset="0%"></stop>
            <stop stop-color="#808080" stop-opacity="0.12" offset="54%"></stop>
            <stop stop-color="#808080" stop-opacity="0.1" offset="100%"></stop>
        </linearGradient>
        <linearGradient x1="49.9589286%" y1="99.9805195%" x2="49.9589286%" y2="-0.0545454545%" id="linearGradient-49">
            <stop stop-color="#808080" stop-opacity="0.25" offset="0%"></stop>
            <stop stop-color="#808080" stop-opacity="0.12" offset="54%"></stop>
            <stop stop-color="#808080" stop-opacity="0.1" offset="100%"></stop>
        </linearGradient>
    </defs>
    <g id="Page-1" stroke="none" stroke-width="1" fill="none" fill-rule="evenodd">
        <g id="hdiw_iphonex2">
            <rect id="Rectangle-path" x="0.1" y="50.1" width="640.4" height="1137.3"></rect>
            <g id="Calque_2" transform="translate(0.000000, 47.000000)" fill="#DBDBDB" fill-rule="nonzero">
                <rect id="Rectangle-path" x="0" y="0.4" width="641.7" height="1135.4"></rect>
            </g>
            <rect id="Rectangle-path" fill="#25DDDF" fill-rule="nonzero" x="0.9" y="46.3" width="640.1" height="242.3"></rect>
            <g id="Clipped" transform="translate(377.000000, 58.000000)">
                <mask id="mask-2" fill="white">
                    <use xlink:href="#path-1"></use>
                </mask>
                <g id="SVGID_1_"></g>
                <g mask="url(#mask-2)">
                    <g transform="translate(-394.000000, -21.000000)">
                        <mask id="mask-4" fill="white">
                            <use xlink:href="#path-3"></use>
                        </mask>
                        <g id="SVGID_3_" stroke="none" fill="none"></g>
                        <path d="M397.7,21 L417.3,21 C419,21 420.4,22.4 420.4,24.1 L420.4,31.1 C420.4,32.8 419,34.2 417.3,34.2 L397.7,34.2 C396,34.2 394.6,32.8 394.6,31.1 L394.6,24.1 C394.5,22.4 395.9,21 397.7,21 Z" id="Shape" stroke="#FFFFFF" stroke-width="2" fill="none" opacity="0.35" mask="url(#mask-4)"></path>
                    </g>
                </g>
            </g>
            <g id="Clipped" transform="translate(404.000000, 62.000000)">
                <mask id="mask-6" fill="white">
                    <use xlink:href="#path-5"></use>
                </mask>
                <g id="SVGID_5_"></g>
                <g mask="url(#mask-6)">
                    <g transform="translate(-421.000000, -25.000000)">
                        <mask id="mask-8" fill="white">
                            <use xlink:href="#path-7"></use>
                        </mask>
                        <g id="SVGID_7_" stroke="none" fill="none"></g>
                        <rect id="Rectangle-path" stroke="none" fill="#FFFFFF" fill-rule="nonzero" opacity="0.4" mask="url(#mask-8)" x="415.7" y="19.5" width="13.3" height="16.4"></rect>
                    </g>
                </g>
            </g>
            <g id="Clipped" transform="translate(379.000000, 60.000000)">
                <mask id="mask-10" fill="white">
                    <use xlink:href="#path-9"></use>
                </mask>
                <g id="SVGID_9_"></g>
                <g mask="url(#mask-10)">
                    <g transform="translate(-396.000000, -23.000000)">
                        <mask id="mask-12" fill="white">
                            <use xlink:href="#path-11"></use>
                        </mask>
                        <g id="SVGID_11_" stroke="none" fill="none"></g>
                        <rect id="Rectangle-path" stroke="none" fill="#FFFFFF" fill-rule="nonzero" mask="url(#mask-12)" x="391" y="17.5" width="32.9" height="20.4"></rect>
                    </g>
                </g>
            </g>
            <g id="Clipped" transform="translate(353.000000, 57.000000)">
                <mask id="mask-14" fill="white">
                    <use xlink:href="#path-13"></use>
                </mask>
                <g id="SVGID_13_"></g>
                <g mask="url(#mask-14)">
                    <g transform="translate(-370.000000, -20.000000)">
                        <mask id="mask-16" fill="white">
                            <use xlink:href="#path-15"></use>
                        </mask>
                        <g id="SVGID_15_" stroke="none" fill="none"></g>
                        <rect id="Rectangle-path" stroke="none" fill="#FFFFFF" fill-rule="nonzero" mask="url(#mask-16)" x="364.8" y="15.2" width="29.7" height="24.6"></rect>
                    </g>
                </g>
            </g>
            <g id="Clipped" transform="translate(327.000000, 58.000000)">
                <mask id="mask-18" fill="white">
                    <use xlink:href="#path-17"></use>
                </mask>
                <g id="SVGID_17_"></g>
                <g mask="url(#mask-18)">
                    <g transform="translate(-344.000000, -21.000000)">
                        <mask id="mask-20" fill="white">
                            <use xlink:href="#path-19"></use>
                        </mask>
                        <g id="SVGID_19_" stroke="none" fill="none"></g>
                        <rect id="Rectangle-path" stroke="none" fill="#FFFFFF" fill-rule="nonzero" mask="url(#mask-20)" x="339" y="15.6" width="31.7" height="24.3"></rect>
                    </g>
                </g>
            </g>
            <g id="Clipped" transform="translate(572.000000, 70.000000)">
                <mask id="mask-22" fill="white">
                    <use xlink:href="#path-21"></use>
                </mask>
                <g id="SVGID_21_"></g>
                <g mask="url(#mask-22)">
                    <g transform="translate(-397.000000, -22.000000)">
                        <mask id="mask-24" fill="white">
                            <use xlink:href="#path-23"></use>
                        </mask>
                        <g id="SVGID_23_" stroke="none" fill="none"></g>
                        <rect id="Rectangle-path" stroke="none" fill="#FFFFFF" fill-rule="nonzero" mask="url(#mask-24)" x="391.7" y="16.8" width="32.9" height="20.4"></rect>
                    </g>
                </g>
            </g>
            <g id="Clipped" transform="translate(546.000000, 68.000000)">
                <mask id="mask-26" fill="white">
                    <use xlink:href="#path-25"></use>
                </mask>
                <g id="SVGID_25_"></g>
                <g mask="url(#mask-26)">
                    <g transform="translate(-371.000000, -20.000000)">
                        <mask id="mask-28" fill="white">
                            <use xlink:href="#path-27"></use>
                        </mask>
                        <g id="SVGID_27_" stroke="none" fill="none"></g>
                        <rect id="Rectangle-path" stroke="none" fill="#FFFFFF" fill-rule="nonzero" mask="url(#mask-28)" x="365.5" y="14.5" width="29.7" height="24.6"></rect>
                    </g>
                </g>
            </g>
            <g id="Clipped" transform="translate(520.000000, 68.000000)">
                <mask id="mask-30" fill="white">
                    <use xlink:href="#path-29"></use>
                </mask>
                <g id="SVGID_29_"></g>
                <g mask="url(#mask-30)">
                    <g transform="translate(-345.000000, -20.000000)">
                        <mask id="mask-32" fill="white">
                            <use xlink:href="#path-31"></use>
                        </mask>
                        <g id="SVGID_31_" stroke="none" fill="none"></g>
                        <rect id="Rectangle-path" stroke="none" fill="#FFFFFF" fill-rule="nonzero" mask="url(#mask-32)" x="339.6" y="14.9" width="31.7" height="24.3"></rect>
                    </g>
                </g>
            </g>
            <path d="M449.6,100.4 L181.4,100.4 C159.1,100.4 140.8,82.1 140.8,59.8 L140.8,40.7 C140.8,18.4 159.1,0.1 181.4,0.1 L449.7,0.1 C472,0.1 490.3,18.4 490.3,40.7 L490.3,59.8 C490.2,82.1 471.9,100.4 449.6,100.4 Z" id="Shape" fill="#FFFFFF" fill-rule="nonzero"></path>
            <g id="Group" transform="translate(60.000000, 67.000000)" fill="#FFFFFF" fill-rule="nonzero">
                <path d="M10.1,7.6 C10.1,12.2 8.4,14.8 5.4,14.8 C2.7,14.8 0.9,12.3 0.9,7.8 C0.9,3.2 2.9,0.7 5.6,0.7 C8.5,0.6 10.1,3.2 10.1,7.6 Z M2.7,7.8 C2.7,11.3 3.8,13.4 5.5,13.4 C7.4,13.4 8.3,11.2 8.3,7.7 C8.3,4.3 7.4,2.1 5.5,2.1 C3.9,2.1 2.7,4.1 2.7,7.8 Z" id="Shape"></path>
                <path d="M12.9,13.2 C13.3,13.2 13.8,13.2 14.4,13.1 C15.5,13 16.5,12.5 17.3,11.8 C18.2,11 18.9,9.8 19.1,8.2 L19,8.2 C18.2,9.1 17.2,9.7 15.8,9.7 C13.3,9.7 11.8,7.9 11.8,5.5 C11.8,2.9 13.7,0.6 16.5,0.6 C19.3,0.6 21,2.9 21,6.4 C21,9.4 20,11.5 18.6,12.8 C17.6,13.8 16.1,14.5 14.6,14.6 C13.9,14.7 13.3,14.7 12.9,14.7 L12.9,13.2 Z M13.6,5.4 C13.6,7.1 14.6,8.3 16.2,8.3 C17.4,8.3 18.4,7.7 18.9,6.9 C19,6.7 19.1,6.5 19.1,6.2 C19.1,3.9 18.2,2.1 16.3,2.1 C14.7,2.1 13.6,3.4 13.6,5.4 Z" id="Shape"></path>
                <path d="M22.8,6 C22.8,5.2 23.3,4.7 24.1,4.7 C24.9,4.7 25.3,5.2 25.3,6 C25.3,6.7 24.8,7.3 24,7.3 C23.3,7.3 22.8,6.8 22.8,6 Z M22.8,13.5 C22.8,12.7 23.3,12.2 24.1,12.2 C24.9,12.2 25.3,12.7 25.3,13.5 C25.3,14.2 24.8,14.8 24,14.8 C23.3,14.8 22.8,14.2 22.8,13.5 Z" id="Shape"></path>
                <path d="M32.7,14.5 L32.7,10.8 L26.4,10.8 L26.4,9.6 L32.5,0.9 L34.5,0.9 L34.5,9.4 L36.4,9.4 L36.4,10.8 L34.5,10.8 L34.5,14.5 L32.7,14.5 Z M32.7,9.4 L32.7,4.8 C32.7,4.1 32.7,3.4 32.8,2.7 L32.7,2.7 C32.3,3.5 31.9,4.1 31.6,4.7 L28.3,9.3 L32.7,9.3 L32.7,9.4 Z" id="Shape"></path>
                <polygon id="Shape" points="41.8 2.6 41.8 2.6 39.4 3.9 39 2.5 42 0.9 43.6 0.9 43.6 14.5 41.8 14.5"></polygon>
            </g>
            <polygon id="Shape" fill="url(#linearGradient-33)" fill-rule="nonzero" points="90.4 308.4 90.4 326.4 90.4 663.6 537.1 663.6 537.1 326.4 537.1 308.4"></polygon>
            <rect id="Rectangle-path" fill="#F5F5F5" fill-rule="nonzero" x="94.7" y="313.2" width="435.7" height="17.4"></rect>
            <circle id="Oval" fill="#FF5252" fill-rule="nonzero" cx="107.3" cy="321.6" r="4.2"></circle>
            <circle id="Oval" fill="#FFFF00" fill-rule="nonzero" cx="118.9" cy="321.6" r="4.2"></circle>
            <circle id="Oval" fill="#69F0AE" fill-rule="nonzero" cx="130.5" cy="321.6" r="4.2"></circle>
            <g id="version-a" transform="translate(96.000000, 330.000000)" fill-rule="nonzero">
                <rect id="Rectangle-path" fill="#FFFFFF" x="0.7" y="0.5" width="216.3" height="326.8"></rect>
                <rect id="Rectangle-path" fill="#25DDDF" x="37.5" y="114.7" width="115.8" height="9.5"></rect>
                <rect id="Rectangle-path" fill="url(#linearGradient-34)" x="19.1" y="155.8" width="158.9" height="8.4"></rect>
                <rect id="Rectangle-path" fill="url(#linearGradient-35)" x="19.1" y="168.9" width="158.9" height="8.4"></rect>
                <rect id="Rectangle-path" fill="#25DDDF" x="20.7" y="143.6" width="156.3" height="5.8"></rect>
                <rect id="Rectangle-path" fill="#25DDDF" x="20.7" y="183.1" width="156.3" height="5.8"></rect>
                <rect id="Rectangle-path" fill="#25DDDF" x="20.7" y="196.3" width="156.3" height="5.8"></rect>
                <path d="M89.1,61 L83.6,77.8 L76.5,77.8 L94.6,24.5 L102.9,24.5 L121.1,77.8 L113.7,77.8 L108,61 L89.1,61 Z M106.6,55.7 L101.4,40.4 C100.2,36.9 99.4,33.8 98.6,30.7 L98.4,30.7 C97.6,33.9 96.7,37.1 95.7,40.4 L90.5,55.8 L106.6,55.8 L106.6,55.7 Z" id="Shape" fill="#25DDDF"></path>
                <g id="Group" transform="translate(26.000000, 239.000000)" fill="#FDCBA9">
                    <polygon id="Shape" points="21.1 9.5 21.1 26.4 37.4 26.4 37.4 30.7 21.1 30.7 21.1 47.8 16.5 47.8 16.5 30.7 0.2 30.7 0.2 26.4 16.5 26.4 16.5 9.5"></polygon>
                    <polygon id="Shape" points="57.3 6.9 57.2 6.9 49.1 11.3 47.9 6.5 58 1 63.4 1 63.4 47.8 57.3 47.8"></polygon>
                    <path d="M100,47.8 L100,35 L78.3,35 L78.3,30.8 L99.2,0.9 L106,0.9 L106,30 L112.6,30 L112.6,35 L106,35 L106,47.7 L100,47.7 L100,47.8 Z M100,30.1 L100,14.5 C100,12.1 100.1,9.6 100.2,7.2 L100,7.2 C98.6,9.9 97.4,12 96.1,14.1 L84.7,30 L84.7,30.1 L100,30.1 Z" id="Shape"></path>
                    <path d="M138.5,14.1 C138.5,24 133.3,28.9 127.3,28.9 C121.5,28.9 116.4,24.2 116.4,14.8 C116.4,5.4 121.5,0.2 127.7,0.2 C134.2,0.2 138.5,5.2 138.5,14.1 Z M121.3,14.6 C121.2,20.6 123.4,25.1 127.3,25.1 C131.5,25.1 133.3,20.6 133.3,14.4 C133.3,8.7 131.6,4 127.3,4 C123.4,4 121.3,8.7 121.3,14.6 Z M126.8,48.6 L154.3,0.2 L158.3,0.2 L130.8,48.6 L126.8,48.6 Z M168.9,33.5 C168.9,43.4 163.7,48.3 157.7,48.3 C151.9,48.3 146.8,43.6 146.8,34.3 C146.8,24.9 151.9,19.6 158.1,19.6 C164.7,19.5 168.9,24.6 168.9,33.5 Z M151.8,33.9 C151.7,39.9 154,44.4 157.9,44.4 C162.1,44.4 163.9,39.9 163.9,33.7 C163.9,28 162.2,23.3 157.9,23.3 C154,23.4 151.8,28 151.8,33.9 Z" id="Shape"></path>
                </g>
            </g>
            <g id="version-b" transform="translate(115.000000, 330.000000)" fill-rule="nonzero">
                <rect id="Rectangle-path" fill="#25DDDF" x="199.5" y="0.5" width="217.8" height="326.8"></rect>
                <rect id="Rectangle-path" fill="url(#linearGradient-36)" x="16.4" y="113.1" width="119.4" height="13.2"></rect>
                <rect id="Rectangle-path" fill="url(#linearGradient-37)" x="245.8" y="113.1" width="119.4" height="13.2"></rect>
                <rect id="Rectangle-path" fill="url(#linearGradient-38)" x="0.1" y="142.6" width="158.9" height="8.4"></rect>
                <rect id="Rectangle-path" fill="url(#linearGradient-39)" x="229.5" y="142.6" width="158.9" height="8.4"></rect>
                <rect id="Rectangle-path" fill="url(#linearGradient-40)" x="229.5" y="155.8" width="158.9" height="8.4"></rect>
                <rect id="Rectangle-path" fill="url(#linearGradient-41)" x="229.5" y="168.9" width="158.9" height="8.4"></rect>
                <rect id="Rectangle-path" fill="url(#linearGradient-42)" x="229.5" y="182.1" width="158.9" height="8.4"></rect>
                <rect id="Rectangle-path" fill="url(#linearGradient-43)" x="229.5" y="195.2" width="158.9" height="8.4"></rect>
                <rect id="Rectangle-path" fill="url(#linearGradient-44)" x="0.1" y="182.1" width="158.9" height="8.4"></rect>
                <rect id="Rectangle-path" fill="url(#linearGradient-45)" x="0.1" y="195.2" width="158.9" height="8.4"></rect>
                <rect id="Rectangle-path" fill="#25DDDF" x="1.7" y="156.8" width="156.3" height="5.8"></rect>
                <rect id="Rectangle-path" fill="#25DDDF" x="1.7" y="170" width="156.3" height="5.8"></rect>
                <rect id="Rectangle-path" fill="#FFFFFF" x="247.4" y="114.7" width="115.8" height="9.5"></rect>
                <rect id="Rectangle-path" fill="#FFFFFF" x="230.6" y="143.6" width="156.3" height="5.8"></rect>
                <rect id="Rectangle-path" fill="#FFFFFF" x="230.6" y="156.8" width="156.3" height="5.8"></rect>
                <rect id="Rectangle-path" fill="#FFFFFF" x="230.6" y="170" width="156.3" height="5.8"></rect>
                <rect id="Rectangle-path" fill="#FFFFFF" x="230.6" y="183.1" width="156.3" height="5.8"></rect>
                <rect id="Rectangle-path" fill="#FFFFFF" x="230.6" y="196.3" width="156.3" height="5.8"></rect>
                <path d="M292.1,26.2 C294.8,25.6 299.2,25.2 303.5,25.2 C309.8,25.2 313.8,26.3 316.8,28.7 C319.3,30.6 320.8,33.5 320.8,37.3 C320.8,42 317.7,46.1 312.6,48 L312.6,48.1 C317.2,49.3 322.6,53.1 322.6,60.3 C322.6,64.5 320.9,67.6 318.5,70 C315.1,73.1 309.6,74.5 301.7,74.5 C297.4,74.5 294.1,74.2 292,73.9 L292,26.2 L292.1,26.2 Z M298.4,46.1 L304.1,46.1 C310.7,46.1 314.6,42.6 314.6,38 C314.6,32.3 310.3,30.1 303.9,30.1 C301,30.1 299.4,30.3 298.4,30.5 L298.4,46.1 Z M298.4,69.4 C299.6,69.6 301.4,69.7 303.7,69.7 C310.2,69.7 316.2,67.3 316.2,60.3 C316.2,53.7 310.5,50.9 303.7,50.9 L298.5,50.9 L298.5,69.4 L298.4,69.4 Z" id="Shape" fill="#FFFFFF"></path>
            </g>
            <rect id="Rectangle-path" fill="url(#linearGradient-46)" fill-rule="nonzero" x="160" y="804.1" width="316.1" height="352.8"></rect>
            <rect id="Rectangle-path" fill="#ECEFF1" fill-rule="nonzero" x="165.3" y="1039.7" width="305.7" height="109.6"></rect>
            <g id="Group" opacity="0.5" transform="translate(283.000000, 1065.000000)" fill="#64FFDA" fill-rule="nonzero">
                <rect id="Rectangle-path" x="0.9" y="0.7" width="11.8" height="56.1"></rect>
            </g>
            <g id="Group" opacity="0.4" transform="translate(307.000000, 1065.000000)" fill="#64FFDA" fill-rule="nonzero">
                <rect id="Rectangle-path" x="0.3" y="0.7" width="11.8" height="56.1"></rect>
            </g>
            <g id="Group" opacity="0.3" transform="translate(330.000000, 1065.000000)" fill="#64FFDA" fill-rule="nonzero">
                <rect id="Rectangle-path" x="0.7" y="0.7" width="11.8" height="56.1"></rect>
            </g>
            <circle id="Oval" fill="#25DDDF" fill-rule="nonzero" cx="427.7" cy="1093.4" r="28.6"></circle>
            <rect id="Rectangle-path" fill="#ECEFF1" fill-rule="nonzero" x="165.3" y="925.9" width="305.7" height="109.6"></rect>
            <g id="Group" opacity="0.5" transform="translate(283.000000, 951.000000)" fill="#64FFDA" fill-rule="nonzero">
                <rect id="Rectangle-path" x="0.9" y="0.9" width="11.8" height="56.1"></rect>
            </g>
            <g id="Group" opacity="0.4" transform="translate(307.000000, 951.000000)" fill="#64FFDA" fill-rule="nonzero">
                <rect id="Rectangle-path" x="0.3" y="0.9" width="11.8" height="56.1"></rect>
            </g>
            <g id="Group" opacity="0.3" transform="translate(330.000000, 951.000000)" fill="#64FFDA" fill-rule="nonzero">
                <rect id="Rectangle-path" x="0.7" y="0.9" width="11.8" height="56.1"></rect>
            </g>
            <circle id="Oval" fill="#25DDDF" fill-rule="nonzero" cx="427.7" cy="979.6" r="28.6"></circle>
            <rect id="Rectangle-path" fill="#ECEFF1" fill-rule="nonzero" x="165.3" y="812" width="305.7" height="109.6"></rect>
            <g id="Group" opacity="0.5" transform="translate(283.000000, 838.000000)" fill="#64FFDA" fill-rule="nonzero">
                <rect id="Rectangle-path" x="0.9" y="0" width="11.8" height="56.1"></rect>
            </g>
            <g id="Group" opacity="0.4" transform="translate(307.000000, 838.000000)" fill="#64FFDA" fill-rule="nonzero">
                <rect id="Rectangle-path" x="0.3" y="0" width="11.8" height="56.1"></rect>
            </g>
            <g id="Group" opacity="0.3" transform="translate(330.000000, 838.000000)" fill="#64FFDA" fill-rule="nonzero">
                <rect id="Rectangle-path" x="0.7" y="0" width="11.8" height="56.1"></rect>
            </g>
            <circle id="Oval" fill="url(#linearGradient-47)" fill-rule="nonzero" cx="427.7" cy="865.7" r="30.8"></circle>
            <circle id="Oval" fill="url(#linearGradient-48)" fill-rule="nonzero" cx="427.7" cy="980.3" r="30.8"></circle>
            <circle id="Oval" fill="url(#linearGradient-49)" fill-rule="nonzero" cx="427.7" cy="1094.2" r="30.8"></circle>
            <circle id="Oval" fill="#25DDDF" fill-rule="nonzero" cx="427.7" cy="865.7" r="28.6"></circle>
            <g id="Group" transform="translate(177.000000, 805.000000)" stroke="#FDCBA9" stroke-width="3">
                <path d="M287.2,187 C286.9,188.1 286.5,189.3 286.2,190.4" id="Shape"></path>
                <path d="M238.3,32.1 C239.2,32.8 240.1,33.6 241,34.4" id="Shape"></path>
            </g>
            <g id="traces-iteration" transform="translate(150.000000, 805.000000)" stroke="#FDCBA9" stroke-width="3">
                <path className="path" d="M277.2,336.7 C245.5,353.9 210,362.9 173.9,362.9 C103.2,362.9 40.4,329.1 0.8,276.7" id="Shape"></path>
                <path className="path2" d="M310.9,197 C290.2,252.6 236.7,292.1 173.9,292.1 C93.2,292.1 27.8,226.7 27.8,146 C27.8,65.3 93.2,0 173.9,0 C205.9,0 237.1,10.5 262.5,29.9" id="Shape"></path>
                <g id="Group" transform="translate(161.000000, 63.000000)">
                    <path className="path" d="M0.5,1.2 C1.7,1 2.9,0.9 4,0.8" id="Shape"></path>
                    <path className="path2" d="M10.8,0.3 C11.5,0.3 12.2,0.3 12.9,0.3 C58.6,0.3 95.7,37.4 95.7,83.1 C95.7,97.2 92.1,111.1 85.2,123.4" id="Shape"></path>
                    <path className="path" d="M83.5,126.4 C82.9,127.4 82.2,128.4 81.6,129.4" id="Shape"></path>
                </g>
            </g>
            <circle id="Oval" fill="#25DDDF" fill-rule="nonzero" cx="54.7" cy="761.2" r="29.7"></circle>
            <g id="Group" transform="translate(41.000000, 740.000000)" fill-rule="nonzero">
                <path d="M26.4,23.6 L26.4,27 C26.4,27.3 26.3,27.6 26.1,27.8 C25.9,28 25.6,28.1 25.2,28.1 L22,28.1 L22,36.6 L16.8,36.6 L16.8,28.1 L2.3,28.1 C1.9,28.1 1.5,28 1.2,27.7 C0.9,27.5 0.7,27.1 0.6,26.8 L-7.10542736e-15,23.8 L16.4,1.8 L22,1.8 L22,23.4 L26.4,23.4 L26.4,23.6 Z M16.9,23.6 L16.9,12.2 C16.9,11.1 17,9.9 17.1,8.6 L6.3,23.5 L16.9,23.5 L16.9,23.6 Z" id="Shape" fill="#FFFFFF"></path>
                <path d="M72.5,4.8 C72.5,5.3 72.4,5.8 72.2,6.2 C72,6.6 71.7,7 71.4,7.4 C71.1,7.7 70.7,8 70.2,8.2 C69.7,8.4 69.2,8.5 68.7,8.5 C68.2,8.5 67.7,8.4 67.2,8.2 C66.7,8 66.3,7.7 66,7.4 C65.7,7.1 65.4,6.7 65.2,6.2 C65,5.8 64.9,5.3 64.9,4.8 C64.9,4.3 65,3.8 65.2,3.3 C65.4,2.8 65.7,2.4 66,2.1 C66.3,1.8 66.7,1.5 67.2,1.3 C67.7,1.1 68.1,1 68.7,1 C69.2,1 69.7,1.1 70.2,1.3 C70.7,1.5 71.1,1.8 71.4,2.1 C71.7,2.4 72,2.8 72.2,3.3 C72.4,3.8 72.5,4.3 72.5,4.8 Z M71.7,12 L71.7,36.6 L65.7,36.6 L65.7,12 L71.7,12 Z" id="Shape" fill="#25DDDF"></path>
                <path d="M86,37 C83.9,37 82.2,36.4 81.1,35.2 C80,34 79.4,32.3 79.4,30.2 L79.4,16.4 L76.9,16.4 C76.6,16.4 76.3,16.3 76.1,16.1 C75.9,15.9 75.8,15.6 75.8,15.2 L75.8,12.8 L79.8,12.2 L81,5.5 C81.1,5.2 81.2,4.9 81.5,4.8 C81.7,4.6 82,4.5 82.4,4.5 L85.5,4.5 L85.5,12.3 L92.1,12.3 L92.1,16.5 L85.5,16.5 L85.5,29.8 C85.5,30.6 85.7,31.2 86.1,31.6 C86.5,32 87,32.2 87.6,32.2 C88,32.2 88.3,32.2 88.5,32.1 C88.7,32 89,31.9 89.1,31.8 C89.3,31.7 89.4,31.6 89.6,31.5 C89.7,31.4 89.9,31.4 90,31.4 C90.2,31.4 90.3,31.4 90.4,31.5 C90.5,31.6 90.6,31.7 90.8,31.9 L92.6,34.8 C91.7,35.5 90.7,36.1 89.6,36.4 C88.3,36.8 87.2,37 86,37 Z" id="Shape" fill="#25DDDF"></path>
                <path d="M100,25.1 C100.1,26.4 100.3,27.5 100.7,28.4 C101.1,29.3 101.5,30.1 102.1,30.7 C102.7,31.3 103.4,31.7 104.2,32 C105,32.3 105.9,32.4 106.8,32.4 C107.7,32.4 108.6,32.3 109.3,32.1 C110,31.9 110.6,31.6 111.1,31.4 C111.6,31.1 112.1,30.9 112.5,30.7 C112.9,30.5 113.3,30.4 113.6,30.4 C114.1,30.4 114.5,30.6 114.7,31 L116.4,33.2 C115.7,34 115,34.6 114.2,35.1 C113.4,35.6 112.5,36 111.6,36.3 C110.7,36.6 109.8,36.8 108.9,37 C108,37.1 107.1,37.2 106.2,37.2 C104.5,37.2 102.9,36.9 101.4,36.3 C99.9,35.7 98.6,34.9 97.6,33.8 C96.5,32.7 95.7,31.3 95,29.7 C94.4,28.1 94.1,26.2 94.1,24 C94.1,22.3 94.4,20.7 94.9,19.3 C95.4,17.9 96.2,16.5 97.2,15.4 C98.2,14.3 99.5,13.4 100.9,12.8 C102.4,12.2 104,11.8 105.9,11.8 C107.5,11.8 108.9,12 110.2,12.5 C111.5,13 112.6,13.7 113.6,14.7 C114.5,15.7 115.3,16.8 115.8,18.2 C116.3,19.6 116.6,21.2 116.6,22.9 C116.6,23.8 116.5,24.4 116.3,24.7 C116.1,25 115.7,25.2 115.2,25.2 L100,25.2 L100,25.1 Z M111.3,21.5 C111.3,20.7 111.2,20 111,19.3 C110.8,18.6 110.5,18 110,17.5 C109.6,17 109,16.6 108.4,16.3 C107.7,16 107,15.9 106.1,15.9 C104.4,15.9 103,16.4 102.1,17.4 C101.1,18.4 100.5,19.8 100.2,21.6 L111.3,21.6 L111.3,21.5 Z" id="Shape" fill="#25DDDF"></path>
                <path d="M126.6,16.3 C127.4,14.8 128.3,13.7 129.3,12.8 C130.4,12 131.6,11.5 133,11.5 C134.1,11.5 135,11.7 135.7,12.2 L135.3,16.6 C135.2,16.9 135.1,17.1 135,17.2 C134.8,17.3 134.6,17.4 134.4,17.4 C134.2,17.4 133.8,17.4 133.3,17.3 C132.8,17.2 132.4,17.2 131.9,17.2 C131.2,17.2 130.7,17.3 130.1,17.5 C129.6,17.7 129.1,18 128.7,18.3 C128.3,18.7 127.9,19.1 127.6,19.6 C127.3,20.1 127,20.7 126.7,21.4 L126.7,36.6 L120.8,36.6 L120.8,12 L124.3,12 C124.9,12 125.3,12.1 125.6,12.3 C125.8,12.5 126,12.9 126.1,13.5 L126.6,16.3 Z" id="Shape" fill="#25DDDF"></path>
                <path d="M138.1,15.4 C140.9,12.8 144.3,11.5 148.3,11.5 C149.7,11.5 151,11.7 152.2,12.2 C153.3,12.7 154.3,13.3 155.1,14.2 C155.9,15 156.5,16 156.9,17.2 C157.3,18.4 157.5,19.6 157.5,21 L157.5,36.6 L154.8,36.6 C154.2,36.6 153.8,36.5 153.5,36.3 C153.2,36.1 153,35.8 152.8,35.3 L152.3,33.5 C151.7,34.1 151.1,34.6 150.5,35 C149.9,35.4 149.3,35.8 148.7,36.1 C148.1,36.4 147.4,36.6 146.6,36.8 C145.9,37 145.1,37 144.2,37 C143.2,37 142.2,36.9 141.3,36.6 C140.4,36.3 139.7,35.9 139,35.3 C138.4,34.7 137.9,34 137.5,33.2 C137.1,32.4 137,31.4 137,30.3 C137,29.7 137.1,29.1 137.3,28.4 C137.5,27.8 137.8,27.2 138.3,26.6 C138.8,26 139.4,25.5 140.1,25 C140.9,24.5 141.8,24.1 142.9,23.7 C144,23.3 145.3,23 146.7,22.8 C148.2,22.6 149.8,22.4 151.7,22.4 L151.7,21 C151.7,19.4 151.3,18.1 150.6,17.3 C149.9,16.5 148.9,16.1 147.6,16.1 C146.6,16.1 145.8,16.2 145.2,16.4 C144.6,16.6 144,16.9 143.5,17.2 C143,17.5 142.6,17.7 142.2,18 C141.8,18.2 141.4,18.3 140.9,18.3 C140.5,18.3 140.1,18.2 139.8,18 C139.5,17.8 139.3,17.5 139.1,17.2 L138.1,15.4 Z M151.7,26.1 C150,26.2 148.5,26.3 147.4,26.5 C146.2,26.7 145.3,27 144.6,27.3 C143.9,27.6 143.4,28 143.1,28.5 C142.8,28.9 142.6,29.4 142.6,30 C142.6,31 142.9,31.8 143.5,32.2 C144.1,32.6 144.9,32.9 145.9,32.9 C147.1,32.9 148.2,32.7 149.1,32.2 C150,31.8 150.9,31.1 151.7,30.2 L151.7,26.1 Z" id="Shape" fill="#25DDDF"></path>
                <path d="M187.5,36.6 L181.6,36.6 L181.6,16.4 L170.2,16.4 L170.2,29.7 C170.2,30.5 170.4,31.1 170.8,31.5 C171.2,31.9 171.7,32.1 172.3,32.1 C172.7,32.1 173,32.1 173.2,32 C173.4,31.9 173.7,31.8 173.8,31.7 C174,31.6 174.1,31.5 174.3,31.4 C174.4,31.3 174.6,31.3 174.7,31.3 C174.9,31.3 175,31.3 175.1,31.4 C175.2,31.5 175.3,31.6 175.5,31.8 L177.3,34.7 C176.4,35.4 175.4,36 174.3,36.3 C173.2,36.7 172,36.9 170.8,36.9 C168.7,36.9 167,36.3 165.9,35.1 C164.8,33.9 164.2,32.2 164.2,30.1 L164.2,16.3 L161.7,16.3 C161.4,16.3 161.1,16.2 160.9,16 C160.7,15.8 160.6,15.5 160.6,15.1 L160.6,12.7 L164.6,12 L165.8,5.3 C165.9,5 166,4.7 166.3,4.6 C166.5,4.4 166.8,4.3 167.2,4.3 L170.3,4.3 L170.3,12.1 L187.7,12.1 L187.7,36.6 L187.5,36.6 Z M188.5,4.7 C188.5,5.2 188.4,5.7 188.2,6.2 C188,6.7 187.7,7.1 187.4,7.4 C187.1,7.7 186.6,8 186.2,8.2 C185.7,8.4 185.2,8.5 184.7,8.5 C184.2,8.5 183.7,8.4 183.3,8.2 C182.9,8 182.5,7.7 182.1,7.4 C181.7,7.1 181.5,6.7 181.3,6.2 C181.1,5.7 181,5.3 181,4.7 C181,4.2 181.1,3.7 181.3,3.2 C181.5,2.7 181.8,2.3 182.1,2 C182.4,1.7 182.8,1.4 183.3,1.2 C183.7,1 184.2,0.9 184.7,0.9 C185.2,0.9 185.7,1 186.2,1.2 C186.7,1.4 187.1,1.7 187.4,2 C187.7,2.3 188,2.7 188.2,3.2 C188.4,3.7 188.5,4.2 188.5,4.7 Z" id="Shape" fill="#25DDDF"></path>
                <path d="M204.5,11.6 C206.3,11.6 208,11.9 209.5,12.5 C211,13.1 212.3,13.9 213.3,15 C214.4,16.1 215.2,17.4 215.8,19 C216.4,20.6 216.7,22.3 216.7,24.3 C216.7,26.3 216.4,28 215.8,29.6 C215.2,31.2 214.4,32.5 213.3,33.6 C212.2,34.7 211,35.6 209.5,36.1 C208,36.7 206.3,37 204.5,37 C202.7,37 201,36.7 199.5,36.1 C198,35.5 196.7,34.7 195.6,33.6 C194.5,32.5 193.7,31.2 193.1,29.6 C192.5,28 192.2,26.3 192.2,24.3 C192.2,22.4 192.5,20.6 193.1,19 C193.7,17.4 194.5,16.1 195.6,15 C196.7,13.9 197.9,13.1 199.5,12.5 C200.9,11.9 202.6,11.6 204.5,11.6 Z M204.5,32.4 C206.5,32.4 208.1,31.7 209,30.3 C210,28.9 210.5,26.9 210.5,24.3 C210.5,21.6 210,19.6 209,18.2 C208,16.8 206.5,16.1 204.5,16.1 C202.4,16.1 200.9,16.8 199.9,18.2 C198.9,19.6 198.4,21.6 198.4,24.3 C198.4,26.9 198.9,29 199.9,30.3 C200.8,31.7 202.4,32.4 204.5,32.4 Z" id="Shape" fill="#25DDDF"></path>
                <path d="M226.7,15 C227.2,14.5 227.7,14 228.3,13.6 C228.9,13.2 229.4,12.8 230.1,12.5 C230.7,12.2 231.4,12 232.1,11.8 C232.8,11.6 233.6,11.5 234.4,11.5 C235.7,11.5 236.9,11.7 238,12.2 C239.1,12.7 239.9,13.3 240.6,14.1 C241.3,14.9 241.8,15.9 242.2,17.1 C242.6,18.2 242.7,19.5 242.7,20.9 L242.7,36.6 L236.8,36.6 L236.8,21 C236.8,19.5 236.5,18.3 235.8,17.5 C235.1,16.7 234.1,16.3 232.7,16.3 C231.7,16.3 230.7,16.5 229.8,17 C228.9,17.5 228.1,18.1 227.3,18.9 L227.3,36.7 L221.4,36.7 L221.4,12 L225,12 C225.8,12 226.3,12.4 226.5,13.1 L226.7,15 Z" id="Shape" fill="#25DDDF"></path>
            </g>
            <circle id="Oval" fill="#FFFFFF" fill-rule="nonzero" cx="51.7" cy="252.2" r="29.7"></circle>
            <g id="Group" transform="translate(39.000000, 234.000000)" fill-rule="nonzero">
                <path d="M1.3,10.7 C1.5,9 2,7.6 2.7,6.3 C3.4,5 4.2,4 5.3,3.2 C6.3,2.4 7.5,1.7 8.9,1.3 C10.2,0.9 11.7,0.7 13.2,0.7 C14.8,0.7 16.2,0.9 17.5,1.4 C18.8,1.9 19.9,2.5 20.8,3.3 C21.7,4.1 22.4,5.1 22.9,6.1 C23.4,7.2 23.6,8.4 23.6,9.6 C23.6,10.7 23.5,11.7 23.2,12.5 C23,13.3 22.6,14.1 22.1,14.7 C21.6,15.3 21.1,15.9 20.4,16.3 C19.7,16.7 18.9,17.1 18.1,17.4 C20.2,18.1 21.7,19.1 22.8,20.4 C23.8,21.7 24.3,23.4 24.3,25.5 C24.3,27.2 24,28.8 23.3,30.1 C22.6,31.4 21.8,32.5 20.7,33.4 C19.6,34.3 18.4,35 16.9,35.5 C15.4,36 14,36.2 12.4,36.2 C10.7,36.2 9.1,36 7.8,35.6 C6.5,35.2 5.4,34.6 4.4,33.8 C3.4,33 2.6,32.1 2,30.9 C1.3,29.8 0.8,28.5 0.3,27 L2.9,25.9 C3.6,25.6 4.2,25.5 4.8,25.7 C5.4,25.8 5.8,26.2 6.1,26.7 C6.4,27.3 6.7,27.8 7,28.4 C7.3,28.9 7.8,29.4 8.2,29.9 C8.7,30.3 9.2,30.7 9.9,30.9 C10.5,31.2 11.3,31.3 12.2,31.3 C13.2,31.3 14.1,31.1 14.8,30.8 C15.6,30.5 16.2,30 16.7,29.5 C17.2,29 17.6,28.4 17.8,27.7 C18,27 18.2,26.4 18.2,25.7 C18.2,24.9 18.1,24.1 17.9,23.4 C17.7,22.7 17.4,22.1 16.8,21.7 C16.2,21.2 15.4,20.8 14.4,20.6 C13.4,20.3 11.9,20.2 10.2,20.2 L10.2,16 C11.7,16 12.9,15.8 13.8,15.6 C14.7,15.4 15.5,15 16.1,14.5 C16.7,14 17.1,13.5 17.3,12.9 C17.5,12.3 17.6,11.6 17.6,10.8 C17.6,9.2 17.1,7.9 16.2,7.1 C15.3,6.3 14.1,5.8 12.6,5.8 C11.9,5.8 11.2,5.9 10.7,6.1 C10.1,6.3 9.6,6.6 9.1,6.9 C8.6,7.2 8.2,7.7 7.9,8.2 C7.6,8.7 7.3,9.2 7.2,9.8 C6.9,10.5 6.6,11 6.1,11.3 C5.7,11.5 5,11.6 4.2,11.5 L1.3,10.7 Z" id="Shape" fill="#25DDDF"></path>
                <path d="M75.4,10.7 C77.2,10.7 78.9,11 80.4,11.6 C81.9,12.2 83.2,13 84.2,14.1 C85.3,15.2 86.1,16.5 86.7,18.1 C87.3,19.7 87.6,21.4 87.6,23.4 C87.6,25.4 87.3,27.1 86.7,28.7 C86.1,30.3 85.3,31.6 84.2,32.7 C83.1,33.8 81.9,34.7 80.4,35.2 C78.9,35.7 77.2,36.1 75.4,36.1 C73.6,36.1 71.9,35.8 70.4,35.2 C68.9,34.6 67.6,33.8 66.5,32.7 C65.4,31.6 64.6,30.3 64,28.7 C63.4,27.1 63.1,25.4 63.1,23.4 C63.1,21.5 63.4,19.7 64,18.1 C64.6,16.5 65.4,15.2 66.5,14.1 C67.6,13 68.8,12.2 70.4,11.6 C71.9,11 73.5,10.7 75.4,10.7 Z M75.4,31.6 C77.4,31.6 79,30.9 79.9,29.5 C80.9,28.1 81.4,26.1 81.4,23.5 C81.4,20.8 80.9,18.8 79.9,17.4 C78.9,16 77.4,15.3 75.4,15.3 C73.3,15.3 71.8,16 70.8,17.4 C69.8,18.8 69.3,20.8 69.3,23.5 C69.3,26.2 69.8,28.2 70.8,29.5 C71.7,30.9 73.3,31.6 75.4,31.6 Z" id="Shape" fill="#FFFFFF"></path>
                <path d="M97.7,14.5 C98.7,13.4 99.9,12.4 101.1,11.7 C102.3,11 103.9,10.6 105.6,10.6 C106.9,10.6 108.2,10.9 109.3,11.4 C110.4,12 111.4,12.8 112.2,13.8 C113,14.9 113.6,16.2 114.1,17.7 C114.5,19.3 114.8,21 114.8,23.1 C114.8,24.9 114.6,26.6 114.1,28.2 C113.6,29.8 112.9,31.1 112,32.3 C111.1,33.5 110,34.4 108.7,35 C107.4,35.6 105.9,36 104.3,36 C102.9,36 101.7,35.8 100.8,35.4 C99.9,35 99,34.4 98.2,33.6 L98.2,43.7 L92,43.7 L92,11 L95.6,11 C96.4,11 96.9,11.4 97.1,12.1 L97.7,14.5 Z M98,29.4 C98.7,30.2 99.4,30.8 100.2,31.1 C101,31.4 101.9,31.6 102.8,31.6 C103.7,31.6 104.5,31.4 105.2,31.1 C105.9,30.8 106.5,30.3 107,29.6 C107.5,28.9 107.9,28 108.2,27 C108.5,26 108.6,24.7 108.6,23.3 C108.6,21.9 108.5,20.6 108.3,19.6 C108.1,18.6 107.7,17.8 107.3,17.2 C106.9,16.6 106.3,16.1 105.7,15.8 C105.1,15.5 104.4,15.4 103.6,15.4 C102.4,15.4 101.3,15.7 100.5,16.2 C99.6,16.7 98.8,17.5 98.1,18.4 L98.1,29.4 L98,29.4 Z" id="Shape" fill="#FFFFFF"></path>
                <path d="M143.8,35.8 L137.9,35.8 L137.9,15.6 L126.5,15.6 L126.5,28.9 C126.5,29.7 126.7,30.3 127.1,30.7 C127.5,31.1 128,31.3 128.6,31.3 C129,31.3 129.3,31.3 129.5,31.2 C129.7,31.1 130,31 130.1,30.9 C130.3,30.8 130.4,30.7 130.6,30.6 C130.7,30.5 130.9,30.5 131,30.5 C131.2,30.5 131.3,30.5 131.4,30.6 C131.5,30.7 131.6,30.8 131.8,31 L133.6,33.9 C132.7,34.6 131.7,35.2 130.6,35.5 C129.5,35.9 128.3,36.1 127.1,36.1 C125,36.1 123.3,35.5 122.2,34.3 C121.1,33.1 120.5,31.4 120.5,29.3 L120.5,15.5 L118,15.5 C117.7,15.5 117.4,15.4 117.2,15.2 C117,15 116.9,14.7 116.9,14.3 L116.9,12 L120.9,11.3 L122.1,4.6 C122.2,4.3 122.3,4 122.6,3.9 C122.8,3.7 123.1,3.6 123.5,3.6 L126.6,3.6 L126.6,11.4 L144,11.4 L144,35.8 L143.8,35.8 Z M144.8,3.9 C144.8,4.4 144.7,4.9 144.5,5.4 C144.3,5.9 144,6.3 143.7,6.6 C143.4,6.9 142.9,7.2 142.5,7.4 C142,7.6 141.5,7.7 141,7.7 C140.5,7.7 140,7.6 139.6,7.4 C139.2,7.2 138.8,6.9 138.4,6.6 C138,6.3 137.8,5.9 137.6,5.4 C137.4,4.9 137.3,4.5 137.3,3.9 C137.3,3.4 137.4,2.9 137.6,2.4 C137.8,1.9 138.1,1.5 138.4,1.2 C138.7,0.9 139.1,0.6 139.6,0.4 C140,0.2 140.5,0.1 141,0.1 C141.5,0.1 142,0.2 142.5,0.4 C143,0.6 143.4,0.9 143.7,1.2 C144,1.5 144.3,1.9 144.5,2.4 C144.7,2.9 144.8,3.3 144.8,3.9 Z" id="Shape" fill="#FFFFFF"></path>
                <path d="M149.9,35.8 L149.9,11.2 L153.5,11.2 C154.3,11.2 154.8,11.6 155,12.3 L155.4,14.1 C155.8,13.6 156.3,13.2 156.8,12.8 C157.3,12.4 157.8,12.1 158.3,11.8 C158.8,11.5 159.4,11.3 160,11.1 C160.6,10.9 161.3,10.8 162,10.8 C163.6,10.8 164.8,11.2 165.8,12.1 C166.8,13 167.5,14.1 168,15.4 C168.4,14.6 168.9,13.9 169.4,13.3 C170,12.7 170.6,12.2 171.3,11.9 C172,11.5 172.7,11.3 173.5,11.1 C174.3,10.9 175.1,10.8 175.8,10.8 C177.2,10.8 178.4,11 179.4,11.4 C180.4,11.8 181.3,12.4 182.1,13.2 C182.8,14 183.4,15 183.7,16.1 C184.1,17.3 184.3,18.6 184.3,20.1 L184.3,35.8 L178.4,35.8 L178.4,20.1 C178.4,18.5 178.1,17.4 177.4,16.6 C176.7,15.8 175.7,15.4 174.4,15.4 C173.8,15.4 173.2,15.5 172.7,15.7 C172.2,15.9 171.7,16.2 171.3,16.6 C170.9,17 170.6,17.5 170.4,18.1 C170.2,18.7 170.1,19.4 170.1,20.1 L170.1,35.8 L164.1,35.8 L164.1,20.1 C164.1,18.5 163.8,17.3 163.1,16.5 C162.4,15.7 161.5,15.4 160.2,15.4 C159.3,15.4 158.5,15.6 157.8,16 C157.1,16.4 156.4,17 155.7,17.7 L155.7,35.7 L149.9,35.7 L149.9,35.8 Z" id="Shape" fill="#FFFFFF"></path>
                <path d="M197,4 C197,4.5 196.9,5 196.7,5.4 C196.5,5.8 196.2,6.2 195.9,6.6 C195.6,6.9 195.2,7.2 194.7,7.4 C194.2,7.6 193.7,7.7 193.2,7.7 C192.7,7.7 192.2,7.6 191.7,7.4 C191.2,7.2 190.8,6.9 190.5,6.6 C190.2,6.3 189.9,5.9 189.7,5.4 C189.5,4.9 189.4,4.5 189.4,4 C189.4,3.5 189.5,3 189.7,2.5 C189.9,2 190.2,1.6 190.5,1.3 C190.8,1 191.2,0.7 191.7,0.5 C192.2,0.3 192.6,0.2 193.2,0.2 C193.7,0.2 194.2,0.3 194.7,0.5 C195.2,0.7 195.6,1 195.9,1.3 C196.2,1.6 196.5,2 196.7,2.5 C196.9,2.9 197,3.4 197,4 Z M196.2,11.1 L196.2,35.7 L190.2,35.7 L190.2,11.1 L196.2,11.1 Z" id="Shape" fill="#FFFFFF"></path>
                <path d="M219.9,13.6 C219.9,14 219.8,14.4 219.7,14.8 C219.6,15.2 219.4,15.5 219.1,15.8 L207.4,31.2 L219.5,31.2 L219.5,35.8 L200.5,35.8 L200.5,33.3 C200.5,33 200.6,32.7 200.7,32.3 C200.8,31.9 201,31.6 201.3,31.2 L213.1,15.6 L201.2,15.6 L201.2,11.1 L219.9,11.1 L219.9,13.6 Z" id="Shape" fill="#FFFFFF"></path>
                <path d="M223.7,14.6 C226.5,12 229.9,10.7 233.9,10.7 C235.3,10.7 236.6,10.9 237.8,11.4 C238.9,11.9 239.9,12.5 240.7,13.4 C241.5,14.2 242.1,15.2 242.5,16.4 C242.9,17.6 243.1,18.8 243.1,20.2 L243.1,35.8 L240.4,35.8 C239.8,35.8 239.4,35.7 239.1,35.5 C238.8,35.3 238.6,35 238.4,34.5 L237.9,32.7 C237.3,33.3 236.7,33.8 236.1,34.2 C235.5,34.6 234.9,35 234.3,35.3 C233.7,35.6 233,35.8 232.2,36 C231.5,36.2 230.7,36.2 229.8,36.2 C228.8,36.2 227.8,36.1 226.9,35.8 C226,35.5 225.3,35.1 224.6,34.5 C223.9,33.9 223.5,33.2 223.1,32.4 C222.7,31.6 222.6,30.6 222.6,29.5 C222.6,28.9 222.7,28.3 222.9,27.6 C223.1,27 223.4,26.4 223.9,25.8 C224.4,25.2 225,24.7 225.7,24.2 C226.5,23.7 227.4,23.3 228.5,22.9 C229.6,22.5 230.9,22.2 232.3,22 C233.7,21.8 235.4,21.6 237.3,21.6 L237.3,20.2 C237.3,18.6 236.9,17.3 236.2,16.5 C235.5,15.7 234.5,15.3 233.2,15.3 C232.2,15.3 231.4,15.4 230.8,15.6 C230.2,15.8 229.6,16.1 229.1,16.4 C228.6,16.7 228.2,16.9 227.8,17.2 C227.4,17.4 227,17.5 226.5,17.5 C226.1,17.5 225.7,17.4 225.4,17.2 C225.1,17 224.9,16.7 224.7,16.4 L223.7,14.6 Z M237.3,25.2 C235.6,25.3 234.1,25.4 233,25.6 C231.8,25.8 230.9,26.1 230.2,26.4 C229.5,26.7 229,27.1 228.7,27.6 C228.4,28 228.2,28.5 228.2,29.1 C228.2,30.1 228.5,30.9 229.1,31.3 C229.7,31.7 230.5,32 231.5,32 C232.7,32 233.8,31.8 234.7,31.3 C235.6,30.9 236.5,30.2 237.3,29.3 L237.3,25.2 Z" id="Shape" fill="#FFFFFF"></path>
                <path d="M273.2,35.8 L267.3,35.8 L267.3,15.6 L255.9,15.6 L255.9,28.9 C255.9,29.7 256.1,30.3 256.5,30.7 C256.9,31.1 257.4,31.3 258,31.3 C258.4,31.3 258.7,31.3 258.9,31.2 C259.1,31.1 259.4,31 259.5,30.9 C259.7,30.8 259.8,30.7 260,30.6 C260.1,30.5 260.3,30.5 260.4,30.5 C260.6,30.5 260.7,30.5 260.8,30.6 C260.9,30.7 261,30.8 261.2,31 L263,33.9 C262.1,34.6 261.1,35.2 260,35.5 C258.9,35.9 257.7,36.1 256.5,36.1 C254.4,36.1 252.7,35.5 251.6,34.3 C250.5,33.1 249.9,31.4 249.9,29.3 L249.9,15.5 L247.4,15.5 C247.1,15.5 246.8,15.4 246.6,15.2 C246.4,15 246.3,14.7 246.3,14.3 L246.3,12 L250.3,11.3 L251.5,4.6 C251.6,4.3 251.7,4 252,3.9 C252.2,3.7 252.5,3.6 252.9,3.6 L256,3.6 L256,11.4 L273.4,11.4 L273.4,35.8 L273.2,35.8 Z M274.2,3.9 C274.2,4.4 274.1,4.9 273.9,5.4 C273.7,5.9 273.4,6.3 273.1,6.6 C272.8,6.9 272.3,7.2 271.9,7.4 C271.4,7.6 270.9,7.7 270.4,7.7 C269.9,7.7 269.4,7.6 269,7.4 C268.6,7.2 268.2,6.9 267.8,6.6 C267.4,6.3 267.2,5.9 267,5.4 C266.8,4.9 266.7,4.5 266.7,3.9 C266.7,3.4 266.8,2.9 267,2.4 C267.2,1.9 267.5,1.5 267.8,1.2 C268.1,0.9 268.5,0.6 269,0.4 C269.4,0.2 269.9,0.1 270.4,0.1 C270.9,0.1 271.4,0.2 271.9,0.4 C272.4,0.6 272.8,0.9 273.1,1.2 C273.4,1.5 273.7,1.9 273.9,2.4 C274.1,2.9 274.2,3.3 274.2,3.9 Z" id="Shape" fill="#FFFFFF"></path>
                <path d="M290.1,10.7 C291.9,10.7 293.6,11 295.1,11.6 C296.6,12.2 297.9,13 298.9,14.1 C300,15.2 300.8,16.5 301.4,18.1 C302,19.7 302.3,21.4 302.3,23.4 C302.3,25.4 302,27.1 301.4,28.7 C300.8,30.3 300,31.6 298.9,32.7 C297.8,33.8 296.6,34.7 295.1,35.2 C293.6,35.7 291.9,36.1 290.1,36.1 C288.3,36.1 286.6,35.8 285.1,35.2 C283.6,34.6 282.3,33.8 281.2,32.7 C280.1,31.6 279.3,30.3 278.7,28.7 C278.1,27.1 277.8,25.4 277.8,23.4 C277.8,21.5 278.1,19.7 278.7,18.1 C279.3,16.5 280.1,15.2 281.2,14.1 C282.3,13 283.5,12.2 285.1,11.6 C286.6,11 288.3,10.7 290.1,10.7 Z M290.1,31.6 C292.1,31.6 293.7,30.9 294.6,29.5 C295.6,28.1 296.1,26.1 296.1,23.5 C296.1,20.8 295.6,18.8 294.6,17.4 C293.6,16 292.1,15.3 290.1,15.3 C288,15.3 286.5,16 285.5,17.4 C284.5,18.8 284,20.8 284,23.5 C284,26.2 284.5,28.2 285.5,29.5 C286.5,30.9 288,31.6 290.1,31.6 Z" id="Shape" fill="#FFFFFF"></path>
                <path d="M312.3,14.2 C312.8,13.7 313.3,13.2 313.9,12.8 C314.5,12.4 315,12 315.7,11.7 C316.3,11.4 317,11.2 317.7,11 C318.4,10.8 319.2,10.7 320,10.7 C321.3,10.7 322.5,10.9 323.6,11.4 C324.6,11.9 325.5,12.5 326.2,13.3 C326.9,14.1 327.4,15.1 327.8,16.3 C328.2,17.4 328.3,18.7 328.3,20.1 L328.3,35.8 L322.4,35.8 L322.4,20.1 C322.4,18.6 322.1,17.4 321.4,16.6 C320.7,15.8 319.7,15.4 318.3,15.4 C317.3,15.4 316.3,15.6 315.4,16.1 C314.5,16.6 313.7,17.2 312.9,18 L312.9,35.8 L307,35.8 L307,11.2 L310.6,11.2 C311.4,11.2 311.9,11.6 312.1,12.3 L312.3,14.2 Z" id="Shape" fill="#FFFFFF"></path>
            </g>
        </g>
    </g>
</svg>