<svg viewBox="0 0 642 1188" xmlns="http://www.w3.org/2000/svg" xmlns:xlink="http://www.w3.org/1999/xlink"><defs><linearGradient x1="50%" y1="99.999%" x2="50%" y2=".009%" id="linearGradient-33"><stop stop-color="gray" stop-opacity=".25" offset="0%"/><stop stop-color="gray" stop-opacity=".12" offset="54%"/><stop stop-color="gray" stop-opacity=".1" offset="100%"/></linearGradient><linearGradient x1="50.013%" y1="99.635%" x2="50.013%" y2="-.589%" id="linearGradient-34"><stop stop-color="gray" stop-opacity=".25" offset="0%"/><stop stop-color="gray" stop-opacity=".12" offset="54%"/><stop stop-color="gray" stop-opacity=".1" offset="100%"/></linearGradient><linearGradient x1="50.013%" y1="100.28%" x2="50.013%" y2=".057%" id="linearGradient-35"><stop stop-color="gray" stop-opacity=".25" offset="0%"/><stop stop-color="gray" stop-opacity=".12" offset="54%"/><stop stop-color="gray" stop-opacity=".1" offset="100%"/></linearGradient><linearGradient x1="50.043%" y1="99.885%" x2="50.043%" y2=".231%" id="linearGradient-36"><stop stop-color="gray" stop-opacity=".25" offset="0%"/><stop stop-color="gray" stop-opacity=".12" offset="54%"/><stop stop-color="gray" stop-opacity=".1" offset="100%"/></linearGradient><linearGradient x1="50.052%" y1="99.885%" x2="50.052%" y2=".231%" id="linearGradient-37"><stop stop-opacity=".12" offset="0%"/><stop stop-opacity=".09" offset="55%"/><stop stop-opacity=".02" offset="100%"/></linearGradient><linearGradient x1="50.013%" y1="100.177%" x2="50.013%" y2="-.046%" id="linearGradient-38"><stop stop-color="gray" stop-opacity=".25" offset="0%"/><stop stop-color="gray" stop-opacity=".12" offset="54%"/><stop stop-color="gray" stop-opacity=".1" offset="100%"/></linearGradient><linearGradient x1="50.02%" y1="100.177%" x2="50.02%" y2="-.046%" id="linearGradient-39"><stop stop-opacity=".12" offset="0%"/><stop stop-opacity=".09" offset="55%"/><stop stop-opacity=".02" offset="100%"/></linearGradient><linearGradient x1="50.02%" y1="99.635%" x2="50.02%" y2="-.589%" id="linearGradient-40"><stop stop-opacity=".12" offset="0%"/><stop stop-opacity=".09" offset="55%"/><stop stop-opacity=".02" offset="100%"/></linearGradient><linearGradient x1="50.02%" y1="100.28%" x2="50.02%" y2=".057%" id="linearGradient-41"><stop stop-opacity=".12" offset="0%"/><stop stop-opacity=".09" offset="55%"/><stop stop-opacity=".02" offset="100%"/></linearGradient><linearGradient x1="50.02%" y1="99.736%" x2="50.02%" y2="-.487%" id="linearGradient-42"><stop stop-opacity=".12" offset="0%"/><stop stop-opacity=".09" offset="55%"/><stop stop-opacity=".02" offset="100%"/></linearGradient><linearGradient x1="50.02%" y1="100.383%" x2="50.02%" y2=".16%" id="linearGradient-43"><stop stop-opacity=".12" offset="0%"/><stop stop-opacity=".09" offset="55%"/><stop stop-opacity=".02" offset="100%"/></linearGradient><linearGradient x1="50.013%" y1="99.736%" x2="50.013%" y2="-.487%" id="linearGradient-44"><stop stop-color="gray" stop-opacity=".25" offset="0%"/><stop stop-color="gray" stop-opacity=".12" offset="54%"/><stop stop-color="gray" stop-opacity=".1" offset="100%"/></linearGradient><linearGradient x1="50.013%" y1="100.383%" x2="50.013%" y2=".16%" id="linearGradient-45"><stop stop-color="gray" stop-opacity=".25" offset="0%"/><stop stop-color="gray" stop-opacity=".12" offset="54%"/><stop stop-color="gray" stop-opacity=".1" offset="100%"/></linearGradient><linearGradient x1="50.02%" y1="100.02%" x2="50.02%" y2=".01%" id="linearGradient-46"><stop stop-color="gray" stop-opacity=".25" offset="0%"/><stop stop-color="gray" stop-opacity=".12" offset="54%"/><stop stop-color="gray" stop-opacity=".1" offset="100%"/></linearGradient><linearGradient x1="49.959%" y1="100.071%" x2="49.959%" y2=".036%" id="linearGradient-47"><stop stop-color="gray" stop-opacity=".25" offset="0%"/><stop stop-color="gray" stop-opacity=".12" offset="54%"/><stop stop-color="gray" stop-opacity=".1" offset="100%"/></linearGradient><linearGradient x1="49.959%" y1="100.082%" x2="49.959%" y2=".047%" id="linearGradient-48"><stop stop-color="gray" stop-opacity=".25" offset="0%"/><stop stop-color="gray" stop-opacity=".12" offset="54%"/><stop stop-color="gray" stop-opacity=".1" offset="100%"/></linearGradient><linearGradient x1="49.959%" y1="99.981%" x2="49.959%" y2="-.055%" id="linearGradient-49"><stop stop-color="gray" stop-opacity=".25" offset="0%"/><stop stop-color="gray" stop-opacity=".12" offset="54%"/><stop stop-color="gray" stop-opacity=".1" offset="100%"/></linearGradient><path d="M3.7 0h19.6c1.7 0 3.1 1.4 3.1 3.1v7c0 1.7-1.4 3.1-3.1 3.1H3.7C2 13.2.6 11.8.6 10.1v-7C.5 1.4 1.9 0 3.7 0z" id="path-1"/><path id="path-3" d="M0 .7h440.4v51.7H0z"/><path d="M.6.3V5c.9-.4 1.6-1.3 1.6-2.3 0-1-.7-2-1.6-2.4" id="path-5"/><path id="path-7" d="M0 .7h440.4v51.7H0z"/><path d="M2.5.4h18c.9 0 1.6.7 1.6 1.6v5.5c0 .9-.7 1.6-1.6 1.6h-18C1.6 9.1.9 8.4.9 7.5V2c0-.9.7-1.6 1.6-1.6z" id="path-9"/><path id="path-11" d="M0 .7h440.4v51.7H0z"/><path d="M12.3 11.4c.1-.1.1-.2.1-.3 0-.1 0-.2-.1-.3-1.5-1.3-3.7-1.3-5.2 0-.1.1-.1.2-.1.3 0 .1 0 .2.1.3l2.3 2.4c.1.1.2.1.3.1.1 0 .2 0 .3-.1l2.3-2.4zM9.7 8.2c1.4 0 2.8.5 3.9 1.5.1.1.4.1.5 0l1.4-1.4c.1-.1.1-.2.1-.3 0-.1 0-.2-.1-.3-3.2-3-8.2-3-11.5 0-.1.1-.1.2-.1.3 0 .1 0 .2.1.3l1.4 1.4c.1.1.4.1.5 0 1-1 2.3-1.5 3.8-1.5zm0-4.5c2.6 0 5.1 1 7 2.8.1.1.4.1.5 0l1.4-1.4c.1-.1.1-.2.1-.3 0-.1 0-.2-.1-.3C13.7-.2 5.8-.2.9 4.5c-.1.1-.1.2-.1.3 0 .1 0 .2.1.3l1.4 1.4c.1.1.4.1.5 0 1.8-1.8 4.3-2.8 6.9-2.8z" id="path-13"/><path id="path-15" d="M0 .7h440.4v51.7H0z"/><path d="M18.4.4h1.2c.6 0 1.2.5 1.2 1.2v10.2c0 .6-.5 1.2-1.2 1.2h-1.2c-.6 0-1.2-.5-1.2-1.2V1.6c.1-.6.6-1.2 1.2-1.2zM13 3.2h1.2c.6 0 1.2.5 1.2 1.2v7.4c0 .6-.5 1.2-1.2 1.2H13c-.6 0-1.2-.5-1.2-1.2V4.4c0-.7.5-1.2 1.2-1.2zM7.5 5.9h1.2c.6 0 1.2.5 1.2 1.2v4.7c0 .6-.5 1.2-1.2 1.2H7.5c-.6 0-1.2-.5-1.2-1.2V7.1c0-.7.5-1.2 1.2-1.2zM2 8.3h1.2c.6 0 1.2.5 1.2 1.2v2.3c0 .6-.5 1.2-1.2 1.2H2c-.6 0-1.2-.5-1.2-1.2V9.5c0-.7.6-1.2 1.2-1.2z" id="path-17"/><path id="path-19" d="M0 .7h440.4v51.7H0z"/><path d="M2.1.7h18c.9 0 1.6.7 1.6 1.6v5.5c0 .9-.7 1.6-1.6 1.6h-18C1.2 9.4.5 8.7.5 7.8V2.3C.6 1.4 1.3.7 2.1.7z" id="path-21"/><path id="path-23" d="M.6 0H441v51.7H.6z"/><path d="M11.9 10.8c.1-.1.1-.2.1-.3 0-.1 0-.2-.1-.3-1.5-1.3-3.7-1.3-5.2 0-.1.1-.1.2-.1.3 0 .1 0 .2.1.3L9 13.2c.1.1.2.1.3.1.1 0 .2 0 .3-.1l2.3-2.4zM9.3 7.5c1.4 0 2.8.5 3.9 1.5.1.1.4.1.5 0l1.4-1.4c.1-.1.1-.2.1-.3 0-.1 0-.2-.1-.3-3.2-3-8.2-3-11.5 0-.1.1-.1.2-.1.3 0 .1 0 .2.1.3L5 9c.1.1.4.1.5 0 1-1 2.4-1.5 3.8-1.5zm0-4.5c2.6 0 5.1 1 7 2.8.1.1.4.1.5 0l1.4-1.4c.1-.1.1-.2.1-.3 0-.1 0-.2-.1-.3C13.3-.9 5.4-.9.5 3.8c-.1.1-.1.2-.1.3 0 .1 0 .2.1.3l1.4 1.4c.1.1.4.1.5 0C4.2 4 6.7 3 9.3 3z" id="path-25"/><path id="path-27" d="M.6 0H441v51.7H.6z"/><path d="M18.1.7h1.2c.6 0 1.2.5 1.2 1.2v10.2c0 .6-.5 1.2-1.2 1.2h-1.2c-.6 0-1.2-.5-1.2-1.2V1.9c0-.6.6-1.2 1.2-1.2zm-5.5 2.8h1.2c.6 0 1.2.5 1.2 1.2v7.4c0 .6-.5 1.2-1.2 1.2h-1.2c-.6 0-1.2-.5-1.2-1.2V4.7c.1-.7.6-1.2 1.2-1.2zM7.1 6.2h1.2c.6 0 1.2.5 1.2 1.2v4.7c0 .6-.5 1.2-1.2 1.2H7.1c-.6 0-1.2-.5-1.2-1.2V7.4c.1-.6.6-1.2 1.2-1.2zM1.7 8.6h1.2c.6 0 1.2.5 1.2 1.2v2.3c0 .6-.5 1.2-1.2 1.2H1.7c-.6 0-1.2-.5-1.2-1.2V9.8c0-.7.5-1.2 1.2-1.2z" id="path-29"/><path id="path-31" d="M.6 0H441v51.7H.6z"/><style>@-webkit-keyframes slideInDownsmall-balls5{50%{opacity:1;-webkit-transform:translate3d(0,0,0);transform:translate3d(0,0,0)}to{opacity:0;-webkit-transform:translate3d(0,30%,0);transform:translate3d(0,30%,0)}}@keyframes slideInDownsmall-balls5{50%{opacity:1;-webkit-transform:translate3d(0,0,0);transform:translate3d(0,0,0)}to{opacity:0;-webkit-transform:translate3d(0,30%,0);transform:translate3d(0,30%,0)}}@-webkit-keyframes fadeIn{50%,to{opacity:1}}@keyframes fadeIn{50%,to{opacity:1}}@-webkit-keyframes zoomIn{50%{opacity:1}}@keyframes zoomIn{50%{opacity:1}}@-webkit-keyframes slideInDown{50%,to{-webkit-transform:translate3d(0,0,0);transform:translate3d(0,0,0)}}@keyframes slideInDown{50%,to{-webkit-transform:translate3d(0,0,0);transform:translate3d(0,0,0)}}@-webkit-keyframes slideInLeft{50%,to{-webkit-transform:translate3d(0,0,0);transform:translate3d(0,0,0)}}@keyframes slideInLeft{50%,to{-webkit-transform:translate3d(0,0,0);transform:translate3d(0,0,0)}}</style></defs><g id="Page-1" stroke="none" stroke-width="1" fill="none" fill-rule="evenodd"><g id="hdiw_iphonex2"><path id="Rectangle-path" d="M.1 50.1h640.4v1137.3H.1z"/><g id="Calque_2" transform="translate(0 47)" fill="#DBDBDB" fill-rule="nonzero"><path id="Rectangle-path" d="M0 .4h641.7v1135.4H0z"/></g><path id="Rectangle-path" fill="#25DDDF" fill-rule="nonzero" d="M.9 46.3H641v242.3H.9z"/><g id="Clipped" transform="translate(377 58)"><mask id="mask-2" fill="#fff"><use xlink:href="#path-1"/></mask><g mask="url(#mask-2)"><g transform="translate(-394 -21)"><mask id="mask-4" fill="#fff"><use xlink:href="#path-3"/></mask><path d="M397.7 21h19.6c1.7 0 3.1 1.4 3.1 3.1v7c0 1.7-1.4 3.1-3.1 3.1h-19.6c-1.7 0-3.1-1.4-3.1-3.1v-7c-.1-1.7 1.3-3.1 3.1-3.1z" id="Shape" stroke="#FFF" stroke-width="2" fill="none" opacity=".35" mask="url(#mask-4)"/></g></g></g><g id="Clipped" transform="translate(404 62)"><mask id="mask-6" fill="#fff"><use xlink:href="#path-5"/></mask><g mask="url(#mask-6)"><g transform="translate(-421 -25)"><mask id="mask-8" fill="#fff"><use xlink:href="#path-7"/></mask><path id="Rectangle-path" stroke="none" fill="#FFF" fill-rule="nonzero" opacity=".4" mask="url(#mask-8)" d="M415.7 19.5H429v16.4h-13.3z"/></g></g></g><g id="Clipped" transform="translate(379 60)"><mask id="mask-10" fill="#fff"><use xlink:href="#path-9"/></mask><g mask="url(#mask-10)"><g transform="translate(-396 -23)"><mask id="mask-12" fill="#fff"><use xlink:href="#path-11"/></mask><path id="Rectangle-path" stroke="none" fill="#FFF" fill-rule="nonzero" mask="url(#mask-12)" d="M391 17.5h32.9v20.4H391z"/></g></g></g><g id="Clipped" transform="translate(353 57)"><mask id="mask-14" fill="#fff"><use xlink:href="#path-13"/></mask><g mask="url(#mask-14)"><g transform="translate(-370 -20)"><mask id="mask-16" fill="#fff"><use xlink:href="#path-15"/></mask><path id="Rectangle-path" stroke="none" fill="#FFF" fill-rule="nonzero" mask="url(#mask-16)" d="M364.8 15.2h29.7v24.6h-29.7z"/></g></g></g><g id="Clipped" transform="translate(327 58)"><mask id="mask-18" fill="#fff"><use xlink:href="#path-17"/></mask><g mask="url(#mask-18)"><g transform="translate(-344 -21)"><mask id="mask-20" fill="#fff"><use xlink:href="#path-19"/></mask><path id="Rectangle-path" stroke="none" fill="#FFF" fill-rule="nonzero" mask="url(#mask-20)" d="M339 15.6h31.7v24.3H339z"/></g></g></g><g id="Clipped" transform="translate(572 70)"><mask id="mask-22" fill="#fff"><use xlink:href="#path-21"/></mask><g mask="url(#mask-22)"><g transform="translate(-397 -22)"><mask id="mask-24" fill="#fff"><use xlink:href="#path-23"/></mask><path id="Rectangle-path" stroke="none" fill="#FFF" fill-rule="nonzero" mask="url(#mask-24)" d="M391.7 16.8h32.9v20.4h-32.9z"/></g></g></g><g id="Clipped" transform="translate(546 68)"><mask id="mask-26" fill="#fff"><use xlink:href="#path-25"/></mask><g mask="url(#mask-26)"><g transform="translate(-371 -20)"><mask id="mask-28" fill="#fff"><use xlink:href="#path-27"/></mask><path id="Rectangle-path" stroke="none" fill="#FFF" fill-rule="nonzero" mask="url(#mask-28)" d="M365.5 14.5h29.7v24.6h-29.7z"/></g></g></g><g id="Clipped" transform="translate(520 68)"><mask id="mask-30" fill="#fff"><use xlink:href="#path-29"/></mask><g mask="url(#mask-30)"><g transform="translate(-345 -20)"><mask id="mask-32" fill="#fff"><use xlink:href="#path-31"/></mask><path id="Rectangle-path" stroke="none" fill="#FFF" fill-rule="nonzero" mask="url(#mask-32)" d="M339.6 14.9h31.7v24.3h-31.7z"/></g></g></g><path d="M449.6 100.4H181.4c-22.3 0-40.6-18.3-40.6-40.6V40.7c0-22.3 18.3-40.6 40.6-40.6h268.3c22.3 0 40.6 18.3 40.6 40.6v19.1c-.1 22.3-18.4 40.6-40.7 40.6z" id="Shape" fill="#FFF" fill-rule="nonzero"/><g id="Group" transform="translate(60 67)" fill="#FFF" fill-rule="nonzero"><path d="M10.1 7.6c0 4.6-1.7 7.2-4.7 7.2-2.7 0-4.5-2.5-4.5-7C.9 3.2 2.9.7 5.6.7c2.9-.1 4.5 2.5 4.5 6.9zm-7.4.2c0 3.5 1.1 5.6 2.8 5.6 1.9 0 2.8-2.2 2.8-5.7 0-3.4-.9-5.6-2.8-5.6-1.6 0-2.8 2-2.8 5.7zM12.9 13.2c.4 0 .9 0 1.5-.1 1.1-.1 2.1-.6 2.9-1.3.9-.8 1.6-2 1.8-3.6H19c-.8.9-1.8 1.5-3.2 1.5-2.5 0-4-1.8-4-4.2 0-2.6 1.9-4.9 4.7-4.9C19.3.6 21 2.9 21 6.4c0 3-1 5.1-2.4 6.4-1 1-2.5 1.7-4 1.8-.7.1-1.3.1-1.7.1v-1.5zm.7-7.8c0 1.7 1 2.9 2.6 2.9 1.2 0 2.2-.6 2.7-1.4.1-.2.2-.4.2-.7 0-2.3-.9-4.1-2.8-4.1-1.6 0-2.7 1.3-2.7 3.3zM22.8 6c0-.8.5-1.3 1.3-1.3s1.2.5 1.2 1.3c0 .7-.5 1.3-1.3 1.3-.7 0-1.2-.5-1.2-1.3zm0 7.5c0-.8.5-1.3 1.3-1.3s1.2.5 1.2 1.3c0 .7-.5 1.3-1.3 1.3-.7 0-1.2-.6-1.2-1.3zM32.7 14.5v-3.7h-6.3V9.6L32.5.9h2v8.5h1.9v1.4h-1.9v3.7h-1.8zm0-5.1V4.8c0-.7 0-1.4.1-2.1h-.1c-.4.8-.8 1.4-1.1 2l-3.3 4.6h4.4v.1zM41.8 2.6l-2.4 1.3-.4-1.4 3-1.6h1.6v13.6h-1.8z" id="Shape"/></g><path id="Shape" fill="url(#linearGradient-33)" fill-rule="nonzero" d="M90.4 308.4v355.2h446.7V308.4z"/><path id="Rectangle-path" fill="#F5F5F5" fill-rule="nonzero" d="M94.7 313.2h435.7v17.4H94.7z"/><circle id="Oval" fill="#FF5252" fill-rule="nonzero" cx="107.3" cy="321.6" r="4.2"/><circle id="Oval" fill="#FF0" fill-rule="nonzero" cx="118.9" cy="321.6" r="4.2"/><circle id="Oval" fill="#69F0AE" fill-rule="nonzero" cx="130.5" cy="321.6" r="4.2"/><g transform="translate(96 330)" fill-rule="nonzero" style="-webkit-animation:fadeIn 3s infinite ease-in-out;animation-name:fadeIn"><path id="Rectangle-path" fill="#FFF" d="M.7.5H217v326.8H.7z"/><path id="Rectangle-path" fill="#25DDDF" d="M37.5 114.7h115.8v9.5H37.5z"/><path id="Rectangle-path" fill="url(#linearGradient-34)" d="M19.1 155.8H178v8.4H19.1z"/><path id="Rectangle-path" fill="url(#linearGradient-35)" d="M19.1 168.9H178v8.4H19.1z"/><path id="Rectangle-path" fill="#25DDDF" d="M20.7 143.6H177v5.8H20.7zM20.7 183.1H177v5.8H20.7zM20.7 196.3H177v5.8H20.7z"/><path d="M89.1 61l-5.5 16.8h-7.1l18.1-53.3h8.3l18.2 53.3h-7.4L108 61H89.1zm17.5-5.3l-5.2-15.3c-1.2-3.5-2-6.6-2.8-9.7h-.2c-.8 3.2-1.7 6.4-2.7 9.7l-5.2 15.4h16.1v-.1z" id="Shape" fill="#25DDDF"/><g id="Group" transform="translate(26 239)" fill="#FDCBA9"><path id="Shape" d="M21.1 9.5v16.9h16.3v4.3H21.1v17.1h-4.6V30.7H.2v-4.3h16.3V9.5zM57.3 6.9h-.1l-8.1 4.4-1.2-4.8L58 1h5.4v46.8h-6.1zM100 47.8V35H78.3v-4.2L99.2.9h6.8V30h6.6v5H106v12.7h-6v.1zm0-17.7V14.5c0-2.4.1-4.9.2-7.3h-.2c-1.4 2.7-2.6 4.8-3.9 6.9L84.7 30v.1H100zM138.5 14.1c0 9.9-5.2 14.8-11.2 14.8-5.8 0-10.9-4.7-10.9-14.1 0-9.4 5.1-14.6 11.3-14.6 6.5 0 10.8 5 10.8 13.9zm-17.2.5c-.1 6 2.1 10.5 6 10.5 4.2 0 6-4.5 6-10.7 0-5.7-1.7-10.4-6-10.4-3.9 0-6 4.7-6 10.6zm5.5 34L154.3.2h4l-27.5 48.4h-4zm42.1-15.1c0 9.9-5.2 14.8-11.2 14.8-5.8 0-10.9-4.7-10.9-14 0-9.4 5.1-14.7 11.3-14.7 6.6-.1 10.8 5 10.8 13.9zm-17.1.4c-.1 6 2.2 10.5 6.1 10.5 4.2 0 6-4.5 6-10.7 0-5.7-1.7-10.4-6-10.4-3.9.1-6.1 4.7-6.1 10.6z"/></g></g><g id="version-b" transform="translate(115 330)" fill-rule="nonzero"><path id="Rectangle-path" fill="#25DDDF" d="M199.5.5h217.8v326.8H199.5z"/><path id="Rectangle-path" fill="url(#linearGradient-36)" d="M16.4 113.1h119.4v13.2H16.4z"/><path id="Rectangle-path" fill="url(#linearGradient-37)" d="M245.8 113.1h119.4v13.2H245.8z"/><path id="Rectangle-path" fill="url(#linearGradient-38)" d="M.1 142.6H159v8.4H.1z"/><path id="Rectangle-path" fill="url(#linearGradient-39)" d="M229.5 142.6h158.9v8.4H229.5z"/><path id="Rectangle-path" fill="url(#linearGradient-40)" d="M229.5 155.8h158.9v8.4H229.5z"/><path id="Rectangle-path" fill="url(#linearGradient-41)" d="M229.5 168.9h158.9v8.4H229.5z"/><path id="Rectangle-path" fill="url(#linearGradient-42)" d="M229.5 182.1h158.9v8.4H229.5z"/><path id="Rectangle-path" fill="url(#linearGradient-43)" d="M229.5 195.2h158.9v8.4H229.5z"/><path id="Rectangle-path" fill="url(#linearGradient-44)" d="M.1 182.1H159v8.4H.1z"/><path id="Rectangle-path" fill="url(#linearGradient-45)" d="M.1 195.2H159v8.4H.1z"/><path id="Rectangle-path" fill="#25DDDF" d="M1.7 156.8H158v5.8H1.7zM1.7 170H158v5.8H1.7z"/><path id="Rectangle-path" fill="#FFF" d="M247.4 114.7h115.8v9.5H247.4zM230.6 143.6h156.3v5.8H230.6zM230.6 156.8h156.3v5.8H230.6zM230.6 170h156.3v5.8H230.6zM230.6 183.1h156.3v5.8H230.6zM230.6 196.3h156.3v5.8H230.6z"/><path d="M292.1 26.2c2.7-.6 7.1-1 11.4-1 6.3 0 10.3 1.1 13.3 3.5 2.5 1.9 4 4.8 4 8.6 0 4.7-3.1 8.8-8.2 10.7v.1c4.6 1.2 10 5 10 12.2 0 4.2-1.7 7.3-4.1 9.7-3.4 3.1-8.9 4.5-16.8 4.5-4.3 0-7.6-.3-9.7-.6V26.2h.1zm6.3 19.9h5.7c6.6 0 10.5-3.5 10.5-8.1 0-5.7-4.3-7.9-10.7-7.9-2.9 0-4.5.2-5.5.4v15.6zm0 23.3c1.2.2 3 .3 5.3.3 6.5 0 12.5-2.4 12.5-9.4 0-6.6-5.7-9.4-12.5-9.4h-5.2v18.5h-.1z" id="Shape" fill="#FFF"/></g><path id="Rectangle-path" fill="url(#linearGradient-46)" fill-rule="nonzero" d="M160 804.1h316.1v352.8H160z"/><path id="Rectangle-path" fill="#ECEFF1" fill-rule="nonzero" d="M165.3 1039.7H471v109.6H165.3z"/><g id="Group" opacity=".5" transform="translate(283 1065)" fill="#64FFDA" fill-rule="nonzero"><path id="Rectangle-path" d="M.9.7h11.8v56.1H.9z"/></g><g id="Group" opacity=".4" transform="translate(307 1065)" fill="#64FFDA" fill-rule="nonzero"><path id="Rectangle-path" d="M.3.7h11.8v56.1H.3z"/></g><g id="Group" opacity=".3" transform="translate(330 1065)" fill="#64FFDA" fill-rule="nonzero"><path id="Rectangle-path" d="M.7.7h11.8v56.1H.7z"/></g><circle id="Oval" fill="#25DDDF" fill-rule="nonzero" cx="427.7" cy="1093.4" r="28.6"/><path id="Rectangle-path" fill="#ECEFF1" fill-rule="nonzero" d="M165.3 925.9H471v109.6H165.3z"/><g id="Group" opacity=".5" transform="translate(283 951)" fill="#64FFDA" fill-rule="nonzero"><path id="Rectangle-path" d="M.9.9h11.8V57H.9z"/></g><g id="Group" opacity=".4" transform="translate(307 951)" fill="#64FFDA" fill-rule="nonzero"><path id="Rectangle-path" d="M.3.9h11.8V57H.3z"/></g><g id="Group" opacity=".3" transform="translate(330 951)" fill="#64FFDA" fill-rule="nonzero"><path id="Rectangle-path" d="M.7.9h11.8V57H.7z"/></g><circle id="Oval" fill="#25DDDF" fill-rule="nonzero" cx="427.7" cy="979.6" r="28.6"/><path id="Rectangle-path" fill="#ECEFF1" fill-rule="nonzero" d="M165.3 812H471v109.6H165.3z"/><g id="Group" opacity=".5" transform="translate(283 838)" fill="#64FFDA" fill-rule="nonzero"><path id="Rectangle-path" d="M.9 0h11.8v56.1H.9z"/></g><g id="Group" opacity=".4" transform="translate(307 838)" fill="#64FFDA" fill-rule="nonzero"><path id="Rectangle-path" d="M.3 0h11.8v56.1H.3z"/></g><g id="Group" opacity=".3" transform="translate(330 838)" fill="#64FFDA" fill-rule="nonzero"><path id="Rectangle-path" d="M.7 0h11.8v56.1H.7z"/></g><circle id="Oval" fill="url(#linearGradient-47)" fill-rule="nonzero" cx="427.7" cy="865.7" r="30.8"/><circle id="Oval" fill="url(#linearGradient-48)" fill-rule="nonzero" cx="427.7" cy="980.3" r="30.8"/><circle id="Oval" fill="url(#linearGradient-49)" fill-rule="nonzero" cx="427.7" cy="1094.2" r="30.8"/><circle id="Oval" fill="#25DDDF" fill-rule="nonzero" cx="427.7" cy="865.7" r="28.6"/><g id="Group" transform="translate(177 805)" stroke="#FDCBA9" stroke-width="3"><path d="M287.2 187c-.3 1.1-.7 2.3-1 3.4M238.3 32.1c.9.7 1.8 1.5 2.7 2.3" id="Shape"/></g><g id="traces-iteration" transform="translate(150 805)" stroke="#FDCBA9" stroke-width="3"><path d="M277.2 336.7c-31.7 17.2-67.2 26.2-103.3 26.2-70.7 0-133.5-33.8-173.1-86.2M310.9 197c-20.7 55.6-74.2 95.1-137 95.1-80.7 0-146.1-65.4-146.1-146.1C27.8 65.3 93.2 0 173.9 0c32 0 63.2 10.5 88.6 29.9" id="Shape"/><g id="Group" transform="translate(161 63)"><path d="M.5 1.2C1.7 1 2.9.9 4 .8M10.8.3h2.1c45.7 0 82.8 37.1 82.8 82.8 0 14.1-3.6 28-10.5 40.3M83.5 126.4c-.6 1-1.3 2-1.9 3" id="Shape"/></g></g><circle id="Oval" fill="#25DDDF" fill-rule="nonzero" cx="54.7" cy="761.2" r="29.7"/><g id="Group" transform="translate(41 740)" fill-rule="nonzero"><path d="M26.4 23.6V27c0 .3-.1.6-.3.8-.2.2-.5.3-.9.3H22v8.5h-5.2v-8.5H2.3c-.4 0-.8-.1-1.1-.4-.3-.2-.5-.6-.6-.9l-.6-3 16.4-22H22v21.6h4.4v.2zm-9.5 0V12.2c0-1.1.1-2.3.2-3.6L6.3 23.5h10.6v.1z" id="Shape" fill="#FFF"/><path d="M72.5 4.8c0 .5-.1 1-.3 1.4-.2.4-.5.8-.8 1.2-.3.3-.7.6-1.2.8-.5.2-1 .3-1.5.3s-1-.1-1.5-.3c-.5-.2-.9-.5-1.2-.8-.3-.3-.6-.7-.8-1.2-.2-.4-.3-.9-.3-1.4 0-.5.1-1 .3-1.5.2-.5.5-.9.8-1.2.3-.3.7-.6 1.2-.8.5-.2.9-.3 1.5-.3.5 0 1 .1 1.5.3.5.2.9.5 1.2.8.3.3.6.7.8 1.2.2.5.3 1 .3 1.5zm-.8 7.2v24.6h-6V12h6zM86 37c-2.1 0-3.8-.6-4.9-1.8-1.1-1.2-1.7-2.9-1.7-5V16.4h-2.5c-.3 0-.6-.1-.8-.3-.2-.2-.3-.5-.3-.9v-2.4l4-.6L81 5.5c.1-.3.2-.6.5-.7.2-.2.5-.3.9-.3h3.1v7.8h6.6v4.2h-6.6v13.3c0 .8.2 1.4.6 1.8.4.4.9.6 1.5.6.4 0 .7 0 .9-.1.2-.1.5-.2.6-.3.2-.1.3-.2.5-.3.1-.1.3-.1.4-.1.2 0 .3 0 .4.1l.4.4 1.8 2.9c-.9.7-1.9 1.3-3 1.6-1.3.4-2.4.6-3.6.6zM100 25.1c.1 1.3.3 2.4.7 3.3.4.9.8 1.7 1.4 2.3.6.6 1.3 1 2.1 1.3.8.3 1.7.4 2.6.4.9 0 1.8-.1 2.5-.3.7-.2 1.3-.5 1.8-.7.5-.3 1-.5 1.4-.7.4-.2.8-.3 1.1-.3.5 0 .9.2 1.1.6l1.7 2.2c-.7.8-1.4 1.4-2.2 1.9-.8.5-1.7.9-2.6 1.2-.9.3-1.8.5-2.7.7-.9.1-1.8.2-2.7.2-1.7 0-3.3-.3-4.8-.9-1.5-.6-2.8-1.4-3.8-2.5-1.1-1.1-1.9-2.5-2.6-4.1-.6-1.6-.9-3.5-.9-5.7 0-1.7.3-3.3.8-4.7.5-1.4 1.3-2.8 2.3-3.9 1-1.1 2.3-2 3.7-2.6 1.5-.6 3.1-1 5-1 1.6 0 3 .2 4.3.7 1.3.5 2.4 1.2 3.4 2.2.9 1 1.7 2.1 2.2 3.5.5 1.4.8 3 .8 4.7 0 .9-.1 1.5-.3 1.8-.2.3-.6.5-1.1.5H100v-.1zm11.3-3.6c0-.8-.1-1.5-.3-2.2-.2-.7-.5-1.3-1-1.8-.4-.5-1-.9-1.6-1.2-.7-.3-1.4-.4-2.3-.4-1.7 0-3.1.5-4 1.5-1 1-1.6 2.4-1.9 4.2h11.1v-.1zM126.6 16.3c.8-1.5 1.7-2.6 2.7-3.5 1.1-.8 2.3-1.3 3.7-1.3 1.1 0 2 .2 2.7.7l-.4 4.4c-.1.3-.2.5-.3.6-.2.1-.4.2-.6.2-.2 0-.6 0-1.1-.1-.5-.1-.9-.1-1.4-.1-.7 0-1.2.1-1.8.3-.5.2-1 .5-1.4.8-.4.4-.8.8-1.1 1.3-.3.5-.6 1.1-.9 1.8v15.2h-5.9V12h3.5c.6 0 1 .1 1.3.3.2.2.4.6.5 1.2l.5 2.8zM138.1 15.4c2.8-2.6 6.2-3.9 10.2-3.9 1.4 0 2.7.2 3.9.7 1.1.5 2.1 1.1 2.9 2 .8.8 1.4 1.8 1.8 3 .4 1.2.6 2.4.6 3.8v15.6h-2.7c-.6 0-1-.1-1.3-.3-.3-.2-.5-.5-.7-1l-.5-1.8c-.6.6-1.2 1.1-1.8 1.5-.6.4-1.2.8-1.8 1.1-.6.3-1.3.5-2.1.7-.7.2-1.5.2-2.4.2-1 0-2-.1-2.9-.4-.9-.3-1.6-.7-2.3-1.3-.6-.6-1.1-1.3-1.5-2.1-.4-.8-.5-1.8-.5-2.9 0-.6.1-1.2.3-1.9.2-.6.5-1.2 1-1.8.5-.6 1.1-1.1 1.8-1.6.8-.5 1.7-.9 2.8-1.3 1.1-.4 2.4-.7 3.8-.9 1.5-.2 3.1-.4 5-.4V21c0-1.6-.4-2.9-1.1-3.7-.7-.8-1.7-1.2-3-1.2-1 0-1.8.1-2.4.3-.6.2-1.2.5-1.7.8-.5.3-.9.5-1.3.8-.4.2-.8.3-1.3.3-.4 0-.8-.1-1.1-.3-.3-.2-.5-.5-.7-.8l-1-1.8zm13.6 10.7c-1.7.1-3.2.2-4.3.4-1.2.2-2.1.5-2.8.8-.7.3-1.2.7-1.5 1.2-.3.4-.5.9-.5 1.5 0 1 .3 1.8.9 2.2.6.4 1.4.7 2.4.7 1.2 0 2.3-.2 3.2-.7.9-.4 1.8-1.1 2.6-2v-4.1zM187.5 36.6h-5.9V16.4h-11.4v13.3c0 .8.2 1.4.6 1.8.4.4.9.6 1.5.6.4 0 .7 0 .9-.1.2-.1.5-.2.6-.3.2-.1.3-.2.5-.3.1-.1.3-.1.4-.1.2 0 .3 0 .4.1l.4.4 1.8 2.9c-.9.7-1.9 1.3-3 1.6-1.1.4-2.3.6-3.5.6-2.1 0-3.8-.6-4.9-1.8-1.1-1.2-1.7-2.9-1.7-5V16.3h-2.5c-.3 0-.6-.1-.8-.3-.2-.2-.3-.5-.3-.9v-2.4l4-.7 1.2-6.7c.1-.3.2-.6.5-.7.2-.2.5-.3.9-.3h3.1v7.8h17.4v24.5h-.2zm1-31.9c0 .5-.1 1-.3 1.5-.2.5-.5.9-.8 1.2-.3.3-.8.6-1.2.8-.5.2-1 .3-1.5.3s-1-.1-1.4-.3c-.4-.2-.8-.5-1.2-.8-.4-.3-.6-.7-.8-1.2-.2-.5-.3-.9-.3-1.5 0-.5.1-1 .3-1.5.2-.5.5-.9.8-1.2.3-.3.7-.6 1.2-.8.4-.2.9-.3 1.4-.3.5 0 1 .1 1.5.3.5.2.9.5 1.2.8.3.3.6.7.8 1.2.2.5.3 1 .3 1.5zM204.5 11.6c1.8 0 3.5.3 5 .9 1.5.6 2.8 1.4 3.8 2.5 1.1 1.1 1.9 2.4 2.5 4 .6 1.6.9 3.3.9 5.3s-.3 3.7-.9 5.3c-.6 1.6-1.4 2.9-2.5 4s-2.3 2-3.8 2.5c-1.5.6-3.2.9-5 .9-1.8 0-3.5-.3-5-.9-1.5-.6-2.8-1.4-3.9-2.5s-1.9-2.4-2.5-4c-.6-1.6-.9-3.3-.9-5.3 0-1.9.3-3.7.9-5.3.6-1.6 1.4-2.9 2.5-4s2.3-1.9 3.9-2.5c1.4-.6 3.1-.9 5-.9zm0 20.8c2 0 3.6-.7 4.5-2.1 1-1.4 1.5-3.4 1.5-6 0-2.7-.5-4.7-1.5-6.1-1-1.4-2.5-2.1-4.5-2.1-2.1 0-3.6.7-4.6 2.1-1 1.4-1.5 3.4-1.5 6.1 0 2.6.5 4.7 1.5 6 .9 1.4 2.5 2.1 4.6 2.1zM226.7 15c.5-.5 1-1 1.6-1.4.6-.4 1.1-.8 1.8-1.1.6-.3 1.3-.5 2-.7.7-.2 1.5-.3 2.3-.3 1.3 0 2.5.2 3.6.7 1.1.5 1.9 1.1 2.6 1.9.7.8 1.2 1.8 1.6 3 .4 1.1.5 2.4.5 3.8v15.7h-5.9V21c0-1.5-.3-2.7-1-3.5-.7-.8-1.7-1.2-3.1-1.2-1 0-2 .2-2.9.7-.9.5-1.7 1.1-2.5 1.9v17.8h-5.9V12h3.6c.8 0 1.3.4 1.5 1.1l.2 1.9z" id="Shape" fill="#25DDDF"/></g><circle id="Oval" fill="#FFF" fill-rule="nonzero" cx="51.7" cy="252.2" r="29.7"/><g id="Group" transform="translate(39 234)" fill-rule="nonzero"><path d="M1.3 10.7C1.5 9 2 7.6 2.7 6.3 3.4 5 4.2 4 5.3 3.2c1-.8 2.2-1.5 3.6-1.9 1.3-.4 2.8-.6 4.3-.6 1.6 0 3 .2 4.3.7 1.3.5 2.4 1.1 3.3 1.9.9.8 1.6 1.8 2.1 2.8.5 1.1.7 2.3.7 3.5 0 1.1-.1 2.1-.4 2.9-.2.8-.6 1.6-1.1 2.2-.5.6-1 1.2-1.7 1.6-.7.4-1.5.8-2.3 1.1 2.1.7 3.6 1.7 4.7 3 1 1.3 1.5 3 1.5 5.1 0 1.7-.3 3.3-1 4.6-.7 1.3-1.5 2.4-2.6 3.3-1.1.9-2.3 1.6-3.8 2.1s-2.9.7-4.5.7c-1.7 0-3.3-.2-4.6-.6-1.3-.4-2.4-1-3.4-1.8S2.6 32.1 2 30.9C1.3 29.8.8 28.5.3 27l2.6-1.1c.7-.3 1.3-.4 1.9-.2.6.1 1 .5 1.3 1 .3.6.6 1.1.9 1.7.3.5.8 1 1.2 1.5.5.4 1 .8 1.7 1 .6.3 1.4.4 2.3.4 1 0 1.9-.2 2.6-.5.8-.3 1.4-.8 1.9-1.3s.9-1.1 1.1-1.8c.2-.7.4-1.3.4-2 0-.8-.1-1.6-.3-2.3-.2-.7-.5-1.3-1.1-1.7-.6-.5-1.4-.9-2.4-1.1-1-.3-2.5-.4-4.2-.4V16c1.5 0 2.7-.2 3.6-.4.9-.2 1.7-.6 2.3-1.1.6-.5 1-1 1.2-1.6.2-.6.3-1.3.3-2.1 0-1.6-.5-2.9-1.4-3.7-.9-.8-2.1-1.3-3.6-1.3-.7 0-1.4.1-1.9.3-.6.2-1.1.5-1.6.8-.5.3-.9.8-1.2 1.3-.3.5-.6 1-.7 1.6-.3.7-.6 1.2-1.1 1.5-.4.2-1.1.3-1.9.2l-2.9-.8z" id="Shape" fill="#25DDDF"/><path d="M75.4 10.7c1.8 0 3.5.3 5 .9 1.5.6 2.8 1.4 3.8 2.5 1.1 1.1 1.9 2.4 2.5 4 .6 1.6.9 3.3.9 5.3s-.3 3.7-.9 5.3c-.6 1.6-1.4 2.9-2.5 4s-2.3 2-3.8 2.5-3.2.9-5 .9c-1.8 0-3.5-.3-5-.9-1.5-.6-2.8-1.4-3.9-2.5s-1.9-2.4-2.5-4c-.6-1.6-.9-3.3-.9-5.3 0-1.9.3-3.7.9-5.3.6-1.6 1.4-2.9 2.5-4s2.3-1.9 3.9-2.5c1.5-.6 3.1-.9 5-.9zm0 20.9c2 0 3.6-.7 4.5-2.1 1-1.4 1.5-3.4 1.5-6 0-2.7-.5-4.7-1.5-6.1-1-1.4-2.5-2.1-4.5-2.1-2.1 0-3.6.7-4.6 2.1-1 1.4-1.5 3.4-1.5 6.1 0 2.7.5 4.7 1.5 6 .9 1.4 2.5 2.1 4.6 2.1zM97.7 14.5c1-1.1 2.2-2.1 3.4-2.8 1.2-.7 2.8-1.1 4.5-1.1 1.3 0 2.6.3 3.7.8 1.1.6 2.1 1.4 2.9 2.4.8 1.1 1.4 2.4 1.9 3.9.4 1.6.7 3.3.7 5.4 0 1.8-.2 3.5-.7 5.1-.5 1.6-1.2 2.9-2.1 4.1-.9 1.2-2 2.1-3.3 2.7-1.3.6-2.8 1-4.4 1-1.4 0-2.6-.2-3.5-.6-.9-.4-1.8-1-2.6-1.8v10.1H92V11h3.6c.8 0 1.3.4 1.5 1.1l.6 2.4zm.3 14.9c.7.8 1.4 1.4 2.2 1.7.8.3 1.7.5 2.6.5.9 0 1.7-.2 2.4-.5s1.3-.8 1.8-1.5.9-1.6 1.2-2.6c.3-1 .4-2.3.4-3.7 0-1.4-.1-2.7-.3-3.7-.2-1-.6-1.8-1-2.4-.4-.6-1-1.1-1.6-1.4-.6-.3-1.3-.4-2.1-.4-1.2 0-2.3.3-3.1.8-.9.5-1.7 1.3-2.4 2.2v11H98zM143.8 35.8h-5.9V15.6h-11.4v13.3c0 .8.2 1.4.6 1.8.4.4.9.6 1.5.6.4 0 .7 0 .9-.1.2-.1.5-.2.6-.3.2-.1.3-.2.5-.3.1-.1.3-.1.4-.1.2 0 .3 0 .4.1l.4.4 1.8 2.9c-.9.7-1.9 1.3-3 1.6-1.1.4-2.3.6-3.5.6-2.1 0-3.8-.6-4.9-1.8-1.1-1.2-1.7-2.9-1.7-5V15.5H118c-.3 0-.6-.1-.8-.3-.2-.2-.3-.5-.3-.9V12l4-.7 1.2-6.7c.1-.3.2-.6.5-.7.2-.2.5-.3.9-.3h3.1v7.8H144v24.4h-.2zm1-31.9c0 .5-.1 1-.3 1.5-.2.5-.5.9-.8 1.2-.3.3-.8.6-1.2.8-.5.2-1 .3-1.5.3s-1-.1-1.4-.3c-.4-.2-.8-.5-1.2-.8-.4-.3-.6-.7-.8-1.2-.2-.5-.3-.9-.3-1.5 0-.5.1-1 .3-1.5.2-.5.5-.9.8-1.2.3-.3.7-.6 1.2-.8.4-.2.9-.3 1.4-.3.5 0 1 .1 1.5.3.5.2.9.5 1.2.8.3.3.6.7.8 1.2.2.5.3.9.3 1.5zM149.9 35.8V11.2h3.6c.8 0 1.3.4 1.5 1.1l.4 1.8c.4-.5.9-.9 1.4-1.3.5-.4 1-.7 1.5-1 .5-.3 1.1-.5 1.7-.7.6-.2 1.3-.3 2-.3 1.6 0 2.8.4 3.8 1.3s1.7 2 2.2 3.3c.4-.8.9-1.5 1.4-2.1.6-.6 1.2-1.1 1.9-1.4.7-.4 1.4-.6 2.2-.8.8-.2 1.6-.3 2.3-.3 1.4 0 2.6.2 3.6.6 1 .4 1.9 1 2.7 1.8.7.8 1.3 1.8 1.6 2.9.4 1.2.6 2.5.6 4v15.7h-5.9V20.1c0-1.6-.3-2.7-1-3.5-.7-.8-1.7-1.2-3-1.2-.6 0-1.2.1-1.7.3-.5.2-1 .5-1.4.9-.4.4-.7.9-.9 1.5-.2.6-.3 1.3-.3 2v15.7h-6V20.1c0-1.6-.3-2.8-1-3.6-.7-.8-1.6-1.1-2.9-1.1-.9 0-1.7.2-2.4.6-.7.4-1.4 1-2.1 1.7v18h-5.8v.1zM197 4c0 .5-.1 1-.3 1.4-.2.4-.5.8-.8 1.2-.3.3-.7.6-1.2.8-.5.2-1 .3-1.5.3s-1-.1-1.5-.3c-.5-.2-.9-.5-1.2-.8-.3-.3-.6-.7-.8-1.2-.2-.5-.3-.9-.3-1.4 0-.5.1-1 .3-1.5.2-.5.5-.9.8-1.2.3-.3.7-.6 1.2-.8.5-.2.9-.3 1.5-.3.5 0 1 .1 1.5.3.5.2.9.5 1.2.8.3.3.6.7.8 1.2.2.4.3.9.3 1.5zm-.8 7.1v24.6h-6V11.1h6zM219.9 13.6c0 .4-.1.8-.2 1.2-.1.4-.3.7-.6 1l-11.7 15.4h12.1v4.6h-19v-2.5c0-.3.1-.6.2-1s.3-.7.6-1.1l11.8-15.6h-11.9v-4.5h18.7v2.5zM223.7 14.6c2.8-2.6 6.2-3.9 10.2-3.9 1.4 0 2.7.2 3.9.7 1.1.5 2.1 1.1 2.9 2 .8.8 1.4 1.8 1.8 3 .4 1.2.6 2.4.6 3.8v15.6h-2.7c-.6 0-1-.1-1.3-.3-.3-.2-.5-.5-.7-1l-.5-1.8c-.6.6-1.2 1.1-1.8 1.5-.6.4-1.2.8-1.8 1.1-.6.3-1.3.5-2.1.7-.7.2-1.5.2-2.4.2-1 0-2-.1-2.9-.4-.9-.3-1.6-.7-2.3-1.3-.7-.6-1.1-1.3-1.5-2.1-.4-.8-.5-1.8-.5-2.9 0-.6.1-1.2.3-1.9.2-.6.5-1.2 1-1.8.5-.6 1.1-1.1 1.8-1.6.8-.5 1.7-.9 2.8-1.3 1.1-.4 2.4-.7 3.8-.9 1.4-.2 3.1-.4 5-.4v-1.4c0-1.6-.4-2.9-1.1-3.7-.7-.8-1.7-1.2-3-1.2-1 0-1.8.1-2.4.3-.6.2-1.2.5-1.7.8-.5.3-.9.5-1.3.8-.4.2-.8.3-1.3.3-.4 0-.8-.1-1.1-.3-.3-.2-.5-.5-.7-.8l-1-1.8zm13.6 10.6c-1.7.1-3.2.2-4.3.4-1.2.2-2.1.5-2.8.8-.7.3-1.2.7-1.5 1.2-.3.4-.5.9-.5 1.5 0 1 .3 1.8.9 2.2.6.4 1.4.7 2.4.7 1.2 0 2.3-.2 3.2-.7.9-.4 1.8-1.1 2.6-2v-4.1zM273.2 35.8h-5.9V15.6h-11.4v13.3c0 .8.2 1.4.6 1.8.4.4.9.6 1.5.6.4 0 .7 0 .9-.1.2-.1.5-.2.6-.3.2-.1.3-.2.5-.3.1-.1.3-.1.4-.1.2 0 .3 0 .4.1l.4.4 1.8 2.9c-.9.7-1.9 1.3-3 1.6-1.1.4-2.3.6-3.5.6-2.1 0-3.8-.6-4.9-1.8-1.1-1.2-1.7-2.9-1.7-5V15.5h-2.5c-.3 0-.6-.1-.8-.3-.2-.2-.3-.5-.3-.9V12l4-.7 1.2-6.7c.1-.3.2-.6.5-.7.2-.2.5-.3.9-.3h3.1v7.8h17.4v24.4h-.2zm1-31.9c0 .5-.1 1-.3 1.5-.2.5-.5.9-.8 1.2-.3.3-.8.6-1.2.8-.5.2-1 .3-1.5.3s-1-.1-1.4-.3c-.4-.2-.8-.5-1.2-.8-.4-.3-.6-.7-.8-1.2-.2-.5-.3-.9-.3-1.5 0-.5.1-1 .3-1.5.2-.5.5-.9.8-1.2.3-.3.7-.6 1.2-.8.4-.2.9-.3 1.4-.3.5 0 1 .1 1.5.3.5.2.9.5 1.2.8.3.3.6.7.8 1.2.2.5.3.9.3 1.5zM290.1 10.7c1.8 0 3.5.3 5 .9 1.5.6 2.8 1.4 3.8 2.5 1.1 1.1 1.9 2.4 2.5 4 .6 1.6.9 3.3.9 5.3s-.3 3.7-.9 5.3c-.6 1.6-1.4 2.9-2.5 4s-2.3 2-3.8 2.5-3.2.9-5 .9c-1.8 0-3.5-.3-5-.9-1.5-.6-2.8-1.4-3.9-2.5s-1.9-2.4-2.5-4c-.6-1.6-.9-3.3-.9-5.3 0-1.9.3-3.7.9-5.3.6-1.6 1.4-2.9 2.5-4s2.3-1.9 3.9-2.5c1.5-.6 3.2-.9 5-.9zm0 20.9c2 0 3.6-.7 4.5-2.1 1-1.4 1.5-3.4 1.5-6 0-2.7-.5-4.7-1.5-6.1-1-1.4-2.5-2.1-4.5-2.1-2.1 0-3.6.7-4.6 2.1-1 1.4-1.5 3.4-1.5 6.1 0 2.7.5 4.7 1.5 6 1 1.4 2.5 2.1 4.6 2.1zM312.3 14.2c.5-.5 1-1 1.6-1.4.6-.4 1.1-.8 1.8-1.1.6-.3 1.3-.5 2-.7.7-.2 1.5-.3 2.3-.3 1.3 0 2.5.2 3.6.7 1 .5 1.9 1.1 2.6 1.9.7.8 1.2 1.8 1.6 3 .4 1.1.5 2.4.5 3.8v15.7h-5.9V20.1c0-1.5-.3-2.7-1-3.5-.7-.8-1.7-1.2-3.1-1.2-1 0-2 .2-2.9.7-.9.5-1.7 1.1-2.5 1.9v17.8H307V11.2h3.6c.8 0 1.3.4 1.5 1.1l.2 1.9z" id="Shape" fill="#FFF"/></g></g></g></svg>