<svg xmlns="http://www.w3.org/2000/svg" viewBox="0 0 724 142.4"><path d="M173.4 65.5c.7.6 1 1.4 1 2.4 0 1.1-.3 1.9-1 2.5s-1.6.9-2.8.9H168v3.1h-1.1v-9.8h3.7c1.2 0 2.1.3 2.8.9zm-5.4 4.7h2.5c.9 0 1.6-.2 2.1-.6s.7-1 .7-1.7-.2-1.3-.7-1.7-1.2-.6-2.1-.6H168v4.6zm10.2-2.8c.4-.3 1-.4 1.6-.4v1.1c-.8 0-1.4.2-1.8.6s-.7 1-.8 1.8v3.9h-1.1V67h1.1v1.6c.2-.5.6-.9 1-1.2zm8 .1c.6.3 1 .8 1.3 1.3s.5 1.2.5 1.9-.2 1.4-.5 1.9-.8 1-1.3 1.3-1.2.5-1.9.5-1.4-.2-1.9-.5-1-.8-1.3-1.3-.5-1.2-.5-1.9.2-1.4.5-1.9.8-1 1.3-1.3 1.2-.5 1.9-.5 1.4.2 1.9.5zm-3.3.8c-.4.2-.7.6-.9 1s-.3.9-.3 1.4c0 .5.1 1 .3 1.4s.5.7.9 1 .9.4 1.4.4 1-.1 1.4-.4.7-.6.9-1 .3-.9.3-1.4-.1-1-.3-1.4-.5-.7-.9-1-.9-.3-1.4-.3c-.5 0-1 .1-1.4.3zm13.8 6.1h-1.1v-1.6c-.3.5-.7.9-1.2 1.2s-1.1.4-1.7.4c-.7 0-1.3-.2-1.8-.5s-1-.8-1.3-1.3-.4-1.2-.4-1.9.1-1.4.4-1.9.7-1 1.3-1.3 1.2-.5 1.8-.5c.7 0 1.2.1 1.7.4s.9.7 1.2 1.2V64h1.1v10.4zm-2.4-1.3c.4-.2.7-.6.9-1s.3-.9.3-1.4c0-.5-.1-1-.3-1.4s-.5-.7-.9-1-.8-.3-1.3-.3-1 .1-1.4.4-.7.6-1 1-.3.9-.3 1.4c0 .5.1 1 .3 1.4s.5.7 1 1 .9.4 1.4.4.9-.2 1.3-.5zm11.5 1.3h-1.1v-1.7c-.5 1.1-1.4 1.7-2.8 1.7-.9 0-1.5-.3-2-.8s-.7-1.2-.7-2.1V67h1.1v4.3c0 .7.2 1.2.5 1.5s.9.5 1.5.5c.8 0 1.4-.3 1.8-.8s.6-1.1.6-1.9V67h1.1v7.4zm7.2-7.1c.5.2.9.5 1.2.8l-.6.8c-.6-.6-1.3-.9-2.2-.9-.5 0-1 .1-1.4.3s-.7.5-.9 1-.3.9-.3 1.4c0 .5.1 1 .3 1.4s.5.7.9 1 .8.4 1.4.4c.5 0 .9-.1 1.3-.2s.7-.4 1-.7l.6.7c-.3.4-.8.7-1.3.9s-1.1.3-1.7.3c-.7 0-1.3-.2-1.9-.5s-1-.8-1.3-1.3-.5-1.2-.5-1.9.2-1.4.5-1.9.8-1 1.3-1.3 1.2-.5 1.9-.5c.7-.1 1.3 0 1.7.2zm5.5 7.2c-.6 0-1-.2-1.4-.5s-.5-.9-.5-1.6v-4.2h-1.1v-.9h1.1v-1.9h1.1v1.9h2.3v.9h-2.3v4c0 .4.1.8.2.9s.4.3.7.3c.4 0 .8-.1 1.2-.4l.3.9c-.5.4-1 .5-1.6.6zm6.5-7.3c.4.1.8.3 1.1.5l-.4.9c-.3-.2-.6-.3-1-.4s-.7-.2-1-.2c-.4 0-.8.1-1.1.2s-.4.4-.4.7c0 .2.1.4.2.6s.3.3.6.4.5.2.9.3c.5.2.9.3 1.3.5s.6.4.8.7.3.7.3 1.1c0 .7-.3 1.2-.8 1.6s-1.2.5-1.9.5c-.5 0-1.1-.1-1.6-.3s-.9-.4-1.3-.8l.4-.8c.3.3.7.5 1.1.7s.9.3 1.3.3c.5 0 .8-.1 1.1-.3s.4-.5.4-.8-.1-.6-.4-.8-.7-.3-1.3-.5c-.5-.2-.9-.3-1.2-.4s-.6-.3-.8-.6-.3-.6-.3-1.1c0-.7.2-1.2.7-1.5s1.1-.5 1.8-.5c.7-.2 1.1-.2 1.5 0zm13.7-2c.8.4 1.4 1 1.8 1.8s.7 1.6.7 2.5-.2 1.7-.7 2.5-1.1 1.3-1.8 1.8-1.6.6-2.6.6h-3.9v-9.8h4c.8 0 1.7.2 2.5.6zm-5.4 8.1h2.9c.7 0 1.4-.2 2-.5s1.1-.8 1.4-1.4.5-1.2.5-2-.2-1.4-.5-2-.8-1-1.4-1.4-1.3-.5-2-.5h-2.8v7.8zm15.3-5.2c.6.7.9 1.8.8 3h-6c.1.7.4 1.3.9 1.7s1.1.6 1.8.6c.5 0 .9-.1 1.3-.2s.7-.4 1-.7l.6.6c-.4.4-.8.7-1.3.9s-1.1.3-1.7.3c-.7 0-1.4-.2-1.9-.5s-1-.8-1.3-1.3-.5-1.2-.5-1.9.2-1.4.5-1.9.7-1 1.3-1.3 1.2-.5 1.9-.5c1.1.1 2 .5 2.6 1.2zm-.9.5c-.4-.4-1-.6-1.7-.6s-1.3.2-1.8.6-.7 1-.8 1.7h5c0-.8-.3-1.3-.7-1.7zm6.8-1.4c.4.1.8.3 1.1.5l-.4.9c-.3-.2-.6-.3-1-.4s-.7-.2-1-.2c-.4 0-.8.1-1.1.2s-.4.4-.4.7c0 .2.1.4.2.6s.3.3.6.4.5.2.9.3c.5.2.9.3 1.3.5s.6.4.8.7.3.7.3 1.1c0 .7-.3 1.2-.8 1.6s-1.2.5-1.9.5c-.5 0-1.1-.1-1.6-.3s-.9-.4-1.3-.8l.4-.8c.3.3.7.5 1.1.7s.9.3 1.3.3c.5 0 .8-.1 1.1-.3s.4-.5.4-.8-.1-.6-.4-.8-.7-.3-1.3-.5c-.5-.2-.9-.3-1.2-.4s-.6-.3-.8-.6-.3-.6-.3-1.1c0-.7.2-1.2.7-1.5s1.1-.5 1.8-.5c.6-.2 1.1-.2 1.5 0zm4.1-2.8c.1.1.2.3.2.5s-.1.4-.2.5-.3.2-.5.2-.4-.1-.5-.2-.2-.3-.2-.5.1-.4.2-.5.3-.2.5-.2.4 0 .5.2zm-1 10V67h1.1v7.4h-1.1zm10.1-.8c0 .7-.2 1.3-.5 1.9s-.7.9-1.3 1.2-1.2.4-1.9.4c-1.1 0-2.1-.4-3-1.1l.5-.8c.4.3.8.5 1.2.7s.8.2 1.3.2c.8 0 1.4-.2 1.9-.7s.7-1.1.7-1.8v-1.1c-.3.5-.6.9-1.1 1.1s-1 .4-1.6.4c-.7 0-1.2-.2-1.7-.5s-.9-.7-1.2-1.3-.4-1.2-.4-1.8c0-.7.1-1.3.4-1.8s.7-.9 1.2-1.3 1.1-.5 1.7-.5c.6 0 1.2.1 1.6.4s.8.6 1.1 1.1V67h1.1v6.6zm-2.3-.8c.4-.2.7-.5.9-.9s.3-.8.3-1.3-.1-1-.3-1.4-.5-.7-.9-.9-.8-.3-1.3-.3-.9.1-1.3.3-.7.5-.9.9-.3.8-.3 1.4c0 .5.1.9.3 1.3s.5.7.9.9.8.3 1.3.3c.5.1 1-.1 1.3-.3zm10.8-5.1c.5.5.7 1.2.7 2.1v4.6h-1.1v-4.3c0-.7-.2-1.2-.6-1.5s-.9-.5-1.5-.5c-.7 0-1.3.2-1.7.7s-.7 1-.8 1.7v4h-1.1V67h1.1v1.6c.5-1.1 1.5-1.6 2.9-1.7.9.1 1.6.3 2.1.8zm8.8.4c.6.7.9 1.8.8 3h-6c.1.7.4 1.3.9 1.7s1.1.6 1.8.6c.5 0 .9-.1 1.3-.2s.7-.4 1-.7l.6.6c-.4.4-.8.7-1.3.9s-1.1.3-1.7.3c-.7 0-1.4-.2-1.9-.5s-1-.8-1.3-1.3-.5-1.2-.5-1.9.2-1.4.5-1.9.7-1 1.3-1.3 1.2-.5 1.9-.5c1.1.1 2 .5 2.6 1.2zm-.9.5c-.4-.4-1-.6-1.7-.6s-1.3.2-1.8.6-.7 1-.8 1.7h5c-.1-.8-.3-1.3-.7-1.7zm10.3 5.8h-1.1v-1.6c-.3.5-.7.9-1.2 1.2s-1.1.4-1.7.4c-.7 0-1.3-.2-1.8-.5s-1-.8-1.3-1.3-.4-1.2-.4-1.9.1-1.4.4-1.9.7-1 1.3-1.3 1.2-.5 1.8-.5c.7 0 1.2.1 1.7.4s.9.7 1.2 1.2V64h1.1v10.4zm-2.4-1.3c.4-.2.7-.6.9-1s.3-.9.3-1.4c0-.5-.1-1-.3-1.4s-.5-.7-.9-1-.9-.4-1.4-.4-1 .1-1.4.4-.7.6-1 1-.3.9-.3 1.4c0 .5.1 1 .3 1.4s.5.7 1 1 .9.4 1.4.4 1-.1 1.4-.4zm-120.7 17c-.6.8-1.5 1.2-2.7 1.2-.5 0-.9-.1-1.3-.3s-.7-.5-.9-.8-.3-.7-.3-1.2c0-.6.2-1.2.7-1.5s1.2-.6 2-.6h2.4v-.4c0-.6-.2-1-.5-1.3s-.8-.4-1.5-.4-1.5.3-2.3.8l-.5-.8c.5-.3 1-.6 1.4-.8s1-.2 1.6-.2c.9 0 1.6.2 2.1.7s.7 1.1.7 1.9v4.9h-1.1v-1.2zm-.9-.2c.4-.3.7-.7.9-1.2v-.9H169c-1.2 0-1.9.4-1.9 1.2 0 .4.2.7.5 1s.7.4 1.2.4c.6-.1 1.2-.2 1.6-.5zm10.4-5.4c.5.5.7 1.2.7 2.1v4.6h-1.1v-4.3c0-.7-.2-1.2-.6-1.5s-.9-.5-1.5-.5c-.7 0-1.3.2-1.7.7s-.7 1-.8 1.7v4h-1.1v-7.4h1.1v1.6c.5-1.1 1.5-1.6 2.9-1.7.9 0 1.6.2 2.1.7zm10 6.7h-1.1v-1.6c-.3.5-.7.9-1.2 1.2s-1.1.4-1.7.4c-.7 0-1.3-.2-1.8-.5s-1-.8-1.3-1.3-.4-1.2-.4-1.9.1-1.4.4-1.9.7-1 1.3-1.3 1.2-.5 1.8-.5c.7 0 1.2.1 1.7.4s.9.7 1.2 1.2v-4.6h1.1v10.4zm-2.4-1.3c.4-.2.7-.6.9-1s.3-.9.3-1.4c0-.5-.1-1-.3-1.4s-.5-.7-.9-1-.9-.4-1.4-.4-1 .1-1.4.4-.7.6-1 1-.3.9-.3 1.4c0 .5.1 1 .3 1.4s.5.7 1 1 .9.4 1.4.4 1-.1 1.4-.4zm10.2-7.4v3.4h4.6V87h-4.6v4.2h-1.1v-9.8h6.2v1.1h-5.1zm8.7 1.7c.4-.3 1-.4 1.6-.4v1.1c-.8 0-1.4.2-1.8.6s-.7 1-.8 1.8v3.9h-1.1v-7.4h1.1v1.6c.2-.5.6-.9 1-1.2zm8 .1c.6.3 1 .8 1.3 1.3s.5 1.2.5 1.9-.2 1.4-.5 1.9-.8 1-1.3 1.3-1.2.5-1.9.5-1.4-.2-1.9-.5-1-.8-1.3-1.3-.5-1.2-.5-1.9.2-1.4.5-1.9.8-1 1.3-1.3 1.2-.5 1.9-.5 1.4.2 1.9.5zm-3.3.8c-.4.2-.7.6-.9 1s-.3.9-.3 1.4c0 .5.1 1 .3 1.4s.5.7.9 1 .9.4 1.4.4 1-.1 1.4-.4.7-.6.9-1 .3-.9.3-1.4-.1-1-.3-1.4-.5-.7-.9-1-.9-.3-1.4-.3c-.5 0-1 .1-1.4.3zm13.1-.6c.5.5.7 1.2.7 2.1v4.6h-1.1v-4.3c0-.7-.2-1.2-.6-1.5s-.9-.5-1.5-.5c-.7 0-1.3.2-1.7.7s-.7 1-.8 1.7v4H219v-7.4h1.1v1.6c.5-1.1 1.5-1.6 2.9-1.7.9 0 1.6.2 2.1.7zm5.3 6.8c-.6 0-1-.2-1.4-.5s-.5-.9-.5-1.6V85h-1.1v-.9h1.1v-1.9h1.1v1.9h2.3v.9h-2.3v4c0 .4.1.8.2.9s.4.3.7.3c.4 0 .8-.1 1.2-.4l.3.9c-.5.4-1 .5-1.6.6zm2.9-3.9v-.8h3.3v.8h-3.3zm6.7-4.9v3.2h4.9v1.1H240v3.4h5.7v1.1h-6.8v-9.8h6.7v1.1H240zm13.9 2c.5.5.7 1.2.7 2.1v4.6h-1.1v-4.3c0-.7-.2-1.2-.6-1.5s-.9-.5-1.5-.5c-.7 0-1.3.2-1.7.7s-.7 1-.8 1.7v4h-1.1v-7.4h1.1v1.6c.5-1.1 1.5-1.6 2.9-1.7.9 0 1.6.2 2.1.7zm9.9 6.7h-1.1v-1.6c-.3.5-.7.9-1.2 1.2s-1.1.4-1.7.4c-.7 0-1.3-.2-1.8-.5s-1-.8-1.3-1.3-.4-1.2-.4-1.9.1-1.4.4-1.9.7-1 1.3-1.3 1.2-.5 1.8-.5c.7 0 1.2.1 1.7.4s.9.7 1.2 1.2v-4.6h1.1v10.4zm-2.3-1.3c.4-.2.7-.6.9-1s.3-.9.3-1.4c0-.5-.1-1-.3-1.4s-.5-.7-.9-1-.9-.4-1.4-.4-1 .1-1.4.4-.7.6-1 1-.3.9-.3 1.4c0 .5.1 1 .3 1.4s.5.7 1 1 .9.4 1.4.4 1-.1 1.4-.4zm15.2-8.2c.6.3 1.2.6 1.7 1l-.7.9c-.4-.4-.8-.7-1.3-.9s-1-.3-1.6-.3c-.7 0-1.4.2-2 .5s-1.1.8-1.4 1.4-.5 1.2-.5 1.9.2 1.3.5 1.9.8 1.1 1.4 1.4 1.3.5 2 .5c.5 0 1.1-.1 1.6-.3s1-.5 1.3-.9l.7.8c-.5.5-1.1.8-1.7 1.1s-1.3.4-1.9.4c-.9 0-1.8-.2-2.5-.7s-1.4-1-1.8-1.8-.7-1.6-.7-2.5c0-.9.2-1.7.7-2.5s1.1-1.3 1.9-1.8 1.6-.7 2.6-.7c.4.3 1 .4 1.7.6zm8.2 2.6c.6.3 1 .8 1.3 1.3s.5 1.2.5 1.9-.2 1.4-.5 1.9-.8 1-1.3 1.3-1.2.5-1.9.5-1.4-.2-1.9-.5-1-.8-1.3-1.3-.5-1.2-.5-1.9.2-1.4.5-1.9.8-1 1.3-1.3 1.2-.5 1.9-.5 1.3.2 1.9.5zm-3.3.8c-.4.2-.7.6-.9 1s-.3.9-.3 1.4c0 .5.1 1 .3 1.4s.5.7.9 1 .9.4 1.4.4 1-.1 1.4-.4.7-.6.9-1 .3-.9.3-1.4-.1-1-.3-1.4-.5-.7-.9-1-.9-.3-1.4-.3c-.6 0-1 .1-1.4.3zm13.8 6.1h-1.1v-1.6c-.3.5-.7.9-1.2 1.2s-1.1.4-1.7.4c-.7 0-1.3-.2-1.8-.5s-1-.8-1.3-1.3-.4-1.2-.4-1.9.1-1.4.4-1.9.7-1 1.3-1.3 1.2-.5 1.8-.5c.7 0 1.2.1 1.7.4s.9.7 1.2 1.2v-4.6h1.1v10.4zm-2.4-1.3c.4-.2.7-.6.9-1s.3-.9.3-1.4c0-.5-.1-1-.3-1.4s-.5-.7-.9-1-.9-.4-1.4-.4-1 .1-1.4.4-.7.6-1 1-.2.9-.2 1.4c0 .5.1 1 .3 1.4s.5.7 1 1 .9.4 1.4.4.9-.1 1.3-.4zm10.7-5c.6.7.9 1.8.8 3h-6c.1.7.4 1.3.9 1.7s1.1.6 1.8.6c.5 0 .9-.1 1.3-.2s.7-.4 1-.7l.5.7c-.4.4-.8.7-1.3.9s-1.1.3-1.7.3c-.7 0-1.4-.2-1.9-.5s-1-.8-1.3-1.3-.5-1.2-.5-1.9.2-1.4.5-1.9.7-1 1.3-1.3 1.2-.5 1.9-.5c1.2 0 2.1.4 2.7 1.1zm-.9.5c-.4-.4-1-.6-1.7-.6s-1.3.2-1.8.6-.7 1-.8 1.7h5c-.1-.8-.3-1.3-.7-1.7zm10.3 5.8H312v-1.6c-.3.5-.7.9-1.2 1.2s-1.1.4-1.7.4c-.7 0-1.3-.2-1.8-.5s-1-.8-1.3-1.3-.4-1.2-.4-1.9.1-1.4.4-1.9.7-1 1.3-1.3 1.2-.5 1.8-.5c.7 0 1.2.1 1.7.4s.9.7 1.2 1.2v-4.6h1.1v10.4zm-2.4-1.3c.4-.2.7-.6.9-1s.3-.9.3-1.4c0-.5-.1-1-.3-1.4s-.5-.7-.9-1-.9-.4-1.4-.4-1 .1-1.4.4-.7.6-1 1-.3.9-.3 1.4c0 .5.1 1 .3 1.4s.5.7 1 1 .9.4 1.4.4 1-.1 1.4-.4zm-140.2 8.3c.4.2.7.5.9.9s.3.9.3 1.4c0 .5-.1 1-.3 1.4s-.5.7-.9.9-.8.3-1.3.3-.9-.1-1.2-.3-.6-.5-.8-.9v3.1h-.8v-7.2h.8v1.1c.2-.4.5-.7.8-.9s.8-.3 1.2-.3c.5.2.9.3 1.3.5zm-.5 4.1c.3-.2.5-.4.7-.7s.2-.6.2-1-.1-.7-.2-1-.4-.5-.7-.7-.6-.3-1-.3-.7.1-1 .2-.5.4-.7.7-.2.6-.2 1 .1.7.2 1 .4.5.7.7.6.3 1 .3.8-.1 1-.2zm4.6-4.1c.3-.2.7-.3 1.1-.3v.8c-.5 0-1 .1-1.3.5s-.5.7-.6 1.3v2.8h-.8V98h.8v1.2c.3-.5.5-.8.8-1zm3-2.2c.1.1.1.2.1.4s0 .3-.1.4-.2.2-.4.2-.3-.1-.4-.2-.1-.2-.1-.4 0-.3.1-.4.2-.2.4-.2.3.1.4.2zm-.8 7.2v-5.3h.8v5.3h-.8zm5.9-5.1c.3.1.6.3.9.6l-.4.6c-.4-.4-.9-.6-1.6-.6-.4 0-.7.1-1 .2s-.5.4-.7.7-.2.6-.2 1 .1.7.2 1 .4.5.7.7.6.3 1 .3c.3 0 .7-.1.9-.2s.5-.3.7-.5l.4.5c-.2.3-.5.5-.9.7s-.8.2-1.2.2c-.5 0-1-.1-1.4-.3s-.7-.5-.9-.9-.3-.9-.3-1.4.1-1 .3-1.4.5-.7.9-.9.9-.3 1.4-.3c.5-.2.9-.1 1.2 0zm6.1.6c.4.5.6 1.3.6 2.2h-4.3c.1.5.3.9.6 1.2s.8.5 1.3.5c.3 0 .6-.1.9-.2s.5-.3.7-.5l.4.5c-.3.3-.6.5-.9.6s-.8.2-1.2.2c-.5 0-1-.1-1.4-.3s-.7-.5-.9-.9-.3-.9-.3-1.4.1-1 .3-1.4.5-.7.9-.9.9-.3 1.4-.3c.9-.1 1.5.2 1.9.7zm-.6.3c-.3-.3-.7-.4-1.2-.4s-.9.1-1.3.4-.5.7-.6 1.2h3.6c0-.5-.2-.9-.5-1.2zm8.5-.9c.3.1.6.3.9.6l-.4.6c-.4-.4-.9-.6-1.6-.6-.4 0-.7.1-1 .2s-.5.4-.7.7-.2.6-.2 1 .1.7.2 1 .4.5.7.7.6.3 1 .3c.3 0 .7-.1.9-.2s.5-.3.7-.5l.4.5c-.2.3-.5.5-.9.7s-.8.2-1.2.2c-.5 0-1-.1-1.4-.3s-.7-.5-.9-.9-.3-.9-.3-1.4.1-1 .3-1.4.5-.7.9-.9.9-.3 1.4-.3c.5-.2.9-.1 1.2 0zm5.6.1c.4.2.7.5.9.9s.3.9.3 1.4c0 .5-.1 1-.3 1.4s-.5.7-.9.9-.9.3-1.4.3-1-.1-1.4-.3-.7-.5-.9-.9-.3-.9-.3-1.4c0-.5.1-1 .3-1.4s.5-.7.9-.9.9-.3 1.4-.3 1 .1 1.4.3zm-2.3.7c-.3.2-.5.4-.7.7s-.2.6-.2 1 .1.7.2 1 .4.5.7.7.6.3 1 .3.7-.1 1-.3.5-.4.7-.7.2-.6.2-1-.1-.7-.2-1-.4-.5-.7-.7-.6-.2-1-.2c-.4-.1-.7 0-1 .2zm13.2-.5c.3.4.5.9.5 1.5v3.3h-.8v-3c0-.5-.1-.8-.4-1.1s-.6-.4-1.1-.4c-.5 0-1 .2-1.3.5s-.5.8-.5 1.4v2.6h-.6v-3c0-.5-.1-.8-.4-1.1s-.6-.4-1.1-.4c-.5 0-1 .2-1.3.5s-.5.8-.5 1.4v2.6h-.7v-5.3h.8v1.2c.2-.4.4-.7.8-.9s.8-.3 1.2-.3c.5 0 .9.1 1.2.4s.5.6.7 1c.2-.5.4-.8.8-1s.8-.3 1.3-.3c.6-.1 1 .1 1.4.4zm6.4-.2c.4.2.7.5.9.9s.3.9.3 1.4c0 .5-.1 1-.3 1.4s-.5.7-.9.9-.8.3-1.3.3-.9-.1-1.2-.3-.6-.5-.8-.9v3.1h-.8v-7.2h.8v1.1c.2-.4.5-.7.8-.9s.8-.3 1.2-.3c.5.2.9.3 1.3.5zm-.5 4.1c.3-.2.5-.4.7-.7s.2-.6.2-1-.1-.7-.2-1-.4-.5-.7-.7-.6-.3-1-.3-.7.1-1 .2-.5.4-.7.7-.2.6-.2 1 .1.7.2 1 .4.5.7.7.6.3 1 .3.7-.1 1-.2zm6.4.1c-.4.6-1.1.8-1.9.8-.4 0-.7-.1-.9-.2s-.5-.3-.6-.6-.2-.5-.2-.8c0-.5.2-.8.5-1.1s.8-.4 1.5-.4h1.7v-.3c0-.4-.1-.7-.4-.9s-.6-.3-1.1-.3c-.5 0-1.1.2-1.7.6l-.3-.6c.4-.2.7-.4 1-.5s.7-.2 1.1-.2c.6 0 1.1.2 1.5.5s.5.8.5 1.3v3.5h-.8v-.8zm-.7-.2c.3-.2.5-.5.6-.9v-.6h-1.6c-.9 0-1.3.3-1.3.8 0 .3.1.5.3.7s.5.3.9.3c.4.1.8 0 1.1-.3zm4.7-4c.3-.2.7-.3 1.1-.3v.8c-.5 0-1 .1-1.3.5s-.5.7-.6 1.3v2.8h-.7V98h.8v1.2c.1-.5.4-.8.7-1zm5.2 4.2c-.4.6-1.1.8-1.9.8-.4 0-.7-.1-.9-.2s-.5-.3-.6-.6-.2-.5-.2-.8c0-.5.2-.8.5-1.1s.8-.4 1.5-.4h1.7v-.3c0-.4-.1-.7-.4-.9s-.6-.3-1.1-.3c-.5 0-1.1.2-1.7.6l-.3-.6c.4-.2.7-.4 1-.5s.7-.2 1.1-.2c.6 0 1.1.2 1.5.5s.5.8.5 1.3v3.5h-.8v-.8zm-.6-.2c.3-.2.5-.5.6-.9v-.6H233c-.9 0-1.3.3-1.3.8 0 .3.1.5.3.7s.5.3.9.3c.5.1.8 0 1.2-.3zm4.6 1c-.4 0-.7-.1-1-.4s-.4-.6-.4-1.1v-3h-.8v-.6h.8v-1.4h.8v1.4h1.7v.6h-1.7v2.9c0 .3.1.5.2.7s.3.2.5.2c.3 0 .6-.1.8-.3l.2.6c-.3.3-.7.4-1.1.4zm5.8-5c.4.2.7.5.9.9s.3.9.3 1.4c0 .5-.1 1-.3 1.4s-.5.7-.9.9-.9.3-1.4.3-1-.1-1.4-.3-.7-.5-.9-.9-.3-.9-.3-1.4c0-.5.1-1 .3-1.4s.5-.7.9-.9.9-.3 1.4-.3 1 .1 1.4.3zm-2.3.7c-.3.2-.5.4-.7.7s-.2.6-.2 1 .1.7.2 1 .4.5.7.7.6.3 1 .3.7-.1 1-.3.5-.4.7-.7.2-.6.2-1-.1-.7-.2-1-.4-.5-.7-.7-.6-.2-1-.2c-.4-.1-.7 0-1 .2zm6.5-.7c.3-.2.7-.3 1.1-.3v.8c-.5 0-1 .1-1.3.5s-.5.7-.6 1.3v2.8h-.8V98h.8v1.2c.2-.5.5-.8.8-1zm4.5-.2c.3.1.5.2.8.4l-.3.6c-.2-.1-.4-.2-.7-.3s-.5-.1-.7-.1c-.3 0-.6.1-.8.2s-.3.3-.3.5.1.3.2.4.2.2.4.3.4.1.7.2c.4.1.7.2.9.3s.4.3.6.5.2.5.2.8c0 .5-.2.9-.6 1.1s-.8.4-1.4.4c-.4 0-.8-.1-1.1-.2s-.7-.3-.9-.5l.3-.6c.2.2.5.4.8.5s.6.2.9.2c.3 0 .6-.1.8-.2s.3-.3.3-.6-.1-.4-.3-.6-.5-.2-.9-.4c-.4-.1-.7-.2-.9-.3s-.4-.2-.6-.4-.2-.5-.2-.8c0-.5.2-.8.5-1.1s.8-.4 1.3-.4c.4 0 .7 0 1 .1zm2.6 4.4c.1.1.1.2.1.4 0 .1-.1.3-.2.4l-.5.7h-.4l.3-.7c-.1-.1-.2-.2-.2-.4 0-.1 0-.3.1-.4s.2-.1.3-.1.4 0 .5.1zm8.6-4c.4.4.5.9.5 1.5v3.3h-.8v-3c0-.5-.1-.8-.4-1.1s-.6-.4-1.1-.4c-.5 0-.9.2-1.2.5s-.5.7-.5 1.2v2.8h-.8v-5.3h.8v1.2c.4-.8 1-1.2 2-1.2.7 0 1.2.2 1.5.5zm6.3.3c.4.5.6 1.3.6 2.2H267c.1.5.3.9.6 1.2s.8.5 1.3.5c.3 0 .6-.1.9-.2s.5-.3.7-.5l.4.5c-.3.3-.6.5-.9.6s-.8.2-1.2.2c-.5 0-1-.1-1.4-.3s-.7-.5-.9-.9-.3-.9-.3-1.4.1-1 .3-1.4.5-.7.9-.9.9-.3 1.4-.3c.8-.1 1.4.2 1.9.7zm-.7.3c-.3-.3-.7-.4-1.2-.4s-.9.1-1.3.4-.5.7-.6 1.2h3.6c0-.5-.2-.9-.5-1.2zm7.4 4.2l-1.5-4.3-1.5 4.3h-.8l-2-5.3h.8l1.6 4.5 1.5-4.5h.8l1.5 4.5 1.5-4.5h.8l-2 5.3h-.7zm5.9-5.2c.3.1.5.2.8.4l-.3.6c-.2-.1-.4-.2-.7-.3s-.5-.1-.7-.1c-.3 0-.6.1-.8.2s-.3.3-.3.5.1.3.2.4.2.2.4.3.4.1.7.2c.4.1.7.2.9.3s.4.3.6.5.2.5.2.8c0 .5-.2.9-.6 1.1s-.8.4-1.4.4c-.4 0-.8-.1-1.1-.2s-.7-.3-.9-.5l.3-.6c.2.2.5.4.8.5s.6.2.9.2c.3 0 .6-.1.8-.2s.3-.3.3-.6-.1-.4-.3-.6-.5-.2-.9-.4c-.4-.1-.7-.2-.9-.3s-.4-.2-.6-.4-.2-.5-.2-.8c0-.5.2-.8.5-1.1s.8-.4 1.3-.4c.4 0 .7 0 1 .1zm-112.8 12.2c.4.2.7.5.9.9s.3.9.3 1.4c0 .5-.1 1-.3 1.4s-.5.7-.9.9-.8.3-1.3.3-.9-.1-1.2-.3-.6-.5-.8-.9v3.1h-.8v-7.2h.8v1.1c.2-.4.5-.7.8-.9s.8-.3 1.2-.3c.5.2.9.3 1.3.5zm-.5 4.1c.3-.2.5-.4.7-.7s.2-.6.2-1-.1-.7-.2-1-.4-.5-.7-.7-.6-.3-1-.3-.7.1-1 .2-.5.4-.7.7-.2.6-.2 1 .1.7.2 1 .4.5.7.7.6.3 1 .3.8-.1 1-.2zm3.2.9v-7.4h.8v7.4h-.8zm6-.8c-.4.6-1.1.8-1.9.8-.4 0-.7-.1-.9-.2s-.5-.3-.6-.6-.2-.5-.2-.8c0-.5.2-.8.5-1.1s.8-.4 1.5-.4h1.7v-.3c0-.4-.1-.7-.4-.9s-.6-.3-1.1-.3c-.5 0-1.1.2-1.7.6l-.3-.6c.4-.2.7-.4 1-.5s.7-.2 1.1-.2c.6 0 1.1.2 1.5.5s.5.8.5 1.3v3.5h-.8v-.8zm-.7-.2c.3-.2.5-.5.6-.9v-.6h-1.6c-.9 0-1.3.3-1.3.8 0 .3.1.5.3.7s.5.3.9.3c.4.1.8 0 1.1-.3zm4.7 1c-.4 0-.7-.1-1-.4s-.4-.6-.4-1.1v-3h-.8v-.6h.8v-1.4h.8v1.4h1.7v.6h-1.7v2.9c0 .3.1.5.2.7s.3.2.5.2c.3 0 .6-.1.8-.3l.2.6c-.3.3-.7.4-1.1.4zm3.5-6.5c-.2.2-.3.4-.3.7v.7h1.5v.6h-1.5v4.5h-.8v-4.5h-.6v-.6h.7v-.6c0-.4.1-.7.2-1s.4-.5.6-.6.5-.2.8-.2c.4 0 .8.1 1.1.4l-.3.6c-.3-.2-.5-.3-.8-.3l-.6.3zm5.5 1.5c.4.2.7.5.9.9s.3.9.3 1.4c0 .5-.1 1-.3 1.4s-.5.7-.9.9-.9.3-1.4.3-1-.1-1.4-.3-.7-.5-.9-.9-.3-.9-.3-1.4c0-.5.1-1 .3-1.4s.5-.7.9-.9.9-.3 1.4-.3 1 .1 1.4.3zm-2.3.7c-.3.2-.5.4-.7.7s-.2.6-.2 1 .1.7.2 1 .4.5.7.7.6.3 1 .3.7-.1 1-.3.5-.4.7-.7.2-.6.2-1-.1-.7-.2-1-.4-.5-.7-.7-.6-.2-1-.2c-.4-.1-.8 0-1 .2zm6.5-.7c.3-.2.7-.3 1.1-.3v.8c-.5 0-1 .1-1.3.5s-.5.7-.6 1.3v2.8h-.8V110h.8v1.2c.2-.5.5-.8.8-1zm10.4.2c.3.4.5.9.5 1.5v3.3h-.8v-3c0-.5-.1-.8-.4-1.1s-.6-.4-1.1-.4c-.5 0-1 .2-1.3.5s-.5.8-.5 1.4v2.6h-.8v-3c0-.5-.1-.8-.4-1.1s-.6-.4-1.1-.4c-.5 0-1 .2-1.3.5s-.5.8-.5 1.4v2.6h-.8v-5.3h.8v1.2c.2-.4.4-.7.8-.9s.8-.3 1.2-.3c.5 0 .9.1 1.2.4s.5.6.7 1c.2-.5.4-.8.8-1s.8-.3 1.3-.3c.8-.1 1.3.1 1.7.4zm2.6 4c.1.1.1.2.1.4 0 .1-.1.3-.2.4l-.5.7h-.4l.3-.7c-.1-.1-.2-.2-.2-.4 0-.1 0-.3.1-.4s.2-.1.3-.1.4 0 .5.1zm8.9.8h-.8V114c-.3.8-1 1.2-2 1.2-.6 0-1.1-.2-1.4-.5s-.5-.9-.5-1.5V110h.8v3c0 .5.1.8.4 1.1s.6.4 1.1.4c.5 0 1-.2 1.3-.5s.5-.8.5-1.4V110h.8v5.2zm4.2-5.2c.3.1.5.2.8.4l-.3.6c-.2-.1-.4-.2-.7-.3s-.5-.1-.7-.1c-.3 0-.6.1-.8.2s-.3.3-.3.5.1.3.2.4.2.2.4.3.4.1.7.2c.4.1.7.2.9.3s.4.3.6.5.2.5.2.8c0 .5-.2.9-.6 1.1s-.8.4-1.4.4c-.4 0-.8-.1-1.1-.2s-.7-.3-.9-.5l.3-.6c.2.2.5.4.8.5s.6.2.9.2c.3 0 .6-.1.8-.2s.3-.3.3-.6-.1-.4-.3-.6-.5-.2-.9-.4c-.4-.1-.7-.2-.9-.3s-.4-.2-.6-.4-.2-.5-.2-.8c0-.5.2-.8.5-1.1s.8-.4 1.3-.4c.4 0 .7 0 1 .1zm6.2.7c.4.5.6 1.3.6 2.2H225c.1.5.3.9.6 1.2s.8.5 1.3.5c.3 0 .6-.1.9-.2s.5-.3.7-.5l.4.5c-.3.3-.6.5-.9.6s-.8.2-1.2.2c-.5 0-1-.1-1.4-.3s-.7-.5-.9-.9-.3-.9-.3-1.4.1-1 .3-1.4.5-.7.9-.9.9-.3 1.4-.3c.9-.1 1.5.2 1.9.7zm-.7.3c-.3-.3-.7-.4-1.2-.4s-.9.1-1.3.4-.5.7-.6 1.2h3.6c0-.5-.1-.9-.5-1.2zm4.1-.8c.3-.2.7-.3 1.1-.3v.8c-.5 0-1 .1-1.3.5s-.5.7-.6 1.3v2.8h-.8V110h.8v1.2c.3-.5.5-.8.8-1zm8.2 4.2c-.4.6-1.1.8-1.9.8-.4 0-.7-.1-.9-.2s-.5-.3-.6-.6-.2-.5-.2-.8c0-.5.2-.8.5-1.1s.8-.4 1.5-.4h1.7v-.3c0-.4-.1-.7-.4-.9s-.6-.3-1.1-.3c-.5 0-1.1.2-1.7.6l-.3-.6c.4-.2.7-.4 1-.5s.7-.2 1.1-.2c.6 0 1.1.2 1.5.5s.5.8.5 1.3v3.5h-.8v-.8zm-.6-.2c.3-.2.5-.5.6-.9v-.6h-1.6c-.9 0-1.3.3-1.3.8 0 .3.1.5.3.7s.5.3.9.3c.4.1.8 0 1.1-.3zm6.4-4.1c.3.1.6.3.9.6l-.4.6c-.4-.4-.9-.6-1.6-.6-.4 0-.7.1-1 .2s-.5.4-.7.7-.2.6-.2 1 .1.7.2 1 .4.5.7.7.6.3 1 .3c.3 0 .7-.1.9-.2s.5-.3.7-.5l.4.5c-.2.3-.5.5-.9.7s-.8.2-1.2.2c-.5 0-1-.1-1.4-.3s-.7-.5-.9-.9-.3-.9-.3-1.4.1-1 .3-1.4.5-.7.9-.9.9-.3 1.4-.3c.5-.2.8-.1 1.2 0zm5.3 0c.3.1.6.3.9.6l-.4.6c-.4-.4-.9-.6-1.6-.6-.4 0-.7.1-1 .2s-.5.4-.7.7-.2.6-.2 1 .1.7.2 1 .4.5.7.7.6.3 1 .3c.3 0 .7-.1.9-.2s.5-.3.7-.5l.4.5c-.2.3-.5.5-.9.7s-.8.2-1.2.2c-.5 0-1-.1-1.4-.3s-.7-.5-.9-.9-.3-.9-.3-1.4.1-1 .3-1.4.5-.7.9-.9.9-.3 1.4-.3c.5-.2.9-.1 1.2 0zm5.7.1c.4.2.7.5.9.9s.3.9.3 1.4c0 .5-.1 1-.3 1.4s-.5.7-.9.9-.9.3-1.4.3-1-.1-1.4-.3-.7-.5-.9-.9-.3-.9-.3-1.4c0-.5.1-1 .3-1.4s.5-.7.9-.9.9-.3 1.4-.3 1 .1 1.4.3zm-2.4.7c-.3.2-.5.4-.7.7s-.2.6-.2 1 .1.7.2 1 .4.5.7.7.6.3 1 .3.7-.1 1-.3.5-.4.7-.7.2-.6.2-1-.1-.7-.2-1-.4-.5-.7-.7-.6-.2-1-.2c-.4-.1-.7 0-1 .2zm9.6 4.3h-.8V114c-.3.8-1 1.2-2 1.2-.6 0-1.1-.2-1.4-.5s-.5-.9-.5-1.5V110h.8v3c0 .5.1.8.4 1.1s.6.4 1.1.4c.5 0 1-.2 1.3-.5s.5-.8.5-1.4V110h.8v5.2zm6.2-4.8c.4.4.5.9.5 1.5v3.3h-.8v-3c0-.5-.1-.8-.4-1.1s-.6-.4-1.1-.4c-.5 0-.9.2-1.2.5s-.5.7-.5 1.2v2.8h-.8v-5.3h.8v1.2c.4-.8 1-1.2 2-1.2.6 0 1.1.2 1.5.5zm3.8 4.8c-.4 0-.7-.1-1-.4s-.4-.6-.4-1.1v-3h-.8v-.6h.8v-1.4h.8v1.4h1.7v.6h-1.7v2.9c0 .3.1.5.2.7s.3.2.5.2c.3 0 .6-.1.8-.3l.2.6c-.3.3-.7.4-1.1.4zM10.2 73v-5.8l-2.5 5h-.5l-2.5-5V73h-.8v-7h1l2.6 5 2.5-5h1v7h-.8zm6.3-5c.4.2.7.5.9.9s.3.9.3 1.4c0 .5-.1 1-.3 1.4s-.5.7-.9.9-.9.4-1.4.4-1-.1-1.4-.3-.7-.5-.9-.9-.3-.9-.3-1.4c0-.5.1-1 .3-1.4s.5-.7.9-.9.9-.3 1.4-.3 1 0 1.4.2zm-2.4.7c-.3.2-.5.4-.7.7s-.2.6-.2 1 .1.7.2 1 .4.5.7.7.6.3 1 .3.7-.1 1-.3.5-.4.7-.7.2-.6.2-1-.1-.7-.2-1-.4-.5-.7-.7-.6-.2-1-.2c-.4-.1-.7 0-1 .2zm9.3-.5c.4.4.5.9.5 1.5V73h-.8v-3c0-.5-.1-.8-.4-1.1s-.6-.4-1.1-.4c-.5 0-.9.2-1.2.5s-.5.7-.5 1.2V73h-.8v-5.3h.8v1.2c.4-.8 1-1.2 2-1.2.7 0 1.2.2 1.5.5zm3.8 4.8c-.4 0-.7-.1-1-.4s-.4-.6-.4-1.1v-3H25v-.6h.8v-1.4h.8v1.4h1.7v.6h-1.7v2.9c0 .3.1.5.2.7s.3.2.5.2c.3 0 .6-.1.8-.3l.2.6c-.3.3-.7.4-1.1.4zm6.7-4.8c.4.4.5.9.5 1.5V73h-.8v-3c0-.5-.1-.8-.4-1.1s-.6-.4-1.1-.4c-.6 0-1 .2-1.3.5s-.5.8-.5 1.4V73h-.8v-7.4h.8v3.3c.3-.8 1-1.2 2-1.2.8 0 1.3.2 1.6.5zm2.4 4.8v-7.4h.7V73h-.7zm3.7 1.7c-.3.2-.6.3-.9.3-.4 0-.8-.1-1.1-.4l.3-.6c.2.2.5.2.7.2.2 0 .4-.1.6-.2s.3-.3.4-.6l.2-.5-2.2-5.2h.8l1.7 4.4 1.7-4.4h.8l-2.4 6c-.1.5-.3.8-.6 1zm11.8-2.4c-.5.5-1.2.8-2.2.8-.9 0-1.6-.3-2.2-.8s-.8-1.2-.8-2.1V66h.8v4.1c0 .7.2 1.2.6 1.6s.9.6 1.6.6c.7 0 1.2-.2 1.6-.6s.6-.9.6-1.6V66h.8v4.1c0 .9-.3 1.6-.8 2.2zm6.9-4.1c.4.4.5.9.5 1.5V73h-.8v-3c0-.5-.1-.8-.4-1.1s-.6-.4-1.1-.4c-.5 0-.9.2-1.2.5s-.5.7-.5 1.2V73h-.8v-5.3h.8v1.2c.4-.8 1-1.2 2-1.2.7 0 1.2.2 1.5.5zm3-2.4c.1.1.1.2.1.4s0 .3-.1.4-.2.2-.4.2-.3-.1-.4-.2-.1-.2-.1-.4 0-.3.1-.4.2-.2.4-.2.3.1.4.2zM61 73v-5.3h.8V73H61zm7.5 1.9h-.8v-3.1c-.2.4-.5.7-.8.9s-.8.3-1.2.3c-.5 0-.9-.1-1.3-.3s-.7-.5-.9-.9-.3-.9-.3-1.4.1-1 .3-1.4.5-.7.9-.9.8-.3 1.3-.3.9.1 1.2.3.6.5.8.9v-1.1h.8v7zm-1.7-2.8c.3-.2.5-.4.7-.7s.2-.6.2-1-.1-.7-.2-1-.4-.5-.7-.7-.6-.3-1-.3-.7.1-1 .3-.5.4-.7.7-.2.6-.2 1 .1.7.2 1 .4.5.7.7.6.3 1 .3.7-.1 1-.3zm8.2.9h-.8v-1.2c-.3.8-1 1.2-2 1.2-.6 0-1.1-.2-1.4-.5s-.5-.9-.5-1.5v-3.2h.7v3c0 .5.1.8.4 1.1s.6.4 1.1.4c.5 0 1-.2 1.3-.5s.5-.8.5-1.4v-2.6h.7V73zm5.9-4.5c.4.5.6 1.3.6 2.2h-4.3c.1.5.3.9.6 1.2s.8.5 1.3.5c.3 0 .6-.1.9-.2s.5-.3.7-.5l.4.5c-.3.3-.6.5-.9.6s-.8.2-1.2.2c-.5 0-1-.1-1.4-.3s-.7-.5-.9-.9-.3-.9-.3-1.4.1-1 .3-1.4.5-.7.9-.9.9-.3 1.4-.3c.8-.1 1.5.2 1.9.7zm-.7.3c-.3-.3-.7-.4-1.2-.4s-.9.1-1.3.4-.5.7-.6 1.2h3.6c0-.5-.2-.9-.5-1.2zm7.3 4.2l-2.8-7h.9l2.4 6.1 2.4-6.1h.8l-2.9 7h-.8zm5.3-7.2c.1.1.1.2.1.4s0 .3-.1.4-.2.2-.4.2-.3-.1-.4-.2 0-.2 0-.4 0-.3.1-.4.2-.2.4-.2.2.1.3.2zm-.7 7.2v-5.3h.8V73h-.8zm5-5.2c.3.1.5.2.8.4l-.3.6c-.2-.1-.4-.2-.7-.3s-.5-.1-.7-.1c-.3 0-.6.1-.8.2s-.3.3-.3.5.1.3.2.4.2.2.4.3.4.1.7.2c.4.1.7.2.9.3s.4.3.6.5.2.5.2.8c0 .5-.2.9-.6 1.1s-.9.3-1.4.3c-.4 0-.8-.1-1.1-.2s-.7-.3-.9-.5l.3-.6c.2.2.5.4.8.5s.6.2.9.2c.3 0 .6-.1.8-.2s.3-.3.3-.6-.1-.4-.3-.6-.5-.2-.9-.4c-.4-.1-.7-.2-.9-.3s-.4-.2-.6-.4-.2-.5-.2-.8c0-.5.2-.8.5-1.1s.8-.4 1.3-.4c.4.1.7.1 1 .2zm2.9-2c.1.1.1.2.1.4s0 .3-.1.4-.2.2-.4.2-.3-.1-.4-.2-.1-.2-.1-.4 0-.3.1-.4.2-.2.4-.2.3.1.4.2zm-.7 7.2v-5.3h.8V73h-.8zm4.2 0c-.4 0-.7-.1-1-.4s-.4-.6-.4-1.1v-3h-.8v-.6h.8v-1.4h.8v1.4h1.7v.6h-1.7v2.9c0 .3.1.5.2.7s.3.2.5.2c.3 0 .6-.1.8-.3l.2.6c-.3.3-.7.4-1.1.4zm5.8-5c.4.2.7.5.9.9s.3.9.3 1.4c0 .5-.1 1-.3 1.4s-.5.7-.9.9-.9.3-1.4.3-1-.1-1.4-.3-.7-.5-.9-.9-.3-.9-.3-1.4c0-.5.1-1 .3-1.4s.5-.7.9-.9.9-.3 1.4-.3 1 .1 1.4.3zm-2.4.7c-.3.2-.5.4-.7.7s-.2.6-.2 1 .1.7.2 1 .4.5.7.7.6.3 1 .3.7-.1 1-.3.5-.4.7-.7.2-.6.2-1-.1-.7-.2-1-.4-.5-.7-.7-.6-.2-1-.2c-.4-.1-.7 0-1 .2zm6.6-.7c.3-.2.7-.3 1.1-.3v.8c-.5 0-1 .1-1.3.5s-.5.7-.6 1.3V73h-.8v-5.3h.8v1.2c.2-.4.4-.7.8-.9zm4.5-.2c.3.1.5.2.8.4l-.3.6c-.2-.1-.4-.2-.7-.3s-.5-.1-.7-.1c-.3 0-.6.1-.8.2s-.3.3-.3.5.1.3.2.4.2.2.4.3.4.1.7.2c.4.1.7.2.9.3s.4.3.6.5.2.5.2.8c0 .5-.2.9-.6 1.1s-.9.3-1.4.3c-.4 0-.8-.1-1.1-.2s-.7-.3-.9-.5l.3-.6c.2.2.5.4.8.5s.6.2.9.2c.3 0 .6-.1.8-.2s.3-.3.3-.6-.1-.4-.3-.6-.5-.2-.9-.4c-.4-.1-.7-.2-.9-.3s-.4-.2-.6-.4-.2-.5-.2-.8c0-.5.2-.8.5-1.1s.8-.4 1.3-.4c.4.1.7.1 1 .2zM10.2 115.4v-5.8l-2.5 5h-.5l-2.5-5v5.8h-.8v-7h1l2.6 5 2.5-5h1v7h-.8zm6.3-5c.4.2.7.5.9.9s.3.9.3 1.4c0 .5-.1 1-.3 1.4s-.5.7-.9.9-.9.3-1.4.3-1-.1-1.4-.3-.7-.5-.9-.9-.3-.9-.3-1.4c0-.5.1-1 .3-1.4s.5-.7.9-.9.9-.3 1.4-.3 1 .1 1.4.3zm-2.4.7c-.3.2-.5.4-.7.7s-.2.6-.2 1 .1.7.2 1 .4.5.7.7.6.3 1 .3.7-.1 1-.3.5-.4.7-.7.2-.6.2-1-.1-.7-.2-1-.4-.5-.7-.7-.6-.2-1-.2c-.4-.1-.7 0-1 .2zm9.3-.5c.4.4.5.9.5 1.5v3.3h-.8v-3c0-.5-.1-.8-.4-1.1s-.6-.4-1.1-.4c-.5 0-.9.2-1.2.5s-.5.7-.5 1.2v2.8h-.8v-5.3h.8v1.2c.4-.8 1-1.2 2-1.2.7 0 1.2.2 1.5.5zm3.8 4.8c-.4 0-.7-.1-1-.4s-.4-.6-.4-1.1v-3H25v-.6h.8v-1.4h.8v1.4h1.7v.6h-1.7v2.9c0 .3.1.5.2.7s.3.2.5.2c.3 0 .6-.1.8-.3l.2.6c-.3.3-.7.4-1.1.4zm6.7-4.8c.4.4.5.9.5 1.5v3.3h-.8v-3c0-.5-.1-.8-.4-1.1s-.6-.4-1.1-.4c-.6 0-1 .2-1.3.5s-.5.8-.5 1.4v2.6h-.8V108h.8v3.3c.3-.8 1-1.2 2-1.2.8 0 1.3.2 1.6.5zm2.4 4.8V108h.7v7.4h-.7zm3.7 1.7c-.3.2-.6.3-.9.3-.4 0-.8-.1-1.1-.4l.3-.6c.2.2.5.2.7.2.2 0 .4-.1.6-.2s.3-.3.4-.6l.2-.5-2.2-5.2h.8l1.7 4.4 1.7-4.4h.8l-2.4 6c-.1.5-.3.8-.6 1zm9-7.9v6.2h-.8v-6.2h-2.3v-.8h5.4v.8H49zm6.1 1.2c.4.2.7.5.9.9s.3.9.3 1.4c0 .5-.1 1-.3 1.4s-.5.7-.9.9-.9.3-1.4.3-1-.1-1.4-.3-.7-.5-.9-.9-.3-.9-.3-1.4c0-.5.1-1 .3-1.4s.5-.7.9-.9.9-.3 1.4-.3 1 .1 1.4.3zm-2.4.7c-.3.2-.5.4-.7.7s-.2.6-.2 1 .1.7.2 1 .4.5.7.7.6.3 1 .3.7-.1 1-.3.5-.4.7-.7.2-.6.2-1-.1-.7-.2-1-.4-.5-.7-.7-.6-.2-1-.2c-.3-.1-.7 0-1 .2zm6.6 4.3c-.4 0-.7-.1-1-.4s-.4-.6-.4-1.1v-3h-.8v-.6h.8v-1.4h.8v1.4h1.7v.6h-1.7v2.9c0 .3.1.5.2.7s.3.2.5.2c.3 0 .6-.1.8-.3l.2.6c-.3.3-.7.4-1.1.4zm5.6-.8c-.4.6-1.1.8-1.9.8-.4 0-.7-.1-.9-.2s-.5-.3-.6-.6-.2-.5-.2-.8c0-.5.2-.8.5-1.1s.8-.4 1.5-.4H65v-.3c0-.4-.1-.7-.4-.9s-.6-.3-1.1-.3c-.5 0-1.1.2-1.7.6l-.3-.6c.4-.2.7-.4 1-.5s.7-.2 1.1-.2c.6 0 1.1.2 1.5.5s.5.8.5 1.3v3.5h-.8v-.8zm-.6-.2c.3-.2.5-.5.6-.9v-.6h-1.6c-.9 0-1.3.3-1.3.8 0 .3.1.5.3.7s.5.3.9.3c.4.1.8 0 1.1-.3zm3.2 1V108h.8v7.4h-.8zm7.4 0l-2.8-7h.9l2.4 6.1 2.4-6.1h.8l-2.9 7h-.8zm5.3-7.2c.1.1.1.2.1.4s0 .3-.1.4-.2.2-.4.2-.3-.1-.4-.2-.1-.2-.1-.4 0-.3.1-.4.2-.2.4-.2.3.1.4.2zm-.7 7.2v-5.3h.8v5.3h-.8zm5-5.2c.3.1.5.2.8.4l-.3.6c-.2-.1-.4-.2-.7-.3s-.5-.1-.7-.1c-.3 0-.6.1-.8.2s-.3.3-.3.5.1.3.2.4.2.2.4.3.4.1.7.2c.4.1.7.2.9.3s.4.3.6.5.2.5.2.8c0 .5-.2.9-.6 1.1s-.8.4-1.4.4c-.4 0-.8-.1-1.1-.2s-.7-.3-.9-.5l.3-.6c.2.2.5.4.8.5s.6.2.9.2c.3 0 .6-.1.8-.2s.3-.3.3-.6-.1-.4-.3-.6-.5-.2-.9-.4c-.4-.1-.7-.2-.9-.3s-.4-.2-.6-.4-.2-.5-.2-.8c0-.5.2-.8.5-1.1s.8-.4 1.3-.4c.4 0 .7 0 1 .1zm2.9-2c.1.1.1.2.1.4s0 .3-.1.4-.2.2-.4.2-.3-.1-.4-.2-.1-.2-.1-.4 0-.3.1-.4.2-.2.4-.2.3.1.4.2zm-.7 7.2v-5.3h.8v5.3h-.8zm4.2 0c-.4 0-.7-.1-1-.4s-.4-.6-.4-1.1v-3h-.8v-.6h.8v-1.4h.8v1.4H92v.6h-1.7v2.9c0 .3.1.5.2.7s.3.2.5.2c.3 0 .6-.1.8-.3l.2.6c-.3.3-.7.4-1.1.4zm5.8-5c.4.2.7.5.9.9s.3.9.3 1.4c0 .5-.1 1-.3 1.4s-.5.7-.9.9-.9.3-1.4.3-1-.1-1.4-.3-.7-.5-.9-.9-.3-.9-.3-1.4c0-.5.1-1 .3-1.4s.5-.7.9-.9.9-.3 1.4-.3 1 .1 1.4.3zm-2.4.7c-.3.2-.5.4-.7.7s-.2.6-.2 1 .1.7.2 1 .4.5.7.7.6.3 1 .3.7-.1 1-.3.5-.4.7-.7.2-.6.2-1-.1-.7-.2-1-.4-.5-.7-.7-.6-.2-1-.2c-.3-.1-.7 0-1 .2zm6.6-.7c.3-.2.7-.3 1.1-.3v.8c-.5 0-1 .1-1.3.5s-.5.7-.6 1.3v2.8h-.8v-5.3h.8v1.2c.2-.5.5-.8.8-1zm4.5-.2c.3.1.5.2.8.4l-.3.6c-.2-.1-.4-.2-.7-.3s-.5-.1-.7-.1c-.3 0-.6.1-.8.2s-.3.3-.3.5.1.3.2.4.2.2.4.3.4.1.7.2c.4.1.7.2.9.3s.4.3.6.5.2.5.2.8c0 .5-.2.9-.6 1.1s-.8.4-1.4.4c-.4 0-.8-.1-1.1-.2s-.7-.3-.9-.5l.3-.6c.2.2.5.4.8.5s.6.2.9.2c.3 0 .6-.1.8-.2s.3-.3.3-.6-.1-.4-.3-.6-.5-.2-.9-.4c-.4-.1-.7-.2-.9-.3s-.4-.2-.6-.4-.2-.5-.2-.8c0-.5.2-.8.5-1.1s.8-.4 1.3-.4c.4 0 .7 0 1 .1z" fill="#0A0A0A"/><path d="M170.8 52.2v-4.3h-4.2v-3h4.2v-4.3h3.3v4.3h4.2v3h-4.2v4.3h-3.3zm9.4-14.2h6.8v16.8h-3.6V41.2h-3.2V38zm17.2 17c-2.3 0-4.1-.8-5.2-2.4-1.2-1.6-1.7-3.7-1.7-6.3s.6-4.7 1.7-6.3c1.2-1.6 2.9-2.4 5.2-2.4s4.1.8 5.2 2.4c1.2 1.6 1.7 3.7 1.7 6.3s-.6 4.7-1.7 6.3c-1.2 1.6-2.9 2.4-5.2 2.4zm-2.5-12.7c-.5 1-.8 2.4-.8 4.1 0 1.7.3 3 .8 4.1.5 1 1.4 1.5 2.5 1.5s1.9-.5 2.5-1.5.8-2.4.8-4.1c0-1.7-.3-3-.8-4.1s-1.4-1.5-2.5-1.5-2 .4-2.5 1.5zM8.2 54.4v-4.3H4v-3h4.2v-4.3h3.3v4.3h4.2v3h-4.2v4.3H8.2zm10.4-11v-3.2h10.3v2.6l-3.4 3.9c1.3.2 2.4.8 3.1 1.7.7.9 1.1 1.9 1.1 3.1 0 1.8-.6 3.1-1.8 4.1-1.2 1-2.7 1.5-4.6 1.5s-3.7-.7-5.6-2l1.5-3c1.6 1.1 3 1.7 4.2 1.7.8 0 1.4-.2 1.9-.6.5-.4.7-.9.7-1.6 0-.7-.3-1.2-.8-1.7s-1.3-.6-2.3-.6c-.5 0-1.3.2-2.2.5V47l3.2-3.8h-5.3zm20.7 13.8c-2.3 0-4.1-.8-5.2-2.4-1.2-1.6-1.7-3.7-1.7-6.3s.6-4.7 1.7-6.3c1.2-1.6 2.9-2.4 5.2-2.4s4.1.8 5.2 2.4c1.2 1.6 1.7 3.7 1.7 6.3s-.6 4.7-1.7 6.3c-1.2 1.6-2.9 2.4-5.2 2.4zm-2.5-12.7c-.5 1-.8 2.4-.8 4.1 0 1.7.3 3 .8 4.1.5 1 1.4 1.5 2.5 1.5s1.9-.5 2.5-1.5.8-2.4.8-4.1c0-1.7-.3-3-.8-4.1S40.4 43 39.3 43s-2 .4-2.5 1.5zm19 12.7c-2.3 0-4.1-.8-5.2-2.4-1.2-1.6-1.7-3.7-1.7-6.3s.6-4.7 1.7-6.3c1.2-1.6 2.9-2.4 5.2-2.4s4.1.8 5.2 2.4c1.2 1.6 1.7 3.7 1.7 6.3s-.6 4.7-1.7 6.3c-1.1 1.6-2.8 2.4-5.2 2.4zm-2.4-12.7c-.5 1-.8 2.4-.8 4.1 0 1.7.3 3 .8 4.1.5 1 1.4 1.5 2.5 1.5s1.9-.5 2.5-1.5.8-2.4.8-4.1c0-1.7-.3-3-.8-4.1S57 43 55.9 43s-2 .4-2.5 1.5zm12.7 12.1c-.4-.4-.6-.9-.6-1.5s.2-1.1.6-1.5c.4-.4.9-.6 1.5-.6s1.1.2 1.5.6c.4.4.6.9.6 1.5s-.2 1.1-.6 1.5c-.4.4-.9.6-1.5.6s-1.1-.2-1.5-.6zm13.2.6c-2.3 0-4.1-.8-5.2-2.4-1.2-1.6-1.7-3.7-1.7-6.3s.6-4.7 1.7-6.3c1.2-1.6 2.9-2.4 5.2-2.4s4.1.8 5.2 2.4c1.2 1.6 1.7 3.7 1.7 6.3s-.6 4.7-1.7 6.3c-1.1 1.6-2.9 2.4-5.2 2.4zm-2.5-12.7c-.5 1-.8 2.4-.8 4.1 0 1.7.3 3 .8 4.1.5 1 1.4 1.5 2.5 1.5s1.9-.5 2.5-1.5.8-2.4.8-4.1c0-1.7-.3-3-.8-4.1S80.4 43 79.3 43s-1.9.4-2.5 1.5zm19.1 12.7c-2.3 0-4.1-.8-5.2-2.4-1.2-1.6-1.7-3.7-1.7-6.3s.6-4.7 1.7-6.3c1.2-1.6 2.9-2.4 5.2-2.4s4.1.8 5.2 2.4c1.2 1.6 1.7 3.7 1.7 6.3s-.6 4.7-1.7 6.3c-1.2 1.6-2.9 2.4-5.2 2.4zm-2.5-12.7c-.5 1-.8 2.4-.8 4.1 0 1.7.3 3 .8 4.1.5 1 1.4 1.5 2.5 1.5s1.9-.5 2.5-1.5.8-2.4.8-4.1c0-1.7-.3-3-.8-4.1S97 43 95.9 43s-2 .4-2.5 1.5zm19 12.7c-2.3 0-4.1-.8-5.2-2.4-1.2-1.6-1.7-3.7-1.7-6.3s.6-4.7 1.7-6.3c1.2-1.6 2.9-2.4 5.2-2.4s4.1.8 5.2 2.4c1.2 1.6 1.7 3.7 1.7 6.3s-.6 4.7-1.7 6.3c-1.1 1.6-2.8 2.4-5.2 2.4zM110 44.5c-.5 1-.8 2.4-.8 4.1 0 1.7.3 3 .8 4.1.5 1 1.4 1.5 2.5 1.5s1.9-.5 2.5-1.5.8-2.4.8-4.1c0-1.7-.3-3-.8-4.1s-1.4-1.5-2.5-1.5-2 .4-2.5 1.5zM8.2 96.8v-4.3H4v-3h4.2v-4.3h3.3v4.3h4.2v3h-4.2v4.3H8.2zM29 82.6v3.2h-6.6v2.8c.5-.1 1.1-.2 1.7-.2 1.6 0 3 .5 4.2 1.5 1.2 1 1.8 2.3 1.8 3.9 0 1.7-.6 3-1.8 4.1-1.2 1.1-2.7 1.6-4.5 1.6-2.3 0-4.2-.8-5.7-2.5l2-2.7c.1.1.3.3.6.5.2.2.7.5 1.3.8.6.3 1.3.5 1.9.5.6 0 1.2-.2 1.7-.6.5-.4.7-1 .7-1.7 0-.8-.3-1.3-.8-1.7-.5-.4-1.2-.6-2.1-.6s-1.8.3-3 .9l-1.6-1.7v-8.2H29zm10.4 17c-2.3 0-4.1-.8-5.2-2.4-1.2-1.6-1.7-3.7-1.7-6.3s.6-4.7 1.7-6.3c1.2-1.6 2.9-2.4 5.2-2.4s4.1.8 5.2 2.4c1.2 1.6 1.7 3.7 1.7 6.3s-.6 4.7-1.7 6.3c-1.1 1.6-2.9 2.4-5.2 2.4zm-2.5-12.7c-.5 1-.8 2.4-.8 4.1 0 1.7.3 3 .8 4.1.5 1 1.4 1.5 2.5 1.5s1.9-.5 2.5-1.5.8-2.4.8-4.1c0-1.7-.3-3-.8-4.1s-1.4-1.5-2.5-1.5-1.9.4-2.5 1.5zM56 99.6c-2.3 0-4.1-.8-5.2-2.4-1.2-1.6-1.7-3.7-1.7-6.3s.6-4.7 1.7-6.3c1.2-1.6 2.9-2.4 5.2-2.4s4.1.8 5.2 2.4c1.2 1.6 1.7 3.7 1.7 6.3s-.6 4.7-1.7 6.3c-1.2 1.6-2.9 2.4-5.2 2.4zm-2.5-12.7c-.5 1-.8 2.4-.8 4.1 0 1.7.3 3 .8 4.1.5 1 1.4 1.5 2.5 1.5s1.9-.5 2.5-1.5.8-2.4.8-4.1c0-1.7-.3-3-.8-4.1s-1.4-1.5-2.5-1.5-2 .4-2.5 1.5zM66.2 99c-.4-.4-.6-.9-.6-1.5s.2-1.1.6-1.5c.4-.4.9-.6 1.5-.6s1.1.2 1.5.6c.4.4.6.9.6 1.5s-.2 1.1-.6 1.5c-.4.4-.9.6-1.5.6s-1.1-.2-1.5-.6zm13.2.6c-2.3 0-4.1-.8-5.2-2.4-1.2-1.6-1.7-3.7-1.7-6.3s.6-4.7 1.7-6.3c1.2-1.6 2.9-2.4 5.2-2.4s4.1.8 5.2 2.4c1.2 1.6 1.7 3.7 1.7 6.3s-.6 4.7-1.7 6.3c-1.1 1.6-2.8 2.4-5.2 2.4zM77 86.9c-.5 1-.8 2.4-.8 4.1 0 1.7.3 3 .8 4.1.5 1 1.4 1.5 2.5 1.5s1.9-.5 2.5-1.5.8-2.4.8-4.1c0-1.7-.3-3-.8-4.1s-1.4-1.5-2.5-1.5-2 .4-2.5 1.5zm19 12.7c-2.3 0-4.1-.8-5.2-2.4-1.2-1.6-1.7-3.7-1.7-6.3s.6-4.7 1.7-6.3c1.2-1.6 2.9-2.4 5.2-2.4s4.1.8 5.2 2.4c1.2 1.6 1.7 3.7 1.7 6.3s-.6 4.7-1.7 6.3c-1.2 1.6-2.9 2.4-5.2 2.4zm-2.5-12.7c-.5 1-.8 2.4-.8 4.1 0 1.7.3 3 .8 4.1.5 1 1.4 1.5 2.5 1.5s1.9-.5 2.5-1.5.8-2.4.8-4.1c0-1.7-.3-3-.8-4.1s-1.4-1.5-2.5-1.5-2 .4-2.5 1.5zm19.1 12.7c-2.3 0-4.1-.8-5.2-2.4-1.2-1.6-1.7-3.7-1.7-6.3s.6-4.7 1.7-6.3c1.2-1.6 2.9-2.4 5.2-2.4s4.1.8 5.2 2.4c1.2 1.6 1.7 3.7 1.7 6.3s-.6 4.7-1.7 6.3c-1.2 1.6-2.9 2.4-5.2 2.4zm-2.5-12.7c-.5 1-.8 2.4-.8 4.1 0 1.7.3 3 .8 4.1.5 1 1.4 1.5 2.5 1.5s1.9-.5 2.5-1.5.8-2.4.8-4.1c0-1.7-.3-3-.8-4.1s-1.4-1.5-2.5-1.5-2 .4-2.5 1.5z" fill="#844A85"/><path d="M353.9 72.8V63h1.1v9.8h-1.1zm9.9-6.7c.5.5.7 1.2.7 2.1v4.6h-1.1v-4.3c0-.7-.2-1.2-.6-1.5s-.9-.5-1.5-.5c-.7 0-1.3.2-1.7.7-.4.4-.7 1-.8 1.7v4h-1.1v-7.4h1.1V67c.5-1.1 1.5-1.6 2.9-1.7.9.1 1.6.3 2.1.8zm4.5 6.7l-2.9-7.4h1.2l2.4 6.2 2.3-6.2h1.1l-2.9 7.4h-1.2zm10-6.9c.6.3 1 .8 1.3 1.3.3.6.5 1.2.5 1.9s-.2 1.4-.5 1.9c-.3.6-.8 1-1.3 1.3s-1.2.5-1.9.5-1.4-.2-1.9-.5c-.6-.3-1-.8-1.3-1.3-.3-.6-.5-1.2-.5-1.9s.2-1.4.5-1.9c.3-.6.8-1 1.3-1.3.6-.3 1.2-.5 1.9-.5s1.4.2 1.9.5zm-3.3.8c-.4.2-.7.6-.9 1-.2.4-.3.9-.3 1.4 0 .5.1 1 .3 1.4.2.4.5.7.9 1 .4.2.9.4 1.4.4s1-.1 1.4-.4c.4-.2.7-.6.9-1 .2-.4.3-.9.3-1.4s-.1-1-.3-1.4c-.2-.4-.5-.7-.9-1-.4-.2-.9-.3-1.4-.3-.5 0-.9.1-1.4.3zm7.1 6.1V62.4h1.1v10.4h-1.1zm5.5 0l-2.9-7.4h1.2l2.4 6.2 2.3-6.2h1.1l-2.9 7.4h-1.2zm10.6-6.3c.6.7.9 1.8.8 3h-6c.1.7.4 1.3.9 1.7s1.1.6 1.8.6c.5 0 .9-.1 1.3-.2.4-.2.7-.4 1-.7l.6.6c-.4.4-.8.7-1.3.9-.5.2-1.1.3-1.7.3-.7 0-1.4-.2-1.9-.5-.6-.3-1-.8-1.3-1.3s-.5-1.2-.5-1.9.2-1.4.5-1.9c.3-.6.7-1 1.3-1.3s1.2-.5 1.9-.5c1.2.1 2.1.5 2.6 1.2zm-.9.5c-.4-.4-1-.6-1.7-.6s-1.3.2-1.8.6c-.5.4-.7 1-.8 1.7h5c0-.8-.2-1.3-.7-1.7zm15.1-.9c.5.5.7 1.2.7 2.1v4.6H412v-4.3c0-.7-.2-1.2-.5-1.5-.4-.4-.9-.6-1.5-.6-.8 0-1.3.3-1.8.8-.4.5-.6 1.1-.6 2v3.6h-1.1v-4.3c0-.7-.2-1.2-.5-1.5-.4-.4-.9-.6-1.5-.6-.7 0-1.3.3-1.8.8-.4.5-.7 1.1-.7 2v3.6h-1.1v-7.4h1.1v1.7c.2-.6.6-1 1.1-1.3.5-.3 1.1-.4 1.7-.4.7 0 1.3.2 1.7.5.5.3.8.8.9 1.4.2-.6.6-1.1 1.1-1.4s1.1-.5 1.8-.5c.9 0 1.6.2 2.1.7zm8.7.4c.6.7.9 1.8.8 3h-6c.1.7.4 1.3.9 1.7s1.1.6 1.8.6c.5 0 .9-.1 1.3-.2.4-.2.7-.4 1-.7l.6.6c-.4.4-.8.7-1.3.9-.5.2-1.1.3-1.7.3-.7 0-1.4-.2-1.9-.5-.6-.3-1-.8-1.3-1.3s-.5-1.2-.5-1.9.2-1.4.5-1.9c.3-.6.7-1 1.3-1.3s1.2-.5 1.9-.5c1.1.1 2 .5 2.6 1.2zm-.9.5c-.4-.4-1-.6-1.7-.6s-1.3.2-1.8.6c-.5.4-.7 1-.8 1.7h5c0-.8-.3-1.3-.7-1.7zm9.6-.9c.5.5.7 1.2.7 2.1v4.6h-1.1v-4.3c0-.7-.2-1.2-.6-1.5s-.9-.5-1.5-.5c-.7 0-1.3.2-1.7.7-.4.4-.7 1-.8 1.7v4h-1.1v-7.4h1.1V67c.5-1.1 1.5-1.6 2.9-1.7.9.1 1.6.3 2.1.8zm5.3 6.8c-.6 0-1-.2-1.4-.5s-.5-.9-.5-1.6v-4.2h-1.1v-.9h1.1v-1.9h1.1v1.9h2.3v.9h-2.3v4c0 .4.1.8.2.9s.4.3.7.3c.4 0 .8-.1 1.2-.4l.3.9c-.5.4-1 .5-1.6.6zm8.2-10.1c.1.1.2.3.2.5s-.1.4-.2.5-.3.2-.5.2-.4-.1-.5-.2c-.1-.1-.2-.3-.2-.5s.1-.4.2-.5c.1-.1.3-.2.5-.2s.3 0 .5.2zm-1.1 10v-7.4h1.1v7.4h-1.1zm9.8-6.7c.5.5.7 1.2.7 2.1v4.6h-1.1v-4.3c0-.7-.2-1.2-.6-1.5s-.9-.5-1.5-.5c-.7 0-1.3.2-1.7.7-.4.4-.7 1-.8 1.7v4h-1v-7.4h1.1V67c.5-1.1 1.5-1.6 2.9-1.7.8.1 1.5.3 2 .8zm13.7-2.5c.8.4 1.4 1 1.8 1.8s.7 1.6.7 2.5-.2 1.7-.7 2.5-1.1 1.3-1.8 1.8c-.8.4-1.6.6-2.6.6h-3.9V63h4c.8 0 1.7.2 2.5.6zm-5.4 8.1h2.9c.7 0 1.4-.2 2-.5.6-.3 1.1-.8 1.4-1.4.3-.6.5-1.2.5-2s-.2-1.4-.5-2c-.4-.6-.8-1-1.4-1.4-.6-.3-1.3-.5-2-.5h-2.8v7.8zm15.3-5.2c.6.7.9 1.8.8 3h-6c.1.7.4 1.3.9 1.7s1.1.6 1.8.6c.5 0 .9-.1 1.3-.2.4-.2.7-.4 1-.7l.6.6c-.4.4-.8.7-1.3.9-.5.2-1.1.3-1.7.3-.7 0-1.4-.2-1.9-.5-.6-.3-1-.8-1.3-1.3s-.5-1.2-.5-1.9.2-1.4.5-1.9c.3-.6.7-1 1.3-1.3s1.2-.5 1.9-.5c1.1.1 2 .5 2.6 1.2zm-.9.5c-.4-.4-1-.6-1.7-.6s-1.3.2-1.8.6c-.5.4-.7 1-.8 1.7h5c0-.8-.3-1.3-.7-1.7zm6.8-1.4c.4.1.8.3 1.1.5l-.4.9c-.3-.2-.6-.3-1-.4s-.7-.2-1-.2c-.4 0-.8.1-1.1.2s-.4.4-.4.7c0 .2.1.4.2.6s.3.3.6.4.5.2.9.3c.5.2.9.3 1.3.5s.6.4.8.7c.2.3.3.7.3 1.1 0 .7-.3 1.2-.8 1.6-.5.4-1.2.5-1.9.5-.5 0-1.1-.1-1.6-.3-.5-.2-.9-.4-1.3-.8l.4-.8c.3.3.7.5 1.1.7.4.2.9.3 1.3.3.5 0 .8-.1 1.1-.3s.4-.5.4-.8-.1-.6-.4-.8c-.3-.2-.7-.3-1.3-.5-.5-.2-.9-.3-1.2-.4-.3-.1-.6-.3-.8-.6-.2-.3-.3-.6-.3-1.1 0-.7.2-1.2.7-1.5s1.1-.5 1.8-.5c.6-.2 1.1-.2 1.5 0zm4.1-2.8c.1.1.2.3.2.5s-.1.4-.2.5-.3.2-.5.2-.4-.1-.5-.2c-.1-.1-.2-.3-.2-.5s.1-.4.2-.5c.1-.1.3-.2.5-.2s.4 0 .5.2zm-1 10v-7.4h1.1v7.4h-1.1zm10.1-.8c0 .7-.2 1.3-.5 1.9-.3.5-.7.9-1.3 1.2-.6.3-1.2.4-1.9.4-1.1 0-2.1-.4-3-1.1l.5-.8c.4.3.8.5 1.2.7.4.2.8.2 1.3.2.8 0 1.4-.2 1.9-.7s.7-1.1.7-1.8v-1.1c-.3.5-.6.9-1.1 1.1-.5.3-1 .4-1.6.4-.7 0-1.2-.2-1.7-.5s-.9-.7-1.2-1.3c-.3-.5-.4-1.2-.4-1.8 0-.7.1-1.3.4-1.8s.7-.9 1.2-1.3c.5-.3 1.1-.5 1.7-.5.6 0 1.2.1 1.6.4.5.3.8.6 1.1 1.1v-1.5h1.1V72zm-2.3-.8c.4-.2.7-.5.9-.9.2-.4.3-.8.3-1.3s-.1-1-.3-1.4c-.2-.4-.5-.7-.9-.9s-.8-.3-1.3-.3-.9.1-1.3.3-.7.5-.9.9-.3.8-.3 1.4c0 .5.1.9.3 1.3s.5.7.9.9.8.3 1.3.3c.5.1 1-.1 1.3-.3zm10.8-5.1c.5.5.7 1.2.7 2.1v4.6h-1.1v-4.3c0-.7-.2-1.2-.6-1.5s-.9-.5-1.5-.5c-.7 0-1.3.2-1.7.7-.4.4-.7 1-.8 1.7v4h-1.1v-7.4h1.1V67c.5-1.1 1.5-1.6 2.9-1.7.9.1 1.6.3 2.1.8zM360.4 80.7c.7.6 1 1.4 1 2.4 0 1.1-.3 1.9-1 2.5-.7.6-1.6.9-2.8.9H355v3.1h-1.1v-9.8h3.7c1.2 0 2.1.3 2.8.9zm-5.4 4.7h2.5c.9 0 1.6-.2 2.1-.6s.7-1 .7-1.7-.2-1.3-.7-1.7c-.5-.4-1.2-.6-2.1-.6H355v4.6zm10.2-2.8c.4-.3 1-.4 1.6-.4v1.1c-.8 0-1.4.2-1.8.6s-.7 1-.8 1.8v3.9h-1.1v-7.4h1.1v1.6c.2-.5.6-.9 1-1.2zm8 .1c.6.3 1 .8 1.3 1.3.3.6.5 1.2.5 1.9s-.2 1.4-.5 1.9c-.3.6-.8 1-1.3 1.3s-1.2.5-1.9.5-1.4-.2-1.9-.5c-.6-.3-1-.8-1.3-1.3-.3-.6-.5-1.2-.5-1.9s.2-1.4.5-1.9c.3-.6.8-1 1.3-1.3.6-.3 1.2-.5 1.9-.5s1.4.2 1.9.5zm-3.3.8c-.4.2-.7.6-.9 1-.2.4-.3.9-.3 1.4 0 .5.1 1 .3 1.4.2.4.5.7.9 1 .4.2.9.4 1.4.4s1-.1 1.4-.4c.4-.2.7-.6.9-1 .2-.4.3-.9.3-1.4s-.1-1-.3-1.4c-.2-.4-.5-.7-.9-1-.4-.2-.9-.3-1.4-.3-.5 0-1 .1-1.4.3zm11.6-1c.5.2.9.5 1.2.8l-.6.8c-.6-.6-1.3-.9-2.2-.9-.5 0-1 .1-1.4.3s-.7.5-.9 1c-.2.4-.3.9-.3 1.4 0 .5.1 1 .3 1.4.2.4.5.7.9 1s.8.4 1.4.4c.5 0 .9-.1 1.3-.2.4-.2.7-.4 1-.7l.6.7c-.3.4-.8.7-1.3.9-.5.2-1.1.3-1.7.3-.7 0-1.3-.2-1.9-.5-.6-.3-1-.8-1.3-1.3-.3-.6-.5-1.2-.5-1.9s.2-1.4.5-1.9c.3-.6.8-1 1.3-1.3.6-.3 1.2-.5 1.9-.5.7-.1 1.2 0 1.7.2zm8.5.8c.6.7.9 1.8.8 3h-6c.1.7.4 1.3.9 1.7s1.1.6 1.8.6c.5 0 .9-.1 1.3-.2.4-.2.7-.4 1-.7l.6.6c-.4.4-.8.7-1.3.9-.5.2-1.1.3-1.7.3-.7 0-1.4-.2-1.9-.5-.6-.3-1-.8-1.3-1.3s-.5-1.2-.5-1.9.2-1.4.5-1.9c.3-.6.7-1 1.3-1.3s1.2-.5 1.9-.5c1.1.1 2 .5 2.6 1.2zm-.9.5c-.4-.4-1-.6-1.7-.6s-1.3.2-1.8.6c-.5.4-.7 1-.8 1.7h5c0-.8-.3-1.3-.7-1.7zm6.8-1.4c.4.1.8.3 1.1.5l-.4.9c-.3-.2-.6-.3-1-.4s-.7-.2-1-.2c-.4 0-.8.1-1.1.2s-.4.4-.4.7c0 .2.1.4.2.6s.3.3.6.4.5.2.9.3c.5.2.9.3 1.3.5s.6.4.8.7c.2.3.3.7.3 1.1 0 .7-.3 1.2-.8 1.6-.5.4-1.2.5-1.9.5-.5 0-1.1-.1-1.6-.3-.5-.2-.9-.4-1.3-.8l.4-.8c.3.3.7.5 1.1.7.4.2.9.3 1.3.3.5 0 .8-.1 1.1-.3s.4-.5.4-.8-.1-.6-.4-.8c-.3-.2-.7-.3-1.3-.5-.5-.2-.9-.3-1.2-.4-.3-.1-.6-.3-.8-.6-.2-.3-.3-.6-.3-1.1 0-.7.2-1.2.7-1.5s1.1-.5 1.8-.5c.7-.2 1.1-.2 1.5 0zm6.3 0c.4.1.8.3 1.1.5l-.4.9c-.3-.2-.6-.3-1-.4s-.7-.2-1-.2c-.4 0-.8.1-1.1.2s-.4.4-.4.7c0 .2.1.4.2.6s.3.3.6.4.5.2.9.3c.5.2.9.3 1.3.5s.6.4.8.7c.2.3.3.7.3 1.1 0 .7-.3 1.2-.8 1.6-.5.4-1.2.5-1.9.5-.5 0-1.1-.1-1.6-.3-.5-.2-.9-.4-1.3-.8l.4-.8c.3.3.7.5 1.1.7.4.2.9.3 1.3.3.5 0 .8-.1 1.1-.3s.4-.5.4-.8-.1-.6-.4-.8c-.3-.2-.7-.3-1.3-.5-.5-.2-.9-.3-1.2-.4-.3-.1-.6-.3-.8-.6-.2-.3-.3-.6-.3-1.1 0-.7.2-1.2.7-1.5s1.1-.5 1.8-.5c.7-.2 1.1-.2 1.5 0zm13.7-2c.8.4 1.4 1 1.8 1.8s.7 1.6.7 2.5-.2 1.7-.7 2.5-1.1 1.3-1.8 1.8c-.8.4-1.6.6-2.6.6h-3.9v-9.8h4c.8 0 1.7.2 2.5.6zm-5.4 8.1h2.9c.7 0 1.4-.2 2-.5.6-.3 1.1-.8 1.4-1.4.3-.6.5-1.2.5-2s-.2-1.4-.5-2c-.4-.6-.8-1-1.4-1.4-.6-.3-1.3-.5-2-.5h-2.8v7.8zm15.3-5.2c.6.7.9 1.8.8 3h-6c.1.7.4 1.3.9 1.7s1.1.6 1.8.6c.5 0 .9-.1 1.3-.2.4-.2.7-.4 1-.7l.6.6c-.4.4-.8.7-1.3.9-.5.2-1.1.3-1.7.3-.7 0-1.4-.2-1.9-.5-.6-.3-1-.8-1.3-1.3s-.5-1.2-.5-1.9.2-1.4.5-1.9c.3-.6.7-1 1.3-1.3s1.2-.5 1.9-.5c1.1.1 2 .5 2.6 1.2zm-.9.5c-.4-.4-1-.6-1.7-.6s-1.3.2-1.8.6c-.5.4-.7 1-.8 1.7h5c0-.8-.3-1.3-.7-1.7zm4.1-3.6c.2-.4.5-.7.9-.8s.7-.3 1.2-.3 1 .1 1.3.4v1c-.5-.2-.9-.4-1.3-.4s-.7.1-.9.3c-.2.2-.4.5-.4 1v1h2.1v.9h-2.1v6.3h-1.1v-6.3h-1v-.9h1v-.8c-.1-.5 0-1 .3-1.4zm4 .4c-.1-.1-.2-.3-.2-.5s.1-.4.2-.5.3-.2.5-.2.4.1.5.2c.1.1.2.3.2.5s-.1.4-.2.5c-.1.1-.3.2-.5.2s-.4 0-.5-.2zm1 1.6v7.4h-1.1v-7.4h1.1zm8.7.7c.5.5.7 1.2.7 2.1v4.6h-1.1v-4.3c0-.7-.2-1.2-.6-1.5s-.9-.5-1.5-.5c-.7 0-1.3.2-1.7.7-.4.4-.7 1-.8 1.7v4h-1.1v-7.4h1.1v1.6c.5-1.1 1.5-1.6 2.9-1.7.9 0 1.6.2 2.1.7zm4.2-3.3c.1.1.2.3.2.5s-.1.4-.2.5-.3.2-.5.2-.4-.1-.5-.2c-.1-.1-.2-.3-.2-.5s.1-.4.2-.5c.1-.1.3-.2.5-.2s.4 0 .5.2zm-1 10v-7.4h1.1v7.4h-1.1zm5.8.1c-.6 0-1-.2-1.4-.5s-.5-.9-.5-1.6v-4.2h-1.1v-.9h1.1v-1.9h1.1v1.9h2.3v.9h-2.3v4c0 .4.1.8.2.9s.4.3.7.3c.4 0 .8-.1 1.2-.4l.3.9c-.4.4-1 .5-1.6.6zm4.4-10.1c.1.1.2.3.2.5s-.1.4-.2.5-.3.2-.5.2-.4-.1-.5-.2c-.1-.1-.2-.3-.2-.5s.1-.4.2-.5c.1-.1.3-.2.5-.2s.4 0 .5.2zm-1 10v-7.4h1.1v7.4h-1.1zm8.6-6.9c.6.3 1 .8 1.3 1.3.3.6.5 1.2.5 1.9s-.2 1.4-.5 1.9c-.3.6-.8 1-1.3 1.3s-1.2.5-1.9.5-1.4-.2-1.9-.5c-.6-.3-1-.8-1.3-1.3-.3-.6-.5-1.2-.5-1.9s.2-1.4.5-1.9c.3-.6.8-1 1.3-1.3.6-.3 1.2-.5 1.9-.5s1.3.2 1.9.5zm-3.3.8c-.4.2-.7.6-.9 1-.2.4-.3.9-.3 1.4 0 .5.1 1 .3 1.4.2.4.5.7.9 1 .4.2.9.4 1.4.4s1-.1 1.4-.4c.4-.2.7-.6.9-1 .2-.4.3-.9.3-1.4s-.1-1-.3-1.4c-.2-.4-.5-.7-.9-1-.4-.2-.9-.3-1.4-.3-.5 0-1 .1-1.4.3zm13-.6c.5.5.7 1.2.7 2.1v4.6H473v-4.3c0-.7-.2-1.2-.6-1.5s-.9-.5-1.5-.5c-.7 0-1.3.2-1.7.7-.4.4-.7 1-.8 1.7v4h-1.1v-7.4h1.1v1.6c.5-1.1 1.5-1.6 2.9-1.7 1 0 1.6.2 2.1.7z" fill="#0A0A0A"/><path d="M366 36.4v3.3h-7.8v3.6h7.4v3.3h-7.4v6.6h-3.7V36.4H366zm7.6 12.5c.6.8 1.5 1.2 2.5 1.2 1.1 0 1.9-.4 2.5-1.2.6-.8.9-1.8.9-3.2v-9.3h3.7v9.4c0 2.4-.7 4.3-2 5.6-1.3 1.3-3.1 2-5.2 2s-3.8-.7-5.2-2c-1.4-1.3-2-3.2-2-5.6v-9.4h3.7v9.3c.2 1.3.5 2.4 1.1 3.2zm13.6 4.3V36.4h3.7v13.4h7.2v3.3h-10.9zm13.6 0V36.4h3.7v13.4h7.2v3.3h-10.9z" fill="#844A85"/><path d="M354.3 96.9v2.5h3.3v.8h-3.3v3h-.8v-7h4.4v.8h-3.6zm8.2 1.2c.4.2.7.5.9.9.2.4.3.9.3 1.4 0 .5-.1 1-.3 1.4-.2.4-.5.7-.9.9s-.9.3-1.4.3c-.5 0-1-.1-1.4-.3-.4-.2-.7-.5-.9-.9-.2-.4-.3-.9-.3-1.4 0-.5.1-1 .3-1.4.2-.4.5-.7.9-.9.4-.2.9-.3 1.4-.3.5 0 1 .1 1.4.3zm-2.4.7c-.3.2-.5.4-.7.7-.2.3-.2.6-.2 1s.1.7.2 1c.2.3.4.5.7.7.3.2.6.3 1 .3s.7-.1 1-.3c.3-.2.5-.4.7-.7.2-.3.2-.6.2-1s-.1-.7-.2-1c-.2-.3-.4-.5-.7-.7-.3-.2-.6-.2-1-.2-.3-.1-.7 0-1 .2zm8.3-.8c.3.1.6.3.9.6l-.4.6c-.4-.4-.9-.6-1.6-.6-.4 0-.7.1-1 .2s-.5.4-.7.7c-.2.3-.2.6-.2 1s.1.7.2 1c.2.3.4.5.7.7s.6.3 1 .3c.3 0 .7-.1.9-.2.3-.1.5-.3.7-.5l.4.5c-.2.3-.5.5-.9.7-.4.2-.8.2-1.2.2-.5 0-1-.1-1.4-.3-.4-.2-.7-.5-.9-.9-.2-.4-.3-.9-.3-1.4s.1-1 .3-1.4c.2-.4.5-.7.9-.9.4-.2.9-.3 1.4-.3.5-.2.9-.1 1.2 0zm6.9 5.1h-.8v-1.2c-.3.8-1 1.2-2 1.2-.6 0-1.1-.2-1.4-.5-.4-.4-.5-.9-.5-1.5v-3.2h.8v3c0 .5.1.8.4 1.1.3.3.6.4 1.1.4.5 0 1-.2 1.3-.5s.5-.8.5-1.4v-2.6h.8v5.2zm4.2-5.2c.3.1.5.2.8.4l-.3.6c-.2-.1-.4-.2-.7-.3s-.5-.1-.7-.1c-.3 0-.6.1-.8.2s-.3.3-.3.5.1.3.2.4.2.2.4.3.4.1.7.2c.4.1.7.2.9.3s.4.3.6.5c.2.2.2.5.2.8 0 .5-.2.9-.6 1.1-.4.3-.8.4-1.4.4-.4 0-.8-.1-1.1-.2-.4-.1-.7-.3-.9-.5l.3-.6c.2.2.5.4.8.5.3.1.6.2.9.2.3 0 .6-.1.8-.2s.3-.3.3-.6-.1-.4-.3-.6c-.2-.1-.5-.2-.9-.4-.4-.1-.7-.2-.9-.3-.2-.1-.4-.2-.6-.4-.2-.2-.2-.5-.2-.8 0-.5.2-.8.5-1.1s.8-.4 1.3-.4c.4 0 .8 0 1 .1zm3-2c.1.1.1.2.1.4s0 .3-.1.4-.2.2-.4.2-.3-.1-.4-.2c-.1-.1-.1-.2-.1-.4s0-.3.1-.4c.1-.1.2-.2.4-.2s.3.1.4.2zm-.7 7.2v-5.3h.8v5.3h-.8zm6.9-4.8c.4.4.5.9.5 1.5v3.3h-.8v-3c0-.5-.1-.8-.4-1.1s-.6-.4-1.1-.4c-.5 0-.9.2-1.2.5-.3.3-.5.7-.5 1.2v2.8h-.8v-5.3h.8V99c.4-.8 1-1.2 2-1.2.7 0 1.2.2 1.5.5zm6.9 4.2c0 .5-.1 1-.3 1.3-.2.4-.5.7-.9.9-.4.2-.9.3-1.4.3-.8 0-1.5-.3-2.2-.8l.4-.6c.3.2.5.4.8.5.3.1.6.2.9.2.6 0 1-.2 1.4-.5s.5-.8.5-1.3v-.8c-.2.4-.4.6-.8.8-.3.2-.7.3-1.2.3s-.9-.1-1.2-.3c-.4-.2-.6-.5-.9-.9-.2-.4-.3-.8-.3-1.3s.1-.9.3-1.3.5-.7.8-.9c.4-.2.8-.3 1.2-.3.4 0 .8.1 1.2.3.3.2.6.5.8.8v-1.1h.8v4.7zm-1.7-.5c.3-.2.5-.4.6-.7.2-.3.2-.6.2-1s-.1-.7-.2-1c-.2-.3-.4-.5-.6-.7s-.6-.2-.9-.2c-.3 0-.7.1-.9.2s-.5.4-.6.7-.2.6-.2 1 .1.7.2 1 .4.5.6.7.6.2.9.2c.3 0 .7-.1.9-.2zm9.7-3.9c.4.2.7.5.9.9.2.4.3.9.3 1.4 0 .5-.1 1-.3 1.4-.2.4-.5.7-.9.9s-.9.3-1.4.3c-.5 0-1-.1-1.4-.3-.4-.2-.7-.5-.9-.9-.2-.4-.3-.9-.3-1.4 0-.5.1-1 .3-1.4.2-.4.5-.7.9-.9.4-.2.9-.3 1.4-.3.5 0 1 .1 1.4.3zm-2.4.7c-.3.2-.5.4-.7.7-.2.3-.2.6-.2 1s.1.7.2 1c.2.3.4.5.7.7.3.2.6.3 1 .3s.7-.1 1-.3c.3-.2.5-.4.7-.7.2-.3.2-.6.2-1s-.1-.7-.2-1c-.2-.3-.4-.5-.7-.7-.3-.2-.6-.2-1-.2-.3-.1-.7 0-1 .2zm9.3-.5c.4.4.5.9.5 1.5v3.3h-.8v-3c0-.5-.1-.8-.4-1.1s-.6-.4-1.1-.4c-.5 0-.9.2-1.2.5-.3.3-.5.7-.5 1.2v2.8h-.8v-5.3h.8V99c.4-.8 1-1.2 2-1.2.7 0 1.2.2 1.5.5zm9.2-.2c.4.2.7.5.9.9.2.4.3.9.3 1.4 0 .5-.1 1-.3 1.4s-.5.7-.9.9c-.4.2-.8.3-1.3.3s-.9-.1-1.2-.3c-.4-.2-.6-.5-.8-.9v1.1h-.8v-7.4h.8V99c.2-.4.5-.7.8-.9.3-.2.8-.3 1.2-.3.5 0 .9.1 1.3.3zm-.5 4.1c.3-.2.5-.4.7-.7s.2-.6.2-1-.1-.7-.2-1-.4-.5-.7-.7c-.3-.2-.6-.3-1-.3s-.7.1-1 .2c-.3.2-.5.4-.7.7-.2.3-.2.6-.2 1s.1.7.2 1c.2.3.4.5.7.7.3.2.6.3 1 .3s.8-.1 1-.2zm7.7.9h-.8v-1.2c-.3.8-1 1.2-2 1.2-.6 0-1.1-.2-1.4-.5-.4-.4-.5-.9-.5-1.5v-3.2h.8v3c0 .5.1.8.4 1.1.3.3.6.4 1.1.4.5 0 1-.2 1.3-.5s.5-.8.5-1.4v-2.6h.8v5.2zm4.2-5.2c.3.1.5.2.8.4l-.3.6c-.2-.1-.4-.2-.7-.3s-.5-.1-.7-.1c-.3 0-.6.1-.8.2s-.3.3-.3.5.1.3.2.4.2.2.4.3.4.1.7.2c.4.1.7.2.9.3s.4.3.6.5c.2.2.2.5.2.8 0 .5-.2.9-.6 1.1-.4.3-.8.4-1.4.4-.4 0-.8-.1-1.1-.2-.4-.1-.7-.3-.9-.5l.3-.6c.2.2.5.4.8.5.3.1.6.2.9.2.3 0 .6-.1.8-.2s.3-.3.3-.6-.1-.4-.3-.6c-.2-.1-.5-.2-.9-.4-.4-.1-.7-.2-.9-.3-.2-.1-.4-.2-.6-.4-.2-.2-.2-.5-.2-.8 0-.5.2-.8.5-1.1s.8-.4 1.3-.4c.4 0 .7 0 1 .1zm3-2c.1.1.1.2.1.4s0 .3-.1.4-.2.2-.4.2-.3-.1-.4-.2c-.1-.1-.1-.2-.1-.4s0-.3.1-.4c.1-.1.2-.2.4-.2s.3.1.4.2zm-.8 7.2v-5.3h.8v5.3h-.8zm7-4.8c.4.4.5.9.5 1.5v3.3h-.8v-3c0-.5-.1-.8-.4-1.1s-.6-.4-1.1-.4c-.5 0-.9.2-1.2.5-.3.3-.5.7-.5 1.2v2.8h-.8v-5.3h.8V99c.4-.8 1-1.2 2-1.2.6 0 1.1.2 1.5.5zm6.2.3c.4.5.6 1.3.6 2.2h-4.3c.1.5.3.9.6 1.2s.8.5 1.3.5c.3 0 .6-.1.9-.2.3-.1.5-.3.7-.5l.4.5c-.3.3-.6.5-.9.6-.4.2-.8.2-1.2.2-.5 0-1-.1-1.4-.3-.4-.2-.7-.5-.9-.9s-.3-.9-.3-1.4.1-1 .3-1.4c.2-.4.5-.7.9-.9s.9-.3 1.4-.3c.9-.1 1.5.2 1.9.7zm-.6.3c-.3-.3-.7-.4-1.2-.4s-.9.1-1.3.4c-.3.3-.5.7-.6 1.2h3.6c-.1-.5-.2-.9-.5-1.2zm4.8-1c.3.1.5.2.8.4l-.3.6c-.2-.1-.4-.2-.7-.3s-.5-.1-.7-.1c-.3 0-.6.1-.8.2s-.3.3-.3.5.1.3.2.4.2.2.4.3.4.1.7.2c.4.1.7.2.9.3s.4.3.6.5c.2.2.2.5.2.8 0 .5-.2.9-.6 1.1-.4.3-.8.4-1.4.4-.4 0-.8-.1-1.1-.2-.4-.1-.7-.3-.9-.5l.3-.6c.2.2.5.4.8.5.3.1.6.2.9.2.3 0 .6-.1.8-.2s.3-.3.3-.6-.1-.4-.3-.6c-.2-.1-.5-.2-.9-.4-.4-.1-.7-.2-.9-.3-.2-.1-.4-.2-.6-.4-.2-.2-.2-.5-.2-.8 0-.5.2-.8.5-1.1s.8-.4 1.3-.4c.4 0 .7 0 1 .1zm4.5 0c.3.1.5.2.8.4l-.3.6c-.2-.1-.4-.2-.7-.3s-.5-.1-.7-.1c-.3 0-.6.1-.8.2s-.3.3-.3.5.1.3.2.4.2.2.4.3.4.1.7.2c.4.1.7.2.9.3s.4.3.6.5c.2.2.2.5.2.8 0 .5-.2.9-.6 1.1-.4.3-.8.4-1.4.4-.4 0-.8-.1-1.1-.2-.4-.1-.7-.3-.9-.5l.3-.6c.2.2.5.4.8.5.3.1.6.2.9.2.3 0 .6-.1.8-.2s.3-.3.3-.6-.1-.4-.3-.6c-.2-.1-.5-.2-.9-.4-.4-.1-.7-.2-.9-.3-.2-.1-.4-.2-.6-.4-.2-.2-.2-.5-.2-.8 0-.5.2-.8.5-1.1s.8-.4 1.3-.4.8 0 1 .1zm8.3 4.4c-.4.6-1.1.8-1.9.8-.4 0-.7-.1-.9-.2-.3-.1-.5-.3-.6-.6-.1-.2-.2-.5-.2-.8 0-.5.2-.8.5-1.1s.8-.4 1.5-.4h1.7v-.3c0-.4-.1-.7-.4-.9s-.6-.3-1.1-.3c-.5 0-1.1.2-1.7.6l-.3-.6c.4-.2.7-.4 1-.5.3-.1.7-.2 1.1-.2.6 0 1.1.2 1.5.5.3.3.5.8.5 1.3v3.5h-.8v-.8zm-.7-.2c.3-.2.5-.5.6-.9v-.6h-1.6c-.9 0-1.3.3-1.3.8 0 .3.1.5.3.7s.5.3.9.3c.4.1.8 0 1.1-.3zm7.5-3.8c.4.4.5.9.5 1.5v3.3h-.8v-3c0-.5-.1-.8-.4-1.1s-.6-.4-1.1-.4c-.5 0-.9.2-1.2.5-.3.3-.5.7-.5 1.2v2.8h-.8v-5.3h.8V99c.4-.8 1-1.2 2-1.2.6 0 1.1.2 1.5.5zm7.1 4.8h-.8V102c-.2.4-.5.7-.8.9-.4.2-.8.3-1.2.3-.5 0-.9-.1-1.3-.3-.4-.2-.7-.5-.9-.9-.2-.4-.3-.9-.3-1.4s.1-1 .3-1.4c.2-.4.5-.7.9-.9s.8-.3 1.3-.3.9.1 1.2.3.6.5.8.9v-3.3h.8v7.2zm-1.7-.9c.3-.2.5-.4.7-.7s.2-.6.2-1-.1-.7-.2-1-.4-.5-.7-.7-.6-.3-1-.3-.7.1-1 .3-.5.4-.7.7-.2.6-.2 1 .1.7.2 1 .4.5.7.7.6.3 1 .3.7-.1 1-.3zm-117.5 12.9h-.8V114c-.2.4-.5.7-.8.9-.4.2-.8.3-1.2.3-.5 0-.9-.1-1.3-.3s-.7-.5-.9-.9c-.2-.4-.3-.9-.3-1.4s.1-1 .3-1.4c.2-.4.5-.7.9-.9.4-.2.8-.3 1.3-.3s.9.1 1.2.3c.4.2.6.5.8.9v-3.3h.8v7.2zm-1.7-.9c.3-.2.5-.4.7-.7.2-.3.2-.6.2-1s-.1-.7-.2-1c-.2-.3-.4-.5-.7-.7-.3-.2-.6-.3-1-.3s-.7.1-1 .3c-.3.2-.5.4-.7.7-.2.3-.2.6-.2 1s.1.7.2 1c.2.3.4.5.7.7.3.2.6.3 1 .3.4-.1.7-.1 1-.3zm7.6-3.6c.4.5.6 1.3.6 2.2h-4.3c.1.5.3.9.6 1.2s.8.5 1.3.5c.3 0 .6-.1.9-.2.3-.1.5-.3.7-.5l.4.5c-.3.3-.6.5-.9.6-.4.2-.8.2-1.2.2-.5 0-1-.1-1.4-.3-.4-.2-.7-.5-.9-.9s-.3-.9-.3-1.4.1-1 .3-1.4c.2-.4.5-.7.9-.9s.9-.3 1.4-.3c.9-.1 1.5.2 1.9.7zm-.6.3c-.3-.3-.7-.4-1.2-.4s-.9.1-1.3.4c-.3.3-.5.7-.6 1.2h3.6c0-.5-.2-.9-.5-1.2zm3.5 4.2l-2.1-5.3h.8l1.7 4.5 1.7-4.5h.8l-2.1 5.3h-.8zm7.6-4.5c.4.5.6 1.3.6 2.2h-4.3c.1.5.3.9.6 1.2s.8.5 1.3.5c.3 0 .6-.1.9-.2.3-.1.5-.3.7-.5l.4.5c-.3.3-.6.5-.9.6-.4.2-.8.2-1.2.2-.5 0-1-.1-1.4-.3-.4-.2-.7-.5-.9-.9s-.3-.9-.3-1.4.1-1 .3-1.4c.2-.4.5-.7.9-.9s.9-.3 1.4-.3c.9-.1 1.5.2 1.9.7zm-.6.3c-.3-.3-.7-.4-1.2-.4s-.9.1-1.3.4c-.3.3-.5.7-.6 1.2h3.6c0-.5-.2-.9-.5-1.2zm2.6 4.2v-7.4h.8v7.4h-.8zm6.2-5c.4.2.7.5.9.9.2.4.3.9.3 1.4 0 .5-.1 1-.3 1.4-.2.4-.5.7-.9.9s-.9.3-1.4.3c-.5 0-1-.1-1.4-.3-.4-.2-.7-.5-.9-.9-.2-.4-.3-.9-.3-1.4 0-.5.1-1 .3-1.4.2-.4.5-.7.9-.9.4-.2.9-.3 1.4-.3.6 0 1 .1 1.4.3zm-2.3.7c-.3.2-.5.4-.7.7-.2.3-.2.6-.2 1s.1.7.2 1c.2.3.4.5.7.7.3.2.6.3 1 .3s.7-.1 1-.3c.3-.2.5-.4.7-.7.2-.3.2-.6.2-1s-.1-.7-.2-1c-.2-.3-.4-.5-.7-.7-.3-.2-.6-.2-1-.2-.4-.1-.7 0-1 .2zm9.2-.7c.4.2.7.5.9.9.2.4.3.9.3 1.4 0 .5-.1 1-.3 1.4s-.5.7-.9.9c-.4.2-.8.3-1.3.3s-.9-.1-1.2-.3c-.4-.2-.6-.5-.8-.9v3.1h-.8v-7.2h.8v1.1c.2-.4.5-.7.8-.9.3-.2.8-.3 1.2-.3.4.2.9.3 1.3.5zm-.5 4.1c.3-.2.5-.4.7-.7s.2-.6.2-1-.1-.7-.2-1-.4-.5-.7-.7c-.3-.2-.6-.3-1-.3s-.7.1-1 .2c-.3.2-.5.4-.7.7-.2.3-.2.6-.2 1s.1.7.2 1c.2.3.4.5.7.7.3.2.6.3 1 .3s.7-.1 1-.2zm11.2-3.9c.3.4.5.9.5 1.5v3.3h-.8v-3c0-.5-.1-.8-.4-1.1-.3-.3-.6-.4-1.1-.4-.5 0-1 .2-1.3.5-.3.4-.5.8-.5 1.4v2.6h-.8v-3c0-.5-.1-.8-.4-1.1-.3-.3-.6-.4-1.1-.4-.5 0-1 .2-1.3.5-.3.4-.5.8-.5 1.4v2.6h-.8v-5.3h.8v1.2c.2-.4.4-.7.8-.9.3-.2.8-.3 1.2-.3.5 0 .9.1 1.2.4.3.2.5.6.7 1 .2-.5.4-.8.8-1s.8-.3 1.3-.3c.9-.1 1.4.1 1.7.4zm6.3.3c.4.5.6 1.3.6 2.2H403c.1.5.3.9.6 1.2s.8.5 1.3.5c.3 0 .6-.1.9-.2.3-.1.5-.3.7-.5l.4.5c-.3.3-.6.5-.9.6-.4.2-.8.2-1.2.2-.5 0-1-.1-1.4-.3-.4-.2-.7-.5-.9-.9s-.3-.9-.3-1.4.1-1 .3-1.4c.2-.4.5-.7.9-.9s.9-.3 1.4-.3c.8-.1 1.4.2 1.9.7zm-.7.3c-.3-.3-.7-.4-1.2-.4s-.9.1-1.3.4c-.3.3-.5.7-.6 1.2h3.6c0-.5-.2-.9-.5-1.2zm6.9-.6c.4.4.5.9.5 1.5v3.3h-.8v-3c0-.5-.1-.8-.4-1.1s-.6-.4-1.1-.4c-.5 0-.9.2-1.2.5-.3.3-.5.7-.5 1.2v2.8h-.8v-5.3h.8v1.2c.4-.8 1-1.2 2-1.2.6 0 1.1.2 1.5.5zm3.7 4.8c-.4 0-.7-.1-1-.4s-.4-.6-.4-1.1v-3h-.8v-.6h.8v-1.4h.8v1.4h1.7v.6H416v2.9c0 .3.1.5.2.7s.3.2.5.2c.3 0 .6-.1.8-.3l.2.6c-.2.3-.6.4-1.1.4z"/><path d="M554.6 61.1c.6.3 1.2.6 1.7 1l-.7.9c-.4-.4-.8-.7-1.3-.9-.5-.2-1-.3-1.6-.3-.7 0-1.4.2-2 .5-.6.3-1.1.8-1.4 1.4-.4.6-.5 1.2-.5 1.9s.2 1.3.5 1.9c.4.6.8 1.1 1.4 1.4.6.3 1.3.5 2 .5.5 0 1.1-.1 1.6-.3.5-.2 1-.5 1.3-.9l.7.8c-.5.5-1.1.8-1.7 1.1-.6.3-1.3.4-1.9.4-.9 0-1.8-.2-2.5-.7s-1.4-1-1.8-1.8c-.5-.8-.7-1.6-.7-2.5 0-.9.2-1.7.7-2.5s1.1-1.3 1.9-1.8 1.6-.7 2.6-.7c.4.3 1.1.4 1.7.6zm8.2 2.6c.6.3 1 .8 1.3 1.3.3.6.5 1.2.5 1.9s-.2 1.4-.5 1.9c-.3.6-.8 1-1.3 1.3s-1.2.5-1.9.5-1.4-.2-1.9-.5c-.6-.3-1-.8-1.3-1.3-.3-.6-.5-1.2-.5-1.9s.2-1.4.5-1.9c.3-.6.8-1 1.3-1.3.6-.3 1.2-.5 1.9-.5s1.3.2 1.9.5zm-3.3.8c-.4.2-.7.6-.9 1-.2.4-.3.9-.3 1.4 0 .5.1 1 .3 1.4.2.4.5.7.9 1 .4.2.9.4 1.4.4s1-.1 1.4-.4c.4-.2.7-.6.9-1 .2-.4.3-.9.3-1.4s-.1-1-.3-1.4c-.2-.4-.5-.7-.9-1-.4-.2-.9-.3-1.4-.3-.5 0-1 .1-1.4.3zm13-.6c.5.5.7 1.2.7 2.1v4.6h-1.1v-4.3c0-.7-.2-1.2-.6-1.5s-.9-.5-1.5-.5c-.7 0-1.3.2-1.7.7-.4.4-.7 1-.8 1.7v4h-1.1v-7.4h1.1v1.6c.5-1.1 1.5-1.6 2.9-1.7 1 0 1.6.2 2.1.7zm4.6 6.7l-2.9-7.4h1.2l2.4 6.2 2.3-6.2h1.1l-2.9 7.4h-1.2zm10.6-6.3c.6.7.9 1.8.8 3h-6c.1.7.4 1.3.9 1.7s1.1.6 1.8.6c.5 0 .9-.1 1.3-.2.4-.2.7-.4 1-.7l.6.6c-.4.4-.8.7-1.3.9-.5.2-1.1.3-1.7.3-.7 0-1.4-.2-1.9-.5-.6-.3-1-.8-1.3-1.3s-.5-1.2-.5-1.9.2-1.4.5-1.9c.3-.6.7-1 1.3-1.3s1.2-.5 1.9-.5c1.1.1 2 .5 2.6 1.2zm-.9.5c-.4-.4-1-.6-1.7-.6s-1.3.2-1.8.6c-.5.4-.7 1-.8 1.7h5c0-.8-.3-1.3-.7-1.7zm5.7-1.2c.4-.3 1-.4 1.6-.4v1.1c-.8 0-1.4.2-1.8.6s-.7 1-.8 1.8v3.9h-1.1v-7.4h1.1v1.6c.2-.5.5-.9 1-1.2zm6.3-.2c.4.1.8.3 1.1.5l-.4.9c-.3-.2-.6-.3-1-.4s-.7-.2-1-.2c-.4 0-.8.1-1.1.2s-.4.4-.4.7c0 .2.1.4.2.6s.3.3.6.4.5.2.9.3c.5.2.9.3 1.3.5s.6.4.8.7c.2.3.3.7.3 1.1 0 .7-.3 1.2-.8 1.6-.5.4-1.2.5-1.9.5-.5 0-1.1-.1-1.6-.3-.5-.2-.9-.4-1.3-.8l.4-.8c.3.3.7.5 1.1.7.4.2.9.3 1.3.3.5 0 .8-.1 1.1-.3s.4-.5.4-.8-.1-.6-.4-.8c-.3-.2-.7-.3-1.3-.5-.5-.2-.9-.3-1.2-.4-.3-.1-.6-.3-.8-.6-.2-.3-.3-.6-.3-1.1 0-.7.2-1.2.7-1.5s1.1-.5 1.8-.5c.7-.2 1.1-.2 1.5 0zm4.1-2.8c.1.1.2.3.2.5s-.1.4-.2.5-.3.2-.5.2-.4-.1-.5-.2c-.1-.1-.2-.3-.2-.5s.1-.4.2-.5c.1-.1.3-.2.5-.2s.4 0 .5.2zm-1 10v-7.4h1.1v7.4h-1.1zm8.7-6.9c.6.3 1 .8 1.3 1.3.3.6.5 1.2.5 1.9s-.2 1.4-.5 1.9c-.3.6-.8 1-1.3 1.3s-1.2.5-1.9.5-1.4-.2-1.9-.5c-.6-.3-1-.8-1.3-1.3-.3-.6-.5-1.2-.5-1.9s.2-1.4.5-1.9c.3-.6.8-1 1.3-1.3.6-.3 1.2-.5 1.9-.5s1.3.2 1.9.5zm-3.3.8c-.4.2-.7.6-.9 1-.2.4-.3.9-.3 1.4 0 .5.1 1 .3 1.4.2.4.5.7.9 1 .4.2.9.4 1.4.4s1-.1 1.4-.4c.4-.2.7-.6.9-1 .2-.4.3-.9.3-1.4s-.1-1-.3-1.4c-.2-.4-.5-.7-.9-1-.4-.2-.9-.3-1.4-.3-.6 0-1 .1-1.4.3zm13-.6c.5.5.7 1.2.7 2.1v4.6h-1.1v-4.3c0-.7-.2-1.2-.6-1.5s-.9-.5-1.5-.5c-.7 0-1.3.2-1.7.7-.4.4-.7 1-.8 1.7v4h-1.1v-7.4h1.1v1.6c.5-1.1 1.5-1.6 2.9-1.7.9 0 1.6.2 2.1.7zm7.2 6.7v-9.8h1.1v9.8h-1.1zm15.4-6.7c.5.5.7 1.2.7 2.1v4.6h-1.1v-4.3c0-.7-.2-1.2-.5-1.5-.4-.4-.9-.6-1.5-.6-.8 0-1.3.3-1.8.8-.4.5-.6 1.1-.6 2v3.6H637v-4.3c0-.7-.2-1.2-.5-1.5-.4-.4-.9-.6-1.5-.6-.7 0-1.3.3-1.8.8-.4.5-.7 1.1-.7 2v3.6h-1.1v-7.4h1.1v1.7c.2-.6.6-1 1.1-1.3.5-.3 1.1-.4 1.7-.4.7 0 1.3.2 1.7.5.5.3.8.8.9 1.4.2-.6.6-1.1 1.1-1.4s1.1-.5 1.8-.5c.9 0 1.6.2 2.1.7zm8.9-.2c.5.3 1 .8 1.3 1.3.3.6.4 1.2.4 1.9s-.1 1.4-.4 1.9-.7 1-1.2 1.3c-.5.3-1.1.5-1.8.5s-1.2-.1-1.7-.4c-.5-.3-.9-.7-1.2-1.2v4.3h-1.1V63.2h1.1v1.6c.3-.5.6-.9 1.1-1.2.5-.3 1.1-.4 1.7-.4.7 0 1.3.1 1.8.5zm-.6 5.6c.4-.2.7-.6.9-1s.3-.9.3-1.4-.1-1-.3-1.4-.5-.7-.9-1c-.4-.2-.9-.4-1.4-.4-.5 0-1 .1-1.4.3-.4.2-.7.6-.9 1-.2.4-.3.9-.3 1.4 0 .5.1 1 .3 1.4.2.4.5.7.9 1 .4.2.9.4 1.4.4.5.1 1-.1 1.4-.3zm6.4-5.7c.4-.3 1-.4 1.6-.4v1.1c-.8 0-1.4.2-1.8.6s-.7 1-.8 1.8v3.9h-1.1v-7.4h1.1v1.6c.2-.5.5-.9 1-1.2zm8 .1c.6.3 1 .8 1.3 1.3.3.6.5 1.2.5 1.9s-.2 1.4-.5 1.9c-.3.6-.8 1-1.3 1.3s-1.2.5-1.9.5-1.4-.2-1.9-.5c-.6-.3-1-.8-1.3-1.3-.3-.6-.5-1.2-.5-1.9s.2-1.4.5-1.9c.3-.6.8-1 1.3-1.3.6-.3 1.2-.5 1.9-.5s1.3.2 1.9.5zm-3.3.8c-.4.2-.7.6-.9 1-.2.4-.3.9-.3 1.4 0 .5.1 1 .3 1.4.2.4.5.7.9 1 .4.2.9.4 1.4.4s1-.1 1.4-.4c.4-.2.7-.6.9-1 .2-.4.3-.9.3-1.4s-.1-1-.3-1.4c-.2-.4-.5-.7-.9-1-.4-.2-.9-.3-1.4-.3-.5 0-1 .1-1.4.3zm8.4 6.1l-2.9-7.4h1.2l2.4 6.2 2.3-6.2h1.1l-2.9 7.4h-1.2zm10.7-6.3c.6.7.9 1.8.8 3h-6c.1.7.4 1.3.9 1.7s1.1.6 1.8.6c.5 0 .9-.1 1.3-.2.4-.2.7-.4 1-.7l.6.6c-.4.4-.8.7-1.3.9-.5.2-1.1.3-1.7.3-.7 0-1.4-.2-1.9-.5-.6-.3-1-.8-1.3-1.3s-.5-1.2-.5-1.9.2-1.4.5-1.9c.3-.6.7-1 1.3-1.3s1.2-.5 1.9-.5c1.1.1 2 .5 2.6 1.2zm-.9.5c-.4-.4-1-.6-1.7-.6s-1.3.2-1.8.6c-.5.4-.7 1-.8 1.7h5c-.1-.8-.3-1.3-.7-1.7zm15-.9c.5.5.7 1.2.7 2.1v4.6h-1.1v-4.3c0-.7-.2-1.2-.5-1.5-.4-.4-.9-.6-1.5-.6-.8 0-1.3.3-1.8.8-.4.5-.6 1.1-.6 2v3.6h-1.1v-4.3c0-.7-.2-1.2-.5-1.5-.4-.4-.9-.6-1.5-.6-.7 0-1.3.3-1.8.8-.4.5-.7 1.1-.7 2v3.6H684v-7.4h1.1v1.7c.2-.6.6-1 1.1-1.3.5-.3 1.1-.4 1.7-.4.7 0 1.3.2 1.7.5.5.3.8.8.9 1.4.2-.6.6-1.1 1.1-1.4s1.1-.5 1.8-.5c.9 0 1.6.2 2.1.7zm8.7.4c.6.7.9 1.8.8 3h-6c.1.7.4 1.3.9 1.7s1.1.6 1.8.6c.5 0 .9-.1 1.3-.2.4-.2.7-.4 1-.7l.6.6c-.4.4-.8.7-1.3.9-.5.2-1.1.3-1.7.3-.7 0-1.4-.2-1.9-.5-.6-.3-1-.8-1.3-1.3s-.5-1.2-.5-1.9.2-1.4.5-1.9c.3-.6.7-1 1.3-1.3s1.2-.5 1.9-.5c1.1.1 2 .5 2.6 1.2zm-.9.5c-.4-.4-1-.6-1.7-.6s-1.3.2-1.8.6c-.5.4-.7 1-.8 1.7h5c0-.8-.3-1.3-.7-1.7zm9.6-.9c.5.5.7 1.2.7 2.1v4.6h-1.1v-4.3c0-.7-.2-1.2-.6-1.5s-.9-.5-1.5-.5c-.7 0-1.3.2-1.7.7-.4.4-.7 1-.8 1.7v4h-1.1v-7.4h1.1v1.6c.5-1.1 1.5-1.6 2.9-1.7.9 0 1.6.2 2.1.7zm5.3 6.8c-.6 0-1-.2-1.4-.5s-.5-.9-.5-1.6v-4.2h-1.1v-.9h1.1v-1.9h1.1v1.9h2.3v.9h-2.3v4c0 .4.1.8.2.9s.4.3.7.3c.4 0 .8-.1 1.2-.4l.3.9c-.5.4-1 .5-1.6.6z" fill="#0A0A0A"/><path d="M552.4 48.4v-4.3h-4.2v-3h4.2v-4.3h3.3v4.3h4.2v3h-4.2v4.3h-3.3zm9.4-14.2h6.8V51H565V37.4h-3.2v-3.2zm17.2 17c-2.3 0-4.1-.8-5.2-2.4-1.2-1.6-1.7-3.7-1.7-6.3s.6-4.7 1.7-6.3c1.2-1.6 2.9-2.4 5.2-2.4s4.1.8 5.2 2.4c1.2 1.6 1.7 3.7 1.7 6.3s-.6 4.7-1.7 6.3c-1.2 1.6-2.9 2.4-5.2 2.4zm-2.5-12.7c-.5 1-.8 2.4-.8 4.1 0 1.7.3 3 .8 4.1.5 1 1.4 1.5 2.5 1.5s1.9-.5 2.5-1.5c.5-1 .8-2.4.8-4.1 0-1.7-.3-3-.8-4.1-.5-1-1.4-1.5-2.5-1.5s-2 .4-2.5 1.5zm19.4-.5c0 .9-.3 1.7-1 2.4s-1.5 1-2.5 1-1.9-.3-2.5-1c-.7-.7-1-1.5-1-2.4s.3-1.7 1-2.4 1.5-1 2.5-1 1.9.3 2.5 1 1 1.5 1 2.4zm9.2-3.8l-12 16.8H589l12-16.8h4.1zm-13.5 4.7c.2.2.4.3.7.3s.5-.1.7-.3c.2-.2.3-.5.3-.9s-.1-.6-.3-.9c-.2-.2-.4-.3-.7-.3-.3 0-.5.1-.7.3-.2.2-.3.5-.3.9s.1.7.3.9zm13.7 8.9c0 .9-.3 1.7-1 2.4-.7.6-1.5 1-2.5 1s-1.9-.3-2.5-1c-.7-.7-1-1.5-1-2.4s.3-1.7 1-2.4 1.5-1 2.5-1 1.9.3 2.5 1c.7.7 1 1.5 1 2.4zm-4.2.9c.2.2.4.3.7.3s.5-.1.7-.3c.2-.2.3-.5.3-.9s-.1-.6-.3-.9c-.2-.2-.4-.3-.7-.3s-.5.1-.7.3c-.2.2-.3.5-.3.9s.1.7.3.9z" fill="#844A85"/><path d="M548.7 83.1l-.8 1.8h-.9l3.1-7h.8l3.1 7h-.9l-.8-1.8h-3.6zm1.9-4.3l-1.6 3.5h3.1l-1.5-3.5zm5.7-.4c-.2.2-.3.4-.3.7v.7h1.5v.6H556v4.5h-.8v-4.5h-.7v-.6h.7v-.6c0-.4.1-.7.2-1 .2-.3.4-.5.6-.6.3-.1.5-.2.8-.2.4 0 .8.1 1.1.4l-.3.6c-.3-.2-.5-.3-.8-.3-.1.1-.3.2-.5.3zm3.7 6.5c-.4 0-.7-.1-1-.4s-.4-.6-.4-1.1v-3h-.8v-.6h.8v-1.4h.8v1.4h1.7v.6h-1.7v2.9c0 .3.1.5.2.7s.3.2.5.2c.3 0 .6-.1.8-.3l.2.6c-.3.3-.7.4-1.1.4zm6.2-4.5c.4.5.6 1.3.6 2.2h-4.3c.1.5.3.9.6 1.2s.8.5 1.3.5c.3 0 .6-.1.9-.2.3-.1.5-.3.7-.5l.4.5c-.3.3-.6.5-.9.6-.4.2-.8.2-1.2.2-.5 0-1-.1-1.4-.3-.4-.2-.7-.5-.9-.9s-.3-.9-.3-1.4.1-1 .3-1.4c.2-.4.5-.7.9-.9s.9-.3 1.4-.3c.9-.1 1.5.2 1.9.7zm-.6.3c-.3-.3-.7-.4-1.2-.4s-.9.1-1.3.4c-.3.3-.5.7-.6 1.2h3.6c0-.5-.2-.9-.5-1.2zm4-.8c.3-.2.7-.3 1.1-.3v.8c-.5 0-1 .1-1.3.5s-.5.7-.6 1.3V85h-.8v-5.3h.8v1.2c.3-.5.5-.8.8-1zm5.1 5v-7h.8v7h-.8zm4.3 0c-.4 0-.7-.1-1-.4s-.4-.6-.4-1.1v-3h-.8v-.6h.8v-1.4h.8v1.4h1.7v.6h-1.7v2.9c0 .3.1.5.2.7s.3.2.5.2c.3 0 .6-.1.8-.3l.2.6c-.3.3-.7.4-1.1.4zm6.3-4.5c.4.5.6 1.3.6 2.2h-4.3c.1.5.3.9.6 1.2s.8.5 1.3.5c.3 0 .6-.1.9-.2.3-.1.5-.3.7-.5l.4.5c-.3.3-.6.5-.9.6-.4.2-.8.2-1.2.2-.5 0-1-.1-1.4-.3-.4-.2-.7-.5-.9-.9s-.3-.9-.3-1.4.1-1 .3-1.4c.2-.4.5-.7.9-.9s.9-.3 1.4-.3c.8-.1 1.5.2 1.9.7zm-.7.3c-.3-.3-.7-.4-1.2-.4s-.9.1-1.3.4c-.3.3-.5.7-.6 1.2h3.6c0-.5-.1-.9-.5-1.2zm4.1-.8c.3-.2.7-.3 1.1-.3v.8c-.5 0-1 .1-1.3.5s-.5.7-.6 1.3V85h-.8v-5.3h.8v1.2c.2-.5.5-.8.8-1zm5.2 4.2c-.4.6-1.1.8-1.9.8-.4 0-.7-.1-.9-.2-.3-.1-.5-.3-.6-.6-.1-.2-.2-.5-.2-.8 0-.5.2-.8.5-1.1s.8-.4 1.5-.4h1.7v-.3c0-.4-.1-.7-.4-.9s-.6-.3-1.1-.3c-.5 0-1.1.2-1.7.6l-.3-.6c.4-.2.7-.4 1-.5.3-.1.7-.2 1.1-.2.6 0 1.1.2 1.5.5.4.3.5.8.5 1.3v3.5h-.8v-.8zm-.6-.2c.3-.2.5-.5.6-.9v-.6h-1.6c-.9 0-1.3.3-1.3.8 0 .3.1.5.3.7s.5.3.9.3c.4.1.8 0 1.1-.3zm4.7 1c-.4 0-.7-.1-1-.4s-.4-.6-.4-1.1v-3h-.8v-.6h.8v-1.4h.8v1.4h1.7v.6h-1.7v2.9c0 .3.1.5.2.7s.3.2.5.2c.3 0 .6-.1.8-.3l.2.6c-.3.3-.7.4-1.1.4zm3.1-7.2c.1.1.1.2.1.4s0 .3-.1.4-.2.2-.4.2-.3-.1-.4-.2c-.1-.1-.1-.2-.1-.4s0-.3.1-.4c.1-.1.2-.2.4-.2s.3.1.4.2zm-.8 7.2v-5.3h.8v5.3h-.8zm6.2-5c.4.2.7.5 1 .9.2.4.3.9.3 1.4 0 .5-.1 1-.3 1.4-.2.4-.5.7-1 .9s-.9.3-1.4.3c-.5 0-1-.1-1.4-.3-.4-.2-.7-.5-1-.9-.2-.4-.3-.9-.3-1.4 0-.5.1-1 .3-1.4.2-.4.5-.7 1-.9.4-.2.9-.3 1.4-.3.5 0 1 .1 1.4.3zm-2.3.7c-.3.2-.5.4-.7.7-.2.3-.2.6-.2 1s.1.7.2 1c.2.3.4.5.7.7.3.2.6.3 1 .3s.7-.1 1-.3c.3-.2.5-.4.7-.7.2-.3.2-.6.2-1s-.1-.7-.2-1c-.2-.3-.4-.5-.7-.7-.3-.2-.6-.2-1-.2-.4-.1-.8 0-1 .2zm9.3-.5c.4.4.5.9.5 1.5v3.3h-.8v-3c0-.5-.1-.8-.4-1.1s-.6-.4-1.1-.4c-.5 0-.9.2-1.2.5-.3.3-.5.7-.5 1.2v2.8h-.8v-5.3h.8v1.2c.4-.8 1-1.2 2-1.2.6 0 1.1.2 1.5.5zm8.2 4c-.4.6-1.1.8-1.9.8-.4 0-.7-.1-.9-.2-.3-.1-.5-.3-.6-.6-.1-.2-.2-.5-.2-.8 0-.5.2-.8.5-1.1s.8-.4 1.5-.4h1.7v-.3c0-.4-.1-.7-.4-.9s-.6-.3-1.1-.3c-.5 0-1.1.2-1.7.6l-.3-.6c.4-.2.7-.4 1-.5.3-.1.7-.2 1.1-.2.6 0 1.1.2 1.5.5.4.3.5.8.5 1.3v3.5h-.8v-.8zm-.6-.2c.3-.2.5-.5.6-.9v-.6h-1.6c-.9 0-1.3.3-1.3.8 0 .3.1.5.3.7s.5.3.9.3c.4.1.8 0 1.1-.3zm7.4-3.8c.4.4.5.9.5 1.5v3.3h-.8v-3c0-.5-.1-.8-.4-1.1s-.6-.4-1.1-.4c-.5 0-.9.2-1.2.5-.3.3-.5.7-.5 1.2v2.8h-.8v-5.3h.8v1.2c.4-.8 1-1.2 2-1.2.7 0 1.2.2 1.5.5zm7.1 4.8h-.8v-1.1c-.2.4-.5.7-.8.9-.3.2-.8.3-1.2.3-.5 0-.9-.1-1.3-.3s-.7-.5-.9-.9c-.2-.4-.3-.9-.3-1.4s.1-1 .3-1.4c.2-.4.5-.7.9-.9.4-.2.8-.3 1.3-.3s.9.1 1.2.3c.4.2.6.5.8.9v-3.3h.8v7.2zm-1.7-.9c.3-.2.5-.4.7-.7.2-.3.2-.6.2-1s-.1-.7-.2-1c-.2-.3-.4-.5-.7-.7-.3-.2-.6-.3-1-.3s-.7.1-1 .3c-.3.2-.5.4-.7.7-.2.3-.2.6-.2 1s.1.7.2 1c.2.3.4.5.7.7.3.2.6.3 1 .3.4-.1.7-.1 1-.3zm9.9-4.1c.4.2.7.5 1 .9.2.4.3.9.3 1.4 0 .5-.1 1-.3 1.4-.2.4-.5.7-1 .9s-.9.3-1.4.3c-.5 0-1-.1-1.4-.3-.4-.2-.7-.5-1-.9-.2-.4-.3-.9-.3-1.4 0-.5.1-1 .3-1.4.2-.4.5-.7 1-.9.4-.2.9-.3 1.4-.3.6 0 1 .1 1.4.3zm-2.3.7c-.3.2-.5.4-.7.7-.2.3-.2.6-.2 1s.1.7.2 1c.2.3.4.5.7.7.3.2.6.3 1 .3s.7-.1 1-.3c.3-.2.5-.4.7-.7.2-.3.2-.6.2-1s-.1-.7-.2-1c-.2-.3-.4-.5-.7-.7-.3-.2-.6-.2-1-.2-.4-.1-.7 0-1 .2zm5 4.3v-7.4h.8v7.4h-.8zm7.6 0h-.8v-1.1c-.2.4-.5.7-.8.9-.3.2-.8.3-1.2.3-.5 0-.9-.1-1.3-.3s-.7-.5-.9-.9c-.2-.4-.3-.9-.3-1.4s.1-1 .3-1.4c.2-.4.5-.7.9-.9.4-.2.8-.3 1.3-.3s.9.1 1.2.3c.4.2.6.5.8.9v-3.3h.8v7.2zm-1.7-.9c.3-.2.5-.4.7-.7.2-.3.2-.6.2-1s-.1-.7-.2-1c-.2-.3-.4-.5-.7-.7-.3-.2-.6-.3-1-.3s-.7.1-1 .3c-.3.2-.5.4-.7.7-.2.3-.2.6-.2 1s.1.7.2 1c.2.3.4.5.7.7.3.2.6.3 1 .3.4-.1.7-.1 1-.3zm7.6-3.6c.4.5.6 1.3.6 2.2h-4.3c.1.5.3.9.6 1.2s.8.5 1.3.5c.3 0 .6-.1.9-.2.3-.1.5-.3.7-.5l.4.5c-.3.3-.6.5-.9.6-.4.2-.8.2-1.2.2-.5 0-1-.1-1.4-.3-.4-.2-.7-.5-.9-.9s-.3-.9-.3-1.4.1-1 .3-1.4c.2-.4.5-.7.9-.9s.9-.3 1.4-.3c.9-.1 1.5.2 1.9.7zm-.6.3c-.3-.3-.7-.4-1.2-.4s-.9.1-1.3.4c-.3.3-.5.7-.6 1.2h3.6c0-.5-.2-.9-.5-1.2zm4.1-.8c.3-.2.7-.3 1.1-.3v.8c-.5 0-1 .1-1.3.5s-.5.7-.6 1.3V85h-.8v-5.3h.8v1.2c.2-.5.4-.8.8-1zm9.1 0c.4.2.7.5.9.9.2.4.3.9.3 1.4 0 .5-.1 1-.3 1.4-.2.4-.5.7-.9.9-.4.2-.8.3-1.3.3s-.9-.1-1.2-.3c-.4-.2-.6-.5-.8-.9v3.1h-.8v-7.2h.8v1.1c.2-.4.5-.7.8-.9.3-.2.8-.3 1.2-.3.4.2.9.3 1.3.5zm-.5 4.1c.3-.2.5-.4.7-.7.2-.3.2-.6.2-1s-.1-.7-.2-1c-.2-.3-.4-.5-.7-.7s-.6-.3-1-.3-.7.1-1 .2-.5.4-.7.7-.2.6-.2 1 .1.7.2 1 .4.5.7.7.6.3 1 .3.7-.1 1-.2zm4.6-4.1c.3-.2.7-.3 1.1-.3v.8c-.5 0-1 .1-1.3.5s-.5.7-.6 1.3V85h-.8v-5.3h.8v1.2c.2-.5.4-.8.8-1zm5.7 0c.4.2.7.5.9.9s.3.9.3 1.4c0 .5-.1 1-.3 1.4s-.5.7-.9.9c-.4.2-.9.3-1.4.3s-1-.1-1.4-.3-.7-.5-.9-.9c-.2-.4-.3-.9-.3-1.4 0-.5.1-1 .3-1.4.2-.4.5-.7.9-.9s.9-.3 1.4-.3 1 .1 1.4.3zm-2.4.7c-.3.2-.5.4-.7.7s-.2.6-.2 1 .1.7.2 1 .4.5.7.7.6.3 1 .3.7-.1 1-.3.5-.4.7-.7.2-.6.2-1-.1-.7-.2-1-.4-.5-.7-.7c-.3-.2-.6-.2-1-.2-.4-.1-.7 0-1 .2zm9.9 4.3h-.8v-1.1c-.2.4-.5.7-.8.9-.4.2-.8.3-1.2.3-.5 0-.9-.1-1.3-.3-.4-.2-.7-.5-.9-.9-.2-.4-.3-.9-.3-1.4s.1-1 .3-1.4c.2-.4.5-.7.9-.9s.8-.3 1.3-.3.9.1 1.2.3.6.5.8.9v-3.3h.8v7.2zm-1.7-.9c.3-.2.5-.4.7-.7s.2-.6.2-1-.1-.7-.2-1-.4-.5-.7-.7-.6-.3-1-.3-.7.1-1 .3-.5.4-.7.7-.2.6-.2 1 .1.7.2 1 .4.5.7.7.6.3 1 .3.7-.1 1-.3zm8.2.9h-.8v-1.2c-.3.8-1 1.2-2 1.2-.6 0-1.1-.2-1.4-.5-.4-.4-.5-.9-.5-1.5v-3.2h.8v3c0 .5.1.8.4 1.1s.6.4 1.1.4c.5 0 1-.2 1.3-.5.3-.4.5-.8.5-1.4v-2.6h.8v5.2zm5.1-5.1c.3.1.6.3.9.6l-.4.6c-.4-.4-.9-.6-1.6-.6-.4 0-.7.1-1 .2s-.5.4-.7.7-.2.6-.2 1 .1.7.2 1 .4.5.7.7.6.3 1 .3c.3 0 .7-.1.9-.2s.5-.3.7-.5l.4.5c-.2.3-.5.5-.9.7-.4.2-.8.2-1.2.2-.5 0-1-.1-1.4-.3s-.7-.5-.9-.9c-.2-.4-.3-.9-.3-1.4s.1-1 .3-1.4c.2-.4.5-.7.9-.9s.9-.3 1.4-.3c.5-.2.9-.1 1.2 0zm3.9 5.1c-.4 0-.7-.1-1-.4s-.4-.6-.4-1.1v-3h-.8v-.6h.8v-1.4h.8v1.4h1.7v.6h-1.7v2.9c0 .3.1.5.2.7s.3.2.5.2c.3 0 .6-.1.8-.3l.2.6c-.3.3-.7.4-1.1.4zm-155.9 7c.3-.2.7-.3 1.1-.3v.8c-.5 0-1 .1-1.3.5s-.5.7-.6 1.3V97h-.7v-5.3h.8v1.2c.1-.5.4-.8.7-1zm6.1.5c.4.5.6 1.3.6 2.2h-4.3c.1.5.3.9.6 1.2s.8.5 1.3.5c.3 0 .6-.1.9-.2.3-.1.5-.3.7-.5l.4.5c-.3.3-.6.5-.9.6-.4.2-.8.2-1.2.2-.5 0-1-.1-1.4-.3-.4-.2-.7-.5-.9-.9s-.3-.9-.3-1.4.1-1 .3-1.4c.2-.4.5-.7.9-.9s.9-.3 1.4-.3c.9-.1 1.5.2 1.9.7zm-.6.3c-.3-.3-.7-.4-1.2-.4s-.9.1-1.3.4c-.3.3-.5.7-.6 1.2h3.6c0-.5-.2-.9-.5-1.2zm7.4 4.2h-.8v-1.1c-.2.4-.5.7-.8.9-.3.2-.8.3-1.2.3-.5 0-.9-.1-1.3-.3s-.7-.5-.9-.9c-.2-.4-.3-.9-.3-1.4s.1-1 .3-1.4c.2-.4.5-.7.9-.9.4-.2.8-.3 1.3-.3s.9.1 1.2.3c.4.2.6.5.8.9v-3.3h.8v7.2zm-1.7-.9c.3-.2.5-.4.7-.7.2-.3.2-.6.2-1s-.1-.7-.2-1c-.2-.3-.4-.5-.7-.7-.3-.2-.6-.3-1-.3s-.7.1-1 .3c-.3.2-.5.4-.7.7-.2.3-.2.6-.2 1s.1.7.2 1c.2.3.4.5.7.7.3.2.6.3 1 .3.4-.1.7-.1 1-.3zm7.6-3.6c.4.5.6 1.3.6 2.2h-4.3c.1.5.3.9.6 1.2s.8.5 1.3.5c.3 0 .6-.1.9-.2.3-.1.5-.3.7-.5l.4.5c-.3.3-.6.5-.9.6-.4.2-.8.2-1.2.2-.5 0-1-.1-1.4-.3-.4-.2-.7-.5-.9-.9s-.3-.9-.3-1.4.1-1 .3-1.4c.2-.4.5-.7.9-.9s.9-.3 1.4-.3c.9-.1 1.5.2 1.9.7zm-.6.3c-.3-.3-.7-.4-1.2-.4s-.9.1-1.3.4c-.3.3-.5.7-.6 1.2h3.6c-.1-.5-.2-.9-.5-1.2zm4.8-1c.3.1.5.2.8.4l-.3.6c-.2-.1-.4-.2-.7-.3s-.5-.1-.7-.1c-.3 0-.6.1-.8.2s-.3.3-.3.5.1.3.2.4.2.2.4.3.4.1.7.2c.4.1.7.2.9.3s.4.3.6.5c.2.2.2.5.2.8 0 .5-.2.9-.6 1.1-.4.3-.8.4-1.4.4-.4 0-.8-.1-1.1-.2-.4-.1-.7-.3-.9-.5l.3-.6c.2.2.5.4.8.5.3.1.6.2.9.2.3 0 .6-.1.8-.2s.3-.3.3-.6-.1-.4-.3-.6c-.2-.1-.5-.2-.9-.4-.4-.1-.7-.2-.9-.3-.2-.1-.4-.2-.6-.4-.2-.2-.2-.5-.2-.8 0-.5.2-.8.5-1.1s.8-.4 1.3-.4c.4 0 .7 0 1 .1zm3-2c.1.1.1.2.1.4s0 .3-.1.4-.2.2-.4.2-.3-.1-.4-.2c-.1-.1-.1-.2-.1-.4s0-.3.1-.4c.1-.1.2-.2.4-.2s.3.1.4.2zm-.8 7.2v-5.3h.8v5.3h-.8zm7.3-.6c0 .5-.1 1-.3 1.3-.2.4-.5.7-.9.9-.4.2-.9.3-1.4.3-.8 0-1.5-.3-2.2-.8l.4-.6c.3.2.5.4.8.5.3.1.6.2.9.2.6 0 1-.2 1.4-.5s.5-.8.5-1.3v-.8c-.2.4-.4.6-.8.8-.3.2-.7.3-1.2.3s-.9-.1-1.2-.3c-.4-.2-.6-.5-.9-.9-.2-.4-.3-.8-.3-1.3s.1-.9.3-1.3.5-.7.8-.9c.4-.2.8-.3 1.2-.3.4 0 .8.1 1.2.3.3.2.6.5.8.8v-1.1h.8v4.7zm-1.7-.5c.3-.2.5-.4.6-.7.2-.3.2-.6.2-1s-.1-.7-.2-1c-.2-.3-.4-.5-.6-.7s-.6-.2-.9-.2c-.3 0-.7.1-.9.2s-.5.4-.6.7-.2.6-.2 1 .1.7.2 1 .4.5.6.7.6.2.9.2c.4 0 .7-.1.9-.2zm7.8-3.7c.4.4.5.9.5 1.5v3.3h-.8v-3c0-.5-.1-.8-.4-1.1s-.6-.4-1.1-.4c-.5 0-.9.2-1.2.5-.3.3-.5.7-.5 1.2v2.8h-.8v-5.3h.8v1.2c.4-.8 1-1.2 2-1.2.6 0 1.1.2 1.5.5z"/></svg>