<svg xmlns="http://www.w3.org/2000/svg" viewBox="0 0 724 142.4"><g fill="#0A0A0A"><path d="M418.3 71.3H415v3.1h-1.1v-9.8h3.7c1.2 0 2.2.3 2.8.9s1 1.4 1 2.4c0 .8-.2 1.5-.6 2-.4.5-.9.9-1.6 1.2l2.3 3.3h-1.3l-1.9-3.1zm1.4-1.7c.5-.4.7-1 .7-1.7s-.2-1.3-.7-1.7c-.5-.4-1.2-.6-2.1-.6H415v4.6h2.6c.9 0 1.6-.2 2.1-.6zM429.4 68.1c.6.7.9 1.8.8 3h-6c.1.7.4 1.3.9 1.7s1.1.6 1.8.6c.5 0 .9-.1 1.3-.2.4-.2.7-.4 1-.7l.6.6c-.4.4-.8.7-1.3.9-.5.2-1.1.3-1.7.3-.7 0-1.4-.2-1.9-.5-.6-.3-1-.8-1.3-1.3s-.5-1.2-.5-1.9.2-1.4.5-1.9c.3-.6.7-1 1.3-1.3s1.2-.5 1.9-.5c1.1.1 2 .5 2.6 1.2zm-.9.5c-.4-.4-1-.6-1.7-.6s-1.3.2-1.8.6c-.5.4-.7 1-.8 1.7h5c0-.8-.3-1.3-.7-1.7zM433.5 74.4l-2.9-7.4h1.2l2.4 6.2 2.3-6.2h1.1l-2.9 7.4h-1.2zM444.1 68.1c.6.7.9 1.8.8 3h-6c.1.7.4 1.3.9 1.7s1.1.6 1.8.6c.5 0 .9-.1 1.3-.2.4-.2.7-.4 1-.7l.6.6c-.4.4-.8.7-1.3.9-.5.2-1.1.3-1.7.3-.7 0-1.4-.2-1.9-.5-.6-.3-1-.8-1.3-1.3s-.5-1.2-.5-1.9.2-1.4.5-1.9c.3-.6.7-1 1.3-1.3s1.2-.5 1.9-.5c1.2.1 2 .5 2.6 1.2zm-.9.5c-.4-.4-1-.6-1.7-.6s-1.3.2-1.8.6c-.5.4-.7 1-.8 1.7h5c0-.8-.2-1.3-.7-1.7zM452.8 67.7c.5.5.7 1.2.7 2.1v4.6h-1.1v-4.3c0-.7-.2-1.2-.6-1.5s-.9-.5-1.5-.5c-.7 0-1.3.2-1.7.7-.4.4-.7 1-.8 1.7v4h-1.1V67h1.1v1.6c.5-1.1 1.5-1.6 2.9-1.7.9.1 1.6.3 2.1.8zM462.4 74.4h-1.1v-1.7c-.5 1.1-1.4 1.7-2.8 1.7-.9 0-1.5-.3-2-.8s-.7-1.2-.7-2.1V67h1.1v4.3c0 .7.2 1.2.5 1.5.4.4.9.5 1.5.5.8 0 1.3-.3 1.8-.8s.6-1.1.6-1.9V67h1.1v7.4zM470.6 68.1c.6.7.9 1.8.8 3h-6c.1.7.4 1.3.9 1.7s1.1.6 1.8.6c.5 0 .9-.1 1.3-.2.4-.2.7-.4 1-.7l.6.6c-.4.4-.8.7-1.3.9-.5.2-1.1.3-1.7.3-.7 0-1.4-.2-1.9-.5-.6-.3-1-.8-1.3-1.3s-.5-1.2-.5-1.9.2-1.4.5-1.9c.3-.6.7-1 1.3-1.3s1.2-.5 1.9-.5c1.1.1 2 .5 2.6 1.2zm-.9.5c-.4-.4-1-.6-1.7-.6s-1.3.2-1.8.6c-.5.4-.7 1-.8 1.7h5c0-.8-.3-1.3-.7-1.7zM478.1 64.4c.1.1.2.3.2.5s-.1.4-.2.5-.3.2-.5.2-.4-.1-.5-.2c-.1-.1-.2-.3-.2-.5s.1-.4.2-.5c.1-.1.3-.2.5-.2s.4 0 .5.2zm-1 10V67h1.1v7.4h-1.1zM486.8 67.7c.5.5.7 1.2.7 2.1v4.6h-1.1v-4.3c0-.7-.2-1.2-.6-1.5s-.9-.5-1.5-.5c-.7 0-1.3.2-1.7.7-.4.4-.7 1-.8 1.7v4h-1.1V67h1.1v1.6c.5-1.1 1.5-1.6 2.9-1.7 1 .1 1.6.3 2.1.8zM494.6 67.3c.5.2.9.5 1.2.8l-.6.8c-.6-.6-1.3-.9-2.2-.9-.5 0-1 .1-1.4.3s-.7.5-.9 1c-.2.4-.3.9-.3 1.4 0 .5.1 1 .3 1.4.2.4.5.7.9 1s.8.4 1.4.4c.5 0 .9-.1 1.3-.2.4-.2.7-.4 1-.7l.6.7c-.3.4-.8.7-1.3.9-.5.2-1.1.3-1.7.3-.7 0-1.3-.2-1.9-.5-.6-.3-1-.8-1.3-1.3-.3-.6-.5-1.2-.5-1.9s.2-1.4.5-1.9c.3-.6.8-1 1.3-1.3.6-.3 1.2-.5 1.9-.5.7-.1 1.2 0 1.7.2zM500 67.4c.4-.3 1-.4 1.6-.4v1.1c-.8 0-1.4.2-1.8.6s-.7 1-.8 1.8v3.9h-1.1V67h1.1v1.6c.2-.5.5-.9 1-1.2zM508.6 68.1c.6.7.9 1.8.8 3h-6c.1.7.4 1.3.9 1.7s1.1.6 1.8.6c.5 0 .9-.1 1.3-.2.4-.2.7-.4 1-.7l.6.6c-.4.4-.8.7-1.3.9-.5.2-1.1.3-1.7.3-.7 0-1.4-.2-1.9-.5-.6-.3-1-.8-1.3-1.3s-.5-1.2-.5-1.9.2-1.4.5-1.9c.3-.6.7-1 1.3-1.3s1.2-.5 1.9-.5c1.2.1 2 .5 2.6 1.2zm-.9.5c-.4-.4-1-.6-1.7-.6s-1.3.2-1.8.6c-.5.4-.7 1-.8 1.7h5c0-.8-.2-1.3-.7-1.7zM515.9 73.3c-.6.8-1.5 1.2-2.7 1.2-.5 0-.9-.1-1.3-.3-.4-.2-.7-.5-.9-.8-.2-.3-.3-.7-.3-1.2 0-.6.2-1.2.7-1.5s1.2-.6 2-.6h2.4v-.4c0-.6-.2-1-.5-1.3s-.8-.4-1.5-.4-1.5.3-2.3.8l-.5-.8c.5-.3 1-.6 1.4-.8.4-.2 1-.2 1.6-.2.9 0 1.6.2 2.1.7.5.4.7 1.1.7 1.9v4.9h-1.1v-1.2zm-.9-.2c.4-.3.7-.7.9-1.2V71h-2.3c-1.2 0-1.9.4-1.9 1.2 0 .4.2.7.5 1s.7.4 1.2.4c.6-.1 1.1-.2 1.6-.5zM522.6 67.2c.4.1.8.3 1.1.5l-.4.9c-.3-.2-.6-.3-1-.4s-.7-.2-1-.2c-.4 0-.8.1-1.1.2s-.4.4-.4.7c0 .2.1.4.2.6s.3.3.6.4.5.2.9.3c.5.2.9.3 1.3.5s.6.4.8.7c.2.3.3.7.3 1.1 0 .7-.3 1.2-.8 1.6-.5.4-1.2.5-1.9.5-.5 0-1.1-.1-1.6-.3-.5-.2-.9-.4-1.3-.8l.4-.8c.3.3.7.5 1.1.7.4.2.9.3 1.3.3.5 0 .8-.1 1.1-.3s.4-.5.4-.8-.1-.6-.4-.8c-.3-.2-.7-.3-1.3-.5-.5-.2-.9-.3-1.2-.4-.3-.1-.6-.3-.8-.6-.2-.3-.3-.6-.3-1.1 0-.7.2-1.2.7-1.5s1.1-.5 1.8-.5c.7-.2 1.1-.2 1.5 0zM531.3 68.1c.6.7.9 1.8.8 3h-6c.1.7.4 1.3.9 1.7s1.1.6 1.8.6c.5 0 .9-.1 1.3-.2.4-.2.7-.4 1-.7l.6.6c-.4.4-.8.7-1.3.9-.5.2-1.1.3-1.7.3-.7 0-1.4-.2-1.9-.5-.6-.3-1-.8-1.3-1.3s-.5-1.2-.5-1.9.2-1.4.5-1.9c.3-.6.7-1 1.3-1.3s1.2-.5 1.9-.5c1.1.1 2 .5 2.6 1.2zm-.9.5c-.4-.4-1-.6-1.7-.6s-1.3.2-1.8.6c-.5.4-.7 1-.8 1.7h5c-.1-.8-.3-1.3-.7-1.7zM414.1 84.6l-.8 1.8h-.8l3.1-7h.8l3.1 7h-.9l-.8-1.8h-3.7zm1.9-4.3l-1.6 3.5h3.1l-1.5-3.5zM421.5 86.4l-2.1-5.3h.8l1.7 4.5 1.7-4.5h.8l-2.1 5.3h-.8zM429.1 81.9c.4.5.6 1.3.6 2.2h-4.3c.1.5.3.9.6 1.2s.8.5 1.3.5c.3 0 .6-.1.9-.2.3-.1.5-.3.7-.5l.4.5c-.3.3-.6.5-.9.6-.4.2-.8.2-1.2.2-.5 0-1-.1-1.4-.3-.4-.2-.7-.5-.9-.9s-.3-.9-.3-1.4.1-1 .3-1.4c.2-.4.5-.7.9-.9s.9-.3 1.4-.3c.9-.1 1.5.2 1.9.7zm-.6.3c-.3-.3-.7-.4-1.2-.4s-.9.1-1.3.4c-.3.3-.5.7-.6 1.2h3.6c0-.5-.2-.9-.5-1.2zM432.5 81.4c.3-.2.7-.3 1.1-.3v.8c-.5 0-1 .1-1.3.5s-.5.7-.6 1.3v2.8h-.7v-5.3h.8v1.2c.2-.5.4-.8.7-1zM437.8 85.6c-.4.6-1.1.8-1.9.8-.4 0-.7-.1-.9-.2-.3-.1-.5-.3-.6-.6-.1-.2-.2-.5-.2-.8 0-.5.2-.8.5-1.1s.8-.4 1.5-.4h1.7V83c0-.4-.1-.7-.4-.9s-.6-.3-1.1-.3c-.5 0-1.1.2-1.7.6l-.3-.6c.4-.2.7-.4 1-.5.3-.1.7-.2 1.1-.2.6 0 1.1.2 1.5.5.4.3.5.8.5 1.3v3.5h-.8v-.8zm-.7-.2c.3-.2.5-.5.6-.9v-.6h-1.6c-.9 0-1.3.3-1.3.8 0 .3.1.5.3.7s.5.3.9.3c.4.1.8 0 1.1-.3zM444.8 85.8c0 .5-.1 1-.3 1.3-.2.4-.5.7-.9.9-.4.2-.9.3-1.4.3-.8 0-1.5-.3-2.2-.8l.4-.6c.3.2.5.4.8.5.3.1.6.2.9.2.6 0 1-.2 1.4-.5s.5-.8.5-1.3V85c-.2.4-.4.6-.8.8-.3.2-.7.3-1.2.3s-.9-.1-1.2-.3c-.4-.2-.6-.5-.9-.9-.2-.4-.3-.8-.3-1.3s.1-.9.3-1.3.5-.7.8-.9c.4-.2.8-.3 1.2-.3.4 0 .8.1 1.2.3.3.2.6.5.8.8v-1.1h.8v4.7zm-1.6-.5c.3-.2.5-.4.6-.7.2-.3.2-.6.2-1s-.1-.7-.2-1c-.2-.3-.4-.5-.6-.7s-.6-.2-.9-.2c-.3 0-.7.1-.9.2s-.5.4-.6.7-.2.6-.2 1 .1.7.2 1 .4.5.6.7.6.2.9.2c.3 0 .6-.1.9-.2zM450.6 81.9c.4.5.6 1.3.6 2.2h-4.3c.1.5.3.9.6 1.2s.8.5 1.3.5c.3 0 .6-.1.9-.2.3-.1.5-.3.7-.5l.4.5c-.3.3-.6.5-.9.6-.4.2-.8.2-1.2.2-.5 0-1-.1-1.4-.3-.4-.2-.7-.5-.9-.9s-.3-.9-.3-1.4.1-1 .3-1.4c.2-.4.5-.7.9-.9s.9-.3 1.4-.3c.8-.1 1.5.2 1.9.7zm-.7.3c-.3-.3-.7-.4-1.2-.4s-.9.1-1.3.4c-.3.3-.5.7-.6 1.2h3.6c0-.5-.1-.9-.5-1.2zM452.9 85.6c.1.1.1.2.1.4 0 .1-.1.3-.2.4l-.5.7h-.3l.3-.7c-.1-.1-.2-.2-.2-.4 0-.1 0-.3.1-.4.1-.1.2-.1.3-.1.2 0 .3 0 .4.1zM460.5 85.6c-.4.6-1.1.8-1.9.8-.4 0-.7-.1-.9-.2-.3-.1-.5-.3-.6-.6-.1-.2-.2-.5-.2-.8 0-.5.2-.8.5-1.1s.8-.4 1.5-.4h1.7V83c0-.4-.1-.7-.4-.9s-.6-.3-1.1-.3c-.5 0-1.1.2-1.7.6l-.3-.6c.4-.2.7-.4 1-.5.3-.1.7-.2 1.1-.2.6 0 1.1.2 1.5.5.4.3.5.8.5 1.3v3.5h-.8v-.8zm-.7-.2c.3-.2.5-.5.6-.9v-.6h-1.6c-.9 0-1.3.3-1.3.8 0 .3.1.5.3.7s.5.3.9.3c.4.1.8 0 1.1-.3zM464.2 79.9c-.2.2-.3.4-.3.7v.7h1.5v.6h-1.5v4.5h-.8v-4.5h-.7v-.6h.7v-.6c0-.4.1-.7.2-1 .2-.3.4-.5.6-.6.3-.1.5-.2.8-.2.4 0 .8.1 1.1.4l-.3.6c-.3-.2-.5-.3-.8-.3-.1.1-.4.2-.5.3zM467.8 86.4c-.4 0-.7-.1-1-.4s-.4-.6-.4-1.1v-3h-.8v-.6h.8v-1.4h.8v1.4h1.7v.6h-1.7v2.9c0 .3.1.5.2.7s.3.2.5.2c.3 0 .6-.1.8-.3l.3.6c-.4.3-.8.4-1.2.4zM474.1 81.9c.4.5.6 1.3.6 2.2h-4.3c.1.5.3.9.6 1.2s.8.5 1.3.5c.3 0 .6-.1.9-.2.3-.1.5-.3.7-.5l.4.5c-.3.3-.6.5-.9.6-.4.2-.8.2-1.2.2-.5 0-1-.1-1.4-.3-.4-.2-.7-.5-.9-.9s-.3-.9-.3-1.4.1-1 .3-1.4c.2-.4.5-.7.9-.9s.9-.3 1.4-.3c.8-.1 1.4.2 1.9.7zm-.7.3c-.3-.3-.7-.4-1.2-.4s-.9.1-1.3.4c-.3.3-.5.7-.6 1.2h3.6c0-.5-.2-.9-.5-1.2zM477.5 81.4c.3-.2.7-.3 1.1-.3v.8c-.5 0-1 .1-1.3.5s-.5.7-.6 1.3v2.8h-.7v-5.3h.8v1.2c.1-.5.4-.8.7-1zM487 85.8c0 .5-.1 1-.3 1.3-.2.4-.5.7-.9.9-.4.2-.9.3-1.4.3-.8 0-1.5-.3-2.2-.8l.4-.6c.3.2.5.4.8.5.3.1.6.2.9.2.6 0 1-.2 1.4-.5s.5-.8.5-1.3V85c-.2.4-.4.6-.8.8-.3.2-.7.3-1.2.3s-.9-.1-1.2-.3c-.4-.2-.6-.5-.9-.9-.2-.4-.3-.8-.3-1.3s.1-.9.3-1.3.5-.7.8-.9c.4-.2.8-.3 1.2-.3.4 0 .8.1 1.2.3.3.2.6.5.8.8v-1.1h.8v4.7zm-1.6-.5c.3-.2.5-.4.6-.7.2-.3.2-.6.2-1s-.1-.7-.2-1c-.2-.3-.4-.5-.6-.7s-.6-.2-.9-.2c-.3 0-.7.1-.9.2s-.5.4-.6.7-.2.6-.2 1 .1.7.2 1 .4.5.6.7.6.2.9.2c.3 0 .6-.1.9-.2zM490.3 81.4c.3-.2.7-.3 1.1-.3v.8c-.5 0-1 .1-1.3.5s-.5.7-.6 1.3v2.8h-.8v-5.3h.8v1.2c.2-.5.5-.8.8-1zM496 81.4c.4.2.7.5 1 .9.2.4.3.9.3 1.4 0 .5-.1 1-.3 1.4-.2.4-.5.7-1 .9s-.9.3-1.4.3c-.5 0-1-.1-1.4-.3-.4-.2-.7-.5-1-.9-.2-.4-.3-.9-.3-1.4 0-.5.1-1 .3-1.4.2-.4.5-.7 1-.9.4-.2.9-.3 1.4-.3.5 0 1 .1 1.4.3zm-2.3.7c-.3.2-.5.4-.7.7-.2.3-.2.6-.2 1s.1.7.2 1c.2.3.4.5.7.7.3.2.6.3 1 .3s.7-.1 1-.3c.3-.2.5-.4.7-.7.2-.3.2-.6.2-1s-.1-.7-.2-1c-.2-.3-.4-.5-.7-.7-.3-.2-.6-.2-1-.2-.4-.1-.8 0-1 .2zM503.5 86.4l-1.5-4.3-1.5 4.3h-.8l-2-5.3h.8l1.6 4.5 1.5-4.5h.8l1.5 4.5 1.5-4.5h.8l-2 5.3h-.7zM508.7 86.4c-.4 0-.7-.1-1-.4s-.4-.6-.4-1.1v-3h-.8v-.6h.8v-1.4h.8v1.4h1.7v.6h-1.7v2.9c0 .3.1.5.2.7s.3.2.5.2c.3 0 .6-.1.8-.3l.2.6c-.3.3-.7.4-1.1.4zM515.4 81.6c.4.4.5.9.5 1.5v3.3h-.8v-3c0-.5-.1-.8-.4-1.1s-.6-.4-1.1-.4c-.6 0-1 .2-1.3.5-.3.4-.5.8-.5 1.4v2.6h-.8V79h.8v3.3c.3-.8 1-1.2 2-1.2.7 0 1.2.2 1.6.5zM525.2 86.4h-.8v-1.1c-.2.4-.5.7-.8.9-.3.2-.8.3-1.2.3-.5 0-.9-.1-1.3-.3s-.7-.5-.9-.9c-.2-.4-.3-.9-.3-1.4s.1-1 .3-1.4c.2-.4.5-.7.9-.9.4-.2.8-.3 1.3-.3s.9.1 1.2.3c.4.2.6.5.8.9V79h.8v7.4zm-1.7-.9c.3-.2.5-.4.7-.7.2-.3.2-.6.2-1s-.1-.7-.2-1c-.2-.3-.4-.5-.7-.7-.3-.2-.6-.3-1-.3s-.7.1-1 .3c-.3.2-.5.4-.7.7-.2.3-.2.6-.2 1s.1.7.2 1c.2.3.4.5.7.7.3.2.6.3 1 .3.4-.1.7-.1 1-.3zM531.1 81.9c.4.5.6 1.3.6 2.2h-4.3c.1.5.3.9.6 1.2s.8.5 1.3.5c.3 0 .6-.1.9-.2.3-.1.5-.3.7-.5l.4.5c-.3.3-.6.5-.9.6-.4.2-.8.2-1.2.2-.5 0-1-.1-1.4-.3-.4-.2-.7-.5-.9-.9s-.3-.9-.3-1.4.1-1 .3-1.4c.2-.4.5-.7.9-.9s.9-.3 1.4-.3c.9-.1 1.5.2 1.9.7zm-.6.3c-.3-.3-.7-.4-1.2-.4s-.9.1-1.3.4c-.3.3-.5.7-.6 1.2h3.6c0-.5-.2-.9-.5-1.2zM535.4 81.2c.3.1.5.2.8.4l-.3.6c-.2-.1-.4-.2-.7-.3s-.5-.1-.7-.1c-.3 0-.6.1-.8.2s-.3.3-.3.5.1.3.2.4.2.2.4.3.4.1.7.2c.4.1.7.2.9.3s.4.3.6.5c.2.2.2.5.2.8 0 .5-.2.9-.6 1.1-.4.3-.8.4-1.4.4-.4 0-.8-.1-1.1-.2-.4-.1-.7-.3-.9-.5l.3-.6c.2.2.5.4.8.5.3.1.6.2.9.2.3 0 .6-.1.8-.2s.3-.3.3-.6-.1-.4-.3-.6c-.2-.1-.5-.2-.9-.4-.4-.1-.7-.2-.9-.3-.2-.1-.4-.2-.6-.4-.2-.2-.2-.5-.2-.8 0-.5.2-.8.5-1.1s.8-.4 1.3-.4c.4 0 .7 0 1 .1zM538.3 79.2c.1.1.1.2.1.4s0 .3-.1.4-.2.2-.4.2-.3-.1-.4-.2c-.1-.1-.1-.2-.1-.4s0-.3.1-.4c.1-.1.2-.2.4-.2s.3.1.4.2zm-.7 7.2v-5.3h.8v5.3h-.8zM544.8 85.8c0 .5-.1 1-.3 1.3-.2.4-.5.7-.9.9-.4.2-.9.3-1.4.3-.8 0-1.5-.3-2.2-.8l.4-.6c.3.2.5.4.8.5.3.1.6.2.9.2.6 0 1-.2 1.4-.5s.5-.8.5-1.3V85c-.2.4-.4.6-.8.8-.3.2-.7.3-1.2.3s-.9-.1-1.2-.3c-.4-.2-.6-.5-.9-.9-.2-.4-.3-.8-.3-1.3s.1-.9.3-1.3.5-.7.8-.9c.4-.2.8-.3 1.2-.3.4 0 .8.1 1.2.3.3.2.6.5.8.8v-1.1h.8v4.7zm-1.6-.5c.3-.2.5-.4.6-.7.2-.3.2-.6.2-1s-.1-.7-.2-1c-.2-.3-.4-.5-.6-.7s-.6-.2-.9-.2c-.3 0-.7.1-.9.2s-.5.4-.6.7-.2.6-.2 1 .1.7.2 1 .4.5.6.7.6.2.9.2c.3 0 .6-.1.9-.2zM550.9 81.6c.4.4.5.9.5 1.5v3.3h-.8v-3c0-.5-.1-.8-.4-1.1s-.6-.4-1.1-.4c-.5 0-.9.2-1.2.5-.3.3-.5.7-.5 1.2v2.8h-.8v-5.3h.8v1.2c.4-.8 1-1.2 2-1.2.6 0 1.1.2 1.5.5zM415.7 93.2c.3.1.5.2.8.4l-.3.6c-.2-.1-.4-.2-.7-.3s-.5-.1-.7-.1c-.3 0-.6.1-.8.2s-.3.3-.3.5.1.3.2.4.2.2.4.3.4.1.7.2c.4.1.7.2.9.3s.4.3.6.5c.2.2.2.5.2.8 0 .5-.2.9-.6 1.1-.4.3-.8.4-1.4.4-.4 0-.8-.1-1.1-.2-.4-.1-.7-.3-.9-.5l.3-.6c.2.2.5.4.8.5.3.1.6.2.9.2.3 0 .6-.1.8-.2s.3-.3.3-.6-.1-.4-.3-.6c-.2-.1-.5-.2-.9-.4-.4-.1-.7-.2-.9-.3-.2-.1-.4-.2-.6-.4-.2-.2-.2-.5-.2-.8 0-.5.2-.8.5-1.1s.8-.4 1.3-.4c.4 0 .7 0 1 .1zM419.4 98.4c-.4 0-.7-.1-1-.4s-.4-.6-.4-1.1v-3h-.8v-.6h.8v-1.4h.8v1.4h1.7v.6h-1.7v2.9c0 .3.1.5.2.7s.3.2.5.2c.3 0 .6-.1.8-.3l.2.6c-.3.3-.7.4-1.1.4zM423.3 93.4c.3-.2.7-.3 1.1-.3v.8c-.5 0-1 .1-1.3.5s-.5.7-.6 1.3v2.8h-.8v-5.3h.8v1.2c.2-.5.5-.8.8-1zM428.5 97.6c-.4.6-1.1.8-1.9.8-.4 0-.7-.1-.9-.2-.3-.1-.5-.3-.6-.6-.1-.2-.2-.5-.2-.8 0-.5.2-.8.5-1.1s.8-.4 1.5-.4h1.7V95c0-.4-.1-.7-.4-.9s-.6-.3-1.1-.3c-.5 0-1.1.2-1.7.6l-.3-.6c.4-.2.7-.4 1-.5.3-.1.7-.2 1.1-.2.6 0 1.1.2 1.5.5.4.3.5.8.5 1.3v3.5h-.8v-.8zm-.6-.2c.3-.2.5-.5.6-.9v-.6h-1.6c-.9 0-1.3.3-1.3.8 0 .3.1.5.3.7s.5.3.9.3c.4.1.8 0 1.1-.3zM432.5 98.4c-.4 0-.7-.1-1-.4s-.4-.6-.4-1.1v-3h-.8v-.6h.8v-1.4h.8v1.4h1.7v.6H432v2.9c0 .3.1.5.2.7s.3.2.5.2c.3 0 .6-.1.8-.3l.2.6c-.4.3-.7.4-1.2.4zM438.8 93.9c.4.5.6 1.3.6 2.2h-4.3c.1.5.3.9.6 1.2s.8.5 1.3.5c.3 0 .6-.1.9-.2.3-.1.5-.3.7-.5l.4.5c-.3.3-.6.5-.9.6-.4.2-.8.2-1.2.2-.5 0-1-.1-1.4-.3-.4-.2-.7-.5-.9-.9s-.3-.9-.3-1.4.1-1 .3-1.4c.2-.4.5-.7.9-.9s.9-.3 1.4-.3c.9-.1 1.5.2 1.9.7zm-.7.3c-.3-.3-.7-.4-1.2-.4s-.9.1-1.3.4c-.3.3-.5.7-.6 1.2h3.6c0-.5-.1-.9-.5-1.2zM445.3 97.8c0 .5-.1 1-.3 1.3-.2.4-.5.7-.9.9-.4.2-.9.3-1.4.3-.8 0-1.5-.3-2.2-.8l.4-.6c.3.2.5.4.8.5.3.1.6.2.9.2.6 0 1-.2 1.4-.5s.5-.8.5-1.3V97c-.2.4-.4.6-.8.8-.3.2-.7.3-1.2.3s-.9-.1-1.2-.3c-.4-.2-.6-.5-.9-.9-.2-.4-.3-.8-.3-1.3s.1-.9.3-1.3.5-.7.8-.9c.4-.2.8-.3 1.2-.3.4 0 .8.1 1.2.3.3.2.6.5.8.8v-1.1h.8v4.7zm-1.7-.5c.3-.2.5-.4.6-.7.2-.3.2-.6.2-1s-.1-.7-.2-1c-.2-.3-.4-.5-.6-.7s-.6-.2-.9-.2c-.3 0-.7.1-.9.2s-.5.4-.6.7-.2.6-.2 1 .1.7.2 1 .4.5.6.7.6.2.9.2c.4 0 .7-.1.9-.2zM448.1 100.1c-.3.2-.6.3-.9.3-.4 0-.8-.1-1.1-.4l.3-.6c.2.2.5.2.7.2.2 0 .4-.1.6-.2.2-.1.3-.3.4-.6l.2-.5-2.2-5.2h.8l1.7 4.4 1.7-4.4h.8l-2.4 6c-.1.5-.3.8-.6 1zM455.6 91.2c.1.1.1.2.1.4s0 .3-.1.4-.2.2-.4.2-.3-.1-.4-.2c-.1-.1-.1-.2-.1-.4s0-.3.1-.4c.1-.1.2-.2.4-.2s.3.1.4.2zm-.8 7.2v-5.3h.8v5.3h-.8zM465.7 93.6c.3.4.5.9.5 1.5v3.3h-.8v-3c0-.5-.1-.8-.4-1.1-.3-.3-.6-.4-1.1-.4-.5 0-1 .2-1.3.5-.3.4-.5.8-.5 1.4v2.6h-.8v-3c0-.5-.1-.8-.4-1.1-.3-.3-.6-.4-1.1-.4-.5 0-1 .2-1.3.5-.3.4-.5.8-.5 1.4v2.6h-.8v-5.3h.8v1.2c.2-.4.4-.7.8-.9.3-.2.8-.3 1.2-.3.5 0 .9.1 1.2.4.3.2.5.6.7 1 .2-.5.4-.8.8-1s.8-.3 1.3-.3c.8-.1 1.3.1 1.7.4zM472.1 93.4c.4.2.7.5.9.9.2.4.3.9.3 1.4 0 .5-.1 1-.3 1.4s-.5.7-.9.9c-.4.2-.8.3-1.3.3s-.9-.1-1.2-.3c-.3-.2-.6-.5-.8-.9v3.1h-.8V93h.8v1.1c.2-.4.5-.7.8-.9.4-.2.8-.3 1.2-.3.5.2.9.3 1.3.5zm-.5 4.1c.3-.2.5-.4.7-.7s.2-.6.2-1-.1-.7-.2-1-.4-.5-.7-.7c-.3-.2-.6-.3-1-.3s-.7.1-1 .2c-.3.2-.5.4-.7.7-.2.3-.2.6-.2 1s.1.7.2 1c.2.3.4.5.7.7.3.2.6.3 1 .3s.7-.1 1-.2zM474.7 98.4V91h.8v7.4h-.8zM481.4 93.9c.4.5.6 1.3.6 2.2h-4.3c.1.5.3.9.6 1.2s.8.5 1.3.5c.3 0 .6-.1.9-.2.3-.1.5-.3.7-.5l.4.5c-.3.3-.6.5-.9.6-.4.2-.8.2-1.2.2-.5 0-1-.1-1.4-.3-.4-.2-.7-.5-.9-.9s-.3-.9-.3-1.4.1-1 .3-1.4c.2-.4.5-.7.9-.9s.9-.3 1.4-.3c.9-.1 1.5.2 1.9.7zm-.6.3c-.3-.3-.7-.4-1.2-.4s-.9.1-1.3.4c-.3.3-.5.7-.6 1.2h3.6c0-.5-.2-.9-.5-1.2zM491.5 93.6c.3.4.5.9.5 1.5v3.3h-.8v-3c0-.5-.1-.8-.4-1.1-.3-.3-.6-.4-1.1-.4-.5 0-1 .2-1.3.5-.3.4-.5.8-.5 1.4v2.6h-.8v-3c0-.5-.1-.8-.4-1.1-.3-.3-.6-.4-1.1-.4-.5 0-1 .2-1.3.5-.3.4-.5.8-.5 1.4v2.6h-.8v-5.3h.8v1.2c.2-.4.4-.7.8-.9.3-.2.8-.3 1.2-.3.5 0 .9.1 1.2.4.3.2.5.6.7 1 .2-.5.4-.8.8-1s.8-.3 1.3-.3c.9-.1 1.4.1 1.7.4zM497.8 93.9c.4.5.6 1.3.6 2.2H494c.1.5.3.9.6 1.2s.8.5 1.3.5c.3 0 .6-.1.9-.2.3-.1.5-.3.7-.5l.4.5c-.3.3-.6.5-.9.6-.4.2-.8.2-1.2.2-.5 0-1-.1-1.4-.3-.4-.2-.7-.5-.9-.9s-.3-.9-.3-1.4.1-1 .3-1.4c.2-.4.5-.7.9-.9s.9-.3 1.4-.3c.9-.1 1.5.2 2 .7zm-.7.3c-.3-.3-.7-.4-1.2-.4s-.9.1-1.3.4c-.3.3-.5.7-.6 1.2h3.6c0-.5-.2-.9-.5-1.2zM504 93.6c.4.4.5.9.5 1.5v3.3h-.8v-3c0-.5-.1-.8-.4-1.1s-.6-.4-1.1-.4c-.5 0-.9.2-1.2.5-.3.3-.5.7-.5 1.2v2.8h-.8v-5.3h.8v1.2c.4-.8 1-1.2 2-1.2.6 0 1.1.2 1.5.5zM507.7 98.4c-.4 0-.7-.1-1-.4s-.4-.6-.4-1.1v-3h-.8v-.6h.8v-1.4h.8v1.4h1.7v.6h-1.7v2.9c0 .3.1.5.2.7s.3.2.5.2c.3 0 .6-.1.8-.3l.2.6c-.2.3-.6.4-1.1.4zM513.4 97.6c-.4.6-1.1.8-1.9.8-.4 0-.7-.1-.9-.2-.3-.1-.5-.3-.6-.6-.1-.2-.2-.5-.2-.8 0-.5.2-.8.5-1.1s.8-.4 1.5-.4h1.7V95c0-.4-.1-.7-.4-.9s-.6-.3-1.1-.3c-.5 0-1.1.2-1.7.6l-.3-.6c.4-.2.7-.4 1-.5.3-.1.7-.2 1.1-.2.6 0 1.1.2 1.5.5.4.3.5.8.5 1.3v3.5h-.8v-.8zm-.7-.2c.3-.2.5-.5.6-.9v-.6h-1.6c-.9 0-1.3.3-1.3.8 0 .3.1.5.3.7s.5.3.9.3c.4.1.8 0 1.1-.3zM517.4 98.4c-.4 0-.7-.1-1-.4s-.4-.6-.4-1.1v-3h-.8v-.6h.8v-1.4h.8v1.4h1.7v.6h-1.7v2.9c0 .3.1.5.2.7s.3.2.5.2c.3 0 .6-.1.8-.3l.2.6c-.3.3-.7.4-1.1.4zM520.5 91.2c.1.1.1.2.1.4s0 .3-.1.4-.2.2-.4.2-.3-.1-.4-.2c-.1-.1-.1-.2-.1-.4s0-.3.1-.4c.1-.1.2-.2.4-.2s.3.1.4.2zm-.7 7.2v-5.3h.8v5.3h-.8zM526 93.4c.4.2.7.5 1 .9.2.4.3.9.3 1.4 0 .5-.1 1-.3 1.4-.2.4-.5.7-1 .9s-.9.3-1.4.3c-.5 0-1-.1-1.4-.3-.4-.2-.7-.5-1-.9-.2-.4-.3-.9-.3-1.4 0-.5.1-1 .3-1.4.2-.4.5-.7 1-.9.4-.2.9-.3 1.4-.3.5 0 1 .1 1.4.3zm-2.4.7c-.3.2-.5.4-.7.7-.2.3-.2.6-.2 1s.1.7.2 1c.2.3.4.5.7.7.3.2.6.3 1 .3s.7-.1 1-.3c.3-.2.5-.4.7-.7.2-.3.2-.6.2-1s-.1-.7-.2-1c-.2-.3-.4-.5-.7-.7-.3-.2-.6-.2-1-.2-.4-.1-.7 0-1 .2zM532.9 93.6c.4.4.5.9.5 1.5v3.3h-.8v-3c0-.5-.1-.8-.4-1.1s-.6-.4-1.1-.4c-.5 0-.9.2-1.2.5-.3.3-.5.7-.5 1.2v2.8h-.8v-5.3h.8v1.2c.4-.8 1-1.2 2-1.2.7 0 1.2.2 1.5.5z"/></g><g fill="#0A0A0A"><path d="M252 70.8h-2.4V73h-.8v-7h2.7c.9 0 1.6.2 2 .6s.7 1 .7 1.7c0 .6-.1 1.1-.4 1.4s-.7.7-1.2.8l1.6 2.4h-.9l-1.3-2.1zm1-1.2c.3-.3.5-.7.5-1.2s-.2-.9-.5-1.2-.8-.4-1.5-.4h-1.9V70h1.9c.7 0 1.1-.1 1.5-.4zM259.9 68.5c.4.5.6 1.3.6 2.2h-4.3c.1.5.3.9.6 1.2s.8.5 1.3.5c.3 0 .6-.1.9-.2s.5-.3.7-.5l.4.5c-.3.3-.6.5-.9.6s-.8.2-1.2.2c-.5 0-1-.1-1.4-.3s-.7-.5-.9-.9-.3-.9-.3-1.4.1-1 .3-1.4.5-.7.9-.9.9-.3 1.4-.3c.9-.1 1.5.2 1.9.7zm-.6.3c-.3-.3-.7-.4-1.2-.4s-.9.1-1.3.4-.5.7-.6 1.2h3.6c0-.5-.2-.9-.5-1.2zM262.9 73l-2.1-5.3h.8l1.7 4.5 1.7-4.5h.8l-2.1 5.3h-.8zM270.5 68.5c.4.5.6 1.3.6 2.2h-4.3c.1.5.3.9.6 1.2s.8.5 1.3.5c.3 0 .6-.1.9-.2s.5-.3.7-.5l.4.5c-.3.3-.6.5-.9.6s-.8.2-1.2.2c-.5 0-1-.1-1.4-.3s-.7-.5-.9-.9-.3-.9-.3-1.4.1-1 .3-1.4.5-.7.9-.9.9-.3 1.4-.3c.8-.1 1.4.2 1.9.7zm-.7.3c-.3-.3-.7-.4-1.2-.4s-.9.1-1.3.4-.5.7-.6 1.2h3.6c0-.5-.2-.9-.5-1.2zM276.7 68.2c.4.4.5.9.5 1.5V73h-.8v-3c0-.5-.1-.8-.4-1.1s-.6-.4-1.1-.4c-.5 0-.9.2-1.2.5s-.5.7-.5 1.2V73h-.8v-5.3h.8v1.2c.4-.8 1-1.2 2-1.2.6 0 1.1.2 1.5.5zM283.5 73h-.8v-1.2c-.3.8-1 1.2-2 1.2-.6 0-1.1-.2-1.4-.5s-.5-.9-.5-1.5v-3.2h.8v3c0 .5.1.8.4 1.1s.6.4 1.1.4c.5 0 1-.2 1.3-.5s.5-.8.5-1.4v-2.6h.8V73zM289.4 68.5c.4.5.6 1.3.6 2.2h-4.3c.1.5.3.9.6 1.2s.8.5 1.3.5c.3 0 .6-.1.9-.2s.5-.3.7-.5l.4.5c-.3.3-.6.5-.9.6s-.8.2-1.2.2c-.5 0-1-.1-1.4-.3s-.7-.5-.9-.9-.3-.9-.3-1.4.1-1 .3-1.4.5-.7.9-.9.9-.3 1.4-.3c.8-.1 1.4.2 1.9.7zm-.7.3c-.3-.3-.7-.4-1.2-.4s-.9.1-1.3.4-.5.7-.6 1.2h3.6c0-.5-.2-.9-.5-1.2zM297.3 67.9c.3.1.6.3.9.6l-.4.6c-.4-.4-.9-.6-1.6-.6-.4 0-.7.1-1 .2s-.5.4-.7.7-.2.6-.2 1 .1.7.2 1 .4.5.7.7.6.3 1 .3c.3 0 .7-.1.9-.2s.5-.3.7-.5l.4.5c-.2.3-.5.5-.9.7s-.8.2-1.2.2c-.5 0-1-.1-1.4-.3s-.7-.5-.9-.9-.3-.9-.3-1.4.1-1 .3-1.4.5-.7.9-.9.9-.3 1.4-.3c.4-.2.8-.1 1.2 0zM299.7 73v-7.4h.8V73h-.8zM303.1 65.8c.1.1.1.2.1.4s0 .3-.1.4-.2.2-.4.2-.3-.1-.4-.2-.1-.2-.1-.4 0-.3.1-.4.2-.2.4-.2.3.1.4.2zm-.7 7.2v-5.3h.8V73h-.8zM309 68.5c.4.5.6 1.3.6 2.2h-4.3c.1.5.3.9.6 1.2s.8.5 1.3.5c.3 0 .6-.1.9-.2s.5-.3.7-.5l.4.5c-.3.3-.6.5-.9.6s-.8.2-1.2.2c-.5 0-1-.1-1.4-.3s-.7-.5-.9-.9-.3-.9-.3-1.4.1-1 .3-1.4.5-.7.9-.9.9-.3 1.4-.3c.9-.1 1.5.2 1.9.7zm-.6.3c-.3-.3-.7-.4-1.2-.4s-.9.1-1.3.4-.5.7-.6 1.2h3.6c0-.5-.2-.9-.5-1.2zM315.2 68.2c.4.4.5.9.5 1.5V73h-.7v-3c0-.5-.1-.8-.4-1.1s-.6-.4-1.1-.4c-.5 0-.9.2-1.2.5s-.5.7-.5 1.2V73h-.8v-5.3h.8v1.2c.4-.8 1-1.2 2-1.2.6 0 1.1.2 1.4.5zM319 73c-.4 0-.7-.1-1-.4s-.4-.6-.4-1.1v-3h-.8v-.6h.8v-1.4h.8v1.4h1.7v.6h-1.7v2.9c0 .3.1.5.2.7s.3.2.5.2c.3 0 .6-.1.8-.3l.2.6c-.3.3-.7.4-1.1.4zM325.7 73c-.4 0-.7-.1-1-.4s-.4-.6-.4-1.1v-3h-.8v-.6h.8v-1.4h.8v1.4h1.7v.6h-1.7v2.9c0 .3.1.5.2.7s.3.2.5.2c.3 0 .6-.1.8-.3l.2.6c-.3.3-.7.4-1.1.4zM329.1 74.7c-.3.2-.6.3-.9.3-.4 0-.8-.1-1.1-.4l.3-.6c.2.2.5.2.7.2.2 0 .4-.1.6-.2.2-.1.3-.3.4-.6l.2-.5-2.2-5.2h.8l1.7 4.4 1.7-4.4h.8l-2.4 6c-.2.5-.4.8-.6 1zM337.2 68c.4.2.7.5.9.9.2.4.3.9.3 1.4 0 .5-.1 1-.3 1.4-.2.4-.5.7-.9.9-.4.2-.8.3-1.3.3s-.9-.1-1.2-.3c-.4-.2-.6-.5-.8-.9v3.1h-.8v-7.2h.8v1.1c.2-.4.5-.7.8-.9.3-.2.8-.3 1.2-.3.5.2.9.3 1.3.5zm-.5 4.1c.3-.2.5-.4.7-.7.2-.3.2-.6.2-1s-.1-.7-.2-1c-.2-.3-.4-.5-.7-.7s-.6-.3-1-.3-.7.1-1 .2-.5.4-.7.7-.2.6-.2 1 .1.7.2 1 .4.5.7.7.6.3 1 .3.8-.1 1-.2zM343.8 68.5c.4.5.6 1.3.6 2.2h-4.3c.1.5.3.9.6 1.2.3.3.8.5 1.3.5.3 0 .6-.1.9-.2s.5-.3.7-.5l.4.5c-.3.3-.6.5-.9.6-.4.2-.8.2-1.2.2-.5 0-1-.1-1.4-.3s-.7-.5-.9-.9c-.2-.4-.3-.9-.3-1.4s.1-1 .3-1.4c.2-.4.5-.7.9-.9s.9-.3 1.4-.3c.8-.1 1.5.2 1.9.7zm-.7.3c-.3-.3-.7-.4-1.2-.4s-.9.1-1.3.4c-.3.3-.5.7-.6 1.2h3.6c0-.5-.1-.9-.5-1.2zM349.4 67.6c-.2.7-.3 1.5-.3 2.4s.1 1.6.3 2.4c.2.7.5 1.4.9 2h-.7c-.4-.6-.7-1.2-.9-2-.2-.7-.3-1.5-.3-2.4s.1-1.6.3-2.4c.2-.7.5-1.4.9-2h.7c-.4.6-.7 1.2-.9 2zM354.6 72.2c-.4.6-1.1.8-1.9.8-.4 0-.7-.1-.9-.2-.3-.1-.5-.3-.6-.6-.1-.2-.2-.5-.2-.8 0-.5.2-.8.5-1.1.3-.3.8-.4 1.5-.4h1.7v-.3c0-.4-.1-.7-.4-.9-.2-.2-.6-.3-1.1-.3-.5 0-1.1.2-1.7.6l-.3-.6c.4-.2.7-.4 1-.5s.7-.2 1.1-.2c.6 0 1.1.2 1.5.5.3.3.5.8.5 1.3V73h-.8v-.8zm-.6-.2c.3-.2.5-.5.6-.9v-.6H353c-.9 0-1.3.3-1.3.8 0 .3.1.5.3.7.2.2.5.3.9.3.4.1.8 0 1.1-.3zM358.1 73l-2.1-5.3h.8l1.7 4.5 1.7-4.5h.8l-2.1 5.3h-.8zM361.8 65.6h.7c.4.6.7 1.2.9 2 .2.7.3 1.5.3 2.4s-.1 1.6-.3 2.4c-.2.7-.5 1.4-.9 2h-.7c.4-.6.6-1.2.9-2 .2-.7.3-1.5.3-2.4s-.1-1.6-.3-2.4c-.2-.8-.5-1.4-.9-2z"/></g><g fill="#0A0A0A"><path d="M249.7 109.2v2.5h3.3v.8h-3.3v3h-.8v-7h4.4v.8h-3.6zM258.9 115.4h-.8v-1.2c-.3.8-1 1.2-2 1.2-.6 0-1.1-.2-1.4-.5s-.5-.9-.5-1.5v-3.2h.8v3c0 .5.1.8.4 1.1s.6.4 1.1.4c.5 0 1-.2 1.3-.5s.5-.8.5-1.4v-2.6h.8v5.2zM265.1 110.6c.4.4.5.9.5 1.5v3.3h-.8v-3c0-.5-.1-.8-.4-1.1s-.6-.4-1.1-.4c-.5 0-.9.2-1.2.5s-.5.7-.5 1.2v2.8h-.8v-5.3h.8v1.2c.4-.8 1-1.2 2-1.2.7 0 1.2.2 1.5.5zM272.2 115.4h-.8v-1.1c-.2.4-.5.7-.8.9s-.8.3-1.2.3c-.5 0-.9-.1-1.3-.3s-.7-.5-.9-.9-.3-.9-.3-1.4.1-1 .3-1.4.5-.7.9-.9.8-.3 1.3-.3.9.1 1.2.3.6.5.8.9V108h.8v7.4zm-1.7-.9c.3-.2.5-.4.7-.7s.2-.6.2-1-.1-.7-.2-1-.4-.5-.7-.7-.6-.3-1-.3-.7.1-1 .3-.5.4-.7.7-.2.6-.2 1 .1.7.2 1 .4.5.7.7.6.3 1 .3.8-.1 1-.3zM274.9 108.2c.1.1.1.2.1.4s0 .3-.1.4-.2.2-.4.2-.3-.1-.4-.2-.1-.2-.1-.4 0-.3.1-.4.2-.2.4-.2.3.1.4.2zm-.7 7.2v-5.3h.8v5.3h-.8zM281.2 110.6c.4.4.5.9.5 1.5v3.3h-.8v-3c0-.5-.1-.8-.4-1.1s-.6-.4-1.1-.4c-.5 0-.9.2-1.2.5s-.5.7-.5 1.2v2.8h-.8v-5.3h.8v1.2c.4-.8 1-1.2 2-1.2.6 0 1.1.2 1.5.5zM288 114.8c0 .5-.1 1-.3 1.3s-.5.7-.9.9-.9.3-1.4.3c-.8 0-1.5-.3-2.2-.8l.4-.6c.3.2.5.4.8.5s.6.2.9.2c.6 0 1-.2 1.4-.5s.5-.8.5-1.3v-.8c-.2.4-.4.6-.8.8s-.7.3-1.2.3-.9-.1-1.2-.3-.6-.5-.9-.9-.3-.8-.3-1.3.1-.9.3-1.3.5-.7.8-.9.8-.3 1.2-.3c.4 0 .8.1 1.2.3s.6.5.8.8v-1.1h.8v4.7zm-1.6-.5c.3-.2.5-.4.6-.7s.2-.6.2-1-.1-.7-.2-1-.4-.5-.6-.7-.6-.2-.9-.2c-.3 0-.7.1-.9.2s-.5.4-.6.7-.2.6-.2 1 .1.7.2 1 .4.5.6.7.6.2.9.2c.3 0 .6-.1.9-.2zM295.8 110.3c.3.1.6.3.9.6l-.4.6c-.4-.4-.9-.6-1.6-.6-.4 0-.7.1-1 .2s-.5.4-.7.7-.2.6-.2 1 .1.7.2 1 .4.5.7.7.6.3 1 .3c.3 0 .7-.1.9-.2s.5-.3.7-.5l.4.5c-.2.3-.5.5-.9.7s-.8.2-1.2.2c-.5 0-1-.1-1.4-.3s-.7-.5-.9-.9-.3-.9-.3-1.4.1-1 .3-1.4.5-.7.9-.9.9-.3 1.4-.3c.4-.2.8-.1 1.2 0zM298.2 115.4V108h.8v7.4h-.8zM301.6 108.2c.1.1.1.2.1.4s0 .3-.1.4-.2.2-.4.2-.3-.1-.4-.2-.1-.2-.1-.4 0-.3.1-.4.2-.2.4-.2.3.1.4.2zm-.7 7.2v-5.3h.8v5.3h-.8zM307.5 110.9c.4.5.6 1.3.6 2.2h-4.3c.1.5.3.9.6 1.2s.8.5 1.3.5c.3 0 .6-.1.9-.2s.5-.3.7-.5l.4.5c-.3.3-.6.5-.9.6s-.8.2-1.2.2c-.5 0-1-.1-1.4-.3s-.7-.5-.9-.9-.3-.9-.3-1.4.1-1 .3-1.4.5-.7.9-.9.9-.3 1.4-.3c.9-.1 1.5.2 1.9.7zm-.6.3c-.3-.3-.7-.4-1.2-.4s-.9.1-1.3.4-.5.7-.6 1.2h3.6c0-.5-.2-.9-.5-1.2zM313.7 110.6c.4.4.5.9.5 1.5v3.3h-.8v-3c0-.5-.1-.8-.4-1.1s-.6-.4-1.1-.4c-.5 0-.9.2-1.2.5s-.5.7-.5 1.2v2.8h-.8v-5.3h.8v1.2c.4-.8 1-1.2 2-1.2.7 0 1.2.2 1.5.5zM317.5 115.4c-.4 0-.7-.1-1-.4s-.4-.6-.4-1.1v-3h-.8v-.6h.8v-1.4h.8v1.4h1.7v.6H317v2.9c0 .3.1.5.2.7s.3.2.5.2c.3 0 .6-.1.8-.3l.2.6c-.4.3-.8.4-1.2.4zM324.2 115.4c-.4 0-.7-.1-1-.4s-.4-.6-.4-1.1v-3h-.8v-.6h.8v-1.4h.8v1.4h1.7v.6h-1.7v2.9c0 .3.1.5.2.7s.3.2.5.2c.3 0 .6-.1.8-.3l.2.6c-.3.3-.7.4-1.1.4zM327.6 117.1c-.3.2-.6.3-.9.3-.4 0-.8-.1-1.1-.4l.3-.6c.2.2.5.2.7.2.2 0 .4-.1.6-.2.2-.1.3-.3.4-.6l.2-.5-2.2-5.2h.8l1.7 4.4 1.7-4.4h.8l-2.4 6c-.2.5-.4.8-.6 1zM335.7 110.4c.4.2.7.5.9.9.2.4.3.9.3 1.4 0 .5-.1 1-.3 1.4s-.5.7-.9.9c-.4.2-.8.3-1.3.3s-.9-.1-1.2-.3c-.3-.2-.6-.5-.8-.9v3.1h-.8V110h.8v1.1c.2-.4.5-.7.8-.9.4-.2.8-.3 1.2-.3.5.2.9.3 1.3.5zm-.5 4.1c.3-.2.5-.4.7-.7s.2-.6.2-1-.1-.7-.2-1-.4-.5-.7-.7c-.3-.2-.6-.3-1-.3s-.7.1-1 .2c-.3.2-.5.4-.7.7-.2.3-.2.6-.2 1s.1.7.2 1c.2.3.4.5.7.7.3.2.6.3 1 .3s.8-.1 1-.2zM342.3 110.9c.4.5.6 1.3.6 2.2h-4.3c.1.5.3.9.6 1.2s.8.5 1.3.5c.3 0 .6-.1.9-.2.3-.1.5-.3.7-.5l.4.5c-.3.3-.6.5-.9.6-.4.2-.8.2-1.2.2-.5 0-1-.1-1.4-.3-.4-.2-.7-.5-.9-.9s-.3-.9-.3-1.4.1-1 .3-1.4c.2-.4.5-.7.9-.9s.9-.3 1.4-.3c.8-.1 1.5.2 1.9.7zm-.7.3c-.3-.3-.7-.4-1.2-.4s-.9.1-1.3.4c-.3.3-.5.7-.6 1.2h3.6c0-.5-.1-.9-.5-1.2zM347.9 110c-.2.7-.3 1.5-.3 2.4s.1 1.6.3 2.4c.2.7.5 1.4.9 2h-.8c-.4-.6-.7-1.2-.9-2-.2-.7-.3-1.5-.3-2.4s.1-1.6.3-2.4c.2-.7.5-1.4.9-2h.7c-.3.6-.6 1.2-.8 2zM353.1 114.6c-.4.6-1.1.8-1.9.8-.4 0-.7-.1-.9-.2-.3-.1-.5-.3-.6-.6-.1-.2-.2-.5-.2-.8 0-.5.2-.8.5-1.1s.8-.4 1.5-.4h1.7v-.3c0-.4-.1-.7-.4-.9s-.6-.3-1.1-.3c-.5 0-1.1.2-1.7.6l-.3-.6c.4-.2.7-.4 1-.5.3-.1.7-.2 1.1-.2.6 0 1.1.2 1.5.5.4.3.5.8.5 1.3v3.5h-.8v-.8zm-.6-.2c.3-.2.5-.5.6-.9v-.6h-1.6c-.9 0-1.3.3-1.3.8 0 .3.1.5.3.7s.5.3.9.3c.4.1.8 0 1.1-.3zM356.6 115.4l-2.1-5.3h.8l1.7 4.5 1.7-4.5h.8l-2.1 5.3h-.8zM360.3 108h.7c.4.6.7 1.2.9 2 .2.7.3 1.5.3 2.4s-.1 1.6-.3 2.4c-.2.7-.5 1.4-.9 2h-.7c.4-.6.6-1.2.9-2 .2-.7.3-1.5.3-2.4s-.1-1.6-.3-2.4c-.2-.8-.5-1.4-.9-2z"/></g><g fill="#25DDDF"><path d="M417.8 51.8v-4.3h-4.2v-3h4.2v-4.3h3.3v4.3h4.2v3h-4.2v4.3h-3.3zM434.9 44.2c.4-.6.6-1.2.6-1.7 0-.6-.2-1-.6-1.4-.4-.4-.8-.6-1.4-.6-1.1 0-2.1.8-3 2.3l-3-1.8c.8-1.2 1.6-2.1 2.6-2.8.9-.6 2.1-.9 3.6-.9s2.7.5 3.8 1.4 1.6 2.2 1.6 3.8c0 .9-.2 1.7-.7 2.5-.4.8-1.3 1.8-2.4 3l-3 3.1h6.6v3.4h-11.8v-2.8l4.9-5c1-1.1 1.7-1.9 2.2-2.5zM449.2 54.6c-2.3 0-4.1-.8-5.2-2.4-1.2-1.6-1.7-3.7-1.7-6.3s.6-4.7 1.7-6.3c1.2-1.6 2.9-2.4 5.2-2.4 2.3 0 4.1.8 5.2 2.4 1.2 1.6 1.7 3.7 1.7 6.3s-.6 4.7-1.7 6.3c-1.1 1.7-2.9 2.4-5.2 2.4zm-2.5-12.7c-.5 1-.8 2.4-.8 4.1 0 1.7.3 3 .8 4.1s1.4 1.5 2.5 1.5 1.9-.5 2.5-1.5c.5-1 .8-2.4.8-4.1 0-1.7-.3-3-.8-4.1-.5-1-1.4-1.5-2.5-1.5s-1.9.5-2.5 1.5zM466.1 41.5c0 .9-.3 1.7-1 2.4s-1.5 1-2.5 1-1.9-.3-2.5-1c-.7-.7-1-1.5-1-2.4s.3-1.7 1-2.4 1.5-1 2.5-1 1.9.3 2.5 1 1 1.4 1 2.4zm9.2-3.8l-12 16.8h-4.1l12-16.8h4.1zm-13.4 4.6c.2.2.4.3.7.3s.5-.1.7-.3c.2-.2.3-.5.3-.9s-.1-.6-.3-.9c-.2-.2-.4-.3-.7-.3-.3 0-.5.1-.7.3-.2.2-.3.5-.3.9s.1.7.3.9zm13.7 9c0 .9-.3 1.7-1 2.4-.7.6-1.5 1-2.5 1s-1.9-.3-2.5-1c-.7-.7-1-1.5-1-2.4s.3-1.7 1-2.4 1.5-1 2.5-1 1.9.3 2.5 1c.6.6 1 1.4 1 2.4zm-4.3.8c.2.2.4.3.7.3s.5-.1.7-.3c.2-.2.3-.5.3-.9s-.1-.6-.3-.9c-.2-.2-.4-.3-.7-.3-.3 0-.5.1-.7.3-.2.2-.3.5-.3.9s.1.7.3.9z"/></g><g fill="#25DDDF"><path d="M253.2 51.8v-4.3H249v-3h4.2v-4.3h3.3v4.3h4.2v3h-4.2v4.3h-3.3zM262.9 43v-5.4H275v2.8l-6.8 13.9h-4.1l6.5-13.6h-4.2V43h-3.5zM284 54.6c-2.3 0-4.1-.8-5.2-2.4-1.2-1.6-1.7-3.7-1.7-6.3s.6-4.7 1.7-6.3c1.2-1.6 2.9-2.4 5.2-2.4s4.1.8 5.2 2.4c1.2 1.6 1.7 3.7 1.7 6.3s-.6 4.7-1.7 6.3c-1.2 1.7-2.9 2.4-5.2 2.4zm-2.5-12.7c-.5 1-.8 2.4-.8 4.1 0 1.7.3 3 .8 4.1.5 1 1.4 1.5 2.5 1.5s1.9-.5 2.5-1.5.8-2.4.8-4.1c0-1.7-.3-3-.8-4.1s-1.4-1.5-2.5-1.5-2 .5-2.5 1.5zM300.6 54.6c-2.3 0-4.1-.8-5.2-2.4-1.2-1.6-1.7-3.7-1.7-6.3s.6-4.7 1.7-6.3c1.2-1.6 2.9-2.4 5.2-2.4s4.1.8 5.2 2.4c1.2 1.6 1.7 3.7 1.7 6.3s-.6 4.7-1.7 6.3c-1.2 1.7-2.9 2.4-5.2 2.4zm-2.5-12.7c-.5 1-.8 2.4-.8 4.1 0 1.7.3 3 .8 4.1.5 1 1.4 1.5 2.5 1.5s1.9-.5 2.5-1.5.8-2.4.8-4.1c0-1.7-.3-3-.8-4.1s-1.4-1.5-2.5-1.5-2 .5-2.5 1.5zM314.1 54.4h-3.6V36.6h3.6v9.1l4-4.3h4.5l-4.9 5.2 5.1 7.7h-4.3l-3.3-4.9-1.2 1.2v3.8zM333.8 35.1h3.4l-10.1 22h-3.4l10.1-22zM341.8 59.5c-1.3 0-2.5-.5-3.6-1.5l1.6-2.7c.6.6 1.2.9 1.9.9.3 0 .6-.2.9-.5.2-.3.4-.7.4-1 0-.4-1.7-4.8-5-13.2h3.8l3.1 8 3.1-8h3.8l-6 15.2c-.4.9-.9 1.6-1.6 2.1-.7.5-1.5.7-2.4.7z"/></g><g fill="#25DDDF"><path d="M253.2 96.8v-4.3H249v-3h4.2v-4.3h3.3v4.3h4.2v3h-4.2v4.3h-3.3zM263.6 85.8v-3.2h10.3v2.6l-3.4 3.9c1.3.2 2.4.8 3.1 1.7.7.9 1.1 1.9 1.1 3.1 0 1.8-.6 3.1-1.8 4.1-1.2 1-2.7 1.5-4.6 1.5s-3.7-.7-5.6-2l1.5-3c1.6 1.1 3 1.7 4.2 1.7.8 0 1.4-.2 1.9-.6.5-.4.7-.9.7-1.6 0-.7-.3-1.2-.8-1.7s-1.3-.6-2.3-.6c-.5 0-1.3.2-2.2.5v-2.8l3.2-3.8h-5.3zM289.6 92.4v7H286v-7.1c0-1-.2-1.8-.5-2.3s-.8-.7-1.5-.7-1.3.3-1.8.8-.8 1.3-.8 2.3v7h-3.6V86.5h3.6V88c1-1.1 2.1-1.7 3.4-1.7.8 0 1.6.2 2.2.7.7.5 1.2 1.1 1.5 1.8.5-.8 1.2-1.4 2-1.8s1.7-.6 2.5-.6c1.5 0 2.7.5 3.7 1.4.9.9 1.4 2.2 1.4 3.9v7.8h-3.6v-7.1c0-2-.7-3-2.2-3-.7 0-1.3.3-1.9.8s-.8 1.2-.8 2.2z"/></g><g fill="#0A0A0A"><path d="M5.7 70.3l-1.1 2.5H3.5L7.9 63H9l4.4 9.8h-1.2l-1.1-2.5H5.7zm2.7-6l-2.2 5h4.4l-2.2-5zM20.6 65.9c.5.3 1 .8 1.3 1.3s.4 1.2.4 1.9-.1 1.4-.4 1.9-.7 1-1.2 1.3-1.1.5-1.8.5-1.2-.1-1.7-.4-.9-.7-1.2-1.2v4.3h-1.1V65.4H16V67c.3-.5.6-.9 1.1-1.2s1.1-.4 1.7-.4c.7 0 1.3.1 1.8.5zm-.7 5.6c.4-.2.7-.6.9-1s.3-.9.3-1.4-.1-1-.3-1.4-.5-.7-.9-1-.9-.4-1.4-.4c-.5 0-1 .1-1.4.3s-.7.6-.9 1-.3.9-.3 1.4c0 .5.1 1 .3 1.4s.5.7.9 1 .9.4 1.4.4c.6 0 1-.1 1.4-.3zM30.1 65.9c.5.3 1 .8 1.3 1.3s.4 1.2.4 1.9-.1 1.4-.4 1.9-.7 1-1.2 1.3-1.1.5-1.8.5-1.2-.1-1.7-.4-.9-.7-1.2-1.2v4.3h-1.1V65.4h1.1V67c.3-.5.6-.9 1.1-1.2s1.1-.4 1.7-.4c.6 0 1.2.1 1.8.5zm-.7 5.6c.4-.2.7-.6.9-1s.3-.9.3-1.4-.1-1-.3-1.4-.5-.7-.9-1-.9-.4-1.4-.4c-.5 0-1 .1-1.4.3s-.7.6-.9 1-.3.9-.3 1.4c0 .5.1 1 .3 1.4s.5.7.9 1 .9.4 1.4.4c.6 0 1-.1 1.4-.3zM35.8 65.8c.4-.3 1-.4 1.6-.4v1.1c-.8 0-1.4.2-1.8.6s-.7 1-.8 1.8v3.9h-1.1v-7.4h1.1V67c.2-.5.6-.9 1-1.2zM43.8 65.9c.6.3 1 .8 1.3 1.3s.5 1.2.5 1.9-.2 1.4-.5 1.9-.8 1-1.3 1.3-1.2.5-1.9.5-1.4-.2-1.9-.5-1-.8-1.3-1.3-.5-1.2-.5-1.9.2-1.4.5-1.9.8-1 1.3-1.3 1.2-.5 1.9-.5 1.4.2 1.9.5zm-3.3.8c-.4.2-.7.6-.9 1s-.3.9-.3 1.4c0 .5.1 1 .3 1.4s.5.7.9 1 .9.4 1.4.4 1-.1 1.4-.4.7-.6.9-1 .3-.9.3-1.4-.1-1-.3-1.4-.5-.7-.9-1-.9-.3-1.4-.3c-.5 0-1 .1-1.4.3zM52.1 71.7c-.6.8-1.5 1.2-2.7 1.2-.5 0-.9-.1-1.3-.3s-.7-.5-.9-.8-.3-.7-.3-1.2c0-.6.2-1.2.7-1.5s1.2-.6 2-.6H52v-.4c0-.6-.2-1-.5-1.3s-.8-.4-1.5-.4-1.5.3-2.3.8l-.5-.8c.5-.3 1-.6 1.4-.8s1-.2 1.6-.2c.9 0 1.6.2 2.1.7s.7 1.1.7 1.9v4.9h-1.1v-1.2zm-.9-.2c.4-.3.7-.7.9-1.2v-.9h-2.3c-1.2 0-1.9.4-1.9 1.2 0 .4.2.7.5 1s.7.4 1.2.4c.7-.1 1.2-.2 1.6-.5zM60.2 65.7c.5.2.9.5 1.2.8l-.6.8c-.6-.6-1.3-.9-2.2-.9-.5 0-1 .1-1.4.3s-.7.5-.9 1-.3.9-.3 1.4c0 .5.1 1 .3 1.4s.5.7.9 1 .8.4 1.4.4c.5 0 .9-.1 1.3-.2s.7-.4 1-.7l.6.7c-.3.4-.8.7-1.3.9s-1.1.3-1.7.3c-.7 0-1.3-.2-1.9-.5s-1-.8-1.3-1.3-.5-1.2-.5-1.9.2-1.4.5-1.9.8-1 1.3-1.3 1.2-.5 1.9-.5c.7-.1 1.2 0 1.7.2zM69.6 66.1c.5.5.7 1.2.7 2.1v4.6h-1.1v-4.3c0-.7-.2-1.2-.6-1.5s-.9-.5-1.5-.5c-.8 0-1.4.3-1.8.8s-.7 1.1-.7 2v3.6h-1.1V62.4h1.1v4.7c.5-1.1 1.4-1.7 2.9-1.7.9 0 1.6.2 2.1.7z"/></g><g fill="#25DDDF"><path d="M13.2 51.1c1.8 0 3.3-.7 4.5-2.2l2.4 2.5c-1.9 2.1-4.1 3.2-6.7 3.2-2.6 0-4.7-.8-6.4-2.4-1.7-1.6-2.5-3.7-2.5-6.2s.9-4.6 2.6-6.2c1.7-1.7 3.8-2.5 6.3-2.5 2.8 0 5.1 1 6.9 3.1L18 43c-1.2-1.5-2.7-2.2-4.4-2.2-1.4 0-2.6.5-3.6 1.4-1 .9-1.5 2.2-1.5 3.7s.5 2.8 1.4 3.8c.8 1 1.9 1.4 3.3 1.4zM36.8 52.1c-1.7 1.7-3.8 2.5-6.3 2.5s-4.6-.8-6.3-2.5c-1.7-1.7-2.5-3.7-2.5-6.2s.8-4.5 2.5-6.2c1.7-1.7 3.8-2.5 6.3-2.5s4.6.8 6.3 2.5c1.7 1.7 2.5 3.7 2.5 6.2s-.8 4.6-2.5 6.2zM35.5 46c0-1.5-.5-2.8-1.4-3.8s-2.1-1.6-3.5-1.6-2.6.5-3.6 1.5c-1 1.1-1.4 2.3-1.4 3.8s.5 2.8 1.4 3.8c1 1 2.1 1.6 3.5 1.6s2.6-.5 3.5-1.6 1.5-2.2 1.5-3.7zM57.5 43.9L53 53.1h-2.2l-4.5-9.2v10.6h-3.7V37.7h5.1l4.3 9.2 4.3-9.2h5v16.8h-3.7V43.9zM76.9 39.2c1.2 1 1.8 2.5 1.8 4.6 0 2.1-.6 3.6-1.8 4.5s-3.1 1.4-5.5 1.4h-2.2v4.7h-3.7V37.7h5.9c2.5 0 4.4.5 5.5 1.5zm-2.7 6.6c.4-.5.7-1.2.7-2.2s-.3-1.7-.9-2.1c-.6-.4-1.5-.6-2.7-.6h-2.1v5.6h2.5c1.2 0 2.1-.2 2.5-.7zM95.2 43.2c0 2.7-1.1 4.4-3.2 5.2l4.2 6h-4.6L88 49.1h-2.6v5.4h-3.7V37.7H88c2.6 0 4.5.4 5.6 1.3 1.1.9 1.6 2.3 1.6 4.2zm-4.5 2c.5-.4.7-1.1.7-2s-.2-1.5-.7-1.9c-.5-.3-1.3-.5-2.5-.5h-2.8v5h2.7c1.3.1 2.2-.1 2.6-.6zM111.2 37.7V41h-8.4v3.5h7.5v3.2h-7.5v3.5h8.6v3.3H99.1V37.7h12.1zM125.2 37.7h3.7v16.8h-3.7v-6.6h-6.7v6.6h-3.7V37.7h3.7v7h6.7v-7zM145.2 37.7V41h-8.4v3.5h7.5v3.2h-7.5v3.5h8.6v3.3H133V37.7h12.2zM160.5 37.7h3.7v16.8h-3.7l-8-10.5v10.5h-3.7V37.7h3.5l8.2 10.8V37.7zM172.3 41c-.4.3-.5.7-.5 1.2s.2.9.7 1.2 1.5.6 3 1c1.6.4 2.8 1 3.7 1.8.9.8 1.3 1.9 1.3 3.4s-.6 2.7-1.7 3.7c-1.1.9-2.6 1.4-4.5 1.4-2.7 0-5-1-7.2-3l2.2-2.7c1.8 1.6 3.5 2.4 5 2.4.7 0 1.2-.1 1.6-.4.4-.3.6-.7.6-1.2s-.2-.9-.6-1.2-1.2-.6-2.5-.9c-2-.5-3.4-1.1-4.3-1.8-.9-.7-1.4-1.9-1.4-3.5s.6-2.8 1.7-3.7c1.1-.9 2.6-1.3 4.3-1.3 1.1 0 2.2.2 3.4.6s2.1.9 2.9 1.6l-1.9 2.7c-1.5-1.1-3-1.7-4.5-1.7-.5 0-.9.1-1.3.4zM183.7 37.7h3.7v16.8h-3.7V37.7zM197.7 48.4l4.3-10.7h4.1l-6.7 16.8h-3.2l-6.7-16.8h4.1l4.1 10.7zM220.2 37.7V41h-8.4v3.5h7.5v3.2h-7.5v3.5h8.6v3.3H208V37.7h12.2z"/></g><path d="M4.5 88.1v-7h.8v7h-.8zM11.6 83.3c.4.4.5.9.5 1.5v3.3h-.8v-3c0-.5-.1-.8-.4-1.1s-.6-.4-1.1-.4c-.5 0-.9.2-1.2.5s-.5.7-.6 1.2v2.8h-.7v-5.3H8V84c.4-.8 1-1.2 2-1.2.7 0 1.2.2 1.6.5zM17.1 83c.3.1.6.3.9.6l-.4.6c-.4-.4-.9-.6-1.6-.6-.4 0-.7.1-1 .2s-.5.4-.7.7-.2.6-.2 1 .1.7.2 1 .4.5.7.7.6.3 1 .3c.3 0 .7-.1.9-.2s.5-.3.7-.5l.4.5c-.2.3-.5.5-.9.7s-.8.2-1.2.2c-.5 0-1-.1-1.4-.3s-.7-.5-.9-.9-.3-.9-.3-1.4.1-1 .3-1.4.5-.7.9-.9.9-.3 1.4-.3c.5-.2.8-.1 1.2 0zM19.5 88.1v-7.4h.8v7.4h-.8zM26.8 88.1H26v-1.2c-.3.8-1 1.2-2 1.2-.6 0-1.1-.2-1.4-.5s-.6-.9-.6-1.5v-3.2h.8v3c0 .5.1.8.4 1.1s.6.4 1.1.4c.5 0 1-.2 1.3-.5s.4-.9.4-1.5v-2.6h.8v5.3zM33.5 88.1h-.8V87c-.2.4-.5.7-.8.9s-.8.3-1.2.3c-.5 0-.9-.1-1.3-.3s-.7-.5-.9-.9-.3-.9-.3-1.4.1-1 .3-1.4.5-.7.9-.9.8-.3 1.3-.3.9.1 1.2.3.6.5.8.9v-3.3h.8v7.2zm-1.7-.9c.3-.2.5-.4.7-.7s.2-.6.2-1-.1-.7-.2-1-.4-.5-.7-.7-.6-.3-1-.3-.7.1-1 .3-.5.4-.7.7-.2.6-.2 1 .1.7.2 1 .4.5.7.7.6.3 1 .3.7-.1 1-.3zM39.4 83.6c.4.5.6 1.3.6 2.2h-4.3c.1.5.3.9.6 1.2s.8.5 1.3.5c.3 0 .6-.1.9-.2s.5-.3.7-.5l.4.5c-.3.3-.6.5-.9.6s-.8.2-1.2.2c-.5 0-1-.1-1.4-.3s-.7-.5-.9-.9-.3-.9-.3-1.4.1-1 .3-1.4.5-.7.9-.9.9-.3 1.4-.3c.9-.1 1.5.2 1.9.7zm-.6.3c-.3-.3-.7-.4-1.2-.4s-.9.1-1.3.4-.5.7-.6 1.2h3.6c0-.5-.2-.9-.5-1.2zM43.7 82.9c.3.1.5.2.8.4l-.3.6c-.2-.1-.4-.2-.7-.3s-.5-.1-.7-.1c-.3 0-.6.1-.8.2s-.3.3-.3.5.1.3.2.4.2.2.4.3.4.1.7.2c.4.1.7.2.9.3s.4.3.6.5.2.5.2.8c0 .5-.2.9-.6 1.1s-.8.4-1.4.4c-.4 0-.8-.1-1.1-.2s-.7-.3-.9-.5l.3-.6c.2.2.5.4.8.5s.6.2.9.2c.3 0 .6-.1.8-.2s.3-.3.3-.6-.1-.4-.3-.6-.5-.2-.9-.4c-.4-.1-.7-.2-.9-.3s-.4-.2-.6-.4-.2-.5-.2-.8c0-.5.2-.8.5-1.1s.8-.4 1.3-.4c.4 0 .7 0 1 .1zM53.2 87.5c0 .5-.1 1-.3 1.3s-.5.7-.9.9-.9.3-1.4.3c-.8 0-1.5-.3-2.2-.8l.4-.6c.3.2.5.4.8.5s.6.2.9.2c.6 0 1-.2 1.4-.5s.5-.8.5-1.3v-.8c-.2.4-.4.6-.8.8s-.7.3-1.2.3-.9-.1-1.2-.3-.6-.5-.9-.9-.3-.8-.3-1.3.1-.9.3-1.3.5-.7.8-.9.8-.3 1.2-.3c.4 0 .8.1 1.2.3s.6.5.8.8v-1.1h.8v4.7zm-1.6-.5c.3-.2.5-.4.6-.7s.2-.6.2-1-.1-.7-.2-1-.4-.5-.6-.7-.6-.2-.9-.2c-.3 0-.7.1-.9.2s-.5.4-.6.7-.2.6-.2 1 .1.7.2 1 .4.5.6.7.6.2.9.2c.3 0 .6-.1.9-.2zM56.5 83.1c.3-.2.7-.3 1.1-.3v.8c-.5 0-1 .1-1.3.5s-.5.7-.6 1.3v2.8H55v-5.3h.8V84c.1-.4.4-.7.7-.9zM62.2 83.1c.4.2.7.5.9.9s.3.9.3 1.4c0 .5-.1 1-.3 1.4s-.5.7-.9.9-.9.3-1.4.3-1-.1-1.4-.3-.7-.5-.9-.9-.3-.9-.3-1.4c0-.5.1-1 .3-1.4s.5-.7.9-.9.9-.3 1.4-.3 1 .1 1.4.3zm-2.3.7c-.3.2-.5.4-.7.7s-.2.6-.2 1 .1.7.2 1 .4.5.7.7.6.3 1 .3.7-.1 1-.3.5-.4.7-.7.2-.6.2-1-.1-.7-.2-1-.4-.5-.7-.7-.6-.2-1-.2c-.4-.1-.8 0-1 .2zM69.7 88.1l-1.5-4.3-1.5 4.3h-.8l-2-5.3h.8l1.6 4.5 1.5-4.5h.8l1.5 4.5 1.5-4.5h.8l-2 5.3h-.7zM74.9 88.1c-.4 0-.7-.1-1-.4s-.4-.6-.4-1.1v-3h-.8V83h.8v-1.4h.8V83H76v.6h-1.7v2.9c0 .3.1.5.2.7s.3.2.5.2c.3 0 .6-.1.8-.3l.2.6c-.3.3-.7.4-1.1.4zM81.6 83.3c.4.4.5.9.5 1.5v3.3h-.8v-3c0-.5-.1-.8-.4-1.1s-.6-.4-1.1-.4c-.6 0-1 .2-1.3.5s-.5.8-.5 1.4v2.6h-.8v-7.4h.8V84c.3-.8 1-1.2 2-1.2.7 0 1.2.2 1.6.5zM88.9 82.9c.3.1.5.2.8.4l-.3.6c-.2-.1-.4-.2-.7-.3s-.5-.1-.7-.1c-.3 0-.6.1-.8.2s-.3.3-.3.5.1.3.2.4.2.2.4.3.4.1.7.2c.4.1.7.2.9.3s.4.3.6.5.2.5.2.8c0 .5-.2.9-.6 1.1s-.8.4-1.4.4c-.4 0-.8-.1-1.1-.2s-.7-.3-.9-.5l.3-.6c.2.2.5.4.8.5s.6.2.9.2c.3 0 .6-.1.8-.2s.3-.3.3-.6-.1-.4-.3-.6-.5-.2-.9-.4c-.4-.1-.7-.2-.9-.3s-.4-.2-.6-.4-.2-.5-.2-.8c0-.5.2-.8.5-1.1s.8-.4 1.3-.4c.4 0 .7 0 1 .1zM92.6 88.1c-.4 0-.7-.1-1-.4s-.4-.6-.4-1.1v-3h-.8V83h.8v-1.4h.8V83h1.7v.6H92v2.9c0 .3.1.5.2.7s.3.2.5.2c.3 0 .6-.1.8-.3l.2.6c-.3.3-.6.4-1.1.4zM96.5 83.1c.3-.2.7-.3 1.1-.3v.8c-.5 0-1 .1-1.3.5s-.5.7-.6 1.3v2.8H95v-5.3h.8V84c.2-.4.4-.7.7-.9zM101.7 87.3c-.4.6-1.1.8-1.9.8-.4 0-.7-.1-.9-.2s-.5-.3-.6-.6-.3-.5-.3-.8c0-.5.2-.8.5-1.1s.9-.4 1.5-.4h1.7v-.3c0-.4-.1-.7-.4-.9s-.6-.3-1.1-.3c-.5 0-1.1.2-1.7.6l-.3-.6c.4-.2.7-.4 1-.5s.7-.2 1.1-.2c.6 0 1.1.2 1.5.5s.5.8.5 1.3v3.5h-.8v-.8zm-.6-.2c.3-.2.5-.5.6-.9v-.6h-1.6c-.9 0-1.3.3-1.3.8 0 .3.1.5.3.7s.5.3.9.3c.4.1.8 0 1.1-.3zM105.8 88.1c-.4 0-.7-.1-1-.4s-.4-.6-.4-1.1v-3h-.8V83h.8v-1.4h.8V83h1.7v.6h-1.7v2.9c0 .3.1.5.2.7s.3.2.5.2c.3 0 .6-.1.8-.3l.2.6c-.3.3-.7.4-1.1.4zM112 83.6c.4.5.6 1.3.6 2.2h-4.3c.1.5.3.9.6 1.2s.8.5 1.3.5c.3 0 .6-.1.9-.2s.5-.3.7-.5l.4.5c-.3.3-.6.5-.9.6s-.8.2-1.2.2c-.5 0-1-.1-1.4-.3s-.7-.5-.9-.9-.3-.9-.3-1.4.1-1 .3-1.4.5-.7.9-.9.9-.3 1.4-.3c.9-.1 1.5.2 1.9.7zm-.6.3c-.3-.3-.7-.4-1.2-.4s-.9.1-1.3.4-.5.7-.6 1.2h3.6c0-.5-.2-.9-.5-1.2zM118.5 87.5c0 .5-.1 1-.3 1.3s-.5.7-.9.9-.9.3-1.4.3c-.8 0-1.5-.3-2.2-.8l.4-.6c.3.2.5.4.8.5s.6.2.9.2c.6 0 1-.2 1.4-.5s.5-.8.5-1.3v-.8c-.2.4-.4.6-.8.8s-.7.3-1.2.3-.9-.1-1.2-.3-.6-.5-.9-.9-.3-.8-.3-1.3.1-.9.3-1.3.5-.7.8-.9.8-.3 1.2-.3c.4 0 .8.1 1.2.3s.6.5.8.8v-1.1h.8v4.7zm-1.6-.5c.3-.2.5-.4.6-.7s.2-.6.2-1-.1-.7-.2-1-.4-.5-.6-.7-.6-.2-.9-.2c-.3 0-.7.1-.9.2s-.5.4-.6.7-.2.6-.2 1 .1.7.2 1 .4.5.6.7.6.2.9.2c.3 0 .6-.1.9-.2zM121.3 89.8c-.3.2-.6.3-.9.3-.4 0-.8-.1-1.1-.4l.3-.6c.2.2.5.2.7.2.2 0 .4-.1.6-.2s.3-.3.4-.6l.2-.5-2.2-5.2h.8l1.7 4.4 1.7-4.4h.8l-2.4 6c-.1.5-.3.8-.6 1zM125.7 87.3c.1.1.1.2.1.4 0 .1-.1.3-.2.4l-.5.7h-.4l.3-.7c-.1-.1-.2-.2-.2-.4 0-.1 0-.3.1-.4.1-.1.2-.1.3-.1s.4 0 .5.1zM134.2 83.1c.4.2.7.5.9.9.2.4.3.9.3 1.4 0 .5-.1 1-.3 1.4-.2.4-.5.7-.9.9-.4.2-.8.3-1.3.3s-.9-.1-1.2-.3c-.4-.2-.6-.5-.8-.9V90h-.8v-7.2h.8V84c.2-.4.5-.7.8-.9.3-.2.8-.3 1.2-.3.5 0 .9.1 1.3.3zm-.5 4.1c.3-.2.5-.4.7-.7.2-.3.2-.6.2-1s-.1-.7-.2-1c-.2-.3-.4-.5-.7-.7s-.6-.3-1-.3-.7.1-1 .2-.5.4-.7.7-.2.6-.2 1 .1.7.2 1 .4.5.7.7.6.3 1 .3.7-.1 1-.2zM138.3 83.1c.3-.2.7-.3 1.1-.3v.8c-.5 0-1 .1-1.3.5s-.5.7-.6 1.3v2.8h-.8v-5.3h.8V84c.2-.4.5-.7.8-.9zM144 83.1c.4.2.7.5.9.9s.3.9.3 1.4c0 .5-.1 1-.3 1.4s-.5.7-.9.9c-.4.2-.9.3-1.4.3s-1-.1-1.4-.3-.7-.5-.9-.9c-.2-.4-.3-.9-.3-1.4 0-.5.1-1 .3-1.4.2-.4.5-.7.9-.9s.9-.3 1.4-.3 1 .1 1.4.3zm-2.3.7c-.3.2-.5.4-.7.7s-.2.6-.2 1 .1.7.2 1 .4.5.7.7.6.3 1 .3.7-.1 1-.3.5-.4.7-.7.2-.6.2-1-.1-.7-.2-1-.4-.5-.7-.7c-.3-.2-.6-.2-1-.2-.4-.1-.8 0-1 .2zM151.5 88.1h-.8V87c-.2.4-.5.7-.8.9-.4.2-.8.3-1.2.3-.5 0-.9-.1-1.3-.3-.4-.2-.7-.5-.9-.9-.2-.4-.3-.9-.3-1.4s.1-1 .3-1.4c.2-.4.5-.7.9-.9s.8-.3 1.3-.3.9.1 1.2.3.6.5.8.9v-3.3h.8v7.2zm-1.7-.9c.3-.2.5-.4.7-.7s.2-.6.2-1-.1-.7-.2-1-.4-.5-.7-.7-.6-.3-1-.3-.7.1-1 .3-.5.4-.7.7-.2.6-.2 1 .1.7.2 1 .4.5.7.7.6.3 1 .3.7-.1 1-.3zM158 88.1h-.8v-1.2c-.3.8-1 1.2-2 1.2-.6 0-1.1-.2-1.4-.5-.4-.4-.5-.9-.5-1.5v-3.2h.8v3c0 .5.1.8.4 1.1s.6.4 1.1.4c.5 0 1-.2 1.3-.5.3-.4.5-.8.5-1.4v-2.6h.8v5.2zM163.2 83c.3.1.6.3.9.6l-.4.6c-.4-.4-.9-.6-1.6-.6-.4 0-.7.1-1 .2s-.5.4-.7.7-.2.6-.2 1 .1.7.2 1 .4.5.7.7.6.3 1 .3c.3 0 .7-.1.9-.2s.5-.3.7-.5l.4.5c-.2.3-.5.5-.9.7-.4.2-.8.2-1.2.2-.5 0-1-.1-1.4-.3s-.7-.5-.9-.9c-.2-.4-.3-.9-.3-1.4s.1-1 .3-1.4c.2-.4.5-.7.9-.9s.9-.3 1.4-.3c.5-.2.8-.1 1.2 0zM167.1 88.1c-.4 0-.7-.1-1-.4s-.4-.6-.4-1.1v-3h-.7V83h.8v-1.4h.8V83h1.7v.6h-1.7v2.9c0 .3.1.5.2.7s.3.2.5.2c.3 0 .6-.1.8-.3l.2.6c-.4.3-.8.4-1.2.4zM5.9 95.1c.3-.2.7-.3 1.1-.3v.8c-.5 0-1 .1-1.3.5s-.5.7-.6 1.3v2.8h-.7v-5.3h.8V96c.1-.4.4-.7.7-.9zM11.6 95.1c.4.2.7.5.9.9s.3.9.3 1.4c0 .5-.1 1-.3 1.4s-.5.7-.9.9-.9.3-1.4.3-1-.1-1.4-.3-.7-.5-.9-.9-.4-.8-.4-1.3.1-1 .3-1.4.5-.7.9-.9.9-.3 1.4-.3 1.1 0 1.5.2zm-2.4.7c-.3.2-.5.4-.7.7s-.2.6-.2 1 .1.7.2 1 .4.5.7.7.6.3 1 .3.7-.1 1-.3.5-.4.7-.7.2-.6.2-1-.1-.7-.2-1-.4-.5-.7-.7-.6-.2-1-.2c-.4-.1-.7 0-1 .2zM17.5 99.3c-.4.6-1.1.8-1.9.8-.4 0-.7-.1-.9-.2s-.5-.3-.6-.6-.2-.5-.2-.8c0-.5.2-.8.5-1.1s.8-.4 1.5-.4h1.7v-.3c0-.4-.1-.7-.4-.9s-.6-.3-1.1-.3c-.5 0-1.1.2-1.7.6l-.3-.6c.4-.2.7-.4 1-.5s.7-.2 1.1-.2c.6 0 1.1.2 1.5.5s.5.8.5 1.3v3.5h-.8v-.8zm-.6-.2c.3-.2.5-.5.6-.9v-.6h-1.6c-.9 0-1.3.3-1.3.8 0 .3.1.5.3.7s.5.3.9.3c.4.1.8 0 1.1-.3zM24.9 100.1h-.8V99c-.2.4-.5.7-.8.9s-.8.3-1.2.3c-.5 0-.9-.1-1.3-.3s-.7-.5-.9-.9-.3-.9-.3-1.4.1-1 .3-1.4.5-.7.9-.9.8-.3 1.3-.3.9.1 1.2.3.6.5.8.9v-3.3h.8v7.2zm-1.7-.9c.3-.2.5-.4.7-.7s.2-.6.2-1-.1-.7-.2-1-.4-.5-.7-.7-.6-.3-1-.3-.7.1-1 .3-.5.4-.7.7-.2.6-.2 1 .1.7.2 1 .4.5.7.7.6.3 1 .3.7-.1 1-.3zM35 95.3c.3.4.5.9.5 1.5v3.3h-.8v-3c0-.5-.1-.8-.4-1.1s-.6-.4-1.1-.4c-.5 0-1 .2-1.3.5s-.5.8-.5 1.4v2.6h-.8v-3c0-.5-.1-.8-.4-1.1s-.6-.4-1.1-.4c-.5 0-1 .2-1.3.5s-.5.8-.5 1.4v2.6h-.8v-5.3h.8V96c.2-.4.4-.7.8-.9s.8-.3 1.2-.3c.5 0 .9.1 1.2.4s.5.6.7 1c.2-.5.4-.8.8-1s.8-.3 1.3-.3c.9-.1 1.3.1 1.7.4zM40.5 99.3c-.4.6-1.1.8-1.9.8-.4 0-.7-.1-.9-.2s-.5-.3-.6-.6-.2-.5-.2-.8c0-.5.2-.8.5-1.1s.8-.4 1.5-.4h1.7v-.3c0-.4-.1-.7-.4-.9s-.6-.3-1.1-.3c-.5 0-1.1.2-1.7.6l-.3-.6c.4-.2.7-.4 1-.5s.7-.2 1.1-.2c.6 0 1.1.2 1.5.5s.5.8.5 1.3v3.5h-.8v-.8zm-.6-.2c.3-.2.5-.5.6-.9v-.6h-1.6c-.9 0-1.3.3-1.3.8 0 .3.1.5.3.7s.5.3.9.3c.4.1.8 0 1.1-.3zM47.2 95.1c.4.2.7.5.9.9s.3.9.3 1.4c0 .5-.1 1-.3 1.4s-.5.7-.9.9-.8.3-1.3.3-.9-.1-1.2-.3-.7-.4-.9-.7v3.1H43v-7.2h.8V96c.2-.4.5-.7.8-.9s.8-.3 1.2-.3c.6 0 1 .1 1.4.3zm-.5 4.1c.3-.2.5-.4.7-.7s.2-.6.2-1-.1-.7-.2-1-.4-.5-.7-.7-.6-.3-1-.3-.7.1-1 .2-.5.4-.7.7-.2.6-.2 1 .1.7.2 1 .4.5.7.7.6.3 1 .3.7-.1 1-.2zM55.8 99.3c-.4.6-1.1.8-1.9.8-.4 0-.7-.1-.9-.2s-.5-.3-.6-.6-.4-.5-.4-.8c0-.5.2-.8.5-1.1s.9-.4 1.5-.4h1.7v-.3c0-.4-.1-.7-.4-.9s-.6-.3-1.1-.3c-.5 0-1.1.2-1.7.6l-.3-.6c.4-.2.7-.4 1-.5s.7-.2 1.1-.2c.6 0 1.1.2 1.5.5s.5.8.5 1.3v3.5h-.8v-.8zm-.7-.2c.3-.2.5-.5.6-.9v-.6h-1.6c-.9 0-1.3.3-1.3.8 0 .3.1.5.3.7s.5.3.9.3c.4.1.8 0 1.1-.3zM62.6 95.3c.4.4.5.9.5 1.5v3.3h-.8v-3c0-.5-.1-.8-.4-1.1s-.6-.4-1.1-.4c-.5 0-.9.2-1.2.5s-.5.7-.5 1.2v2.8h-.8v-5.3h.7V96c.4-.8 1-1.2 2-1.2.7 0 1.2.2 1.6.5zM69.7 100.1h-.8V99c-.2.4-.5.7-.8.9s-.8.3-1.2.3c-.5 0-.9-.1-1.3-.3s-.7-.5-.9-.9-.3-.9-.3-1.4.1-1 .3-1.4.5-.7.9-.9.8-.3 1.3-.3.9.1 1.2.3.6.5.8.9v-3.3h.8v7.2zm-1.7-.9c.3-.2.5-.4.7-.7s.2-.6.2-1-.1-.7-.2-1-.4-.5-.7-.7-.6-.3-1-.3-.7.1-1 .3-.5.4-.7.7-.2.6-.2 1 .1.7.2 1 .4.5.7.7.6.3 1 .3.7-.1 1-.3zM79.2 100.1h-.8V99c-.2.4-.5.7-.8.9s-.8.3-1.2.3c-.5 0-.9-.1-1.3-.3s-.7-.5-.9-.9-.3-.9-.3-1.4.1-1 .3-1.4.5-.7.9-.9.8-.3 1.3-.3.9.1 1.2.3.6.5.8.9v-3.3h.8v7.2zm-1.7-.9c.3-.2.5-.4.7-.7s.2-.6.2-1-.1-.7-.2-1-.4-.5-.7-.7-.6-.3-1-.3-.7.1-1 .3-.5.4-.7.7-.2.6-.2 1 .1.7.2 1 .4.5.7.7.6.3 1 .3.7-.1 1-.3zM85.1 95.6c.4.5.6 1.3.6 2.2h-4.3c.1.5.3.9.6 1.2s.8.5 1.3.5c.3 0 .6-.1.9-.2s.5-.3.7-.5l.4.5c-.3.3-.6.5-.9.6s-.8.2-1.2.2c-.5 0-1-.1-1.4-.3s-.7-.5-.9-.9-.3-.9-.3-1.4.1-1 .3-1.4.5-.7.9-.9.9-.3 1.4-.3c.9-.1 1.5.2 1.9.7zm-.6.3c-.3-.3-.7-.4-1.2-.4s-.9.1-1.3.4-.5.7-.6 1.2H85c0-.5-.2-.9-.5-1.2zM89.3 94.9c.3.1.5.2.8.4l-.3.6c-.2-.1-.4-.2-.7-.3s-.5-.1-.7-.1c-.3 0-.6.1-.8.2s-.3.3-.3.5.1.3.2.4.2.2.4.3.4.1.7.2c.4.1.7.2.9.3s.4.3.6.5.2.5.2.8c0 .5-.2.9-.6 1.1s-.8.4-1.4.4c-.4 0-.8-.1-1.1-.2s-.7-.3-.9-.5l.3-.6c.2.2.5.4.8.5s.6.2.9.2c.3 0 .6-.1.8-.2s.3-.3.3-.6-.1-.4-.3-.6-.5-.2-.9-.4c-.4-.1-.7-.2-.9-.3s-.3-.3-.5-.5-.2-.5-.2-.8c0-.5.2-.8.5-1.1s.8-.4 1.3-.4c.3.1.6.1.9.2zM92.3 92.9c.1.1.1.2.1.4s0 .3-.1.4-.2.2-.4.2-.3-.1-.4-.2-.1-.2-.1-.4 0-.3.1-.4.2-.2.4-.2.3.1.4.2zm-.8 7.2v-5.3h.8v5.3h-.8zM98.8 99.5c0 .5-.1 1-.3 1.3s-.5.7-.9.9-.9.3-1.4.3c-.8 0-1.5-.3-2.2-.8l.4-.6c.3.2.5.4.8.5s.6.2.9.2c.6 0 1-.2 1.4-.5s.5-.8.5-1.3v-.8c-.2.4-.4.6-.8.8s-.7.3-1.2.3-.9-.1-1.2-.3-.6-.5-.8-.9-.3-.8-.3-1.3.1-.9.3-1.3.5-.7.8-.9.8-.3 1.2-.3c.4 0 .8.1 1.2.3s.6.5.8.8v-1.1h.8v4.7zm-1.6-.5c.3-.2.5-.4.6-.7s.2-.6.2-1-.1-.7-.2-1-.4-.5-.6-.7-.6-.2-.9-.2c-.3 0-.7.1-.9.2s-.5.4-.6.7-.2.6-.2 1 .1.7.2 1 .4.5.6.7.6.2.9.2c.3 0 .6-.1.9-.2zM104.9 95.3c.4.4.5.9.5 1.5v3.3h-.8v-3c0-.5-.1-.8-.4-1.1s-.6-.4-1.1-.4c-.5 0-.9.2-1.2.5s-.5.7-.5 1.2v2.8h-.8v-5.3h.8V96c.4-.8 1-1.2 2-1.2.6 0 1.1.2 1.5.5zM110.6 92.9c.1.1.1.2.1.4s0 .3-.1.4-.2.2-.4.2-.3-.1-.4-.2-.1-.2-.1-.4 0-.3.1-.4.2-.2.4-.2.3.1.4.2zm-.7 7.2v-5.3h.8v5.3h-.8zM120.7 95.3c.3.4.5.9.5 1.5v3.3h-.8v-3c0-.5-.1-.8-.4-1.1s-.6-.4-1.1-.4c-.5 0-1 .2-1.3.5s-.5.8-.5 1.4v2.6h-.8v-3c0-.5-.1-.8-.4-1.1s-.6-.4-1.1-.4c-.5 0-1 .2-1.3.5s-.5.8-.5 1.4v2.6h-.8v-5.3h.8V96c.2-.4.4-.7.8-.9s.8-.3 1.2-.3c.5 0 .9.1 1.2.4s.5.6.7 1c.2-.5.4-.8.8-1s.8-.3 1.3-.3c.9-.1 1.4.1 1.7.4zM127.1 95.1c.4.2.7.5.9.9.2.4.3.9.3 1.4 0 .5-.1 1-.3 1.4-.2.4-.5.7-.9.9-.4.2-.8.3-1.3.3s-.9-.1-1.2-.3c-.4-.2-.6-.5-.8-.9v3.1h-.8v-7.2h.8V96c.2-.4.5-.7.8-.9.3-.2.8-.3 1.2-.3.5 0 1 .1 1.3.3zm-.4 4.1c.3-.2.5-.4.7-.7.2-.3.2-.6.2-1s-.1-.7-.2-1c-.2-.3-.4-.5-.7-.7s-.6-.3-1-.3-.7.1-1 .2-.5.4-.7.7-.2.6-.2 1 .1.7.2 1 .4.5.7.7.6.3 1 .3c.3 0 .7-.1 1-.2zM129.8 100.1v-7.4h.8v7.4h-.8zM136.5 95.6c.4.5.6 1.3.6 2.2h-4.3c.1.5.3.9.6 1.2.3.3.8.5 1.3.5.3 0 .6-.1.9-.2s.5-.3.7-.5l.4.5c-.3.3-.6.5-.9.6-.4.2-.8.2-1.2.2-.5 0-1-.1-1.4-.3s-.7-.5-.9-.9c-.2-.4-.3-.9-.3-1.4s.1-1 .3-1.4c.2-.4.5-.7.9-.9s.9-.3 1.4-.3c.8-.1 1.5.2 1.9.7zm-.7.3c-.3-.3-.7-.4-1.2-.4s-.9.1-1.3.4c-.3.3-.5.7-.6 1.2h3.6c0-.5-.2-.9-.5-1.2zM146.6 95.3c.3.4.5.9.5 1.5v3.3h-.8v-3c0-.5-.1-.8-.4-1.1s-.6-.4-1.1-.4c-.5 0-1 .2-1.3.5-.3.4-.5.8-.5 1.4v2.6h-.8v-3c0-.5-.1-.8-.4-1.1s-.6-.4-1.1-.4c-.5 0-1 .2-1.3.5-.3.4-.5.8-.5 1.4v2.6h-.8v-5.3h.8V96c.2-.4.4-.7.8-.9.3-.2.8-.3 1.2-.3.5 0 .9.1 1.2.4s.5.6.7 1c.2-.5.4-.8.8-1 .4-.2.8-.3 1.3-.3.8-.1 1.3.1 1.7.4zM152.8 95.6c.4.5.6 1.3.6 2.2h-4.3c.1.5.3.9.6 1.2.3.3.8.5 1.3.5.3 0 .6-.1.9-.2s.5-.3.7-.5l.4.5c-.3.3-.6.5-.9.6-.4.2-.8.2-1.2.2-.5 0-1-.1-1.4-.3s-.7-.5-.9-.9c-.2-.4-.3-.9-.3-1.4s.1-1 .3-1.4c.2-.4.5-.7.9-.9s.9-.3 1.4-.3c.9-.1 1.5.2 1.9.7zm-.7.3c-.3-.3-.7-.4-1.2-.4s-.9.1-1.3.4c-.3.3-.5.7-.6 1.2h3.6c0-.5-.1-.9-.5-1.2zM159 95.3c.4.4.5.9.5 1.5v3.3h-.8v-3c0-.5-.1-.8-.4-1.1s-.6-.4-1.1-.4c-.5 0-.9.2-1.2.5s-.5.7-.5 1.2v2.8h-.8v-5.3h.8V96c.4-.8 1-1.2 2-1.2.6 0 1.1.2 1.5.5zM162.8 100.1c-.4 0-.7-.1-1-.4s-.4-.6-.4-1.1v-3h-.8V95h.8v-1.4h.8V95h1.7v.6h-1.7v2.9c0 .3.1.5.2.7s.3.2.5.2c.3 0 .6-.1.8-.3l.2.6c-.3.3-.7.4-1.1.4zM168.4 99.3c-.4.6-1.1.8-1.9.8-.4 0-.7-.1-.9-.2-.3-.1-.5-.3-.6-.6-.1-.2-.2-.5-.2-.8 0-.5.2-.8.5-1.1.3-.3.8-.4 1.5-.4h1.7v-.3c0-.4-.1-.7-.4-.9-.2-.2-.6-.3-1.1-.3-.5 0-1.1.2-1.7.6l-.3-.6c.4-.2.7-.4 1-.5s.7-.2 1.1-.2c.6 0 1.1.2 1.5.5.4.3.5.8.5 1.3v3.5h-.8v-.8zm-.6-.2c.3-.2.5-.5.6-.9v-.6h-1.6c-.9 0-1.3.3-1.3.8 0 .3.1.5.3.7.2.2.5.3.9.3.4.1.8 0 1.1-.3zM172.5 100.1c-.4 0-.7-.1-1-.4s-.4-.6-.4-1.1v-3h-.8V95h.8v-1.4h.8V95h1.7v.6h-1.7v2.9c0 .3.1.5.2.7s.3.2.5.2c.3 0 .6-.1.8-.3l.2.6c-.3.3-.7.4-1.1.4zM175.6 92.9c.1.1.1.2.1.4s0 .3-.1.4-.2.2-.4.2-.3-.1-.4-.2c-.1-.1-.1-.2-.1-.4s0-.3.1-.4c.1-.1.2-.2.4-.2s.3.1.4.2zm-.8 7.2v-5.3h.8v5.3h-.8zM181 95.1c.4.2.7.5.9.9s.3.9.3 1.4c0 .5-.1 1-.3 1.4s-.5.7-.9.9c-.4.2-.9.3-1.4.3s-1-.1-1.4-.3-.7-.5-.9-.9c-.2-.4-.3-.9-.3-1.4 0-.5.1-1 .3-1.4.2-.4.5-.7.9-.9s.9-.3 1.4-.3 1 .1 1.4.3zm-2.4.7c-.3.2-.5.4-.7.7s-.2.6-.2 1 .1.7.2 1 .4.5.7.7.6.3 1 .3.7-.1 1-.3.5-.4.7-.7.2-.6.2-1-.1-.7-.2-1-.4-.5-.7-.7c-.3-.2-.6-.2-1-.2-.3-.1-.7 0-1 .2zM188 95.3c.4.4.5.9.5 1.5v3.3h-.8v-3c0-.5-.1-.8-.4-1.1s-.6-.4-1.1-.4c-.5 0-.9.2-1.2.5s-.5.7-.5 1.2v2.8h-.8v-5.3h.8V96c.4-.8 1-1.2 2-1.2.6 0 1.1.2 1.5.5z"/><g fill="#0A0A0A"><path d="M587.3 71.3v1.1h-5.4v-9.8h1.1v8.7h4.3zM594.5 66.1c.6.7.9 1.8.8 3h-6c.1.7.4 1.3.9 1.7s1.1.6 1.8.6c.5 0 .9-.1 1.3-.2.4-.2.7-.4 1-.7l.6.6c-.4.4-.8.7-1.3.9-.5.2-1.1.3-1.7.3-.7 0-1.4-.2-1.9-.5-.6-.3-1-.8-1.3-1.3s-.5-1.2-.5-1.9.2-1.4.5-1.9c.3-.6.7-1 1.3-1.3s1.2-.5 1.9-.5c1.2.1 2 .5 2.6 1.2zm-.9.5c-.4-.4-1-.6-1.7-.6s-1.3.2-1.8.6c-.5.4-.7 1-.8 1.7h5c0-.8-.2-1.3-.7-1.7zM601.8 71.3c-.6.8-1.5 1.2-2.7 1.2-.5 0-.9-.1-1.3-.3-.4-.2-.7-.5-.9-.8-.2-.3-.3-.7-.3-1.2 0-.6.2-1.2.7-1.5s1.2-.6 2-.6h2.4v-.4c0-.6-.2-1-.5-1.3s-.8-.4-1.5-.4-1.5.3-2.3.8l-.4-.8c.5-.3 1-.6 1.4-.8.4-.2 1-.2 1.6-.2.9 0 1.6.2 2.1.7.5.4.7 1.1.7 1.9v4.9h-1.1v-1.2zm-.9-.2c.4-.3.7-.7.9-1.2V69h-2.3c-1.2 0-1.9.4-1.9 1.2 0 .4.2.7.5 1s.7.4 1.2.4c.6-.1 1.1-.2 1.6-.5zM612 72.4h-1v-1.6c-.3.5-.7.9-1.2 1.2-.5.3-1.1.4-1.7.4-.7 0-1.3-.2-1.8-.5s-1-.8-1.3-1.3c-.3-.6-.4-1.2-.4-1.9s.1-1.4.4-1.9c.3-.6.7-1 1.3-1.3.5-.3 1.2-.5 1.8-.5.7 0 1.2.1 1.7.4.5.3.9.7 1.2 1.2V62h1.1v10.4zm-2.3-1.3c.4-.2.7-.6.9-1 .2-.4.3-.9.3-1.4 0-.5-.1-1-.3-1.4-.2-.4-.5-.7-.9-1-.4-.2-.9-.4-1.4-.4-.5 0-1 .1-1.4.4-.4.2-.7.6-1 1-.2.4-.3.9-.3 1.4 0 .5.1 1 .3 1.4.2.4.5.7 1 1 .4.2.9.4 1.4.4.5 0 1-.1 1.4-.4zM618 65.2c.4.1.8.3 1.1.5l-.4.9c-.3-.2-.6-.3-1-.4s-.7-.2-1-.2c-.4 0-.8.1-1.1.2s-.4.4-.4.7c0 .2.1.4.2.6s.3.3.6.4.5.2.9.3c.5.2.9.3 1.3.5s.6.4.8.7c.2.3.3.7.3 1.1 0 .7-.3 1.2-.8 1.6-.5.4-1.2.5-1.9.5-.5 0-1.1-.1-1.6-.3-.5-.2-.9-.4-1.3-.8l.4-.8c.3.3.7.5 1.1.7.4.2.9.3 1.3.3.5 0 .8-.1 1.1-.3s.4-.5.4-.8-.1-.6-.4-.8c-.3-.2-.7-.3-1.3-.5-.5-.2-.9-.3-1.2-.4-.3-.1-.6-.3-.8-.6-.2-.3-.3-.6-.3-1.1 0-.7.2-1.2.7-1.5s1.1-.5 1.8-.5c.7-.2 1.1-.2 1.5 0zM629.5 65.3c.5.2.9.5 1.2.8l-.6.8c-.6-.6-1.3-.9-2.2-.9-.5 0-1 .1-1.4.3s-.7.5-.9 1c-.2.4-.3.9-.3 1.4 0 .5.1 1 .3 1.4.2.4.5.7.9 1s.8.4 1.4.4c.5 0 .9-.1 1.3-.2.4-.2.7-.4 1-.7l.6.7c-.3.4-.8.7-1.3.9-.5.2-1.1.3-1.7.3-.7 0-1.3-.2-1.9-.5-.6-.3-1-.8-1.3-1.3-.3-.6-.5-1.2-.5-1.9s.2-1.4.5-1.9c.3-.6.8-1 1.3-1.3.6-.3 1.2-.5 1.9-.5.7-.1 1.2 0 1.7.2zM637.4 65.5c.6.3 1 .8 1.3 1.3.3.6.5 1.2.5 1.9s-.2 1.4-.5 1.9c-.3.6-.8 1-1.3 1.3s-1.2.5-1.9.5-1.4-.2-1.9-.5c-.6-.3-1-.8-1.3-1.3-.3-.6-.5-1.2-.5-1.9s.2-1.4.5-1.9c.3-.6.8-1 1.3-1.3.6-.3 1.2-.5 1.9-.5s1.3.2 1.9.5zm-3.3.8c-.4.2-.7.6-.9 1-.2.4-.3.9-.3 1.4 0 .5.1 1 .3 1.4.2.4.5.7.9 1 .4.2.9.4 1.4.4s1-.1 1.4-.4c.4-.2.7-.6.9-1 .2-.4.3-.9.3-1.4s-.1-1-.3-1.4c-.2-.4-.5-.7-.9-1-.4-.2-.9-.3-1.4-.3-.6 0-1 .1-1.4.3zM647.1 65.7c.5.5.7 1.2.7 2.1v4.6h-1.1v-4.3c0-.7-.2-1.2-.6-1.5s-.9-.5-1.5-.5c-.7 0-1.3.2-1.7.7-.4.4-.7 1-.8 1.7v4H641V65h1.1v1.6c.5-1.1 1.5-1.6 2.9-1.7.9.1 1.6.3 2.1.8zM651.6 72.4l-2.9-7.4h1.2l2.4 6.2 2.3-6.2h1.1l-2.9 7.4h-1.2zM662.2 66.1c.6.7.9 1.8.8 3h-6c.1.7.4 1.3.9 1.7s1.1.6 1.8.6c.5 0 .9-.1 1.3-.2.4-.2.7-.4 1-.7l.6.6c-.4.4-.8.7-1.3.9-.5.2-1.1.3-1.7.3-.7 0-1.4-.2-1.9-.5-.6-.3-1-.8-1.3-1.3s-.5-1.2-.5-1.9.2-1.4.5-1.9c.3-.6.7-1 1.3-1.3s1.2-.5 1.9-.5c1.2.1 2.1.5 2.6 1.2zm-.9.5c-.4-.4-1-.6-1.7-.6s-1.3.2-1.8.6c-.5.4-.7 1-.8 1.7h5c0-.8-.2-1.3-.7-1.7zM667 65.4c.4-.3 1-.4 1.6-.4v1.1c-.8 0-1.4.2-1.8.6s-.7 1-.8 1.8v3.9h-1.1V65h1.1v1.6c.3-.5.6-.9 1-1.2zM673.4 65.2c.4.1.8.3 1.1.5l-.4.9c-.3-.2-.6-.3-1-.4s-.7-.2-1-.2c-.4 0-.8.1-1.1.2s-.4.4-.4.7c0 .2.1.4.2.6s.3.3.6.4.5.2.9.3c.5.2.9.3 1.3.5s.6.4.8.7c.2.3.3.7.3 1.1 0 .7-.3 1.2-.8 1.6-.5.4-1.2.5-1.9.5-.5 0-1.1-.1-1.6-.3-.5-.2-.9-.4-1.3-.8l.4-.8c.3.3.7.5 1.1.7.4.2.9.3 1.3.3.5 0 .8-.1 1.1-.3s.4-.5.4-.8-.1-.6-.4-.8c-.3-.2-.7-.3-1.3-.5-.5-.2-.9-.3-1.2-.4-.3-.1-.6-.3-.8-.6-.2-.3-.3-.6-.3-1.1 0-.7.2-1.2.7-1.5s1.1-.5 1.8-.5c.6-.2 1-.2 1.5 0zM677.5 62.4c.1.1.2.3.2.5s-.1.4-.2.5-.3.2-.5.2-.4-.1-.5-.2c-.1-.1-.2-.3-.2-.5s.1-.4.2-.5c.1-.1.3-.2.5-.2s.4 0 .5.2zm-1 10V65h1.1v7.4h-1.1zM685.1 65.5c.6.3 1 .8 1.3 1.3.3.6.5 1.2.5 1.9s-.2 1.4-.5 1.9c-.3.6-.8 1-1.3 1.3s-1.2.5-1.9.5-1.4-.2-1.9-.5c-.6-.3-1-.8-1.3-1.3-.3-.6-.5-1.2-.5-1.9s.2-1.4.5-1.9c.3-.6.8-1 1.3-1.3.6-.3 1.2-.5 1.9-.5s1.3.2 1.9.5zm-3.3.8c-.4.2-.7.6-.9 1-.2.4-.3.9-.3 1.4 0 .5.1 1 .3 1.4.2.4.5.7.9 1 .4.2.9.4 1.4.4s1-.1 1.4-.4c.4-.2.7-.6.9-1 .2-.4.3-.9.3-1.4s-.1-1-.3-1.4c-.2-.4-.5-.7-.9-1-.4-.2-.9-.3-1.4-.3-.5 0-1 .1-1.4.3zM694.8 65.7c.5.5.7 1.2.7 2.1v4.6h-1.1v-4.3c0-.7-.2-1.2-.6-1.5s-.9-.5-1.5-.5c-.7 0-1.3.2-1.7.7-.4.4-.7 1-.8 1.7v4h-1.1V65h1.1v1.6c.5-1.1 1.5-1.6 2.9-1.7 1 .1 1.6.3 2.1.8zM582.1 82.6l-.8 1.8h-.8l3.1-7h.8l3.1 7h-.9l-.8-1.8h-3.7zm1.9-4.3l-1.6 3.5h3.1l-1.5-3.5zM589.5 84.4l-2.1-5.3h.8l1.7 4.5 1.7-4.5h.8l-2.1 5.3h-.8zM597.1 79.9c.4.5.6 1.3.6 2.2h-4.3c.1.5.3.9.6 1.2s.8.5 1.3.5c.3 0 .6-.1.9-.2.3-.1.5-.3.7-.5l.4.5c-.3.3-.6.5-.9.6-.4.2-.8.2-1.2.2-.5 0-1-.1-1.4-.3-.4-.2-.7-.5-.9-.9s-.3-.9-.3-1.4.1-1 .3-1.4c.2-.4.5-.7.9-.9s.9-.3 1.4-.3c.9-.1 1.5.2 1.9.7zm-.6.3c-.3-.3-.7-.4-1.2-.4s-.9.1-1.3.4c-.3.3-.5.7-.6 1.2h3.6c0-.5-.2-.9-.5-1.2zM600.5 79.4c.3-.2.7-.3 1.1-.3v.8c-.5 0-1 .1-1.3.5s-.5.7-.6 1.3v2.8h-.7v-5.3h.8v1.2c.2-.5.4-.8.7-1zM605.8 83.6c-.4.6-1.1.8-1.9.8-.4 0-.7-.1-.9-.2-.3-.1-.5-.3-.6-.6-.1-.2-.2-.5-.2-.8 0-.5.2-.8.5-1.1s.8-.4 1.5-.4h1.7V81c0-.4-.1-.7-.4-.9s-.6-.3-1.1-.3c-.5 0-1.1.2-1.7.6l-.3-.6c.4-.2.7-.4 1-.5.3-.1.7-.2 1.1-.2.6 0 1.1.2 1.5.5.4.3.5.8.5 1.3v3.5h-.8v-.8zm-.7-.2c.3-.2.5-.5.6-.9v-.6h-1.6c-.9 0-1.3.3-1.3.8 0 .3.1.5.3.7s.5.3.9.3c.4.1.8 0 1.1-.3zM612.8 83.8c0 .5-.1 1-.3 1.3-.2.4-.5.7-.9.9-.4.2-.9.3-1.4.3-.8 0-1.5-.3-2.2-.8l.4-.6c.3.2.5.4.8.5.3.1.6.2.9.2.6 0 1-.2 1.4-.5s.5-.8.5-1.3V83c-.2.4-.4.6-.8.8-.3.2-.7.3-1.2.3s-.9-.1-1.2-.3c-.4-.2-.6-.5-.9-.9-.2-.4-.3-.8-.3-1.3s.1-.9.3-1.3.5-.7.8-.9c.4-.2.8-.3 1.2-.3.4 0 .8.1 1.2.3.3.2.6.5.8.8v-1.1h.8v4.7zm-1.6-.5c.3-.2.5-.4.6-.7.2-.3.2-.6.2-1s-.1-.7-.2-1c-.2-.3-.4-.5-.6-.7s-.6-.2-.9-.2c-.3 0-.7.1-.9.2s-.5.4-.6.7-.2.6-.2 1 .1.7.2 1 .4.5.6.7.6.2.9.2c.3 0 .6-.1.9-.2zM618.6 79.9c.4.5.6 1.3.6 2.2h-4.3c.1.5.3.9.6 1.2s.8.5 1.3.5c.3 0 .6-.1.9-.2.3-.1.5-.3.7-.5l.4.5c-.3.3-.6.5-.9.6-.4.2-.8.2-1.2.2-.5 0-1-.1-1.4-.3-.4-.2-.7-.5-.9-.9s-.3-.9-.3-1.4.1-1 .3-1.4c.2-.4.5-.7.9-.9s.9-.3 1.4-.3c.8-.1 1.5.2 1.9.7zm-.7.3c-.3-.3-.7-.4-1.2-.4s-.9.1-1.3.4c-.3.3-.5.7-.6 1.2h3.6c0-.5-.1-.9-.5-1.2zM620.9 83.6c.1.1.1.2.1.4 0 .1-.1.3-.2.4l-.5.7h-.3l.3-.7c-.1-.1-.2-.2-.2-.4 0-.1 0-.3.1-.4.1-.1.2-.1.3-.1.2 0 .3 0 .4.1zM628.5 83.6c-.4.6-1.1.8-1.9.8-.4 0-.7-.1-.9-.2-.3-.1-.5-.3-.6-.6-.1-.2-.2-.5-.2-.8 0-.5.2-.8.5-1.1s.8-.4 1.5-.4h1.7V81c0-.4-.1-.7-.4-.9s-.6-.3-1.1-.3c-.5 0-1.1.2-1.7.6l-.3-.6c.4-.2.7-.4 1-.5.3-.1.7-.2 1.1-.2.6 0 1.1.2 1.5.5.4.3.5.8.5 1.3v3.5h-.8v-.8zm-.7-.2c.3-.2.5-.5.6-.9v-.6h-1.6c-.9 0-1.3.3-1.3.8 0 .3.1.5.3.7s.5.3.9.3c.4.1.8 0 1.1-.3zM632.2 77.9c-.2.2-.3.4-.3.7v.7h1.5v.6h-1.5v4.5h-.8v-4.5h-.7v-.6h.7v-.6c0-.4.1-.7.2-1 .2-.3.4-.5.6-.6.3-.1.5-.2.8-.2.4 0 .8.1 1.1.4l-.3.6c-.3-.2-.5-.3-.8-.3-.1.1-.4.2-.5.3zM635.8 84.4c-.4 0-.7-.1-1-.4s-.4-.6-.4-1.1v-3h-.8v-.6h.8v-1.4h.8v1.4h1.7v.6h-1.7v2.9c0 .3.1.5.2.7s.3.2.5.2c.3 0 .6-.1.8-.3l.3.6c-.4.3-.8.4-1.2.4zM642.1 79.9c.4.5.6 1.3.6 2.2h-4.3c.1.5.3.9.6 1.2s.8.5 1.3.5c.3 0 .6-.1.9-.2.3-.1.5-.3.7-.5l.4.5c-.3.3-.6.5-.9.6-.4.2-.8.2-1.2.2-.5 0-1-.1-1.4-.3-.4-.2-.7-.5-.9-.9s-.3-.9-.3-1.4.1-1 .3-1.4c.2-.4.5-.7.9-.9s.9-.3 1.4-.3c.8-.1 1.4.2 1.9.7zm-.7.3c-.3-.3-.7-.4-1.2-.4s-.9.1-1.3.4c-.3.3-.5.7-.6 1.2h3.6c0-.5-.2-.9-.5-1.2zM645.5 79.4c.3-.2.7-.3 1.1-.3v.8c-.5 0-1 .1-1.3.5s-.5.7-.6 1.3v2.8h-.7v-5.3h.8v1.2c.1-.5.4-.8.7-1zM655 83.8c0 .5-.1 1-.3 1.3-.2.4-.5.7-.9.9-.4.2-.9.3-1.4.3-.8 0-1.5-.3-2.2-.8l.4-.6c.3.2.5.4.8.5.3.1.6.2.9.2.6 0 1-.2 1.4-.5s.5-.8.5-1.3V83c-.2.4-.4.6-.8.8-.3.2-.7.3-1.2.3s-.9-.1-1.2-.3c-.4-.2-.6-.5-.9-.9-.2-.4-.3-.8-.3-1.3s.1-.9.3-1.3.5-.7.8-.9c.4-.2.8-.3 1.2-.3.4 0 .8.1 1.2.3.3.2.6.5.8.8v-1.1h.8v4.7zm-1.6-.5c.3-.2.5-.4.6-.7.2-.3.2-.6.2-1s-.1-.7-.2-1c-.2-.3-.4-.5-.6-.7s-.6-.2-.9-.2c-.3 0-.7.1-.9.2s-.5.4-.6.7-.2.6-.2 1 .1.7.2 1 .4.5.6.7.6.2.9.2c.3 0 .6-.1.9-.2zM658.3 79.4c.3-.2.7-.3 1.1-.3v.8c-.5 0-1 .1-1.3.5s-.5.7-.6 1.3v2.8h-.8v-5.3h.8v1.2c.2-.5.5-.8.8-1zM664 79.4c.4.2.7.5 1 .9.2.4.3.9.3 1.4 0 .5-.1 1-.3 1.4-.2.4-.5.7-1 .9s-.9.3-1.4.3c-.5 0-1-.1-1.4-.3-.4-.2-.7-.5-1-.9-.2-.4-.3-.9-.3-1.4 0-.5.1-1 .3-1.4.2-.4.5-.7 1-.9.4-.2.9-.3 1.4-.3.5 0 1 .1 1.4.3zm-2.3.7c-.3.2-.5.4-.7.7-.2.3-.2.6-.2 1s.1.7.2 1c.2.3.4.5.7.7.3.2.6.3 1 .3s.7-.1 1-.3c.3-.2.5-.4.7-.7.2-.3.2-.6.2-1s-.1-.7-.2-1c-.2-.3-.4-.5-.7-.7-.3-.2-.6-.2-1-.2-.4-.1-.8 0-1 .2zM671.5 84.4l-1.5-4.3-1.5 4.3h-.8l-2-5.3h.8l1.6 4.5 1.5-4.5h.8l1.5 4.5 1.5-4.5h.8l-2 5.3h-.7zM676.7 84.4c-.4 0-.7-.1-1-.4s-.4-.6-.4-1.1v-3h-.8v-.6h.8v-1.4h.8v1.4h1.7v.6h-1.7v2.9c0 .3.1.5.2.7s.3.2.5.2c.3 0 .6-.1.8-.3l.2.6c-.3.3-.7.4-1.1.4zM683.4 79.6c.4.4.5.9.5 1.5v3.3h-.8v-3c0-.5-.1-.8-.4-1.1s-.6-.4-1.1-.4c-.6 0-1 .2-1.3.5-.3.4-.5.8-.5 1.4v2.6h-.8V77h.8v3.3c.3-.8 1-1.2 2-1.2.7 0 1.2.2 1.6.5zM693.2 84.4h-.8v-1.1c-.2.4-.5.7-.8.9-.3.2-.8.3-1.2.3-.5 0-.9-.1-1.3-.3s-.7-.5-.9-.9c-.2-.4-.3-.9-.3-1.4s.1-1 .3-1.4c.2-.4.5-.7.9-.9.4-.2.8-.3 1.3-.3s.9.1 1.2.3c.4.2.6.5.8.9V77h.8v7.4zm-1.7-.9c.3-.2.5-.4.7-.7.2-.3.2-.6.2-1s-.1-.7-.2-1c-.2-.3-.4-.5-.7-.7-.3-.2-.6-.3-1-.3s-.7.1-1 .3c-.3.2-.5.4-.7.7-.2.3-.2.6-.2 1s.1.7.2 1c.2.3.4.5.7.7.3.2.6.3 1 .3.4-.1.7-.1 1-.3zM699.1 79.9c.4.5.6 1.3.6 2.2h-4.3c.1.5.3.9.6 1.2s.8.5 1.3.5c.3 0 .6-.1.9-.2.3-.1.5-.3.7-.5l.4.5c-.3.3-.6.5-.9.6-.4.2-.8.2-1.2.2-.5 0-1-.1-1.4-.3-.4-.2-.7-.5-.9-.9s-.3-.9-.3-1.4.1-1 .3-1.4c.2-.4.5-.7.9-.9s.9-.3 1.4-.3c.9-.1 1.5.2 1.9.7zm-.6.3c-.3-.3-.7-.4-1.2-.4s-.9.1-1.3.4c-.3.3-.5.7-.6 1.2h3.6c0-.5-.2-.9-.5-1.2zM703.4 79.2c.3.1.5.2.8.4l-.3.6c-.2-.1-.4-.2-.7-.3s-.5-.1-.7-.1c-.3 0-.6.1-.8.2s-.3.3-.3.5.1.3.2.4.2.2.4.3.4.1.7.2c.4.1.7.2.9.3s.4.3.6.5c.2.2.2.5.2.8 0 .5-.2.9-.6 1.1-.4.3-.8.4-1.4.4-.4 0-.8-.1-1.1-.2-.4-.1-.7-.3-.9-.5l.3-.6c.2.2.5.4.8.5.3.1.6.2.9.2.3 0 .6-.1.8-.2s.3-.3.3-.6-.1-.4-.3-.6c-.2-.1-.5-.2-.9-.4-.4-.1-.7-.2-.9-.3-.2-.1-.4-.2-.6-.4-.2-.2-.2-.5-.2-.8 0-.5.2-.8.5-1.1s.8-.4 1.3-.4c.4 0 .7 0 1 .1zM706.3 77.2c.1.1.1.2.1.4s0 .3-.1.4-.2.2-.4.2-.3-.1-.4-.2c-.1-.1-.1-.2-.1-.4s0-.3.1-.4c.1-.1.2-.2.4-.2s.3.1.4.2zm-.7 7.2v-5.3h.8v5.3h-.8zM712.8 83.8c0 .5-.1 1-.3 1.3-.2.4-.5.7-.9.9-.4.2-.9.3-1.4.3-.8 0-1.5-.3-2.2-.8l.4-.6c.3.2.5.4.8.5.3.1.6.2.9.2.6 0 1-.2 1.4-.5s.5-.8.5-1.3V83c-.2.4-.4.6-.8.8-.3.2-.7.3-1.2.3s-.9-.1-1.2-.3c-.4-.2-.6-.5-.9-.9-.2-.4-.3-.8-.3-1.3s.1-.9.3-1.3.5-.7.8-.9c.4-.2.8-.3 1.2-.3.4 0 .8.1 1.2.3.3.2.6.5.8.8v-1.1h.8v4.7zm-1.6-.5c.3-.2.5-.4.6-.7.2-.3.2-.6.2-1s-.1-.7-.2-1c-.2-.3-.4-.5-.6-.7s-.6-.2-.9-.2c-.3 0-.7.1-.9.2s-.5.4-.6.7-.2.6-.2 1 .1.7.2 1 .4.5.6.7.6.2.9.2c.3 0 .6-.1.9-.2zM718.9 79.6c.4.4.5.9.5 1.5v3.3h-.8v-3c0-.5-.1-.8-.4-1.1s-.6-.4-1.1-.4c-.5 0-.9.2-1.2.5-.3.3-.5.7-.5 1.2v2.8h-.8v-5.3h.8v1.2c.4-.8 1-1.2 2-1.2.6 0 1.1.2 1.5.5zM583.7 91.2c.3.1.5.2.8.4l-.3.6c-.2-.1-.4-.2-.7-.3s-.5-.1-.7-.1c-.3 0-.6.1-.8.2s-.3.3-.3.5.1.3.2.4.2.2.4.3.4.1.7.2c.4.1.7.2.9.3s.4.3.6.5c.2.2.2.5.2.8 0 .5-.2.9-.6 1.1-.4.3-.8.4-1.4.4-.4 0-.8-.1-1.1-.2-.4-.1-.7-.3-.9-.5l.3-.6c.2.2.5.4.8.5.3.1.6.2.9.2.3 0 .6-.1.8-.2s.3-.3.3-.6-.1-.4-.3-.6c-.2-.1-.5-.2-.9-.4-.4-.1-.7-.2-.9-.3-.2-.1-.4-.2-.6-.4-.2-.2-.2-.5-.2-.8 0-.5.2-.8.5-1.1s.8-.4 1.3-.4c.4 0 .7 0 1 .1zM587.4 96.4c-.4 0-.7-.1-1-.4s-.4-.6-.4-1.1v-3h-.8v-.6h.8v-1.4h.8v1.4h1.7v.6h-1.7v2.9c0 .3.1.5.2.7s.3.2.5.2c.3 0 .6-.1.8-.3l.2.6c-.3.3-.7.4-1.1.4zM591.3 91.4c.3-.2.7-.3 1.1-.3v.8c-.5 0-1 .1-1.3.5s-.5.7-.6 1.3v2.8h-.8v-5.3h.8v1.2c.2-.5.5-.8.8-1zM596.5 95.6c-.4.6-1.1.8-1.9.8-.4 0-.7-.1-.9-.2-.3-.1-.5-.3-.6-.6-.1-.2-.2-.5-.2-.8 0-.5.2-.8.5-1.1s.8-.4 1.5-.4h1.7V93c0-.4-.1-.7-.4-.9s-.6-.3-1.1-.3c-.5 0-1.1.2-1.7.6l-.3-.6c.4-.2.7-.4 1-.5.3-.1.7-.2 1.1-.2.6 0 1.1.2 1.5.5.4.3.5.8.5 1.3v3.5h-.8v-.8zm-.6-.2c.3-.2.5-.5.6-.9v-.6h-1.6c-.9 0-1.3.3-1.3.8 0 .3.1.5.3.7s.5.3.9.3c.4.1.8 0 1.1-.3zM600.5 96.4c-.4 0-.7-.1-1-.4s-.4-.6-.4-1.1v-3h-.8v-.6h.8v-1.4h.8v1.4h1.7v.6H600v2.9c0 .3.1.5.2.7s.3.2.5.2c.3 0 .6-.1.8-.3l.2.6c-.4.3-.7.4-1.2.4zM606.8 91.9c.4.5.6 1.3.6 2.2h-4.3c.1.5.3.9.6 1.2s.8.5 1.3.5c.3 0 .6-.1.9-.2.3-.1.5-.3.7-.5l.4.5c-.3.3-.6.5-.9.6-.4.2-.8.2-1.2.2-.5 0-1-.1-1.4-.3-.4-.2-.7-.5-.9-.9s-.3-.9-.3-1.4.1-1 .3-1.4c.2-.4.5-.7.9-.9s.9-.3 1.4-.3c.9-.1 1.5.2 1.9.7zm-.7.3c-.3-.3-.7-.4-1.2-.4s-.9.1-1.3.4c-.3.3-.5.7-.6 1.2h3.6c0-.5-.1-.9-.5-1.2zM613.3 95.8c0 .5-.1 1-.3 1.3-.2.4-.5.7-.9.9-.4.2-.9.3-1.4.3-.8 0-1.5-.3-2.2-.8l.4-.6c.3.2.5.4.8.5.3.1.6.2.9.2.6 0 1-.2 1.4-.5s.5-.8.5-1.3V95c-.2.4-.4.6-.8.8-.3.2-.7.3-1.2.3s-.9-.1-1.2-.3c-.4-.2-.6-.5-.9-.9-.2-.4-.3-.8-.3-1.3s.1-.9.3-1.3.5-.7.8-.9c.4-.2.8-.3 1.2-.3.4 0 .8.1 1.2.3.3.2.6.5.8.8v-1.1h.8v4.7zm-1.7-.5c.3-.2.5-.4.6-.7.2-.3.2-.6.2-1s-.1-.7-.2-1c-.2-.3-.4-.5-.6-.7s-.6-.2-.9-.2c-.3 0-.7.1-.9.2s-.5.4-.6.7-.2.6-.2 1 .1.7.2 1 .4.5.6.7.6.2.9.2c.4 0 .7-.1.9-.2zM616.1 98.1c-.3.2-.6.3-.9.3-.4 0-.8-.1-1.1-.4l.3-.6c.2.2.5.2.7.2.2 0 .4-.1.6-.2.2-.1.3-.3.4-.6l.2-.5-2.2-5.2h.8l1.7 4.4 1.7-4.4h.8l-2.4 6c-.1.5-.3.8-.6 1zM623.6 89.2c.1.1.1.2.1.4s0 .3-.1.4-.2.2-.4.2-.3-.1-.4-.2c-.1-.1-.1-.2-.1-.4s0-.3.1-.4c.1-.1.2-.2.4-.2s.3.1.4.2zm-.8 7.2v-5.3h.8v5.3h-.8zM633.7 91.6c.3.4.5.9.5 1.5v3.3h-.8v-3c0-.5-.1-.8-.4-1.1-.3-.3-.6-.4-1.1-.4-.5 0-1 .2-1.3.5-.3.4-.5.8-.5 1.4v2.6h-.8v-3c0-.5-.1-.8-.4-1.1-.3-.3-.6-.4-1.1-.4-.5 0-1 .2-1.3.5-.3.4-.5.8-.5 1.4v2.6h-.8v-5.3h.8v1.2c.2-.4.4-.7.8-.9.3-.2.8-.3 1.2-.3.5 0 .9.1 1.2.4.3.2.5.6.7 1 .2-.5.4-.8.8-1s.8-.3 1.3-.3c.8-.1 1.3.1 1.7.4zM640.1 91.4c.4.2.7.5.9.9.2.4.3.9.3 1.4 0 .5-.1 1-.3 1.4s-.5.7-.9.9c-.4.2-.8.3-1.3.3s-.9-.1-1.2-.3c-.3-.2-.6-.5-.8-.9v3.1h-.8V91h.8v1.1c.2-.4.5-.7.8-.9.4-.2.8-.3 1.2-.3.5.2.9.3 1.3.5zm-.5 4.1c.3-.2.5-.4.7-.7s.2-.6.2-1-.1-.7-.2-1-.4-.5-.7-.7c-.3-.2-.6-.3-1-.3s-.7.1-1 .2c-.3.2-.5.4-.7.7-.2.3-.2.6-.2 1s.1.7.2 1c.2.3.4.5.7.7.3.2.6.3 1 .3s.7-.1 1-.2zM642.7 96.4V89h.8v7.4h-.8zM649.4 91.9c.4.5.6 1.3.6 2.2h-4.3c.1.5.3.9.6 1.2s.8.5 1.3.5c.3 0 .6-.1.9-.2.3-.1.5-.3.7-.5l.4.5c-.3.3-.6.5-.9.6-.4.2-.8.2-1.2.2-.5 0-1-.1-1.4-.3-.4-.2-.7-.5-.9-.9s-.3-.9-.3-1.4.1-1 .3-1.4c.2-.4.5-.7.9-.9s.9-.3 1.4-.3c.9-.1 1.5.2 1.9.7zm-.6.3c-.3-.3-.7-.4-1.2-.4s-.9.1-1.3.4c-.3.3-.5.7-.6 1.2h3.6c0-.5-.2-.9-.5-1.2zM659.5 91.6c.3.4.5.9.5 1.5v3.3h-.8v-3c0-.5-.1-.8-.4-1.1-.3-.3-.6-.4-1.1-.4-.5 0-1 .2-1.3.5-.3.4-.5.8-.5 1.4v2.6h-.8v-3c0-.5-.1-.8-.4-1.1-.3-.3-.6-.4-1.1-.4-.5 0-1 .2-1.3.5-.3.4-.5.8-.5 1.4v2.6h-.8v-5.3h.8v1.2c.2-.4.4-.7.8-.9.3-.2.8-.3 1.2-.3.5 0 .9.1 1.2.4.3.2.5.6.7 1 .2-.5.4-.8.8-1s.8-.3 1.3-.3c.9-.1 1.4.1 1.7.4zM665.8 91.9c.4.5.6 1.3.6 2.2H662c.1.5.3.9.6 1.2s.8.5 1.3.5c.3 0 .6-.1.9-.2.3-.1.5-.3.7-.5l.4.5c-.3.3-.6.5-.9.6-.4.2-.8.2-1.2.2-.5 0-1-.1-1.4-.3-.4-.2-.7-.5-.9-.9s-.3-.9-.3-1.4.1-1 .3-1.4c.2-.4.5-.7.9-.9s.9-.3 1.4-.3c.9-.1 1.5.2 2 .7zm-.7.3c-.3-.3-.7-.4-1.2-.4s-.9.1-1.3.4c-.3.3-.5.7-.6 1.2h3.6c0-.5-.2-.9-.5-1.2zM672 91.6c.4.4.5.9.5 1.5v3.3h-.8v-3c0-.5-.1-.8-.4-1.1s-.6-.4-1.1-.4c-.5 0-.9.2-1.2.5-.3.3-.5.7-.5 1.2v2.8h-.8v-5.3h.8v1.2c.4-.8 1-1.2 2-1.2.6 0 1.1.2 1.5.5zM675.7 96.4c-.4 0-.7-.1-1-.4s-.4-.6-.4-1.1v-3h-.8v-.6h.8v-1.4h.8v1.4h1.7v.6h-1.7v2.9c0 .3.1.5.2.7s.3.2.5.2c.3 0 .6-.1.8-.3l.2.6c-.2.3-.6.4-1.1.4zM681.4 95.6c-.4.6-1.1.8-1.9.8-.4 0-.7-.1-.9-.2-.3-.1-.5-.3-.6-.6-.1-.2-.2-.5-.2-.8 0-.5.2-.8.5-1.1s.8-.4 1.5-.4h1.7V93c0-.4-.1-.7-.4-.9s-.6-.3-1.1-.3c-.5 0-1.1.2-1.7.6l-.3-.6c.4-.2.7-.4 1-.5.3-.1.7-.2 1.1-.2.6 0 1.1.2 1.5.5.4.3.5.8.5 1.3v3.5h-.8v-.8zm-.7-.2c.3-.2.5-.5.6-.9v-.6h-1.6c-.9 0-1.3.3-1.3.8 0 .3.1.5.3.7s.5.3.9.3c.4.1.8 0 1.1-.3zM685.4 96.4c-.4 0-.7-.1-1-.4s-.4-.6-.4-1.1v-3h-.8v-.6h.8v-1.4h.8v1.4h1.7v.6h-1.7v2.9c0 .3.1.5.2.7s.3.2.5.2c.3 0 .6-.1.8-.3l.2.6c-.3.3-.7.4-1.1.4zM688.5 89.2c.1.1.1.2.1.4s0 .3-.1.4-.2.2-.4.2-.3-.1-.4-.2c-.1-.1-.1-.2-.1-.4s0-.3.1-.4c.1-.1.2-.2.4-.2s.3.1.4.2zm-.7 7.2v-5.3h.8v5.3h-.8zM694 91.4c.4.2.7.5 1 .9.2.4.3.9.3 1.4 0 .5-.1 1-.3 1.4-.2.4-.5.7-1 .9s-.9.3-1.4.3c-.5 0-1-.1-1.4-.3-.4-.2-.7-.5-1-.9-.2-.4-.3-.9-.3-1.4 0-.5.1-1 .3-1.4.2-.4.5-.7 1-.9.4-.2.9-.3 1.4-.3.5 0 1 .1 1.4.3zm-2.4.7c-.3.2-.5.4-.7.7-.2.3-.2.6-.2 1s.1.7.2 1c.2.3.4.5.7.7.3.2.6.3 1 .3s.7-.1 1-.3c.3-.2.5-.4.7-.7.2-.3.2-.6.2-1s-.1-.7-.2-1c-.2-.3-.4-.5-.7-.7-.3-.2-.6-.2-1-.2-.4-.1-.7 0-1 .2zM700.9 91.6c.4.4.5.9.5 1.5v3.3h-.8v-3c0-.5-.1-.8-.4-1.1s-.6-.4-1.1-.4c-.5 0-.9.2-1.2.5-.3.3-.5.7-.5 1.2v2.8h-.8v-5.3h.8v1.2c.4-.8 1-1.2 2-1.2.7 0 1.2.2 1.5.5z"/></g><g fill="#25DDDF"><path d="M585.8 51.8v-4.3h-4.2v-3h4.2v-4.3h3.3v4.3h4.2v3h-4.2v4.3h-3.3zM596.2 40.9v-3.2h10.3v2.6l-3.4 3.9c1.3.2 2.4.8 3.1 1.7.7.9 1.1 1.9 1.1 3.1 0 1.8-.6 3.1-1.8 4.1-1.2 1-2.7 1.5-4.6 1.5-1.9 0-3.7-.7-5.6-2l1.5-3c1.6 1.1 3 1.7 4.2 1.7.8 0 1.4-.2 1.9-.6.5-.4.7-.9.7-1.6 0-.7-.3-1.2-.8-1.7-.6-.4-1.3-.6-2.3-.6-.5 0-1.3.2-2.2.5v-2.8l3.2-3.8h-5.3zM616.9 54.6c-2.3 0-4.1-.8-5.2-2.4-1.2-1.6-1.7-3.7-1.7-6.3s.6-4.7 1.7-6.3c1.2-1.6 2.9-2.4 5.2-2.4 2.3 0 4.1.8 5.2 2.4 1.2 1.6 1.7 3.7 1.7 6.3s-.6 4.7-1.7 6.3c-1.2 1.7-2.9 2.4-5.2 2.4zm-2.5-12.7c-.5 1-.8 2.4-.8 4.1 0 1.7.3 3 .8 4.1.5 1 1.4 1.5 2.5 1.5s1.9-.5 2.5-1.5c.5-1 .8-2.4.8-4.1 0-1.7-.3-3-.8-4.1-.5-1-1.4-1.5-2.5-1.5s-2 .5-2.5 1.5zM633.8 41.5c0 .9-.3 1.7-1 2.4s-1.5 1-2.5 1-1.9-.3-2.5-1c-.7-.7-1-1.5-1-2.4s.3-1.7 1-2.4 1.5-1 2.5-1 1.9.3 2.5 1 1 1.4 1 2.4zm9.2-3.8l-12 16.8h-4.1l12-16.8h4.1zm-13.5 4.6c.2.2.4.3.7.3s.5-.1.7-.3c.2-.2.3-.5.3-.9s-.1-.6-.3-.9-.4-.3-.7-.3-.5.1-.7.3-.3.5-.3.9.1.7.3.9zm13.7 9c0 .9-.3 1.7-1 2.4-.7.6-1.5 1-2.5 1s-1.9-.3-2.5-1c-.7-.7-1-1.5-1-2.4s.3-1.7 1-2.4 1.5-1 2.5-1 1.9.3 2.5 1c.7.6 1 1.4 1 2.4zm-4.2.8c.2.2.4.3.7.3s.5-.1.7-.3c.2-.2.3-.5.3-.9s-.1-.6-.3-.9-.4-.3-.7-.3c-.3 0-.5.1-.7.3s-.3.5-.3.9.1.7.3.9z"/></g></svg>