<?xml version="1.0" encoding="utf-8"?>
<!-- Generator: Adobe Illustrator 18.0.0, SVG Export Plug-In . SVG Version: 6.00 Build 0)  -->
<!DOCTYPE svg PUBLIC "-//W3C//DTD SVG 1.1//EN" "http://www.w3.org/Graphics/SVG/1.1/DTD/svg11.dtd">
<svg version="1.1" id="Calque_1" xmlns="http://www.w3.org/2000/svg" xmlns:xlink="http://www.w3.org/1999/xlink" x="0px" y="0px"
	 viewBox="0 0 724 142.4" enable-background="new 0 0 724 142.4" xml:space="preserve">
<g>
	<path fill="#0A0A0A" d="M173.4,65.5c0.7,0.6,1,1.4,1,2.4c0,1.1-0.3,1.9-1,2.5s-1.6,0.9-2.8,0.9H168v3.1h-1.1v-9.8h3.7
		C171.8,64.6,172.7,64.9,173.4,65.5z M168,70.2h2.5c0.9,0,1.6-0.2,2.1-0.6s0.7-1,0.7-1.7c0-0.7-0.2-1.3-0.7-1.7s-1.2-0.6-2.1-0.6
		H168V70.2z"/>
	<path fill="#0A0A0A" d="M178.2,67.4c0.4-0.3,1-0.4,1.6-0.4v1.1c-0.8,0-1.4,0.2-1.8,0.6s-0.7,1-0.8,1.8v3.9h-1.1V67h1.1v1.6
		C177.4,68.1,177.8,67.7,178.2,67.4z"/>
	<path fill="#0A0A0A" d="M186.2,67.5c0.6,0.3,1,0.8,1.3,1.3s0.5,1.2,0.5,1.9c0,0.7-0.2,1.4-0.5,1.9s-0.8,1-1.3,1.3s-1.2,0.5-1.9,0.5
		s-1.4-0.2-1.9-0.5s-1-0.8-1.3-1.3s-0.5-1.2-0.5-1.9c0-0.7,0.2-1.4,0.5-1.9s0.8-1,1.3-1.3s1.2-0.5,1.9-0.5S185.7,67.2,186.2,67.5z
		 M182.9,68.3c-0.4,0.2-0.7,0.6-0.9,1s-0.3,0.9-0.3,1.4c0,0.5,0.1,1,0.3,1.4s0.5,0.7,0.9,1s0.9,0.4,1.4,0.4s1-0.1,1.4-0.4
		s0.7-0.6,0.9-1s0.3-0.9,0.3-1.4s-0.1-1-0.3-1.4s-0.5-0.7-0.9-1s-0.9-0.3-1.4-0.3C183.8,68,183.3,68.1,182.9,68.3z"/>
	<path fill="#0A0A0A" d="M196.7,74.4h-1.1v-1.6c-0.3,0.5-0.7,0.9-1.2,1.2s-1.1,0.4-1.7,0.4c-0.7,0-1.3-0.2-1.8-0.5s-1-0.8-1.3-1.3
		s-0.4-1.2-0.4-1.9s0.1-1.4,0.4-1.9s0.7-1,1.3-1.3s1.2-0.5,1.8-0.5c0.7,0,1.2,0.1,1.7,0.4s0.9,0.7,1.2,1.2V64h1.1V74.4z M194.3,73.1
		c0.4-0.2,0.7-0.6,0.9-1s0.3-0.9,0.3-1.4c0-0.5-0.1-1-0.3-1.4s-0.5-0.7-0.9-1S193.5,68,193,68s-1,0.1-1.4,0.4s-0.7,0.6-1,1
		s-0.3,0.9-0.3,1.4c0,0.5,0.1,1,0.3,1.4s0.5,0.7,1,1s0.9,0.4,1.4,0.4S193.9,73.4,194.3,73.1z"/>
	<path fill="#0A0A0A" d="M205.8,74.4h-1.1v-1.7c-0.5,1.1-1.4,1.7-2.8,1.7c-0.9,0-1.5-0.3-2-0.8s-0.7-1.2-0.7-2.1V67h1.1v4.3
		c0,0.7,0.2,1.2,0.5,1.5s0.9,0.5,1.5,0.5c0.8,0,1.4-0.3,1.8-0.8s0.6-1.1,0.6-1.9V67h1.1V74.4z"/>
	<path fill="#0A0A0A" d="M213,67.3c0.5,0.2,0.9,0.5,1.2,0.8l-0.6,0.8c-0.6-0.6-1.3-0.9-2.2-0.9c-0.5,0-1,0.1-1.4,0.3s-0.7,0.5-0.9,1
		s-0.3,0.9-0.3,1.4c0,0.5,0.1,1,0.3,1.4s0.5,0.7,0.9,1s0.8,0.4,1.4,0.4c0.5,0,0.9-0.1,1.3-0.2s0.7-0.4,1-0.7l0.6,0.7
		c-0.3,0.4-0.8,0.7-1.3,0.9s-1.1,0.3-1.7,0.3c-0.7,0-1.3-0.2-1.9-0.5s-1-0.8-1.3-1.3s-0.5-1.2-0.5-1.9s0.2-1.4,0.5-1.9
		s0.8-1,1.3-1.3s1.2-0.5,1.9-0.5C212,67,212.6,67.1,213,67.3z"/>
	<path fill="#0A0A0A" d="M218.5,74.5c-0.6,0-1-0.2-1.4-0.5s-0.5-0.9-0.5-1.6v-4.2h-1.1v-0.9h1.1v-1.9h1.1v1.9l2.3,0v0.9h-2.3v4
		c0,0.4,0.1,0.8,0.2,0.9s0.4,0.3,0.7,0.3c0.4,0,0.8-0.1,1.2-0.4l0.3,0.9C219.6,74.3,219.1,74.4,218.5,74.5z"/>
	<path fill="#0A0A0A" d="M225,67.2c0.4,0.1,0.8,0.3,1.1,0.5l-0.4,0.9c-0.3-0.2-0.6-0.3-1-0.4s-0.7-0.2-1-0.2c-0.4,0-0.8,0.1-1.1,0.2
		s-0.4,0.4-0.4,0.7c0,0.2,0.1,0.4,0.2,0.6s0.3,0.3,0.6,0.4s0.5,0.2,0.9,0.3c0.5,0.2,0.9,0.3,1.3,0.5s0.6,0.4,0.8,0.7
		s0.3,0.7,0.3,1.1c0,0.7-0.3,1.2-0.8,1.6s-1.2,0.5-1.9,0.5c-0.5,0-1.1-0.1-1.6-0.3s-0.9-0.4-1.3-0.8l0.4-0.8
		c0.3,0.3,0.7,0.5,1.1,0.7s0.9,0.3,1.3,0.3c0.5,0,0.8-0.1,1.1-0.3s0.4-0.5,0.4-0.8s-0.1-0.6-0.4-0.8s-0.7-0.3-1.3-0.5
		c-0.5-0.2-0.9-0.3-1.2-0.4s-0.6-0.3-0.8-0.6s-0.3-0.6-0.3-1.1c0-0.7,0.2-1.2,0.7-1.5s1.1-0.5,1.8-0.5C224.2,67,224.6,67,225,67.2z"
		/>
	<path fill="#0A0A0A" d="M238.7,65.2c0.8,0.4,1.4,1,1.8,1.8s0.7,1.6,0.7,2.5s-0.2,1.7-0.7,2.5s-1.1,1.3-1.8,1.8s-1.6,0.6-2.6,0.6
		h-3.9v-9.8h4C237,64.6,237.9,64.8,238.7,65.2z M233.3,73.3h2.9c0.7,0,1.4-0.2,2-0.5s1.1-0.8,1.4-1.4s0.5-1.2,0.5-2s-0.2-1.4-0.5-2
		s-0.8-1-1.4-1.4s-1.3-0.5-2-0.5h-2.8V73.3z"/>
	<path fill="#0A0A0A" d="M248.6,68.1c0.6,0.7,0.9,1.8,0.8,3h-6c0.1,0.7,0.4,1.3,0.9,1.7s1.1,0.6,1.8,0.6c0.5,0,0.9-0.1,1.3-0.2
		s0.7-0.4,1-0.7l0.6,0.6c-0.4,0.4-0.8,0.7-1.3,0.9s-1.1,0.3-1.7,0.3c-0.7,0-1.4-0.2-1.9-0.5s-1-0.8-1.3-1.3s-0.5-1.2-0.5-1.9
		s0.2-1.4,0.5-1.9s0.7-1,1.3-1.3s1.2-0.5,1.9-0.5C247.1,67,248,67.4,248.6,68.1z M247.7,68.6c-0.4-0.4-1-0.6-1.7-0.6
		c-0.7,0-1.3,0.2-1.8,0.6s-0.7,1-0.8,1.7h5C248.4,69.5,248.1,69,247.7,68.6z"/>
	<path fill="#0A0A0A" d="M254.5,67.2c0.4,0.1,0.8,0.3,1.1,0.5l-0.4,0.9c-0.3-0.2-0.6-0.3-1-0.4s-0.7-0.2-1-0.2
		c-0.4,0-0.8,0.1-1.1,0.2s-0.4,0.4-0.4,0.7c0,0.2,0.1,0.4,0.2,0.6s0.3,0.3,0.6,0.4s0.5,0.2,0.9,0.3c0.5,0.2,0.9,0.3,1.3,0.5
		s0.6,0.4,0.8,0.7s0.3,0.7,0.3,1.1c0,0.7-0.3,1.2-0.8,1.6s-1.2,0.5-1.9,0.5c-0.5,0-1.1-0.1-1.6-0.3s-0.9-0.4-1.3-0.8l0.4-0.8
		c0.3,0.3,0.7,0.5,1.1,0.7s0.9,0.3,1.3,0.3c0.5,0,0.8-0.1,1.1-0.3s0.4-0.5,0.4-0.8s-0.1-0.6-0.4-0.8s-0.7-0.3-1.3-0.5
		c-0.5-0.2-0.9-0.3-1.2-0.4s-0.6-0.3-0.8-0.6s-0.3-0.6-0.3-1.1c0-0.7,0.2-1.2,0.7-1.5s1.1-0.5,1.8-0.5C253.6,67,254.1,67,254.5,67.2
		z"/>
	<path fill="#0A0A0A" d="M258.6,64.4c0.1,0.1,0.2,0.3,0.2,0.5s-0.1,0.4-0.2,0.5s-0.3,0.2-0.5,0.2s-0.4-0.1-0.5-0.2s-0.2-0.3-0.2-0.5
		c0-0.2,0.1-0.4,0.2-0.5s0.3-0.2,0.5-0.2S258.5,64.2,258.6,64.4z M257.6,74.4V67h1.1v7.4H257.6z"/>
	<path fill="#0A0A0A" d="M267.7,73.6c0,0.7-0.2,1.3-0.5,1.9s-0.7,0.9-1.3,1.2s-1.2,0.4-1.9,0.4c-1.1,0-2.1-0.4-3-1.1l0.5-0.8
		c0.4,0.3,0.8,0.5,1.2,0.7s0.8,0.2,1.3,0.2c0.8,0,1.4-0.2,1.9-0.7s0.7-1.1,0.7-1.8v-1.1c-0.3,0.5-0.6,0.9-1.1,1.1s-1,0.4-1.6,0.4
		c-0.7,0-1.2-0.2-1.7-0.5s-0.9-0.7-1.2-1.3s-0.4-1.2-0.4-1.8c0-0.7,0.1-1.3,0.4-1.8s0.7-0.9,1.2-1.3s1.1-0.5,1.7-0.5
		c0.6,0,1.2,0.1,1.6,0.4s0.8,0.6,1.1,1.1V67h1.1V73.6z M265.4,72.8c0.4-0.2,0.7-0.5,0.9-0.9s0.3-0.8,0.3-1.3c0-0.5-0.1-1-0.3-1.4
		s-0.5-0.7-0.9-0.9s-0.8-0.3-1.3-0.3c-0.5,0-0.9,0.1-1.3,0.3s-0.7,0.5-0.9,0.9s-0.3,0.8-0.3,1.4c0,0.5,0.1,0.9,0.3,1.3
		s0.5,0.7,0.9,0.9s0.8,0.3,1.3,0.3C264.6,73.2,265.1,73,265.4,72.8z"/>
	<path fill="#0A0A0A" d="M276.2,67.7c0.5,0.5,0.7,1.2,0.7,2.1v4.6h-1.1v-4.3c0-0.7-0.2-1.2-0.6-1.5s-0.9-0.5-1.5-0.5
		c-0.7,0-1.3,0.2-1.7,0.7s-0.7,1-0.8,1.7v4h-1.1V67h1.1v1.6c0.5-1.1,1.5-1.6,2.9-1.7C275,67,275.7,67.2,276.2,67.7z"/>
	<path fill="#0A0A0A" d="M285,68.1c0.6,0.7,0.9,1.8,0.8,3h-6c0.1,0.7,0.4,1.3,0.9,1.7s1.1,0.6,1.8,0.6c0.5,0,0.9-0.1,1.3-0.2
		s0.7-0.4,1-0.7l0.6,0.6c-0.4,0.4-0.8,0.7-1.3,0.9s-1.1,0.3-1.7,0.3c-0.7,0-1.4-0.2-1.9-0.5s-1-0.8-1.3-1.3s-0.5-1.2-0.5-1.9
		s0.2-1.4,0.5-1.9s0.7-1,1.3-1.3s1.2-0.5,1.9-0.5C283.5,67,284.4,67.4,285,68.1z M284.1,68.6c-0.4-0.4-1-0.6-1.7-0.6
		c-0.7,0-1.3,0.2-1.8,0.6s-0.7,1-0.8,1.7h5C284.7,69.5,284.5,69,284.1,68.6z"/>
	<path fill="#0A0A0A" d="M294.4,74.4h-1.1v-1.6c-0.3,0.5-0.7,0.9-1.2,1.2s-1.1,0.4-1.7,0.4c-0.7,0-1.3-0.2-1.8-0.5s-1-0.8-1.3-1.3
		s-0.4-1.2-0.4-1.9s0.1-1.4,0.4-1.9s0.7-1,1.3-1.3s1.2-0.5,1.8-0.5c0.7,0,1.2,0.1,1.7,0.4s0.9,0.7,1.2,1.2V64h1.1V74.4z M292,73.1
		c0.4-0.2,0.7-0.6,0.9-1s0.3-0.9,0.3-1.4c0-0.5-0.1-1-0.3-1.4s-0.5-0.7-0.9-1s-0.9-0.4-1.4-0.4s-1,0.1-1.4,0.4s-0.7,0.6-1,1
		s-0.3,0.9-0.3,1.4c0,0.5,0.1,1,0.3,1.4s0.5,0.7,1,1s0.9,0.4,1.4,0.4S291.6,73.4,292,73.1z"/>
	<path fill="#0A0A0A" d="M171.3,90.1c-0.6,0.8-1.5,1.2-2.7,1.2c-0.5,0-0.9-0.1-1.3-0.3s-0.7-0.5-0.9-0.8s-0.3-0.7-0.3-1.2
		c0-0.6,0.2-1.2,0.7-1.5s1.2-0.6,2-0.6h2.4v-0.4c0-0.6-0.2-1-0.5-1.3s-0.8-0.4-1.5-0.4c-0.7,0-1.5,0.3-2.3,0.8l-0.5-0.8
		c0.5-0.3,1-0.6,1.4-0.8s1-0.2,1.6-0.2c0.9,0,1.6,0.2,2.1,0.7s0.7,1.1,0.7,1.9l0,4.9h-1.1V90.1z M170.4,89.9
		c0.4-0.3,0.7-0.7,0.9-1.2v-0.9H169c-1.2,0-1.9,0.4-1.9,1.2c0,0.4,0.2,0.7,0.5,1s0.7,0.4,1.2,0.4C169.4,90.3,170,90.2,170.4,89.9z"
		/>
	<path fill="#0A0A0A" d="M180.8,84.5c0.5,0.5,0.7,1.2,0.7,2.1v4.6h-1.1v-4.3c0-0.7-0.2-1.2-0.6-1.5s-0.9-0.5-1.5-0.5
		c-0.7,0-1.3,0.2-1.7,0.7s-0.7,1-0.8,1.7v4h-1.1v-7.4h1.1v1.6c0.5-1.1,1.5-1.6,2.9-1.7C179.6,83.8,180.3,84,180.8,84.5z"/>
	<path fill="#0A0A0A" d="M190.8,91.2h-1.1v-1.6c-0.3,0.5-0.7,0.9-1.2,1.2s-1.1,0.4-1.7,0.4c-0.7,0-1.3-0.2-1.8-0.5s-1-0.8-1.3-1.3
		s-0.4-1.2-0.4-1.9s0.1-1.4,0.4-1.9s0.7-1,1.3-1.3s1.2-0.5,1.8-0.5c0.7,0,1.2,0.1,1.7,0.4s0.9,0.7,1.2,1.2v-4.6h1.1V91.2z
		 M188.4,89.9c0.4-0.2,0.7-0.6,0.9-1s0.3-0.9,0.3-1.4c0-0.5-0.1-1-0.3-1.4s-0.5-0.7-0.9-1s-0.9-0.4-1.4-0.4s-1,0.1-1.4,0.4
		s-0.7,0.6-1,1s-0.3,0.9-0.3,1.4c0,0.5,0.1,1,0.3,1.4s0.5,0.7,1,1s0.9,0.4,1.4,0.4S188,90.2,188.4,89.9z"/>
	<path fill="#0A0A0A" d="M198.6,82.5v3.4h4.6V87h-4.6v4.2h-1.1v-9.8h6.2v1.1H198.6z"/>
	<path fill="#0A0A0A" d="M207.3,84.2c0.4-0.3,1-0.4,1.6-0.4v1.1c-0.8,0-1.4,0.2-1.8,0.6s-0.7,1-0.8,1.8v3.9h-1.1v-7.4h1.1v1.6
		C206.5,84.9,206.9,84.5,207.3,84.2z"/>
	<path fill="#0A0A0A" d="M215.3,84.3c0.6,0.3,1,0.8,1.3,1.3s0.5,1.2,0.5,1.9c0,0.7-0.2,1.4-0.5,1.9s-0.8,1-1.3,1.3s-1.2,0.5-1.9,0.5
		s-1.4-0.2-1.9-0.5s-1-0.8-1.3-1.3s-0.5-1.2-0.5-1.9c0-0.7,0.2-1.4,0.5-1.9s0.8-1,1.3-1.3s1.2-0.5,1.9-0.5S214.8,84,215.3,84.3z
		 M212,85.1c-0.4,0.2-0.7,0.6-0.9,1s-0.3,0.9-0.3,1.4c0,0.5,0.1,1,0.3,1.4s0.5,0.7,0.9,1s0.9,0.4,1.4,0.4s1-0.1,1.4-0.4
		s0.7-0.6,0.9-1s0.3-0.9,0.3-1.4s-0.1-1-0.3-1.4s-0.5-0.7-0.9-1s-0.9-0.3-1.4-0.3C212.9,84.8,212.4,84.9,212,85.1z"/>
	<path fill="#0A0A0A" d="M225.1,84.5c0.5,0.5,0.7,1.2,0.7,2.1v4.6h-1.1v-4.3c0-0.7-0.2-1.2-0.6-1.5s-0.9-0.5-1.5-0.5
		c-0.7,0-1.3,0.2-1.7,0.7s-0.7,1-0.8,1.7v4h-1.1v-7.4h1.1v1.6c0.5-1.1,1.5-1.6,2.9-1.7C223.9,83.8,224.6,84,225.1,84.5z"/>
	<path fill="#0A0A0A" d="M230.4,91.3c-0.6,0-1-0.2-1.4-0.5s-0.5-0.9-0.5-1.6v-4.2h-1.1v-0.9h1.1v-1.9h1.1v1.9l2.3,0v0.9h-2.3v4
		c0,0.4,0.1,0.8,0.2,0.9s0.4,0.3,0.7,0.3c0.4,0,0.8-0.1,1.2-0.4l0.3,0.9C231.5,91.1,231,91.2,230.4,91.3z"/>
	<path fill="#0A0A0A" d="M233.3,87.4v-0.8h3.3v0.8H233.3z"/>
	<path fill="#0A0A0A" d="M240,82.5v3.2h4.9v1.1H240v3.4h5.7v1.1h-6.8v-9.8h6.7v1.1H240z"/>
	<path fill="#0A0A0A" d="M253.9,84.5c0.5,0.5,0.7,1.2,0.7,2.1v4.6h-1.1v-4.3c0-0.7-0.2-1.2-0.6-1.5s-0.9-0.5-1.5-0.5
		c-0.7,0-1.3,0.2-1.7,0.7s-0.7,1-0.8,1.7v4h-1.1v-7.4h1.1v1.6c0.5-1.1,1.5-1.6,2.9-1.7C252.7,83.8,253.4,84,253.9,84.5z"/>
	<path fill="#0A0A0A" d="M263.8,91.2h-1.1v-1.6c-0.3,0.5-0.7,0.9-1.2,1.2s-1.1,0.4-1.7,0.4c-0.7,0-1.3-0.2-1.8-0.5s-1-0.8-1.3-1.3
		s-0.4-1.2-0.4-1.9s0.1-1.4,0.4-1.9s0.7-1,1.3-1.3s1.2-0.5,1.8-0.5c0.7,0,1.2,0.1,1.7,0.4s0.9,0.7,1.2,1.2v-4.6h1.1V91.2z
		 M261.5,89.9c0.4-0.2,0.7-0.6,0.9-1s0.3-0.9,0.3-1.4c0-0.5-0.1-1-0.3-1.4s-0.5-0.7-0.9-1s-0.9-0.4-1.4-0.4s-1,0.1-1.4,0.4
		s-0.7,0.6-1,1s-0.3,0.9-0.3,1.4c0,0.5,0.1,1,0.3,1.4s0.5,0.7,1,1s0.9,0.4,1.4,0.4S261.1,90.2,261.5,89.9z"/>
	<path fill="#0A0A0A" d="M276.7,81.7c0.6,0.3,1.2,0.6,1.7,1l-0.7,0.9c-0.4-0.4-0.8-0.7-1.3-0.9s-1-0.3-1.6-0.3c-0.7,0-1.4,0.2-2,0.5
		s-1.1,0.8-1.4,1.4s-0.5,1.2-0.5,1.9c0,0.7,0.2,1.3,0.5,1.9s0.8,1.1,1.4,1.4s1.3,0.5,2,0.5c0.5,0,1.1-0.1,1.6-0.3s1-0.5,1.3-0.9
		l0.7,0.8c-0.5,0.5-1.1,0.8-1.7,1.1s-1.3,0.4-1.9,0.4c-0.9,0-1.8-0.2-2.5-0.7s-1.4-1-1.8-1.8s-0.7-1.6-0.7-2.5
		c0-0.9,0.2-1.7,0.7-2.5s1.1-1.3,1.9-1.8s1.6-0.7,2.6-0.7C275.4,81.4,276,81.5,276.7,81.7z"/>
	<path fill="#0A0A0A" d="M284.9,84.3c0.6,0.3,1,0.8,1.3,1.3s0.5,1.2,0.5,1.9c0,0.7-0.2,1.4-0.5,1.9s-0.8,1-1.3,1.3s-1.2,0.5-1.9,0.5
		s-1.4-0.2-1.9-0.5s-1-0.8-1.3-1.3s-0.5-1.2-0.5-1.9c0-0.7,0.2-1.4,0.5-1.9s0.8-1,1.3-1.3s1.2-0.5,1.9-0.5S284.3,84,284.9,84.3z
		 M281.6,85.1c-0.4,0.2-0.7,0.6-0.9,1s-0.3,0.9-0.3,1.4c0,0.5,0.1,1,0.3,1.4s0.5,0.7,0.9,1s0.9,0.4,1.4,0.4s1-0.1,1.4-0.4
		s0.7-0.6,0.9-1s0.3-0.9,0.3-1.4s-0.1-1-0.3-1.4s-0.5-0.7-0.9-1s-0.9-0.3-1.4-0.3C282.4,84.8,282,84.9,281.6,85.1z"/>
	<path fill="#0A0A0A" d="M295.4,91.2h-1.1v-1.6c-0.3,0.5-0.7,0.9-1.2,1.2s-1.1,0.4-1.7,0.4c-0.7,0-1.3-0.2-1.8-0.5s-1-0.8-1.3-1.3
		s-0.4-1.2-0.4-1.9s0.1-1.4,0.4-1.9s0.7-1,1.3-1.3s1.2-0.5,1.8-0.5c0.7,0,1.2,0.1,1.7,0.4s0.9,0.7,1.2,1.2v-4.6h1.1V91.2z M293,89.9
		c0.4-0.2,0.7-0.6,0.9-1s0.3-0.9,0.3-1.4c0-0.5-0.1-1-0.3-1.4s-0.5-0.7-0.9-1s-0.9-0.4-1.4-0.4s-1,0.1-1.4,0.4s-0.7,0.6-1,1
		S289,87,289,87.5c0,0.5,0.1,1,0.3,1.4s0.5,0.7,1,1s0.9,0.4,1.4,0.4S292.6,90.2,293,89.9z"/>
	<path fill="#0A0A0A" d="M303.7,84.9c0.6,0.7,0.9,1.8,0.8,3h-6c0.1,0.7,0.4,1.3,0.9,1.7s1.1,0.6,1.8,0.6c0.5,0,0.9-0.1,1.3-0.2
		s0.7-0.4,1-0.7L304,90c-0.4,0.4-0.8,0.7-1.3,0.9s-1.1,0.3-1.7,0.3c-0.7,0-1.4-0.2-1.9-0.5s-1-0.8-1.3-1.3s-0.5-1.2-0.5-1.9
		s0.2-1.4,0.5-1.9s0.7-1,1.3-1.3s1.2-0.5,1.9-0.5C302.2,83.8,303.1,84.2,303.7,84.9z M302.8,85.4c-0.4-0.4-1-0.6-1.7-0.6
		c-0.7,0-1.3,0.2-1.8,0.6s-0.7,1-0.8,1.7h5C303.4,86.3,303.2,85.8,302.8,85.4z"/>
	<path fill="#0A0A0A" d="M313.1,91.2H312v-1.6c-0.3,0.5-0.7,0.9-1.2,1.2s-1.1,0.4-1.7,0.4c-0.7,0-1.3-0.2-1.8-0.5s-1-0.8-1.3-1.3
		s-0.4-1.2-0.4-1.9s0.1-1.4,0.4-1.9s0.7-1,1.3-1.3s1.2-0.5,1.8-0.5c0.7,0,1.2,0.1,1.7,0.4s0.9,0.7,1.2,1.2v-4.6h1.1V91.2z
		 M310.7,89.9c0.4-0.2,0.7-0.6,0.9-1s0.3-0.9,0.3-1.4c0-0.5-0.1-1-0.3-1.4s-0.5-0.7-0.9-1s-0.9-0.4-1.4-0.4s-1,0.1-1.4,0.4
		s-0.7,0.6-1,1s-0.3,0.9-0.3,1.4c0,0.5,0.1,1,0.3,1.4s0.5,0.7,1,1s0.9,0.4,1.4,0.4S310.3,90.2,310.7,89.9z"/>
	<path fill="#0A0A0A" d="M170.5,98.2c0.4,0.2,0.7,0.5,0.9,0.9s0.3,0.9,0.3,1.4c0,0.5-0.1,1-0.3,1.4s-0.5,0.7-0.9,0.9
		s-0.8,0.3-1.3,0.3c-0.5,0-0.9-0.1-1.2-0.3s-0.6-0.5-0.8-0.9v3.1h-0.8v-7.2h0.8v1.1c0.2-0.4,0.5-0.7,0.8-0.9s0.8-0.3,1.2-0.3
		C169.7,97.9,170.1,98,170.5,98.2z M170,102.3c0.3-0.2,0.5-0.4,0.7-0.7s0.2-0.6,0.2-1s-0.1-0.7-0.2-1s-0.4-0.5-0.7-0.7
		s-0.6-0.3-1-0.3c-0.4,0-0.7,0.1-1,0.2s-0.5,0.4-0.7,0.7s-0.2,0.6-0.2,1c0,0.4,0.1,0.7,0.2,1s0.4,0.5,0.7,0.7s0.6,0.3,1,0.3
		C169.4,102.5,169.8,102.4,170,102.3z"/>
	<path fill="#0A0A0A" d="M174.6,98.2c0.3-0.2,0.7-0.3,1.1-0.3v0.8c-0.5,0-1,0.1-1.3,0.5s-0.5,0.7-0.6,1.3v2.8h-0.8v-5.3h0.8v1.2
		C174.1,98.7,174.3,98.4,174.6,98.2z"/>
	<path fill="#0A0A0A" d="M177.6,96c0.1,0.1,0.1,0.2,0.1,0.4s0,0.3-0.1,0.4s-0.2,0.2-0.4,0.2s-0.3-0.1-0.4-0.2s-0.1-0.2-0.1-0.4
		c0-0.2,0-0.3,0.1-0.4s0.2-0.2,0.4-0.2S177.5,95.9,177.6,96z M176.8,103.2v-5.3h0.8v5.3H176.8z"/>
	<path fill="#0A0A0A" d="M182.7,98.1c0.3,0.1,0.6,0.3,0.9,0.6l-0.4,0.6c-0.4-0.4-0.9-0.6-1.6-0.6c-0.4,0-0.7,0.1-1,0.2
		s-0.5,0.4-0.7,0.7s-0.2,0.6-0.2,1c0,0.4,0.1,0.7,0.2,1s0.4,0.5,0.7,0.7s0.6,0.3,1,0.3c0.3,0,0.7-0.1,0.9-0.2s0.5-0.3,0.7-0.5
		l0.4,0.5c-0.2,0.3-0.5,0.5-0.9,0.7s-0.8,0.2-1.2,0.2c-0.5,0-1-0.1-1.4-0.3s-0.7-0.5-0.9-0.9s-0.3-0.9-0.3-1.4s0.1-1,0.3-1.4
		s0.5-0.7,0.9-0.9s0.9-0.3,1.4-0.3C182,97.9,182.4,98,182.7,98.1z"/>
	<path fill="#0A0A0A" d="M188.8,98.7c0.4,0.5,0.6,1.3,0.6,2.2h-4.3c0.1,0.5,0.3,0.9,0.6,1.2s0.8,0.5,1.3,0.5c0.3,0,0.6-0.1,0.9-0.2
		s0.5-0.3,0.7-0.5l0.4,0.5c-0.3,0.3-0.6,0.5-0.9,0.6s-0.8,0.2-1.2,0.2c-0.5,0-1-0.1-1.4-0.3s-0.7-0.5-0.9-0.9s-0.3-0.9-0.3-1.4
		s0.1-1,0.3-1.4s0.5-0.7,0.9-0.9s0.9-0.3,1.4-0.3C187.8,97.9,188.4,98.2,188.8,98.7z M188.2,99c-0.3-0.3-0.7-0.4-1.2-0.4
		c-0.5,0-0.9,0.1-1.3,0.4s-0.5,0.7-0.6,1.2h3.6C188.7,99.7,188.5,99.3,188.2,99z"/>
	<path fill="#0A0A0A" d="M196.7,98.1c0.3,0.1,0.6,0.3,0.9,0.6l-0.4,0.6c-0.4-0.4-0.9-0.6-1.6-0.6c-0.4,0-0.7,0.1-1,0.2
		s-0.5,0.4-0.7,0.7s-0.2,0.6-0.2,1c0,0.4,0.1,0.7,0.2,1s0.4,0.5,0.7,0.7s0.6,0.3,1,0.3c0.3,0,0.7-0.1,0.9-0.2s0.5-0.3,0.7-0.5
		l0.4,0.5c-0.2,0.3-0.5,0.5-0.9,0.7s-0.8,0.2-1.2,0.2c-0.5,0-1-0.1-1.4-0.3s-0.7-0.5-0.9-0.9s-0.3-0.9-0.3-1.4s0.1-1,0.3-1.4
		s0.5-0.7,0.9-0.9s0.9-0.3,1.4-0.3C196,97.9,196.4,98,196.7,98.1z"/>
	<path fill="#0A0A0A" d="M202.3,98.2c0.4,0.2,0.7,0.5,0.9,0.9s0.3,0.9,0.3,1.4c0,0.5-0.1,1-0.3,1.4s-0.5,0.7-0.9,0.9
		s-0.9,0.3-1.4,0.3s-1-0.1-1.4-0.3s-0.7-0.5-0.9-0.9s-0.3-0.9-0.3-1.4c0-0.5,0.1-1,0.3-1.4s0.5-0.7,0.9-0.9s0.9-0.3,1.4-0.3
		S201.9,98,202.3,98.2z M200,98.9c-0.3,0.2-0.5,0.4-0.7,0.7s-0.2,0.6-0.2,1c0,0.4,0.1,0.7,0.2,1s0.4,0.5,0.7,0.7s0.6,0.3,1,0.3
		s0.7-0.1,1-0.3s0.5-0.4,0.7-0.7s0.2-0.6,0.2-1s-0.1-0.7-0.2-1s-0.4-0.5-0.7-0.7s-0.6-0.2-1-0.2C200.6,98.6,200.3,98.7,200,98.9z"/>
	<path fill="#0A0A0A" d="M213.2,98.4c0.3,0.4,0.5,0.9,0.5,1.5v3.3h-0.8v-3c0-0.5-0.1-0.8-0.4-1.1s-0.6-0.4-1.1-0.4
		c-0.5,0-1,0.2-1.3,0.5s-0.5,0.8-0.5,1.4v2.6H209v-3c0-0.5-0.1-0.8-0.4-1.1s-0.6-0.4-1.1-0.4c-0.5,0-1,0.2-1.3,0.5s-0.5,0.8-0.5,1.4
		v2.6H205v-5.3h0.8v1.2c0.2-0.4,0.4-0.7,0.8-0.9s0.8-0.3,1.2-0.3c0.5,0,0.9,0.1,1.2,0.4s0.5,0.6,0.7,1c0.2-0.5,0.4-0.8,0.8-1
		s0.8-0.3,1.3-0.3C212.4,97.9,212.8,98.1,213.2,98.4z"/>
	<path fill="#0A0A0A" d="M219.6,98.2c0.4,0.2,0.7,0.5,0.9,0.9s0.3,0.9,0.3,1.4c0,0.5-0.1,1-0.3,1.4s-0.5,0.7-0.9,0.9
		s-0.8,0.3-1.3,0.3c-0.5,0-0.9-0.1-1.2-0.3s-0.6-0.5-0.8-0.9v3.1h-0.8v-7.2h0.8v1.1c0.2-0.4,0.5-0.7,0.8-0.9s0.8-0.3,1.2-0.3
		C218.8,97.9,219.2,98,219.6,98.2z M219.1,102.3c0.3-0.2,0.5-0.4,0.7-0.7s0.2-0.6,0.2-1s-0.1-0.7-0.2-1s-0.4-0.5-0.7-0.7
		s-0.6-0.3-1-0.3c-0.4,0-0.7,0.1-1,0.2s-0.5,0.4-0.7,0.7s-0.2,0.6-0.2,1c0,0.4,0.1,0.7,0.2,1s0.4,0.5,0.7,0.7s0.6,0.3,1,0.3
		C218.5,102.5,218.8,102.4,219.1,102.3z"/>
	<path fill="#0A0A0A" d="M225.5,102.4c-0.4,0.6-1.1,0.8-1.9,0.8c-0.4,0-0.7-0.1-0.9-0.2s-0.5-0.3-0.6-0.6s-0.2-0.5-0.2-0.8
		c0-0.5,0.2-0.8,0.5-1.1s0.8-0.4,1.5-0.4h1.7v-0.3c0-0.4-0.1-0.7-0.4-0.9s-0.6-0.3-1.1-0.3c-0.5,0-1.1,0.2-1.7,0.6l-0.3-0.6
		c0.4-0.2,0.7-0.4,1-0.5s0.7-0.2,1.1-0.2c0.6,0,1.1,0.2,1.5,0.5s0.5,0.8,0.5,1.3l0,3.5h-0.8V102.4z M224.8,102.2
		c0.3-0.2,0.5-0.5,0.6-0.9v-0.6h-1.6c-0.9,0-1.3,0.3-1.3,0.8c0,0.3,0.1,0.5,0.3,0.7s0.5,0.3,0.9,0.3
		C224.1,102.6,224.5,102.5,224.8,102.2z"/>
	<path fill="#0A0A0A" d="M229.5,98.2c0.3-0.2,0.7-0.3,1.1-0.3v0.8c-0.5,0-1,0.1-1.3,0.5s-0.5,0.7-0.6,1.3v2.8H228v-5.3h0.8v1.2
		C228.9,98.7,229.2,98.4,229.5,98.2z"/>
	<path fill="#0A0A0A" d="M234.7,102.4c-0.4,0.6-1.1,0.8-1.9,0.8c-0.4,0-0.7-0.1-0.9-0.2s-0.5-0.3-0.6-0.6s-0.2-0.5-0.2-0.8
		c0-0.5,0.2-0.8,0.5-1.1s0.8-0.4,1.5-0.4h1.7v-0.3c0-0.4-0.1-0.7-0.4-0.9s-0.6-0.3-1.1-0.3c-0.5,0-1.1,0.2-1.7,0.6l-0.3-0.6
		c0.4-0.2,0.7-0.4,1-0.5s0.7-0.2,1.1-0.2c0.6,0,1.1,0.2,1.5,0.5s0.5,0.8,0.5,1.3l0,3.5h-0.8V102.4z M234.1,102.2
		c0.3-0.2,0.5-0.5,0.6-0.9v-0.6H233c-0.9,0-1.3,0.3-1.3,0.8c0,0.3,0.1,0.5,0.3,0.7s0.5,0.3,0.9,0.3
		C233.4,102.6,233.7,102.5,234.1,102.2z"/>
	<path fill="#0A0A0A" d="M238.7,103.2c-0.4,0-0.7-0.1-1-0.4s-0.4-0.6-0.4-1.1v-3h-0.8v-0.6h0.8v-1.4h0.8v1.4l1.7,0v0.6h-1.7v2.9
		c0,0.3,0.1,0.5,0.2,0.7s0.3,0.2,0.5,0.2c0.3,0,0.6-0.1,0.8-0.3l0.2,0.6C239.5,103.1,239.1,103.2,238.7,103.2z"/>
	<path fill="#0A0A0A" d="M244.5,98.2c0.4,0.2,0.7,0.5,0.9,0.9s0.3,0.9,0.3,1.4c0,0.5-0.1,1-0.3,1.4s-0.5,0.7-0.9,0.9
		s-0.9,0.3-1.4,0.3s-1-0.1-1.4-0.3s-0.7-0.5-0.9-0.9s-0.3-0.9-0.3-1.4c0-0.5,0.1-1,0.3-1.4s0.5-0.7,0.9-0.9s0.9-0.3,1.4-0.3
		S244.1,98,244.5,98.2z M242.2,98.9c-0.3,0.2-0.5,0.4-0.7,0.7s-0.2,0.6-0.2,1c0,0.4,0.1,0.7,0.2,1s0.4,0.5,0.7,0.7s0.6,0.3,1,0.3
		s0.7-0.1,1-0.3s0.5-0.4,0.7-0.7s0.2-0.6,0.2-1s-0.1-0.7-0.2-1s-0.4-0.5-0.7-0.7s-0.6-0.2-1-0.2C242.8,98.6,242.5,98.7,242.2,98.9z"
		/>
	<path fill="#0A0A0A" d="M248.7,98.2c0.3-0.2,0.7-0.3,1.1-0.3v0.8c-0.5,0-1,0.1-1.3,0.5s-0.5,0.7-0.6,1.3v2.8h-0.8v-5.3h0.8v1.2
		C248.1,98.7,248.4,98.4,248.7,98.2z"/>
	<path fill="#0A0A0A" d="M253.2,98c0.3,0.1,0.5,0.2,0.8,0.4l-0.3,0.6c-0.2-0.1-0.4-0.2-0.7-0.3s-0.5-0.1-0.7-0.1
		c-0.3,0-0.6,0.1-0.8,0.2s-0.3,0.3-0.3,0.5c0,0.2,0.1,0.3,0.2,0.4s0.2,0.2,0.4,0.3s0.4,0.1,0.7,0.2c0.4,0.1,0.7,0.2,0.9,0.3
		s0.4,0.3,0.6,0.5s0.2,0.5,0.2,0.8c0,0.5-0.2,0.9-0.6,1.1s-0.8,0.4-1.4,0.4c-0.4,0-0.8-0.1-1.1-0.2s-0.7-0.3-0.9-0.5l0.3-0.6
		c0.2,0.2,0.5,0.4,0.8,0.5s0.6,0.2,0.9,0.2c0.3,0,0.6-0.1,0.8-0.2s0.3-0.3,0.3-0.6s-0.1-0.4-0.3-0.6s-0.5-0.2-0.9-0.4
		c-0.4-0.1-0.7-0.2-0.9-0.3s-0.4-0.2-0.6-0.4s-0.2-0.5-0.2-0.8c0-0.5,0.2-0.8,0.5-1.1s0.8-0.4,1.3-0.4
		C252.6,97.9,252.9,97.9,253.2,98z"/>
	<path fill="#0A0A0A" d="M255.8,102.4c0.1,0.1,0.1,0.2,0.1,0.4c0,0.1-0.1,0.3-0.2,0.4l-0.5,0.7h-0.4l0.3-0.7
		c-0.1-0.1-0.2-0.2-0.2-0.4c0-0.1,0-0.3,0.1-0.4s0.2-0.1,0.3-0.1S255.7,102.3,255.8,102.4z"/>
	<path fill="#0A0A0A" d="M264.4,98.4c0.4,0.4,0.5,0.9,0.5,1.5v3.3h-0.8v-3c0-0.5-0.1-0.8-0.4-1.1s-0.6-0.4-1.1-0.4
		c-0.5,0-0.9,0.2-1.2,0.5s-0.5,0.7-0.5,1.2v2.8h-0.8v-5.3h0.8v1.2c0.4-0.8,1-1.2,2-1.2C263.6,97.9,264.1,98.1,264.4,98.4z"/>
	<path fill="#0A0A0A" d="M270.7,98.7c0.4,0.5,0.6,1.3,0.6,2.2h-4.3c0.1,0.5,0.3,0.9,0.6,1.2s0.8,0.5,1.3,0.5c0.3,0,0.6-0.1,0.9-0.2
		s0.5-0.3,0.7-0.5l0.4,0.5c-0.3,0.3-0.6,0.5-0.9,0.6s-0.8,0.2-1.2,0.2c-0.5,0-1-0.1-1.4-0.3s-0.7-0.5-0.9-0.9s-0.3-0.9-0.3-1.4
		s0.1-1,0.3-1.4s0.5-0.7,0.9-0.9s0.9-0.3,1.4-0.3C269.6,97.9,270.2,98.2,270.7,98.7z M270,99c-0.3-0.3-0.7-0.4-1.2-0.4
		c-0.5,0-0.9,0.1-1.3,0.4s-0.5,0.7-0.6,1.2h3.6C270.5,99.7,270.3,99.3,270,99z"/>
	<path fill="#0A0A0A" d="M277.4,103.2l-1.5-4.3l-1.5,4.3h-0.8l-2-5.3h0.8l1.6,4.5l1.5-4.5h0.8l1.5,4.5l1.5-4.5h0.8l-2,5.3H277.4z"/>
	<path fill="#0A0A0A" d="M283.3,98c0.3,0.1,0.5,0.2,0.8,0.4l-0.3,0.6c-0.2-0.1-0.4-0.2-0.7-0.3s-0.5-0.1-0.7-0.1
		c-0.3,0-0.6,0.1-0.8,0.2s-0.3,0.3-0.3,0.5c0,0.2,0.1,0.3,0.2,0.4s0.2,0.2,0.4,0.3s0.4,0.1,0.7,0.2c0.4,0.1,0.7,0.2,0.9,0.3
		s0.4,0.3,0.6,0.5s0.2,0.5,0.2,0.8c0,0.5-0.2,0.9-0.6,1.1s-0.8,0.4-1.4,0.4c-0.4,0-0.8-0.1-1.1-0.2s-0.7-0.3-0.9-0.5l0.3-0.6
		c0.2,0.2,0.5,0.4,0.8,0.5s0.6,0.2,0.9,0.2c0.3,0,0.6-0.1,0.8-0.2s0.3-0.3,0.3-0.6s-0.1-0.4-0.3-0.6s-0.5-0.2-0.9-0.4
		c-0.4-0.1-0.7-0.2-0.9-0.3s-0.4-0.2-0.6-0.4s-0.2-0.5-0.2-0.8c0-0.5,0.2-0.8,0.5-1.1s0.8-0.4,1.3-0.4C282.7,97.9,283,97.9,283.3,98
		z"/>
	<path fill="#0A0A0A" d="M170.5,110.2c0.4,0.2,0.7,0.5,0.9,0.9s0.3,0.9,0.3,1.4c0,0.5-0.1,1-0.3,1.4s-0.5,0.7-0.9,0.9
		s-0.8,0.3-1.3,0.3c-0.5,0-0.9-0.1-1.2-0.3s-0.6-0.5-0.8-0.9v3.1h-0.8v-7.2h0.8v1.1c0.2-0.4,0.5-0.7,0.8-0.9s0.8-0.3,1.2-0.3
		C169.7,109.9,170.1,110,170.5,110.2z M170,114.3c0.3-0.2,0.5-0.4,0.7-0.7s0.2-0.6,0.2-1s-0.1-0.7-0.2-1s-0.4-0.5-0.7-0.7
		s-0.6-0.3-1-0.3c-0.4,0-0.7,0.1-1,0.2s-0.5,0.4-0.7,0.7s-0.2,0.6-0.2,1c0,0.4,0.1,0.7,0.2,1s0.4,0.5,0.7,0.7s0.6,0.3,1,0.3
		C169.4,114.5,169.8,114.4,170,114.3z"/>
	<path fill="#0A0A0A" d="M173.2,115.2v-7.4h0.8v7.4H173.2z"/>
	<path fill="#0A0A0A" d="M179.2,114.4c-0.4,0.6-1.1,0.8-1.9,0.8c-0.4,0-0.7-0.1-0.9-0.2s-0.5-0.3-0.6-0.6s-0.2-0.5-0.2-0.8
		c0-0.5,0.2-0.8,0.5-1.1s0.8-0.4,1.5-0.4h1.7v-0.3c0-0.4-0.1-0.7-0.4-0.9s-0.6-0.3-1.1-0.3c-0.5,0-1.1,0.2-1.7,0.6l-0.3-0.6
		c0.4-0.2,0.7-0.4,1-0.5s0.7-0.2,1.1-0.2c0.6,0,1.1,0.2,1.5,0.5s0.5,0.8,0.5,1.3l0,3.5h-0.8V114.4z M178.5,114.2
		c0.3-0.2,0.5-0.5,0.6-0.9v-0.6h-1.6c-0.9,0-1.3,0.3-1.3,0.8c0,0.3,0.1,0.5,0.3,0.7s0.5,0.3,0.9,0.3
		C177.8,114.6,178.2,114.5,178.5,114.2z"/>
	<path fill="#0A0A0A" d="M183.2,115.2c-0.4,0-0.7-0.1-1-0.4s-0.4-0.6-0.4-1.1v-3h-0.8v-0.6h0.8v-1.4h0.8v1.4l1.7,0v0.6h-1.7v2.9
		c0,0.3,0.1,0.5,0.2,0.7s0.3,0.2,0.5,0.2c0.3,0,0.6-0.1,0.8-0.3l0.2,0.6C184,115.1,183.6,115.2,183.2,115.2z"/>
	<path fill="#0A0A0A" d="M186.7,108.7c-0.2,0.2-0.3,0.4-0.3,0.7v0.7h1.5v0.6h-1.5v4.5h-0.8v-4.5H185v-0.6h0.7v-0.6
		c0-0.4,0.1-0.7,0.2-1s0.4-0.5,0.6-0.6s0.5-0.2,0.8-0.2c0.4,0,0.8,0.1,1.1,0.4l-0.3,0.6c-0.3-0.2-0.5-0.3-0.8-0.3
		C187.1,108.5,186.9,108.6,186.7,108.7z"/>
	<path fill="#0A0A0A" d="M192.2,110.2c0.4,0.2,0.7,0.5,0.9,0.9s0.3,0.9,0.3,1.4c0,0.5-0.1,1-0.3,1.4s-0.5,0.7-0.9,0.9
		s-0.9,0.3-1.4,0.3s-1-0.1-1.4-0.3s-0.7-0.5-0.9-0.9s-0.3-0.9-0.3-1.4c0-0.5,0.1-1,0.3-1.4s0.5-0.7,0.9-0.9s0.9-0.3,1.4-0.3
		S191.8,110,192.2,110.2z M189.9,110.9c-0.3,0.2-0.5,0.4-0.7,0.7s-0.2,0.6-0.2,1c0,0.4,0.1,0.7,0.2,1s0.4,0.5,0.7,0.7s0.6,0.3,1,0.3
		s0.7-0.1,1-0.3s0.5-0.4,0.7-0.7s0.2-0.6,0.2-1s-0.1-0.7-0.2-1s-0.4-0.5-0.7-0.7s-0.6-0.2-1-0.2
		C190.5,110.6,190.1,110.7,189.9,110.9z"/>
	<path fill="#0A0A0A" d="M196.4,110.2c0.3-0.2,0.7-0.3,1.1-0.3v0.8c-0.5,0-1,0.1-1.3,0.5s-0.5,0.7-0.6,1.3v2.8h-0.8v-5.3h0.8v1.2
		C195.8,110.7,196.1,110.4,196.4,110.2z"/>
	<path fill="#0A0A0A" d="M206.8,110.4c0.3,0.4,0.5,0.9,0.5,1.5v3.3h-0.8v-3c0-0.5-0.1-0.8-0.4-1.1s-0.6-0.4-1.1-0.4
		c-0.5,0-1,0.2-1.3,0.5s-0.5,0.8-0.5,1.4v2.6h-0.8v-3c0-0.5-0.1-0.8-0.4-1.1s-0.6-0.4-1.1-0.4c-0.5,0-1,0.2-1.3,0.5
		s-0.5,0.8-0.5,1.4v2.6h-0.8v-5.3h0.8v1.2c0.2-0.4,0.4-0.7,0.8-0.9s0.8-0.3,1.2-0.3c0.5,0,0.9,0.1,1.2,0.4s0.5,0.6,0.7,1
		c0.2-0.5,0.4-0.8,0.8-1s0.8-0.3,1.3-0.3C205.9,109.9,206.4,110.1,206.8,110.4z"/>
	<path fill="#0A0A0A" d="M209.4,114.4c0.1,0.1,0.1,0.2,0.1,0.4c0,0.1-0.1,0.3-0.2,0.4l-0.5,0.7h-0.4l0.3-0.7
		c-0.1-0.1-0.2-0.2-0.2-0.4c0-0.1,0-0.3,0.1-0.4s0.2-0.1,0.3-0.1S209.3,114.3,209.4,114.4z"/>
	<path fill="#0A0A0A" d="M218.3,115.2h-0.8V114c-0.3,0.8-1,1.2-2,1.2c-0.6,0-1.1-0.2-1.4-0.5s-0.5-0.9-0.5-1.5v-3.2h0.8v3
		c0,0.5,0.1,0.8,0.4,1.1s0.6,0.4,1.1,0.4c0.5,0,1-0.2,1.3-0.5s0.5-0.8,0.5-1.4v-2.6h0.8V115.2z"/>
	<path fill="#0A0A0A" d="M222.5,110c0.3,0.1,0.5,0.2,0.8,0.4L223,111c-0.2-0.1-0.4-0.2-0.7-0.3s-0.5-0.1-0.7-0.1
		c-0.3,0-0.6,0.1-0.8,0.2s-0.3,0.3-0.3,0.5c0,0.2,0.1,0.3,0.2,0.4s0.2,0.2,0.4,0.3s0.4,0.1,0.7,0.2c0.4,0.1,0.7,0.2,0.9,0.3
		s0.4,0.3,0.6,0.5s0.2,0.5,0.2,0.8c0,0.5-0.2,0.9-0.6,1.1s-0.8,0.4-1.4,0.4c-0.4,0-0.8-0.1-1.1-0.2s-0.7-0.3-0.9-0.5l0.3-0.6
		c0.2,0.2,0.5,0.4,0.8,0.5s0.6,0.2,0.9,0.2c0.3,0,0.6-0.1,0.8-0.2s0.3-0.3,0.3-0.6s-0.1-0.4-0.3-0.6s-0.5-0.2-0.9-0.4
		c-0.4-0.1-0.7-0.2-0.9-0.3s-0.4-0.2-0.6-0.4s-0.2-0.5-0.2-0.8c0-0.5,0.2-0.8,0.5-1.1s0.8-0.4,1.3-0.4
		C221.9,109.9,222.2,109.9,222.5,110z"/>
	<path fill="#0A0A0A" d="M228.7,110.7c0.4,0.5,0.6,1.3,0.6,2.2H225c0.1,0.5,0.3,0.9,0.6,1.2s0.8,0.5,1.3,0.5c0.3,0,0.6-0.1,0.9-0.2
		s0.5-0.3,0.7-0.5l0.4,0.5c-0.3,0.3-0.6,0.5-0.9,0.6s-0.8,0.2-1.2,0.2c-0.5,0-1-0.1-1.4-0.3s-0.7-0.5-0.9-0.9s-0.3-0.9-0.3-1.4
		s0.1-1,0.3-1.4s0.5-0.7,0.9-0.9s0.9-0.3,1.4-0.3C227.7,109.9,228.3,110.2,228.7,110.7z M228,111c-0.3-0.3-0.7-0.4-1.2-0.4
		c-0.5,0-0.9,0.1-1.3,0.4s-0.5,0.7-0.6,1.2h3.6C228.5,111.7,228.4,111.3,228,111z"/>
	<path fill="#0A0A0A" d="M232.1,110.2c0.3-0.2,0.7-0.3,1.1-0.3v0.8c-0.5,0-1,0.1-1.3,0.5s-0.5,0.7-0.6,1.3v2.8h-0.8v-5.3h0.8v1.2
		C231.6,110.7,231.8,110.4,232.1,110.2z"/>
	<path fill="#0A0A0A" d="M240.3,114.4c-0.4,0.6-1.1,0.8-1.9,0.8c-0.4,0-0.7-0.1-0.9-0.2s-0.5-0.3-0.6-0.6s-0.2-0.5-0.2-0.8
		c0-0.5,0.2-0.8,0.5-1.1s0.8-0.4,1.5-0.4h1.7v-0.3c0-0.4-0.1-0.7-0.4-0.9s-0.6-0.3-1.1-0.3c-0.5,0-1.1,0.2-1.7,0.6l-0.3-0.6
		c0.4-0.2,0.7-0.4,1-0.5s0.7-0.2,1.1-0.2c0.6,0,1.1,0.2,1.5,0.5s0.5,0.8,0.5,1.3l0,3.5h-0.8V114.4z M239.7,114.2
		c0.3-0.2,0.5-0.5,0.6-0.9v-0.6h-1.6c-0.9,0-1.3,0.3-1.3,0.8c0,0.3,0.1,0.5,0.3,0.7s0.5,0.3,0.9,0.3
		C239,114.6,239.4,114.5,239.7,114.2z"/>
	<path fill="#0A0A0A" d="M246.1,110.1c0.3,0.1,0.6,0.3,0.9,0.6l-0.4,0.6c-0.4-0.4-0.9-0.6-1.6-0.6c-0.4,0-0.7,0.1-1,0.2
		s-0.5,0.4-0.7,0.7s-0.2,0.6-0.2,1c0,0.4,0.1,0.7,0.2,1s0.4,0.5,0.7,0.7s0.6,0.3,1,0.3c0.3,0,0.7-0.1,0.9-0.2s0.5-0.3,0.7-0.5
		l0.4,0.5c-0.2,0.3-0.5,0.5-0.9,0.7s-0.8,0.2-1.2,0.2c-0.5,0-1-0.1-1.4-0.3s-0.7-0.5-0.9-0.9s-0.3-0.9-0.3-1.4s0.1-1,0.3-1.4
		s0.5-0.7,0.9-0.9s0.9-0.3,1.4-0.3C245.4,109.9,245.7,110,246.1,110.1z"/>
	<path fill="#0A0A0A" d="M251.4,110.1c0.3,0.1,0.6,0.3,0.9,0.6l-0.4,0.6c-0.4-0.4-0.9-0.6-1.6-0.6c-0.4,0-0.7,0.1-1,0.2
		s-0.5,0.4-0.7,0.7s-0.2,0.6-0.2,1c0,0.4,0.1,0.7,0.2,1s0.4,0.5,0.7,0.7s0.6,0.3,1,0.3c0.3,0,0.7-0.1,0.9-0.2s0.5-0.3,0.7-0.5
		l0.4,0.5c-0.2,0.3-0.5,0.5-0.9,0.7s-0.8,0.2-1.2,0.2c-0.5,0-1-0.1-1.4-0.3s-0.7-0.5-0.9-0.9s-0.3-0.9-0.3-1.4s0.1-1,0.3-1.4
		s0.5-0.7,0.9-0.9s0.9-0.3,1.4-0.3C250.7,109.9,251.1,110,251.4,110.1z"/>
	<path fill="#0A0A0A" d="M257.1,110.2c0.4,0.2,0.7,0.5,0.9,0.9s0.3,0.9,0.3,1.4c0,0.5-0.1,1-0.3,1.4s-0.5,0.7-0.9,0.9
		s-0.9,0.3-1.4,0.3s-1-0.1-1.4-0.3s-0.7-0.5-0.9-0.9s-0.3-0.9-0.3-1.4c0-0.5,0.1-1,0.3-1.4s0.5-0.7,0.9-0.9s0.9-0.3,1.4-0.3
		S256.7,110,257.1,110.2z M254.7,110.9c-0.3,0.2-0.5,0.4-0.7,0.7s-0.2,0.6-0.2,1c0,0.4,0.1,0.7,0.2,1s0.4,0.5,0.7,0.7s0.6,0.3,1,0.3
		s0.7-0.1,1-0.3s0.5-0.4,0.7-0.7s0.2-0.6,0.2-1s-0.1-0.7-0.2-1s-0.4-0.5-0.7-0.7s-0.6-0.2-1-0.2C255.3,110.6,255,110.7,254.7,110.9z
		"/>
	<path fill="#0A0A0A" d="M264.3,115.2h-0.8V114c-0.3,0.8-1,1.2-2,1.2c-0.6,0-1.1-0.2-1.4-0.5s-0.5-0.9-0.5-1.5v-3.2h0.8v3
		c0,0.5,0.1,0.8,0.4,1.1s0.6,0.4,1.1,0.4c0.5,0,1-0.2,1.3-0.5s0.5-0.8,0.5-1.4v-2.6h0.8V115.2z"/>
	<path fill="#0A0A0A" d="M270.5,110.4c0.4,0.4,0.5,0.9,0.5,1.5v3.3h-0.8v-3c0-0.5-0.1-0.8-0.4-1.1s-0.6-0.4-1.1-0.4
		c-0.5,0-0.9,0.2-1.2,0.5s-0.5,0.7-0.5,1.2v2.8h-0.8v-5.3h0.8v1.2c0.4-0.8,1-1.2,2-1.2C269.6,109.9,270.1,110.1,270.5,110.4z"/>
	<path fill="#0A0A0A" d="M274.3,115.2c-0.4,0-0.7-0.1-1-0.4s-0.4-0.6-0.4-1.1v-3h-0.8v-0.6h0.8v-1.4h0.8v1.4l1.7,0v0.6h-1.7v2.9
		c0,0.3,0.1,0.5,0.2,0.7s0.3,0.2,0.5,0.2c0.3,0,0.6-0.1,0.8-0.3l0.2,0.6C275.1,115.1,274.7,115.2,274.3,115.2z"/>
</g>
<g>
	<path fill="#0A0A0A" d="M10.2,73l0-5.8l-2.5,5H7.2l-2.5-5V73H3.9v-7h1l2.6,5l2.5-5h1v7H10.2z"/>
	<path fill="#0A0A0A" d="M16.5,68c0.4,0.2,0.7,0.5,0.9,0.9s0.3,0.9,0.3,1.4c0,0.5-0.1,1-0.3,1.4s-0.5,0.7-0.9,0.9S15.6,73,15.1,73
		s-1-0.1-1.4-0.3s-0.7-0.5-0.9-0.9s-0.3-0.9-0.3-1.4c0-0.5,0.1-1,0.3-1.4s0.5-0.7,0.9-0.9s0.9-0.3,1.4-0.3S16.1,67.8,16.5,68z
		 M14.1,68.7c-0.3,0.2-0.5,0.4-0.7,0.7s-0.2,0.6-0.2,1c0,0.4,0.1,0.7,0.2,1s0.4,0.5,0.7,0.7s0.6,0.3,1,0.3s0.7-0.1,1-0.3
		s0.5-0.4,0.7-0.7s0.2-0.6,0.2-1s-0.1-0.7-0.2-1s-0.4-0.5-0.7-0.7s-0.6-0.2-1-0.2C14.7,68.4,14.4,68.5,14.1,68.7z"/>
	<path fill="#0A0A0A" d="M23.4,68.2c0.4,0.4,0.5,0.9,0.5,1.5V73h-0.8v-3c0-0.5-0.1-0.8-0.4-1.1s-0.6-0.4-1.1-0.4
		c-0.5,0-0.9,0.2-1.2,0.5s-0.5,0.7-0.5,1.2V73h-0.8v-5.3h0.8v1.2c0.4-0.8,1-1.2,2-1.2C22.6,67.7,23.1,67.9,23.4,68.2z"/>
	<path fill="#0A0A0A" d="M27.2,73c-0.4,0-0.7-0.1-1-0.4s-0.4-0.6-0.4-1.1v-3h-0.8v-0.6h0.8v-1.4h0.8v1.4l1.7,0v0.6h-1.7v2.9
		c0,0.3,0.1,0.5,0.2,0.7s0.3,0.2,0.5,0.2c0.3,0,0.6-0.1,0.8-0.3l0.2,0.6C28,72.9,27.6,73,27.2,73z"/>
	<path fill="#0A0A0A" d="M33.9,68.2c0.4,0.4,0.5,0.9,0.5,1.5V73h-0.8v-3c0-0.5-0.1-0.8-0.4-1.1s-0.6-0.4-1.1-0.4
		c-0.6,0-1,0.2-1.3,0.5s-0.5,0.8-0.5,1.4V73h-0.8v-7.4h0.8v3.3c0.3-0.8,1-1.2,2-1.2C33.1,67.7,33.6,67.9,33.9,68.2z"/>
	<path fill="#0A0A0A" d="M36.3,73v-7.4H37V73H36.3z"/>
	<path fill="#0A0A0A" d="M40,74.7c-0.3,0.2-0.6,0.3-0.9,0.3c-0.4,0-0.8-0.1-1.1-0.4l0.3-0.6c0.2,0.2,0.5,0.2,0.7,0.2
		c0.2,0,0.4-0.1,0.6-0.2s0.3-0.3,0.4-0.6l0.2-0.5L38,67.7h0.8l1.7,4.4l1.7-4.4h0.8l-2.4,6C40.5,74.2,40.3,74.5,40,74.7z"/>
	<path fill="#0A0A0A" d="M51.8,72.3c-0.5,0.5-1.2,0.8-2.2,0.8c-0.9,0-1.6-0.3-2.2-0.8s-0.8-1.2-0.8-2.1V66h0.8v4.1
		c0,0.7,0.2,1.2,0.6,1.6s0.9,0.6,1.6,0.6c0.7,0,1.2-0.2,1.6-0.6s0.6-0.9,0.6-1.6V66h0.8v4.1C52.6,71,52.3,71.7,51.8,72.3z"/>
	<path fill="#0A0A0A" d="M58.7,68.2c0.4,0.4,0.5,0.9,0.5,1.5V73h-0.8v-3c0-0.5-0.1-0.8-0.4-1.1s-0.6-0.4-1.1-0.4
		c-0.5,0-0.9,0.2-1.2,0.5s-0.5,0.7-0.5,1.2V73h-0.8v-5.3h0.8v1.2c0.4-0.8,1-1.2,2-1.2C57.9,67.7,58.4,67.9,58.7,68.2z"/>
	<path fill="#0A0A0A" d="M61.7,65.8c0.1,0.1,0.1,0.2,0.1,0.4s0,0.3-0.1,0.4s-0.2,0.2-0.4,0.2s-0.3-0.1-0.4-0.2s-0.1-0.2-0.1-0.4
		c0-0.2,0-0.3,0.1-0.4s0.2-0.2,0.4-0.2S61.6,65.7,61.7,65.8z M61,73v-5.3h0.8V73H61z"/>
	<path fill="#0A0A0A" d="M68.5,74.9h-0.8v-3.1c-0.2,0.4-0.5,0.7-0.8,0.9S66.1,73,65.7,73c-0.5,0-0.9-0.1-1.3-0.3s-0.7-0.5-0.9-0.9
		s-0.3-0.9-0.3-1.4s0.1-1,0.3-1.4s0.5-0.7,0.9-0.9s0.8-0.3,1.3-0.3c0.5,0,0.9,0.1,1.2,0.3s0.6,0.5,0.8,0.9v-1.1h0.8V74.9z
		 M66.8,72.1c0.3-0.2,0.5-0.4,0.7-0.7s0.2-0.6,0.2-1c0-0.4-0.1-0.7-0.2-1s-0.4-0.5-0.7-0.7s-0.6-0.3-1-0.3s-0.7,0.1-1,0.3
		s-0.5,0.4-0.7,0.7s-0.2,0.6-0.2,1c0,0.4,0.1,0.7,0.2,1s0.4,0.5,0.7,0.7s0.6,0.3,1,0.3S66.5,72.3,66.8,72.1z"/>
	<path fill="#0A0A0A" d="M75,73h-0.8v-1.2c-0.3,0.8-1,1.2-2,1.2c-0.6,0-1.1-0.2-1.4-0.5s-0.5-0.9-0.5-1.5v-3.2H71v3
		c0,0.5,0.1,0.8,0.4,1.1s0.6,0.4,1.1,0.4c0.5,0,1-0.2,1.3-0.5s0.5-0.8,0.5-1.4v-2.6H75V73z"/>
	<path fill="#0A0A0A" d="M80.9,68.5c0.4,0.5,0.6,1.3,0.6,2.2h-4.3c0.1,0.5,0.3,0.9,0.6,1.2s0.8,0.5,1.3,0.5c0.3,0,0.6-0.1,0.9-0.2
		s0.5-0.3,0.7-0.5l0.4,0.5c-0.3,0.3-0.6,0.5-0.9,0.6S79.4,73,79,73c-0.5,0-1-0.1-1.4-0.3s-0.7-0.5-0.9-0.9s-0.3-0.9-0.3-1.4
		s0.1-1,0.3-1.4s0.5-0.7,0.9-0.9s0.9-0.3,1.4-0.3C79.8,67.7,80.5,68,80.9,68.5z M80.2,68.8c-0.3-0.3-0.7-0.4-1.2-0.4
		c-0.5,0-0.9,0.1-1.3,0.4s-0.5,0.7-0.6,1.2h3.6C80.7,69.5,80.5,69.1,80.2,68.8z"/>
	<path fill="#0A0A0A" d="M87.5,73l-2.8-7h0.9l2.4,6.1l2.4-6.1h0.8l-2.9,7H87.5z"/>
	<path fill="#0A0A0A" d="M92.8,65.8c0.1,0.1,0.1,0.2,0.1,0.4s0,0.3-0.1,0.4s-0.2,0.2-0.4,0.2s-0.3-0.1-0.4-0.2S92,66.4,92,66.2
		c0-0.2,0-0.3,0.1-0.4s0.2-0.2,0.4-0.2S92.7,65.7,92.8,65.8z M92.1,73v-5.3h0.8V73H92.1z"/>
	<path fill="#0A0A0A" d="M97.1,67.8c0.3,0.1,0.5,0.2,0.8,0.4l-0.3,0.6c-0.2-0.1-0.4-0.2-0.7-0.3s-0.5-0.1-0.7-0.1
		c-0.3,0-0.6,0.1-0.8,0.2s-0.3,0.3-0.3,0.5c0,0.2,0.1,0.3,0.2,0.4s0.2,0.2,0.4,0.3s0.4,0.1,0.7,0.2c0.4,0.1,0.7,0.2,0.9,0.3
		s0.4,0.3,0.6,0.5s0.2,0.5,0.2,0.8c0,0.5-0.2,0.9-0.6,1.1S96.6,73,96.1,73c-0.4,0-0.8-0.1-1.1-0.2s-0.7-0.3-0.9-0.5l0.3-0.6
		c0.2,0.2,0.5,0.4,0.8,0.5s0.6,0.2,0.9,0.2c0.3,0,0.6-0.1,0.8-0.2s0.3-0.3,0.3-0.6s-0.1-0.4-0.3-0.6s-0.5-0.2-0.9-0.4
		c-0.4-0.1-0.7-0.2-0.9-0.3s-0.4-0.2-0.6-0.4s-0.2-0.5-0.2-0.8c0-0.5,0.2-0.8,0.5-1.1s0.8-0.4,1.3-0.4
		C96.5,67.7,96.8,67.7,97.1,67.8z"/>
	<path fill="#0A0A0A" d="M100,65.8c0.1,0.1,0.1,0.2,0.1,0.4s0,0.3-0.1,0.4s-0.2,0.2-0.4,0.2s-0.3-0.1-0.4-0.2s-0.1-0.2-0.1-0.4
		c0-0.2,0-0.3,0.1-0.4s0.2-0.2,0.4-0.2S99.9,65.7,100,65.8z M99.3,73v-5.3h0.8V73H99.3z"/>
	<path fill="#0A0A0A" d="M103.5,73c-0.4,0-0.7-0.1-1-0.4s-0.4-0.6-0.4-1.1v-3h-0.8v-0.6h0.8v-1.4h0.8v1.4l1.7,0v0.6h-1.7v2.9
		c0,0.3,0.1,0.5,0.2,0.7s0.3,0.2,0.5,0.2c0.3,0,0.6-0.1,0.8-0.3l0.2,0.6C104.3,72.9,103.9,73,103.5,73z"/>
	<path fill="#0A0A0A" d="M109.3,68c0.4,0.2,0.7,0.5,0.9,0.9s0.3,0.9,0.3,1.4c0,0.5-0.1,1-0.3,1.4s-0.5,0.7-0.9,0.9s-0.9,0.3-1.4,0.3
		s-1-0.1-1.4-0.3s-0.7-0.5-0.9-0.9s-0.3-0.9-0.3-1.4c0-0.5,0.1-1,0.3-1.4s0.5-0.7,0.9-0.9s0.9-0.3,1.4-0.3S108.9,67.8,109.3,68z
		 M106.9,68.7c-0.3,0.2-0.5,0.4-0.7,0.7s-0.2,0.6-0.2,1c0,0.4,0.1,0.7,0.2,1s0.4,0.5,0.7,0.7s0.6,0.3,1,0.3s0.7-0.1,1-0.3
		s0.5-0.4,0.7-0.7s0.2-0.6,0.2-1s-0.1-0.7-0.2-1s-0.4-0.5-0.7-0.7s-0.6-0.2-1-0.2C107.5,68.4,107.2,68.5,106.9,68.7z"/>
	<path fill="#0A0A0A" d="M113.5,68c0.3-0.2,0.7-0.3,1.1-0.3v0.8c-0.5,0-1,0.1-1.3,0.5s-0.5,0.7-0.6,1.3V73h-0.8v-5.3h0.8v1.2
		C112.9,68.5,113.1,68.2,113.5,68z"/>
	<path fill="#0A0A0A" d="M118,67.8c0.3,0.1,0.5,0.2,0.8,0.4l-0.3,0.6c-0.2-0.1-0.4-0.2-0.7-0.3s-0.5-0.1-0.7-0.1
		c-0.3,0-0.6,0.1-0.8,0.2s-0.3,0.3-0.3,0.5c0,0.2,0.1,0.3,0.2,0.4s0.2,0.2,0.4,0.3s0.4,0.1,0.7,0.2c0.4,0.1,0.7,0.2,0.9,0.3
		s0.4,0.3,0.6,0.5s0.2,0.5,0.2,0.8c0,0.5-0.2,0.9-0.6,1.1S117.5,73,117,73c-0.4,0-0.8-0.1-1.1-0.2s-0.7-0.3-0.9-0.5l0.3-0.6
		c0.2,0.2,0.5,0.4,0.8,0.5s0.6,0.2,0.9,0.2c0.3,0,0.6-0.1,0.8-0.2s0.3-0.3,0.3-0.6s-0.1-0.4-0.3-0.6s-0.5-0.2-0.9-0.4
		c-0.4-0.1-0.7-0.2-0.9-0.3s-0.4-0.2-0.6-0.4s-0.2-0.5-0.2-0.8c0-0.5,0.2-0.8,0.5-1.1s0.8-0.4,1.3-0.4
		C117.4,67.7,117.7,67.7,118,67.8z"/>
</g>
<g>
	<path fill="#0A0A0A" d="M10.2,115.4l0-5.8l-2.5,5H7.2l-2.5-5v5.8H3.9v-7h1l2.6,5l2.5-5h1v7H10.2z"/>
	<path fill="#0A0A0A" d="M16.5,110.4c0.4,0.2,0.7,0.5,0.9,0.9s0.3,0.9,0.3,1.4c0,0.5-0.1,1-0.3,1.4s-0.5,0.7-0.9,0.9
		s-0.9,0.3-1.4,0.3s-1-0.1-1.4-0.3s-0.7-0.5-0.9-0.9s-0.3-0.9-0.3-1.4c0-0.5,0.1-1,0.3-1.4s0.5-0.7,0.9-0.9s0.9-0.3,1.4-0.3
		S16.1,110.2,16.5,110.4z M14.1,111.1c-0.3,0.2-0.5,0.4-0.7,0.7s-0.2,0.6-0.2,1c0,0.4,0.1,0.7,0.2,1s0.4,0.5,0.7,0.7s0.6,0.3,1,0.3
		s0.7-0.1,1-0.3s0.5-0.4,0.7-0.7s0.2-0.6,0.2-1s-0.1-0.7-0.2-1s-0.4-0.5-0.7-0.7s-0.6-0.2-1-0.2C14.7,110.8,14.4,110.9,14.1,111.1z"
		/>
	<path fill="#0A0A0A" d="M23.4,110.6c0.4,0.4,0.5,0.9,0.5,1.5v3.3h-0.8v-3c0-0.5-0.1-0.8-0.4-1.1s-0.6-0.4-1.1-0.4
		c-0.5,0-0.9,0.2-1.2,0.5s-0.5,0.7-0.5,1.2v2.8h-0.8v-5.3h0.8v1.2c0.4-0.8,1-1.2,2-1.2C22.6,110.1,23.1,110.3,23.4,110.6z"/>
	<path fill="#0A0A0A" d="M27.2,115.4c-0.4,0-0.7-0.1-1-0.4s-0.4-0.6-0.4-1.1v-3h-0.8v-0.6h0.8v-1.4h0.8v1.4l1.7,0v0.6h-1.7v2.9
		c0,0.3,0.1,0.5,0.2,0.7s0.3,0.2,0.5,0.2c0.3,0,0.6-0.1,0.8-0.3l0.2,0.6C28,115.3,27.6,115.4,27.2,115.4z"/>
	<path fill="#0A0A0A" d="M33.9,110.6c0.4,0.4,0.5,0.9,0.5,1.5v3.3h-0.8v-3c0-0.5-0.1-0.8-0.4-1.1s-0.6-0.4-1.1-0.4
		c-0.6,0-1,0.2-1.3,0.5s-0.5,0.8-0.5,1.4v2.6h-0.8V108h0.8v3.3c0.3-0.8,1-1.2,2-1.2C33.1,110.1,33.6,110.3,33.9,110.6z"/>
	<path fill="#0A0A0A" d="M36.3,115.4V108H37v7.4H36.3z"/>
	<path fill="#0A0A0A" d="M40,117.1c-0.3,0.2-0.6,0.3-0.9,0.3c-0.4,0-0.8-0.1-1.1-0.4l0.3-0.6c0.2,0.2,0.5,0.2,0.7,0.2
		c0.2,0,0.4-0.1,0.6-0.2s0.3-0.3,0.4-0.6l0.2-0.5l-2.2-5.2h0.8l1.7,4.4l1.7-4.4h0.8l-2.4,6C40.5,116.6,40.3,116.9,40,117.1z"/>
	<path fill="#0A0A0A" d="M49,109.2v6.2h-0.8v-6.2h-2.3v-0.8h5.4v0.8H49z"/>
	<path fill="#0A0A0A" d="M55.1,110.4c0.4,0.2,0.7,0.5,0.9,0.9s0.3,0.9,0.3,1.4c0,0.5-0.1,1-0.3,1.4s-0.5,0.7-0.9,0.9
		s-0.9,0.3-1.4,0.3s-1-0.1-1.4-0.3s-0.7-0.5-0.9-0.9s-0.3-0.9-0.3-1.4c0-0.5,0.1-1,0.3-1.4s0.5-0.7,0.9-0.9s0.9-0.3,1.4-0.3
		S54.7,110.2,55.1,110.4z M52.7,111.1c-0.3,0.2-0.5,0.4-0.7,0.7s-0.2,0.6-0.2,1c0,0.4,0.1,0.7,0.2,1s0.4,0.5,0.7,0.7s0.6,0.3,1,0.3
		s0.7-0.1,1-0.3s0.5-0.4,0.7-0.7s0.2-0.6,0.2-1s-0.1-0.7-0.2-1s-0.4-0.5-0.7-0.7s-0.6-0.2-1-0.2C53.4,110.8,53,110.9,52.7,111.1z"/>
	<path fill="#0A0A0A" d="M59.3,115.4c-0.4,0-0.7-0.1-1-0.4s-0.4-0.6-0.4-1.1v-3h-0.8v-0.6h0.8v-1.4h0.8v1.4l1.7,0v0.6h-1.7v2.9
		c0,0.3,0.1,0.5,0.2,0.7s0.3,0.2,0.5,0.2c0.3,0,0.6-0.1,0.8-0.3l0.2,0.6C60.1,115.3,59.7,115.4,59.3,115.4z"/>
	<path fill="#0A0A0A" d="M64.9,114.6c-0.4,0.6-1.1,0.8-1.9,0.8c-0.4,0-0.7-0.1-0.9-0.2s-0.5-0.3-0.6-0.6s-0.2-0.5-0.2-0.8
		c0-0.5,0.2-0.8,0.5-1.1s0.8-0.4,1.5-0.4h1.7V112c0-0.4-0.1-0.7-0.4-0.9s-0.6-0.3-1.1-0.3c-0.5,0-1.1,0.2-1.7,0.6l-0.3-0.6
		c0.4-0.2,0.7-0.4,1-0.5s0.7-0.2,1.1-0.2c0.6,0,1.1,0.2,1.5,0.5s0.5,0.8,0.5,1.3l0,3.5h-0.8V114.6z M64.3,114.4
		c0.3-0.2,0.5-0.5,0.6-0.9v-0.6h-1.6c-0.9,0-1.3,0.3-1.3,0.8c0,0.3,0.1,0.5,0.3,0.7s0.5,0.3,0.9,0.3C63.6,114.8,64,114.7,64.3,114.4
		z"/>
	<path fill="#0A0A0A" d="M67.5,115.4V108h0.8v7.4H67.5z"/>
	<path fill="#0A0A0A" d="M74.9,115.4l-2.8-7h0.9l2.4,6.1l2.4-6.1h0.8l-2.9,7H74.9z"/>
	<path fill="#0A0A0A" d="M80.2,108.2c0.1,0.1,0.1,0.2,0.1,0.4s0,0.3-0.1,0.4s-0.2,0.2-0.4,0.2s-0.3-0.1-0.4-0.2s-0.1-0.2-0.1-0.4
		c0-0.2,0-0.3,0.1-0.4s0.2-0.2,0.4-0.2S80.1,108.1,80.2,108.2z M79.5,115.4v-5.3h0.8v5.3H79.5z"/>
	<path fill="#0A0A0A" d="M84.5,110.2c0.3,0.1,0.5,0.2,0.8,0.4l-0.3,0.6c-0.2-0.1-0.4-0.2-0.7-0.3s-0.5-0.1-0.7-0.1
		c-0.3,0-0.6,0.1-0.8,0.2s-0.3,0.3-0.3,0.5c0,0.2,0.1,0.3,0.2,0.4s0.2,0.2,0.4,0.3s0.4,0.1,0.7,0.2c0.4,0.1,0.7,0.2,0.9,0.3
		s0.4,0.3,0.6,0.5s0.2,0.5,0.2,0.8c0,0.5-0.2,0.9-0.6,1.1s-0.8,0.4-1.4,0.4c-0.4,0-0.8-0.1-1.1-0.2s-0.7-0.3-0.9-0.5l0.3-0.6
		c0.2,0.2,0.5,0.4,0.8,0.5s0.6,0.2,0.9,0.2c0.3,0,0.6-0.1,0.8-0.2s0.3-0.3,0.3-0.6s-0.1-0.4-0.3-0.6s-0.5-0.2-0.9-0.4
		c-0.4-0.1-0.7-0.2-0.9-0.3s-0.4-0.2-0.6-0.4s-0.2-0.5-0.2-0.8c0-0.5,0.2-0.8,0.5-1.1s0.8-0.4,1.3-0.4
		C83.9,110.1,84.2,110.1,84.5,110.2z"/>
	<path fill="#0A0A0A" d="M87.4,108.2c0.1,0.1,0.1,0.2,0.1,0.4s0,0.3-0.1,0.4s-0.2,0.2-0.4,0.2s-0.3-0.1-0.4-0.2s-0.1-0.2-0.1-0.4
		c0-0.2,0-0.3,0.1-0.4s0.2-0.2,0.4-0.2S87.3,108.1,87.4,108.2z M86.7,115.4v-5.3h0.8v5.3H86.7z"/>
	<path fill="#0A0A0A" d="M90.9,115.4c-0.4,0-0.7-0.1-1-0.4s-0.4-0.6-0.4-1.1v-3h-0.8v-0.6h0.8v-1.4h0.8v1.4l1.7,0v0.6h-1.7v2.9
		c0,0.3,0.1,0.5,0.2,0.7s0.3,0.2,0.5,0.2c0.3,0,0.6-0.1,0.8-0.3l0.2,0.6C91.7,115.3,91.3,115.4,90.9,115.4z"/>
	<path fill="#0A0A0A" d="M96.7,110.4c0.4,0.2,0.7,0.5,0.9,0.9s0.3,0.9,0.3,1.4c0,0.5-0.1,1-0.3,1.4s-0.5,0.7-0.9,0.9
		s-0.9,0.3-1.4,0.3s-1-0.1-1.4-0.3s-0.7-0.5-0.9-0.9s-0.3-0.9-0.3-1.4c0-0.5,0.1-1,0.3-1.4s0.5-0.7,0.9-0.9s0.9-0.3,1.4-0.3
		S96.3,110.2,96.7,110.4z M94.3,111.1c-0.3,0.2-0.5,0.4-0.7,0.7s-0.2,0.6-0.2,1c0,0.4,0.1,0.7,0.2,1s0.4,0.5,0.7,0.7s0.6,0.3,1,0.3
		s0.7-0.1,1-0.3s0.5-0.4,0.7-0.7s0.2-0.6,0.2-1s-0.1-0.7-0.2-1s-0.4-0.5-0.7-0.7s-0.6-0.2-1-0.2C95,110.8,94.6,110.9,94.3,111.1z"/>
	<path fill="#0A0A0A" d="M100.9,110.4c0.3-0.2,0.7-0.3,1.1-0.3v0.8c-0.5,0-1,0.1-1.3,0.5s-0.5,0.7-0.6,1.3v2.8h-0.8v-5.3h0.8v1.2
		C100.3,110.9,100.6,110.6,100.9,110.4z"/>
	<path fill="#0A0A0A" d="M105.4,110.2c0.3,0.1,0.5,0.2,0.8,0.4l-0.3,0.6c-0.2-0.1-0.4-0.2-0.7-0.3s-0.5-0.1-0.7-0.1
		c-0.3,0-0.6,0.1-0.8,0.2s-0.3,0.3-0.3,0.5c0,0.2,0.1,0.3,0.2,0.4s0.2,0.2,0.4,0.3s0.4,0.1,0.7,0.2c0.4,0.1,0.7,0.2,0.9,0.3
		s0.4,0.3,0.6,0.5s0.2,0.5,0.2,0.8c0,0.5-0.2,0.9-0.6,1.1s-0.8,0.4-1.4,0.4c-0.4,0-0.8-0.1-1.1-0.2s-0.7-0.3-0.9-0.5l0.3-0.6
		c0.2,0.2,0.5,0.4,0.8,0.5s0.6,0.2,0.9,0.2c0.3,0,0.6-0.1,0.8-0.2s0.3-0.3,0.3-0.6s-0.1-0.4-0.3-0.6s-0.5-0.2-0.9-0.4
		c-0.4-0.1-0.7-0.2-0.9-0.3s-0.4-0.2-0.6-0.4s-0.2-0.5-0.2-0.8c0-0.5,0.2-0.8,0.5-1.1s0.8-0.4,1.3-0.4
		C104.8,110.1,105.1,110.1,105.4,110.2z"/>
</g>
<g>
	<path fill="#844A85" d="M170.8,52.2v-4.3h-4.2v-3h4.2v-4.3h3.3v4.3h4.2v3h-4.2v4.3H170.8z"/>
	<path fill="#844A85" d="M180.2,38h6.8v16.8h-3.6V41.2h-3.2V38z"/>
	<path fill="#844A85" d="M197.4,55c-2.3,0-4.1-0.8-5.2-2.4c-1.2-1.6-1.7-3.7-1.7-6.3s0.6-4.7,1.7-6.3c1.2-1.6,2.9-2.4,5.2-2.4
		s4.1,0.8,5.2,2.4c1.2,1.6,1.7,3.7,1.7,6.3s-0.6,4.7-1.7,6.3C201.4,54.2,199.7,55,197.4,55z M194.9,42.3c-0.5,1-0.8,2.4-0.8,4.1
		c0,1.7,0.3,3,0.8,4.1c0.5,1,1.4,1.5,2.5,1.5s1.9-0.5,2.5-1.5s0.8-2.4,0.8-4.1c0-1.7-0.3-3-0.8-4.1s-1.4-1.5-2.5-1.5
		S195.4,41.2,194.9,42.3z"/>
</g>
<g>
	<path fill="#844A85" d="M8.2,54.4v-4.3H4v-3h4.2v-4.3h3.3v4.3h4.2v3h-4.2v4.3H8.2z"/>
	<path fill="#844A85" d="M18.6,43.4v-3.2h10.3v2.6l-3.4,3.9c1.3,0.2,2.4,0.8,3.1,1.7c0.7,0.9,1.1,1.9,1.1,3.1c0,1.8-0.6,3.1-1.8,4.1
		c-1.2,1-2.7,1.5-4.6,1.5s-3.7-0.7-5.6-2l1.5-3c1.6,1.1,3,1.7,4.2,1.7c0.8,0,1.4-0.2,1.9-0.6c0.5-0.4,0.7-0.9,0.7-1.6
		c0-0.7-0.3-1.2-0.8-1.7s-1.3-0.6-2.3-0.6c-0.5,0-1.3,0.2-2.2,0.5v-2.8l3.2-3.8H18.6z"/>
	<path fill="#844A85" d="M39.3,57.2c-2.3,0-4.1-0.8-5.2-2.4c-1.2-1.6-1.7-3.7-1.7-6.3s0.6-4.7,1.7-6.3c1.2-1.6,2.9-2.4,5.2-2.4
		s4.1,0.8,5.2,2.4c1.2,1.6,1.7,3.7,1.7,6.3s-0.6,4.7-1.7,6.3C43.3,56.4,41.6,57.2,39.3,57.2z M36.8,44.5c-0.5,1-0.8,2.4-0.8,4.1
		c0,1.7,0.3,3,0.8,4.1c0.5,1,1.4,1.5,2.5,1.5s1.9-0.5,2.5-1.5s0.8-2.4,0.8-4.1c0-1.7-0.3-3-0.8-4.1s-1.4-1.5-2.5-1.5
		S37.3,43.4,36.8,44.5z"/>
	<path fill="#844A85" d="M55.8,57.2c-2.3,0-4.1-0.8-5.2-2.4c-1.2-1.6-1.7-3.7-1.7-6.3s0.6-4.7,1.7-6.3c1.2-1.6,2.9-2.4,5.2-2.4
		s4.1,0.8,5.2,2.4c1.2,1.6,1.7,3.7,1.7,6.3s-0.6,4.7-1.7,6.3C59.9,56.4,58.2,57.2,55.8,57.2z M53.4,44.5c-0.5,1-0.8,2.4-0.8,4.1
		c0,1.7,0.3,3,0.8,4.1c0.5,1,1.4,1.5,2.5,1.5s1.9-0.5,2.5-1.5s0.8-2.4,0.8-4.1c0-1.7-0.3-3-0.8-4.1s-1.4-1.5-2.5-1.5
		S53.9,43.4,53.4,44.5z"/>
	<path fill="#844A85" d="M66.1,56.6c-0.4-0.4-0.6-0.9-0.6-1.5c0-0.6,0.2-1.1,0.6-1.5c0.4-0.4,0.9-0.6,1.5-0.6c0.6,0,1.1,0.2,1.5,0.6
		c0.4,0.4,0.6,0.9,0.6,1.5c0,0.6-0.2,1.1-0.6,1.5c-0.4,0.4-0.9,0.6-1.5,0.6C67,57.2,66.5,57,66.1,56.6z"/>
	<path fill="#844A85" d="M79.3,57.2c-2.3,0-4.1-0.8-5.2-2.4c-1.2-1.6-1.7-3.7-1.7-6.3s0.6-4.7,1.7-6.3c1.2-1.6,2.9-2.4,5.2-2.4
		s4.1,0.8,5.2,2.4c1.2,1.6,1.7,3.7,1.7,6.3s-0.6,4.7-1.7,6.3C83.4,56.4,81.6,57.2,79.3,57.2z M76.8,44.5c-0.5,1-0.8,2.4-0.8,4.1
		c0,1.7,0.3,3,0.8,4.1c0.5,1,1.4,1.5,2.5,1.5s1.9-0.5,2.5-1.5s0.8-2.4,0.8-4.1c0-1.7-0.3-3-0.8-4.1s-1.4-1.5-2.5-1.5
		S77.4,43.4,76.8,44.5z"/>
	<path fill="#844A85" d="M95.9,57.2c-2.3,0-4.1-0.8-5.2-2.4c-1.2-1.6-1.7-3.7-1.7-6.3s0.6-4.7,1.7-6.3c1.2-1.6,2.9-2.4,5.2-2.4
		s4.1,0.8,5.2,2.4c1.2,1.6,1.7,3.7,1.7,6.3s-0.6,4.7-1.7,6.3C99.9,56.4,98.2,57.2,95.9,57.2z M93.4,44.5c-0.5,1-0.8,2.4-0.8,4.1
		c0,1.7,0.3,3,0.8,4.1c0.5,1,1.4,1.5,2.5,1.5s1.9-0.5,2.5-1.5s0.8-2.4,0.8-4.1c0-1.7-0.3-3-0.8-4.1s-1.4-1.5-2.5-1.5
		S93.9,43.4,93.4,44.5z"/>
	<path fill="#844A85" d="M112.4,57.2c-2.3,0-4.1-0.8-5.2-2.4c-1.2-1.6-1.7-3.7-1.7-6.3s0.6-4.7,1.7-6.3c1.2-1.6,2.9-2.4,5.2-2.4
		s4.1,0.8,5.2,2.4c1.2,1.6,1.7,3.7,1.7,6.3s-0.6,4.7-1.7,6.3C116.5,56.4,114.8,57.2,112.4,57.2z M110,44.5c-0.5,1-0.8,2.4-0.8,4.1
		c0,1.7,0.3,3,0.8,4.1c0.5,1,1.4,1.5,2.5,1.5s1.9-0.5,2.5-1.5s0.8-2.4,0.8-4.1c0-1.7-0.3-3-0.8-4.1s-1.4-1.5-2.5-1.5
		S110.5,43.4,110,44.5z"/>
</g>
<g>
	<path fill="#844A85" d="M8.2,96.8v-4.3H4v-3h4.2v-4.3h3.3v4.3h4.2v3h-4.2v4.3H8.2z"/>
	<path fill="#844A85" d="M29,82.6v3.2h-6.6v2.8c0.5-0.1,1.1-0.2,1.7-0.2c1.6,0,3,0.5,4.2,1.5c1.2,1,1.8,2.3,1.8,3.9
		c0,1.7-0.6,3-1.8,4.1c-1.2,1.1-2.7,1.6-4.5,1.6c-2.3,0-4.2-0.8-5.7-2.5l2-2.7c0.1,0.1,0.3,0.3,0.6,0.5c0.2,0.2,0.7,0.5,1.3,0.8
		c0.6,0.3,1.3,0.5,1.9,0.5c0.6,0,1.2-0.2,1.7-0.6c0.5-0.4,0.7-1,0.7-1.7c0-0.8-0.3-1.3-0.8-1.7c-0.5-0.4-1.2-0.6-2.1-0.6
		s-1.8,0.3-3,0.9l-1.6-1.7v-8.2H29z"/>
	<path fill="#844A85" d="M39.4,99.6c-2.3,0-4.1-0.8-5.2-2.4c-1.2-1.6-1.7-3.7-1.7-6.3s0.6-4.7,1.7-6.3c1.2-1.6,2.9-2.4,5.2-2.4
		s4.1,0.8,5.2,2.4c1.2,1.6,1.7,3.7,1.7,6.3s-0.6,4.7-1.7,6.3C43.5,98.8,41.7,99.6,39.4,99.6z M36.9,86.9c-0.5,1-0.8,2.4-0.8,4.1
		c0,1.7,0.3,3,0.8,4.1c0.5,1,1.4,1.5,2.5,1.5s1.9-0.5,2.5-1.5s0.8-2.4,0.8-4.1c0-1.7-0.3-3-0.8-4.1s-1.4-1.5-2.5-1.5
		S37.5,85.8,36.9,86.9z"/>
	<path fill="#844A85" d="M56,99.6c-2.3,0-4.1-0.8-5.2-2.4c-1.2-1.6-1.7-3.7-1.7-6.3s0.6-4.7,1.7-6.3c1.2-1.6,2.9-2.4,5.2-2.4
		s4.1,0.8,5.2,2.4c1.2,1.6,1.7,3.7,1.7,6.3s-0.6,4.7-1.7,6.3C60,98.8,58.3,99.6,56,99.6z M53.5,86.9c-0.5,1-0.8,2.4-0.8,4.1
		c0,1.7,0.3,3,0.8,4.1c0.5,1,1.4,1.5,2.5,1.5s1.9-0.5,2.5-1.5s0.8-2.4,0.8-4.1c0-1.7-0.3-3-0.8-4.1s-1.4-1.5-2.5-1.5
		S54,85.8,53.5,86.9z"/>
	<path fill="#844A85" d="M66.2,99c-0.4-0.4-0.6-0.9-0.6-1.5c0-0.6,0.2-1.1,0.6-1.5c0.4-0.4,0.9-0.6,1.5-0.6c0.6,0,1.1,0.2,1.5,0.6
		c0.4,0.4,0.6,0.9,0.6,1.5c0,0.6-0.2,1.1-0.6,1.5c-0.4,0.4-0.9,0.6-1.5,0.6C67.1,99.6,66.6,99.4,66.2,99z"/>
	<path fill="#844A85" d="M79.4,99.6c-2.3,0-4.1-0.8-5.2-2.4c-1.2-1.6-1.7-3.7-1.7-6.3s0.6-4.7,1.7-6.3c1.2-1.6,2.9-2.4,5.2-2.4
		s4.1,0.8,5.2,2.4c1.2,1.6,1.7,3.7,1.7,6.3s-0.6,4.7-1.7,6.3C83.5,98.8,81.8,99.6,79.4,99.6z M77,86.9c-0.5,1-0.8,2.4-0.8,4.1
		c0,1.7,0.3,3,0.8,4.1c0.5,1,1.4,1.5,2.5,1.5s1.9-0.5,2.5-1.5s0.8-2.4,0.8-4.1c0-1.7-0.3-3-0.8-4.1s-1.4-1.5-2.5-1.5
		S77.5,85.8,77,86.9z"/>
	<path fill="#844A85" d="M96,99.6c-2.3,0-4.1-0.8-5.2-2.4c-1.2-1.6-1.7-3.7-1.7-6.3s0.6-4.7,1.7-6.3c1.2-1.6,2.9-2.4,5.2-2.4
		s4.1,0.8,5.2,2.4c1.2,1.6,1.7,3.7,1.7,6.3s-0.6,4.7-1.7,6.3C100,98.8,98.3,99.6,96,99.6z M93.5,86.9c-0.5,1-0.8,2.4-0.8,4.1
		c0,1.7,0.3,3,0.8,4.1c0.5,1,1.4,1.5,2.5,1.5s1.9-0.5,2.5-1.5s0.8-2.4,0.8-4.1c0-1.7-0.3-3-0.8-4.1s-1.4-1.5-2.5-1.5
		S94,85.8,93.5,86.9z"/>
	<path fill="#844A85" d="M112.6,99.6c-2.3,0-4.1-0.8-5.2-2.4c-1.2-1.6-1.7-3.7-1.7-6.3s0.6-4.7,1.7-6.3c1.2-1.6,2.9-2.4,5.2-2.4
		s4.1,0.8,5.2,2.4c1.2,1.6,1.7,3.7,1.7,6.3s-0.6,4.7-1.7,6.3C116.6,98.8,114.9,99.6,112.6,99.6z M110.1,86.9c-0.5,1-0.8,2.4-0.8,4.1
		c0,1.7,0.3,3,0.8,4.1c0.5,1,1.4,1.5,2.5,1.5s1.9-0.5,2.5-1.5s0.8-2.4,0.8-4.1c0-1.7-0.3-3-0.8-4.1s-1.4-1.5-2.5-1.5
		S110.6,85.8,110.1,86.9z"/>
</g>
<g>
	<path fill="#0A0A0A" d="M353.9,72.8V63h1.1v9.8H353.9z"/>
	<path fill="#0A0A0A" d="M363.8,66.1c0.5,0.5,0.7,1.2,0.7,2.1v4.6h-1.1v-4.3c0-0.7-0.2-1.2-0.6-1.5s-0.9-0.5-1.5-0.5
		c-0.7,0-1.3,0.2-1.7,0.7c-0.4,0.4-0.7,1-0.8,1.7v4h-1.1v-7.4h1.1V67c0.5-1.1,1.5-1.6,2.9-1.7C362.6,65.4,363.3,65.6,363.8,66.1z"/>
	<path fill="#0A0A0A" d="M368.3,72.8l-2.9-7.4h1.2l2.4,6.2l2.3-6.2h1.1l-2.9,7.4H368.3z"/>
	<path fill="#0A0A0A" d="M378.3,65.9c0.6,0.3,1,0.8,1.3,1.3c0.3,0.6,0.5,1.2,0.5,1.9c0,0.7-0.2,1.4-0.5,1.9c-0.3,0.6-0.8,1-1.3,1.3
		s-1.2,0.5-1.9,0.5c-0.7,0-1.4-0.2-1.9-0.5c-0.6-0.3-1-0.8-1.3-1.3c-0.3-0.6-0.5-1.2-0.5-1.9c0-0.7,0.2-1.4,0.5-1.9
		c0.3-0.6,0.8-1,1.3-1.3c0.6-0.3,1.2-0.5,1.9-0.5C377.1,65.4,377.8,65.6,378.3,65.9z M375,66.7c-0.4,0.2-0.7,0.6-0.9,1
		c-0.2,0.4-0.3,0.9-0.3,1.4c0,0.5,0.1,1,0.3,1.4c0.2,0.4,0.5,0.7,0.9,1c0.4,0.2,0.9,0.4,1.4,0.4s1-0.1,1.4-0.4
		c0.4-0.2,0.7-0.6,0.9-1c0.2-0.4,0.3-0.9,0.3-1.4s-0.1-1-0.3-1.4c-0.2-0.4-0.5-0.7-0.9-1c-0.4-0.2-0.9-0.3-1.4-0.3
		C375.9,66.4,375.5,66.5,375,66.7z"/>
	<path fill="#0A0A0A" d="M382.1,72.8V62.4h1.1v10.4H382.1z"/>
	<path fill="#0A0A0A" d="M387.6,72.8l-2.9-7.4h1.2l2.4,6.2l2.3-6.2h1.1l-2.9,7.4H387.6z"/>
	<path fill="#0A0A0A" d="M398.2,66.5c0.6,0.7,0.9,1.8,0.8,3h-6c0.1,0.7,0.4,1.3,0.9,1.7s1.1,0.6,1.8,0.6c0.5,0,0.9-0.1,1.3-0.2
		c0.4-0.2,0.7-0.4,1-0.7l0.6,0.6c-0.4,0.4-0.8,0.7-1.3,0.9c-0.5,0.2-1.1,0.3-1.7,0.3c-0.7,0-1.4-0.2-1.9-0.5c-0.6-0.3-1-0.8-1.3-1.3
		s-0.5-1.2-0.5-1.9s0.2-1.4,0.5-1.9c0.3-0.6,0.7-1,1.3-1.3s1.2-0.5,1.9-0.5C396.8,65.4,397.7,65.8,398.2,66.5z M397.3,67
		c-0.4-0.4-1-0.6-1.7-0.6c-0.7,0-1.3,0.2-1.8,0.6c-0.5,0.4-0.7,1-0.8,1.7h5C398,67.9,397.8,67.4,397.3,67z"/>
	<path fill="#0A0A0A" d="M412.4,66.1c0.5,0.5,0.7,1.2,0.7,2.1v4.6H412v-4.3c0-0.7-0.2-1.2-0.5-1.5c-0.4-0.4-0.9-0.6-1.5-0.6
		c-0.8,0-1.3,0.3-1.8,0.8c-0.4,0.5-0.6,1.1-0.6,2v3.6h-1.1v-4.3c0-0.7-0.2-1.2-0.5-1.5c-0.4-0.4-0.9-0.6-1.5-0.6
		c-0.7,0-1.3,0.3-1.8,0.8c-0.4,0.5-0.7,1.1-0.7,2v3.6h-1.1v-7.4h1.1v1.7c0.2-0.6,0.6-1,1.1-1.3c0.5-0.3,1.1-0.4,1.7-0.4
		c0.7,0,1.3,0.2,1.7,0.5c0.5,0.3,0.8,0.8,0.9,1.4c0.2-0.6,0.6-1.1,1.1-1.4s1.1-0.5,1.8-0.5C411.2,65.4,411.9,65.6,412.4,66.1z"/>
	<path fill="#0A0A0A" d="M421.1,66.5c0.6,0.7,0.9,1.8,0.8,3h-6c0.1,0.7,0.4,1.3,0.9,1.7s1.1,0.6,1.8,0.6c0.5,0,0.9-0.1,1.3-0.2
		c0.4-0.2,0.7-0.4,1-0.7l0.6,0.6c-0.4,0.4-0.8,0.7-1.3,0.9c-0.5,0.2-1.1,0.3-1.7,0.3c-0.7,0-1.4-0.2-1.9-0.5c-0.6-0.3-1-0.8-1.3-1.3
		s-0.5-1.2-0.5-1.9s0.2-1.4,0.5-1.9c0.3-0.6,0.7-1,1.3-1.3s1.2-0.5,1.9-0.5C419.6,65.4,420.5,65.8,421.1,66.5z M420.2,67
		c-0.4-0.4-1-0.6-1.7-0.6c-0.7,0-1.3,0.2-1.8,0.6c-0.5,0.4-0.7,1-0.8,1.7h5C420.9,67.9,420.6,67.4,420.2,67z"/>
	<path fill="#0A0A0A" d="M429.8,66.1c0.5,0.5,0.7,1.2,0.7,2.1v4.6h-1.1v-4.3c0-0.7-0.2-1.2-0.6-1.5s-0.9-0.5-1.5-0.5
		c-0.7,0-1.3,0.2-1.7,0.7c-0.4,0.4-0.7,1-0.8,1.7v4h-1.1v-7.4h1.1V67c0.5-1.1,1.5-1.6,2.9-1.7C428.6,65.4,429.3,65.6,429.8,66.1z"/>
	<path fill="#0A0A0A" d="M435.1,72.9c-0.6,0-1-0.2-1.4-0.5s-0.5-0.9-0.5-1.6v-4.2h-1.1v-0.9h1.1v-1.9h1.1v1.9l2.3,0v0.9h-2.3v4
		c0,0.4,0.1,0.8,0.2,0.9s0.4,0.3,0.7,0.3c0.4,0,0.8-0.1,1.2-0.4l0.3,0.9C436.2,72.7,435.7,72.8,435.1,72.9z"/>
	<path fill="#0A0A0A" d="M443.3,62.8c0.1,0.1,0.2,0.3,0.2,0.5s-0.1,0.4-0.2,0.5s-0.3,0.2-0.5,0.2s-0.4-0.1-0.5-0.2
		c-0.1-0.1-0.2-0.3-0.2-0.5c0-0.2,0.1-0.4,0.2-0.5c0.1-0.1,0.3-0.2,0.5-0.2S443.1,62.6,443.3,62.8z M442.2,72.8v-7.4h1.1v7.4H442.2z
		"/>
	<path fill="#0A0A0A" d="M452,66.1c0.5,0.5,0.7,1.2,0.7,2.1v4.6h-1.1v-4.3c0-0.7-0.2-1.2-0.6-1.5s-0.9-0.5-1.5-0.5
		c-0.7,0-1.3,0.2-1.7,0.7c-0.4,0.4-0.7,1-0.8,1.7v4H446v-7.4h1.1V67c0.5-1.1,1.5-1.6,2.9-1.7C450.8,65.4,451.5,65.6,452,66.1z"/>
	<path fill="#0A0A0A" d="M465.7,63.6c0.8,0.4,1.4,1,1.8,1.8s0.7,1.6,0.7,2.5s-0.2,1.7-0.7,2.5s-1.1,1.3-1.8,1.8
		c-0.8,0.4-1.6,0.6-2.6,0.6h-3.9V63h4C464,63,464.9,63.2,465.7,63.6z M460.3,71.7h2.9c0.7,0,1.4-0.2,2-0.5c0.6-0.3,1.1-0.8,1.4-1.4
		c0.3-0.6,0.5-1.2,0.5-2s-0.2-1.4-0.5-2c-0.4-0.6-0.8-1-1.4-1.4c-0.6-0.3-1.3-0.5-2-0.5h-2.8V71.7z"/>
	<path fill="#0A0A0A" d="M475.6,66.5c0.6,0.7,0.9,1.8,0.8,3h-6c0.1,0.7,0.4,1.3,0.9,1.7s1.1,0.6,1.8,0.6c0.5,0,0.9-0.1,1.3-0.2
		c0.4-0.2,0.7-0.4,1-0.7l0.6,0.6c-0.4,0.4-0.8,0.7-1.3,0.9c-0.5,0.2-1.1,0.3-1.7,0.3c-0.7,0-1.4-0.2-1.9-0.5c-0.6-0.3-1-0.8-1.3-1.3
		s-0.5-1.2-0.5-1.9s0.2-1.4,0.5-1.9c0.3-0.6,0.7-1,1.3-1.3s1.2-0.5,1.9-0.5C474.1,65.4,475,65.8,475.6,66.5z M474.7,67
		c-0.4-0.4-1-0.6-1.7-0.6c-0.7,0-1.3,0.2-1.8,0.6c-0.5,0.4-0.7,1-0.8,1.7h5C475.4,67.9,475.1,67.4,474.7,67z"/>
	<path fill="#0A0A0A" d="M481.5,65.6c0.4,0.1,0.8,0.3,1.1,0.5l-0.4,0.9c-0.3-0.2-0.6-0.3-1-0.4s-0.7-0.2-1-0.2
		c-0.4,0-0.8,0.1-1.1,0.2s-0.4,0.4-0.4,0.7c0,0.2,0.1,0.4,0.2,0.6s0.3,0.3,0.6,0.4s0.5,0.2,0.9,0.3c0.5,0.2,0.9,0.3,1.3,0.5
		s0.6,0.4,0.8,0.7c0.2,0.3,0.3,0.7,0.3,1.1c0,0.7-0.3,1.2-0.8,1.6c-0.5,0.4-1.2,0.5-1.9,0.5c-0.5,0-1.1-0.1-1.6-0.3
		c-0.5-0.2-0.9-0.4-1.3-0.8l0.4-0.8c0.3,0.3,0.7,0.5,1.1,0.7c0.4,0.2,0.9,0.3,1.3,0.3c0.5,0,0.8-0.1,1.1-0.3s0.4-0.5,0.4-0.8
		s-0.1-0.6-0.4-0.8c-0.3-0.2-0.7-0.3-1.3-0.5c-0.5-0.2-0.9-0.3-1.2-0.4c-0.3-0.1-0.6-0.3-0.8-0.6c-0.2-0.3-0.3-0.6-0.3-1.1
		c0-0.7,0.2-1.2,0.7-1.5s1.1-0.5,1.8-0.5C480.6,65.4,481.1,65.4,481.5,65.6z"/>
	<path fill="#0A0A0A" d="M485.6,62.8c0.1,0.1,0.2,0.3,0.2,0.5s-0.1,0.4-0.2,0.5s-0.3,0.2-0.5,0.2s-0.4-0.1-0.5-0.2
		c-0.1-0.1-0.2-0.3-0.2-0.5c0-0.2,0.1-0.4,0.2-0.5c0.1-0.1,0.3-0.2,0.5-0.2S485.5,62.6,485.6,62.8z M484.6,72.8v-7.4h1.1v7.4H484.6z
		"/>
	<path fill="#0A0A0A" d="M494.7,72c0,0.7-0.2,1.3-0.5,1.9c-0.3,0.5-0.7,0.9-1.3,1.2c-0.6,0.3-1.2,0.4-1.9,0.4c-1.1,0-2.1-0.4-3-1.1
		l0.5-0.8c0.4,0.3,0.8,0.5,1.2,0.7c0.4,0.2,0.8,0.2,1.3,0.2c0.8,0,1.4-0.2,1.9-0.7s0.7-1.1,0.7-1.8v-1.1c-0.3,0.5-0.6,0.9-1.1,1.1
		c-0.5,0.3-1,0.4-1.6,0.4c-0.7,0-1.2-0.2-1.7-0.5c-0.5-0.3-0.9-0.7-1.2-1.3c-0.3-0.5-0.4-1.2-0.4-1.8c0-0.7,0.1-1.3,0.4-1.8
		s0.7-0.9,1.2-1.3c0.5-0.3,1.1-0.5,1.7-0.5c0.6,0,1.2,0.1,1.6,0.4c0.5,0.3,0.8,0.6,1.1,1.1v-1.5h1.1V72z M492.4,71.2
		c0.4-0.2,0.7-0.5,0.9-0.9c0.2-0.4,0.3-0.8,0.3-1.3c0-0.5-0.1-1-0.3-1.4c-0.2-0.4-0.5-0.7-0.9-0.9s-0.8-0.3-1.3-0.3
		c-0.5,0-0.9,0.1-1.3,0.3s-0.7,0.5-0.9,0.9s-0.3,0.8-0.3,1.4c0,0.5,0.1,0.9,0.3,1.3s0.5,0.7,0.9,0.9s0.8,0.3,1.3,0.3
		C491.6,71.6,492.1,71.4,492.4,71.2z"/>
	<path fill="#0A0A0A" d="M503.2,66.1c0.5,0.5,0.7,1.2,0.7,2.1v4.6h-1.1v-4.3c0-0.7-0.2-1.2-0.6-1.5s-0.9-0.5-1.5-0.5
		c-0.7,0-1.3,0.2-1.7,0.7c-0.4,0.4-0.7,1-0.8,1.7v4h-1.1v-7.4h1.1V67c0.5-1.1,1.5-1.6,2.9-1.7C502,65.4,502.7,65.6,503.2,66.1z"/>
	<path fill="#0A0A0A" d="M360.4,80.7c0.7,0.6,1,1.4,1,2.4c0,1.1-0.3,1.9-1,2.5c-0.7,0.6-1.6,0.9-2.8,0.9H355v3.1h-1.1v-9.8h3.7
		C358.8,79.8,359.7,80.1,360.4,80.7z M355,85.4h2.5c0.9,0,1.6-0.2,2.1-0.6s0.7-1,0.7-1.7c0-0.7-0.2-1.3-0.7-1.7
		c-0.5-0.4-1.2-0.6-2.1-0.6H355V85.4z"/>
	<path fill="#0A0A0A" d="M365.2,82.6c0.4-0.3,1-0.4,1.6-0.4v1.1c-0.8,0-1.4,0.2-1.8,0.6s-0.7,1-0.8,1.8v3.9h-1.1v-7.4h1.1v1.6
		C364.4,83.3,364.8,82.9,365.2,82.6z"/>
	<path fill="#0A0A0A" d="M373.2,82.7c0.6,0.3,1,0.8,1.3,1.3c0.3,0.6,0.5,1.2,0.5,1.9c0,0.7-0.2,1.4-0.5,1.9c-0.3,0.6-0.8,1-1.3,1.3
		s-1.2,0.5-1.9,0.5c-0.7,0-1.4-0.2-1.9-0.5c-0.6-0.3-1-0.8-1.3-1.3c-0.3-0.6-0.5-1.2-0.5-1.9c0-0.7,0.2-1.4,0.5-1.9
		c0.3-0.6,0.8-1,1.3-1.3c0.6-0.3,1.2-0.5,1.9-0.5C372,82.2,372.7,82.4,373.2,82.7z M369.9,83.5c-0.4,0.2-0.7,0.6-0.9,1
		c-0.2,0.4-0.3,0.9-0.3,1.4c0,0.5,0.1,1,0.3,1.4c0.2,0.4,0.5,0.7,0.9,1c0.4,0.2,0.9,0.4,1.4,0.4s1-0.1,1.4-0.4
		c0.4-0.2,0.7-0.6,0.9-1c0.2-0.4,0.3-0.9,0.3-1.4s-0.1-1-0.3-1.4c-0.2-0.4-0.5-0.7-0.9-1c-0.4-0.2-0.9-0.3-1.4-0.3
		C370.8,83.2,370.3,83.3,369.9,83.5z"/>
	<path fill="#0A0A0A" d="M381.5,82.5c0.5,0.2,0.9,0.5,1.2,0.8l-0.6,0.8c-0.6-0.6-1.3-0.9-2.2-0.9c-0.5,0-1,0.1-1.4,0.3
		s-0.7,0.5-0.9,1c-0.2,0.4-0.3,0.9-0.3,1.4c0,0.5,0.1,1,0.3,1.4c0.2,0.4,0.5,0.7,0.9,1s0.8,0.4,1.4,0.4c0.5,0,0.9-0.1,1.3-0.2
		c0.4-0.2,0.7-0.4,1-0.7l0.6,0.7c-0.3,0.4-0.8,0.7-1.3,0.9c-0.5,0.2-1.1,0.3-1.7,0.3c-0.7,0-1.3-0.2-1.9-0.5c-0.6-0.3-1-0.8-1.3-1.3
		c-0.3-0.6-0.5-1.2-0.5-1.9s0.2-1.4,0.5-1.9c0.3-0.6,0.8-1,1.3-1.3c0.6-0.3,1.2-0.5,1.9-0.5C380.5,82.2,381,82.3,381.5,82.5z"/>
	<path fill="#0A0A0A" d="M390,83.3c0.6,0.7,0.9,1.8,0.8,3h-6c0.1,0.7,0.4,1.3,0.9,1.7s1.1,0.6,1.8,0.6c0.5,0,0.9-0.1,1.3-0.2
		c0.4-0.2,0.7-0.4,1-0.7l0.6,0.6c-0.4,0.4-0.8,0.7-1.3,0.9c-0.5,0.2-1.1,0.3-1.7,0.3c-0.7,0-1.4-0.2-1.9-0.5c-0.6-0.3-1-0.8-1.3-1.3
		s-0.5-1.2-0.5-1.9s0.2-1.4,0.5-1.9c0.3-0.6,0.7-1,1.3-1.3s1.2-0.5,1.9-0.5C388.5,82.2,389.4,82.6,390,83.3z M389.1,83.8
		c-0.4-0.4-1-0.6-1.7-0.6c-0.7,0-1.3,0.2-1.8,0.6c-0.5,0.4-0.7,1-0.8,1.7h5C389.8,84.7,389.5,84.2,389.1,83.8z"/>
	<path fill="#0A0A0A" d="M395.9,82.4c0.4,0.1,0.8,0.3,1.1,0.5l-0.4,0.9c-0.3-0.2-0.6-0.3-1-0.4s-0.7-0.2-1-0.2
		c-0.4,0-0.8,0.1-1.1,0.2s-0.4,0.4-0.4,0.7c0,0.2,0.1,0.4,0.2,0.6s0.3,0.3,0.6,0.4s0.5,0.2,0.9,0.3c0.5,0.2,0.9,0.3,1.3,0.5
		s0.6,0.4,0.8,0.7c0.2,0.3,0.3,0.7,0.3,1.1c0,0.7-0.3,1.2-0.8,1.6c-0.5,0.4-1.2,0.5-1.9,0.5c-0.5,0-1.1-0.1-1.6-0.3
		c-0.5-0.2-0.9-0.4-1.3-0.8l0.4-0.8c0.3,0.3,0.7,0.5,1.1,0.7c0.4,0.2,0.9,0.3,1.3,0.3c0.5,0,0.8-0.1,1.1-0.3s0.4-0.5,0.4-0.8
		s-0.1-0.6-0.4-0.8c-0.3-0.2-0.7-0.3-1.3-0.5c-0.5-0.2-0.9-0.3-1.2-0.4c-0.3-0.1-0.6-0.3-0.8-0.6c-0.2-0.3-0.3-0.6-0.3-1.1
		c0-0.7,0.2-1.2,0.7-1.5s1.1-0.5,1.8-0.5C395.1,82.2,395.5,82.2,395.9,82.4z"/>
	<path fill="#0A0A0A" d="M402.2,82.4c0.4,0.1,0.8,0.3,1.1,0.5l-0.4,0.9c-0.3-0.2-0.6-0.3-1-0.4s-0.7-0.2-1-0.2
		c-0.4,0-0.8,0.1-1.1,0.2s-0.4,0.4-0.4,0.7c0,0.2,0.1,0.4,0.2,0.6s0.3,0.3,0.6,0.4s0.5,0.2,0.9,0.3c0.5,0.2,0.9,0.3,1.3,0.5
		s0.6,0.4,0.8,0.7c0.2,0.3,0.3,0.7,0.3,1.1c0,0.7-0.3,1.2-0.8,1.6c-0.5,0.4-1.2,0.5-1.9,0.5c-0.5,0-1.1-0.1-1.6-0.3
		c-0.5-0.2-0.9-0.4-1.3-0.8l0.4-0.8c0.3,0.3,0.7,0.5,1.1,0.7c0.4,0.2,0.9,0.3,1.3,0.3c0.5,0,0.8-0.1,1.1-0.3s0.4-0.5,0.4-0.8
		s-0.1-0.6-0.4-0.8c-0.3-0.2-0.7-0.3-1.3-0.5c-0.5-0.2-0.9-0.3-1.2-0.4c-0.3-0.1-0.6-0.3-0.8-0.6c-0.2-0.3-0.3-0.6-0.3-1.1
		c0-0.7,0.2-1.2,0.7-1.5s1.1-0.5,1.8-0.5C401.4,82.2,401.8,82.2,402.2,82.4z"/>
	<path fill="#0A0A0A" d="M415.9,80.4c0.8,0.4,1.4,1,1.8,1.8s0.7,1.6,0.7,2.5s-0.2,1.7-0.7,2.5s-1.1,1.3-1.8,1.8
		c-0.8,0.4-1.6,0.6-2.6,0.6h-3.9v-9.8h4C414.2,79.8,415.1,80,415.9,80.4z M410.5,88.5h2.9c0.7,0,1.4-0.2,2-0.5
		c0.6-0.3,1.1-0.8,1.4-1.4c0.3-0.6,0.5-1.2,0.5-2s-0.2-1.4-0.5-2c-0.4-0.6-0.8-1-1.4-1.4c-0.6-0.3-1.3-0.5-2-0.5h-2.8V88.5z"/>
	<path fill="#0A0A0A" d="M425.8,83.3c0.6,0.7,0.9,1.8,0.8,3h-6c0.1,0.7,0.4,1.3,0.9,1.7s1.1,0.6,1.8,0.6c0.5,0,0.9-0.1,1.3-0.2
		c0.4-0.2,0.7-0.4,1-0.7l0.6,0.6c-0.4,0.4-0.8,0.7-1.3,0.9c-0.5,0.2-1.1,0.3-1.7,0.3c-0.7,0-1.4-0.2-1.9-0.5c-0.6-0.3-1-0.8-1.3-1.3
		s-0.5-1.2-0.5-1.9s0.2-1.4,0.5-1.9c0.3-0.6,0.7-1,1.3-1.3s1.2-0.5,1.9-0.5C424.3,82.2,425.2,82.6,425.8,83.3z M424.9,83.8
		c-0.4-0.4-1-0.6-1.7-0.6c-0.7,0-1.3,0.2-1.8,0.6c-0.5,0.4-0.7,1-0.8,1.7h5C425.6,84.7,425.3,84.2,424.9,83.8z"/>
	<path fill="#0A0A0A" d="M429,80.2c0.2-0.4,0.5-0.7,0.9-0.8s0.7-0.3,1.2-0.3c0.5,0,1,0.1,1.3,0.4l0,1c-0.5-0.2-0.9-0.4-1.3-0.4
		c-0.4,0-0.7,0.1-0.9,0.3c-0.2,0.2-0.4,0.5-0.4,1v1h2.1v0.9h-2.1v6.3h-1.1v-6.3h-1v-0.9h1v-0.8C428.6,81.1,428.7,80.6,429,80.2z
		 M433,80.6c-0.1-0.1-0.2-0.3-0.2-0.5c0-0.2,0.1-0.4,0.2-0.5s0.3-0.2,0.5-0.2s0.4,0.1,0.5,0.2c0.1,0.1,0.2,0.3,0.2,0.5
		s-0.1,0.4-0.2,0.5c-0.1,0.1-0.3,0.2-0.5,0.2S433.1,80.8,433,80.6z M434,82.2v7.4h-1.1v-7.4H434z"/>
	<path fill="#0A0A0A" d="M442.7,82.9c0.5,0.5,0.7,1.2,0.7,2.1v4.6h-1.1v-4.3c0-0.7-0.2-1.2-0.6-1.5s-0.9-0.5-1.5-0.5
		c-0.7,0-1.3,0.2-1.7,0.7c-0.4,0.4-0.7,1-0.8,1.7v4h-1.1v-7.4h1.1v1.6c0.5-1.1,1.5-1.6,2.9-1.7C441.5,82.2,442.2,82.4,442.7,82.9z"
		/>
	<path fill="#0A0A0A" d="M446.9,79.6c0.1,0.1,0.2,0.3,0.2,0.5s-0.1,0.4-0.2,0.5s-0.3,0.2-0.5,0.2s-0.4-0.1-0.5-0.2
		c-0.1-0.1-0.2-0.3-0.2-0.5c0-0.2,0.1-0.4,0.2-0.5c0.1-0.1,0.3-0.2,0.5-0.2S446.8,79.4,446.9,79.6z M445.9,89.6v-7.4h1.1v7.4H445.9z
		"/>
	<path fill="#0A0A0A" d="M451.7,89.7c-0.6,0-1-0.2-1.4-0.5s-0.5-0.9-0.5-1.6v-4.2h-1.1v-0.9h1.1v-1.9h1.1v1.9l2.3,0v0.9h-2.3v4
		c0,0.4,0.1,0.8,0.2,0.9s0.4,0.3,0.7,0.3c0.4,0,0.8-0.1,1.2-0.4l0.3,0.9C452.9,89.5,452.3,89.6,451.7,89.7z"/>
	<path fill="#0A0A0A" d="M456.1,79.6c0.1,0.1,0.2,0.3,0.2,0.5s-0.1,0.4-0.2,0.5s-0.3,0.2-0.5,0.2s-0.4-0.1-0.5-0.2
		c-0.1-0.1-0.2-0.3-0.2-0.5c0-0.2,0.1-0.4,0.2-0.5c0.1-0.1,0.3-0.2,0.5-0.2S456,79.4,456.1,79.6z M455.1,89.6v-7.4h1.1v7.4H455.1z"
		/>
	<path fill="#0A0A0A" d="M463.7,82.7c0.6,0.3,1,0.8,1.3,1.3c0.3,0.6,0.5,1.2,0.5,1.9c0,0.7-0.2,1.4-0.5,1.9c-0.3,0.6-0.8,1-1.3,1.3
		s-1.2,0.5-1.9,0.5c-0.7,0-1.4-0.2-1.9-0.5c-0.6-0.3-1-0.8-1.3-1.3c-0.3-0.6-0.5-1.2-0.5-1.9c0-0.7,0.2-1.4,0.5-1.9
		c0.3-0.6,0.8-1,1.3-1.3c0.6-0.3,1.2-0.5,1.9-0.5C462.5,82.2,463.1,82.4,463.7,82.7z M460.4,83.5c-0.4,0.2-0.7,0.6-0.9,1
		c-0.2,0.4-0.3,0.9-0.3,1.4c0,0.5,0.1,1,0.3,1.4c0.2,0.4,0.5,0.7,0.9,1c0.4,0.2,0.9,0.4,1.4,0.4s1-0.1,1.4-0.4
		c0.4-0.2,0.7-0.6,0.9-1c0.2-0.4,0.3-0.9,0.3-1.4s-0.1-1-0.3-1.4c-0.2-0.4-0.5-0.7-0.9-1c-0.4-0.2-0.9-0.3-1.4-0.3
		C461.3,83.2,460.8,83.3,460.4,83.5z"/>
	<path fill="#0A0A0A" d="M473.4,82.9c0.5,0.5,0.7,1.2,0.7,2.1v4.6h-1.1v-4.3c0-0.7-0.2-1.2-0.6-1.5s-0.9-0.5-1.5-0.5
		c-0.7,0-1.3,0.2-1.7,0.7c-0.4,0.4-0.7,1-0.8,1.7v4h-1.1v-7.4h1.1v1.6c0.5-1.1,1.5-1.6,2.9-1.7C472.3,82.2,472.9,82.4,473.4,82.9z"
		/>
</g>
<g>
	<path fill="#844A85" d="M366,36.4v3.3h-7.8v3.6h7.4v3.3h-7.4v6.6h-3.7V36.4H366z"/>
	<path fill="#844A85" d="M373.6,48.9c0.6,0.8,1.5,1.2,2.5,1.2c1.1,0,1.9-0.4,2.5-1.2c0.6-0.8,0.9-1.8,0.9-3.2v-9.3h3.7v9.4
		c0,2.4-0.7,4.3-2,5.6c-1.3,1.3-3.1,2-5.2,2c-2.1,0-3.8-0.7-5.2-2c-1.4-1.3-2-3.2-2-5.6v-9.4h3.7v9.3C372.7,47,373,48.1,373.6,48.9z
		"/>
	<path fill="#844A85" d="M387.2,53.2V36.4h3.7v13.4h7.2v3.3H387.2z"/>
	<path fill="#844A85" d="M400.8,53.2V36.4h3.7v13.4h7.2v3.3H400.8z"/>
</g>
<g>
	<path d="M354.3,96.9v2.5h3.3v0.8h-3.3v3h-0.8v-7h4.4v0.8H354.3z"/>
	<path d="M362.5,98.1c0.4,0.2,0.7,0.5,0.9,0.9c0.2,0.4,0.3,0.9,0.3,1.4c0,0.5-0.1,1-0.3,1.4c-0.2,0.4-0.5,0.7-0.9,0.9
		s-0.9,0.3-1.4,0.3c-0.5,0-1-0.1-1.4-0.3c-0.4-0.2-0.7-0.5-0.9-0.9c-0.2-0.4-0.3-0.9-0.3-1.4c0-0.5,0.1-1,0.3-1.4
		c0.2-0.4,0.5-0.7,0.9-0.9c0.4-0.2,0.9-0.3,1.4-0.3C361.6,97.8,362.1,97.9,362.5,98.1z M360.1,98.8c-0.3,0.2-0.5,0.4-0.7,0.7
		c-0.2,0.3-0.2,0.6-0.2,1c0,0.4,0.1,0.7,0.2,1c0.2,0.3,0.4,0.5,0.7,0.7c0.3,0.2,0.6,0.3,1,0.3s0.7-0.1,1-0.3
		c0.3-0.2,0.5-0.4,0.7-0.7c0.2-0.3,0.2-0.6,0.2-1s-0.1-0.7-0.2-1c-0.2-0.3-0.4-0.5-0.7-0.7c-0.3-0.2-0.6-0.2-1-0.2
		C360.8,98.5,360.4,98.6,360.1,98.8z"/>
	<path d="M368.4,98c0.3,0.1,0.6,0.3,0.9,0.6l-0.4,0.6c-0.4-0.4-0.9-0.6-1.6-0.6c-0.4,0-0.7,0.1-1,0.2s-0.5,0.4-0.7,0.7
		c-0.2,0.3-0.2,0.6-0.2,1c0,0.4,0.1,0.7,0.2,1c0.2,0.3,0.4,0.5,0.7,0.7s0.6,0.3,1,0.3c0.3,0,0.7-0.1,0.9-0.2
		c0.3-0.1,0.5-0.3,0.7-0.5l0.4,0.5c-0.2,0.3-0.5,0.5-0.9,0.7c-0.4,0.2-0.8,0.2-1.2,0.2c-0.5,0-1-0.1-1.4-0.3
		c-0.4-0.2-0.7-0.5-0.9-0.9c-0.2-0.4-0.3-0.9-0.3-1.4s0.1-1,0.3-1.4c0.2-0.4,0.5-0.7,0.9-0.9c0.4-0.2,0.9-0.3,1.4-0.3
		C367.7,97.8,368.1,97.9,368.4,98z"/>
	<path d="M375.3,103.1h-0.8v-1.2c-0.3,0.8-1,1.2-2,1.2c-0.6,0-1.1-0.2-1.4-0.5c-0.4-0.4-0.5-0.9-0.5-1.5v-3.2h0.8v3
		c0,0.5,0.1,0.8,0.4,1.1c0.3,0.3,0.6,0.4,1.1,0.4c0.5,0,1-0.2,1.3-0.5s0.5-0.8,0.5-1.4v-2.6h0.8V103.1z"/>
	<path d="M379.5,97.9c0.3,0.1,0.5,0.2,0.8,0.4l-0.3,0.6c-0.2-0.1-0.4-0.2-0.7-0.3s-0.5-0.1-0.7-0.1c-0.3,0-0.6,0.1-0.8,0.2
		s-0.3,0.3-0.3,0.5c0,0.2,0.1,0.3,0.2,0.4s0.2,0.2,0.4,0.3s0.4,0.1,0.7,0.2c0.4,0.1,0.7,0.2,0.9,0.3s0.4,0.3,0.6,0.5
		c0.2,0.2,0.2,0.5,0.2,0.8c0,0.5-0.2,0.9-0.6,1.1c-0.4,0.3-0.8,0.4-1.4,0.4c-0.4,0-0.8-0.1-1.1-0.2c-0.4-0.1-0.7-0.3-0.9-0.5
		l0.3-0.6c0.2,0.2,0.5,0.4,0.8,0.5c0.3,0.1,0.6,0.2,0.9,0.2c0.3,0,0.6-0.1,0.8-0.2s0.3-0.3,0.3-0.6s-0.1-0.4-0.3-0.6
		c-0.2-0.1-0.5-0.2-0.9-0.4c-0.4-0.1-0.7-0.2-0.9-0.3c-0.2-0.1-0.4-0.2-0.6-0.4c-0.2-0.2-0.2-0.5-0.2-0.8c0-0.5,0.2-0.8,0.5-1.1
		s0.8-0.4,1.3-0.4C378.9,97.8,379.3,97.8,379.5,97.9z"/>
	<path d="M382.5,95.9c0.1,0.1,0.1,0.2,0.1,0.4s0,0.3-0.1,0.4s-0.2,0.2-0.4,0.2s-0.3-0.1-0.4-0.2c-0.1-0.1-0.1-0.2-0.1-0.4
		c0-0.2,0-0.3,0.1-0.4c0.1-0.1,0.2-0.2,0.4-0.2S382.4,95.8,382.5,95.9z M381.8,103.1v-5.3h0.8v5.3H381.8z"/>
	<path d="M388.7,98.3c0.4,0.4,0.5,0.9,0.5,1.5v3.3h-0.8v-3c0-0.5-0.1-0.8-0.4-1.1s-0.6-0.4-1.1-0.4c-0.5,0-0.9,0.2-1.2,0.5
		c-0.3,0.3-0.5,0.7-0.5,1.2v2.8h-0.8v-5.3h0.8V99c0.4-0.8,1-1.2,2-1.2C387.9,97.8,388.4,98,388.7,98.3z"/>
	<path d="M395.6,102.5c0,0.5-0.1,1-0.3,1.3c-0.2,0.4-0.5,0.7-0.9,0.9c-0.4,0.2-0.9,0.3-1.4,0.3c-0.8,0-1.5-0.3-2.2-0.8l0.4-0.6
		c0.3,0.2,0.5,0.4,0.8,0.5c0.3,0.1,0.6,0.2,0.9,0.2c0.6,0,1-0.2,1.4-0.5s0.5-0.8,0.5-1.3v-0.8c-0.2,0.4-0.4,0.6-0.8,0.8
		c-0.3,0.2-0.7,0.3-1.2,0.3c-0.5,0-0.9-0.1-1.2-0.3c-0.4-0.2-0.6-0.5-0.9-0.9c-0.2-0.4-0.3-0.8-0.3-1.3c0-0.5,0.1-0.9,0.3-1.3
		s0.5-0.7,0.8-0.9c0.4-0.2,0.8-0.3,1.2-0.3c0.4,0,0.8,0.1,1.2,0.3c0.3,0.2,0.6,0.5,0.8,0.8v-1.1h0.8V102.5z M393.9,102
		c0.3-0.2,0.5-0.4,0.6-0.7c0.2-0.3,0.2-0.6,0.2-1c0-0.4-0.1-0.7-0.2-1c-0.2-0.3-0.4-0.5-0.6-0.7s-0.6-0.2-0.9-0.2
		c-0.3,0-0.7,0.1-0.9,0.2s-0.5,0.4-0.6,0.7s-0.2,0.6-0.2,1c0,0.4,0.1,0.7,0.2,1s0.4,0.5,0.6,0.7s0.6,0.2,0.9,0.2
		C393.3,102.2,393.7,102.1,393.9,102z"/>
	<path d="M403.6,98.1c0.4,0.2,0.7,0.5,0.9,0.9c0.2,0.4,0.3,0.9,0.3,1.4c0,0.5-0.1,1-0.3,1.4c-0.2,0.4-0.5,0.7-0.9,0.9
		s-0.9,0.3-1.4,0.3c-0.5,0-1-0.1-1.4-0.3c-0.4-0.2-0.7-0.5-0.9-0.9c-0.2-0.4-0.3-0.9-0.3-1.4c0-0.5,0.1-1,0.3-1.4
		c0.2-0.4,0.5-0.7,0.9-0.9c0.4-0.2,0.9-0.3,1.4-0.3C402.7,97.8,403.2,97.9,403.6,98.1z M401.2,98.8c-0.3,0.2-0.5,0.4-0.7,0.7
		c-0.2,0.3-0.2,0.6-0.2,1c0,0.4,0.1,0.7,0.2,1c0.2,0.3,0.4,0.5,0.7,0.7c0.3,0.2,0.6,0.3,1,0.3s0.7-0.1,1-0.3
		c0.3-0.2,0.5-0.4,0.7-0.7c0.2-0.3,0.2-0.6,0.2-1s-0.1-0.7-0.2-1c-0.2-0.3-0.4-0.5-0.7-0.7c-0.3-0.2-0.6-0.2-1-0.2
		C401.9,98.5,401.5,98.6,401.2,98.8z"/>
	<path d="M410.5,98.3c0.4,0.4,0.5,0.9,0.5,1.5v3.3h-0.8v-3c0-0.5-0.1-0.8-0.4-1.1s-0.6-0.4-1.1-0.4c-0.5,0-0.9,0.2-1.2,0.5
		c-0.3,0.3-0.5,0.7-0.5,1.2v2.8h-0.8v-5.3h0.8V99c0.4-0.8,1-1.2,2-1.2C409.7,97.8,410.2,98,410.5,98.3z"/>
	<path d="M419.7,98.1c0.4,0.2,0.7,0.5,0.9,0.9c0.2,0.4,0.3,0.9,0.3,1.4c0,0.5-0.1,1-0.3,1.4s-0.5,0.7-0.9,0.9
		c-0.4,0.2-0.8,0.3-1.3,0.3c-0.5,0-0.9-0.1-1.2-0.3c-0.4-0.2-0.6-0.5-0.8-0.9v1.1h-0.8v-7.4h0.8V99c0.2-0.4,0.5-0.7,0.8-0.9
		c0.3-0.2,0.8-0.3,1.2-0.3C418.9,97.8,419.3,97.9,419.7,98.1z M419.2,102.2c0.3-0.2,0.5-0.4,0.7-0.7s0.2-0.6,0.2-1s-0.1-0.7-0.2-1
		s-0.4-0.5-0.7-0.7c-0.3-0.2-0.6-0.3-1-0.3c-0.4,0-0.7,0.1-1,0.2c-0.3,0.2-0.5,0.4-0.7,0.7c-0.2,0.3-0.2,0.6-0.2,1
		c0,0.4,0.1,0.7,0.2,1c0.2,0.3,0.4,0.5,0.7,0.7c0.3,0.2,0.6,0.3,1,0.3C418.6,102.4,419,102.3,419.2,102.2z"/>
	<path d="M426.9,103.1h-0.8v-1.2c-0.3,0.8-1,1.2-2,1.2c-0.6,0-1.1-0.2-1.4-0.5c-0.4-0.4-0.5-0.9-0.5-1.5v-3.2h0.8v3
		c0,0.5,0.1,0.8,0.4,1.1c0.3,0.3,0.6,0.4,1.1,0.4c0.5,0,1-0.2,1.3-0.5s0.5-0.8,0.5-1.4v-2.6h0.8V103.1z"/>
	<path d="M431.1,97.9c0.3,0.1,0.5,0.2,0.8,0.4l-0.3,0.6c-0.2-0.1-0.4-0.2-0.7-0.3s-0.5-0.1-0.7-0.1c-0.3,0-0.6,0.1-0.8,0.2
		s-0.3,0.3-0.3,0.5c0,0.2,0.1,0.3,0.2,0.4s0.2,0.2,0.4,0.3s0.4,0.1,0.7,0.2c0.4,0.1,0.7,0.2,0.9,0.3s0.4,0.3,0.6,0.5
		c0.2,0.2,0.2,0.5,0.2,0.8c0,0.5-0.2,0.9-0.6,1.1c-0.4,0.3-0.8,0.4-1.4,0.4c-0.4,0-0.8-0.1-1.1-0.2c-0.4-0.1-0.7-0.3-0.9-0.5
		l0.3-0.6c0.2,0.2,0.5,0.4,0.8,0.5c0.3,0.1,0.6,0.2,0.9,0.2c0.3,0,0.6-0.1,0.8-0.2s0.3-0.3,0.3-0.6s-0.1-0.4-0.3-0.6
		c-0.2-0.1-0.5-0.2-0.9-0.4c-0.4-0.1-0.7-0.2-0.9-0.3c-0.2-0.1-0.4-0.2-0.6-0.4c-0.2-0.2-0.2-0.5-0.2-0.8c0-0.5,0.2-0.8,0.5-1.1
		s0.8-0.4,1.3-0.4C430.5,97.8,430.8,97.8,431.1,97.9z"/>
	<path d="M434.1,95.9c0.1,0.1,0.1,0.2,0.1,0.4s0,0.3-0.1,0.4s-0.2,0.2-0.4,0.2s-0.3-0.1-0.4-0.2c-0.1-0.1-0.1-0.2-0.1-0.4
		c0-0.2,0-0.3,0.1-0.4c0.1-0.1,0.2-0.2,0.4-0.2S434,95.8,434.1,95.9z M433.3,103.1v-5.3h0.8v5.3H433.3z"/>
	<path d="M440.3,98.3c0.4,0.4,0.5,0.9,0.5,1.5v3.3H440v-3c0-0.5-0.1-0.8-0.4-1.1s-0.6-0.4-1.1-0.4c-0.5,0-0.9,0.2-1.2,0.5
		c-0.3,0.3-0.5,0.7-0.5,1.2v2.8H436v-5.3h0.8V99c0.4-0.8,1-1.2,2-1.2C439.4,97.8,439.9,98,440.3,98.3z"/>
	<path d="M446.5,98.6c0.4,0.5,0.6,1.3,0.6,2.2h-4.3c0.1,0.5,0.3,0.9,0.6,1.2s0.8,0.5,1.3,0.5c0.3,0,0.6-0.1,0.9-0.2
		c0.3-0.1,0.5-0.3,0.7-0.5l0.4,0.5c-0.3,0.3-0.6,0.5-0.9,0.6c-0.4,0.2-0.8,0.2-1.2,0.2c-0.5,0-1-0.1-1.4-0.3
		c-0.4-0.2-0.7-0.5-0.9-0.9s-0.3-0.9-0.3-1.4s0.1-1,0.3-1.4c0.2-0.4,0.5-0.7,0.9-0.9s0.9-0.3,1.4-0.3
		C445.5,97.8,446.1,98.1,446.5,98.6z M445.9,98.9c-0.3-0.3-0.7-0.4-1.2-0.4c-0.5,0-0.9,0.1-1.3,0.4c-0.3,0.3-0.5,0.7-0.6,1.2h3.6
		C446.3,99.6,446.2,99.2,445.9,98.9z"/>
	<path d="M450.7,97.9c0.3,0.1,0.5,0.2,0.8,0.4l-0.3,0.6c-0.2-0.1-0.4-0.2-0.7-0.3s-0.5-0.1-0.7-0.1c-0.3,0-0.6,0.1-0.8,0.2
		s-0.3,0.3-0.3,0.5c0,0.2,0.1,0.3,0.2,0.4s0.2,0.2,0.4,0.3s0.4,0.1,0.7,0.2c0.4,0.1,0.7,0.2,0.9,0.3s0.4,0.3,0.6,0.5
		c0.2,0.2,0.2,0.5,0.2,0.8c0,0.5-0.2,0.9-0.6,1.1c-0.4,0.3-0.8,0.4-1.4,0.4c-0.4,0-0.8-0.1-1.1-0.2c-0.4-0.1-0.7-0.3-0.9-0.5
		l0.3-0.6c0.2,0.2,0.5,0.4,0.8,0.5c0.3,0.1,0.6,0.2,0.9,0.2c0.3,0,0.6-0.1,0.8-0.2s0.3-0.3,0.3-0.6s-0.1-0.4-0.3-0.6
		c-0.2-0.1-0.5-0.2-0.9-0.4c-0.4-0.1-0.7-0.2-0.9-0.3c-0.2-0.1-0.4-0.2-0.6-0.4c-0.2-0.2-0.2-0.5-0.2-0.8c0-0.5,0.2-0.8,0.5-1.1
		s0.8-0.4,1.3-0.4C450.1,97.8,450.4,97.8,450.7,97.9z"/>
	<path d="M455.2,97.9c0.3,0.1,0.5,0.2,0.8,0.4l-0.3,0.6c-0.2-0.1-0.4-0.2-0.7-0.3s-0.5-0.1-0.7-0.1c-0.3,0-0.6,0.1-0.8,0.2
		s-0.3,0.3-0.3,0.5c0,0.2,0.1,0.3,0.2,0.4s0.2,0.2,0.4,0.3s0.4,0.1,0.7,0.2c0.4,0.1,0.7,0.2,0.9,0.3s0.4,0.3,0.6,0.5
		c0.2,0.2,0.2,0.5,0.2,0.8c0,0.5-0.2,0.9-0.6,1.1c-0.4,0.3-0.8,0.4-1.4,0.4c-0.4,0-0.8-0.1-1.1-0.2c-0.4-0.1-0.7-0.3-0.9-0.5
		l0.3-0.6c0.2,0.2,0.5,0.4,0.8,0.5c0.3,0.1,0.6,0.2,0.9,0.2c0.3,0,0.6-0.1,0.8-0.2s0.3-0.3,0.3-0.6s-0.1-0.4-0.3-0.6
		c-0.2-0.1-0.5-0.2-0.9-0.4c-0.4-0.1-0.7-0.2-0.9-0.3c-0.2-0.1-0.4-0.2-0.6-0.4c-0.2-0.2-0.2-0.5-0.2-0.8c0-0.5,0.2-0.8,0.5-1.1
		s0.8-0.4,1.3-0.4C454.7,97.8,455,97.8,455.2,97.9z"/>
	<path d="M463.5,102.3c-0.4,0.6-1.1,0.8-1.9,0.8c-0.4,0-0.7-0.1-0.9-0.2c-0.3-0.1-0.5-0.3-0.6-0.6c-0.1-0.2-0.2-0.5-0.2-0.8
		c0-0.5,0.2-0.8,0.5-1.1s0.8-0.4,1.5-0.4h1.7v-0.3c0-0.4-0.1-0.7-0.4-0.9s-0.6-0.3-1.1-0.3c-0.5,0-1.1,0.2-1.7,0.6l-0.3-0.6
		c0.4-0.2,0.7-0.4,1-0.5c0.3-0.1,0.7-0.2,1.1-0.2c0.6,0,1.1,0.2,1.5,0.5c0.3,0.3,0.5,0.8,0.5,1.3l0,3.5h-0.8V102.3z M462.8,102.1
		c0.3-0.2,0.5-0.5,0.6-0.9v-0.6h-1.6c-0.9,0-1.3,0.3-1.3,0.8c0,0.3,0.1,0.5,0.3,0.7s0.5,0.3,0.9,0.3
		C462.1,102.5,462.5,102.4,462.8,102.1z"/>
	<path d="M470.3,98.3c0.4,0.4,0.5,0.9,0.5,1.5v3.3H470v-3c0-0.5-0.1-0.8-0.4-1.1s-0.6-0.4-1.1-0.4c-0.5,0-0.9,0.2-1.2,0.5
		c-0.3,0.3-0.5,0.7-0.5,1.2v2.8H466v-5.3h0.8V99c0.4-0.8,1-1.2,2-1.2C469.4,97.8,469.9,98,470.3,98.3z"/>
	<path d="M477.4,103.1h-0.8V102c-0.2,0.4-0.5,0.7-0.8,0.9c-0.4,0.2-0.8,0.3-1.2,0.3c-0.5,0-0.9-0.1-1.3-0.3
		c-0.4-0.2-0.7-0.5-0.9-0.9c-0.2-0.4-0.3-0.9-0.3-1.4s0.1-1,0.3-1.4c0.2-0.4,0.5-0.7,0.9-0.9s0.8-0.3,1.3-0.3c0.5,0,0.9,0.1,1.2,0.3
		s0.6,0.5,0.8,0.9v-3.3h0.8V103.1z M475.7,102.2c0.3-0.2,0.5-0.4,0.7-0.7s0.2-0.6,0.2-1c0-0.4-0.1-0.7-0.2-1s-0.4-0.5-0.7-0.7
		s-0.6-0.3-1-0.3s-0.7,0.1-1,0.3s-0.5,0.4-0.7,0.7s-0.2,0.6-0.2,1c0,0.4,0.1,0.7,0.2,1s0.4,0.5,0.7,0.7s0.6,0.3,1,0.3
		S475.4,102.4,475.7,102.2z"/>
	<path d="M358.2,115.1h-0.8V114c-0.2,0.4-0.5,0.7-0.8,0.9c-0.4,0.2-0.8,0.3-1.2,0.3c-0.5,0-0.9-0.1-1.3-0.3s-0.7-0.5-0.9-0.9
		c-0.2-0.4-0.3-0.9-0.3-1.4s0.1-1,0.3-1.4c0.2-0.4,0.5-0.7,0.9-0.9c0.4-0.2,0.8-0.3,1.3-0.3c0.5,0,0.9,0.1,1.2,0.3
		c0.4,0.2,0.6,0.5,0.8,0.9v-3.3h0.8V115.1z M356.5,114.2c0.3-0.2,0.5-0.4,0.7-0.7c0.2-0.3,0.2-0.6,0.2-1c0-0.4-0.1-0.7-0.2-1
		c-0.2-0.3-0.4-0.5-0.7-0.7c-0.3-0.2-0.6-0.3-1-0.3c-0.4,0-0.7,0.1-1,0.3c-0.3,0.2-0.5,0.4-0.7,0.7c-0.2,0.3-0.2,0.6-0.2,1
		c0,0.4,0.1,0.7,0.2,1c0.2,0.3,0.4,0.5,0.7,0.7c0.3,0.2,0.6,0.3,1,0.3C355.9,114.4,356.2,114.4,356.5,114.2z"/>
	<path d="M364.1,110.6c0.4,0.5,0.6,1.3,0.6,2.2h-4.3c0.1,0.5,0.3,0.9,0.6,1.2s0.8,0.5,1.3,0.5c0.3,0,0.6-0.1,0.9-0.2
		c0.3-0.1,0.5-0.3,0.7-0.5l0.4,0.5c-0.3,0.3-0.6,0.5-0.9,0.6c-0.4,0.2-0.8,0.2-1.2,0.2c-0.5,0-1-0.1-1.4-0.3
		c-0.4-0.2-0.7-0.5-0.9-0.9s-0.3-0.9-0.3-1.4s0.1-1,0.3-1.4c0.2-0.4,0.5-0.7,0.9-0.9s0.9-0.3,1.4-0.3
		C363.1,109.8,363.7,110.1,364.1,110.6z M363.5,110.9c-0.3-0.3-0.7-0.4-1.2-0.4c-0.5,0-0.9,0.1-1.3,0.4c-0.3,0.3-0.5,0.7-0.6,1.2
		h3.6C364,111.6,363.8,111.2,363.5,110.9z"/>
	<path d="M367,115.1l-2.1-5.3h0.8l1.7,4.5l1.7-4.5h0.8l-2.1,5.3H367z"/>
	<path d="M374.6,110.6c0.4,0.5,0.6,1.3,0.6,2.2h-4.3c0.1,0.5,0.3,0.9,0.6,1.2s0.8,0.5,1.3,0.5c0.3,0,0.6-0.1,0.9-0.2
		c0.3-0.1,0.5-0.3,0.7-0.5l0.4,0.5c-0.3,0.3-0.6,0.5-0.9,0.6c-0.4,0.2-0.8,0.2-1.2,0.2c-0.5,0-1-0.1-1.4-0.3
		c-0.4-0.2-0.7-0.5-0.9-0.9s-0.3-0.9-0.3-1.4s0.1-1,0.3-1.4c0.2-0.4,0.5-0.7,0.9-0.9s0.9-0.3,1.4-0.3
		C373.6,109.8,374.2,110.1,374.6,110.6z M374,110.9c-0.3-0.3-0.7-0.4-1.2-0.4c-0.5,0-0.9,0.1-1.3,0.4c-0.3,0.3-0.5,0.7-0.6,1.2h3.6
		C374.5,111.6,374.3,111.2,374,110.9z"/>
	<path d="M376.6,115.1v-7.4h0.8v7.4H376.6z"/>
	<path d="M382.8,110.1c0.4,0.2,0.7,0.5,0.9,0.9c0.2,0.4,0.3,0.9,0.3,1.4c0,0.5-0.1,1-0.3,1.4c-0.2,0.4-0.5,0.7-0.9,0.9
		s-0.9,0.3-1.4,0.3c-0.5,0-1-0.1-1.4-0.3c-0.4-0.2-0.7-0.5-0.9-0.9c-0.2-0.4-0.3-0.9-0.3-1.4c0-0.5,0.1-1,0.3-1.4
		c0.2-0.4,0.5-0.7,0.9-0.9c0.4-0.2,0.9-0.3,1.4-0.3C382,109.8,382.4,109.9,382.8,110.1z M380.5,110.8c-0.3,0.2-0.5,0.4-0.7,0.7
		c-0.2,0.3-0.2,0.6-0.2,1c0,0.4,0.1,0.7,0.2,1c0.2,0.3,0.4,0.5,0.7,0.7c0.3,0.2,0.6,0.3,1,0.3s0.7-0.1,1-0.3
		c0.3-0.2,0.5-0.4,0.7-0.7c0.2-0.3,0.2-0.6,0.2-1s-0.1-0.7-0.2-1c-0.2-0.3-0.4-0.5-0.7-0.7c-0.3-0.2-0.6-0.2-1-0.2
		C381.1,110.5,380.8,110.6,380.5,110.8z"/>
	<path d="M389.7,110.1c0.4,0.2,0.7,0.5,0.9,0.9c0.2,0.4,0.3,0.9,0.3,1.4c0,0.5-0.1,1-0.3,1.4s-0.5,0.7-0.9,0.9
		c-0.4,0.2-0.8,0.3-1.3,0.3c-0.5,0-0.9-0.1-1.2-0.3c-0.4-0.2-0.6-0.5-0.8-0.9v3.1h-0.8v-7.2h0.8v1.1c0.2-0.4,0.5-0.7,0.8-0.9
		c0.3-0.2,0.8-0.3,1.2-0.3C388.8,109.8,389.3,109.9,389.7,110.1z M389.2,114.2c0.3-0.2,0.5-0.4,0.7-0.7s0.2-0.6,0.2-1
		s-0.1-0.7-0.2-1s-0.4-0.5-0.7-0.7c-0.3-0.2-0.6-0.3-1-0.3c-0.4,0-0.7,0.1-1,0.2c-0.3,0.2-0.5,0.4-0.7,0.7c-0.2,0.3-0.2,0.6-0.2,1
		c0,0.4,0.1,0.7,0.2,1c0.2,0.3,0.4,0.5,0.7,0.7c0.3,0.2,0.6,0.3,1,0.3C388.6,114.4,388.9,114.3,389.2,114.2z"/>
	<path d="M400.4,110.3c0.3,0.4,0.5,0.9,0.5,1.5v3.3h-0.8v-3c0-0.5-0.1-0.8-0.4-1.1c-0.3-0.3-0.6-0.4-1.1-0.4c-0.5,0-1,0.2-1.3,0.5
		c-0.3,0.4-0.5,0.8-0.5,1.4v2.6h-0.8v-3c0-0.5-0.1-0.8-0.4-1.1c-0.3-0.3-0.6-0.4-1.1-0.4c-0.5,0-1,0.2-1.3,0.5
		c-0.3,0.4-0.5,0.8-0.5,1.4v2.6h-0.8v-5.3h0.8v1.2c0.2-0.4,0.4-0.7,0.8-0.9c0.3-0.2,0.8-0.3,1.2-0.3c0.5,0,0.9,0.1,1.2,0.4
		c0.3,0.2,0.5,0.6,0.7,1c0.2-0.5,0.4-0.8,0.8-1s0.8-0.3,1.3-0.3C399.6,109.8,400.1,110,400.4,110.3z"/>
	<path d="M406.7,110.6c0.4,0.5,0.6,1.3,0.6,2.2h-4.3c0.1,0.5,0.3,0.9,0.6,1.2s0.8,0.5,1.3,0.5c0.3,0,0.6-0.1,0.9-0.2
		c0.3-0.1,0.5-0.3,0.7-0.5l0.4,0.5c-0.3,0.3-0.6,0.5-0.9,0.6c-0.4,0.2-0.8,0.2-1.2,0.2c-0.5,0-1-0.1-1.4-0.3
		c-0.4-0.2-0.7-0.5-0.9-0.9s-0.3-0.9-0.3-1.4s0.1-1,0.3-1.4c0.2-0.4,0.5-0.7,0.9-0.9s0.9-0.3,1.4-0.3
		C405.6,109.8,406.2,110.1,406.7,110.6z M406,110.9c-0.3-0.3-0.7-0.4-1.2-0.4c-0.5,0-0.9,0.1-1.3,0.4c-0.3,0.3-0.5,0.7-0.6,1.2h3.6
		C406.5,111.6,406.3,111.2,406,110.9z"/>
	<path d="M412.9,110.3c0.4,0.4,0.5,0.9,0.5,1.5v3.3h-0.8v-3c0-0.5-0.1-0.8-0.4-1.1s-0.6-0.4-1.1-0.4c-0.5,0-0.9,0.2-1.2,0.5
		c-0.3,0.3-0.5,0.7-0.5,1.2v2.8h-0.8v-5.3h0.8v1.2c0.4-0.8,1-1.2,2-1.2C412,109.8,412.5,110,412.9,110.3z"/>
	<path d="M416.6,115.1c-0.4,0-0.7-0.1-1-0.4s-0.4-0.6-0.4-1.1v-3h-0.8V110h0.8v-1.4h0.8v1.4l1.7,0v0.6h-1.7v2.9
		c0,0.3,0.1,0.5,0.2,0.7s0.3,0.2,0.5,0.2c0.3,0,0.6-0.1,0.8-0.3l0.2,0.6C417.5,115,417.1,115.1,416.6,115.1z"/>
</g>
<g>
	<path fill="#0A0A0A" d="M554.6,61.1c0.6,0.3,1.2,0.6,1.7,1l-0.7,0.9c-0.4-0.4-0.8-0.7-1.3-0.9c-0.5-0.2-1-0.3-1.6-0.3
		c-0.7,0-1.4,0.2-2,0.5c-0.6,0.3-1.1,0.8-1.4,1.4c-0.4,0.6-0.5,1.2-0.5,1.9c0,0.7,0.2,1.3,0.5,1.9c0.4,0.6,0.8,1.1,1.4,1.4
		c0.6,0.3,1.3,0.5,2,0.5c0.5,0,1.1-0.1,1.6-0.3c0.5-0.2,1-0.5,1.3-0.9l0.7,0.8c-0.5,0.5-1.1,0.8-1.7,1.1c-0.6,0.3-1.3,0.4-1.9,0.4
		c-0.9,0-1.8-0.2-2.5-0.7s-1.4-1-1.8-1.8c-0.5-0.8-0.7-1.6-0.7-2.5c0-0.9,0.2-1.7,0.7-2.5s1.1-1.3,1.9-1.8s1.6-0.7,2.6-0.7
		C553.3,60.8,554,60.9,554.6,61.1z"/>
	<path fill="#0A0A0A" d="M562.8,63.7c0.6,0.3,1,0.8,1.3,1.3c0.3,0.6,0.5,1.2,0.5,1.9c0,0.7-0.2,1.4-0.5,1.9c-0.3,0.6-0.8,1-1.3,1.3
		s-1.2,0.5-1.9,0.5c-0.7,0-1.4-0.2-1.9-0.5c-0.6-0.3-1-0.8-1.3-1.3c-0.3-0.6-0.5-1.2-0.5-1.9c0-0.7,0.2-1.4,0.5-1.9
		c0.3-0.6,0.8-1,1.3-1.3c0.6-0.3,1.2-0.5,1.9-0.5C561.6,63.2,562.2,63.4,562.8,63.7z M559.5,64.5c-0.4,0.2-0.7,0.6-0.9,1
		c-0.2,0.4-0.3,0.9-0.3,1.4c0,0.5,0.1,1,0.3,1.4c0.2,0.4,0.5,0.7,0.9,1c0.4,0.2,0.9,0.4,1.4,0.4s1-0.1,1.4-0.4
		c0.4-0.2,0.7-0.6,0.9-1c0.2-0.4,0.3-0.9,0.3-1.4s-0.1-1-0.3-1.4c-0.2-0.4-0.5-0.7-0.9-1c-0.4-0.2-0.9-0.3-1.4-0.3
		C560.4,64.2,559.9,64.3,559.5,64.5z"/>
	<path fill="#0A0A0A" d="M572.5,63.9c0.5,0.5,0.7,1.2,0.7,2.1v4.6h-1.1v-4.3c0-0.7-0.2-1.2-0.6-1.5s-0.9-0.5-1.5-0.5
		c-0.7,0-1.3,0.2-1.7,0.7c-0.4,0.4-0.7,1-0.8,1.7v4h-1.1v-7.4h1.1v1.6c0.5-1.1,1.5-1.6,2.9-1.7C571.4,63.2,572,63.4,572.5,63.9z"/>
	<path fill="#0A0A0A" d="M577.1,70.6l-2.9-7.4h1.2l2.4,6.2l2.3-6.2h1.1l-2.9,7.4H577.1z"/>
	<path fill="#0A0A0A" d="M587.7,64.3c0.6,0.7,0.9,1.8,0.8,3h-6c0.1,0.7,0.4,1.3,0.9,1.7s1.1,0.6,1.8,0.6c0.5,0,0.9-0.1,1.3-0.2
		c0.4-0.2,0.7-0.4,1-0.7l0.6,0.6c-0.4,0.4-0.8,0.7-1.3,0.9c-0.5,0.2-1.1,0.3-1.7,0.3c-0.7,0-1.4-0.2-1.9-0.5c-0.6-0.3-1-0.8-1.3-1.3
		s-0.5-1.2-0.5-1.9s0.2-1.4,0.5-1.9c0.3-0.6,0.7-1,1.3-1.3s1.2-0.5,1.9-0.5C586.2,63.2,587.1,63.6,587.7,64.3z M586.8,64.8
		c-0.4-0.4-1-0.6-1.7-0.6c-0.7,0-1.3,0.2-1.8,0.6c-0.5,0.4-0.7,1-0.8,1.7h5C587.5,65.7,587.2,65.2,586.8,64.8z"/>
	<path fill="#0A0A0A" d="M592.5,63.6c0.4-0.3,1-0.4,1.6-0.4v1.1c-0.8,0-1.4,0.2-1.8,0.6s-0.7,1-0.8,1.8v3.9h-1.1v-7.4h1.1v1.6
		C591.7,64.3,592,63.9,592.5,63.6z"/>
	<path fill="#0A0A0A" d="M598.8,63.4c0.4,0.1,0.8,0.3,1.1,0.5l-0.4,0.9c-0.3-0.2-0.6-0.3-1-0.4s-0.7-0.2-1-0.2
		c-0.4,0-0.8,0.1-1.1,0.2s-0.4,0.4-0.4,0.7c0,0.2,0.1,0.4,0.2,0.6s0.3,0.3,0.6,0.4s0.5,0.2,0.9,0.3c0.5,0.2,0.9,0.3,1.3,0.5
		s0.6,0.4,0.8,0.7c0.2,0.3,0.3,0.7,0.3,1.1c0,0.7-0.3,1.2-0.8,1.6c-0.5,0.4-1.2,0.5-1.9,0.5c-0.5,0-1.1-0.1-1.6-0.3
		c-0.5-0.2-0.9-0.4-1.3-0.8l0.4-0.8c0.3,0.3,0.7,0.5,1.1,0.7c0.4,0.2,0.9,0.3,1.3,0.3c0.5,0,0.8-0.1,1.1-0.3s0.4-0.5,0.4-0.8
		s-0.1-0.6-0.4-0.8c-0.3-0.2-0.7-0.3-1.3-0.5c-0.5-0.2-0.9-0.3-1.2-0.4c-0.3-0.1-0.6-0.3-0.8-0.6c-0.2-0.3-0.3-0.6-0.3-1.1
		c0-0.7,0.2-1.2,0.7-1.5s1.1-0.5,1.8-0.5C598,63.2,598.4,63.2,598.8,63.4z"/>
	<path fill="#0A0A0A" d="M602.9,60.6c0.1,0.1,0.2,0.3,0.2,0.5s-0.1,0.4-0.2,0.5s-0.3,0.2-0.5,0.2s-0.4-0.1-0.5-0.2
		c-0.1-0.1-0.2-0.3-0.2-0.5c0-0.2,0.1-0.4,0.2-0.5c0.1-0.1,0.3-0.2,0.5-0.2S602.8,60.4,602.9,60.6z M601.9,70.6v-7.4h1.1v7.4H601.9z
		"/>
	<path fill="#0A0A0A" d="M610.6,63.7c0.6,0.3,1,0.8,1.3,1.3c0.3,0.6,0.5,1.2,0.5,1.9c0,0.7-0.2,1.4-0.5,1.9c-0.3,0.6-0.8,1-1.3,1.3
		s-1.2,0.5-1.9,0.5c-0.7,0-1.4-0.2-1.9-0.5c-0.6-0.3-1-0.8-1.3-1.3c-0.3-0.6-0.5-1.2-0.5-1.9c0-0.7,0.2-1.4,0.5-1.9
		c0.3-0.6,0.8-1,1.3-1.3c0.6-0.3,1.2-0.5,1.9-0.5C609.4,63.2,610,63.4,610.6,63.7z M607.3,64.5c-0.4,0.2-0.7,0.6-0.9,1
		c-0.2,0.4-0.3,0.9-0.3,1.4c0,0.5,0.1,1,0.3,1.4c0.2,0.4,0.5,0.7,0.9,1c0.4,0.2,0.9,0.4,1.4,0.4s1-0.1,1.4-0.4
		c0.4-0.2,0.7-0.6,0.9-1c0.2-0.4,0.3-0.9,0.3-1.4s-0.1-1-0.3-1.4c-0.2-0.4-0.5-0.7-0.9-1c-0.4-0.2-0.9-0.3-1.4-0.3
		C608.1,64.2,607.7,64.3,607.3,64.5z"/>
	<path fill="#0A0A0A" d="M620.3,63.9c0.5,0.5,0.7,1.2,0.7,2.1v4.6h-1.1v-4.3c0-0.7-0.2-1.2-0.6-1.5s-0.9-0.5-1.5-0.5
		c-0.7,0-1.3,0.2-1.7,0.7c-0.4,0.4-0.7,1-0.8,1.7v4h-1.1v-7.4h1.1v1.6c0.5-1.1,1.5-1.6,2.9-1.7C619.1,63.2,619.8,63.4,620.3,63.9z"
		/>
	<path fill="#0A0A0A" d="M627.5,70.6v-9.8h1.1v9.8H627.5z"/>
	<path fill="#0A0A0A" d="M642.9,63.9c0.5,0.5,0.7,1.2,0.7,2.1v4.6h-1.1v-4.3c0-0.7-0.2-1.2-0.5-1.5c-0.4-0.4-0.9-0.6-1.5-0.6
		c-0.8,0-1.3,0.3-1.8,0.8c-0.4,0.5-0.6,1.1-0.6,2v3.6h-1.1v-4.3c0-0.7-0.2-1.2-0.5-1.5c-0.4-0.4-0.9-0.6-1.5-0.6
		c-0.7,0-1.3,0.3-1.8,0.8c-0.4,0.5-0.7,1.1-0.7,2v3.6h-1.1v-7.4h1.1v1.7c0.2-0.6,0.6-1,1.1-1.3c0.5-0.3,1.1-0.4,1.7-0.4
		c0.7,0,1.3,0.2,1.7,0.5c0.5,0.3,0.8,0.8,0.9,1.4c0.2-0.6,0.6-1.1,1.1-1.4s1.1-0.5,1.8-0.5C641.7,63.2,642.4,63.4,642.9,63.9z"/>
	<path fill="#0A0A0A" d="M651.8,63.7c0.5,0.3,1,0.8,1.3,1.3c0.3,0.6,0.4,1.2,0.4,1.9c0,0.7-0.1,1.4-0.4,1.9s-0.7,1-1.2,1.3
		c-0.5,0.3-1.1,0.5-1.8,0.5c-0.7,0-1.2-0.1-1.7-0.4c-0.5-0.3-0.9-0.7-1.2-1.2v4.3h-1.1V63.2h1.1v1.6c0.3-0.5,0.6-0.9,1.1-1.2
		c0.5-0.3,1.1-0.4,1.7-0.4C650.7,63.2,651.3,63.3,651.8,63.7z M651.2,69.3c0.4-0.2,0.7-0.6,0.9-1s0.3-0.9,0.3-1.4s-0.1-1-0.3-1.4
		s-0.5-0.7-0.9-1c-0.4-0.2-0.9-0.4-1.4-0.4c-0.5,0-1,0.1-1.4,0.3c-0.4,0.2-0.7,0.6-0.9,1c-0.2,0.4-0.3,0.9-0.3,1.4
		c0,0.5,0.1,1,0.3,1.4c0.2,0.4,0.5,0.7,0.9,1c0.4,0.2,0.9,0.4,1.4,0.4C650.3,69.7,650.8,69.5,651.2,69.3z"/>
	<path fill="#0A0A0A" d="M657.6,63.6c0.4-0.3,1-0.4,1.6-0.4v1.1c-0.8,0-1.4,0.2-1.8,0.6s-0.7,1-0.8,1.8v3.9h-1.1v-7.4h1.1v1.6
		C656.8,64.3,657.1,63.9,657.6,63.6z"/>
	<path fill="#0A0A0A" d="M665.6,63.7c0.6,0.3,1,0.8,1.3,1.3c0.3,0.6,0.5,1.2,0.5,1.9c0,0.7-0.2,1.4-0.5,1.9c-0.3,0.6-0.8,1-1.3,1.3
		s-1.2,0.5-1.9,0.5c-0.7,0-1.4-0.2-1.9-0.5c-0.6-0.3-1-0.8-1.3-1.3c-0.3-0.6-0.5-1.2-0.5-1.9c0-0.7,0.2-1.4,0.5-1.9
		c0.3-0.6,0.8-1,1.3-1.3c0.6-0.3,1.2-0.5,1.9-0.5C664.4,63.2,665,63.4,665.6,63.7z M662.3,64.5c-0.4,0.2-0.7,0.6-0.9,1
		c-0.2,0.4-0.3,0.9-0.3,1.4c0,0.5,0.1,1,0.3,1.4c0.2,0.4,0.5,0.7,0.9,1c0.4,0.2,0.9,0.4,1.4,0.4s1-0.1,1.4-0.4
		c0.4-0.2,0.7-0.6,0.9-1c0.2-0.4,0.3-0.9,0.3-1.4s-0.1-1-0.3-1.4c-0.2-0.4-0.5-0.7-0.9-1c-0.4-0.2-0.9-0.3-1.4-0.3
		C663.2,64.2,662.7,64.3,662.3,64.5z"/>
	<path fill="#0A0A0A" d="M670.7,70.6l-2.9-7.4h1.2l2.4,6.2l2.3-6.2h1.1l-2.9,7.4H670.7z"/>
	<path fill="#0A0A0A" d="M681.4,64.3c0.6,0.7,0.9,1.8,0.8,3h-6c0.1,0.7,0.4,1.3,0.9,1.7s1.1,0.6,1.8,0.6c0.5,0,0.9-0.1,1.3-0.2
		c0.4-0.2,0.7-0.4,1-0.7l0.6,0.6c-0.4,0.4-0.8,0.7-1.3,0.9c-0.5,0.2-1.1,0.3-1.7,0.3c-0.7,0-1.4-0.2-1.9-0.5c-0.6-0.3-1-0.8-1.3-1.3
		s-0.5-1.2-0.5-1.9s0.2-1.4,0.5-1.9c0.3-0.6,0.7-1,1.3-1.3s1.2-0.5,1.9-0.5C679.9,63.2,680.8,63.6,681.4,64.3z M680.5,64.8
		c-0.4-0.4-1-0.6-1.7-0.6c-0.7,0-1.3,0.2-1.8,0.6c-0.5,0.4-0.7,1-0.8,1.7h5C681.1,65.7,680.9,65.2,680.5,64.8z"/>
	<path fill="#0A0A0A" d="M695.5,63.9c0.5,0.5,0.7,1.2,0.7,2.1v4.6h-1.1v-4.3c0-0.7-0.2-1.2-0.5-1.5c-0.4-0.4-0.9-0.6-1.5-0.6
		c-0.8,0-1.3,0.3-1.8,0.8c-0.4,0.5-0.6,1.1-0.6,2v3.6h-1.1v-4.3c0-0.7-0.2-1.2-0.5-1.5c-0.4-0.4-0.9-0.6-1.5-0.6
		c-0.7,0-1.3,0.3-1.8,0.8c-0.4,0.5-0.7,1.1-0.7,2v3.6H684v-7.4h1.1v1.7c0.2-0.6,0.6-1,1.1-1.3c0.5-0.3,1.1-0.4,1.7-0.4
		c0.7,0,1.3,0.2,1.7,0.5c0.5,0.3,0.8,0.8,0.9,1.4c0.2-0.6,0.6-1.1,1.1-1.4s1.1-0.5,1.8-0.5C694.3,63.2,695,63.4,695.5,63.9z"/>
	<path fill="#0A0A0A" d="M704.2,64.3c0.6,0.7,0.9,1.8,0.8,3h-6c0.1,0.7,0.4,1.3,0.9,1.7s1.1,0.6,1.8,0.6c0.5,0,0.9-0.1,1.3-0.2
		c0.4-0.2,0.7-0.4,1-0.7l0.6,0.6c-0.4,0.4-0.8,0.7-1.3,0.9c-0.5,0.2-1.1,0.3-1.7,0.3c-0.7,0-1.4-0.2-1.9-0.5c-0.6-0.3-1-0.8-1.3-1.3
		s-0.5-1.2-0.5-1.9s0.2-1.4,0.5-1.9c0.3-0.6,0.7-1,1.3-1.3s1.2-0.5,1.9-0.5C702.7,63.2,703.6,63.6,704.2,64.3z M703.3,64.8
		c-0.4-0.4-1-0.6-1.7-0.6c-0.7,0-1.3,0.2-1.8,0.6c-0.5,0.4-0.7,1-0.8,1.7h5C704,65.7,703.7,65.2,703.3,64.8z"/>
	<path fill="#0A0A0A" d="M712.9,63.9c0.5,0.5,0.7,1.2,0.7,2.1v4.6h-1.1v-4.3c0-0.7-0.2-1.2-0.6-1.5s-0.9-0.5-1.5-0.5
		c-0.7,0-1.3,0.2-1.7,0.7c-0.4,0.4-0.7,1-0.8,1.7v4h-1.1v-7.4h1.1v1.6c0.5-1.1,1.5-1.6,2.9-1.7C711.7,63.2,712.4,63.4,712.9,63.9z"
		/>
	<path fill="#0A0A0A" d="M718.2,70.7c-0.6,0-1-0.2-1.4-0.5s-0.5-0.9-0.5-1.6v-4.2h-1.1v-0.9h1.1v-1.9h1.1v1.9l2.3,0v0.9h-2.3v4
		c0,0.4,0.1,0.8,0.2,0.9s0.4,0.3,0.7,0.3c0.4,0,0.8-0.1,1.2-0.4l0.3,0.9C719.3,70.5,718.8,70.6,718.2,70.7z"/>
</g>
<g>
	<path fill="#844A85" d="M552.4,48.4v-4.3h-4.2v-3h4.2v-4.3h3.3v4.3h4.2v3h-4.2v4.3H552.4z"/>
	<path fill="#844A85" d="M561.8,34.2h6.8V51H565V37.4h-3.2V34.2z"/>
	<path fill="#844A85" d="M579,51.2c-2.3,0-4.1-0.8-5.2-2.4c-1.2-1.6-1.7-3.7-1.7-6.3s0.6-4.7,1.7-6.3c1.2-1.6,2.9-2.4,5.2-2.4
		s4.1,0.8,5.2,2.4c1.2,1.6,1.7,3.7,1.7,6.3s-0.6,4.7-1.7,6.3C583,50.4,581.3,51.2,579,51.2z M576.5,38.5c-0.5,1-0.8,2.4-0.8,4.1
		c0,1.7,0.3,3,0.8,4.1c0.5,1,1.4,1.5,2.5,1.5s1.9-0.5,2.5-1.5c0.5-1,0.8-2.4,0.8-4.1c0-1.7-0.3-3-0.8-4.1c-0.5-1-1.4-1.5-2.5-1.5
		S577,37.4,576.5,38.5z"/>
	<path fill="#844A85" d="M595.9,38c0,0.9-0.3,1.7-1,2.4s-1.5,1-2.5,1c-1,0-1.9-0.3-2.5-1c-0.7-0.7-1-1.5-1-2.4s0.3-1.7,1-2.4
		s1.5-1,2.5-1c1,0,1.9,0.3,2.5,1S595.9,37.1,595.9,38z M605.1,34.2l-12,16.8h-4.1l12-16.8H605.1z M591.6,38.9
		c0.2,0.2,0.4,0.3,0.7,0.3s0.5-0.1,0.7-0.3c0.2-0.2,0.3-0.5,0.3-0.9s-0.1-0.6-0.3-0.9c-0.2-0.2-0.4-0.3-0.7-0.3
		c-0.3,0-0.5,0.1-0.7,0.3c-0.2,0.2-0.3,0.5-0.3,0.9S591.4,38.7,591.6,38.9z M605.3,47.8c0,0.9-0.3,1.7-1,2.4c-0.7,0.6-1.5,1-2.5,1
		s-1.9-0.3-2.5-1c-0.7-0.7-1-1.5-1-2.4s0.3-1.7,1-2.4c0.7-0.7,1.5-1,2.5-1s1.9,0.3,2.5,1C605,46.1,605.3,46.9,605.3,47.8z
		 M601.1,48.7c0.2,0.2,0.4,0.3,0.7,0.3s0.5-0.1,0.7-0.3c0.2-0.2,0.3-0.5,0.3-0.9c0-0.4-0.1-0.6-0.3-0.9c-0.2-0.2-0.4-0.3-0.7-0.3
		s-0.5,0.1-0.7,0.3c-0.2,0.2-0.3,0.5-0.3,0.9C600.8,48.2,600.9,48.5,601.1,48.7z"/>
</g>
<g>
	<path d="M548.7,83.1l-0.8,1.8H547l3.1-7h0.8l3.1,7h-0.9l-0.8-1.8H548.7z M550.6,78.8l-1.6,3.5h3.1L550.6,78.8z"/>
	<path d="M556.3,78.4c-0.2,0.2-0.3,0.4-0.3,0.7v0.7h1.5v0.6h-1.5v4.5h-0.8v-4.5h-0.7v-0.6h0.7v-0.6c0-0.4,0.1-0.7,0.2-1
		c0.2-0.3,0.4-0.5,0.6-0.6c0.3-0.1,0.5-0.2,0.8-0.2c0.4,0,0.8,0.1,1.1,0.4l-0.3,0.6c-0.3-0.2-0.5-0.3-0.8-0.3
		C556.7,78.2,556.5,78.3,556.3,78.4z"/>
	<path d="M560,84.9c-0.4,0-0.7-0.1-1-0.4s-0.4-0.6-0.4-1.1v-3h-0.8v-0.6h0.8v-1.4h0.8v1.4l1.7,0v0.6h-1.7v2.9c0,0.3,0.1,0.5,0.2,0.7
		s0.3,0.2,0.5,0.2c0.3,0,0.6-0.1,0.8-0.3l0.2,0.6C560.8,84.8,560.4,84.9,560,84.9z"/>
	<path d="M566.2,80.4c0.4,0.5,0.6,1.3,0.6,2.2h-4.3c0.1,0.5,0.3,0.9,0.6,1.2s0.8,0.5,1.3,0.5c0.3,0,0.6-0.1,0.9-0.2
		c0.3-0.1,0.5-0.3,0.7-0.5l0.4,0.5c-0.3,0.3-0.6,0.5-0.9,0.6c-0.4,0.2-0.8,0.2-1.2,0.2c-0.5,0-1-0.1-1.4-0.3
		c-0.4-0.2-0.7-0.5-0.9-0.9s-0.3-0.9-0.3-1.4s0.1-1,0.3-1.4c0.2-0.4,0.5-0.7,0.9-0.9s0.9-0.3,1.4-0.3
		C565.2,79.6,565.8,79.9,566.2,80.4z M565.6,80.7c-0.3-0.3-0.7-0.4-1.2-0.4c-0.5,0-0.9,0.1-1.3,0.4c-0.3,0.3-0.5,0.7-0.6,1.2h3.6
		C566.1,81.4,565.9,81,565.6,80.7z"/>
	<path d="M569.6,79.9c0.3-0.2,0.7-0.3,1.1-0.3v0.8c-0.5,0-1,0.1-1.3,0.5s-0.5,0.7-0.6,1.3v2.8h-0.8v-5.3h0.8v1.2
		C569.1,80.4,569.3,80.1,569.6,79.9z"/>
	<path d="M574.7,84.9v-7h0.8v7H574.7z"/>
	<path d="M579,84.9c-0.4,0-0.7-0.1-1-0.4s-0.4-0.6-0.4-1.1v-3h-0.8v-0.6h0.8v-1.4h0.8v1.4l1.7,0v0.6h-1.7v2.9c0,0.3,0.1,0.5,0.2,0.7
		s0.3,0.2,0.5,0.2c0.3,0,0.6-0.1,0.8-0.3l0.2,0.6C579.8,84.8,579.4,84.9,579,84.9z"/>
	<path d="M585.3,80.4c0.4,0.5,0.6,1.3,0.6,2.2h-4.3c0.1,0.5,0.3,0.9,0.6,1.2s0.8,0.5,1.3,0.5c0.3,0,0.6-0.1,0.9-0.2
		c0.3-0.1,0.5-0.3,0.7-0.5l0.4,0.5c-0.3,0.3-0.6,0.5-0.9,0.6c-0.4,0.2-0.8,0.2-1.2,0.2c-0.5,0-1-0.1-1.4-0.3
		c-0.4-0.2-0.7-0.5-0.9-0.9s-0.3-0.9-0.3-1.4s0.1-1,0.3-1.4c0.2-0.4,0.5-0.7,0.9-0.9s0.9-0.3,1.4-0.3
		C584.2,79.6,584.9,79.9,585.3,80.4z M584.6,80.7c-0.3-0.3-0.7-0.4-1.2-0.4c-0.5,0-0.9,0.1-1.3,0.4c-0.3,0.3-0.5,0.7-0.6,1.2h3.6
		C585.1,81.4,585,81,584.6,80.7z"/>
	<path d="M588.7,79.9c0.3-0.2,0.7-0.3,1.1-0.3v0.8c-0.5,0-1,0.1-1.3,0.5s-0.5,0.7-0.6,1.3v2.8h-0.8v-5.3h0.8v1.2
		C588.1,80.4,588.4,80.1,588.7,79.9z"/>
	<path d="M593.9,84.1c-0.4,0.6-1.1,0.8-1.9,0.8c-0.4,0-0.7-0.1-0.9-0.2c-0.3-0.1-0.5-0.3-0.6-0.6c-0.1-0.2-0.2-0.5-0.2-0.8
		c0-0.5,0.2-0.8,0.5-1.1s0.8-0.4,1.5-0.4h1.7v-0.3c0-0.4-0.1-0.7-0.4-0.9s-0.6-0.3-1.1-0.3c-0.5,0-1.1,0.2-1.7,0.6l-0.3-0.6
		c0.4-0.2,0.7-0.4,1-0.5c0.3-0.1,0.7-0.2,1.1-0.2c0.6,0,1.1,0.2,1.5,0.5c0.4,0.3,0.5,0.8,0.5,1.3l0,3.5h-0.8V84.1z M593.3,83.9
		c0.3-0.2,0.5-0.5,0.6-0.9v-0.6h-1.6c-0.9,0-1.3,0.3-1.3,0.8c0,0.3,0.1,0.5,0.3,0.7s0.5,0.3,0.9,0.3C592.6,84.3,593,84.2,593.3,83.9
		z"/>
	<path d="M598,84.9c-0.4,0-0.7-0.1-1-0.4s-0.4-0.6-0.4-1.1v-3h-0.8v-0.6h0.8v-1.4h0.8v1.4l1.7,0v0.6h-1.7v2.9c0,0.3,0.1,0.5,0.2,0.7
		s0.3,0.2,0.5,0.2c0.3,0,0.6-0.1,0.8-0.3l0.2,0.6C598.8,84.8,598.4,84.9,598,84.9z"/>
	<path d="M601.1,77.7c0.1,0.1,0.1,0.2,0.1,0.4s0,0.3-0.1,0.4s-0.2,0.2-0.4,0.2s-0.3-0.1-0.4-0.2c-0.1-0.1-0.1-0.2-0.1-0.4
		c0-0.2,0-0.3,0.1-0.4c0.1-0.1,0.2-0.2,0.4-0.2S601,77.6,601.1,77.7z M600.3,84.9v-5.3h0.8v5.3H600.3z"/>
	<path d="M606.5,79.9c0.4,0.2,0.7,0.5,1,0.9c0.2,0.4,0.3,0.9,0.3,1.4c0,0.5-0.1,1-0.3,1.4c-0.2,0.4-0.5,0.7-1,0.9s-0.9,0.3-1.4,0.3
		c-0.5,0-1-0.1-1.4-0.3c-0.4-0.2-0.7-0.5-1-0.9c-0.2-0.4-0.3-0.9-0.3-1.4c0-0.5,0.1-1,0.3-1.4c0.2-0.4,0.5-0.7,1-0.9
		c0.4-0.2,0.9-0.3,1.4-0.3C605.6,79.6,606.1,79.7,606.5,79.9z M604.2,80.6c-0.3,0.2-0.5,0.4-0.7,0.7c-0.2,0.3-0.2,0.6-0.2,1
		c0,0.4,0.1,0.7,0.2,1c0.2,0.3,0.4,0.5,0.7,0.7c0.3,0.2,0.6,0.3,1,0.3s0.7-0.1,1-0.3c0.3-0.2,0.5-0.4,0.7-0.7c0.2-0.3,0.2-0.6,0.2-1
		s-0.1-0.7-0.2-1c-0.2-0.3-0.4-0.5-0.7-0.7c-0.3-0.2-0.6-0.2-1-0.2C604.8,80.3,604.4,80.4,604.2,80.6z"/>
	<path d="M613.5,80.1c0.4,0.4,0.5,0.9,0.5,1.5v3.3h-0.8v-3c0-0.5-0.1-0.8-0.4-1.1s-0.6-0.4-1.1-0.4c-0.5,0-0.9,0.2-1.2,0.5
		c-0.3,0.3-0.5,0.7-0.5,1.2v2.8h-0.8v-5.3h0.8v1.2c0.4-0.8,1-1.2,2-1.2C612.6,79.6,613.1,79.8,613.5,80.1z"/>
	<path d="M621.7,84.1c-0.4,0.6-1.1,0.8-1.9,0.8c-0.4,0-0.7-0.1-0.9-0.2c-0.3-0.1-0.5-0.3-0.6-0.6c-0.1-0.2-0.2-0.5-0.2-0.8
		c0-0.5,0.2-0.8,0.5-1.1s0.8-0.4,1.5-0.4h1.7v-0.3c0-0.4-0.1-0.7-0.4-0.9s-0.6-0.3-1.1-0.3c-0.5,0-1.1,0.2-1.7,0.6l-0.3-0.6
		c0.4-0.2,0.7-0.4,1-0.5c0.3-0.1,0.7-0.2,1.1-0.2c0.6,0,1.1,0.2,1.5,0.5c0.4,0.3,0.5,0.8,0.5,1.3l0,3.5h-0.8V84.1z M621.1,83.9
		c0.3-0.2,0.5-0.5,0.6-0.9v-0.6h-1.6c-0.9,0-1.3,0.3-1.3,0.8c0,0.3,0.1,0.5,0.3,0.7s0.5,0.3,0.9,0.3
		C620.4,84.3,620.8,84.2,621.1,83.9z"/>
	<path d="M628.5,80.1c0.4,0.4,0.5,0.9,0.5,1.5v3.3h-0.8v-3c0-0.5-0.1-0.8-0.4-1.1s-0.6-0.4-1.1-0.4c-0.5,0-0.9,0.2-1.2,0.5
		c-0.3,0.3-0.5,0.7-0.5,1.2v2.8h-0.8v-5.3h0.8v1.2c0.4-0.8,1-1.2,2-1.2C627.7,79.6,628.2,79.8,628.5,80.1z"/>
	<path d="M635.6,84.9h-0.8v-1.1c-0.2,0.4-0.5,0.7-0.8,0.9c-0.3,0.2-0.8,0.3-1.2,0.3c-0.5,0-0.9-0.1-1.3-0.3s-0.7-0.5-0.9-0.9
		c-0.2-0.4-0.3-0.9-0.3-1.4s0.1-1,0.3-1.4c0.2-0.4,0.5-0.7,0.9-0.9c0.4-0.2,0.8-0.3,1.3-0.3c0.5,0,0.9,0.1,1.2,0.3
		c0.4,0.2,0.6,0.5,0.8,0.9v-3.3h0.8V84.9z M633.9,84c0.3-0.2,0.5-0.4,0.7-0.7c0.2-0.3,0.2-0.6,0.2-1c0-0.4-0.1-0.7-0.2-1
		c-0.2-0.3-0.4-0.5-0.7-0.7c-0.3-0.2-0.6-0.3-1-0.3c-0.4,0-0.7,0.1-1,0.3c-0.3,0.2-0.5,0.4-0.7,0.7c-0.2,0.3-0.2,0.6-0.2,1
		c0,0.4,0.1,0.7,0.2,1c0.2,0.3,0.4,0.5,0.7,0.7c0.3,0.2,0.6,0.3,1,0.3C633.3,84.2,633.6,84.2,633.9,84z"/>
	<path d="M643.8,79.9c0.4,0.2,0.7,0.5,1,0.9c0.2,0.4,0.3,0.9,0.3,1.4c0,0.5-0.1,1-0.3,1.4c-0.2,0.4-0.5,0.7-1,0.9s-0.9,0.3-1.4,0.3
		c-0.5,0-1-0.1-1.4-0.3c-0.4-0.2-0.7-0.5-1-0.9c-0.2-0.4-0.3-0.9-0.3-1.4c0-0.5,0.1-1,0.3-1.4c0.2-0.4,0.5-0.7,1-0.9
		c0.4-0.2,0.9-0.3,1.4-0.3C643,79.6,643.4,79.7,643.8,79.9z M641.5,80.6c-0.3,0.2-0.5,0.4-0.7,0.7c-0.2,0.3-0.2,0.6-0.2,1
		c0,0.4,0.1,0.7,0.2,1c0.2,0.3,0.4,0.5,0.7,0.7c0.3,0.2,0.6,0.3,1,0.3s0.7-0.1,1-0.3c0.3-0.2,0.5-0.4,0.7-0.7c0.2-0.3,0.2-0.6,0.2-1
		s-0.1-0.7-0.2-1c-0.2-0.3-0.4-0.5-0.7-0.7c-0.3-0.2-0.6-0.2-1-0.2C642.1,80.3,641.8,80.4,641.5,80.6z"/>
	<path d="M646.5,84.9v-7.4h0.8v7.4H646.5z"/>
	<path d="M654.1,84.9h-0.8v-1.1c-0.2,0.4-0.5,0.7-0.8,0.9c-0.3,0.2-0.8,0.3-1.2,0.3c-0.5,0-0.9-0.1-1.3-0.3s-0.7-0.5-0.9-0.9
		c-0.2-0.4-0.3-0.9-0.3-1.4s0.1-1,0.3-1.4c0.2-0.4,0.5-0.7,0.9-0.9c0.4-0.2,0.8-0.3,1.3-0.3c0.5,0,0.9,0.1,1.2,0.3
		c0.4,0.2,0.6,0.5,0.8,0.9v-3.3h0.8V84.9z M652.4,84c0.3-0.2,0.5-0.4,0.7-0.7c0.2-0.3,0.2-0.6,0.2-1c0-0.4-0.1-0.7-0.2-1
		c-0.2-0.3-0.4-0.5-0.7-0.7c-0.3-0.2-0.6-0.3-1-0.3c-0.4,0-0.7,0.1-1,0.3c-0.3,0.2-0.5,0.4-0.7,0.7c-0.2,0.3-0.2,0.6-0.2,1
		c0,0.4,0.1,0.7,0.2,1c0.2,0.3,0.4,0.5,0.7,0.7c0.3,0.2,0.6,0.3,1,0.3C651.8,84.2,652.1,84.2,652.4,84z"/>
	<path d="M660,80.4c0.4,0.5,0.6,1.3,0.6,2.2h-4.3c0.1,0.5,0.3,0.9,0.6,1.2s0.8,0.5,1.3,0.5c0.3,0,0.6-0.1,0.9-0.2
		c0.3-0.1,0.5-0.3,0.7-0.5l0.4,0.5c-0.3,0.3-0.6,0.5-0.9,0.6c-0.4,0.2-0.8,0.2-1.2,0.2c-0.5,0-1-0.1-1.4-0.3
		c-0.4-0.2-0.7-0.5-0.9-0.9s-0.3-0.9-0.3-1.4s0.1-1,0.3-1.4c0.2-0.4,0.5-0.7,0.9-0.9s0.9-0.3,1.4-0.3C659,79.6,659.6,79.9,660,80.4z
		 M659.4,80.7c-0.3-0.3-0.7-0.4-1.2-0.4c-0.5,0-0.9,0.1-1.3,0.4c-0.3,0.3-0.5,0.7-0.6,1.2h3.6C659.9,81.4,659.7,81,659.4,80.7z"/>
	<path d="M663.5,79.9c0.3-0.2,0.7-0.3,1.1-0.3v0.8c-0.5,0-1,0.1-1.3,0.5s-0.5,0.7-0.6,1.3v2.8h-0.8v-5.3h0.8v1.2
		C662.9,80.4,663.1,80.1,663.5,79.9z"/>
	<path d="M672.6,79.9c0.4,0.2,0.7,0.5,0.9,0.9c0.2,0.4,0.3,0.9,0.3,1.4c0,0.5-0.1,1-0.3,1.4c-0.2,0.4-0.5,0.7-0.9,0.9
		c-0.4,0.2-0.8,0.3-1.3,0.3c-0.5,0-0.9-0.1-1.2-0.3c-0.4-0.2-0.6-0.5-0.8-0.9v3.1h-0.8v-7.2h0.8v1.1c0.2-0.4,0.5-0.7,0.8-0.9
		c0.3-0.2,0.8-0.3,1.2-0.3C671.7,79.6,672.2,79.7,672.6,79.9z M672.1,84c0.3-0.2,0.5-0.4,0.7-0.7c0.2-0.3,0.2-0.6,0.2-1
		s-0.1-0.7-0.2-1c-0.2-0.3-0.4-0.5-0.7-0.7s-0.6-0.3-1-0.3c-0.4,0-0.7,0.1-1,0.2s-0.5,0.4-0.7,0.7s-0.2,0.6-0.2,1
		c0,0.4,0.1,0.7,0.2,1s0.4,0.5,0.7,0.7s0.6,0.3,1,0.3C671.5,84.2,671.8,84.1,672.1,84z"/>
	<path d="M676.7,79.9c0.3-0.2,0.7-0.3,1.1-0.3v0.8c-0.5,0-1,0.1-1.3,0.5s-0.5,0.7-0.6,1.3v2.8h-0.8v-5.3h0.8v1.2
		C676.1,80.4,676.3,80.1,676.7,79.9z"/>
	<path d="M682.4,79.9c0.4,0.2,0.7,0.5,0.9,0.9s0.3,0.9,0.3,1.4c0,0.5-0.1,1-0.3,1.4s-0.5,0.7-0.9,0.9c-0.4,0.2-0.9,0.3-1.4,0.3
		s-1-0.1-1.4-0.3s-0.7-0.5-0.9-0.9c-0.2-0.4-0.3-0.9-0.3-1.4c0-0.5,0.1-1,0.3-1.4c0.2-0.4,0.5-0.7,0.9-0.9s0.9-0.3,1.4-0.3
		S682,79.7,682.4,79.9z M680,80.6c-0.3,0.2-0.5,0.4-0.7,0.7s-0.2,0.6-0.2,1c0,0.4,0.1,0.7,0.2,1s0.4,0.5,0.7,0.7s0.6,0.3,1,0.3
		s0.7-0.1,1-0.3s0.5-0.4,0.7-0.7s0.2-0.6,0.2-1s-0.1-0.7-0.2-1s-0.4-0.5-0.7-0.7c-0.3-0.2-0.6-0.2-1-0.2
		C680.6,80.3,680.3,80.4,680,80.6z"/>
	<path d="M689.9,84.9h-0.8v-1.1c-0.2,0.4-0.5,0.7-0.8,0.9c-0.4,0.2-0.8,0.3-1.2,0.3c-0.5,0-0.9-0.1-1.3-0.3
		c-0.4-0.2-0.7-0.5-0.9-0.9c-0.2-0.4-0.3-0.9-0.3-1.4s0.1-1,0.3-1.4c0.2-0.4,0.5-0.7,0.9-0.9s0.8-0.3,1.3-0.3c0.5,0,0.9,0.1,1.2,0.3
		s0.6,0.5,0.8,0.9v-3.3h0.8V84.9z M688.2,84c0.3-0.2,0.5-0.4,0.7-0.7s0.2-0.6,0.2-1c0-0.4-0.1-0.7-0.2-1s-0.4-0.5-0.7-0.7
		s-0.6-0.3-1-0.3s-0.7,0.1-1,0.3s-0.5,0.4-0.7,0.7s-0.2,0.6-0.2,1c0,0.4,0.1,0.7,0.2,1s0.4,0.5,0.7,0.7s0.6,0.3,1,0.3
		S687.9,84.2,688.2,84z"/>
	<path d="M696.4,84.9h-0.8v-1.2c-0.3,0.8-1,1.2-2,1.2c-0.6,0-1.1-0.2-1.4-0.5c-0.4-0.4-0.5-0.9-0.5-1.5v-3.2h0.8v3
		c0,0.5,0.1,0.8,0.4,1.1s0.6,0.4,1.1,0.4c0.5,0,1-0.2,1.3-0.5c0.3-0.4,0.5-0.8,0.5-1.4v-2.6h0.8V84.9z"/>
	<path d="M701.5,79.8c0.3,0.1,0.6,0.3,0.9,0.6l-0.4,0.6c-0.4-0.4-0.9-0.6-1.6-0.6c-0.4,0-0.7,0.1-1,0.2s-0.5,0.4-0.7,0.7
		s-0.2,0.6-0.2,1c0,0.4,0.1,0.7,0.2,1s0.4,0.5,0.7,0.7s0.6,0.3,1,0.3c0.3,0,0.7-0.1,0.9-0.2s0.5-0.3,0.7-0.5l0.4,0.5
		c-0.2,0.3-0.5,0.5-0.9,0.7c-0.4,0.2-0.8,0.2-1.2,0.2c-0.5,0-1-0.1-1.4-0.3s-0.7-0.5-0.9-0.9c-0.2-0.4-0.3-0.9-0.3-1.4
		s0.1-1,0.3-1.4c0.2-0.4,0.5-0.7,0.9-0.9s0.9-0.3,1.4-0.3C700.8,79.6,701.2,79.7,701.5,79.8z"/>
	<path d="M705.4,84.9c-0.4,0-0.7-0.1-1-0.4s-0.4-0.6-0.4-1.1v-3h-0.8v-0.6h0.8v-1.4h0.8v1.4l1.7,0v0.6h-1.7v2.9
		c0,0.3,0.1,0.5,0.2,0.7s0.3,0.2,0.5,0.2c0.3,0,0.6-0.1,0.8-0.3l0.2,0.6C706.2,84.8,705.8,84.9,705.4,84.9z"/>
	<path d="M549.5,91.9c0.3-0.2,0.7-0.3,1.1-0.3v0.8c-0.5,0-1,0.1-1.3,0.5s-0.5,0.7-0.6,1.3v2.8H548v-5.3h0.8v1.2
		C548.9,92.4,549.2,92.1,549.5,91.9z"/>
	<path d="M555.6,92.4c0.4,0.5,0.6,1.3,0.6,2.2h-4.3c0.1,0.5,0.3,0.9,0.6,1.2s0.8,0.5,1.3,0.5c0.3,0,0.6-0.1,0.9-0.2
		c0.3-0.1,0.5-0.3,0.7-0.5l0.4,0.5c-0.3,0.3-0.6,0.5-0.9,0.6c-0.4,0.2-0.8,0.2-1.2,0.2c-0.5,0-1-0.1-1.4-0.3
		c-0.4-0.2-0.7-0.5-0.9-0.9s-0.3-0.9-0.3-1.4s0.1-1,0.3-1.4c0.2-0.4,0.5-0.7,0.9-0.9s0.9-0.3,1.4-0.3
		C554.6,91.6,555.2,91.9,555.6,92.4z M555,92.7c-0.3-0.3-0.7-0.4-1.2-0.4c-0.5,0-0.9,0.1-1.3,0.4c-0.3,0.3-0.5,0.7-0.6,1.2h3.6
		C555.5,93.4,555.3,93,555,92.7z"/>
	<path d="M562.4,96.9h-0.8v-1.1c-0.2,0.4-0.5,0.7-0.8,0.9c-0.3,0.2-0.8,0.3-1.2,0.3c-0.5,0-0.9-0.1-1.3-0.3s-0.7-0.5-0.9-0.9
		c-0.2-0.4-0.3-0.9-0.3-1.4s0.1-1,0.3-1.4c0.2-0.4,0.5-0.7,0.9-0.9c0.4-0.2,0.8-0.3,1.3-0.3c0.5,0,0.9,0.1,1.2,0.3
		c0.4,0.2,0.6,0.5,0.8,0.9v-3.3h0.8V96.9z M560.7,96c0.3-0.2,0.5-0.4,0.7-0.7c0.2-0.3,0.2-0.6,0.2-1c0-0.4-0.1-0.7-0.2-1
		c-0.2-0.3-0.4-0.5-0.7-0.7c-0.3-0.2-0.6-0.3-1-0.3c-0.4,0-0.7,0.1-1,0.3c-0.3,0.2-0.5,0.4-0.7,0.7c-0.2,0.3-0.2,0.6-0.2,1
		c0,0.4,0.1,0.7,0.2,1c0.2,0.3,0.4,0.5,0.7,0.7c0.3,0.2,0.6,0.3,1,0.3C560.1,96.2,560.4,96.2,560.7,96z"/>
	<path d="M568.3,92.4c0.4,0.5,0.6,1.3,0.6,2.2h-4.3c0.1,0.5,0.3,0.9,0.6,1.2s0.8,0.5,1.3,0.5c0.3,0,0.6-0.1,0.9-0.2
		c0.3-0.1,0.5-0.3,0.7-0.5l0.4,0.5c-0.3,0.3-0.6,0.5-0.9,0.6c-0.4,0.2-0.8,0.2-1.2,0.2c-0.5,0-1-0.1-1.4-0.3
		c-0.4-0.2-0.7-0.5-0.9-0.9s-0.3-0.9-0.3-1.4s0.1-1,0.3-1.4c0.2-0.4,0.5-0.7,0.9-0.9s0.9-0.3,1.4-0.3
		C567.3,91.6,567.9,91.9,568.3,92.4z M567.7,92.7c-0.3-0.3-0.7-0.4-1.2-0.4c-0.5,0-0.9,0.1-1.3,0.4c-0.3,0.3-0.5,0.7-0.6,1.2h3.6
		C568.1,93.4,568,93,567.7,92.7z"/>
	<path d="M572.5,91.7c0.3,0.1,0.5,0.2,0.8,0.4l-0.3,0.6c-0.2-0.1-0.4-0.2-0.7-0.3s-0.5-0.1-0.7-0.1c-0.3,0-0.6,0.1-0.8,0.2
		s-0.3,0.3-0.3,0.5c0,0.2,0.1,0.3,0.2,0.4s0.2,0.2,0.4,0.3s0.4,0.1,0.7,0.2c0.4,0.1,0.7,0.2,0.9,0.3s0.4,0.3,0.6,0.5
		c0.2,0.2,0.2,0.5,0.2,0.8c0,0.5-0.2,0.9-0.6,1.1c-0.4,0.3-0.8,0.4-1.4,0.4c-0.4,0-0.8-0.1-1.1-0.2c-0.4-0.1-0.7-0.3-0.9-0.5
		l0.3-0.6c0.2,0.2,0.5,0.4,0.8,0.5c0.3,0.1,0.6,0.2,0.9,0.2c0.3,0,0.6-0.1,0.8-0.2s0.3-0.3,0.3-0.6s-0.1-0.4-0.3-0.6
		c-0.2-0.1-0.5-0.2-0.9-0.4c-0.4-0.1-0.7-0.2-0.9-0.3c-0.2-0.1-0.4-0.2-0.6-0.4c-0.2-0.2-0.2-0.5-0.2-0.8c0-0.5,0.2-0.8,0.5-1.1
		s0.8-0.4,1.3-0.4C571.9,91.6,572.2,91.6,572.5,91.7z"/>
	<path d="M575.5,89.7c0.1,0.1,0.1,0.2,0.1,0.4s0,0.3-0.1,0.4s-0.2,0.2-0.4,0.2s-0.3-0.1-0.4-0.2c-0.1-0.1-0.1-0.2-0.1-0.4
		c0-0.2,0-0.3,0.1-0.4c0.1-0.1,0.2-0.2,0.4-0.2S575.4,89.6,575.5,89.7z M574.7,96.9v-5.3h0.8v5.3H574.7z"/>
	<path d="M582,96.3c0,0.5-0.1,1-0.3,1.3c-0.2,0.4-0.5,0.7-0.9,0.9c-0.4,0.2-0.9,0.3-1.4,0.3c-0.8,0-1.5-0.3-2.2-0.8l0.4-0.6
		c0.3,0.2,0.5,0.4,0.8,0.5c0.3,0.1,0.6,0.2,0.9,0.2c0.6,0,1-0.2,1.4-0.5s0.5-0.8,0.5-1.3v-0.8c-0.2,0.4-0.4,0.6-0.8,0.8
		c-0.3,0.2-0.7,0.3-1.2,0.3c-0.5,0-0.9-0.1-1.2-0.3c-0.4-0.2-0.6-0.5-0.9-0.9c-0.2-0.4-0.3-0.8-0.3-1.3c0-0.5,0.1-0.9,0.3-1.3
		s0.5-0.7,0.8-0.9c0.4-0.2,0.8-0.3,1.2-0.3c0.4,0,0.8,0.1,1.2,0.3c0.3,0.2,0.6,0.5,0.8,0.8v-1.1h0.8V96.3z M580.3,95.8
		c0.3-0.2,0.5-0.4,0.6-0.7c0.2-0.3,0.2-0.6,0.2-1c0-0.4-0.1-0.7-0.2-1c-0.2-0.3-0.4-0.5-0.6-0.7s-0.6-0.2-0.9-0.2
		c-0.3,0-0.7,0.1-0.9,0.2s-0.5,0.4-0.6,0.7s-0.2,0.6-0.2,1c0,0.4,0.1,0.7,0.2,1s0.4,0.5,0.6,0.7s0.6,0.2,0.9,0.2
		C579.8,96,580.1,95.9,580.3,95.8z"/>
	<path d="M588.1,92.1c0.4,0.4,0.5,0.9,0.5,1.5v3.3h-0.8v-3c0-0.5-0.1-0.8-0.4-1.1s-0.6-0.4-1.1-0.4c-0.5,0-0.9,0.2-1.2,0.5
		c-0.3,0.3-0.5,0.7-0.5,1.2v2.8h-0.8v-5.3h0.8v1.2c0.4-0.8,1-1.2,2-1.2C587.2,91.6,587.7,91.8,588.1,92.1z"/>
</g>
</svg>
