<?xml version="1.0" encoding="utf-8"?>
<!-- Generator: Adobe Illustrator 22.0.0, SVG Export Plug-In . SVG Version: 6.00 Build 0)  -->
<svg version="1.1" id="Calque_1" xmlns="http://www.w3.org/2000/svg" xmlns:xlink="http://www.w3.org/1999/xlink" x="0px" y="0px"
	 viewBox="0 0 724 142.4" enable-background="new 0 0 724 142.4" xml:space="preserve">
<g>
	<path fill="#0A0A0A" d="M418.3,71.3c-0.3,0-0.5,0-0.7,0H415v3.1h-1.1v-9.8h3.7c1.2,0,2.2,0.3,2.8,0.9s1,1.4,1,2.4
		c0,0.8-0.2,1.5-0.6,2c-0.4,0.5-0.9,0.9-1.6,1.2l2.3,3.3h-1.3L418.3,71.3z M419.7,69.6c0.5-0.4,0.7-1,0.7-1.7c0-0.7-0.2-1.3-0.7-1.7
		c-0.5-0.4-1.2-0.6-2.1-0.6H415v4.6h2.6C418.5,70.2,419.2,70,419.7,69.6z"/>
	<path fill="#0A0A0A" d="M429.4,68.1c0.6,0.7,0.9,1.8,0.8,3h-6c0.1,0.7,0.4,1.3,0.9,1.7s1.1,0.6,1.8,0.6c0.5,0,0.9-0.1,1.3-0.2
		c0.4-0.2,0.7-0.4,1-0.7l0.6,0.6c-0.4,0.4-0.8,0.7-1.3,0.9c-0.5,0.2-1.1,0.3-1.7,0.3c-0.7,0-1.4-0.2-1.9-0.5c-0.6-0.3-1-0.8-1.3-1.3
		s-0.5-1.2-0.5-1.9s0.2-1.4,0.5-1.9c0.3-0.6,0.7-1,1.3-1.3s1.2-0.5,1.9-0.5C427.9,67,428.8,67.4,429.4,68.1z M428.5,68.6
		c-0.4-0.4-1-0.6-1.7-0.6c-0.7,0-1.3,0.2-1.8,0.6c-0.5,0.4-0.7,1-0.8,1.7h5C429.2,69.5,428.9,69,428.5,68.6z"/>
	<path fill="#0A0A0A" d="M433.5,74.4l-2.9-7.4h1.2l2.4,6.2l2.3-6.2h1.1l-2.9,7.4H433.5z"/>
	<path fill="#0A0A0A" d="M444.1,68.1c0.6,0.7,0.9,1.8,0.8,3h-6c0.1,0.7,0.4,1.3,0.9,1.7s1.1,0.6,1.8,0.6c0.5,0,0.9-0.1,1.3-0.2
		c0.4-0.2,0.7-0.4,1-0.7l0.6,0.6c-0.4,0.4-0.8,0.7-1.3,0.9c-0.5,0.2-1.1,0.3-1.7,0.3c-0.7,0-1.4-0.2-1.9-0.5c-0.6-0.3-1-0.8-1.3-1.3
		s-0.5-1.2-0.5-1.9s0.2-1.4,0.5-1.9c0.3-0.6,0.7-1,1.3-1.3s1.2-0.5,1.9-0.5C442.7,67,443.5,67.4,444.1,68.1z M443.2,68.6
		c-0.4-0.4-1-0.6-1.7-0.6c-0.7,0-1.3,0.2-1.8,0.6c-0.5,0.4-0.7,1-0.8,1.7h5C443.9,69.5,443.7,69,443.2,68.6z"/>
	<path fill="#0A0A0A" d="M452.8,67.7c0.5,0.5,0.7,1.2,0.7,2.1v4.6h-1.1v-4.3c0-0.7-0.2-1.2-0.6-1.5s-0.9-0.5-1.5-0.5
		c-0.7,0-1.3,0.2-1.7,0.7c-0.4,0.4-0.7,1-0.8,1.7v4h-1.1V67h1.1v1.6c0.5-1.1,1.5-1.6,2.9-1.7C451.6,67,452.3,67.2,452.8,67.7z"/>
	<path fill="#0A0A0A" d="M462.4,74.4h-1.1v-1.7c-0.5,1.1-1.4,1.7-2.8,1.7c-0.9,0-1.5-0.3-2-0.8c-0.5-0.5-0.7-1.2-0.7-2.1V67h1.1v4.3
		c0,0.7,0.2,1.2,0.5,1.5c0.4,0.4,0.9,0.5,1.5,0.5c0.8,0,1.3-0.3,1.8-0.8s0.6-1.1,0.6-1.9V67h1.1V74.4z"/>
	<path fill="#0A0A0A" d="M470.6,68.1c0.6,0.7,0.9,1.8,0.8,3h-6c0.1,0.7,0.4,1.3,0.9,1.7s1.1,0.6,1.8,0.6c0.5,0,0.9-0.1,1.3-0.2
		c0.4-0.2,0.7-0.4,1-0.7l0.6,0.6c-0.4,0.4-0.8,0.7-1.3,0.9c-0.5,0.2-1.1,0.3-1.7,0.3c-0.7,0-1.4-0.2-1.9-0.5c-0.6-0.3-1-0.8-1.3-1.3
		s-0.5-1.2-0.5-1.9s0.2-1.4,0.5-1.9c0.3-0.6,0.7-1,1.3-1.3s1.2-0.5,1.9-0.5C469.1,67,470,67.4,470.6,68.1z M469.7,68.6
		c-0.4-0.4-1-0.6-1.7-0.6c-0.7,0-1.3,0.2-1.8,0.6c-0.5,0.4-0.7,1-0.8,1.7h5C470.4,69.5,470.1,69,469.7,68.6z"/>
	<path fill="#0A0A0A" d="M478.1,64.4c0.1,0.1,0.2,0.3,0.2,0.5s-0.1,0.4-0.2,0.5s-0.3,0.2-0.5,0.2s-0.4-0.1-0.5-0.2
		c-0.1-0.1-0.2-0.3-0.2-0.5c0-0.2,0.1-0.4,0.2-0.5c0.1-0.1,0.3-0.2,0.5-0.2S478,64.2,478.1,64.4z M477.1,74.4V67h1.1v7.4H477.1z"/>
	<path fill="#0A0A0A" d="M486.8,67.7c0.5,0.5,0.7,1.2,0.7,2.1v4.6h-1.1v-4.3c0-0.7-0.2-1.2-0.6-1.5s-0.9-0.5-1.5-0.5
		c-0.7,0-1.3,0.2-1.7,0.7c-0.4,0.4-0.7,1-0.8,1.7v4h-1.1V67h1.1v1.6c0.5-1.1,1.5-1.6,2.9-1.7C485.7,67,486.3,67.2,486.8,67.7z"/>
	<path fill="#0A0A0A" d="M494.6,67.3c0.5,0.2,0.9,0.5,1.2,0.8l-0.6,0.8c-0.6-0.6-1.3-0.9-2.2-0.9c-0.5,0-1,0.1-1.4,0.3
		s-0.7,0.5-0.9,1c-0.2,0.4-0.3,0.9-0.3,1.4c0,0.5,0.1,1,0.3,1.4c0.2,0.4,0.5,0.7,0.9,1s0.8,0.4,1.4,0.4c0.5,0,0.9-0.1,1.3-0.2
		c0.4-0.2,0.7-0.4,1-0.7l0.6,0.7c-0.3,0.4-0.8,0.7-1.3,0.9c-0.5,0.2-1.1,0.3-1.7,0.3c-0.7,0-1.3-0.2-1.9-0.5c-0.6-0.3-1-0.8-1.3-1.3
		c-0.3-0.6-0.5-1.2-0.5-1.9s0.2-1.4,0.5-1.9c0.3-0.6,0.8-1,1.3-1.3c0.6-0.3,1.2-0.5,1.9-0.5C493.6,67,494.1,67.1,494.6,67.3z"/>
	<path fill="#0A0A0A" d="M500,67.4c0.4-0.3,1-0.4,1.6-0.4v1.1c-0.8,0-1.4,0.2-1.8,0.6s-0.7,1-0.8,1.8v3.9h-1.1V67h1.1v1.6
		C499.2,68.1,499.5,67.7,500,67.4z"/>
	<path fill="#0A0A0A" d="M508.6,68.1c0.6,0.7,0.9,1.8,0.8,3h-6c0.1,0.7,0.4,1.3,0.9,1.7s1.1,0.6,1.8,0.6c0.5,0,0.9-0.1,1.3-0.2
		c0.4-0.2,0.7-0.4,1-0.7l0.6,0.6c-0.4,0.4-0.8,0.7-1.3,0.9c-0.5,0.2-1.1,0.3-1.7,0.3c-0.7,0-1.4-0.2-1.9-0.5c-0.6-0.3-1-0.8-1.3-1.3
		s-0.5-1.2-0.5-1.9s0.2-1.4,0.5-1.9c0.3-0.6,0.7-1,1.3-1.3s1.2-0.5,1.9-0.5C507.2,67,508,67.4,508.6,68.1z M507.7,68.6
		c-0.4-0.4-1-0.6-1.7-0.6c-0.7,0-1.3,0.2-1.8,0.6c-0.5,0.4-0.7,1-0.8,1.7h5C508.4,69.5,508.2,69,507.7,68.6z"/>
	<path fill="#0A0A0A" d="M515.9,73.3c-0.6,0.8-1.5,1.2-2.7,1.2c-0.5,0-0.9-0.1-1.3-0.3c-0.4-0.2-0.7-0.5-0.9-0.8
		c-0.2-0.3-0.3-0.7-0.3-1.2c0-0.6,0.2-1.2,0.7-1.5s1.2-0.6,2-0.6h2.4v-0.4c0-0.6-0.2-1-0.5-1.3s-0.8-0.4-1.5-0.4
		c-0.7,0-1.5,0.3-2.3,0.8l-0.5-0.8c0.5-0.3,1-0.6,1.4-0.8c0.4-0.2,1-0.2,1.6-0.2c0.9,0,1.6,0.2,2.1,0.7c0.5,0.4,0.7,1.1,0.7,1.9
		l0,4.9h-1.1V73.3z M515,73.1c0.4-0.3,0.7-0.7,0.9-1.2V71h-2.3c-1.2,0-1.9,0.4-1.9,1.2c0,0.4,0.2,0.7,0.5,1s0.7,0.4,1.2,0.4
		C514,73.5,514.5,73.4,515,73.1z"/>
	<path fill="#0A0A0A" d="M522.6,67.2c0.4,0.1,0.8,0.3,1.1,0.5l-0.4,0.9c-0.3-0.2-0.6-0.3-1-0.4s-0.7-0.2-1-0.2
		c-0.4,0-0.8,0.1-1.1,0.2s-0.4,0.4-0.4,0.7c0,0.2,0.1,0.4,0.2,0.6s0.3,0.3,0.6,0.4s0.5,0.2,0.9,0.3c0.5,0.2,0.9,0.3,1.3,0.5
		s0.6,0.4,0.8,0.7c0.2,0.3,0.3,0.7,0.3,1.1c0,0.7-0.3,1.2-0.8,1.6c-0.5,0.4-1.2,0.5-1.9,0.5c-0.5,0-1.1-0.1-1.6-0.3
		c-0.5-0.2-0.9-0.4-1.3-0.8l0.4-0.8c0.3,0.3,0.7,0.5,1.1,0.7c0.4,0.2,0.9,0.3,1.3,0.3c0.5,0,0.8-0.1,1.1-0.3s0.4-0.5,0.4-0.8
		s-0.1-0.6-0.4-0.8c-0.3-0.2-0.7-0.3-1.3-0.5c-0.5-0.2-0.9-0.3-1.2-0.4c-0.3-0.1-0.6-0.3-0.8-0.6c-0.2-0.3-0.3-0.6-0.3-1.1
		c0-0.7,0.2-1.2,0.7-1.5s1.1-0.5,1.8-0.5C521.8,67,522.2,67,522.6,67.2z"/>
	<path fill="#0A0A0A" d="M531.3,68.1c0.6,0.7,0.9,1.8,0.8,3h-6c0.1,0.7,0.4,1.3,0.9,1.7s1.1,0.6,1.8,0.6c0.5,0,0.9-0.1,1.3-0.2
		c0.4-0.2,0.7-0.4,1-0.7l0.6,0.6c-0.4,0.4-0.8,0.7-1.3,0.9c-0.5,0.2-1.1,0.3-1.7,0.3c-0.7,0-1.4-0.2-1.9-0.5c-0.6-0.3-1-0.8-1.3-1.3
		s-0.5-1.2-0.5-1.9s0.2-1.4,0.5-1.9c0.3-0.6,0.7-1,1.3-1.3s1.2-0.5,1.9-0.5C529.8,67,530.7,67.4,531.3,68.1z M530.4,68.6
		c-0.4-0.4-1-0.6-1.7-0.6c-0.7,0-1.3,0.2-1.8,0.6c-0.5,0.4-0.7,1-0.8,1.7h5C531,69.5,530.8,69,530.4,68.6z"/>
	<path fill="#0A0A0A" d="M414.1,84.6l-0.8,1.8h-0.8l3.1-7h0.8l3.1,7h-0.9l-0.8-1.8H414.1z M416,80.3l-1.6,3.5h3.1L416,80.3z"/>
	<path fill="#0A0A0A" d="M421.5,86.4l-2.1-5.3h0.8l1.7,4.5l1.7-4.5h0.8l-2.1,5.3H421.5z"/>
	<path fill="#0A0A0A" d="M429.1,81.9c0.4,0.5,0.6,1.3,0.6,2.2h-4.3c0.1,0.5,0.3,0.9,0.6,1.2s0.8,0.5,1.3,0.5c0.3,0,0.6-0.1,0.9-0.2
		c0.3-0.1,0.5-0.3,0.7-0.5l0.4,0.5c-0.3,0.3-0.6,0.5-0.9,0.6c-0.4,0.2-0.8,0.2-1.2,0.2c-0.5,0-1-0.1-1.4-0.3
		c-0.4-0.2-0.7-0.5-0.9-0.9s-0.3-0.9-0.3-1.4s0.1-1,0.3-1.4c0.2-0.4,0.5-0.7,0.9-0.9s0.9-0.3,1.4-0.3
		C428.1,81.1,428.7,81.4,429.1,81.9z M428.5,82.2c-0.3-0.3-0.7-0.4-1.2-0.4c-0.5,0-0.9,0.1-1.3,0.4c-0.3,0.3-0.5,0.7-0.6,1.2h3.6
		C429,82.9,428.8,82.5,428.5,82.2z"/>
	<path fill="#0A0A0A" d="M432.5,81.4c0.3-0.2,0.7-0.3,1.1-0.3v0.8c-0.5,0-1,0.1-1.3,0.5s-0.5,0.7-0.6,1.3v2.8H431v-5.3h0.8v1.2
		C432,81.9,432.2,81.6,432.5,81.4z"/>
	<path fill="#0A0A0A" d="M437.8,85.6c-0.4,0.6-1.1,0.8-1.9,0.8c-0.4,0-0.7-0.1-0.9-0.2c-0.3-0.1-0.5-0.3-0.6-0.6
		c-0.1-0.2-0.2-0.5-0.2-0.8c0-0.5,0.2-0.8,0.5-1.1s0.8-0.4,1.5-0.4h1.7V83c0-0.4-0.1-0.7-0.4-0.9s-0.6-0.3-1.1-0.3
		c-0.5,0-1.1,0.2-1.7,0.6l-0.3-0.6c0.4-0.2,0.7-0.4,1-0.5c0.3-0.1,0.7-0.2,1.1-0.2c0.6,0,1.1,0.2,1.5,0.5c0.4,0.3,0.5,0.8,0.5,1.3
		l0,3.5h-0.8V85.6z M437.1,85.4c0.3-0.2,0.5-0.5,0.6-0.9v-0.6h-1.6c-0.9,0-1.3,0.3-1.3,0.8c0,0.3,0.1,0.5,0.3,0.7s0.5,0.3,0.9,0.3
		C436.4,85.8,436.8,85.7,437.1,85.4z"/>
	<path fill="#0A0A0A" d="M444.8,85.8c0,0.5-0.1,1-0.3,1.3c-0.2,0.4-0.5,0.7-0.9,0.9c-0.4,0.2-0.9,0.3-1.4,0.3
		c-0.8,0-1.5-0.3-2.2-0.8l0.4-0.6c0.3,0.2,0.5,0.4,0.8,0.5c0.3,0.1,0.6,0.2,0.9,0.2c0.6,0,1-0.2,1.4-0.5s0.5-0.8,0.5-1.3v-0.8
		c-0.2,0.4-0.4,0.6-0.8,0.8c-0.3,0.2-0.7,0.3-1.2,0.3c-0.5,0-0.9-0.1-1.2-0.3c-0.4-0.2-0.6-0.5-0.9-0.9c-0.2-0.4-0.3-0.8-0.3-1.3
		c0-0.5,0.1-0.9,0.3-1.3s0.5-0.7,0.8-0.9c0.4-0.2,0.8-0.3,1.2-0.3c0.4,0,0.8,0.1,1.2,0.3c0.3,0.2,0.6,0.5,0.8,0.8v-1.1h0.8V85.8z
		 M443.2,85.3c0.3-0.2,0.5-0.4,0.6-0.7c0.2-0.3,0.2-0.6,0.2-1c0-0.4-0.1-0.7-0.2-1c-0.2-0.3-0.4-0.5-0.6-0.7s-0.6-0.2-0.9-0.2
		c-0.3,0-0.7,0.1-0.9,0.2s-0.5,0.4-0.6,0.7s-0.2,0.6-0.2,1c0,0.4,0.1,0.7,0.2,1s0.4,0.5,0.6,0.7s0.6,0.2,0.9,0.2
		C442.6,85.5,442.9,85.4,443.2,85.3z"/>
	<path fill="#0A0A0A" d="M450.6,81.9c0.4,0.5,0.6,1.3,0.6,2.2h-4.3c0.1,0.5,0.3,0.9,0.6,1.2s0.8,0.5,1.3,0.5c0.3,0,0.6-0.1,0.9-0.2
		c0.3-0.1,0.5-0.3,0.7-0.5l0.4,0.5c-0.3,0.3-0.6,0.5-0.9,0.6c-0.4,0.2-0.8,0.2-1.2,0.2c-0.5,0-1-0.1-1.4-0.3
		c-0.4-0.2-0.7-0.5-0.9-0.9s-0.3-0.9-0.3-1.4s0.1-1,0.3-1.4c0.2-0.4,0.5-0.7,0.9-0.9s0.9-0.3,1.4-0.3
		C449.5,81.1,450.2,81.4,450.6,81.9z M449.9,82.2c-0.3-0.3-0.7-0.4-1.2-0.4c-0.5,0-0.9,0.1-1.3,0.4c-0.3,0.3-0.5,0.7-0.6,1.2h3.6
		C450.4,82.9,450.3,82.5,449.9,82.2z"/>
	<path fill="#0A0A0A" d="M452.9,85.6c0.1,0.1,0.1,0.2,0.1,0.4c0,0.1-0.1,0.3-0.2,0.4l-0.5,0.7H452l0.3-0.7c-0.1-0.1-0.2-0.2-0.2-0.4
		c0-0.1,0-0.3,0.1-0.4c0.1-0.1,0.2-0.1,0.3-0.1C452.7,85.5,452.8,85.5,452.9,85.6z"/>
	<path fill="#0A0A0A" d="M460.5,85.6c-0.4,0.6-1.1,0.8-1.9,0.8c-0.4,0-0.7-0.1-0.9-0.2c-0.3-0.1-0.5-0.3-0.6-0.6
		c-0.1-0.2-0.2-0.5-0.2-0.8c0-0.5,0.2-0.8,0.5-1.1s0.8-0.4,1.5-0.4h1.7V83c0-0.4-0.1-0.7-0.4-0.9s-0.6-0.3-1.1-0.3
		c-0.5,0-1.1,0.2-1.7,0.6l-0.3-0.6c0.4-0.2,0.7-0.4,1-0.5c0.3-0.1,0.7-0.2,1.1-0.2c0.6,0,1.1,0.2,1.5,0.5c0.4,0.3,0.5,0.8,0.5,1.3
		l0,3.5h-0.8V85.6z M459.8,85.4c0.3-0.2,0.5-0.5,0.6-0.9v-0.6h-1.6c-0.9,0-1.3,0.3-1.3,0.8c0,0.3,0.1,0.5,0.3,0.7s0.5,0.3,0.9,0.3
		C459.1,85.8,459.5,85.7,459.8,85.4z"/>
	<path fill="#0A0A0A" d="M464.2,79.9c-0.2,0.2-0.3,0.4-0.3,0.7v0.7h1.5v0.6h-1.5v4.5h-0.8v-4.5h-0.7v-0.6h0.7v-0.6
		c0-0.4,0.1-0.7,0.2-1c0.2-0.3,0.4-0.5,0.6-0.6c0.3-0.1,0.5-0.2,0.8-0.2c0.4,0,0.8,0.1,1.1,0.4l-0.3,0.6c-0.3-0.2-0.5-0.3-0.8-0.3
		C464.6,79.7,464.3,79.8,464.2,79.9z"/>
	<path fill="#0A0A0A" d="M467.8,86.4c-0.4,0-0.7-0.1-1-0.4s-0.4-0.6-0.4-1.1v-3h-0.8v-0.6h0.8v-1.4h0.8v1.4l1.7,0v0.6h-1.7v2.9
		c0,0.3,0.1,0.5,0.2,0.7s0.3,0.2,0.5,0.2c0.3,0,0.6-0.1,0.8-0.3L469,86C468.6,86.3,468.2,86.4,467.8,86.4z"/>
	<path fill="#0A0A0A" d="M474.1,81.9c0.4,0.5,0.6,1.3,0.6,2.2h-4.3c0.1,0.5,0.3,0.9,0.6,1.2s0.8,0.5,1.3,0.5c0.3,0,0.6-0.1,0.9-0.2
		c0.3-0.1,0.5-0.3,0.7-0.5l0.4,0.5c-0.3,0.3-0.6,0.5-0.9,0.6c-0.4,0.2-0.8,0.2-1.2,0.2c-0.5,0-1-0.1-1.4-0.3
		c-0.4-0.2-0.7-0.5-0.9-0.9s-0.3-0.9-0.3-1.4s0.1-1,0.3-1.4c0.2-0.4,0.5-0.7,0.9-0.9s0.9-0.3,1.4-0.3
		C473,81.1,473.6,81.4,474.1,81.9z M473.4,82.2c-0.3-0.3-0.7-0.4-1.2-0.4c-0.5,0-0.9,0.1-1.3,0.4c-0.3,0.3-0.5,0.7-0.6,1.2h3.6
		C473.9,82.9,473.7,82.5,473.4,82.2z"/>
	<path fill="#0A0A0A" d="M477.5,81.4c0.3-0.2,0.7-0.3,1.1-0.3v0.8c-0.5,0-1,0.1-1.3,0.5s-0.5,0.7-0.6,1.3v2.8H476v-5.3h0.8v1.2
		C476.9,81.9,477.2,81.6,477.5,81.4z"/>
	<path fill="#0A0A0A" d="M487,85.8c0,0.5-0.1,1-0.3,1.3c-0.2,0.4-0.5,0.7-0.9,0.9c-0.4,0.2-0.9,0.3-1.4,0.3c-0.8,0-1.5-0.3-2.2-0.8
		l0.4-0.6c0.3,0.2,0.5,0.4,0.8,0.5c0.3,0.1,0.6,0.2,0.9,0.2c0.6,0,1-0.2,1.4-0.5s0.5-0.8,0.5-1.3v-0.8c-0.2,0.4-0.4,0.6-0.8,0.8
		c-0.3,0.2-0.7,0.3-1.2,0.3c-0.5,0-0.9-0.1-1.2-0.3c-0.4-0.2-0.6-0.5-0.9-0.9c-0.2-0.4-0.3-0.8-0.3-1.3c0-0.5,0.1-0.9,0.3-1.3
		s0.5-0.7,0.8-0.9c0.4-0.2,0.8-0.3,1.2-0.3c0.4,0,0.8,0.1,1.2,0.3c0.3,0.2,0.6,0.5,0.8,0.8v-1.1h0.8V85.8z M485.4,85.3
		c0.3-0.2,0.5-0.4,0.6-0.7c0.2-0.3,0.2-0.6,0.2-1c0-0.4-0.1-0.7-0.2-1c-0.2-0.3-0.4-0.5-0.6-0.7s-0.6-0.2-0.9-0.2
		c-0.3,0-0.7,0.1-0.9,0.2s-0.5,0.4-0.6,0.7s-0.2,0.6-0.2,1c0,0.4,0.1,0.7,0.2,1s0.4,0.5,0.6,0.7s0.6,0.2,0.9,0.2
		C484.8,85.5,485.1,85.4,485.4,85.3z"/>
	<path fill="#0A0A0A" d="M490.3,81.4c0.3-0.2,0.7-0.3,1.1-0.3v0.8c-0.5,0-1,0.1-1.3,0.5s-0.5,0.7-0.6,1.3v2.8h-0.8v-5.3h0.8v1.2
		C489.7,81.9,490,81.6,490.3,81.4z"/>
	<path fill="#0A0A0A" d="M496,81.4c0.4,0.2,0.7,0.5,1,0.9c0.2,0.4,0.3,0.9,0.3,1.4c0,0.5-0.1,1-0.3,1.4c-0.2,0.4-0.5,0.7-1,0.9
		s-0.9,0.3-1.4,0.3c-0.5,0-1-0.1-1.4-0.3c-0.4-0.2-0.7-0.5-1-0.9c-0.2-0.4-0.3-0.9-0.3-1.4c0-0.5,0.1-1,0.3-1.4
		c0.2-0.4,0.5-0.7,1-0.9c0.4-0.2,0.9-0.3,1.4-0.3C495.1,81.1,495.6,81.2,496,81.4z M493.7,82.1c-0.3,0.2-0.5,0.4-0.7,0.7
		c-0.2,0.3-0.2,0.6-0.2,1c0,0.4,0.1,0.7,0.2,1c0.2,0.3,0.4,0.5,0.7,0.7c0.3,0.2,0.6,0.3,1,0.3s0.7-0.1,1-0.3
		c0.3-0.2,0.5-0.4,0.7-0.7c0.2-0.3,0.2-0.6,0.2-1s-0.1-0.7-0.2-1c-0.2-0.3-0.4-0.5-0.7-0.7c-0.3-0.2-0.6-0.2-1-0.2
		C494.3,81.8,493.9,81.9,493.7,82.1z"/>
	<path fill="#0A0A0A" d="M503.5,86.4l-1.5-4.3l-1.5,4.3h-0.8l-2-5.3h0.8l1.6,4.5l1.5-4.5h0.8l1.5,4.5l1.5-4.5h0.8l-2,5.3H503.5z"/>
	<path fill="#0A0A0A" d="M508.7,86.4c-0.4,0-0.7-0.1-1-0.4s-0.4-0.6-0.4-1.1v-3h-0.8v-0.6h0.8v-1.4h0.8v1.4l1.7,0v0.6h-1.7v2.9
		c0,0.3,0.1,0.5,0.2,0.7s0.3,0.2,0.5,0.2c0.3,0,0.6-0.1,0.8-0.3l0.2,0.6C509.5,86.3,509.1,86.4,508.7,86.4z"/>
	<path fill="#0A0A0A" d="M515.4,81.6c0.4,0.4,0.5,0.9,0.5,1.5v3.3h-0.8v-3c0-0.5-0.1-0.8-0.4-1.1s-0.6-0.4-1.1-0.4
		c-0.6,0-1,0.2-1.3,0.5c-0.3,0.4-0.5,0.8-0.5,1.4v2.6h-0.8V79h0.8v3.3c0.3-0.8,1-1.2,2-1.2C514.5,81.1,515,81.3,515.4,81.6z"/>
	<path fill="#0A0A0A" d="M525.2,86.4h-0.8v-1.1c-0.2,0.4-0.5,0.7-0.8,0.9c-0.3,0.2-0.8,0.3-1.2,0.3c-0.5,0-0.9-0.1-1.3-0.3
		s-0.7-0.5-0.9-0.9c-0.2-0.4-0.3-0.9-0.3-1.4s0.1-1,0.3-1.4c0.2-0.4,0.5-0.7,0.9-0.9c0.4-0.2,0.8-0.3,1.3-0.3c0.5,0,0.9,0.1,1.2,0.3
		c0.4,0.2,0.6,0.5,0.8,0.9V79h0.8V86.4z M523.5,85.5c0.3-0.2,0.5-0.4,0.7-0.7c0.2-0.3,0.2-0.6,0.2-1c0-0.4-0.1-0.7-0.2-1
		c-0.2-0.3-0.4-0.5-0.7-0.7c-0.3-0.2-0.6-0.3-1-0.3c-0.4,0-0.7,0.1-1,0.3c-0.3,0.2-0.5,0.4-0.7,0.7c-0.2,0.3-0.2,0.6-0.2,1
		c0,0.4,0.1,0.7,0.2,1c0.2,0.3,0.4,0.5,0.7,0.7c0.3,0.2,0.6,0.3,1,0.3C522.9,85.7,523.2,85.7,523.5,85.5z"/>
	<path fill="#0A0A0A" d="M531.1,81.9c0.4,0.5,0.6,1.3,0.6,2.2h-4.3c0.1,0.5,0.3,0.9,0.6,1.2s0.8,0.5,1.3,0.5c0.3,0,0.6-0.1,0.9-0.2
		c0.3-0.1,0.5-0.3,0.7-0.5l0.4,0.5c-0.3,0.3-0.6,0.5-0.9,0.6c-0.4,0.2-0.8,0.2-1.2,0.2c-0.5,0-1-0.1-1.4-0.3
		c-0.4-0.2-0.7-0.5-0.9-0.9s-0.3-0.9-0.3-1.4s0.1-1,0.3-1.4c0.2-0.4,0.5-0.7,0.9-0.9s0.9-0.3,1.4-0.3
		C530.1,81.1,530.7,81.4,531.1,81.9z M530.5,82.2c-0.3-0.3-0.7-0.4-1.2-0.4c-0.5,0-0.9,0.1-1.3,0.4c-0.3,0.3-0.5,0.7-0.6,1.2h3.6
		C531,82.9,530.8,82.5,530.5,82.2z"/>
	<path fill="#0A0A0A" d="M535.4,81.2c0.3,0.1,0.5,0.2,0.8,0.4l-0.3,0.6c-0.2-0.1-0.4-0.2-0.7-0.3s-0.5-0.1-0.7-0.1
		c-0.3,0-0.6,0.1-0.8,0.2s-0.3,0.3-0.3,0.5c0,0.2,0.1,0.3,0.2,0.4s0.2,0.2,0.4,0.3s0.4,0.1,0.7,0.2c0.4,0.1,0.7,0.2,0.9,0.3
		s0.4,0.3,0.6,0.5c0.2,0.2,0.2,0.5,0.2,0.8c0,0.5-0.2,0.9-0.6,1.1c-0.4,0.3-0.8,0.4-1.4,0.4c-0.4,0-0.8-0.1-1.1-0.2
		c-0.4-0.1-0.7-0.3-0.9-0.5l0.3-0.6c0.2,0.2,0.5,0.4,0.8,0.5c0.3,0.1,0.6,0.2,0.9,0.2c0.3,0,0.6-0.1,0.8-0.2s0.3-0.3,0.3-0.6
		s-0.1-0.4-0.3-0.6c-0.2-0.1-0.5-0.2-0.9-0.4c-0.4-0.1-0.7-0.2-0.9-0.3c-0.2-0.1-0.4-0.2-0.6-0.4c-0.2-0.2-0.2-0.5-0.2-0.8
		c0-0.5,0.2-0.8,0.5-1.1s0.8-0.4,1.3-0.4C534.8,81.1,535.1,81.1,535.4,81.2z"/>
	<path fill="#0A0A0A" d="M538.3,79.2c0.1,0.1,0.1,0.2,0.1,0.4s0,0.3-0.1,0.4s-0.2,0.2-0.4,0.2s-0.3-0.1-0.4-0.2
		c-0.1-0.1-0.1-0.2-0.1-0.4c0-0.2,0-0.3,0.1-0.4c0.1-0.1,0.2-0.2,0.4-0.2S538.2,79.1,538.3,79.2z M537.6,86.4v-5.3h0.8v5.3H537.6z"
		/>
	<path fill="#0A0A0A" d="M544.8,85.8c0,0.5-0.1,1-0.3,1.3c-0.2,0.4-0.5,0.7-0.9,0.9c-0.4,0.2-0.9,0.3-1.4,0.3
		c-0.8,0-1.5-0.3-2.2-0.8l0.4-0.6c0.3,0.2,0.5,0.4,0.8,0.5c0.3,0.1,0.6,0.2,0.9,0.2c0.6,0,1-0.2,1.4-0.5s0.5-0.8,0.5-1.3v-0.8
		c-0.2,0.4-0.4,0.6-0.8,0.8c-0.3,0.2-0.7,0.3-1.2,0.3c-0.5,0-0.9-0.1-1.2-0.3c-0.4-0.2-0.6-0.5-0.9-0.9c-0.2-0.4-0.3-0.8-0.3-1.3
		c0-0.5,0.1-0.9,0.3-1.3s0.5-0.7,0.8-0.9c0.4-0.2,0.8-0.3,1.2-0.3c0.4,0,0.8,0.1,1.2,0.3c0.3,0.2,0.6,0.5,0.8,0.8v-1.1h0.8V85.8z
		 M543.2,85.3c0.3-0.2,0.5-0.4,0.6-0.7c0.2-0.3,0.2-0.6,0.2-1c0-0.4-0.1-0.7-0.2-1c-0.2-0.3-0.4-0.5-0.6-0.7s-0.6-0.2-0.9-0.2
		c-0.3,0-0.7,0.1-0.9,0.2s-0.5,0.4-0.6,0.7s-0.2,0.6-0.2,1c0,0.4,0.1,0.7,0.2,1s0.4,0.5,0.6,0.7s0.6,0.2,0.9,0.2
		C542.6,85.5,542.9,85.4,543.2,85.3z"/>
	<path fill="#0A0A0A" d="M550.9,81.6c0.4,0.4,0.5,0.9,0.5,1.5v3.3h-0.8v-3c0-0.5-0.1-0.8-0.4-1.1s-0.6-0.4-1.1-0.4
		c-0.5,0-0.9,0.2-1.2,0.5c-0.3,0.3-0.5,0.7-0.5,1.2v2.8h-0.8v-5.3h0.8v1.2c0.4-0.8,1-1.2,2-1.2C550,81.1,550.5,81.3,550.9,81.6z"/>
	<path fill="#0A0A0A" d="M415.7,93.2c0.3,0.1,0.5,0.2,0.8,0.4l-0.3,0.6c-0.2-0.1-0.4-0.2-0.7-0.3s-0.5-0.1-0.7-0.1
		c-0.3,0-0.6,0.1-0.8,0.2s-0.3,0.3-0.3,0.5c0,0.2,0.1,0.3,0.2,0.4s0.2,0.2,0.4,0.3s0.4,0.1,0.7,0.2c0.4,0.1,0.7,0.2,0.9,0.3
		s0.4,0.3,0.6,0.5c0.2,0.2,0.2,0.5,0.2,0.8c0,0.5-0.2,0.9-0.6,1.1c-0.4,0.3-0.8,0.4-1.4,0.4c-0.4,0-0.8-0.1-1.1-0.2
		c-0.4-0.1-0.7-0.3-0.9-0.5l0.3-0.6c0.2,0.2,0.5,0.4,0.8,0.5c0.3,0.1,0.6,0.2,0.9,0.2c0.3,0,0.6-0.1,0.8-0.2s0.3-0.3,0.3-0.6
		s-0.1-0.4-0.3-0.6c-0.2-0.1-0.5-0.2-0.9-0.4c-0.4-0.1-0.7-0.2-0.9-0.3c-0.2-0.1-0.4-0.2-0.6-0.4c-0.2-0.2-0.2-0.5-0.2-0.8
		c0-0.5,0.2-0.8,0.5-1.1s0.8-0.4,1.3-0.4C415.1,93.1,415.4,93.1,415.7,93.2z"/>
	<path fill="#0A0A0A" d="M419.4,98.4c-0.4,0-0.7-0.1-1-0.4s-0.4-0.6-0.4-1.1v-3h-0.8v-0.6h0.8v-1.4h0.8v1.4l1.7,0v0.6h-1.7v2.9
		c0,0.3,0.1,0.5,0.2,0.7s0.3,0.2,0.5,0.2c0.3,0,0.6-0.1,0.8-0.3l0.2,0.6C420.2,98.3,419.8,98.4,419.4,98.4z"/>
	<path fill="#0A0A0A" d="M423.3,93.4c0.3-0.2,0.7-0.3,1.1-0.3v0.8c-0.5,0-1,0.1-1.3,0.5s-0.5,0.7-0.6,1.3v2.8h-0.8v-5.3h0.8v1.2
		C422.7,93.9,423,93.6,423.3,93.4z"/>
	<path fill="#0A0A0A" d="M428.5,97.6c-0.4,0.6-1.1,0.8-1.9,0.8c-0.4,0-0.7-0.1-0.9-0.2c-0.3-0.1-0.5-0.3-0.6-0.6
		c-0.1-0.2-0.2-0.5-0.2-0.8c0-0.5,0.2-0.8,0.5-1.1s0.8-0.4,1.5-0.4h1.7V95c0-0.4-0.1-0.7-0.4-0.9s-0.6-0.3-1.1-0.3
		c-0.5,0-1.1,0.2-1.7,0.6l-0.3-0.6c0.4-0.2,0.7-0.4,1-0.5c0.3-0.1,0.7-0.2,1.1-0.2c0.6,0,1.1,0.2,1.5,0.5c0.4,0.3,0.5,0.8,0.5,1.3
		l0,3.5h-0.8V97.6z M427.9,97.4c0.3-0.2,0.5-0.5,0.6-0.9v-0.6h-1.6c-0.9,0-1.3,0.3-1.3,0.8c0,0.3,0.1,0.5,0.3,0.7s0.5,0.3,0.9,0.3
		C427.2,97.8,427.6,97.7,427.9,97.4z"/>
	<path fill="#0A0A0A" d="M432.5,98.4c-0.4,0-0.7-0.1-1-0.4s-0.4-0.6-0.4-1.1v-3h-0.8v-0.6h0.8v-1.4h0.8v1.4l1.7,0v0.6H432v2.9
		c0,0.3,0.1,0.5,0.2,0.7s0.3,0.2,0.5,0.2c0.3,0,0.6-0.1,0.8-0.3l0.2,0.6C433.3,98.3,433,98.4,432.5,98.4z"/>
	<path fill="#0A0A0A" d="M438.8,93.9c0.4,0.5,0.6,1.3,0.6,2.2h-4.3c0.1,0.5,0.3,0.9,0.6,1.2s0.8,0.5,1.3,0.5c0.3,0,0.6-0.1,0.9-0.2
		c0.3-0.1,0.5-0.3,0.7-0.5l0.4,0.5c-0.3,0.3-0.6,0.5-0.9,0.6c-0.4,0.2-0.8,0.2-1.2,0.2c-0.5,0-1-0.1-1.4-0.3
		c-0.4-0.2-0.7-0.5-0.9-0.9s-0.3-0.9-0.3-1.4s0.1-1,0.3-1.4c0.2-0.4,0.5-0.7,0.9-0.9s0.9-0.3,1.4-0.3
		C437.8,93.1,438.4,93.4,438.8,93.9z M438.1,94.2c-0.3-0.3-0.7-0.4-1.2-0.4c-0.5,0-0.9,0.1-1.3,0.4c-0.3,0.3-0.5,0.7-0.6,1.2h3.6
		C438.6,94.9,438.5,94.5,438.1,94.2z"/>
	<path fill="#0A0A0A" d="M445.3,97.8c0,0.5-0.1,1-0.3,1.3c-0.2,0.4-0.5,0.7-0.9,0.9c-0.4,0.2-0.9,0.3-1.4,0.3
		c-0.8,0-1.5-0.3-2.2-0.8l0.4-0.6c0.3,0.2,0.5,0.4,0.8,0.5c0.3,0.1,0.6,0.2,0.9,0.2c0.6,0,1-0.2,1.4-0.5s0.5-0.8,0.5-1.3v-0.8
		c-0.2,0.4-0.4,0.6-0.8,0.8c-0.3,0.2-0.7,0.3-1.2,0.3c-0.5,0-0.9-0.1-1.2-0.3c-0.4-0.2-0.6-0.5-0.9-0.9c-0.2-0.4-0.3-0.8-0.3-1.3
		c0-0.5,0.1-0.9,0.3-1.3s0.5-0.7,0.8-0.9c0.4-0.2,0.8-0.3,1.2-0.3c0.4,0,0.8,0.1,1.2,0.3c0.3,0.2,0.6,0.5,0.8,0.8v-1.1h0.8V97.8z
		 M443.6,97.3c0.3-0.2,0.5-0.4,0.6-0.7c0.2-0.3,0.2-0.6,0.2-1c0-0.4-0.1-0.7-0.2-1c-0.2-0.3-0.4-0.5-0.6-0.7s-0.6-0.2-0.9-0.2
		c-0.3,0-0.7,0.1-0.9,0.2s-0.5,0.4-0.6,0.7s-0.2,0.6-0.2,1c0,0.4,0.1,0.7,0.2,1s0.4,0.5,0.6,0.7s0.6,0.2,0.9,0.2
		C443.1,97.5,443.4,97.4,443.6,97.3z"/>
	<path fill="#0A0A0A" d="M448.1,100.1c-0.3,0.2-0.6,0.3-0.9,0.3c-0.4,0-0.8-0.1-1.1-0.4l0.3-0.6c0.2,0.2,0.5,0.2,0.7,0.2
		c0.2,0,0.4-0.1,0.6-0.2c0.2-0.1,0.3-0.3,0.4-0.6l0.2-0.5l-2.2-5.2h0.8l1.7,4.4l1.7-4.4h0.8l-2.4,6
		C448.6,99.6,448.4,99.9,448.1,100.1z"/>
	<path fill="#0A0A0A" d="M455.6,91.2c0.1,0.1,0.1,0.2,0.1,0.4s0,0.3-0.1,0.4s-0.2,0.2-0.4,0.2s-0.3-0.1-0.4-0.2
		c-0.1-0.1-0.1-0.2-0.1-0.4c0-0.2,0-0.3,0.1-0.4c0.1-0.1,0.2-0.2,0.4-0.2S455.5,91.1,455.6,91.2z M454.8,98.4v-5.3h0.8v5.3H454.8z"
		/>
	<path fill="#0A0A0A" d="M465.7,93.6c0.3,0.4,0.5,0.9,0.5,1.5v3.3h-0.8v-3c0-0.5-0.1-0.8-0.4-1.1c-0.3-0.3-0.6-0.4-1.1-0.4
		c-0.5,0-1,0.2-1.3,0.5c-0.3,0.4-0.5,0.8-0.5,1.4v2.6h-0.8v-3c0-0.5-0.1-0.8-0.4-1.1c-0.3-0.3-0.6-0.4-1.1-0.4c-0.5,0-1,0.2-1.3,0.5
		c-0.3,0.4-0.5,0.8-0.5,1.4v2.6h-0.8v-5.3h0.8v1.2c0.2-0.4,0.4-0.7,0.8-0.9c0.3-0.2,0.8-0.3,1.2-0.3c0.5,0,0.9,0.1,1.2,0.4
		c0.3,0.2,0.5,0.6,0.7,1c0.2-0.5,0.4-0.8,0.8-1s0.8-0.3,1.3-0.3C464.8,93.1,465.3,93.3,465.7,93.6z"/>
	<path fill="#0A0A0A" d="M472.1,93.4c0.4,0.2,0.7,0.5,0.9,0.9c0.2,0.4,0.3,0.9,0.3,1.4c0,0.5-0.1,1-0.3,1.4s-0.5,0.7-0.9,0.9
		c-0.4,0.2-0.8,0.3-1.3,0.3c-0.5,0-0.9-0.1-1.2-0.3c-0.3-0.2-0.6-0.5-0.8-0.9v3.1H468v-7.2h0.8v1.1c0.2-0.4,0.5-0.7,0.8-0.9
		c0.4-0.2,0.8-0.3,1.2-0.3C471.3,93.1,471.7,93.2,472.1,93.4z M471.6,97.5c0.3-0.2,0.5-0.4,0.7-0.7s0.2-0.6,0.2-1s-0.1-0.7-0.2-1
		s-0.4-0.5-0.7-0.7c-0.3-0.2-0.6-0.3-1-0.3c-0.4,0-0.7,0.1-1,0.2c-0.3,0.2-0.5,0.4-0.7,0.7c-0.2,0.3-0.2,0.6-0.2,1
		c0,0.4,0.1,0.7,0.2,1c0.2,0.3,0.4,0.5,0.7,0.7c0.3,0.2,0.6,0.3,1,0.3C471,97.7,471.3,97.6,471.6,97.5z"/>
	<path fill="#0A0A0A" d="M474.7,98.4V91h0.8v7.4H474.7z"/>
	<path fill="#0A0A0A" d="M481.4,93.9c0.4,0.5,0.6,1.3,0.6,2.2h-4.3c0.1,0.5,0.3,0.9,0.6,1.2s0.8,0.5,1.3,0.5c0.3,0,0.6-0.1,0.9-0.2
		c0.3-0.1,0.5-0.3,0.7-0.5l0.4,0.5c-0.3,0.3-0.6,0.5-0.9,0.6c-0.4,0.2-0.8,0.2-1.2,0.2c-0.5,0-1-0.1-1.4-0.3
		c-0.4-0.2-0.7-0.5-0.9-0.9s-0.3-0.9-0.3-1.4s0.1-1,0.3-1.4c0.2-0.4,0.5-0.7,0.9-0.9s0.9-0.3,1.4-0.3
		C480.4,93.1,481,93.4,481.4,93.9z M480.8,94.2c-0.3-0.3-0.7-0.4-1.2-0.4c-0.5,0-0.9,0.1-1.3,0.4c-0.3,0.3-0.5,0.7-0.6,1.2h3.6
		C481.3,94.9,481.1,94.5,480.8,94.2z"/>
	<path fill="#0A0A0A" d="M491.5,93.6c0.3,0.4,0.5,0.9,0.5,1.5v3.3h-0.8v-3c0-0.5-0.1-0.8-0.4-1.1c-0.3-0.3-0.6-0.4-1.1-0.4
		c-0.5,0-1,0.2-1.3,0.5c-0.3,0.4-0.5,0.8-0.5,1.4v2.6h-0.8v-3c0-0.5-0.1-0.8-0.4-1.1c-0.3-0.3-0.6-0.4-1.1-0.4c-0.5,0-1,0.2-1.3,0.5
		c-0.3,0.4-0.5,0.8-0.5,1.4v2.6h-0.8v-5.3h0.8v1.2c0.2-0.4,0.4-0.7,0.8-0.9c0.3-0.2,0.8-0.3,1.2-0.3c0.5,0,0.9,0.1,1.2,0.4
		c0.3,0.2,0.5,0.6,0.7,1c0.2-0.5,0.4-0.8,0.8-1s0.8-0.3,1.3-0.3C490.7,93.1,491.2,93.3,491.5,93.6z"/>
	<path fill="#0A0A0A" d="M497.8,93.9c0.4,0.5,0.6,1.3,0.6,2.2H494c0.1,0.5,0.3,0.9,0.6,1.2s0.8,0.5,1.3,0.5c0.3,0,0.6-0.1,0.9-0.2
		c0.3-0.1,0.5-0.3,0.7-0.5l0.4,0.5c-0.3,0.3-0.6,0.5-0.9,0.6c-0.4,0.2-0.8,0.2-1.2,0.2c-0.5,0-1-0.1-1.4-0.3
		c-0.4-0.2-0.7-0.5-0.9-0.9s-0.3-0.9-0.3-1.4s0.1-1,0.3-1.4c0.2-0.4,0.5-0.7,0.9-0.9s0.9-0.3,1.4-0.3
		C496.7,93.1,497.3,93.4,497.8,93.9z M497.1,94.2c-0.3-0.3-0.7-0.4-1.2-0.4c-0.5,0-0.9,0.1-1.3,0.4c-0.3,0.3-0.5,0.7-0.6,1.2h3.6
		C497.6,94.9,497.4,94.5,497.1,94.2z"/>
	<path fill="#0A0A0A" d="M504,93.6c0.4,0.4,0.5,0.9,0.5,1.5v3.3h-0.8v-3c0-0.5-0.1-0.8-0.4-1.1s-0.6-0.4-1.1-0.4
		c-0.5,0-0.9,0.2-1.2,0.5c-0.3,0.3-0.5,0.7-0.5,1.2v2.8h-0.8v-5.3h0.8v1.2c0.4-0.8,1-1.2,2-1.2C503.1,93.1,503.6,93.3,504,93.6z"/>
	<path fill="#0A0A0A" d="M507.7,98.4c-0.4,0-0.7-0.1-1-0.4s-0.4-0.6-0.4-1.1v-3h-0.8v-0.6h0.8v-1.4h0.8v1.4l1.7,0v0.6h-1.7v2.9
		c0,0.3,0.1,0.5,0.2,0.7s0.3,0.2,0.5,0.2c0.3,0,0.6-0.1,0.8-0.3l0.2,0.6C508.6,98.3,508.2,98.4,507.7,98.4z"/>
	<path fill="#0A0A0A" d="M513.4,97.6c-0.4,0.6-1.1,0.8-1.9,0.8c-0.4,0-0.7-0.1-0.9-0.2c-0.3-0.1-0.5-0.3-0.6-0.6
		c-0.1-0.2-0.2-0.5-0.2-0.8c0-0.5,0.2-0.8,0.5-1.1s0.8-0.4,1.5-0.4h1.7V95c0-0.4-0.1-0.7-0.4-0.9s-0.6-0.3-1.1-0.3
		c-0.5,0-1.1,0.2-1.7,0.6l-0.3-0.6c0.4-0.2,0.7-0.4,1-0.5c0.3-0.1,0.7-0.2,1.1-0.2c0.6,0,1.1,0.2,1.5,0.5c0.4,0.3,0.5,0.8,0.5,1.3
		l0,3.5h-0.8V97.6z M512.7,97.4c0.3-0.2,0.5-0.5,0.6-0.9v-0.6h-1.6c-0.9,0-1.3,0.3-1.3,0.8c0,0.3,0.1,0.5,0.3,0.7s0.5,0.3,0.9,0.3
		C512,97.8,512.4,97.7,512.7,97.4z"/>
	<path fill="#0A0A0A" d="M517.4,98.4c-0.4,0-0.7-0.1-1-0.4s-0.4-0.6-0.4-1.1v-3h-0.8v-0.6h0.8v-1.4h0.8v1.4l1.7,0v0.6h-1.7v2.9
		c0,0.3,0.1,0.5,0.2,0.7s0.3,0.2,0.5,0.2c0.3,0,0.6-0.1,0.8-0.3l0.2,0.6C518.2,98.3,517.8,98.4,517.4,98.4z"/>
	<path fill="#0A0A0A" d="M520.5,91.2c0.1,0.1,0.1,0.2,0.1,0.4s0,0.3-0.1,0.4s-0.2,0.2-0.4,0.2s-0.3-0.1-0.4-0.2
		c-0.1-0.1-0.1-0.2-0.1-0.4c0-0.2,0-0.3,0.1-0.4c0.1-0.1,0.2-0.2,0.4-0.2S520.4,91.1,520.5,91.2z M519.8,98.4v-5.3h0.8v5.3H519.8z"
		/>
	<path fill="#0A0A0A" d="M526,93.4c0.4,0.2,0.7,0.5,1,0.9c0.2,0.4,0.3,0.9,0.3,1.4c0,0.5-0.1,1-0.3,1.4c-0.2,0.4-0.5,0.7-1,0.9
		s-0.9,0.3-1.4,0.3c-0.5,0-1-0.1-1.4-0.3c-0.4-0.2-0.7-0.5-1-0.9c-0.2-0.4-0.3-0.9-0.3-1.4c0-0.5,0.1-1,0.3-1.4
		c0.2-0.4,0.5-0.7,1-0.9c0.4-0.2,0.9-0.3,1.4-0.3C525.1,93.1,525.6,93.2,526,93.4z M523.6,94.1c-0.3,0.2-0.5,0.4-0.7,0.7
		c-0.2,0.3-0.2,0.6-0.2,1c0,0.4,0.1,0.7,0.2,1c0.2,0.3,0.4,0.5,0.7,0.7c0.3,0.2,0.6,0.3,1,0.3s0.7-0.1,1-0.3
		c0.3-0.2,0.5-0.4,0.7-0.7c0.2-0.3,0.2-0.6,0.2-1s-0.1-0.7-0.2-1c-0.2-0.3-0.4-0.5-0.7-0.7c-0.3-0.2-0.6-0.2-1-0.2
		C524.2,93.8,523.9,93.9,523.6,94.1z"/>
	<path fill="#0A0A0A" d="M532.9,93.6c0.4,0.4,0.5,0.9,0.5,1.5v3.3h-0.8v-3c0-0.5-0.1-0.8-0.4-1.1s-0.6-0.4-1.1-0.4
		c-0.5,0-0.9,0.2-1.2,0.5c-0.3,0.3-0.5,0.7-0.5,1.2v2.8h-0.8v-5.3h0.8v1.2c0.4-0.8,1-1.2,2-1.2C532.1,93.1,532.6,93.3,532.9,93.6z"
		/>
</g>
<g>
	<path fill="#0A0A0A" d="M252,70.8c-0.2,0-0.4,0-0.5,0h-1.9V73h-0.8v-7h2.7c0.9,0,1.6,0.2,2,0.6s0.7,1,0.7,1.7
		c0,0.6-0.1,1.1-0.4,1.4s-0.7,0.7-1.2,0.8l1.6,2.4h-0.9L252,70.8z M253,69.6c0.3-0.3,0.5-0.7,0.5-1.2c0-0.5-0.2-0.9-0.5-1.2
		s-0.8-0.4-1.5-0.4h-1.9V70h1.9C252.2,70,252.6,69.9,253,69.6z"/>
	<path fill="#0A0A0A" d="M259.9,68.5c0.4,0.5,0.6,1.3,0.6,2.2h-4.3c0.1,0.5,0.3,0.9,0.6,1.2s0.8,0.5,1.3,0.5c0.3,0,0.6-0.1,0.9-0.2
		s0.5-0.3,0.7-0.5l0.4,0.5c-0.3,0.3-0.6,0.5-0.9,0.6s-0.8,0.2-1.2,0.2c-0.5,0-1-0.1-1.4-0.3s-0.7-0.5-0.9-0.9s-0.3-0.9-0.3-1.4
		s0.1-1,0.3-1.4s0.5-0.7,0.9-0.9s0.9-0.3,1.4-0.3C258.9,67.7,259.5,68,259.9,68.5z M259.3,68.8c-0.3-0.3-0.7-0.4-1.2-0.4
		c-0.5,0-0.9,0.1-1.3,0.4s-0.5,0.7-0.6,1.2h3.6C259.8,69.5,259.6,69.1,259.3,68.8z"/>
	<path fill="#0A0A0A" d="M262.9,73l-2.1-5.3h0.8l1.7,4.5l1.7-4.5h0.8l-2.1,5.3H262.9z"/>
	<path fill="#0A0A0A" d="M270.5,68.5c0.4,0.5,0.6,1.3,0.6,2.2h-4.3c0.1,0.5,0.3,0.9,0.6,1.2s0.8,0.5,1.3,0.5c0.3,0,0.6-0.1,0.9-0.2
		s0.5-0.3,0.7-0.5l0.4,0.5c-0.3,0.3-0.6,0.5-0.9,0.6S269,73,268.6,73c-0.5,0-1-0.1-1.4-0.3s-0.7-0.5-0.9-0.9s-0.3-0.9-0.3-1.4
		s0.1-1,0.3-1.4s0.5-0.7,0.9-0.9s0.9-0.3,1.4-0.3C269.4,67.7,270,68,270.5,68.5z M269.8,68.8c-0.3-0.3-0.7-0.4-1.2-0.4
		c-0.5,0-0.9,0.1-1.3,0.4s-0.5,0.7-0.6,1.2h3.6C270.3,69.5,270.1,69.1,269.8,68.8z"/>
	<path fill="#0A0A0A" d="M276.7,68.2c0.4,0.4,0.5,0.9,0.5,1.5V73h-0.8v-3c0-0.5-0.1-0.8-0.4-1.1s-0.6-0.4-1.1-0.4
		c-0.5,0-0.9,0.2-1.2,0.5s-0.5,0.7-0.5,1.2V73h-0.8v-5.3h0.8v1.2c0.4-0.8,1-1.2,2-1.2C275.8,67.7,276.3,67.9,276.7,68.2z"/>
	<path fill="#0A0A0A" d="M283.5,73h-0.8v-1.2c-0.3,0.8-1,1.2-2,1.2c-0.6,0-1.1-0.2-1.4-0.5s-0.5-0.9-0.5-1.5v-3.2h0.8v3
		c0,0.5,0.1,0.8,0.4,1.1s0.6,0.4,1.1,0.4c0.5,0,1-0.2,1.3-0.5s0.5-0.8,0.5-1.4v-2.6h0.8V73z"/>
	<path fill="#0A0A0A" d="M289.4,68.5c0.4,0.5,0.6,1.3,0.6,2.2h-4.3c0.1,0.5,0.3,0.9,0.6,1.2s0.8,0.5,1.3,0.5c0.3,0,0.6-0.1,0.9-0.2
		s0.5-0.3,0.7-0.5l0.4,0.5c-0.3,0.3-0.6,0.5-0.9,0.6s-0.8,0.2-1.2,0.2c-0.5,0-1-0.1-1.4-0.3s-0.7-0.5-0.9-0.9s-0.3-0.9-0.3-1.4
		s0.1-1,0.3-1.4s0.5-0.7,0.9-0.9s0.9-0.3,1.4-0.3C288.3,67.7,288.9,68,289.4,68.5z M288.7,68.8c-0.3-0.3-0.7-0.4-1.2-0.4
		c-0.5,0-0.9,0.1-1.3,0.4s-0.5,0.7-0.6,1.2h3.6C289.2,69.5,289,69.1,288.7,68.8z"/>
	<path fill="#0A0A0A" d="M297.3,67.9c0.3,0.1,0.6,0.3,0.9,0.6l-0.4,0.6c-0.4-0.4-0.9-0.6-1.6-0.6c-0.4,0-0.7,0.1-1,0.2
		s-0.5,0.4-0.7,0.7s-0.2,0.6-0.2,1c0,0.4,0.1,0.7,0.2,1s0.4,0.5,0.7,0.7s0.6,0.3,1,0.3c0.3,0,0.7-0.1,0.9-0.2s0.5-0.3,0.7-0.5
		l0.4,0.5c-0.2,0.3-0.5,0.5-0.9,0.7s-0.8,0.2-1.2,0.2c-0.5,0-1-0.1-1.4-0.3s-0.7-0.5-0.9-0.9s-0.3-0.9-0.3-1.4s0.1-1,0.3-1.4
		s0.5-0.7,0.9-0.9s0.9-0.3,1.4-0.3C296.5,67.7,296.9,67.8,297.3,67.9z"/>
	<path fill="#0A0A0A" d="M299.7,73v-7.4h0.8V73H299.7z"/>
	<path fill="#0A0A0A" d="M303.1,65.8c0.1,0.1,0.1,0.2,0.1,0.4s0,0.3-0.1,0.4s-0.2,0.2-0.4,0.2s-0.3-0.1-0.4-0.2s-0.1-0.2-0.1-0.4
		c0-0.2,0-0.3,0.1-0.4s0.2-0.2,0.4-0.2S303,65.7,303.1,65.8z M302.4,73v-5.3h0.8V73H302.4z"/>
	<path fill="#0A0A0A" d="M309,68.5c0.4,0.5,0.6,1.3,0.6,2.2h-4.3c0.1,0.5,0.3,0.9,0.6,1.2s0.8,0.5,1.3,0.5c0.3,0,0.6-0.1,0.9-0.2
		s0.5-0.3,0.7-0.5l0.4,0.5c-0.3,0.3-0.6,0.5-0.9,0.6s-0.8,0.2-1.2,0.2c-0.5,0-1-0.1-1.4-0.3s-0.7-0.5-0.9-0.9s-0.3-0.9-0.3-1.4
		s0.1-1,0.3-1.4s0.5-0.7,0.9-0.9s0.9-0.3,1.4-0.3C308,67.7,308.6,68,309,68.5z M308.4,68.8c-0.3-0.3-0.7-0.4-1.2-0.4
		c-0.5,0-0.9,0.1-1.3,0.4s-0.5,0.7-0.6,1.2h3.6C308.9,69.5,308.7,69.1,308.4,68.8z"/>
	<path fill="#0A0A0A" d="M315.2,68.2c0.4,0.4,0.5,0.9,0.5,1.5V73H315v-3c0-0.5-0.1-0.8-0.4-1.1s-0.6-0.4-1.1-0.4
		c-0.5,0-0.9,0.2-1.2,0.5s-0.5,0.7-0.5,1.2V73h-0.8v-5.3h0.8v1.2c0.4-0.8,1-1.2,2-1.2C314.4,67.7,314.9,67.9,315.2,68.2z"/>
	<path fill="#0A0A0A" d="M319,73c-0.4,0-0.7-0.1-1-0.4s-0.4-0.6-0.4-1.1v-3h-0.8v-0.6h0.8v-1.4h0.8v1.4l1.7,0v0.6h-1.7v2.9
		c0,0.3,0.1,0.5,0.2,0.7s0.3,0.2,0.5,0.2c0.3,0,0.6-0.1,0.8-0.3l0.2,0.6C319.8,72.9,319.4,73,319,73z"/>
	<path fill="#0A0A0A" d="M325.7,73c-0.4,0-0.7-0.1-1-0.4s-0.4-0.6-0.4-1.1v-3h-0.8v-0.6h0.8v-1.4h0.8v1.4l1.7,0v0.6h-1.7v2.9
		c0,0.3,0.1,0.5,0.2,0.7s0.3,0.2,0.5,0.2c0.3,0,0.6-0.1,0.8-0.3l0.2,0.6C326.5,72.9,326.1,73,325.7,73z"/>
	<path fill="#0A0A0A" d="M329.1,74.7c-0.3,0.2-0.6,0.3-0.9,0.3c-0.4,0-0.8-0.1-1.1-0.4l0.3-0.6c0.2,0.2,0.5,0.2,0.7,0.2
		c0.2,0,0.4-0.1,0.6-0.2c0.2-0.1,0.3-0.3,0.4-0.6l0.2-0.5l-2.2-5.2h0.8l1.7,4.4l1.7-4.4h0.8l-2.4,6
		C329.5,74.2,329.3,74.5,329.1,74.7z"/>
	<path fill="#0A0A0A" d="M337.2,68c0.4,0.2,0.7,0.5,0.9,0.9c0.2,0.4,0.3,0.9,0.3,1.4c0,0.5-0.1,1-0.3,1.4c-0.2,0.4-0.5,0.7-0.9,0.9
		c-0.4,0.2-0.8,0.3-1.3,0.3c-0.5,0-0.9-0.1-1.2-0.3c-0.4-0.2-0.6-0.5-0.8-0.9v3.1h-0.8v-7.2h0.8v1.1c0.2-0.4,0.5-0.7,0.8-0.9
		c0.3-0.2,0.8-0.3,1.2-0.3C336.4,67.7,336.8,67.8,337.2,68z M336.7,72.1c0.3-0.2,0.5-0.4,0.7-0.7c0.2-0.3,0.2-0.6,0.2-1
		s-0.1-0.7-0.2-1c-0.2-0.3-0.4-0.5-0.7-0.7s-0.6-0.3-1-0.3c-0.4,0-0.7,0.1-1,0.2s-0.5,0.4-0.7,0.7s-0.2,0.6-0.2,1
		c0,0.4,0.1,0.7,0.2,1s0.4,0.5,0.7,0.7s0.6,0.3,1,0.3C336.1,72.3,336.5,72.2,336.7,72.1z"/>
	<path fill="#0A0A0A" d="M343.8,68.5c0.4,0.5,0.6,1.3,0.6,2.2h-4.3c0.1,0.5,0.3,0.9,0.6,1.2c0.3,0.3,0.8,0.5,1.3,0.5
		c0.3,0,0.6-0.1,0.9-0.2s0.5-0.3,0.7-0.5l0.4,0.5c-0.3,0.3-0.6,0.5-0.9,0.6c-0.4,0.2-0.8,0.2-1.2,0.2c-0.5,0-1-0.1-1.4-0.3
		s-0.7-0.5-0.9-0.9c-0.2-0.4-0.3-0.9-0.3-1.4s0.1-1,0.3-1.4c0.2-0.4,0.5-0.7,0.9-0.9s0.9-0.3,1.4-0.3
		C342.7,67.7,343.4,68,343.8,68.5z M343.1,68.8c-0.3-0.3-0.7-0.4-1.2-0.4c-0.5,0-0.9,0.1-1.3,0.4c-0.3,0.3-0.5,0.7-0.6,1.2h3.6
		C343.6,69.5,343.5,69.1,343.1,68.8z"/>
	<path fill="#0A0A0A" d="M349.4,67.6c-0.2,0.7-0.3,1.5-0.3,2.4s0.1,1.6,0.3,2.4c0.2,0.7,0.5,1.4,0.9,2h-0.7c-0.4-0.6-0.7-1.2-0.9-2
		c-0.2-0.7-0.3-1.5-0.3-2.4s0.1-1.6,0.3-2.4c0.2-0.7,0.5-1.4,0.9-2h0.7C349.9,66.2,349.6,66.8,349.4,67.6z"/>
	<path fill="#0A0A0A" d="M354.6,72.2c-0.4,0.6-1.1,0.8-1.9,0.8c-0.4,0-0.7-0.1-0.9-0.2c-0.3-0.1-0.5-0.3-0.6-0.6
		c-0.1-0.2-0.2-0.5-0.2-0.8c0-0.5,0.2-0.8,0.5-1.1c0.3-0.3,0.8-0.4,1.5-0.4h1.7v-0.3c0-0.4-0.1-0.7-0.4-0.9
		c-0.2-0.2-0.6-0.3-1.1-0.3c-0.5,0-1.1,0.2-1.7,0.6l-0.3-0.6c0.4-0.2,0.7-0.4,1-0.5s0.7-0.2,1.1-0.2c0.6,0,1.1,0.2,1.5,0.5
		c0.3,0.3,0.5,0.8,0.5,1.3l0,3.5h-0.8V72.2z M354,72c0.3-0.2,0.5-0.5,0.6-0.9v-0.6H353c-0.9,0-1.3,0.3-1.3,0.8
		c0,0.3,0.1,0.5,0.3,0.7c0.2,0.2,0.5,0.3,0.9,0.3C353.3,72.4,353.7,72.3,354,72z"/>
	<path fill="#0A0A0A" d="M358.1,73l-2.1-5.3h0.8l1.7,4.5l1.7-4.5h0.8l-2.1,5.3H358.1z"/>
	<path fill="#0A0A0A" d="M361.8,65.6h0.7c0.4,0.6,0.7,1.2,0.9,2c0.2,0.7,0.3,1.5,0.3,2.4s-0.1,1.6-0.3,2.4c-0.2,0.7-0.5,1.4-0.9,2
		h-0.7c0.4-0.6,0.6-1.2,0.9-2c0.2-0.7,0.3-1.5,0.3-2.4s-0.1-1.6-0.3-2.4C362.5,66.8,362.2,66.2,361.8,65.6z"/>
</g>
<g>
	<path fill="#0A0A0A" d="M249.7,109.2v2.5h3.3v0.8h-3.3v3h-0.8v-7h4.4v0.8H249.7z"/>
	<path fill="#0A0A0A" d="M258.9,115.4h-0.8v-1.2c-0.3,0.8-1,1.2-2,1.2c-0.6,0-1.1-0.2-1.4-0.5s-0.5-0.9-0.5-1.5v-3.2h0.8v3
		c0,0.5,0.1,0.8,0.4,1.1s0.6,0.4,1.1,0.4c0.5,0,1-0.2,1.3-0.5s0.5-0.8,0.5-1.4v-2.6h0.8V115.4z"/>
	<path fill="#0A0A0A" d="M265.1,110.6c0.4,0.4,0.5,0.9,0.5,1.5v3.3h-0.8v-3c0-0.5-0.1-0.8-0.4-1.1s-0.6-0.4-1.1-0.4
		c-0.5,0-0.9,0.2-1.2,0.5s-0.5,0.7-0.5,1.2v2.8h-0.8v-5.3h0.8v1.2c0.4-0.8,1-1.2,2-1.2C264.3,110.1,264.8,110.3,265.1,110.6z"/>
	<path fill="#0A0A0A" d="M272.2,115.4h-0.8v-1.1c-0.2,0.4-0.5,0.7-0.8,0.9s-0.8,0.3-1.2,0.3c-0.5,0-0.9-0.1-1.3-0.3
		s-0.7-0.5-0.9-0.9s-0.3-0.9-0.3-1.4s0.1-1,0.3-1.4s0.5-0.7,0.9-0.9s0.8-0.3,1.3-0.3c0.5,0,0.9,0.1,1.2,0.3s0.6,0.5,0.8,0.9V108h0.8
		V115.4z M270.5,114.5c0.3-0.2,0.5-0.4,0.7-0.7s0.2-0.6,0.2-1c0-0.4-0.1-0.7-0.2-1s-0.4-0.5-0.7-0.7s-0.6-0.3-1-0.3s-0.7,0.1-1,0.3
		s-0.5,0.4-0.7,0.7s-0.2,0.6-0.2,1c0,0.4,0.1,0.7,0.2,1s0.4,0.5,0.7,0.7s0.6,0.3,1,0.3S270.3,114.7,270.5,114.5z"/>
	<path fill="#0A0A0A" d="M274.9,108.2c0.1,0.1,0.1,0.2,0.1,0.4s0,0.3-0.1,0.4s-0.2,0.2-0.4,0.2s-0.3-0.1-0.4-0.2s-0.1-0.2-0.1-0.4
		c0-0.2,0-0.3,0.1-0.4s0.2-0.2,0.4-0.2S274.8,108.1,274.9,108.2z M274.2,115.4v-5.3h0.8v5.3H274.2z"/>
	<path fill="#0A0A0A" d="M281.2,110.6c0.4,0.4,0.5,0.9,0.5,1.5v3.3h-0.8v-3c0-0.5-0.1-0.8-0.4-1.1s-0.6-0.4-1.1-0.4
		c-0.5,0-0.9,0.2-1.2,0.5s-0.5,0.7-0.5,1.2v2.8h-0.8v-5.3h0.8v1.2c0.4-0.8,1-1.2,2-1.2C280.3,110.1,280.8,110.3,281.2,110.6z"/>
	<path fill="#0A0A0A" d="M288,114.8c0,0.5-0.1,1-0.3,1.3s-0.5,0.7-0.9,0.9s-0.9,0.3-1.4,0.3c-0.8,0-1.5-0.3-2.2-0.8l0.4-0.6
		c0.3,0.2,0.5,0.4,0.8,0.5s0.6,0.2,0.9,0.2c0.6,0,1-0.2,1.4-0.5s0.5-0.8,0.5-1.3v-0.8c-0.2,0.4-0.4,0.6-0.8,0.8s-0.7,0.3-1.2,0.3
		c-0.5,0-0.9-0.1-1.2-0.3s-0.6-0.5-0.9-0.9s-0.3-0.8-0.3-1.3c0-0.5,0.1-0.9,0.3-1.3s0.5-0.7,0.8-0.9s0.8-0.3,1.2-0.3
		c0.4,0,0.8,0.1,1.2,0.3s0.6,0.5,0.8,0.8v-1.1h0.8V114.8z M286.4,114.3c0.3-0.2,0.5-0.4,0.6-0.7s0.2-0.6,0.2-1c0-0.4-0.1-0.7-0.2-1
		s-0.4-0.5-0.6-0.7s-0.6-0.2-0.9-0.2c-0.3,0-0.7,0.1-0.9,0.2s-0.5,0.4-0.6,0.7s-0.2,0.6-0.2,1c0,0.4,0.1,0.7,0.2,1s0.4,0.5,0.6,0.7
		s0.6,0.2,0.9,0.2C285.8,114.5,286.1,114.4,286.4,114.3z"/>
	<path fill="#0A0A0A" d="M295.8,110.3c0.3,0.1,0.6,0.3,0.9,0.6l-0.4,0.6c-0.4-0.4-0.9-0.6-1.6-0.6c-0.4,0-0.7,0.1-1,0.2
		s-0.5,0.4-0.7,0.7s-0.2,0.6-0.2,1c0,0.4,0.1,0.7,0.2,1s0.4,0.5,0.7,0.7s0.6,0.3,1,0.3c0.3,0,0.7-0.1,0.9-0.2s0.5-0.3,0.7-0.5
		l0.4,0.5c-0.2,0.3-0.5,0.5-0.9,0.7s-0.8,0.2-1.2,0.2c-0.5,0-1-0.1-1.4-0.3s-0.7-0.5-0.9-0.9s-0.3-0.9-0.3-1.4s0.1-1,0.3-1.4
		s0.5-0.7,0.9-0.9s0.9-0.3,1.4-0.3C295,110.1,295.4,110.2,295.8,110.3z"/>
	<path fill="#0A0A0A" d="M298.2,115.4V108h0.8v7.4H298.2z"/>
	<path fill="#0A0A0A" d="M301.6,108.2c0.1,0.1,0.1,0.2,0.1,0.4s0,0.3-0.1,0.4s-0.2,0.2-0.4,0.2s-0.3-0.1-0.4-0.2s-0.1-0.2-0.1-0.4
		c0-0.2,0-0.3,0.1-0.4s0.2-0.2,0.4-0.2S301.5,108.1,301.6,108.2z M300.9,115.4v-5.3h0.8v5.3H300.9z"/>
	<path fill="#0A0A0A" d="M307.5,110.9c0.4,0.5,0.6,1.3,0.6,2.2h-4.3c0.1,0.5,0.3,0.9,0.6,1.2s0.8,0.5,1.3,0.5c0.3,0,0.6-0.1,0.9-0.2
		s0.5-0.3,0.7-0.5l0.4,0.5c-0.3,0.3-0.6,0.5-0.9,0.6s-0.8,0.2-1.2,0.2c-0.5,0-1-0.1-1.4-0.3s-0.7-0.5-0.9-0.9s-0.3-0.9-0.3-1.4
		s0.1-1,0.3-1.4s0.5-0.7,0.9-0.9s0.9-0.3,1.4-0.3C306.5,110.1,307.1,110.4,307.5,110.9z M306.9,111.2c-0.3-0.3-0.7-0.4-1.2-0.4
		c-0.5,0-0.9,0.1-1.3,0.4s-0.5,0.7-0.6,1.2h3.6C307.4,111.9,307.2,111.5,306.9,111.2z"/>
	<path fill="#0A0A0A" d="M313.7,110.6c0.4,0.4,0.5,0.9,0.5,1.5v3.3h-0.8v-3c0-0.5-0.1-0.8-0.4-1.1s-0.6-0.4-1.1-0.4
		c-0.5,0-0.9,0.2-1.2,0.5s-0.5,0.7-0.5,1.2v2.8h-0.8v-5.3h0.8v1.2c0.4-0.8,1-1.2,2-1.2C312.9,110.1,313.4,110.3,313.7,110.6z"/>
	<path fill="#0A0A0A" d="M317.5,115.4c-0.4,0-0.7-0.1-1-0.4s-0.4-0.6-0.4-1.1v-3h-0.8v-0.6h0.8v-1.4h0.8v1.4l1.7,0v0.6H317v2.9
		c0,0.3,0.1,0.5,0.2,0.7s0.3,0.2,0.5,0.2c0.3,0,0.6-0.1,0.8-0.3l0.2,0.6C318.3,115.3,317.9,115.4,317.5,115.4z"/>
	<path fill="#0A0A0A" d="M324.2,115.4c-0.4,0-0.7-0.1-1-0.4s-0.4-0.6-0.4-1.1v-3h-0.8v-0.6h0.8v-1.4h0.8v1.4l1.7,0v0.6h-1.7v2.9
		c0,0.3,0.1,0.5,0.2,0.7s0.3,0.2,0.5,0.2c0.3,0,0.6-0.1,0.8-0.3l0.2,0.6C325,115.3,324.6,115.4,324.2,115.4z"/>
	<path fill="#0A0A0A" d="M327.6,117.1c-0.3,0.2-0.6,0.3-0.9,0.3c-0.4,0-0.8-0.1-1.1-0.4l0.3-0.6c0.2,0.2,0.5,0.2,0.7,0.2
		c0.2,0,0.4-0.1,0.6-0.2c0.2-0.1,0.3-0.3,0.4-0.6l0.2-0.5l-2.2-5.2h0.8l1.7,4.4l1.7-4.4h0.8l-2.4,6
		C328,116.6,327.8,116.9,327.6,117.1z"/>
	<path fill="#0A0A0A" d="M335.7,110.4c0.4,0.2,0.7,0.5,0.9,0.9c0.2,0.4,0.3,0.9,0.3,1.4c0,0.5-0.1,1-0.3,1.4s-0.5,0.7-0.9,0.9
		c-0.4,0.2-0.8,0.3-1.3,0.3c-0.5,0-0.9-0.1-1.2-0.3c-0.3-0.2-0.6-0.5-0.8-0.9v3.1h-0.8v-7.2h0.8v1.1c0.2-0.4,0.5-0.7,0.8-0.9
		c0.4-0.2,0.8-0.3,1.2-0.3C334.9,110.1,335.3,110.2,335.7,110.4z M335.2,114.5c0.3-0.2,0.5-0.4,0.7-0.7s0.2-0.6,0.2-1
		s-0.1-0.7-0.2-1s-0.4-0.5-0.7-0.7c-0.3-0.2-0.6-0.3-1-0.3c-0.4,0-0.7,0.1-1,0.2c-0.3,0.2-0.5,0.4-0.7,0.7c-0.2,0.3-0.2,0.6-0.2,1
		c0,0.4,0.1,0.7,0.2,1c0.2,0.3,0.4,0.5,0.7,0.7c0.3,0.2,0.6,0.3,1,0.3C334.6,114.7,335,114.6,335.2,114.5z"/>
	<path fill="#0A0A0A" d="M342.3,110.9c0.4,0.5,0.6,1.3,0.6,2.2h-4.3c0.1,0.5,0.3,0.9,0.6,1.2s0.8,0.5,1.3,0.5c0.3,0,0.6-0.1,0.9-0.2
		c0.3-0.1,0.5-0.3,0.7-0.5l0.4,0.5c-0.3,0.3-0.6,0.5-0.9,0.6c-0.4,0.2-0.8,0.2-1.2,0.2c-0.5,0-1-0.1-1.4-0.3
		c-0.4-0.2-0.7-0.5-0.9-0.9s-0.3-0.9-0.3-1.4s0.1-1,0.3-1.4c0.2-0.4,0.5-0.7,0.9-0.9s0.9-0.3,1.4-0.3
		C341.2,110.1,341.9,110.4,342.3,110.9z M341.6,111.2c-0.3-0.3-0.7-0.4-1.2-0.4c-0.5,0-0.9,0.1-1.3,0.4c-0.3,0.3-0.5,0.7-0.6,1.2
		h3.6C342.1,111.9,342,111.5,341.6,111.2z"/>
	<path fill="#0A0A0A" d="M347.9,110c-0.2,0.7-0.3,1.5-0.3,2.4s0.1,1.6,0.3,2.4c0.2,0.7,0.5,1.4,0.9,2H348c-0.4-0.6-0.7-1.2-0.9-2
		c-0.2-0.7-0.3-1.5-0.3-2.4s0.1-1.6,0.3-2.4c0.2-0.7,0.5-1.4,0.9-2h0.7C348.4,108.6,348.1,109.2,347.9,110z"/>
	<path fill="#0A0A0A" d="M353.1,114.6c-0.4,0.6-1.1,0.8-1.9,0.8c-0.4,0-0.7-0.1-0.9-0.2c-0.3-0.1-0.5-0.3-0.6-0.6
		c-0.1-0.2-0.2-0.5-0.2-0.8c0-0.5,0.2-0.8,0.5-1.1s0.8-0.4,1.5-0.4h1.7V112c0-0.4-0.1-0.7-0.4-0.9s-0.6-0.3-1.1-0.3
		c-0.5,0-1.1,0.2-1.7,0.6l-0.3-0.6c0.4-0.2,0.7-0.4,1-0.5c0.3-0.1,0.7-0.2,1.1-0.2c0.6,0,1.1,0.2,1.5,0.5c0.4,0.3,0.5,0.8,0.5,1.3
		l0,3.5h-0.8V114.6z M352.5,114.4c0.3-0.2,0.5-0.5,0.6-0.9v-0.6h-1.6c-0.9,0-1.3,0.3-1.3,0.8c0,0.3,0.1,0.5,0.3,0.7s0.5,0.3,0.9,0.3
		C351.8,114.8,352.2,114.7,352.5,114.4z"/>
	<path fill="#0A0A0A" d="M356.6,115.4l-2.1-5.3h0.8l1.7,4.5l1.7-4.5h0.8l-2.1,5.3H356.6z"/>
	<path fill="#0A0A0A" d="M360.3,108h0.7c0.4,0.6,0.7,1.2,0.9,2c0.2,0.7,0.3,1.5,0.3,2.4s-0.1,1.6-0.3,2.4c-0.2,0.7-0.5,1.4-0.9,2
		h-0.7c0.4-0.6,0.6-1.2,0.9-2c0.2-0.7,0.3-1.5,0.3-2.4s-0.1-1.6-0.3-2.4C361,109.2,360.7,108.6,360.3,108z"/>
</g>
<g>
	<path fill="#25DDDF" d="M417.8,51.8v-4.3h-4.2v-3h4.2v-4.3h3.3v4.3h4.2v3h-4.2v4.3H417.8z"/>
	<path fill="#25DDDF" d="M434.9,44.2c0.4-0.6,0.6-1.2,0.6-1.7c0-0.6-0.2-1-0.6-1.4c-0.4-0.4-0.8-0.6-1.4-0.6c-1.1,0-2.1,0.8-3,2.3
		l-3-1.8c0.8-1.2,1.6-2.1,2.6-2.8c0.9-0.6,2.1-0.9,3.6-0.9s2.7,0.5,3.8,1.4s1.6,2.2,1.6,3.8c0,0.9-0.2,1.7-0.7,2.5
		c-0.4,0.8-1.3,1.8-2.4,3l-3,3.1h6.6v3.4h-11.8v-2.8l4.9-5C433.7,45.6,434.4,44.8,434.9,44.2z"/>
	<path fill="#25DDDF" d="M449.2,54.6c-2.3,0-4.1-0.8-5.2-2.4c-1.2-1.6-1.7-3.7-1.7-6.3s0.6-4.7,1.7-6.3c1.2-1.6,2.9-2.4,5.2-2.4
		c2.3,0,4.1,0.8,5.2,2.4c1.2,1.6,1.7,3.7,1.7,6.3s-0.6,4.7-1.7,6.3C453.3,53.9,451.5,54.6,449.2,54.6z M446.7,41.9
		c-0.5,1-0.8,2.4-0.8,4.1c0,1.7,0.3,3,0.8,4.1s1.4,1.5,2.5,1.5s1.9-0.5,2.5-1.5c0.5-1,0.8-2.4,0.8-4.1c0-1.7-0.3-3-0.8-4.1
		c-0.5-1-1.4-1.5-2.5-1.5S447.3,40.9,446.7,41.9z"/>
	<path fill="#25DDDF" d="M466.1,41.5c0,0.9-0.3,1.7-1,2.4s-1.5,1-2.5,1c-1,0-1.9-0.3-2.5-1c-0.7-0.7-1-1.5-1-2.4s0.3-1.7,1-2.4
		s1.5-1,2.5-1c1,0,1.9,0.3,2.5,1S466.1,40.5,466.1,41.5z M475.3,37.7l-12,16.8h-4.1l12-16.8H475.3z M461.9,42.3
		c0.2,0.2,0.4,0.3,0.7,0.3s0.5-0.1,0.7-0.3c0.2-0.2,0.3-0.5,0.3-0.9s-0.1-0.6-0.3-0.9c-0.2-0.2-0.4-0.3-0.7-0.3
		c-0.3,0-0.5,0.1-0.7,0.3c-0.2,0.2-0.3,0.5-0.3,0.9S461.7,42.1,461.9,42.3z M475.6,51.3c0,0.9-0.3,1.7-1,2.4c-0.7,0.6-1.5,1-2.5,1
		c-1,0-1.9-0.3-2.5-1c-0.7-0.7-1-1.5-1-2.4s0.3-1.7,1-2.4c0.7-0.7,1.5-1,2.5-1c1,0,1.9,0.3,2.5,1C475.2,49.5,475.6,50.3,475.6,51.3z
		 M471.3,52.1c0.2,0.2,0.4,0.3,0.7,0.3s0.5-0.1,0.7-0.3c0.2-0.2,0.3-0.5,0.3-0.9c0-0.4-0.1-0.6-0.3-0.9c-0.2-0.2-0.4-0.3-0.7-0.3
		c-0.3,0-0.5,0.1-0.7,0.3c-0.2,0.2-0.3,0.5-0.3,0.9C471,51.6,471.1,51.9,471.3,52.1z"/>
</g>
<g>
	<path fill="#25DDDF" d="M253.2,51.8v-4.3H249v-3h4.2v-4.3h3.3v4.3h4.2v3h-4.2v4.3H253.2z"/>
	<path fill="#25DDDF" d="M262.9,43v-5.4h12.1v2.8l-6.8,13.9h-4.1l6.5-13.6h-4.2V43H262.9z"/>
	<path fill="#25DDDF" d="M284,54.6c-2.3,0-4.1-0.8-5.2-2.4c-1.2-1.6-1.7-3.7-1.7-6.3s0.6-4.7,1.7-6.3c1.2-1.6,2.9-2.4,5.2-2.4
		s4.1,0.8,5.2,2.4c1.2,1.6,1.7,3.7,1.7,6.3s-0.6,4.7-1.7,6.3C288,53.9,286.3,54.6,284,54.6z M281.5,41.9c-0.5,1-0.8,2.4-0.8,4.1
		c0,1.7,0.3,3,0.8,4.1c0.5,1,1.4,1.5,2.5,1.5s1.9-0.5,2.5-1.5s0.8-2.4,0.8-4.1c0-1.7-0.3-3-0.8-4.1s-1.4-1.5-2.5-1.5
		S282,40.9,281.5,41.9z"/>
	<path fill="#25DDDF" d="M300.6,54.6c-2.3,0-4.1-0.8-5.2-2.4c-1.2-1.6-1.7-3.7-1.7-6.3s0.6-4.7,1.7-6.3c1.2-1.6,2.9-2.4,5.2-2.4
		s4.1,0.8,5.2,2.4c1.2,1.6,1.7,3.7,1.7,6.3s-0.6,4.7-1.7,6.3C304.6,53.9,302.9,54.6,300.6,54.6z M298.1,41.9c-0.5,1-0.8,2.4-0.8,4.1
		c0,1.7,0.3,3,0.8,4.1c0.5,1,1.4,1.5,2.5,1.5s1.9-0.5,2.5-1.5s0.8-2.4,0.8-4.1c0-1.7-0.3-3-0.8-4.1s-1.4-1.5-2.5-1.5
		S298.6,40.9,298.1,41.9z"/>
	<path fill="#25DDDF" d="M314.1,54.4h-3.6V36.6h3.6v9.1l4-4.3h4.5l-4.9,5.2l5.1,7.7h-4.3l-3.3-4.9l-1.2,1.2V54.4z"/>
	<path fill="#25DDDF" d="M333.8,35.1h3.4l-10.1,22h-3.4L333.8,35.1z"/>
	<path fill="#25DDDF" d="M341.8,59.5c-1.3,0-2.5-0.5-3.6-1.5l1.6-2.7c0.6,0.6,1.2,0.9,1.9,0.9c0.3,0,0.6-0.2,0.9-0.5
		c0.2-0.3,0.4-0.7,0.4-1c0-0.4-1.7-4.8-5-13.2h3.8l3.1,8l3.1-8h3.8l-6,15.2c-0.4,0.9-0.9,1.6-1.6,2.1
		C343.5,59.3,342.7,59.5,341.8,59.5z"/>
</g>
<g>
	<path fill="#25DDDF" d="M253.2,96.8v-4.3H249v-3h4.2v-4.3h3.3v4.3h4.2v3h-4.2v4.3H253.2z"/>
	<path fill="#25DDDF" d="M263.6,85.8v-3.2h10.3v2.6l-3.4,3.9c1.3,0.2,2.4,0.8,3.1,1.7c0.7,0.9,1.1,1.9,1.1,3.1
		c0,1.8-0.6,3.1-1.8,4.1c-1.2,1-2.7,1.5-4.6,1.5s-3.7-0.7-5.6-2l1.5-3c1.6,1.1,3,1.7,4.2,1.7c0.8,0,1.4-0.2,1.9-0.6
		c0.5-0.4,0.7-0.9,0.7-1.6c0-0.7-0.3-1.2-0.8-1.7s-1.3-0.6-2.3-0.6c-0.5,0-1.3,0.2-2.2,0.5v-2.8l3.2-3.8H263.6z"/>
	<path fill="#25DDDF" d="M289.6,92.4v7h-3.6v-7.1c0-1-0.2-1.8-0.5-2.3s-0.8-0.7-1.5-0.7c-0.7,0-1.3,0.3-1.8,0.8s-0.8,1.3-0.8,2.3v7
		h-3.6V86.5h3.6V88c1-1.1,2.1-1.7,3.4-1.7c0.8,0,1.6,0.2,2.2,0.7c0.7,0.5,1.2,1.1,1.5,1.8c0.5-0.8,1.2-1.4,2-1.8s1.7-0.6,2.5-0.6
		c1.5,0,2.7,0.5,3.7,1.4c0.9,0.9,1.4,2.2,1.4,3.9v7.8h-3.6v-7.1c0-2-0.7-3-2.2-3c-0.7,0-1.3,0.3-1.9,0.8S289.6,91.4,289.6,92.4z"/>
</g>
<g>
	<path fill="#0A0A0A" d="M5.7,70.3l-1.1,2.5H3.5L7.9,63H9l4.4,9.8h-1.2l-1.1-2.5H5.7z M8.4,64.3l-2.2,5h4.4L8.4,64.3z"/>
	<path fill="#0A0A0A" d="M20.6,65.9c0.5,0.3,1,0.8,1.3,1.3s0.4,1.2,0.4,1.9c0,0.7-0.1,1.4-0.4,1.9s-0.7,1-1.2,1.3s-1.1,0.5-1.8,0.5
		c-0.7,0-1.2-0.1-1.7-0.4s-0.9-0.7-1.2-1.2v4.3h-1.1V65.4h1.1V67c0.3-0.5,0.6-0.9,1.1-1.2s1.1-0.4,1.7-0.4
		C19.5,65.4,20.1,65.5,20.6,65.9z M19.9,71.5c0.4-0.2,0.7-0.6,0.9-1s0.3-0.9,0.3-1.4s-0.1-1-0.3-1.4s-0.5-0.7-0.9-1
		s-0.9-0.4-1.4-0.4c-0.5,0-1,0.1-1.4,0.3s-0.7,0.6-0.9,1s-0.3,0.9-0.3,1.4c0,0.5,0.1,1,0.3,1.4s0.5,0.7,0.9,1s0.9,0.4,1.4,0.4
		C19.1,71.8,19.5,71.7,19.9,71.5z"/>
	<path fill="#0A0A0A" d="M30.1,65.9c0.5,0.3,1,0.8,1.3,1.3s0.4,1.2,0.4,1.9c0,0.7-0.1,1.4-0.4,1.9s-0.7,1-1.2,1.3s-1.1,0.5-1.8,0.5
		c-0.7,0-1.2-0.1-1.7-0.4s-0.9-0.7-1.2-1.2v4.3h-1.1V65.4h1.1V67c0.3-0.5,0.6-0.9,1.1-1.2s1.1-0.4,1.7-0.4
		C28.9,65.4,29.5,65.5,30.1,65.9z M29.4,71.5c0.4-0.2,0.7-0.6,0.9-1s0.3-0.9,0.3-1.4s-0.1-1-0.3-1.4s-0.5-0.7-0.9-1
		s-0.9-0.4-1.4-0.4c-0.5,0-1,0.1-1.4,0.3s-0.7,0.6-0.9,1s-0.3,0.9-0.3,1.4c0,0.5,0.1,1,0.3,1.4s0.5,0.7,0.9,1s0.9,0.4,1.4,0.4
		C28.6,71.8,29,71.7,29.4,71.5z"/>
	<path fill="#0A0A0A" d="M35.8,65.8c0.4-0.3,1-0.4,1.6-0.4v1.1c-0.8,0-1.4,0.2-1.8,0.6s-0.7,1-0.8,1.8v3.9h-1.1v-7.4h1.1v1.6
		C35,66.5,35.4,66.1,35.8,65.8z"/>
	<path fill="#0A0A0A" d="M43.8,65.9c0.6,0.3,1,0.8,1.3,1.3s0.5,1.2,0.5,1.9c0,0.7-0.2,1.4-0.5,1.9s-0.8,1-1.3,1.3s-1.2,0.5-1.9,0.5
		s-1.4-0.2-1.9-0.5s-1-0.8-1.3-1.3s-0.5-1.2-0.5-1.9c0-0.7,0.2-1.4,0.5-1.9s0.8-1,1.3-1.3s1.2-0.5,1.9-0.5S43.3,65.6,43.8,65.9z
		 M40.5,66.7c-0.4,0.2-0.7,0.6-0.9,1s-0.3,0.9-0.3,1.4c0,0.5,0.1,1,0.3,1.4s0.5,0.7,0.9,1s0.9,0.4,1.4,0.4s1-0.1,1.4-0.4
		s0.7-0.6,0.9-1s0.3-0.9,0.3-1.4s-0.1-1-0.3-1.4s-0.5-0.7-0.9-1s-0.9-0.3-1.4-0.3C41.4,66.4,40.9,66.5,40.5,66.7z"/>
	<path fill="#0A0A0A" d="M52.1,71.7c-0.6,0.8-1.5,1.2-2.7,1.2c-0.5,0-0.9-0.1-1.3-0.3s-0.7-0.5-0.9-0.8s-0.3-0.7-0.3-1.2
		c0-0.6,0.2-1.2,0.7-1.5s1.2-0.6,2-0.6h2.4v-0.4c0-0.6-0.2-1-0.5-1.3s-0.8-0.4-1.5-0.4c-0.7,0-1.5,0.3-2.3,0.8l-0.5-0.8
		c0.5-0.3,1-0.6,1.4-0.8s1-0.2,1.6-0.2c0.9,0,1.6,0.2,2.1,0.7s0.7,1.1,0.7,1.9l0,4.9h-1.1V71.7z M51.2,71.5c0.4-0.3,0.7-0.7,0.9-1.2
		v-0.9h-2.3c-1.2,0-1.9,0.4-1.9,1.2c0,0.4,0.2,0.7,0.5,1s0.7,0.4,1.2,0.4C50.3,71.9,50.8,71.8,51.2,71.5z"/>
	<path fill="#0A0A0A" d="M60.2,65.7c0.5,0.2,0.9,0.5,1.2,0.8l-0.6,0.8c-0.6-0.6-1.3-0.9-2.2-0.9c-0.5,0-1,0.1-1.4,0.3
		s-0.7,0.5-0.9,1S56,68.6,56,69.1c0,0.5,0.1,1,0.3,1.4s0.5,0.7,0.9,1s0.8,0.4,1.4,0.4c0.5,0,0.9-0.1,1.3-0.2s0.7-0.4,1-0.7l0.6,0.7
		c-0.3,0.4-0.8,0.7-1.3,0.9s-1.1,0.3-1.7,0.3c-0.7,0-1.3-0.2-1.9-0.5s-1-0.8-1.3-1.3s-0.5-1.2-0.5-1.9s0.2-1.4,0.5-1.9
		s0.8-1,1.3-1.3s1.2-0.5,1.9-0.5C59.2,65.4,59.7,65.5,60.2,65.7z"/>
	<path fill="#0A0A0A" d="M69.6,66.1c0.5,0.5,0.7,1.2,0.7,2.1v4.6h-1.1v-4.3c0-0.7-0.2-1.2-0.6-1.5s-0.9-0.5-1.5-0.5
		c-0.8,0-1.4,0.3-1.8,0.8s-0.7,1.1-0.7,2v3.6h-1.1V62.4h1.1v4.7c0.5-1.1,1.4-1.7,2.9-1.7C68.4,65.4,69.1,65.6,69.6,66.1z"/>
</g>
<g>
	<path fill="#25DDDF" d="M13.2,51.1c1.8,0,3.3-0.7,4.5-2.2l2.4,2.5c-1.9,2.1-4.1,3.2-6.7,3.2c-2.6,0-4.7-0.8-6.4-2.4
		c-1.7-1.6-2.5-3.7-2.5-6.2c0-2.5,0.9-4.6,2.6-6.2c1.7-1.7,3.8-2.5,6.3-2.5c2.8,0,5.1,1,6.9,3.1l-2.3,2.6c-1.2-1.5-2.7-2.2-4.4-2.2
		c-1.4,0-2.6,0.5-3.6,1.4c-1,0.9-1.5,2.2-1.5,3.7s0.5,2.8,1.4,3.8C10.7,50.7,11.8,51.1,13.2,51.1z"/>
	<path fill="#25DDDF" d="M36.8,52.1c-1.7,1.7-3.8,2.5-6.3,2.5c-2.5,0-4.6-0.8-6.3-2.5c-1.7-1.7-2.5-3.7-2.5-6.2
		c0-2.5,0.8-4.5,2.5-6.2c1.7-1.7,3.8-2.5,6.3-2.5c2.5,0,4.6,0.8,6.3,2.5c1.7,1.7,2.5,3.7,2.5,6.2C39.3,48.4,38.5,50.5,36.8,52.1z
		 M35.5,46c0-1.5-0.5-2.8-1.4-3.8s-2.1-1.6-3.5-1.6S28,41.1,27,42.1c-1,1.1-1.4,2.3-1.4,3.8s0.5,2.8,1.4,3.8c1,1,2.1,1.6,3.5,1.6
		s2.6-0.5,3.5-1.6S35.5,47.5,35.5,46z"/>
	<path fill="#25DDDF" d="M57.5,43.9L53,53.1h-2.2l-4.5-9.2v10.6h-3.7V37.7h5.1l4.3,9.2l4.3-9.2h5v16.8h-3.7V43.9z"/>
	<path fill="#25DDDF" d="M76.9,39.2c1.2,1,1.8,2.5,1.8,4.6c0,2.1-0.6,3.6-1.8,4.5s-3.1,1.4-5.5,1.4h-2.2v4.7h-3.7V37.7h5.9
		C73.9,37.7,75.8,38.2,76.9,39.2z M74.2,45.8c0.4-0.5,0.7-1.2,0.7-2.2s-0.3-1.7-0.9-2.1c-0.6-0.4-1.5-0.6-2.7-0.6h-2.1v5.6h2.5
		C72.9,46.5,73.8,46.3,74.2,45.8z"/>
	<path fill="#25DDDF" d="M95.2,43.2c0,2.7-1.1,4.4-3.2,5.2l4.2,6h-4.6L88,49.1h-2.6v5.4h-3.7V37.7H88c2.6,0,4.5,0.4,5.6,1.3
		C94.7,39.9,95.2,41.3,95.2,43.2z M90.7,45.2c0.5-0.4,0.7-1.1,0.7-2s-0.2-1.5-0.7-1.9c-0.5-0.3-1.3-0.5-2.5-0.5h-2.8v5h2.7
		C89.4,45.9,90.3,45.7,90.7,45.2z"/>
	<path fill="#25DDDF" d="M111.2,37.7V41h-8.4v3.5h7.5v3.2h-7.5v3.5h8.6v3.3H99.1V37.7H111.2z"/>
	<path fill="#25DDDF" d="M125.2,37.7h3.7v16.8h-3.7v-6.6h-6.7v6.6h-3.7V37.7h3.7v7h6.7V37.7z"/>
	<path fill="#25DDDF" d="M145.2,37.7V41h-8.4v3.5h7.5v3.2h-7.5v3.5h8.6v3.3h-12.4V37.7H145.2z"/>
	<path fill="#25DDDF" d="M160.5,37.7h3.7v16.8h-3.7l-8-10.5v10.5h-3.7V37.7h3.5l8.2,10.8V37.7z"/>
	<path fill="#25DDDF" d="M172.3,41c-0.4,0.3-0.5,0.7-0.5,1.2c0,0.5,0.2,0.9,0.7,1.2s1.5,0.6,3,1c1.6,0.4,2.8,1,3.7,1.8
		c0.9,0.8,1.3,1.9,1.3,3.4c0,1.5-0.6,2.7-1.7,3.7c-1.1,0.9-2.6,1.4-4.5,1.4c-2.7,0-5-1-7.2-3l2.2-2.7c1.8,1.6,3.5,2.4,5,2.4
		c0.7,0,1.2-0.1,1.6-0.4c0.4-0.3,0.6-0.7,0.6-1.2c0-0.5-0.2-0.9-0.6-1.2s-1.2-0.6-2.5-0.9c-2-0.5-3.4-1.1-4.3-1.8
		c-0.9-0.7-1.4-1.9-1.4-3.5c0-1.6,0.6-2.8,1.7-3.7c1.1-0.9,2.6-1.3,4.3-1.3c1.1,0,2.2,0.2,3.4,0.6s2.1,0.9,2.9,1.6l-1.9,2.7
		c-1.5-1.1-3-1.7-4.5-1.7C173.1,40.6,172.7,40.7,172.3,41z"/>
	<path fill="#25DDDF" d="M183.7,37.7h3.7v16.8h-3.7V37.7z"/>
	<path fill="#25DDDF" d="M197.7,48.4l4.3-10.7h4.1l-6.7,16.8h-3.2l-6.7-16.8h4.1L197.7,48.4z"/>
	<path fill="#25DDDF" d="M220.2,37.7V41h-8.4v3.5h7.5v3.2h-7.5v3.5h8.6v3.3h-12.4V37.7H220.2z"/>
</g>
<g>
	<path d="M4.5,88.1v-7h0.8v7H4.5z"/>
	<path d="M11.6,83.3c0.4,0.4,0.5,0.9,0.5,1.5v3.3h-0.8v-3c0-0.5-0.1-0.8-0.4-1.1s-0.6-0.4-1.1-0.4c-0.5,0-0.9,0.2-1.2,0.5
		S8.1,84.8,8,85.3v2.8H7.3v-5.3H8V84c0.4-0.8,1-1.2,2-1.2C10.7,82.8,11.2,83,11.6,83.3z"/>
	<path d="M17.1,83c0.3,0.1,0.6,0.3,0.9,0.6l-0.4,0.6c-0.4-0.4-0.9-0.6-1.6-0.6c-0.4,0-0.7,0.1-1,0.2s-0.5,0.4-0.7,0.7
		s-0.2,0.6-0.2,1c0,0.4,0.1,0.7,0.2,1s0.4,0.5,0.7,0.7s0.6,0.3,1,0.3c0.3,0,0.7-0.1,0.9-0.2s0.5-0.3,0.7-0.5l0.4,0.5
		c-0.2,0.3-0.5,0.5-0.9,0.7s-0.8,0.2-1.2,0.2c-0.5,0-1-0.1-1.4-0.3s-0.7-0.5-0.9-0.9s-0.3-0.9-0.3-1.4s0.1-1,0.3-1.4
		s0.5-0.7,0.9-0.9s0.9-0.3,1.4-0.3C16.4,82.8,16.7,82.9,17.1,83z"/>
	<path d="M19.5,88.1v-7.4h0.8v7.4H19.5z"/>
	<path d="M26.8,88.1H26v-1.2c-0.3,0.8-1,1.2-2,1.2c-0.6,0-1.1-0.2-1.4-0.5S22,86.7,22,86.1v-3.2h0.8v3c0,0.5,0.1,0.8,0.4,1.1
		s0.6,0.4,1.1,0.4c0.5,0,1-0.2,1.3-0.5S26,86,26,85.4v-2.6h0.8V88.1z"/>
	<path d="M33.5,88.1h-0.8V87c-0.2,0.4-0.5,0.7-0.8,0.9s-0.8,0.3-1.2,0.3c-0.5,0-0.9-0.1-1.3-0.3s-0.7-0.5-0.9-0.9s-0.3-0.9-0.3-1.4
		s0.1-1,0.3-1.4s0.5-0.7,0.9-0.9s0.8-0.3,1.3-0.3c0.5,0,0.9,0.1,1.2,0.3s0.6,0.5,0.8,0.9v-3.3h0.8V88.1z M31.8,87.2
		c0.3-0.2,0.5-0.4,0.7-0.7s0.2-0.6,0.2-1c0-0.4-0.1-0.7-0.2-1s-0.4-0.5-0.7-0.7s-0.6-0.3-1-0.3s-0.7,0.1-1,0.3s-0.5,0.4-0.7,0.7
		s-0.2,0.6-0.2,1c0,0.4,0.1,0.7,0.2,1s0.4,0.5,0.7,0.7s0.6,0.3,1,0.3S31.5,87.4,31.8,87.2z"/>
	<path d="M39.4,83.6c0.4,0.5,0.6,1.3,0.6,2.2h-4.3c0.1,0.5,0.3,0.9,0.6,1.2s0.8,0.5,1.3,0.5c0.3,0,0.6-0.1,0.9-0.2s0.5-0.3,0.7-0.5
		l0.4,0.5c-0.3,0.3-0.6,0.5-0.9,0.6s-0.8,0.2-1.2,0.2c-0.5,0-1-0.1-1.4-0.3s-0.7-0.5-0.9-0.9s-0.3-0.9-0.3-1.4s0.1-1,0.3-1.4
		s0.5-0.7,0.9-0.9s0.9-0.3,1.4-0.3C38.4,82.8,39,83.1,39.4,83.6z M38.8,83.9c-0.3-0.3-0.7-0.4-1.2-0.4c-0.5,0-0.9,0.1-1.3,0.4
		s-0.5,0.7-0.6,1.2h3.6C39.3,84.6,39.1,84.2,38.8,83.9z"/>
	<path d="M43.7,82.9c0.3,0.1,0.5,0.2,0.8,0.4l-0.3,0.6c-0.2-0.1-0.4-0.2-0.7-0.3s-0.5-0.1-0.7-0.1c-0.3,0-0.6,0.1-0.8,0.2
		s-0.3,0.3-0.3,0.5c0,0.2,0.1,0.3,0.2,0.4s0.2,0.2,0.4,0.3s0.4,0.1,0.7,0.2c0.4,0.1,0.7,0.2,0.9,0.3s0.4,0.3,0.6,0.5
		s0.2,0.5,0.2,0.8c0,0.5-0.2,0.9-0.6,1.1s-0.8,0.4-1.4,0.4c-0.4,0-0.8-0.1-1.1-0.2s-0.7-0.3-0.9-0.5l0.3-0.6
		c0.2,0.2,0.5,0.4,0.8,0.5s0.6,0.2,0.9,0.2c0.3,0,0.6-0.1,0.8-0.2s0.3-0.3,0.3-0.6s-0.1-0.4-0.3-0.6s-0.5-0.2-0.9-0.4
		c-0.4-0.1-0.7-0.2-0.9-0.3s-0.4-0.2-0.6-0.4s-0.2-0.5-0.2-0.8c0-0.5,0.2-0.8,0.5-1.1s0.8-0.4,1.3-0.4
		C43.1,82.8,43.4,82.8,43.7,82.9z"/>
	<path d="M53.2,87.5c0,0.5-0.1,1-0.3,1.3s-0.5,0.7-0.9,0.9s-0.9,0.3-1.4,0.3c-0.8,0-1.5-0.3-2.2-0.8l0.4-0.6
		c0.3,0.2,0.5,0.4,0.8,0.5s0.6,0.2,0.9,0.2c0.6,0,1-0.2,1.4-0.5s0.5-0.8,0.5-1.3v-0.8c-0.2,0.4-0.4,0.6-0.8,0.8s-0.7,0.3-1.2,0.3
		c-0.5,0-0.9-0.1-1.2-0.3s-0.6-0.5-0.9-0.9s-0.3-0.8-0.3-1.3c0-0.5,0.1-0.9,0.3-1.3s0.5-0.7,0.8-0.9s0.8-0.3,1.2-0.3
		c0.4,0,0.8,0.1,1.2,0.3s0.6,0.5,0.8,0.8v-1.1h0.8V87.5z M51.6,87c0.3-0.2,0.5-0.4,0.6-0.7s0.2-0.6,0.2-1c0-0.4-0.1-0.7-0.2-1
		s-0.4-0.5-0.6-0.7s-0.6-0.2-0.9-0.2c-0.3,0-0.7,0.1-0.9,0.2s-0.5,0.4-0.6,0.7s-0.2,0.6-0.2,1c0,0.4,0.1,0.7,0.2,1s0.4,0.5,0.6,0.7
		s0.6,0.2,0.9,0.2C51,87.2,51.3,87.1,51.6,87z"/>
	<path d="M56.5,83.1c0.3-0.2,0.7-0.3,1.1-0.3v0.8c-0.5,0-1,0.1-1.3,0.5s-0.5,0.7-0.6,1.3v2.8H55v-5.3h0.8V84
		C55.9,83.6,56.2,83.3,56.5,83.1z"/>
	<path d="M62.2,83.1c0.4,0.2,0.7,0.5,0.9,0.9s0.3,0.9,0.3,1.4c0,0.5-0.1,1-0.3,1.4s-0.5,0.7-0.9,0.9s-0.9,0.3-1.4,0.3
		s-1-0.1-1.4-0.3s-0.7-0.5-0.9-0.9s-0.3-0.9-0.3-1.4c0-0.5,0.1-1,0.3-1.4s0.5-0.7,0.9-0.9s0.9-0.3,1.4-0.3S61.8,82.9,62.2,83.1z
		 M59.9,83.8c-0.3,0.2-0.5,0.4-0.7,0.7s-0.2,0.6-0.2,1c0,0.4,0.1,0.7,0.2,1s0.4,0.5,0.7,0.7s0.6,0.3,1,0.3s0.7-0.1,1-0.3
		s0.5-0.4,0.7-0.7s0.2-0.6,0.2-1s-0.1-0.7-0.2-1s-0.4-0.5-0.7-0.7s-0.6-0.2-1-0.2C60.5,83.5,60.1,83.6,59.9,83.8z"/>
	<path d="M69.7,88.1l-1.5-4.3l-1.5,4.3h-0.8l-2-5.3h0.8l1.6,4.5l1.5-4.5h0.8l1.5,4.5l1.5-4.5h0.8l-2,5.3H69.7z"/>
	<path d="M74.9,88.1c-0.4,0-0.7-0.1-1-0.4s-0.4-0.6-0.4-1.1v-3h-0.8V83h0.8v-1.4h0.8V83l1.7,0v0.6h-1.7v2.9c0,0.3,0.1,0.5,0.2,0.7
		s0.3,0.2,0.5,0.2c0.3,0,0.6-0.1,0.8-0.3l0.2,0.6C75.7,88,75.3,88.1,74.9,88.1z"/>
	<path d="M81.6,83.3c0.4,0.4,0.5,0.9,0.5,1.5v3.3h-0.8v-3c0-0.5-0.1-0.8-0.4-1.1s-0.6-0.4-1.1-0.4c-0.6,0-1,0.2-1.3,0.5
		s-0.5,0.8-0.5,1.4v2.6h-0.8v-7.4h0.8V84c0.3-0.8,1-1.2,2-1.2C80.7,82.8,81.2,83,81.6,83.3z"/>
	<path d="M88.9,82.9c0.3,0.1,0.5,0.2,0.8,0.4l-0.3,0.6c-0.2-0.1-0.4-0.2-0.7-0.3s-0.5-0.1-0.7-0.1c-0.3,0-0.6,0.1-0.8,0.2
		s-0.3,0.3-0.3,0.5c0,0.2,0.1,0.3,0.2,0.4s0.2,0.2,0.4,0.3s0.4,0.1,0.7,0.2c0.4,0.1,0.7,0.2,0.9,0.3s0.4,0.3,0.6,0.5
		s0.2,0.5,0.2,0.8c0,0.5-0.2,0.9-0.6,1.1s-0.8,0.4-1.4,0.4c-0.4,0-0.8-0.1-1.1-0.2s-0.7-0.3-0.9-0.5l0.3-0.6
		c0.2,0.2,0.5,0.4,0.8,0.5s0.6,0.2,0.9,0.2c0.3,0,0.6-0.1,0.8-0.2s0.3-0.3,0.3-0.6s-0.1-0.4-0.3-0.6s-0.5-0.2-0.9-0.4
		c-0.4-0.1-0.7-0.2-0.9-0.3s-0.4-0.2-0.6-0.4s-0.2-0.5-0.2-0.8c0-0.5,0.2-0.8,0.5-1.1s0.8-0.4,1.3-0.4
		C88.3,82.8,88.6,82.8,88.9,82.9z"/>
	<path d="M92.6,88.1c-0.4,0-0.7-0.1-1-0.4s-0.4-0.6-0.4-1.1v-3h-0.8V83h0.8v-1.4h0.8V83l1.7,0v0.6h-1.7v2.9c0,0.3,0.1,0.5,0.2,0.7
		s0.3,0.2,0.5,0.2c0.3,0,0.6-0.1,0.8-0.3l0.2,0.6C93.4,88,93.1,88.1,92.6,88.1z"/>
	<path d="M96.5,83.1c0.3-0.2,0.7-0.3,1.1-0.3v0.8c-0.5,0-1,0.1-1.3,0.5s-0.5,0.7-0.6,1.3v2.8H95v-5.3h0.8V84
		C96,83.6,96.2,83.3,96.5,83.1z"/>
	<path d="M101.7,87.3c-0.4,0.6-1.1,0.8-1.9,0.8c-0.4,0-0.7-0.1-0.9-0.2s-0.5-0.3-0.6-0.6S98,86.8,98,86.5c0-0.5,0.2-0.8,0.5-1.1
		S99.4,85,100,85h1.7v-0.3c0-0.4-0.1-0.7-0.4-0.9s-0.6-0.3-1.1-0.3c-0.5,0-1.1,0.2-1.7,0.6l-0.3-0.6c0.4-0.2,0.7-0.4,1-0.5
		s0.7-0.2,1.1-0.2c0.6,0,1.1,0.2,1.5,0.5s0.5,0.8,0.5,1.3l0,3.5h-0.8V87.3z M101.1,87.1c0.3-0.2,0.5-0.5,0.6-0.9v-0.6h-1.6
		c-0.9,0-1.3,0.3-1.3,0.8c0,0.3,0.1,0.5,0.3,0.7s0.5,0.3,0.9,0.3C100.4,87.5,100.8,87.4,101.1,87.1z"/>
	<path d="M105.8,88.1c-0.4,0-0.7-0.1-1-0.4s-0.4-0.6-0.4-1.1v-3h-0.8V83h0.8v-1.4h0.8V83l1.7,0v0.6h-1.7v2.9c0,0.3,0.1,0.5,0.2,0.7
		s0.3,0.2,0.5,0.2c0.3,0,0.6-0.1,0.8-0.3l0.2,0.6C106.6,88,106.2,88.1,105.8,88.1z"/>
	<path d="M112,83.6c0.4,0.5,0.6,1.3,0.6,2.2h-4.3c0.1,0.5,0.3,0.9,0.6,1.2s0.8,0.5,1.3,0.5c0.3,0,0.6-0.1,0.9-0.2s0.5-0.3,0.7-0.5
		l0.4,0.5c-0.3,0.3-0.6,0.5-0.9,0.6s-0.8,0.2-1.2,0.2c-0.5,0-1-0.1-1.4-0.3s-0.7-0.5-0.9-0.9s-0.3-0.9-0.3-1.4s0.1-1,0.3-1.4
		s0.5-0.7,0.9-0.9s0.9-0.3,1.4-0.3C111,82.8,111.6,83.1,112,83.6z M111.4,83.9c-0.3-0.3-0.7-0.4-1.2-0.4c-0.5,0-0.9,0.1-1.3,0.4
		s-0.5,0.7-0.6,1.2h3.6C111.9,84.6,111.7,84.2,111.4,83.9z"/>
	<path d="M118.5,87.5c0,0.5-0.1,1-0.3,1.3s-0.5,0.7-0.9,0.9s-0.9,0.3-1.4,0.3c-0.8,0-1.5-0.3-2.2-0.8l0.4-0.6
		c0.3,0.2,0.5,0.4,0.8,0.5s0.6,0.2,0.9,0.2c0.6,0,1-0.2,1.4-0.5s0.5-0.8,0.5-1.3v-0.8c-0.2,0.4-0.4,0.6-0.8,0.8s-0.7,0.3-1.2,0.3
		c-0.5,0-0.9-0.1-1.2-0.3s-0.6-0.5-0.9-0.9s-0.3-0.8-0.3-1.3c0-0.5,0.1-0.9,0.3-1.3s0.5-0.7,0.8-0.9s0.8-0.3,1.2-0.3
		c0.4,0,0.8,0.1,1.2,0.3s0.6,0.5,0.8,0.8v-1.1h0.8V87.5z M116.9,87c0.3-0.2,0.5-0.4,0.6-0.7s0.2-0.6,0.2-1c0-0.4-0.1-0.7-0.2-1
		s-0.4-0.5-0.6-0.7s-0.6-0.2-0.9-0.2c-0.3,0-0.7,0.1-0.9,0.2s-0.5,0.4-0.6,0.7s-0.2,0.6-0.2,1c0,0.4,0.1,0.7,0.2,1s0.4,0.5,0.6,0.7
		s0.6,0.2,0.9,0.2C116.3,87.2,116.6,87.1,116.9,87z"/>
	<path d="M121.3,89.8c-0.3,0.2-0.6,0.3-0.9,0.3c-0.4,0-0.8-0.1-1.1-0.4l0.3-0.6c0.2,0.2,0.5,0.2,0.7,0.2c0.2,0,0.4-0.1,0.6-0.2
		s0.3-0.3,0.4-0.6l0.2-0.5l-2.2-5.2h0.8l1.7,4.4l1.7-4.4h0.8l-2.4,6C121.8,89.3,121.6,89.6,121.3,89.8z"/>
	<path d="M125.7,87.3c0.1,0.1,0.1,0.2,0.1,0.4c0,0.1-0.1,0.3-0.2,0.4l-0.5,0.7h-0.4l0.3-0.7c-0.1-0.1-0.2-0.2-0.2-0.4
		c0-0.1,0-0.3,0.1-0.4c0.1-0.1,0.2-0.1,0.3-0.1S125.6,87.2,125.7,87.3z"/>
	<path d="M134.2,83.1c0.4,0.2,0.7,0.5,0.9,0.9c0.2,0.4,0.3,0.9,0.3,1.4c0,0.5-0.1,1-0.3,1.4c-0.2,0.4-0.5,0.7-0.9,0.9
		c-0.4,0.2-0.8,0.3-1.3,0.3c-0.5,0-0.9-0.1-1.2-0.3c-0.4-0.2-0.6-0.5-0.8-0.9V90h-0.8v-7.2h0.8V84c0.2-0.4,0.5-0.7,0.8-0.9
		c0.3-0.2,0.8-0.3,1.2-0.3C133.4,82.8,133.8,82.9,134.2,83.1z M133.7,87.2c0.3-0.2,0.5-0.4,0.7-0.7c0.2-0.3,0.2-0.6,0.2-1
		s-0.1-0.7-0.2-1c-0.2-0.3-0.4-0.5-0.7-0.7s-0.6-0.3-1-0.3c-0.4,0-0.7,0.1-1,0.2s-0.5,0.4-0.7,0.7s-0.2,0.6-0.2,1
		c0,0.4,0.1,0.7,0.2,1s0.4,0.5,0.7,0.7s0.6,0.3,1,0.3C133.1,87.4,133.4,87.3,133.7,87.2z"/>
	<path d="M138.3,83.1c0.3-0.2,0.7-0.3,1.1-0.3v0.8c-0.5,0-1,0.1-1.3,0.5s-0.5,0.7-0.6,1.3v2.8h-0.8v-5.3h0.8V84
		C137.7,83.6,138,83.3,138.3,83.1z"/>
	<path d="M144,83.1c0.4,0.2,0.7,0.5,0.9,0.9s0.3,0.9,0.3,1.4c0,0.5-0.1,1-0.3,1.4s-0.5,0.7-0.9,0.9c-0.4,0.2-0.9,0.3-1.4,0.3
		s-1-0.1-1.4-0.3s-0.7-0.5-0.9-0.9c-0.2-0.4-0.3-0.9-0.3-1.4c0-0.5,0.1-1,0.3-1.4c0.2-0.4,0.5-0.7,0.9-0.9s0.9-0.3,1.4-0.3
		S143.6,82.9,144,83.1z M141.7,83.8c-0.3,0.2-0.5,0.4-0.7,0.7s-0.2,0.6-0.2,1c0,0.4,0.1,0.7,0.2,1s0.4,0.5,0.7,0.7s0.6,0.3,1,0.3
		s0.7-0.1,1-0.3s0.5-0.4,0.7-0.7s0.2-0.6,0.2-1s-0.1-0.7-0.2-1s-0.4-0.5-0.7-0.7c-0.3-0.2-0.6-0.2-1-0.2
		C142.3,83.5,141.9,83.6,141.7,83.8z"/>
	<path d="M151.5,88.1h-0.8V87c-0.2,0.4-0.5,0.7-0.8,0.9c-0.4,0.2-0.8,0.3-1.2,0.3c-0.5,0-0.9-0.1-1.3-0.3c-0.4-0.2-0.7-0.5-0.9-0.9
		c-0.2-0.4-0.3-0.9-0.3-1.4s0.1-1,0.3-1.4c0.2-0.4,0.5-0.7,0.9-0.9s0.8-0.3,1.3-0.3c0.5,0,0.9,0.1,1.2,0.3s0.6,0.5,0.8,0.9v-3.3h0.8
		V88.1z M149.8,87.2c0.3-0.2,0.5-0.4,0.7-0.7s0.2-0.6,0.2-1c0-0.4-0.1-0.7-0.2-1s-0.4-0.5-0.7-0.7s-0.6-0.3-1-0.3s-0.7,0.1-1,0.3
		s-0.5,0.4-0.7,0.7s-0.2,0.6-0.2,1c0,0.4,0.1,0.7,0.2,1s0.4,0.5,0.7,0.7s0.6,0.3,1,0.3S149.5,87.4,149.8,87.2z"/>
	<path d="M158,88.1h-0.8v-1.2c-0.3,0.8-1,1.2-2,1.2c-0.6,0-1.1-0.2-1.4-0.5c-0.4-0.4-0.5-0.9-0.5-1.5v-3.2h0.8v3
		c0,0.5,0.1,0.8,0.4,1.1s0.6,0.4,1.1,0.4c0.5,0,1-0.2,1.3-0.5c0.3-0.4,0.5-0.8,0.5-1.4v-2.6h0.8V88.1z"/>
	<path d="M163.2,83c0.3,0.1,0.6,0.3,0.9,0.6l-0.4,0.6c-0.4-0.4-0.9-0.6-1.6-0.6c-0.4,0-0.7,0.1-1,0.2s-0.5,0.4-0.7,0.7
		s-0.2,0.6-0.2,1c0,0.4,0.1,0.7,0.2,1s0.4,0.5,0.7,0.7s0.6,0.3,1,0.3c0.3,0,0.7-0.1,0.9-0.2s0.5-0.3,0.7-0.5l0.4,0.5
		c-0.2,0.3-0.5,0.5-0.9,0.7c-0.4,0.2-0.8,0.2-1.2,0.2c-0.5,0-1-0.1-1.4-0.3s-0.7-0.5-0.9-0.9c-0.2-0.4-0.3-0.9-0.3-1.4
		s0.1-1,0.3-1.4c0.2-0.4,0.5-0.7,0.9-0.9s0.9-0.3,1.4-0.3C162.5,82.8,162.8,82.9,163.2,83z"/>
	<path d="M167.1,88.1c-0.4,0-0.7-0.1-1-0.4s-0.4-0.6-0.4-1.1v-3H165V83h0.8v-1.4h0.8V83l1.7,0v0.6h-1.7v2.9c0,0.3,0.1,0.5,0.2,0.7
		s0.3,0.2,0.5,0.2c0.3,0,0.6-0.1,0.8-0.3l0.2,0.6C167.9,88,167.5,88.1,167.1,88.1z"/>
	<path d="M5.9,95.1c0.3-0.2,0.7-0.3,1.1-0.3v0.8c-0.5,0-1,0.1-1.3,0.5s-0.5,0.7-0.6,1.3v2.8H4.4v-5.3h0.8V96
		C5.3,95.6,5.6,95.3,5.9,95.1z"/>
	<path d="M11.6,95.1c0.4,0.2,0.7,0.5,0.9,0.9s0.3,0.9,0.3,1.4c0,0.5-0.1,1-0.3,1.4s-0.5,0.7-0.9,0.9s-0.9,0.3-1.4,0.3
		s-1-0.1-1.4-0.3s-0.7-0.5-0.9-0.9S7.5,98,7.5,97.5c0-0.5,0.1-1,0.3-1.4s0.5-0.7,0.9-0.9s0.9-0.3,1.4-0.3S11.2,94.9,11.6,95.1z
		 M9.2,95.8c-0.3,0.2-0.5,0.4-0.7,0.7s-0.2,0.6-0.2,1c0,0.4,0.1,0.7,0.2,1s0.4,0.5,0.7,0.7s0.6,0.3,1,0.3s0.7-0.1,1-0.3
		s0.5-0.4,0.7-0.7s0.2-0.6,0.2-1s-0.1-0.7-0.2-1s-0.4-0.5-0.7-0.7s-0.6-0.2-1-0.2C9.8,95.5,9.5,95.6,9.2,95.8z"/>
	<path d="M17.5,99.3c-0.4,0.6-1.1,0.8-1.9,0.8c-0.4,0-0.7-0.1-0.9-0.2s-0.5-0.3-0.6-0.6s-0.2-0.5-0.2-0.8c0-0.5,0.2-0.8,0.5-1.1
		s0.8-0.4,1.5-0.4h1.7v-0.3c0-0.4-0.1-0.7-0.4-0.9s-0.6-0.3-1.1-0.3c-0.5,0-1.1,0.2-1.7,0.6l-0.3-0.6c0.4-0.2,0.7-0.4,1-0.5
		s0.7-0.2,1.1-0.2c0.6,0,1.1,0.2,1.5,0.5s0.5,0.8,0.5,1.3l0,3.5h-0.8V99.3z M16.9,99.1c0.3-0.2,0.5-0.5,0.6-0.9v-0.6h-1.6
		c-0.9,0-1.3,0.3-1.3,0.8c0,0.3,0.1,0.5,0.3,0.7s0.5,0.3,0.9,0.3C16.2,99.5,16.6,99.4,16.9,99.1z"/>
	<path d="M24.9,100.1h-0.8V99c-0.2,0.4-0.5,0.7-0.8,0.9s-0.8,0.3-1.2,0.3c-0.5,0-0.9-0.1-1.3-0.3s-0.7-0.5-0.9-0.9s-0.3-0.9-0.3-1.4
		s0.1-1,0.3-1.4s0.5-0.7,0.9-0.9s0.8-0.3,1.3-0.3c0.5,0,0.9,0.1,1.2,0.3s0.6,0.5,0.8,0.9v-3.3h0.8V100.1z M23.2,99.2
		c0.3-0.2,0.5-0.4,0.7-0.7s0.2-0.6,0.2-1c0-0.4-0.1-0.7-0.2-1s-0.4-0.5-0.7-0.7s-0.6-0.3-1-0.3s-0.7,0.1-1,0.3s-0.5,0.4-0.7,0.7
		s-0.2,0.6-0.2,1c0,0.4,0.1,0.7,0.2,1s0.4,0.5,0.7,0.7s0.6,0.3,1,0.3S22.9,99.4,23.2,99.2z"/>
	<path d="M35,95.3c0.3,0.4,0.5,0.9,0.5,1.5v3.3h-0.8v-3c0-0.5-0.1-0.8-0.4-1.1s-0.6-0.4-1.1-0.4c-0.5,0-1,0.2-1.3,0.5
		s-0.5,0.8-0.5,1.4v2.6h-0.8v-3c0-0.5-0.1-0.8-0.4-1.1s-0.6-0.4-1.1-0.4c-0.5,0-1,0.2-1.3,0.5s-0.5,0.8-0.5,1.4v2.6h-0.8v-5.3h0.8
		V96c0.2-0.4,0.4-0.7,0.8-0.9s0.8-0.3,1.2-0.3c0.5,0,0.9,0.1,1.2,0.4s0.5,0.6,0.7,1c0.2-0.5,0.4-0.8,0.8-1s0.8-0.3,1.3-0.3
		C34.2,94.8,34.6,95,35,95.3z"/>
	<path d="M40.5,99.3c-0.4,0.6-1.1,0.8-1.9,0.8c-0.4,0-0.7-0.1-0.9-0.2s-0.5-0.3-0.6-0.6s-0.2-0.5-0.2-0.8c0-0.5,0.2-0.8,0.5-1.1
		s0.8-0.4,1.5-0.4h1.7v-0.3c0-0.4-0.1-0.7-0.4-0.9s-0.6-0.3-1.1-0.3c-0.5,0-1.1,0.2-1.7,0.6l-0.3-0.6c0.4-0.2,0.7-0.4,1-0.5
		s0.7-0.2,1.1-0.2c0.6,0,1.1,0.2,1.5,0.5s0.5,0.8,0.5,1.3l0,3.5h-0.8V99.3z M39.9,99.1c0.3-0.2,0.5-0.5,0.6-0.9v-0.6h-1.6
		c-0.9,0-1.3,0.3-1.3,0.8c0,0.3,0.1,0.5,0.3,0.7s0.5,0.3,0.9,0.3C39.2,99.5,39.6,99.4,39.9,99.1z"/>
	<path d="M47.2,95.1c0.4,0.2,0.7,0.5,0.9,0.9s0.3,0.9,0.3,1.4c0,0.5-0.1,1-0.3,1.4s-0.5,0.7-0.9,0.9s-0.8,0.3-1.3,0.3
		c-0.5,0-0.9-0.1-1.2-0.3S44,99.3,43.8,99v3.1h-0.8v-7.2h0.8V96c0.2-0.4,0.5-0.7,0.8-0.9s0.8-0.3,1.2-0.3
		C46.4,94.8,46.8,94.9,47.2,95.1z M46.7,99.2c0.3-0.2,0.5-0.4,0.7-0.7s0.2-0.6,0.2-1s-0.1-0.7-0.2-1s-0.4-0.5-0.7-0.7
		s-0.6-0.3-1-0.3c-0.4,0-0.7,0.1-1,0.2s-0.5,0.4-0.7,0.7s-0.2,0.6-0.2,1c0,0.4,0.1,0.7,0.2,1s0.4,0.5,0.7,0.7s0.6,0.3,1,0.3
		C46.1,99.4,46.4,99.3,46.7,99.2z"/>
	<path d="M55.8,99.3c-0.4,0.6-1.1,0.8-1.9,0.8c-0.4,0-0.7-0.1-0.9-0.2s-0.5-0.3-0.6-0.6S52,98.8,52,98.5c0-0.5,0.2-0.8,0.5-1.1
		S53.4,97,54,97h1.7v-0.3c0-0.4-0.1-0.7-0.4-0.9s-0.6-0.3-1.1-0.3c-0.5,0-1.1,0.2-1.7,0.6l-0.3-0.6c0.4-0.2,0.7-0.4,1-0.5
		s0.7-0.2,1.1-0.2c0.6,0,1.1,0.2,1.5,0.5s0.5,0.8,0.5,1.3l0,3.5h-0.8V99.3z M55.1,99.1c0.3-0.2,0.5-0.5,0.6-0.9v-0.6h-1.6
		c-0.9,0-1.3,0.3-1.3,0.8c0,0.3,0.1,0.5,0.3,0.7s0.5,0.3,0.9,0.3C54.4,99.5,54.8,99.4,55.1,99.1z"/>
	<path d="M62.6,95.3c0.4,0.4,0.5,0.9,0.5,1.5v3.3h-0.8v-3c0-0.5-0.1-0.8-0.4-1.1s-0.6-0.4-1.1-0.4c-0.5,0-0.9,0.2-1.2,0.5
		s-0.5,0.7-0.5,1.2v2.8h-0.8v-5.3H59V96c0.4-0.8,1-1.2,2-1.2C61.7,94.8,62.2,95,62.6,95.3z"/>
	<path d="M69.7,100.1h-0.8V99c-0.2,0.4-0.5,0.7-0.8,0.9s-0.8,0.3-1.2,0.3c-0.5,0-0.9-0.1-1.3-0.3s-0.7-0.5-0.9-0.9s-0.3-0.9-0.3-1.4
		s0.1-1,0.3-1.4s0.5-0.7,0.9-0.9s0.8-0.3,1.3-0.3c0.5,0,0.9,0.1,1.2,0.3s0.6,0.5,0.8,0.9v-3.3h0.8V100.1z M68,99.2
		c0.3-0.2,0.5-0.4,0.7-0.7s0.2-0.6,0.2-1c0-0.4-0.1-0.7-0.2-1s-0.4-0.5-0.7-0.7s-0.6-0.3-1-0.3s-0.7,0.1-1,0.3s-0.5,0.4-0.7,0.7
		s-0.2,0.6-0.2,1c0,0.4,0.1,0.7,0.2,1s0.4,0.5,0.7,0.7s0.6,0.3,1,0.3S67.7,99.4,68,99.2z"/>
	<path d="M79.2,100.1h-0.8V99c-0.2,0.4-0.5,0.7-0.8,0.9s-0.8,0.3-1.2,0.3c-0.5,0-0.9-0.1-1.3-0.3s-0.7-0.5-0.9-0.9s-0.3-0.9-0.3-1.4
		s0.1-1,0.3-1.4s0.5-0.7,0.9-0.9s0.8-0.3,1.3-0.3c0.5,0,0.9,0.1,1.2,0.3s0.6,0.5,0.8,0.9v-3.3h0.8V100.1z M77.5,99.2
		c0.3-0.2,0.5-0.4,0.7-0.7s0.2-0.6,0.2-1c0-0.4-0.1-0.7-0.2-1s-0.4-0.5-0.7-0.7s-0.6-0.3-1-0.3s-0.7,0.1-1,0.3s-0.5,0.4-0.7,0.7
		s-0.2,0.6-0.2,1c0,0.4,0.1,0.7,0.2,1s0.4,0.5,0.7,0.7s0.6,0.3,1,0.3S77.2,99.4,77.5,99.2z"/>
	<path d="M85.1,95.6c0.4,0.5,0.6,1.3,0.6,2.2h-4.3c0.1,0.5,0.3,0.9,0.6,1.2s0.8,0.5,1.3,0.5c0.3,0,0.6-0.1,0.9-0.2s0.5-0.3,0.7-0.5
		l0.4,0.5c-0.3,0.3-0.6,0.5-0.9,0.6s-0.8,0.2-1.2,0.2c-0.5,0-1-0.1-1.4-0.3s-0.7-0.5-0.9-0.9s-0.3-0.9-0.3-1.4s0.1-1,0.3-1.4
		s0.5-0.7,0.9-0.9s0.9-0.3,1.4-0.3C84.1,94.8,84.7,95.1,85.1,95.6z M84.5,95.9c-0.3-0.3-0.7-0.4-1.2-0.4c-0.5,0-0.9,0.1-1.3,0.4
		s-0.5,0.7-0.6,1.2H85C85,96.6,84.8,96.2,84.5,95.9z"/>
	<path d="M89.3,94.9c0.3,0.1,0.5,0.2,0.8,0.4l-0.3,0.6c-0.2-0.1-0.4-0.2-0.7-0.3s-0.5-0.1-0.7-0.1c-0.3,0-0.6,0.1-0.8,0.2
		s-0.3,0.3-0.3,0.5c0,0.2,0.1,0.3,0.2,0.4s0.2,0.2,0.4,0.3s0.4,0.1,0.7,0.2c0.4,0.1,0.7,0.2,0.9,0.3s0.4,0.3,0.6,0.5
		s0.2,0.5,0.2,0.8c0,0.5-0.2,0.9-0.6,1.1s-0.8,0.4-1.4,0.4c-0.4,0-0.8-0.1-1.1-0.2s-0.7-0.3-0.9-0.5l0.3-0.6
		c0.2,0.2,0.5,0.4,0.8,0.5s0.6,0.2,0.9,0.2c0.3,0,0.6-0.1,0.8-0.2s0.3-0.3,0.3-0.6s-0.1-0.4-0.3-0.6s-0.5-0.2-0.9-0.4
		c-0.4-0.1-0.7-0.2-0.9-0.3S87,97.2,86.8,97s-0.2-0.5-0.2-0.8c0-0.5,0.2-0.8,0.5-1.1s0.8-0.4,1.3-0.4C88.7,94.8,89,94.8,89.3,94.9z"
		/>
	<path d="M92.3,92.9c0.1,0.1,0.1,0.2,0.1,0.4s0,0.3-0.1,0.4s-0.2,0.2-0.4,0.2s-0.3-0.1-0.4-0.2s-0.1-0.2-0.1-0.4
		c0-0.2,0-0.3,0.1-0.4s0.2-0.2,0.4-0.2S92.2,92.8,92.3,92.9z M91.5,100.1v-5.3h0.8v5.3H91.5z"/>
	<path d="M98.8,99.5c0,0.5-0.1,1-0.3,1.3s-0.5,0.7-0.9,0.9s-0.9,0.3-1.4,0.3c-0.8,0-1.5-0.3-2.2-0.8l0.4-0.6
		c0.3,0.2,0.5,0.4,0.8,0.5s0.6,0.2,0.9,0.2c0.6,0,1-0.2,1.4-0.5s0.5-0.8,0.5-1.3v-0.8c-0.2,0.4-0.4,0.6-0.8,0.8s-0.7,0.3-1.2,0.3
		c-0.5,0-0.9-0.1-1.2-0.3S94.2,99,94,98.6s-0.3-0.8-0.3-1.3c0-0.5,0.1-0.9,0.3-1.3s0.5-0.7,0.8-0.9s0.8-0.3,1.2-0.3
		c0.4,0,0.8,0.1,1.2,0.3s0.6,0.5,0.8,0.8v-1.1h0.8V99.5z M97.2,99c0.3-0.2,0.5-0.4,0.6-0.7s0.2-0.6,0.2-1c0-0.4-0.1-0.7-0.2-1
		s-0.4-0.5-0.6-0.7s-0.6-0.2-0.9-0.2c-0.3,0-0.7,0.1-0.9,0.2s-0.5,0.4-0.6,0.7s-0.2,0.6-0.2,1c0,0.4,0.1,0.7,0.2,1s0.4,0.5,0.6,0.7
		s0.6,0.2,0.9,0.2C96.6,99.2,96.9,99.1,97.2,99z"/>
	<path d="M104.9,95.3c0.4,0.4,0.5,0.9,0.5,1.5v3.3h-0.8v-3c0-0.5-0.1-0.8-0.4-1.1s-0.6-0.4-1.1-0.4c-0.5,0-0.9,0.2-1.2,0.5
		s-0.5,0.7-0.5,1.2v2.8h-0.8v-5.3h0.8V96c0.4-0.8,1-1.2,2-1.2C104,94.8,104.5,95,104.9,95.3z"/>
	<path d="M110.6,92.9c0.1,0.1,0.1,0.2,0.1,0.4s0,0.3-0.1,0.4s-0.2,0.2-0.4,0.2s-0.3-0.1-0.4-0.2s-0.1-0.2-0.1-0.4
		c0-0.2,0-0.3,0.1-0.4s0.2-0.2,0.4-0.2S110.5,92.8,110.6,92.9z M109.9,100.1v-5.3h0.8v5.3H109.9z"/>
	<path d="M120.7,95.3c0.3,0.4,0.5,0.9,0.5,1.5v3.3h-0.8v-3c0-0.5-0.1-0.8-0.4-1.1s-0.6-0.4-1.1-0.4c-0.5,0-1,0.2-1.3,0.5
		s-0.5,0.8-0.5,1.4v2.6h-0.8v-3c0-0.5-0.1-0.8-0.4-1.1s-0.6-0.4-1.1-0.4c-0.5,0-1,0.2-1.3,0.5s-0.5,0.8-0.5,1.4v2.6h-0.8v-5.3h0.8
		V96c0.2-0.4,0.4-0.7,0.8-0.9s0.8-0.3,1.2-0.3c0.5,0,0.9,0.1,1.2,0.4s0.5,0.6,0.7,1c0.2-0.5,0.4-0.8,0.8-1s0.8-0.3,1.3-0.3
		C119.9,94.8,120.4,95,120.7,95.3z"/>
	<path d="M127.1,95.1c0.4,0.2,0.7,0.5,0.9,0.9c0.2,0.4,0.3,0.9,0.3,1.4c0,0.5-0.1,1-0.3,1.4c-0.2,0.4-0.5,0.7-0.9,0.9
		c-0.4,0.2-0.8,0.3-1.3,0.3c-0.5,0-0.9-0.1-1.2-0.3c-0.4-0.2-0.6-0.5-0.8-0.9v3.1H123v-7.2h0.8V96c0.2-0.4,0.5-0.7,0.8-0.9
		c0.3-0.2,0.8-0.3,1.2-0.3C126.3,94.8,126.8,94.9,127.1,95.1z M126.7,99.2c0.3-0.2,0.5-0.4,0.7-0.7c0.2-0.3,0.2-0.6,0.2-1
		s-0.1-0.7-0.2-1c-0.2-0.3-0.4-0.5-0.7-0.7s-0.6-0.3-1-0.3c-0.4,0-0.7,0.1-1,0.2s-0.5,0.4-0.7,0.7s-0.2,0.6-0.2,1
		c0,0.4,0.1,0.7,0.2,1s0.4,0.5,0.7,0.7s0.6,0.3,1,0.3C126,99.4,126.4,99.3,126.7,99.2z"/>
	<path d="M129.8,100.1v-7.4h0.8v7.4H129.8z"/>
	<path d="M136.5,95.6c0.4,0.5,0.6,1.3,0.6,2.2h-4.3c0.1,0.5,0.3,0.9,0.6,1.2c0.3,0.3,0.8,0.5,1.3,0.5c0.3,0,0.6-0.1,0.9-0.2
		s0.5-0.3,0.7-0.5l0.4,0.5c-0.3,0.3-0.6,0.5-0.9,0.6c-0.4,0.2-0.8,0.2-1.2,0.2c-0.5,0-1-0.1-1.4-0.3s-0.7-0.5-0.9-0.9
		c-0.2-0.4-0.3-0.9-0.3-1.4s0.1-1,0.3-1.4c0.2-0.4,0.5-0.7,0.9-0.9s0.9-0.3,1.4-0.3C135.4,94.8,136.1,95.1,136.5,95.6z M135.8,95.9
		c-0.3-0.3-0.7-0.4-1.2-0.4c-0.5,0-0.9,0.1-1.3,0.4c-0.3,0.3-0.5,0.7-0.6,1.2h3.6C136.3,96.6,136.1,96.2,135.8,95.9z"/>
	<path d="M146.6,95.3c0.3,0.4,0.5,0.9,0.5,1.5v3.3h-0.8v-3c0-0.5-0.1-0.8-0.4-1.1s-0.6-0.4-1.1-0.4c-0.5,0-1,0.2-1.3,0.5
		c-0.3,0.4-0.5,0.8-0.5,1.4v2.6h-0.8v-3c0-0.5-0.1-0.8-0.4-1.1s-0.6-0.4-1.1-0.4c-0.5,0-1,0.2-1.3,0.5c-0.3,0.4-0.5,0.8-0.5,1.4v2.6
		h-0.8v-5.3h0.8V96c0.2-0.4,0.4-0.7,0.8-0.9c0.3-0.2,0.8-0.3,1.2-0.3c0.5,0,0.9,0.1,1.2,0.4s0.5,0.6,0.7,1c0.2-0.5,0.4-0.8,0.8-1
		c0.4-0.2,0.8-0.3,1.3-0.3C145.7,94.8,146.2,95,146.6,95.3z"/>
	<path d="M152.8,95.6c0.4,0.5,0.6,1.3,0.6,2.2h-4.3c0.1,0.5,0.3,0.9,0.6,1.2c0.3,0.3,0.8,0.5,1.3,0.5c0.3,0,0.6-0.1,0.9-0.2
		s0.5-0.3,0.7-0.5l0.4,0.5c-0.3,0.3-0.6,0.5-0.9,0.6c-0.4,0.2-0.8,0.2-1.2,0.2c-0.5,0-1-0.1-1.4-0.3s-0.7-0.5-0.9-0.9
		c-0.2-0.4-0.3-0.9-0.3-1.4s0.1-1,0.3-1.4c0.2-0.4,0.5-0.7,0.9-0.9s0.9-0.3,1.4-0.3C151.8,94.8,152.4,95.1,152.8,95.6z M152.1,95.9
		c-0.3-0.3-0.7-0.4-1.2-0.4c-0.5,0-0.9,0.1-1.3,0.4c-0.3,0.3-0.5,0.7-0.6,1.2h3.6C152.6,96.6,152.5,96.2,152.1,95.9z"/>
	<path d="M159,95.3c0.4,0.4,0.5,0.9,0.5,1.5v3.3h-0.8v-3c0-0.5-0.1-0.8-0.4-1.1s-0.6-0.4-1.1-0.4c-0.5,0-0.9,0.2-1.2,0.5
		s-0.5,0.7-0.5,1.2v2.8h-0.8v-5.3h0.8V96c0.4-0.8,1-1.2,2-1.2C158.1,94.8,158.6,95,159,95.3z"/>
	<path d="M162.8,100.1c-0.4,0-0.7-0.1-1-0.4s-0.4-0.6-0.4-1.1v-3h-0.8V95h0.8v-1.4h0.8V95l1.7,0v0.6h-1.7v2.9c0,0.3,0.1,0.5,0.2,0.7
		s0.3,0.2,0.5,0.2c0.3,0,0.6-0.1,0.8-0.3l0.2,0.6C163.6,100,163.2,100.1,162.8,100.1z"/>
	<path d="M168.4,99.3c-0.4,0.6-1.1,0.8-1.9,0.8c-0.4,0-0.7-0.1-0.9-0.2c-0.3-0.1-0.5-0.3-0.6-0.6c-0.1-0.2-0.2-0.5-0.2-0.8
		c0-0.5,0.2-0.8,0.5-1.1c0.3-0.3,0.8-0.4,1.5-0.4h1.7v-0.3c0-0.4-0.1-0.7-0.4-0.9c-0.2-0.2-0.6-0.3-1.1-0.3c-0.5,0-1.1,0.2-1.7,0.6
		l-0.3-0.6c0.4-0.2,0.7-0.4,1-0.5s0.7-0.2,1.1-0.2c0.6,0,1.1,0.2,1.5,0.5c0.4,0.3,0.5,0.8,0.5,1.3l0,3.5h-0.8V99.3z M167.8,99.1
		c0.3-0.2,0.5-0.5,0.6-0.9v-0.6h-1.6c-0.9,0-1.3,0.3-1.3,0.8c0,0.3,0.1,0.5,0.3,0.7c0.2,0.2,0.5,0.3,0.9,0.3
		C167.1,99.5,167.5,99.4,167.8,99.1z"/>
	<path d="M172.5,100.1c-0.4,0-0.7-0.1-1-0.4s-0.4-0.6-0.4-1.1v-3h-0.8V95h0.8v-1.4h0.8V95l1.7,0v0.6h-1.7v2.9c0,0.3,0.1,0.5,0.2,0.7
		s0.3,0.2,0.5,0.2c0.3,0,0.6-0.1,0.8-0.3l0.2,0.6C173.3,100,172.9,100.1,172.5,100.1z"/>
	<path d="M175.6,92.9c0.1,0.1,0.1,0.2,0.1,0.4s0,0.3-0.1,0.4s-0.2,0.2-0.4,0.2s-0.3-0.1-0.4-0.2c-0.1-0.1-0.1-0.2-0.1-0.4
		c0-0.2,0-0.3,0.1-0.4c0.1-0.1,0.2-0.2,0.4-0.2S175.5,92.8,175.6,92.9z M174.8,100.1v-5.3h0.8v5.3H174.8z"/>
	<path d="M181,95.1c0.4,0.2,0.7,0.5,0.9,0.9s0.3,0.9,0.3,1.4c0,0.5-0.1,1-0.3,1.4s-0.5,0.7-0.9,0.9c-0.4,0.2-0.9,0.3-1.4,0.3
		s-1-0.1-1.4-0.3s-0.7-0.5-0.9-0.9c-0.2-0.4-0.3-0.9-0.3-1.4c0-0.5,0.1-1,0.3-1.4c0.2-0.4,0.5-0.7,0.9-0.9s0.9-0.3,1.4-0.3
		S180.6,94.9,181,95.1z M178.6,95.8c-0.3,0.2-0.5,0.4-0.7,0.7s-0.2,0.6-0.2,1c0,0.4,0.1,0.7,0.2,1s0.4,0.5,0.7,0.7s0.6,0.3,1,0.3
		s0.7-0.1,1-0.3s0.5-0.4,0.7-0.7s0.2-0.6,0.2-1s-0.1-0.7-0.2-1s-0.4-0.5-0.7-0.7c-0.3-0.2-0.6-0.2-1-0.2
		C179.3,95.5,178.9,95.6,178.6,95.8z"/>
	<path d="M188,95.3c0.4,0.4,0.5,0.9,0.5,1.5v3.3h-0.8v-3c0-0.5-0.1-0.8-0.4-1.1s-0.6-0.4-1.1-0.4c-0.5,0-0.9,0.2-1.2,0.5
		s-0.5,0.7-0.5,1.2v2.8h-0.8v-5.3h0.8V96c0.4-0.8,1-1.2,2-1.2C187.1,94.8,187.6,95,188,95.3z"/>
</g>
<g>
	<path fill="#0A0A0A" d="M587.3,71.3v1.1h-5.4v-9.8h1.1v8.7H587.3z"/>
	<path fill="#0A0A0A" d="M594.5,66.1c0.6,0.7,0.9,1.8,0.8,3h-6c0.1,0.7,0.4,1.3,0.9,1.7s1.1,0.6,1.8,0.6c0.5,0,0.9-0.1,1.3-0.2
		c0.4-0.2,0.7-0.4,1-0.7l0.6,0.6c-0.4,0.4-0.8,0.7-1.3,0.9c-0.5,0.2-1.1,0.3-1.7,0.3c-0.7,0-1.4-0.2-1.9-0.5c-0.6-0.3-1-0.8-1.3-1.3
		s-0.5-1.2-0.5-1.9s0.2-1.4,0.5-1.9c0.3-0.6,0.7-1,1.3-1.3s1.2-0.5,1.9-0.5C593.1,65,593.9,65.4,594.5,66.1z M593.6,66.6
		c-0.4-0.4-1-0.6-1.7-0.6c-0.7,0-1.3,0.2-1.8,0.6c-0.5,0.4-0.7,1-0.8,1.7h5C594.3,67.5,594.1,67,593.6,66.6z"/>
	<path fill="#0A0A0A" d="M601.8,71.3c-0.6,0.8-1.5,1.2-2.7,1.2c-0.5,0-0.9-0.1-1.3-0.3c-0.4-0.2-0.7-0.5-0.9-0.8
		c-0.2-0.3-0.3-0.7-0.3-1.2c0-0.6,0.2-1.2,0.7-1.5s1.2-0.6,2-0.6h2.4v-0.4c0-0.6-0.2-1-0.5-1.3s-0.8-0.4-1.5-0.4
		c-0.7,0-1.5,0.3-2.3,0.8L597,66c0.5-0.3,1-0.6,1.4-0.8c0.4-0.2,1-0.2,1.6-0.2c0.9,0,1.6,0.2,2.1,0.7c0.5,0.4,0.7,1.1,0.7,1.9l0,4.9
		h-1.1V71.3z M600.9,71.1c0.4-0.3,0.7-0.7,0.9-1.2V69h-2.3c-1.2,0-1.9,0.4-1.9,1.2c0,0.4,0.2,0.7,0.5,1s0.7,0.4,1.2,0.4
		C599.9,71.5,600.4,71.4,600.9,71.1z"/>
	<path fill="#0A0A0A" d="M612,72.4H611v-1.6c-0.3,0.5-0.7,0.9-1.2,1.2c-0.5,0.3-1.1,0.4-1.7,0.4c-0.7,0-1.3-0.2-1.8-0.5
		s-1-0.8-1.3-1.3c-0.3-0.6-0.4-1.2-0.4-1.9s0.1-1.4,0.4-1.9c0.3-0.6,0.7-1,1.3-1.3c0.5-0.3,1.2-0.5,1.8-0.5c0.7,0,1.2,0.1,1.7,0.4
		c0.5,0.3,0.9,0.7,1.2,1.2V62h1.1V72.4z M609.7,71.1c0.4-0.2,0.7-0.6,0.9-1c0.2-0.4,0.3-0.9,0.3-1.4c0-0.5-0.1-1-0.3-1.4
		c-0.2-0.4-0.5-0.7-0.9-1c-0.4-0.2-0.9-0.4-1.4-0.4c-0.5,0-1,0.1-1.4,0.4c-0.4,0.2-0.7,0.6-1,1c-0.2,0.4-0.3,0.9-0.3,1.4
		c0,0.5,0.1,1,0.3,1.4c0.2,0.4,0.5,0.7,1,1c0.4,0.2,0.9,0.4,1.4,0.4C608.8,71.5,609.3,71.4,609.7,71.1z"/>
	<path fill="#0A0A0A" d="M618,65.2c0.4,0.1,0.8,0.3,1.1,0.5l-0.4,0.9c-0.3-0.2-0.6-0.3-1-0.4s-0.7-0.2-1-0.2c-0.4,0-0.8,0.1-1.1,0.2
		s-0.4,0.4-0.4,0.7c0,0.2,0.1,0.4,0.2,0.6s0.3,0.3,0.6,0.4s0.5,0.2,0.9,0.3c0.5,0.2,0.9,0.3,1.3,0.5s0.6,0.4,0.8,0.7
		c0.2,0.3,0.3,0.7,0.3,1.1c0,0.7-0.3,1.2-0.8,1.6c-0.5,0.4-1.2,0.5-1.9,0.5c-0.5,0-1.1-0.1-1.6-0.3c-0.5-0.2-0.9-0.4-1.3-0.8
		l0.4-0.8c0.3,0.3,0.7,0.5,1.1,0.7c0.4,0.2,0.9,0.3,1.3,0.3c0.5,0,0.8-0.1,1.1-0.3s0.4-0.5,0.4-0.8s-0.1-0.6-0.4-0.8
		c-0.3-0.2-0.7-0.3-1.3-0.5c-0.5-0.2-0.9-0.3-1.2-0.4c-0.3-0.1-0.6-0.3-0.8-0.6c-0.2-0.3-0.3-0.6-0.3-1.1c0-0.7,0.2-1.2,0.7-1.5
		s1.1-0.5,1.8-0.5C617.2,65,617.6,65,618,65.2z"/>
	<path fill="#0A0A0A" d="M629.5,65.3c0.5,0.2,0.9,0.5,1.2,0.8l-0.6,0.8c-0.6-0.6-1.3-0.9-2.2-0.9c-0.5,0-1,0.1-1.4,0.3
		s-0.7,0.5-0.9,1c-0.2,0.4-0.3,0.9-0.3,1.4c0,0.5,0.1,1,0.3,1.4c0.2,0.4,0.5,0.7,0.9,1s0.8,0.4,1.4,0.4c0.5,0,0.9-0.1,1.3-0.2
		c0.4-0.2,0.7-0.4,1-0.7l0.6,0.7c-0.3,0.4-0.8,0.7-1.3,0.9c-0.5,0.2-1.1,0.3-1.7,0.3c-0.7,0-1.3-0.2-1.9-0.5c-0.6-0.3-1-0.8-1.3-1.3
		c-0.3-0.6-0.5-1.2-0.5-1.9s0.2-1.4,0.5-1.9c0.3-0.6,0.8-1,1.3-1.3c0.6-0.3,1.2-0.5,1.9-0.5C628.5,65,629,65.1,629.5,65.3z"/>
	<path fill="#0A0A0A" d="M637.4,65.5c0.6,0.3,1,0.8,1.3,1.3c0.3,0.6,0.5,1.2,0.5,1.9c0,0.7-0.2,1.4-0.5,1.9c-0.3,0.6-0.8,1-1.3,1.3
		s-1.2,0.5-1.9,0.5c-0.7,0-1.4-0.2-1.9-0.5c-0.6-0.3-1-0.8-1.3-1.3c-0.3-0.6-0.5-1.2-0.5-1.9c0-0.7,0.2-1.4,0.5-1.9
		c0.3-0.6,0.8-1,1.3-1.3c0.6-0.3,1.2-0.5,1.9-0.5C636.2,65,636.8,65.2,637.4,65.5z M634.1,66.3c-0.4,0.2-0.7,0.6-0.9,1
		c-0.2,0.4-0.3,0.9-0.3,1.4c0,0.5,0.1,1,0.3,1.4c0.2,0.4,0.5,0.7,0.9,1c0.4,0.2,0.9,0.4,1.4,0.4s1-0.1,1.4-0.4
		c0.4-0.2,0.7-0.6,0.9-1c0.2-0.4,0.3-0.9,0.3-1.4s-0.1-1-0.3-1.4c-0.2-0.4-0.5-0.7-0.9-1c-0.4-0.2-0.9-0.3-1.4-0.3
		C634.9,66,634.5,66.1,634.1,66.3z"/>
	<path fill="#0A0A0A" d="M647.1,65.7c0.5,0.5,0.7,1.2,0.7,2.1v4.6h-1.1v-4.3c0-0.7-0.2-1.2-0.6-1.5s-0.9-0.5-1.5-0.5
		c-0.7,0-1.3,0.2-1.7,0.7c-0.4,0.4-0.7,1-0.8,1.7v4h-1.1V65h1.1v1.6c0.5-1.1,1.5-1.6,2.9-1.7C645.9,65,646.6,65.2,647.1,65.7z"/>
	<path fill="#0A0A0A" d="M651.6,72.4l-2.9-7.4h1.2l2.4,6.2l2.3-6.2h1.1l-2.9,7.4H651.6z"/>
	<path fill="#0A0A0A" d="M662.2,66.1c0.6,0.7,0.9,1.8,0.8,3h-6c0.1,0.7,0.4,1.3,0.9,1.7s1.1,0.6,1.8,0.6c0.5,0,0.9-0.1,1.3-0.2
		c0.4-0.2,0.7-0.4,1-0.7l0.6,0.6c-0.4,0.4-0.8,0.7-1.3,0.9c-0.5,0.2-1.1,0.3-1.7,0.3c-0.7,0-1.4-0.2-1.9-0.5c-0.6-0.3-1-0.8-1.3-1.3
		s-0.5-1.2-0.5-1.9s0.2-1.4,0.5-1.9c0.3-0.6,0.7-1,1.3-1.3s1.2-0.5,1.9-0.5C660.8,65,661.7,65.4,662.2,66.1z M661.3,66.6
		c-0.4-0.4-1-0.6-1.7-0.6c-0.7,0-1.3,0.2-1.8,0.6c-0.5,0.4-0.7,1-0.8,1.7h5C662,67.5,661.8,67,661.3,66.6z"/>
	<path fill="#0A0A0A" d="M667,65.4c0.4-0.3,1-0.4,1.6-0.4v1.1c-0.8,0-1.4,0.2-1.8,0.6s-0.7,1-0.8,1.8v3.9h-1.1V65h1.1v1.6
		C666.3,66.1,666.6,65.7,667,65.4z"/>
	<path fill="#0A0A0A" d="M673.4,65.2c0.4,0.1,0.8,0.3,1.1,0.5l-0.4,0.9c-0.3-0.2-0.6-0.3-1-0.4s-0.7-0.2-1-0.2
		c-0.4,0-0.8,0.1-1.1,0.2s-0.4,0.4-0.4,0.7c0,0.2,0.1,0.4,0.2,0.6s0.3,0.3,0.6,0.4s0.5,0.2,0.9,0.3c0.5,0.2,0.9,0.3,1.3,0.5
		s0.6,0.4,0.8,0.7c0.2,0.3,0.3,0.7,0.3,1.1c0,0.7-0.3,1.2-0.8,1.6c-0.5,0.4-1.2,0.5-1.9,0.5c-0.5,0-1.1-0.1-1.6-0.3
		c-0.5-0.2-0.9-0.4-1.3-0.8l0.4-0.8c0.3,0.3,0.7,0.5,1.1,0.7c0.4,0.2,0.9,0.3,1.3,0.3c0.5,0,0.8-0.1,1.1-0.3s0.4-0.5,0.4-0.8
		s-0.1-0.6-0.4-0.8c-0.3-0.2-0.7-0.3-1.3-0.5c-0.5-0.2-0.9-0.3-1.2-0.4c-0.3-0.1-0.6-0.3-0.8-0.6c-0.2-0.3-0.3-0.6-0.3-1.1
		c0-0.7,0.2-1.2,0.7-1.5s1.1-0.5,1.8-0.5C672.5,65,672.9,65,673.4,65.2z"/>
	<path fill="#0A0A0A" d="M677.5,62.4c0.1,0.1,0.2,0.3,0.2,0.5s-0.1,0.4-0.2,0.5s-0.3,0.2-0.5,0.2s-0.4-0.1-0.5-0.2
		c-0.1-0.1-0.2-0.3-0.2-0.5c0-0.2,0.1-0.4,0.2-0.5c0.1-0.1,0.3-0.2,0.5-0.2S677.4,62.2,677.5,62.4z M676.5,72.4V65h1.1v7.4H676.5z"
		/>
	<path fill="#0A0A0A" d="M685.1,65.5c0.6,0.3,1,0.8,1.3,1.3c0.3,0.6,0.5,1.2,0.5,1.9c0,0.7-0.2,1.4-0.5,1.9c-0.3,0.6-0.8,1-1.3,1.3
		s-1.2,0.5-1.9,0.5c-0.7,0-1.4-0.2-1.9-0.5c-0.6-0.3-1-0.8-1.3-1.3c-0.3-0.6-0.5-1.2-0.5-1.9c0-0.7,0.2-1.4,0.5-1.9
		c0.3-0.6,0.8-1,1.3-1.3c0.6-0.3,1.2-0.5,1.9-0.5C683.9,65,684.5,65.2,685.1,65.5z M681.8,66.3c-0.4,0.2-0.7,0.6-0.9,1
		c-0.2,0.4-0.3,0.9-0.3,1.4c0,0.5,0.1,1,0.3,1.4c0.2,0.4,0.5,0.7,0.9,1c0.4,0.2,0.9,0.4,1.4,0.4s1-0.1,1.4-0.4
		c0.4-0.2,0.7-0.6,0.9-1c0.2-0.4,0.3-0.9,0.3-1.4s-0.1-1-0.3-1.4c-0.2-0.4-0.5-0.7-0.9-1c-0.4-0.2-0.9-0.3-1.4-0.3
		C682.7,66,682.2,66.1,681.8,66.3z"/>
	<path fill="#0A0A0A" d="M694.8,65.7c0.5,0.5,0.7,1.2,0.7,2.1v4.6h-1.1v-4.3c0-0.7-0.2-1.2-0.6-1.5s-0.9-0.5-1.5-0.5
		c-0.7,0-1.3,0.2-1.7,0.7c-0.4,0.4-0.7,1-0.8,1.7v4h-1.1V65h1.1v1.6c0.5-1.1,1.5-1.6,2.9-1.7C693.7,65,694.3,65.2,694.8,65.7z"/>
	<path fill="#0A0A0A" d="M582.1,82.6l-0.8,1.8h-0.8l3.1-7h0.8l3.1,7h-0.9l-0.8-1.8H582.1z M584,78.3l-1.6,3.5h3.1L584,78.3z"/>
	<path fill="#0A0A0A" d="M589.5,84.4l-2.1-5.3h0.8l1.7,4.5l1.7-4.5h0.8l-2.1,5.3H589.5z"/>
	<path fill="#0A0A0A" d="M597.1,79.9c0.4,0.5,0.6,1.3,0.6,2.2h-4.3c0.1,0.5,0.3,0.9,0.6,1.2s0.8,0.5,1.3,0.5c0.3,0,0.6-0.1,0.9-0.2
		c0.3-0.1,0.5-0.3,0.7-0.5l0.4,0.5c-0.3,0.3-0.6,0.5-0.9,0.6c-0.4,0.2-0.8,0.2-1.2,0.2c-0.5,0-1-0.1-1.4-0.3
		c-0.4-0.2-0.7-0.5-0.9-0.9s-0.3-0.9-0.3-1.4s0.1-1,0.3-1.4c0.2-0.4,0.5-0.7,0.9-0.9s0.9-0.3,1.4-0.3
		C596.1,79.1,596.7,79.4,597.1,79.9z M596.5,80.2c-0.3-0.3-0.7-0.4-1.2-0.4c-0.5,0-0.9,0.1-1.3,0.4c-0.3,0.3-0.5,0.7-0.6,1.2h3.6
		C597,80.9,596.8,80.5,596.5,80.2z"/>
	<path fill="#0A0A0A" d="M600.5,79.4c0.3-0.2,0.7-0.3,1.1-0.3v0.8c-0.5,0-1,0.1-1.3,0.5s-0.5,0.7-0.6,1.3v2.8H599v-5.3h0.8v1.2
		C600,79.9,600.2,79.6,600.5,79.4z"/>
	<path fill="#0A0A0A" d="M605.8,83.6c-0.4,0.6-1.1,0.8-1.9,0.8c-0.4,0-0.7-0.1-0.9-0.2c-0.3-0.1-0.5-0.3-0.6-0.6
		c-0.1-0.2-0.2-0.5-0.2-0.8c0-0.5,0.2-0.8,0.5-1.1s0.8-0.4,1.5-0.4h1.7V81c0-0.4-0.1-0.7-0.4-0.9s-0.6-0.3-1.1-0.3
		c-0.5,0-1.1,0.2-1.7,0.6l-0.3-0.6c0.4-0.2,0.7-0.4,1-0.5c0.3-0.1,0.7-0.2,1.1-0.2c0.6,0,1.1,0.2,1.5,0.5c0.4,0.3,0.5,0.8,0.5,1.3
		l0,3.5h-0.8V83.6z M605.1,83.4c0.3-0.2,0.5-0.5,0.6-0.9v-0.6h-1.6c-0.9,0-1.3,0.3-1.3,0.8c0,0.3,0.1,0.5,0.3,0.7s0.5,0.3,0.9,0.3
		C604.4,83.8,604.8,83.7,605.1,83.4z"/>
	<path fill="#0A0A0A" d="M612.8,83.8c0,0.5-0.1,1-0.3,1.3c-0.2,0.4-0.5,0.7-0.9,0.9c-0.4,0.2-0.9,0.3-1.4,0.3
		c-0.8,0-1.5-0.3-2.2-0.8l0.4-0.6c0.3,0.2,0.5,0.4,0.8,0.5c0.3,0.1,0.6,0.2,0.9,0.2c0.6,0,1-0.2,1.4-0.5s0.5-0.8,0.5-1.3v-0.8
		c-0.2,0.4-0.4,0.6-0.8,0.8c-0.3,0.2-0.7,0.3-1.2,0.3c-0.5,0-0.9-0.1-1.2-0.3c-0.4-0.2-0.6-0.5-0.9-0.9c-0.2-0.4-0.3-0.8-0.3-1.3
		c0-0.5,0.1-0.9,0.3-1.3s0.5-0.7,0.8-0.9c0.4-0.2,0.8-0.3,1.2-0.3c0.4,0,0.8,0.1,1.2,0.3c0.3,0.2,0.6,0.5,0.8,0.8v-1.1h0.8V83.8z
		 M611.2,83.3c0.3-0.2,0.5-0.4,0.6-0.7c0.2-0.3,0.2-0.6,0.2-1c0-0.4-0.1-0.7-0.2-1c-0.2-0.3-0.4-0.5-0.6-0.7s-0.6-0.2-0.9-0.2
		c-0.3,0-0.7,0.1-0.9,0.2s-0.5,0.4-0.6,0.7s-0.2,0.6-0.2,1c0,0.4,0.1,0.7,0.2,1s0.4,0.5,0.6,0.7s0.6,0.2,0.9,0.2
		C610.6,83.5,610.9,83.4,611.2,83.3z"/>
	<path fill="#0A0A0A" d="M618.6,79.9c0.4,0.5,0.6,1.3,0.6,2.2h-4.3c0.1,0.5,0.3,0.9,0.6,1.2s0.8,0.5,1.3,0.5c0.3,0,0.6-0.1,0.9-0.2
		c0.3-0.1,0.5-0.3,0.7-0.5l0.4,0.5c-0.3,0.3-0.6,0.5-0.9,0.6c-0.4,0.2-0.8,0.2-1.2,0.2c-0.5,0-1-0.1-1.4-0.3
		c-0.4-0.2-0.7-0.5-0.9-0.9s-0.3-0.9-0.3-1.4s0.1-1,0.3-1.4c0.2-0.4,0.5-0.7,0.9-0.9s0.9-0.3,1.4-0.3
		C617.5,79.1,618.2,79.4,618.6,79.9z M617.9,80.2c-0.3-0.3-0.7-0.4-1.2-0.4c-0.5,0-0.9,0.1-1.3,0.4c-0.3,0.3-0.5,0.7-0.6,1.2h3.6
		C618.4,80.9,618.3,80.5,617.9,80.2z"/>
	<path fill="#0A0A0A" d="M620.9,83.6c0.1,0.1,0.1,0.2,0.1,0.4c0,0.1-0.1,0.3-0.2,0.4l-0.5,0.7H620l0.3-0.7c-0.1-0.1-0.2-0.2-0.2-0.4
		c0-0.1,0-0.3,0.1-0.4c0.1-0.1,0.2-0.1,0.3-0.1C620.7,83.5,620.8,83.5,620.9,83.6z"/>
	<path fill="#0A0A0A" d="M628.5,83.6c-0.4,0.6-1.1,0.8-1.9,0.8c-0.4,0-0.7-0.1-0.9-0.2c-0.3-0.1-0.5-0.3-0.6-0.6
		c-0.1-0.2-0.2-0.5-0.2-0.8c0-0.5,0.2-0.8,0.5-1.1s0.8-0.4,1.5-0.4h1.7V81c0-0.4-0.1-0.7-0.4-0.9s-0.6-0.3-1.1-0.3
		c-0.5,0-1.1,0.2-1.7,0.6l-0.3-0.6c0.4-0.2,0.7-0.4,1-0.5c0.3-0.1,0.7-0.2,1.1-0.2c0.6,0,1.1,0.2,1.5,0.5c0.4,0.3,0.5,0.8,0.5,1.3
		l0,3.5h-0.8V83.6z M627.8,83.4c0.3-0.2,0.5-0.5,0.6-0.9v-0.6h-1.6c-0.9,0-1.3,0.3-1.3,0.8c0,0.3,0.1,0.5,0.3,0.7s0.5,0.3,0.9,0.3
		C627.1,83.8,627.5,83.7,627.8,83.4z"/>
	<path fill="#0A0A0A" d="M632.2,77.9c-0.2,0.2-0.3,0.4-0.3,0.7v0.7h1.5v0.6h-1.5v4.5h-0.8v-4.5h-0.7v-0.6h0.7v-0.6
		c0-0.4,0.1-0.7,0.2-1c0.2-0.3,0.4-0.5,0.6-0.6c0.3-0.1,0.5-0.2,0.8-0.2c0.4,0,0.8,0.1,1.1,0.4l-0.3,0.6c-0.3-0.2-0.5-0.3-0.8-0.3
		C632.6,77.7,632.3,77.8,632.2,77.9z"/>
	<path fill="#0A0A0A" d="M635.8,84.4c-0.4,0-0.7-0.1-1-0.4s-0.4-0.6-0.4-1.1v-3h-0.8v-0.6h0.8v-1.4h0.8v1.4l1.7,0v0.6h-1.7v2.9
		c0,0.3,0.1,0.5,0.2,0.7s0.3,0.2,0.5,0.2c0.3,0,0.6-0.1,0.8-0.3L637,84C636.6,84.3,636.2,84.4,635.8,84.4z"/>
	<path fill="#0A0A0A" d="M642.1,79.9c0.4,0.5,0.6,1.3,0.6,2.2h-4.3c0.1,0.5,0.3,0.9,0.6,1.2s0.8,0.5,1.3,0.5c0.3,0,0.6-0.1,0.9-0.2
		c0.3-0.1,0.5-0.3,0.7-0.5l0.4,0.5c-0.3,0.3-0.6,0.5-0.9,0.6c-0.4,0.2-0.8,0.2-1.2,0.2c-0.5,0-1-0.1-1.4-0.3
		c-0.4-0.2-0.7-0.5-0.9-0.9s-0.3-0.9-0.3-1.4s0.1-1,0.3-1.4c0.2-0.4,0.5-0.7,0.9-0.9s0.9-0.3,1.4-0.3
		C641,79.1,641.6,79.4,642.1,79.9z M641.4,80.2c-0.3-0.3-0.7-0.4-1.2-0.4c-0.5,0-0.9,0.1-1.3,0.4c-0.3,0.3-0.5,0.7-0.6,1.2h3.6
		C641.9,80.9,641.7,80.5,641.4,80.2z"/>
	<path fill="#0A0A0A" d="M645.5,79.4c0.3-0.2,0.7-0.3,1.1-0.3v0.8c-0.5,0-1,0.1-1.3,0.5s-0.5,0.7-0.6,1.3v2.8H644v-5.3h0.8v1.2
		C644.9,79.9,645.2,79.6,645.5,79.4z"/>
	<path fill="#0A0A0A" d="M655,83.8c0,0.5-0.1,1-0.3,1.3c-0.2,0.4-0.5,0.7-0.9,0.9c-0.4,0.2-0.9,0.3-1.4,0.3c-0.8,0-1.5-0.3-2.2-0.8
		l0.4-0.6c0.3,0.2,0.5,0.4,0.8,0.5c0.3,0.1,0.6,0.2,0.9,0.2c0.6,0,1-0.2,1.4-0.5s0.5-0.8,0.5-1.3v-0.8c-0.2,0.4-0.4,0.6-0.8,0.8
		c-0.3,0.2-0.7,0.3-1.2,0.3c-0.5,0-0.9-0.1-1.2-0.3c-0.4-0.2-0.6-0.5-0.9-0.9c-0.2-0.4-0.3-0.8-0.3-1.3c0-0.5,0.1-0.9,0.3-1.3
		s0.5-0.7,0.8-0.9c0.4-0.2,0.8-0.3,1.2-0.3c0.4,0,0.8,0.1,1.2,0.3c0.3,0.2,0.6,0.5,0.8,0.8v-1.1h0.8V83.8z M653.4,83.3
		c0.3-0.2,0.5-0.4,0.6-0.7c0.2-0.3,0.2-0.6,0.2-1c0-0.4-0.1-0.7-0.2-1c-0.2-0.3-0.4-0.5-0.6-0.7s-0.6-0.2-0.9-0.2
		c-0.3,0-0.7,0.1-0.9,0.2s-0.5,0.4-0.6,0.7s-0.2,0.6-0.2,1c0,0.4,0.1,0.7,0.2,1s0.4,0.5,0.6,0.7s0.6,0.2,0.9,0.2
		C652.8,83.5,653.1,83.4,653.4,83.3z"/>
	<path fill="#0A0A0A" d="M658.3,79.4c0.3-0.2,0.7-0.3,1.1-0.3v0.8c-0.5,0-1,0.1-1.3,0.5s-0.5,0.7-0.6,1.3v2.8h-0.8v-5.3h0.8v1.2
		C657.7,79.9,658,79.6,658.3,79.4z"/>
	<path fill="#0A0A0A" d="M664,79.4c0.4,0.2,0.7,0.5,1,0.9c0.2,0.4,0.3,0.9,0.3,1.4c0,0.5-0.1,1-0.3,1.4c-0.2,0.4-0.5,0.7-1,0.9
		s-0.9,0.3-1.4,0.3c-0.5,0-1-0.1-1.4-0.3c-0.4-0.2-0.7-0.5-1-0.9c-0.2-0.4-0.3-0.9-0.3-1.4c0-0.5,0.1-1,0.3-1.4
		c0.2-0.4,0.5-0.7,1-0.9c0.4-0.2,0.9-0.3,1.4-0.3C663.1,79.1,663.6,79.2,664,79.4z M661.7,80.1c-0.3,0.2-0.5,0.4-0.7,0.7
		c-0.2,0.3-0.2,0.6-0.2,1c0,0.4,0.1,0.7,0.2,1c0.2,0.3,0.4,0.5,0.7,0.7c0.3,0.2,0.6,0.3,1,0.3s0.7-0.1,1-0.3
		c0.3-0.2,0.5-0.4,0.7-0.7c0.2-0.3,0.2-0.6,0.2-1s-0.1-0.7-0.2-1c-0.2-0.3-0.4-0.5-0.7-0.7c-0.3-0.2-0.6-0.2-1-0.2
		C662.3,79.8,661.9,79.9,661.7,80.1z"/>
	<path fill="#0A0A0A" d="M671.5,84.4l-1.5-4.3l-1.5,4.3h-0.8l-2-5.3h0.8l1.6,4.5l1.5-4.5h0.8l1.5,4.5l1.5-4.5h0.8l-2,5.3H671.5z"/>
	<path fill="#0A0A0A" d="M676.7,84.4c-0.4,0-0.7-0.1-1-0.4s-0.4-0.6-0.4-1.1v-3h-0.8v-0.6h0.8v-1.4h0.8v1.4l1.7,0v0.6h-1.7v2.9
		c0,0.3,0.1,0.5,0.2,0.7s0.3,0.2,0.5,0.2c0.3,0,0.6-0.1,0.8-0.3l0.2,0.6C677.5,84.3,677.1,84.4,676.7,84.4z"/>
	<path fill="#0A0A0A" d="M683.4,79.6c0.4,0.4,0.5,0.9,0.5,1.5v3.3h-0.8v-3c0-0.5-0.1-0.8-0.4-1.1s-0.6-0.4-1.1-0.4
		c-0.6,0-1,0.2-1.3,0.5c-0.3,0.4-0.5,0.8-0.5,1.4v2.6h-0.8V77h0.8v3.3c0.3-0.8,1-1.2,2-1.2C682.5,79.1,683,79.3,683.4,79.6z"/>
	<path fill="#0A0A0A" d="M693.2,84.4h-0.8v-1.1c-0.2,0.4-0.5,0.7-0.8,0.9c-0.3,0.2-0.8,0.3-1.2,0.3c-0.5,0-0.9-0.1-1.3-0.3
		s-0.7-0.5-0.9-0.9c-0.2-0.4-0.3-0.9-0.3-1.4s0.1-1,0.3-1.4c0.2-0.4,0.5-0.7,0.9-0.9c0.4-0.2,0.8-0.3,1.3-0.3c0.5,0,0.9,0.1,1.2,0.3
		c0.4,0.2,0.6,0.5,0.8,0.9V77h0.8V84.4z M691.5,83.5c0.3-0.2,0.5-0.4,0.7-0.7c0.2-0.3,0.2-0.6,0.2-1c0-0.4-0.1-0.7-0.2-1
		c-0.2-0.3-0.4-0.5-0.7-0.7c-0.3-0.2-0.6-0.3-1-0.3c-0.4,0-0.7,0.1-1,0.3c-0.3,0.2-0.5,0.4-0.7,0.7c-0.2,0.3-0.2,0.6-0.2,1
		c0,0.4,0.1,0.7,0.2,1c0.2,0.3,0.4,0.5,0.7,0.7c0.3,0.2,0.6,0.3,1,0.3C690.9,83.7,691.2,83.7,691.5,83.5z"/>
	<path fill="#0A0A0A" d="M699.1,79.9c0.4,0.5,0.6,1.3,0.6,2.2h-4.3c0.1,0.5,0.3,0.9,0.6,1.2s0.8,0.5,1.3,0.5c0.3,0,0.6-0.1,0.9-0.2
		c0.3-0.1,0.5-0.3,0.7-0.5l0.4,0.5c-0.3,0.3-0.6,0.5-0.9,0.6c-0.4,0.2-0.8,0.2-1.2,0.2c-0.5,0-1-0.1-1.4-0.3
		c-0.4-0.2-0.7-0.5-0.9-0.9s-0.3-0.9-0.3-1.4s0.1-1,0.3-1.4c0.2-0.4,0.5-0.7,0.9-0.9s0.9-0.3,1.4-0.3
		C698.1,79.1,698.7,79.4,699.1,79.9z M698.5,80.2c-0.3-0.3-0.7-0.4-1.2-0.4c-0.5,0-0.9,0.1-1.3,0.4c-0.3,0.3-0.5,0.7-0.6,1.2h3.6
		C699,80.9,698.8,80.5,698.5,80.2z"/>
	<path fill="#0A0A0A" d="M703.4,79.2c0.3,0.1,0.5,0.2,0.8,0.4l-0.3,0.6c-0.2-0.1-0.4-0.2-0.7-0.3s-0.5-0.1-0.7-0.1
		c-0.3,0-0.6,0.1-0.8,0.2s-0.3,0.3-0.3,0.5c0,0.2,0.1,0.3,0.2,0.4s0.2,0.2,0.4,0.3s0.4,0.1,0.7,0.2c0.4,0.1,0.7,0.2,0.9,0.3
		s0.4,0.3,0.6,0.5c0.2,0.2,0.2,0.5,0.2,0.8c0,0.5-0.2,0.9-0.6,1.1c-0.4,0.3-0.8,0.4-1.4,0.4c-0.4,0-0.8-0.1-1.1-0.2
		c-0.4-0.1-0.7-0.3-0.9-0.5l0.3-0.6c0.2,0.2,0.5,0.4,0.8,0.5c0.3,0.1,0.6,0.2,0.9,0.2c0.3,0,0.6-0.1,0.8-0.2s0.3-0.3,0.3-0.6
		s-0.1-0.4-0.3-0.6c-0.2-0.1-0.5-0.2-0.9-0.4c-0.4-0.1-0.7-0.2-0.9-0.3c-0.2-0.1-0.4-0.2-0.6-0.4c-0.2-0.2-0.2-0.5-0.2-0.8
		c0-0.5,0.2-0.8,0.5-1.1s0.8-0.4,1.3-0.4C702.8,79.1,703.1,79.1,703.4,79.2z"/>
	<path fill="#0A0A0A" d="M706.3,77.2c0.1,0.1,0.1,0.2,0.1,0.4s0,0.3-0.1,0.4s-0.2,0.2-0.4,0.2s-0.3-0.1-0.4-0.2
		c-0.1-0.1-0.1-0.2-0.1-0.4c0-0.2,0-0.3,0.1-0.4c0.1-0.1,0.2-0.2,0.4-0.2S706.2,77.1,706.3,77.2z M705.6,84.4v-5.3h0.8v5.3H705.6z"
		/>
	<path fill="#0A0A0A" d="M712.8,83.8c0,0.5-0.1,1-0.3,1.3c-0.2,0.4-0.5,0.7-0.9,0.9c-0.4,0.2-0.9,0.3-1.4,0.3
		c-0.8,0-1.5-0.3-2.2-0.8l0.4-0.6c0.3,0.2,0.5,0.4,0.8,0.5c0.3,0.1,0.6,0.2,0.9,0.2c0.6,0,1-0.2,1.4-0.5s0.5-0.8,0.5-1.3v-0.8
		c-0.2,0.4-0.4,0.6-0.8,0.8c-0.3,0.2-0.7,0.3-1.2,0.3c-0.5,0-0.9-0.1-1.2-0.3c-0.4-0.2-0.6-0.5-0.9-0.9c-0.2-0.4-0.3-0.8-0.3-1.3
		c0-0.5,0.1-0.9,0.3-1.3s0.5-0.7,0.8-0.9c0.4-0.2,0.8-0.3,1.2-0.3c0.4,0,0.8,0.1,1.2,0.3c0.3,0.2,0.6,0.5,0.8,0.8v-1.1h0.8V83.8z
		 M711.2,83.3c0.3-0.2,0.5-0.4,0.6-0.7c0.2-0.3,0.2-0.6,0.2-1c0-0.4-0.1-0.7-0.2-1c-0.2-0.3-0.4-0.5-0.6-0.7s-0.6-0.2-0.9-0.2
		c-0.3,0-0.7,0.1-0.9,0.2s-0.5,0.4-0.6,0.7s-0.2,0.6-0.2,1c0,0.4,0.1,0.7,0.2,1s0.4,0.5,0.6,0.7s0.6,0.2,0.9,0.2
		C710.6,83.5,710.9,83.4,711.2,83.3z"/>
	<path fill="#0A0A0A" d="M718.9,79.6c0.4,0.4,0.5,0.9,0.5,1.5v3.3h-0.8v-3c0-0.5-0.1-0.8-0.4-1.1s-0.6-0.4-1.1-0.4
		c-0.5,0-0.9,0.2-1.2,0.5c-0.3,0.3-0.5,0.7-0.5,1.2v2.8h-0.8v-5.3h0.8v1.2c0.4-0.8,1-1.2,2-1.2C718,79.1,718.5,79.3,718.9,79.6z"/>
	<path fill="#0A0A0A" d="M583.7,91.2c0.3,0.1,0.5,0.2,0.8,0.4l-0.3,0.6c-0.2-0.1-0.4-0.2-0.7-0.3s-0.5-0.1-0.7-0.1
		c-0.3,0-0.6,0.1-0.8,0.2s-0.3,0.3-0.3,0.5c0,0.2,0.1,0.3,0.2,0.4s0.2,0.2,0.4,0.3s0.4,0.1,0.7,0.2c0.4,0.1,0.7,0.2,0.9,0.3
		s0.4,0.3,0.6,0.5c0.2,0.2,0.2,0.5,0.2,0.8c0,0.5-0.2,0.9-0.6,1.1c-0.4,0.3-0.8,0.4-1.4,0.4c-0.4,0-0.8-0.1-1.1-0.2
		c-0.4-0.1-0.7-0.3-0.9-0.5l0.3-0.6c0.2,0.2,0.5,0.4,0.8,0.5c0.3,0.1,0.6,0.2,0.9,0.2c0.3,0,0.6-0.1,0.8-0.2s0.3-0.3,0.3-0.6
		s-0.1-0.4-0.3-0.6c-0.2-0.1-0.5-0.2-0.9-0.4c-0.4-0.1-0.7-0.2-0.9-0.3c-0.2-0.1-0.4-0.2-0.6-0.4c-0.2-0.2-0.2-0.5-0.2-0.8
		c0-0.5,0.2-0.8,0.5-1.1s0.8-0.4,1.3-0.4C583.1,91.1,583.4,91.1,583.7,91.2z"/>
	<path fill="#0A0A0A" d="M587.4,96.4c-0.4,0-0.7-0.1-1-0.4s-0.4-0.6-0.4-1.1v-3h-0.8v-0.6h0.8v-1.4h0.8v1.4l1.7,0v0.6h-1.7v2.9
		c0,0.3,0.1,0.5,0.2,0.7s0.3,0.2,0.5,0.2c0.3,0,0.6-0.1,0.8-0.3l0.2,0.6C588.2,96.3,587.8,96.4,587.4,96.4z"/>
	<path fill="#0A0A0A" d="M591.3,91.4c0.3-0.2,0.7-0.3,1.1-0.3v0.8c-0.5,0-1,0.1-1.3,0.5s-0.5,0.7-0.6,1.3v2.8h-0.8v-5.3h0.8v1.2
		C590.7,91.9,591,91.6,591.3,91.4z"/>
	<path fill="#0A0A0A" d="M596.5,95.6c-0.4,0.6-1.1,0.8-1.9,0.8c-0.4,0-0.7-0.1-0.9-0.2c-0.3-0.1-0.5-0.3-0.6-0.6
		c-0.1-0.2-0.2-0.5-0.2-0.8c0-0.5,0.2-0.8,0.5-1.1s0.8-0.4,1.5-0.4h1.7V93c0-0.4-0.1-0.7-0.4-0.9s-0.6-0.3-1.1-0.3
		c-0.5,0-1.1,0.2-1.7,0.6l-0.3-0.6c0.4-0.2,0.7-0.4,1-0.5c0.3-0.1,0.7-0.2,1.1-0.2c0.6,0,1.1,0.2,1.5,0.5c0.4,0.3,0.5,0.8,0.5,1.3
		l0,3.5h-0.8V95.6z M595.9,95.4c0.3-0.2,0.5-0.5,0.6-0.9v-0.6h-1.6c-0.9,0-1.3,0.3-1.3,0.8c0,0.3,0.1,0.5,0.3,0.7s0.5,0.3,0.9,0.3
		C595.2,95.8,595.6,95.7,595.9,95.4z"/>
	<path fill="#0A0A0A" d="M600.5,96.4c-0.4,0-0.7-0.1-1-0.4s-0.4-0.6-0.4-1.1v-3h-0.8v-0.6h0.8v-1.4h0.8v1.4l1.7,0v0.6H600v2.9
		c0,0.3,0.1,0.5,0.2,0.7s0.3,0.2,0.5,0.2c0.3,0,0.6-0.1,0.8-0.3l0.2,0.6C601.3,96.3,601,96.4,600.5,96.4z"/>
	<path fill="#0A0A0A" d="M606.8,91.9c0.4,0.5,0.6,1.3,0.6,2.2h-4.3c0.1,0.5,0.3,0.9,0.6,1.2s0.8,0.5,1.3,0.5c0.3,0,0.6-0.1,0.9-0.2
		c0.3-0.1,0.5-0.3,0.7-0.5l0.4,0.5c-0.3,0.3-0.6,0.5-0.9,0.6c-0.4,0.2-0.8,0.2-1.2,0.2c-0.5,0-1-0.1-1.4-0.3
		c-0.4-0.2-0.7-0.5-0.9-0.9s-0.3-0.9-0.3-1.4s0.1-1,0.3-1.4c0.2-0.4,0.5-0.7,0.9-0.9s0.9-0.3,1.4-0.3
		C605.8,91.1,606.4,91.4,606.8,91.9z M606.1,92.2c-0.3-0.3-0.7-0.4-1.2-0.4c-0.5,0-0.9,0.1-1.3,0.4c-0.3,0.3-0.5,0.7-0.6,1.2h3.6
		C606.6,92.9,606.5,92.5,606.1,92.2z"/>
	<path fill="#0A0A0A" d="M613.3,95.8c0,0.5-0.1,1-0.3,1.3c-0.2,0.4-0.5,0.7-0.9,0.9c-0.4,0.2-0.9,0.3-1.4,0.3
		c-0.8,0-1.5-0.3-2.2-0.8l0.4-0.6c0.3,0.2,0.5,0.4,0.8,0.5c0.3,0.1,0.6,0.2,0.9,0.2c0.6,0,1-0.2,1.4-0.5s0.5-0.8,0.5-1.3v-0.8
		c-0.2,0.4-0.4,0.6-0.8,0.8c-0.3,0.2-0.7,0.3-1.2,0.3c-0.5,0-0.9-0.1-1.2-0.3c-0.4-0.2-0.6-0.5-0.9-0.9c-0.2-0.4-0.3-0.8-0.3-1.3
		c0-0.5,0.1-0.9,0.3-1.3s0.5-0.7,0.8-0.9c0.4-0.2,0.8-0.3,1.2-0.3c0.4,0,0.8,0.1,1.2,0.3c0.3,0.2,0.6,0.5,0.8,0.8v-1.1h0.8V95.8z
		 M611.6,95.3c0.3-0.2,0.5-0.4,0.6-0.7c0.2-0.3,0.2-0.6,0.2-1c0-0.4-0.1-0.7-0.2-1c-0.2-0.3-0.4-0.5-0.6-0.7s-0.6-0.2-0.9-0.2
		c-0.3,0-0.7,0.1-0.9,0.2s-0.5,0.4-0.6,0.7s-0.2,0.6-0.2,1c0,0.4,0.1,0.7,0.2,1s0.4,0.5,0.6,0.7s0.6,0.2,0.9,0.2
		C611.1,95.5,611.4,95.4,611.6,95.3z"/>
	<path fill="#0A0A0A" d="M616.1,98.1c-0.3,0.2-0.6,0.3-0.9,0.3c-0.4,0-0.8-0.1-1.1-0.4l0.3-0.6c0.2,0.2,0.5,0.2,0.7,0.2
		c0.2,0,0.4-0.1,0.6-0.2c0.2-0.1,0.3-0.3,0.4-0.6l0.2-0.5l-2.2-5.2h0.8l1.7,4.4l1.7-4.4h0.8l-2.4,6
		C616.6,97.6,616.4,97.9,616.1,98.1z"/>
	<path fill="#0A0A0A" d="M623.6,89.2c0.1,0.1,0.1,0.2,0.1,0.4s0,0.3-0.1,0.4s-0.2,0.2-0.4,0.2s-0.3-0.1-0.4-0.2
		c-0.1-0.1-0.1-0.2-0.1-0.4c0-0.2,0-0.3,0.1-0.4c0.1-0.1,0.2-0.2,0.4-0.2S623.5,89.1,623.6,89.2z M622.8,96.4v-5.3h0.8v5.3H622.8z"
		/>
	<path fill="#0A0A0A" d="M633.7,91.6c0.3,0.4,0.5,0.9,0.5,1.5v3.3h-0.8v-3c0-0.5-0.1-0.8-0.4-1.1c-0.3-0.3-0.6-0.4-1.1-0.4
		c-0.5,0-1,0.2-1.3,0.5c-0.3,0.4-0.5,0.8-0.5,1.4v2.6h-0.8v-3c0-0.5-0.1-0.8-0.4-1.1c-0.3-0.3-0.6-0.4-1.1-0.4c-0.5,0-1,0.2-1.3,0.5
		c-0.3,0.4-0.5,0.8-0.5,1.4v2.6h-0.8v-5.3h0.8v1.2c0.2-0.4,0.4-0.7,0.8-0.9c0.3-0.2,0.8-0.3,1.2-0.3c0.5,0,0.9,0.1,1.2,0.4
		c0.3,0.2,0.5,0.6,0.7,1c0.2-0.5,0.4-0.8,0.8-1s0.8-0.3,1.3-0.3C632.8,91.1,633.3,91.3,633.7,91.6z"/>
	<path fill="#0A0A0A" d="M640.1,91.4c0.4,0.2,0.7,0.5,0.9,0.9c0.2,0.4,0.3,0.9,0.3,1.4c0,0.5-0.1,1-0.3,1.4s-0.5,0.7-0.9,0.9
		c-0.4,0.2-0.8,0.3-1.3,0.3c-0.5,0-0.9-0.1-1.2-0.3c-0.3-0.2-0.6-0.5-0.8-0.9v3.1H636v-7.2h0.8v1.1c0.2-0.4,0.5-0.7,0.8-0.9
		c0.4-0.2,0.8-0.3,1.2-0.3C639.3,91.1,639.7,91.2,640.1,91.4z M639.6,95.5c0.3-0.2,0.5-0.4,0.7-0.7s0.2-0.6,0.2-1s-0.1-0.7-0.2-1
		s-0.4-0.5-0.7-0.7c-0.3-0.2-0.6-0.3-1-0.3c-0.4,0-0.7,0.1-1,0.2c-0.3,0.2-0.5,0.4-0.7,0.7c-0.2,0.3-0.2,0.6-0.2,1
		c0,0.4,0.1,0.7,0.2,1c0.2,0.3,0.4,0.5,0.7,0.7c0.3,0.2,0.6,0.3,1,0.3C639,95.7,639.3,95.6,639.6,95.5z"/>
	<path fill="#0A0A0A" d="M642.7,96.4V89h0.8v7.4H642.7z"/>
	<path fill="#0A0A0A" d="M649.4,91.9c0.4,0.5,0.6,1.3,0.6,2.2h-4.3c0.1,0.5,0.3,0.9,0.6,1.2s0.8,0.5,1.3,0.5c0.3,0,0.6-0.1,0.9-0.2
		c0.3-0.1,0.5-0.3,0.7-0.5l0.4,0.5c-0.3,0.3-0.6,0.5-0.9,0.6c-0.4,0.2-0.8,0.2-1.2,0.2c-0.5,0-1-0.1-1.4-0.3
		c-0.4-0.2-0.7-0.5-0.9-0.9s-0.3-0.9-0.3-1.4s0.1-1,0.3-1.4c0.2-0.4,0.5-0.7,0.9-0.9s0.9-0.3,1.4-0.3
		C648.4,91.1,649,91.4,649.4,91.9z M648.8,92.2c-0.3-0.3-0.7-0.4-1.2-0.4c-0.5,0-0.9,0.1-1.3,0.4c-0.3,0.3-0.5,0.7-0.6,1.2h3.6
		C649.3,92.9,649.1,92.5,648.8,92.2z"/>
	<path fill="#0A0A0A" d="M659.5,91.6c0.3,0.4,0.5,0.9,0.5,1.5v3.3h-0.8v-3c0-0.5-0.1-0.8-0.4-1.1c-0.3-0.3-0.6-0.4-1.1-0.4
		c-0.5,0-1,0.2-1.3,0.5c-0.3,0.4-0.5,0.8-0.5,1.4v2.6h-0.8v-3c0-0.5-0.1-0.8-0.4-1.1c-0.3-0.3-0.6-0.4-1.1-0.4c-0.5,0-1,0.2-1.3,0.5
		c-0.3,0.4-0.5,0.8-0.5,1.4v2.6h-0.8v-5.3h0.8v1.2c0.2-0.4,0.4-0.7,0.8-0.9c0.3-0.2,0.8-0.3,1.2-0.3c0.5,0,0.9,0.1,1.2,0.4
		c0.3,0.2,0.5,0.6,0.7,1c0.2-0.5,0.4-0.8,0.8-1s0.8-0.3,1.3-0.3C658.7,91.1,659.2,91.3,659.5,91.6z"/>
	<path fill="#0A0A0A" d="M665.8,91.9c0.4,0.5,0.6,1.3,0.6,2.2H662c0.1,0.5,0.3,0.9,0.6,1.2s0.8,0.5,1.3,0.5c0.3,0,0.6-0.1,0.9-0.2
		c0.3-0.1,0.5-0.3,0.7-0.5l0.4,0.5c-0.3,0.3-0.6,0.5-0.9,0.6c-0.4,0.2-0.8,0.2-1.2,0.2c-0.5,0-1-0.1-1.4-0.3
		c-0.4-0.2-0.7-0.5-0.9-0.9s-0.3-0.9-0.3-1.4s0.1-1,0.3-1.4c0.2-0.4,0.5-0.7,0.9-0.9s0.9-0.3,1.4-0.3
		C664.7,91.1,665.3,91.4,665.8,91.9z M665.1,92.2c-0.3-0.3-0.7-0.4-1.2-0.4c-0.5,0-0.9,0.1-1.3,0.4c-0.3,0.3-0.5,0.7-0.6,1.2h3.6
		C665.6,92.9,665.4,92.5,665.1,92.2z"/>
	<path fill="#0A0A0A" d="M672,91.6c0.4,0.4,0.5,0.9,0.5,1.5v3.3h-0.8v-3c0-0.5-0.1-0.8-0.4-1.1s-0.6-0.4-1.1-0.4
		c-0.5,0-0.9,0.2-1.2,0.5c-0.3,0.3-0.5,0.7-0.5,1.2v2.8h-0.8v-5.3h0.8v1.2c0.4-0.8,1-1.2,2-1.2C671.1,91.1,671.6,91.3,672,91.6z"/>
	<path fill="#0A0A0A" d="M675.7,96.4c-0.4,0-0.7-0.1-1-0.4s-0.4-0.6-0.4-1.1v-3h-0.8v-0.6h0.8v-1.4h0.8v1.4l1.7,0v0.6h-1.7v2.9
		c0,0.3,0.1,0.5,0.2,0.7s0.3,0.2,0.5,0.2c0.3,0,0.6-0.1,0.8-0.3l0.2,0.6C676.6,96.3,676.2,96.4,675.7,96.4z"/>
	<path fill="#0A0A0A" d="M681.4,95.6c-0.4,0.6-1.1,0.8-1.9,0.8c-0.4,0-0.7-0.1-0.9-0.2c-0.3-0.1-0.5-0.3-0.6-0.6
		c-0.1-0.2-0.2-0.5-0.2-0.8c0-0.5,0.2-0.8,0.5-1.1s0.8-0.4,1.5-0.4h1.7V93c0-0.4-0.1-0.7-0.4-0.9s-0.6-0.3-1.1-0.3
		c-0.5,0-1.1,0.2-1.7,0.6l-0.3-0.6c0.4-0.2,0.7-0.4,1-0.5c0.3-0.1,0.7-0.2,1.1-0.2c0.6,0,1.1,0.2,1.5,0.5c0.4,0.3,0.5,0.8,0.5,1.3
		l0,3.5h-0.8V95.6z M680.7,95.4c0.3-0.2,0.5-0.5,0.6-0.9v-0.6h-1.6c-0.9,0-1.3,0.3-1.3,0.8c0,0.3,0.1,0.5,0.3,0.7s0.5,0.3,0.9,0.3
		C680,95.8,680.4,95.7,680.7,95.4z"/>
	<path fill="#0A0A0A" d="M685.4,96.4c-0.4,0-0.7-0.1-1-0.4s-0.4-0.6-0.4-1.1v-3h-0.8v-0.6h0.8v-1.4h0.8v1.4l1.7,0v0.6h-1.7v2.9
		c0,0.3,0.1,0.5,0.2,0.7s0.3,0.2,0.5,0.2c0.3,0,0.6-0.1,0.8-0.3l0.2,0.6C686.2,96.3,685.8,96.4,685.4,96.4z"/>
	<path fill="#0A0A0A" d="M688.5,89.2c0.1,0.1,0.1,0.2,0.1,0.4s0,0.3-0.1,0.4s-0.2,0.2-0.4,0.2s-0.3-0.1-0.4-0.2
		c-0.1-0.1-0.1-0.2-0.1-0.4c0-0.2,0-0.3,0.1-0.4c0.1-0.1,0.2-0.2,0.4-0.2S688.4,89.1,688.5,89.2z M687.8,96.4v-5.3h0.8v5.3H687.8z"
		/>
	<path fill="#0A0A0A" d="M694,91.4c0.4,0.2,0.7,0.5,1,0.9c0.2,0.4,0.3,0.9,0.3,1.4c0,0.5-0.1,1-0.3,1.4c-0.2,0.4-0.5,0.7-1,0.9
		s-0.9,0.3-1.4,0.3c-0.5,0-1-0.1-1.4-0.3c-0.4-0.2-0.7-0.5-1-0.9c-0.2-0.4-0.3-0.9-0.3-1.4c0-0.5,0.1-1,0.3-1.4
		c0.2-0.4,0.5-0.7,1-0.9c0.4-0.2,0.9-0.3,1.4-0.3C693.1,91.1,693.6,91.2,694,91.4z M691.6,92.1c-0.3,0.2-0.5,0.4-0.7,0.7
		c-0.2,0.3-0.2,0.6-0.2,1c0,0.4,0.1,0.7,0.2,1c0.2,0.3,0.4,0.5,0.7,0.7c0.3,0.2,0.6,0.3,1,0.3s0.7-0.1,1-0.3
		c0.3-0.2,0.5-0.4,0.7-0.7c0.2-0.3,0.2-0.6,0.2-1s-0.1-0.7-0.2-1c-0.2-0.3-0.4-0.5-0.7-0.7c-0.3-0.2-0.6-0.2-1-0.2
		C692.2,91.8,691.9,91.9,691.6,92.1z"/>
	<path fill="#0A0A0A" d="M700.9,91.6c0.4,0.4,0.5,0.9,0.5,1.5v3.3h-0.8v-3c0-0.5-0.1-0.8-0.4-1.1s-0.6-0.4-1.1-0.4
		c-0.5,0-0.9,0.2-1.2,0.5c-0.3,0.3-0.5,0.7-0.5,1.2v2.8h-0.8v-5.3h0.8v1.2c0.4-0.8,1-1.2,2-1.2C700.1,91.1,700.6,91.3,700.9,91.6z"
		/>
</g>
<g>
	<path fill="#25DDDF" d="M585.8,51.8v-4.3h-4.2v-3h4.2v-4.3h3.3v4.3h4.2v3h-4.2v4.3H585.8z"/>
	<path fill="#25DDDF" d="M596.2,40.9v-3.2h10.3v2.6l-3.4,3.9c1.3,0.2,2.4,0.8,3.1,1.7c0.7,0.9,1.1,1.9,1.1,3.1
		c0,1.8-0.6,3.1-1.8,4.1c-1.2,1-2.7,1.5-4.6,1.5c-1.9,0-3.7-0.7-5.6-2l1.5-3c1.6,1.1,3,1.7,4.2,1.7c0.8,0,1.4-0.2,1.9-0.6
		c0.5-0.4,0.7-0.9,0.7-1.6c0-0.7-0.3-1.2-0.8-1.7c-0.6-0.4-1.3-0.6-2.3-0.6c-0.5,0-1.3,0.2-2.2,0.5v-2.8l3.2-3.8H596.2z"/>
	<path fill="#25DDDF" d="M616.9,54.6c-2.3,0-4.1-0.8-5.2-2.4c-1.2-1.6-1.7-3.7-1.7-6.3s0.6-4.7,1.7-6.3c1.2-1.6,2.9-2.4,5.2-2.4
		c2.3,0,4.1,0.8,5.2,2.4c1.2,1.6,1.7,3.7,1.7,6.3s-0.6,4.7-1.7,6.3C620.9,53.9,619.2,54.6,616.9,54.6z M614.4,41.9
		c-0.5,1-0.8,2.4-0.8,4.1c0,1.7,0.3,3,0.8,4.1c0.5,1,1.4,1.5,2.5,1.5s1.9-0.5,2.5-1.5c0.5-1,0.8-2.4,0.8-4.1c0-1.7-0.3-3-0.8-4.1
		c-0.5-1-1.4-1.5-2.5-1.5S614.9,40.9,614.4,41.9z"/>
	<path fill="#25DDDF" d="M633.8,41.5c0,0.9-0.3,1.7-1,2.4s-1.5,1-2.5,1c-1,0-1.9-0.3-2.5-1c-0.7-0.7-1-1.5-1-2.4s0.3-1.7,1-2.4
		s1.5-1,2.5-1c1,0,1.9,0.3,2.5,1S633.8,40.5,633.8,41.5z M643,37.7l-12,16.8h-4.1l12-16.8H643z M629.5,42.3c0.2,0.2,0.4,0.3,0.7,0.3
		s0.5-0.1,0.7-0.3c0.2-0.2,0.3-0.5,0.3-0.9s-0.1-0.6-0.3-0.9s-0.4-0.3-0.7-0.3s-0.5,0.1-0.7,0.3s-0.3,0.5-0.3,0.9
		S629.3,42.1,629.5,42.3z M643.2,51.3c0,0.9-0.3,1.7-1,2.4c-0.7,0.6-1.5,1-2.5,1c-1,0-1.9-0.3-2.5-1c-0.7-0.7-1-1.5-1-2.4
		s0.3-1.7,1-2.4c0.7-0.7,1.5-1,2.5-1c1,0,1.9,0.3,2.5,1C642.9,49.5,643.2,50.3,643.2,51.3z M639,52.1c0.2,0.2,0.4,0.3,0.7,0.3
		s0.5-0.1,0.7-0.3c0.2-0.2,0.3-0.5,0.3-0.9c0-0.4-0.1-0.6-0.3-0.9s-0.4-0.3-0.7-0.3c-0.3,0-0.5,0.1-0.7,0.3s-0.3,0.5-0.3,0.9
		C638.7,51.6,638.8,51.9,639,52.1z"/>
</g>
</svg>
