<?xml version="1.0" encoding="utf-8"?>
<!-- Generator: Adobe Illustrator 18.0.0, SVG Export Plug-In . SVG Version: 6.00 Build 0)  -->
<!DOCTYPE svg PUBLIC "-//W3C//DTD SVG 1.1//EN" "http://www.w3.org/Graphics/SVG/1.1/DTD/svg11.dtd">
<svg version="1.1" id="Calque_1" xmlns="http://www.w3.org/2000/svg" xmlns:xlink="http://www.w3.org/1999/xlink" x="0px" y="0px"
	 viewBox="9 373.8 590.5 94.6" enable-background="new 9 373.8 590.5 94.6" xml:space="preserve">
<path fill="#2A2A2A" d="M38.4,386.3c-0.7,0-1.3-0.5-1.3-1.3v-7.8h-7.8c-0.7,0-1.3-0.5-1.3-1.3c0-0.7,0.5-1.3,1.3-1.3h9.1
	c0.7,0,1.3,0.5,1.3,1.3v9.1C39.7,385.8,39.2,386.3,38.4,386.3z M25.4,386.7c-1.6,0-3.2-0.3-4.8-0.8c-3.5-1.2-6.3-3.7-7.9-7
	c-0.4-0.6-0.7-1.4-0.9-2.1c-0.2-0.7,0.2-1.4,0.8-1.6c0.7-0.2,1.4,0.2,1.6,0.8c0.2,0.6,0.5,1.2,0.7,1.8c1.4,2.7,3.7,4.8,6.5,5.7
	c3,1.1,6.2,0.9,9-0.5c2.8-1.4,4.9-3.7,6-6.7c0.3-0.7,1-1,1.6-0.8c0.7,0.3,1,1,0.8,1.6c-1.3,3.6-3.9,6.5-7.3,8.1
	C29.6,386.2,27.5,386.7,25.4,386.7z M11.9,386.3c-0.7,0-1.3-0.5-1.3-1.3V376c0-0.7,0.5-1.3,1.3-1.3H21c0.7,0,1.3,0.5,1.3,1.3
	c0,0.7-0.5,1.3-1.3,1.3h-7.8v7.8C13.2,385.8,12.6,386.3,11.9,386.3z M25.2,403.7c-0.7,0-1.3-0.5-1.3-1.3V386c0-0.7,0.5-1.3,1.3-1.3
	c0.7,0,1.3,0.5,1.3,1.3v16.5C26.5,403.1,25.9,403.7,25.2,403.7z M83.2,400.4c-0.3,0-0.7-0.1-0.9-0.4c-0.3-0.3-0.4-0.6-0.4-1l0.3-5.8
	c0-0.3,0.2-0.6,0.4-0.8l17.4-17.4c0.3-0.3,0.6-0.4,0.9-0.4c0.3,0,0.7,0.1,0.9,0.4l5.5,5.5c0.3,0.3,0.4,0.6,0.4,0.9s-0.1,0.7-0.4,0.9
	l-17.4,17.4c-0.2,0.2-0.5,0.4-0.8,0.4L83.2,400.4C83.2,400.4,83.2,400.4,83.2,400.4z M84.8,393.9l-0.2,3.8l3.8-0.2l16.1-16.1
	l-3.6-3.6L84.8,393.9z M103.3,384.6c-0.2,0-0.3-0.1-0.5-0.2l-4.9-4.9c-0.3-0.3-0.3-0.7,0-0.9c0.3-0.3,0.7-0.3,0.9,0l4.9,4.9
	c0.3,0.3,0.3,0.7,0,0.9C103.7,384.5,103.5,384.6,103.3,384.6z M84.1,395h-0.3c-0.1,0-0.2,0-0.3,0.1l-0.3,4.1l3.9-0.3
	c0-0.1,0.1-0.3,0.1-0.5C87.3,396.5,86,395,84.1,395z M106.9,406h-29c-0.7,0-1.3-0.6-1.3-1.3v-29.1c0-0.7,0.6-1.3,1.3-1.3h14.4
	c0.7,0,1.3,0.6,1.3,1.3c0,0.7-0.6,1.3-1.3,1.3h-13v26.4h26.3v-13.1c0-0.7,0.6-1.3,1.3-1.3s1.3,0.6,1.3,1.3v14.4
	C108.2,405.4,107.6,406,106.9,406z"/>
<g id="_x36_aQzW2.tif">
	<path fill="#2A2A2A" d="M144,386.8l0.1-0.5c0.3-1.1,1-1.9,2.1-2.3c0.9-0.3,1.9-0.3,2.8,0.1c0.2,0.1,0.4,0.3,0.6,0.4V384
		c0-0.2,0-0.2,0.2-0.2h1.2v6.2h-1.4v-0.7c0,0,0,0,0,0c-0.5,0.5-1.2,0.8-1.9,0.8c-1.2,0-2.3-0.4-3-1.4c-0.3-0.4-0.5-0.9-0.5-1.5
		c0,0,0,0,0-0.1C144,387.1,144,386.8,144,386.8z M147.6,385.1c-0.6,0-1.1,0.2-1.5,0.5c-0.8,0.7-1,1.9-0.2,2.7
		c0.8,0.8,2.2,0.9,3.1,0.1c0.7-0.6,0.8-1.6,0.3-2.4C148.8,385.3,148.1,385.1,147.6,385.1z M175.8,387.7h-5.3
		c0.1,0.2,0.2,0.4,0.3,0.5c0.5,0.6,1.6,0.8,2.3,0.5c0.2-0.1,0.3-0.2,0.5-0.3c0,0,0.1,0,0.1,0c0.5,0.1,1,0.2,1.5,0.3
		c-0.1,0.1-0.2,0.3-0.3,0.3c-0.8,0.8-1.7,1.1-2.8,1c-1.4-0.1-2.4-0.7-2.9-2c-0.5-1.1-0.2-2.5,0.7-3.4c1.4-1.3,3.6-1.3,5,0
		c0.6,0.6,1,1.4,1,2.2C175.9,387.2,175.8,387.4,175.8,387.7L175.8,387.7z M174.3,386.4c-0.2-0.6-1-1.4-2.1-1.4
		c-0.7,0-1.7,0.8-1.8,1.4H174.3z M163.3,383.9h1.4v6.2h-1.4v-0.5h0c-0.3,0.4-0.8,0.5-1.3,0.5c-0.8,0-1.5-0.1-2.1-0.5
		c-0.7-0.5-1.1-1.2-1.1-2.1v-3.7h1.4v3.5c0,1.1,0.9,1.6,1.8,1.5c0.7-0.1,1.2-0.5,1.3-1.2c0-0.1,0-0.2,0-0.3V383.9z M155.8,387l2.4,3
		h-1.6c-0.1,0-0.2,0-0.3-0.1l-1.4-1.7l0-0.1l-0.1,0.1l-1.4,1.8c0,0-0.1,0.1-0.1,0.1h-1.7l2.4-3c-0.8-1.1-1.6-2.1-2.5-3.2h1.6
		c0.1,0,0.1,0,0.2,0.1l1.4,1.9l0.1,0.1c0,0,0-0.1,0.1-0.1c0.5-0.6,1-1.3,1.5-1.9c0,0,0.1-0.1,0.1-0.1h1.7
		C157.5,384.9,156.7,386,155.8,387L155.8,387z M166.9,384.4c0.6-0.5,1.3-0.5,2-0.5v1.3c-0.2,0-0.3,0-0.5,0c-0.3,0-0.6,0.1-0.9,0.3
		c-0.4,0.3-0.6,0.6-0.6,1.1v3.5h-1.4v-6.2h1.4V384.4z"/>
</g>
<path id="c3MI8k.tif" fill="#2A2A2A" d="M152,396.2l-4.2,5.2c-0.1,0.2-0.2,0.2-0.3,0l-4.2-5.2v-0.1l0,0c0.5-0.8,1.1-1.5,1.6-2.3
	c0.1-0.1,0.2-0.2,0.3-0.2l0.9,0c0.6,0,1.1-0.1,1.7-0.1l2.2,0.1c0.2,0,0.3,0.1,0.5,0.3L152,396.2L152,396.2L152,396.2z M147.6,401
	c0.8-1.6,1.6-3,2.4-4.6h-4.9C145.9,397.9,146.7,399.4,147.6,401L147.6,401z M147.6,393.8c-0.8,0.7-1.5,1.4-2.3,2.2h4.6
	C149.1,395.3,148.4,394.5,147.6,393.8z M143.7,396.3c0.9,1.1,1.8,2.2,2.7,3.3v0l-1.7-3.2c0,0-0.1-0.1-0.1-0.1
	C144.6,396.3,143.7,396.3,143.7,396.3z M148.6,399.6c0.9-1.1,1.8-2.2,2.8-3.3h-0.8c-0.2,0-0.3,0-0.3,0.2c-0.4,0.7-0.8,1.5-1.2,2.2
	C149.2,398.7,148.6,399.6,148.6,399.6z M145,395.7L145,395.7l2-1.8v0l-1.9,0.1L145,395.7L145,395.7z M148.1,393.8
	c0.6,0.6,1.3,1.3,2,1.9c0-0.6-0.1-1.2-0.1-1.8C149.3,393.9,148.7,393.9,148.1,393.8L148.1,393.8z M143.7,396h1l0.1-1.5h0
	C144.4,395,144,395.5,143.7,396L143.7,396z M151.4,396c-0.4-0.5-0.7-1-1.1-1.5c0,0,0,0,0,0l0.1,1.5H151.4L151.4,396z"/>
<g id="_x33_ezvtH.tif_1_">
	<path fill="#2A2A2A" d="M153.7,398h0.8l0,0.1c0.3,1.2,1.6,1.8,2.7,1.1c0.3-0.2,0.5-0.5,0.5-0.8c0-0.4-0.2-0.7-0.5-0.8l-1.3-0.3
		c-0.3-0.1-0.6-0.1-0.8-0.2c-1.1-0.4-1.4-1.6-0.8-2.6c0.5-0.7,1.7-1.1,2.7-0.8c0.9,0.3,1.4,0.9,1.5,1.9v0.3h-0.8l0-0.3
		c-0.1-0.5-0.4-0.9-0.9-1.1c-0.6-0.1-1.2-0.1-1.6,0.3c-0.5,0.5-0.3,1.2,0.3,1.4l1.1,0.3l1,0.3c0.6,0.2,1,0.7,1.1,1.4
		c0.1,0.7-0.1,1.2-0.7,1.6c-0.8,0.7-2.5,0.7-3.4,0.1C153.9,399.4,153.6,398.7,153.7,398L153.7,398z M168.4,398h-3.6
		c0,0.6,0.4,1.1,1,1.3s1.3,0,1.6-0.5c0.3-0.5,0.6-0.4,1.1-0.4c0,1-1.2,1.8-2.4,1.7c-1.4-0.1-2.3-1.4-2.1-2.9c0.2-1.4,1.5-2.3,2.8-2
		C167.9,395.6,168.7,396.9,168.4,398L168.4,398z M164.7,397.4h2.8c-0.1-0.8-0.6-1.2-1.4-1.2C165.4,396.1,164.8,396.6,164.7,397.4
		L164.7,397.4z M159.5,400.1v-6.7c0,0,0,0,0.1,0c0.8-0.1,0.8-0.1,0.8,0.7v3.7c0,0,0.1,0,0.1,0.1l0.6-0.7l1.3-1.3
		c0.2-0.3,0.5-0.4,0.8-0.3c0.2,0,0.4,0,0.6,0l-1.9,1.9c0.7,0.9,1.4,1.8,2,2.7c-0.5,0.2-1,0.1-1.3-0.3c-0.4-0.6-0.8-1.1-1.3-1.8
		c-0.3,0.3-0.6,0.5-0.8,0.8c-0.1,0.2-0.1,0.4-0.1,0.7C160.3,400.2,160.3,400.2,159.5,400.1L159.5,400.1z M180.7,400.1
		c-0.8,0.1-0.8,0.1-0.8-0.7v-2.1c0-0.8-0.3-1.2-1.1-1.2c-0.7,0-1.2,0.4-1.2,1.2c0,0.8,0,1.6,0,2.4c0,0.5,0,0.5-0.5,0.5h-0.3v-6.8
		c0.8-0.1,0.8-0.1,0.8,0.6v1.8c0.1-0.1,0.2-0.1,0.3-0.2c0.7-0.4,1.4-0.4,2,0c0.6,0.3,0.8,0.9,0.8,1.6L180.7,400.1L180.7,400.1z
		 M176,397.2h-0.7c-0.1,0-0.2-0.1-0.2-0.2c-0.3-0.6-0.7-1-1.4-0.9c-0.6,0-1.1,0.4-1.3,1.1c-0.2,0.5-0.1,1.1,0.2,1.6
		c0.3,0.5,0.7,0.7,1.3,0.7c0.5,0,1-0.2,1.1-0.7c0.1-0.4,0.4-0.4,0.7-0.4h0.3c0,0.7-0.5,1.4-1.2,1.7c-1.6,0.7-3.3-0.5-3.3-2.3
		c0-1.7,1.4-2.8,3-2.4C175.3,395.6,175.9,396.3,176,397.2L176,397.2z M171.2,399.3C171.2,399.3,171.3,399.3,171.2,399.3
		c0.1,0.8,0,0.8-0.7,0.8c-0.7,0-1.1-0.5-1.1-1.2v-2.7h-0.8v-0.8h0.8v-1.3h0.8v1.2h0.7c0.3,0,0.4,0.1,0.4,0.4v0.4h-1v2.6
		c0,0.5,0.2,0.7,0.7,0.6C171,399.3,171.1,399.3,171.2,399.3z"/>
</g>
<g id="_x35_MHn9z.tif">
	<path fill="#2A2A2A" d="M204.8,384.9c0.1-0.1,0.2,0,0.3,0h1.1c0.1,0,0.2,0,0.2-0.2c0-1.2,0.5-2.2,1.3-3c0.8-0.9,1.9-1.4,3.2-1.4
		c0.8,0,1.4,0.1,2.1,0.4c1.1,0.5,1.8,1.3,2.3,2.3c0.3,0.5,0.4,1.1,0.4,1.7c0,0.2,0.1,0.2,0.2,0.2h1.1c0.1,0,0.2,0,0.3,0
		c-0.1,0.1-0.2,0.1-0.3,0.1h-11.8C205,385,204.9,385,204.8,384.9L204.8,384.9z"/>
	<path fill="#2A2A2A" d="M215.7,384.9h1.6c0,1.1-0.3,2.2-0.9,3.2c-1.1,1.7-2.7,2.8-4.7,3c-2.1,0.2-3.9-0.5-5.3-2.1
		c-1-1.1-1.5-2.4-1.6-3.9v-0.2c0.5,0,1.1,0,1.6,0c0.1,0.1,0.1,0.3,0.1,0.4c0.1,0.9,0.4,1.7,1,2.4c0.8,1,1.8,1.5,3.1,1.6
		c1.1,0.1,2.2-0.2,3.1-0.8c1-0.8,1.6-1.8,1.9-3l0-0.4C215.7,385,215.7,384.9,215.7,384.9L215.7,384.9z"/>
	<path fill="#2A2A2A" d="M215.7,384.9c0,2.7-2.2,4.6-4.7,4.6c-2.4,0-4.6-2-4.6-4.6h9.1C215.6,384.9,215.7,384.9,215.7,384.9z"/>
</g>
<g id="nDFUVq.tif">
	<path fill="#2A2A2A" d="M250.2,386.9c0.3-1,0.5-1.8,0.8-2.6c0.1-0.2,0.3-0.4,0.5-0.3c0.3,0.1,0.3,0.3,0.2,0.5l-1.1,3.4
		c-0.1,0.3-0.3,0.5-0.5,0.5c-0.3,0-0.4-0.3-0.5-0.5l-0.9-2.7c-0.4,1.1-0.6,1.9-0.8,2.6c-0.1,0.3-0.2,0.6-0.6,0.6
		c-0.3,0-0.4-0.3-0.5-0.6l-1-3.3c0-0.2-0.2-0.5,0.1-0.6c0.3-0.2,0.5,0.1,0.6,0.4c0.3,0.8,0.5,1.7,0.8,2.7c0.5-0.7,0.5-1.5,0.9-2.2
		c0.2-0.3,0.1-0.9,0.7-0.9c0.5,0,0.4,0.5,0.6,0.8C249.5,385.5,249.5,386.3,250.2,386.9L250.2,386.9z M229.8,386.6
		c0.6,1.4,1.5,1.4,2.5,1c0.3-0.1,0.6-0.6,0.9-0.1c0.2,0.3-0.3,0.6-0.6,0.8c-1.1,0.6-2.7,0.1-3.3-1c-0.6-1.2,0-2.8,1.3-3.3
		c1.2-0.4,2.5,0.3,2.9,1.5c0.2,0.7,0.1,1.1-0.8,1.1c-0.5,0-0.9,0-1.4,0C230.9,386.6,230.4,386.6,229.8,386.6L229.8,386.6z
		 M231.3,386c0.5-0.3,1.4,0.4,1.4-0.5c0-0.6-0.7-0.8-1.4-0.8c-0.6,0-1.4,0.3-1.3,0.9C230,386.3,230.8,385.7,231.3,386z M224.8,386.2
		c0,1.3-1.1,2.3-2.4,2.3c-1.3,0-2.3-1-2.3-2.2c0-1.3,1-2.4,2.2-2.4C223.6,383.9,224.8,384.9,224.8,386.2z M224.1,386
		c-0.1-0.8-0.6-1.4-1.6-1.4c-1,0-1.6,0.6-1.6,1.6c0,1,0.7,1.5,1.6,1.5C223.4,387.8,224,387.2,224.1,386z M243.1,388.5
		c-1.3,0-2.4-1.1-2.3-2.4c0-1.2,1.2-2.3,2.4-2.3c1.2,0,2.2,1.1,2.2,2.3C245.5,387.5,244.4,388.5,243.1,388.5z M243.1,384.6
		c-0.9,0.1-1.6,0.5-1.6,1.5c0,1.1,0.6,1.6,1.6,1.6c0.9,0,1.6-0.5,1.6-1.5C244.8,385.2,244.1,384.7,243.1,384.6z M225.2,383.9
		c0.9,0.9,1,2.3,1.7,3.5c0.4-1,0.8-1.9,1.2-2.9c0.1-0.3,0.3-0.6,0.5-0.5c0.5,0.2,0.2,0.5,0.1,0.8l-1.3,3.2c-0.2,0.5-0.7,0.8-1,0.3
		c-0.7-1.3-1.2-2.7-1.8-4.1C224.9,384,225,384,225.2,383.9L225.2,383.9z M236.9,385.8c0-0.7,0-1.4,0-2.2c0-0.6,0.3-1.1,0.8-1.3
		c0.3-0.1,0.8-0.3,1,0c0.2,0.4-0.3,0.4-0.6,0.5c-0.3,0.1-0.5,0.3-0.5,0.6c0,0.4,0.3,0.4,0.5,0.4c0.3,0,0.5,0.1,0.5,0.5
		c0,0.3-0.3,0.3-0.5,0.3c-0.7,0-0.7,0.4-0.7,0.9v1.9c0,0.3,0.1,0.9-0.3,0.9c-0.5,0-0.3-0.5-0.3-0.8
		C236.8,386.9,236.9,386.3,236.9,385.8z M240.1,385.2v2.6c0,0.2,0,0.5-0.3,0.5c-0.4,0-0.4-0.3-0.4-0.5v-5.2c0-0.3,0.1-0.5,0.4-0.5
		c0.3,0,0.4,0.3,0.4,0.5C240.1,383.5,240.1,384.4,240.1,385.2L240.1,385.2z M234.9,384.1c0.3,0.3,0.4,0,0.6-0.1
		c0.3-0.1,0.5-0.3,0.7,0.1c0.1,0.3-0.1,0.5-0.4,0.5c-0.8,0.2-0.9,0.8-0.9,1.5v1.8c0,0.3-0.1,0.5-0.4,0.5s-0.3-0.3-0.3-0.5
		c0-1.2,0-2.4,0-3.5C234.2,383.8,234.5,383.9,234.9,384.1z M232.7,385.5c0,0.9-0.9,0.2-1.4,0.5c-0.4-0.3-1.3,0.3-1.3-0.4"/>
</g>
<path id="c3MI8k.tif_1_" fill="#2A2A2A" d="M214.4,395.9l-4.4,5.3c-0.1,0.2-0.3,0.2-0.4,0l-4.4-5.3v-0.1l0,0l1.6-2.4
	c0.1-0.1,0.2-0.2,0.3-0.2c0.3,0,0.6,0,0.9,0c0.6,0,1.2-0.1,1.8-0.1c0.8,0,1.5,0.1,2.3,0.1c0.2,0,0.3,0.1,0.5,0.3
	c0.5,0.8,1.1,1.6,1.6,2.3L214.4,395.9L214.4,395.9z M209.9,400.7l2.5-4.8h-5.1C208.2,397.6,209,399.2,209.9,400.7z M209.9,393.4
	c-0.8,0.8-1.6,1.5-2.4,2.2h4.7C211.4,394.9,210.6,394.2,209.9,393.4z M205.9,396c1,1.2,1.9,2.3,2.8,3.5v0l-1.8-3.3
	c0,0-0.1-0.1-0.1-0.1C206.5,396,206.2,396,205.9,396z M211,399.4c1-1.1,1.9-2.2,2.9-3.4H213c-0.2,0-0.3,0-0.3,0.2
	c-0.4,0.8-0.8,1.5-1.2,2.3C211.4,398.8,211.2,399.1,211,399.4z M207.2,395.3L207.2,395.3l2.1-1.9v0c-0.6,0-1.3,0.1-1.9,0.1
	C207.3,394.1,207.3,394.7,207.2,395.3z M210.4,393.4L210.4,393.4c0.7,0.7,1.4,1.3,2.1,2c0-0.7-0.1-1.3-0.1-1.9
	C211.7,393.5,211.1,393.4,210.4,393.4z M205.9,395.6h1l0.1-1.5h0C206.6,394.6,206.2,395.1,205.9,395.6L205.9,395.6z M213.9,395.6
	c-0.4-0.5-0.7-1.1-1.1-1.6c0,0,0,0,0,0l0.1,1.5H213.9L213.9,395.6z"/>
<g id="_x33_ezvtH.tif_2_">
	<path fill="#2A2A2A" d="M216.2,397.7h0.8l0,0.1c0.3,1.3,1.6,1.8,2.8,1.2c0.3-0.2,0.5-0.5,0.5-0.9c0-0.4-0.2-0.7-0.5-0.8
		c-0.4-0.2-0.8-0.3-1.3-0.3c-0.3-0.1-0.6-0.1-0.9-0.3c-1.1-0.4-1.5-1.7-0.8-2.7c0.5-0.8,1.7-1.1,2.8-0.8c0.9,0.3,1.5,1,1.6,1.9v0.3
		h-0.8l0-0.3c-0.1-0.6-0.4-1-0.9-1.1c-0.6-0.2-1.2-0.1-1.7,0.3c-0.5,0.5-0.3,1.2,0.3,1.5c0.4,0.2,0.8,0.2,1.2,0.3
		c0.3,0.1,0.7,0.2,1,0.3c0.6,0.3,1.1,0.7,1.1,1.4c0.1,0.7-0.1,1.3-0.7,1.7c-0.9,0.7-2.6,0.8-3.5,0.1
		C216.5,399.2,216.1,398.5,216.2,397.7z M231.4,397.8h-3.8c0,0.6,0.4,1.1,1,1.4c0.6,0.2,1.4,0,1.6-0.5s0.7-0.5,1.1-0.4
		c0,1-1.2,1.9-2.4,1.8c-1.5-0.1-2.4-1.4-2.2-3c0.2-1.4,1.5-2.4,2.9-2C230.9,395.3,231.7,396.6,231.4,397.8z M227.6,397.1h2.9
		c-0.1-0.8-0.7-1.3-1.4-1.3C228.3,395.8,227.7,396.3,227.6,397.1L227.6,397.1z M222.2,399.9v-7c0,0,0,0,0.1,0
		c0.8-0.1,0.8-0.1,0.8,0.7v3.8l0.1,0.1c0.2-0.3,0.4-0.5,0.6-0.7c0.4-0.4,0.9-0.8,1.3-1.3c0.2-0.3,0.5-0.4,0.8-0.3c0.2,0,0.4,0,0.6,0
		l-2,2c0.8,1,1.4,1.9,2.1,2.8c-0.5,0.2-1,0.1-1.4-0.3c-0.5-0.6-0.9-1.2-1.4-1.8c-0.3,0.3-0.6,0.5-0.8,0.8c-0.1,0.2-0.1,0.5-0.1,0.7
		C223.1,400,223.1,400,222.2,399.9L222.2,399.9z M244.2,399.9c-0.9,0.1-0.9,0.1-0.9-0.7v-2.2c0-0.8-0.4-1.2-1.1-1.2
		c-0.8,0-1.3,0.4-1.3,1.2c0,0.8,0,1.6,0,2.5c0,0.5,0,0.5-0.5,0.5h-0.4v-7c0.8-0.1,0.8-0.1,0.8,0.6v1.9c0.1-0.1,0.2-0.1,0.3-0.2
		c0.7-0.4,1.4-0.4,2.1,0c0.7,0.3,0.9,1,0.9,1.7C244.2,397.8,244.2,398.8,244.2,399.9z M239.3,396.9h-0.7c-0.1,0-0.2-0.1-0.2-0.2
		c-0.3-0.7-0.8-1-1.4-1c-0.7,0-1.2,0.4-1.4,1.1c-0.2,0.5-0.1,1.1,0.2,1.6c0.3,0.5,0.7,0.8,1.3,0.7c0.5,0,1-0.3,1.2-0.8
		c0.2-0.4,0.4-0.5,0.8-0.4h0.3c0,0.7-0.5,1.5-1.3,1.8c-1.6,0.7-3.4-0.5-3.3-2.4c0-1.7,1.5-2.9,3.1-2.4
		C238.6,395.3,239.3,396,239.3,396.9L239.3,396.9z M234.4,399.1C234.4,399.1,234.4,399.1,234.4,399.1c0.1,0.8,0,0.9-0.7,0.8
		c-0.7,0-1.1-0.5-1.1-1.3v-2.8h-0.9V395h0.8v-1.3h0.9v1.3h0.7c0.3,0,0.4,0.1,0.4,0.4v0.4h-1.1v2.7c0,0.5,0.2,0.7,0.7,0.6
		C234.1,399.1,234.4,399.1,234.4,399.1z"/>
</g>
<g id="XDcN57.tif">
	<path fill="#2A2A2A" d="M289.3,391.2c0.6,0.2,0.8,0.7,0.8,1.3c0,0.7,0,1.3,0,2c0,0.2,0,0.4,0.2,0.4c0.1,0,0.1,0.2,0.2,0.3l0.8,2.3
		c0,0.1,0.1,0.3,0.2,0.5c0.1-0.2,0.2-0.3,0.2-0.4l0.8-2c0.3-0.7,0.3-0.7,1.1-0.6l-1.1,2.8c-0.1,0.3-0.3,0.6-0.3,0.9
		c-0.1,0.3-0.3,0.4-0.6,0.4c-0.3,0-0.4-0.1-0.5-0.3l-0.6-1.5c0-0.1-0.1-0.2-0.3-0.3v0.4c0,0.9,0,1.9,0,2.7c0,0.6-0.1,1.1-0.8,1.3
		h-8.6c-0.4-0.2-0.6-0.4-0.8-0.8V392c0.2-0.4,0.4-0.6,0.8-0.8C283.6,391.2,286.4,391.2,289.3,391.2L289.3,391.2z M283.9,399h0.6
		c0.3,0,0.5-0.1,0.5-0.5c0.1-0.7,0.3-1.4,0.5-2.1c0-0.2,0.2-0.4,0.3-0.5c0.2-0.2,0.5-0.3,0.7-0.1c0.3,0.2,0.3,0.4,0.2,0.7
		c0,0.1-0.1,0.2-0.1,0.3c-0.1,0.5-0.2,1-0.3,1.4c0,0.4,0.3,0.6,0.6,0.7c0.6,0.2,1.1-0.1,1.4-0.8c0.2-0.4,0.2-0.5-0.3-0.6
		c0,0.1-0.1,0.2-0.2,0.3l-0.4,0.3c0-0.1-0.1-0.3-0.1-0.4l0.4-1.5c0.1-0.5-0.1-1.1-0.5-1.3c-0.4-0.3-0.9-0.2-1.4,0.2
		c-0.1,0.1-0.3,0.2-0.4,0.3l0.1-0.6h-1.4c-0.1,0-0.2,0.1-0.3,0.2c-0.1,0.2-0.1,0.4-0.2,0.7c0.3,0,0.5,0,0.7,0.1
		c-0.1,0.5-0.3,1.1-0.4,1.6c-0.1,0.2-0.2,0.5-0.4,0.6s-0.5,0.2-0.7,0.3l0-0.7v0c0.2-0.8,0.4-1.7,0.6-2.6h-1.6c0,0-0.1,0.1-0.2,0.1
		c-0.1,0.3-0.1,0.5-0.2,0.8c0.3,0,0.5,0,0.6,0c0,0.1,0,0.1,0,0.1l-0.4,1.8c-0.2,0.8,0.2,1.4,0.8,1.3c0.3,0,0.7-0.3,1-0.4
		c0,0,0,0,0.1,0C284,398.8,283.9,398.8,283.9,399L283.9,399z M283.3,394.4c0.4,0,0.7-0.3,0.7-0.6s-0.3-0.7-0.7-0.7
		c-0.3,0-0.6,0.3-0.7,0.6C282.6,394.1,282.9,394.4,283.3,394.4z M310.2,399.1l-0.3,0c-0.6,0-0.6,0.1-0.6-0.6v-1.7
		c0-0.7-0.3-1.1-0.9-1.1c-0.6,0-1,0.4-1.1,1.1c0,0.6,0,1.3,0,1.9c0,0.4-0.2,0.4-0.5,0.4s-0.4-0.1-0.4-0.4v-3.3c0-0.1,0-0.3,0-0.4
		h0.8c0,0.2,0,0.3,0.1,0.6c0.1-0.1,0.2-0.2,0.3-0.3c0.4-0.5,1-0.5,1.5-0.4c0.5,0.2,0.8,0.5,0.9,1.1c0,0.1,0,0.1,0.1,0.2
		C310.2,396.2,310.2,399.1,310.2,399.1z"/>
	<path fill="#2A2A2A" d="M280.7,391.2c-0.4,0.2-0.6,0.4-0.8,0.8v-0.8H280.7z M280,400.6c0.2,0.4,0.4,0.6,0.8,0.8H280
		C280,401.3,280,400.6,280,400.6z"/>
	<path fill="#2A2A2A" d="M305.7,396.9c0,1.2-0.9,2.2-2.2,2.2c-1.2,0-2.2-0.9-2.2-2.1c0-1.3,0.9-2.2,2.2-2.2
		C304.8,394.8,305.7,395.7,305.7,396.9L305.7,396.9z M302.2,396.9c-0.1,0.7,0.5,1.4,1.4,1.4c0.8,0,1.3-0.6,1.3-1.4
		c0-0.8-0.5-1.4-1.3-1.4C302.7,395.5,302.2,396.1,302.2,396.9z M295.7,398.5c0.3-0.3,0.6-0.4,1-0.3c0.3,0.1,0.7,0.2,1,0.1
		c0.2,0,0.4-0.2,0.5-0.4c0.1-0.3-0.1-0.4-0.3-0.5c-0.3-0.1-0.6-0.2-1-0.3c-0.7-0.3-1.1-0.7-1-1.3c0.1-0.7,0.6-1.1,1.4-1.1
		c0.5,0,1.1,0.1,1.5,0.4c-0.2,0.4-0.4,0.5-0.9,0.3c-0.3,0-0.5-0.1-0.8-0.1c-0.2,0-0.4,0.3-0.4,0.4c0,0.1,0.2,0.3,0.3,0.4
		c0.2,0.1,0.5,0.2,0.8,0.3c0.1,0,0.3,0.1,0.4,0.2c0.6,0.3,0.8,0.5,0.7,1.2c0,0.5-0.3,0.8-0.8,1C297.2,399.3,296.4,399.1,295.7,398.5
		L295.7,398.5z M295,394.9v3.8c0,0.4-0.2,0.3-0.5,0.3c-0.2,0-0.4,0-0.4-0.3v-3.5c0-0.3,0.1-0.3,0.3-0.3
		C294.6,394.9,294.8,394.9,295,394.9z M299.7,394.9h0.8v4.1h-0.8V394.9z"/>
</g>
<path fill="#2A2A2A" d="M372.2,395.4c-0.3,0-0.6-0.1-0.8-0.3l-3.6-3.3c-0.5-0.5-0.5-1.2-0.1-1.7c0.5-0.5,1.2-0.5,1.7-0.1l2.8,2.6
	l2.8-2.6c0.5-0.5,1.3-0.4,1.7,0.1c0.5,0.5,0.4,1.3-0.1,1.7l-3.7,3.3C372.8,395.3,372.5,395.4,372.2,395.4z M372.4,393.7
	c-0.7,0-1.2-0.5-1.2-1.2c0-5.7-4.7-10.4-10.4-10.4c-3.6,0-6.9,1.8-8.8,4.8c-0.3,0.5-1.1,0.7-1.6,0.4c-0.5-0.3-0.7-1.1-0.4-1.6
	c2.4-3.7,6.4-6,10.8-6c7.1,0,12.8,5.7,12.8,12.8C373.6,393.2,373.1,393.7,372.4,393.7L372.4,393.7z M360.9,405.6
	c-7.1,0-12.8-5.7-12.8-12.8c0-0.7,0.5-1.2,1.2-1.2c0.7,0,1.2,0.5,1.2,1.2c0,5.7,4.7,10.4,10.4,10.4c3.6,0,6.9-1.8,8.8-4.9
	c0.3-0.5,1.1-0.7,1.6-0.4c0.5,0.3,0.7,1.1,0.4,1.6C369.3,403.4,365.3,405.6,360.9,405.6z M353,395.6c-0.3,0-0.6-0.1-0.8-0.3
	l-2.8-2.6l-2.8,2.6c-0.5,0.4-1.3,0.4-1.7-0.1c-0.5-0.5-0.4-1.3,0.1-1.7l3.7-3.3c0.5-0.4,1.1-0.4,1.6,0l3.6,3.3
	c0.5,0.5,0.5,1.2,0.1,1.7C353.6,395.5,353.3,395.6,353,395.6L353,395.6z M281.7,388h-0.4c-0.2,0-0.4-0.2-0.5-0.4
	c0-0.2,0.1-0.5,0.3-0.5c0.4-0.2,0.7-0.4,0.9-0.7c-1.5-0.8-2.5-2.2-2.5-3.6c0-2.4,2.4-4.3,5.3-4.3c2.9,0,5.3,1.9,5.3,4.3
	c0,2.3-2.4,4.3-5.3,4.3h-0.2C283.9,387.6,282.9,388,281.7,388L281.7,388z M284.9,379.4c-2.4,0-4.3,1.5-4.3,3.3
	c0,1.2,0.9,2.4,2.4,2.9c0.1,0,0.3,0.2,0.3,0.3c0,0.1,0,0.3,0,0.4l0,0l-0.1,0.2c0,0.1-0.1,0.2-0.2,0.2c0.4-0.2,0.8-0.4,1.1-0.7
	c0.1-0.1,0.3-0.2,0.4-0.2h0.3c2.4,0,4.3-1.5,4.3-3.3C289.1,380.9,287.2,379.4,284.9,379.4z M290.8,389.6c-0.7,0-1.3-0.2-1.8-0.5
	h-0.1c-2,0.4-4-0.5-4.6-2.2c-0.1-0.3,0-0.5,0.3-0.7c0.3-0.1,0.5,0,0.7,0.3c0.5,1.2,2,1.8,3.5,1.6l0.3,0c0.2,0,0.3,0,0.5,0.1
	c0.2,0.2,0.4,0.3,0.7,0.3c0,0-0.1-0.1-0.1-0.1c-0.1-0.1-0.1-0.3-0.1-0.4c0-0.1,0.1-0.3,0.2-0.3c1.1-0.7,1.6-1.7,1.5-2.7
	c-0.1-0.8-0.7-1.5-1.6-1.9c-0.3-0.1-0.4-0.4-0.3-0.7c0.1-0.3,0.4-0.4,0.7-0.3c1.2,0.5,2.1,1.5,2.2,2.7c0.2,1.3-0.4,2.6-1.5,3.5
	c0.2,0.2,0.5,0.3,0.7,0.4c0.2,0.1,0.4,0.3,0.3,0.5c0,0.2-0.2,0.4-0.4,0.5C291.5,389.5,291.2,389.6,290.8,389.6L290.8,389.6z"/>
<path fill="#2A2A2A" d="M355.6,393.3v-0.8l2.8-1.3v0.8l-1.8,0.8l1.8,0.8v0.8C358.4,394.6,355.6,393.3,355.6,393.3z M361.3,390.6h0.8
	l-2.4,5.2h-0.8C358.9,395.8,361.3,390.6,361.3,390.6z M365.5,392.5v0.8l-2.8,1.3v-0.8l1.8-0.8l-1.8-0.8v-0.8
	C362.7,391.2,365.5,392.5,365.5,392.5z"/>
<path fill="#2A2A2A" d="M426.7,386.3c-3.1,0-5.6-2.8-5.6-6.3s2.5-6.3,5.6-6.3s5.6,2.8,5.6,6.3S429.8,386.3,426.7,386.3z
	 M426.7,376.1c-1.8,0-3.3,1.8-3.3,4s1.5,4,3.3,4s3.3-1.8,3.3-4S428.5,376.1,426.7,376.1z M435.3,407c-4,0-7.3-3.3-7.3-7.3
	s3.3-7.3,7.3-7.3c4,0,7.3,3.3,7.3,7.3S439.3,407,435.3,407L435.3,407z M435.3,393.7c-3.4,0-6.1,2.7-6.1,6.1c0,3.4,2.7,6.1,6.1,6.1
	c3.3,0,6.1-2.7,6.1-6.1C441.3,396.4,438.6,393.7,435.3,393.7z M428.6,400.9H418c-0.6,0-1.1-0.5-1.2-1.1l-0.4-5.5
	c-0.1-2,1.4-4.4,3.5-5.1c4.3-1.5,9-1.5,13.3,0c1.5,0.5,2.8,2,3.3,3.7l-2.2,0.6c-0.3-0.9-1-1.8-1.8-2.1c-3.8-1.4-7.9-1.4-11.7,0
	c-1.1,0.4-2,1.9-1.9,2.7l0.3,4.4h9.5L428.6,400.9L428.6,400.9L428.6,400.9z M434.1,404c-0.3,0-0.6-0.1-0.8-0.4l-1.9-2
	c-0.5-0.5-0.4-1.2,0-1.6c0.5-0.5,1.2-0.4,1.6,0l1,1.1l3.4-4.1c0.4-0.5,1.1-0.6,1.6-0.2c0.5,0.4,0.6,1.1,0.2,1.6l-4.2,5.2
	C434.8,403.8,434.5,403.9,434.1,404C434.1,404,434.1,404,434.1,404L434.1,404z M567.6,391.7c-0.3,0-0.5-0.1-0.8-0.3
	c-0.4-0.4-0.4-1.1,0-1.5l3.3-3.3l-3.3-3.3c-0.4-0.4-0.4-1.1,0-1.5s1.1-0.4,1.5,0l4.1,4.1c0.4,0.4,0.4,1.1,0,1.5l-4.1,4.1
	C568.1,391.6,567.9,391.7,567.6,391.7z M570.4,405.3h-17.5c-2.2,0-3.9-1.8-3.9-3.9v-12c0-2.2,1.8-3.9,3.9-3.9h6.5c0.5,0,1,0.4,1,1
	s-0.4,1-1,1h-6.5c-1.1,0-1.9,0.9-1.9,1.9v12c0,1.1,0.9,1.9,1.9,1.9h17.5c1.1,0,1.9-0.9,1.9-1.9v-11.9c0-0.5,0.4-1,1-1s1,0.4,1,1v12
	C574.3,403.5,572.5,405.3,570.4,405.3L570.4,405.3z M553.8,401.2h-0.2c-0.5-0.1-0.9-0.7-0.8-1.2c1.6-8.4,9-14.5,17.4-14.5
	c0.6,0,1.1,0.5,1.1,1.1c0,0.6-0.5,1.1-1.1,1.1c-7.5,0-13.9,5.4-15.4,12.8C554.8,400.9,554.3,401.2,553.8,401.2z"/>
<text transform="matrix(1 0 0 1 9.0002 447.3333)" fill="#2A2A2A" font-family="'OpenSans'" font-size="8">flowchart</text>
<text transform="matrix(1 0 0 1 75.2151 447.3333)" fill="#2A2A2A" font-family="'OpenSans'" font-size="8">mockups</text>
<text transform="matrix(1 0 0 1 150.7922 447.3333)" fill="#2A2A2A" font-family="'OpenSans'" font-size="8">static</text>
<text transform="matrix(1 0 0 1 139.6447 456.4537)" fill="#2A2A2A" font-family="'OpenSans'" font-size="8">wireframes</text>
<text transform="matrix(1 0 0 1 207.5724 447.3333)" fill="#2A2A2A" font-family="'OpenSans'" font-size="8">user flows</text>
<text transform="matrix(1 0 0 1 205.5459 456.4537)" fill="#2A2A2A" font-family="'OpenSans'" font-size="8">wireframes</text>
<text transform="matrix(1 0 0 1 206.8124 465.5746)" fill="#2A2A2A" font-family="'OpenSans'" font-size="8">(feedback)</text>
<text transform="matrix(0.9999 -1.399863e-02 1.399863e-02 0.9999 270.826 448.0034)" fill="#2A2A2A" font-family="'OpenSans'" font-size="8">visual design</text>
<text transform="matrix(0.9999 -1.399863e-02 1.399863e-02 0.9999 276.4004 457.0473)" fill="#2A2A2A" font-family="'OpenSans'" font-size="8">prototype</text>
<text transform="matrix(0.9999 -1.399863e-02 1.399863e-02 0.9999 275.3884 466.1834)" fill="#2A2A2A" font-family="'OpenSans'" font-size="8">(feedback)</text>
<text transform="matrix(1 0 0 1 350.3274 447.3333)" fill="#2A2A2A" font-family="'OpenSans'" font-size="8">refine</text>
<text transform="matrix(1 0 0 1 342.2208 456.4537)" fill="#2A2A2A" font-family="'OpenSans'" font-size="8">prototype</text>
<text transform="matrix(1 0 0 1 329.6799 465.5746)" fill="#2A2A2A" font-family="'OpenSans'" font-size="8">(front-end code)</text>
<text transform="matrix(1 0 0 1 405.5059 447.3333)" fill="#2A2A2A" font-family="'OpenSans'" font-size="8">user testing</text>
<text transform="matrix(1 0 0 1 407.7851 456.4537)" fill="#2A2A2A" font-family="'OpenSans'" font-size="8">(feedback)</text>
<text transform="matrix(1 0 0 1 474.848 447.3333)" fill="#2A2A2A" font-family="'OpenSans'" font-size="8">Analyze &amp;</text>
<text transform="matrix(1 0 0 1 477.382 456.4537)" fill="#2A2A2A" font-family="'OpenSans'" font-size="8">iteration</text>
<text transform="matrix(1 0 0 1 521.3945 447.3333)" fill="#2A2A2A" font-family="'OpenSans'" font-size="8">code/documentation</text>
<text transform="matrix(1 0 0 1 530.8525 456.4537)" fill="#2A2A2A" font-family="'OpenSans'" font-size="8">hand-off to devs</text>
<path fill="#FEC683" d="M38.4,422.5l39.7,0.2v0.9l1.8-1.4l-1.8-1.4v0.9l-39.7-0.2V422.5z"/>
<circle fill="none" stroke="#FD6E7C" stroke-width="2" stroke-miterlimit="10" cx="25.4" cy="422" r="10.6"/>
<circle fill="none" stroke="#FD6E7C" stroke-width="2" stroke-miterlimit="10" cx="92.5" cy="422" r="10.6"/>
<circle fill="none" stroke="#FD6E7C" stroke-width="2" stroke-miterlimit="10" cx="159.6" cy="422" r="10.6"/>
<circle fill="none" stroke="#FD6E7C" stroke-width="2" stroke-miterlimit="10" cx="226.8" cy="422" r="10.6"/>
<circle fill="none" stroke="#FD6E7C" stroke-width="2" stroke-miterlimit="10" cx="293.9" cy="422" r="10.6"/>
<circle fill="none" stroke="#FD6E7C" stroke-width="2" stroke-miterlimit="10" cx="360.6" cy="422" r="10.6"/>
<circle fill="none" stroke="#FD6E7C" stroke-width="2" stroke-miterlimit="10" cx="427.3" cy="422" r="10.6"/>
<circle fill="none" stroke="#FD6E7C" stroke-width="2" stroke-miterlimit="10" cx="494" cy="422" r="10.6"/>
<circle fill="none" stroke="#FD6E7C" stroke-width="2" stroke-miterlimit="10" cx="560.8" cy="422" r="10.6"/>
<path fill="#2A2A2A" d="M504.8,395.4c-0.3,0-0.6-0.1-0.8-0.3l-3.6-3.3c-0.5-0.5-0.5-1.2-0.1-1.7c0.5-0.5,1.2-0.5,1.7-0.1l2.8,2.6
	l2.8-2.6c0.5-0.5,1.3-0.4,1.7,0.1c0.5,0.5,0.4,1.3-0.1,1.7l-3.7,3.3C505.4,395.3,505.1,395.4,504.8,395.4z M505,393.7
	c-0.7,0-1.2-0.5-1.2-1.2c0-5.7-4.7-10.4-10.4-10.4c-3.6,0-6.9,1.8-8.8,4.8c-0.3,0.5-1.1,0.7-1.6,0.4s-0.7-1.1-0.4-1.6
	c2.4-3.7,6.4-6,10.8-6c7.1,0,12.8,5.7,12.8,12.8C506.2,393.2,505.7,393.7,505,393.7L505,393.7z M493.5,405.6
	c-7.1,0-12.8-5.7-12.8-12.8c0-0.7,0.5-1.2,1.2-1.2c0.7,0,1.2,0.5,1.2,1.2c0,5.7,4.7,10.4,10.4,10.4c3.6,0,6.9-1.8,8.8-4.9
	c0.3-0.5,1.1-0.7,1.6-0.4c0.5,0.3,0.7,1.1,0.4,1.6C501.9,403.4,497.8,405.6,493.5,405.6L493.5,405.6z M485.6,395.6
	c-0.3,0-0.6-0.1-0.8-0.3l-2.8-2.6l-2.8,2.6c-0.5,0.4-1.3,0.4-1.7-0.1c-0.5-0.5-0.4-1.3,0.1-1.7l3.7-3.3c0.5-0.4,1.1-0.4,1.6,0
	l3.6,3.3c0.5,0.5,0.5,1.2,0.1,1.7C486.2,395.5,485.9,395.6,485.6,395.6z"/>
<path fill="#FEC683" d="M105.4,422.5l39.7,0.2v0.9l1.8-1.4l-1.8-1.4v0.9l-39.7-0.2V422.5z"/>
<path fill="#FEC683" d="M172.4,422.5l39.7,0.2v0.9l1.8-1.4l-1.8-1.4v0.9l-39.7-0.2L172.4,422.5z"/>
<path fill="#FEC683" d="M239.4,422.5l39.7,0.2v0.9l1.8-1.4l-1.8-1.4v0.9l-39.7-0.2L239.4,422.5z"/>
<path fill="#FEC683" d="M306.4,422.5l39.7,0.2v0.9l1.8-1.4l-1.8-1.4v0.9l-39.7-0.2V422.5z"/>
<path fill="#FEC683" d="M373.4,422.5l39.7,0.2v0.9l1.8-1.4l-1.8-1.4v0.9l-39.7-0.2V422.5z"/>
<path fill="#FEC683" d="M440.4,422.5l39.7,0.2v0.9l1.8-1.4l-1.8-1.4v0.9l-39.7-0.2V422.5z"/>
<path fill="#FEC683" d="M506.4,422.5l39.7,0.2v0.9l1.8-1.4l-1.8-1.4v0.9l-39.7-0.2V422.5z"/>
</svg>
