<svg version="1.1" id="Layer_1" xmlns="http://www.w3.org/2000/svg" x="0" y="0" viewBox="0 0 1409.8 223.5" xml:space="preserve"><style>.st1{fill:#79417a}.st2{fill:#2a2a2a}.st6{fill:#fff}.st7{font-family:&apos;Montserrat-Regular&apos;}.st8{font-size:18px}.st9{font-size:18.0018px}.st10{fill:#99789b}</style><path d="M-9.9-10.7h1431v247H-9.9v-247z" fill="#f1f1f1"/><path class="st1" d="M200.1 115.5l125.8.5v2.1l5.7-3.3-5.7-3.3v2.1l-125.8-.5v2.4zm159 0l125.8.5v2.1l5.7-3.3-5.7-3.3v2.1l-125.8-.5v2.4zm159 0l125.8.5v2.1l5.7-3.3-5.7-3.3v2.1l-125.8-.5v2.4zm158 0l125.8.5v2.1l5.7-3.3-5.7-3.3v2.1l-125.8-.5v2.4zm158 0l125.8.5v2.1l5.7-3.3-5.7-3.3v2.1l-125.8-.5v2.4zm158 0l125.8.5v2.1l5.7-3.3-5.7-3.3v2.1l-125.8-.5v2.4zm158 0l125.8.5v2.1l5.7-3.3-5.7-3.3v2.1l-125.8-.5v2.4z"/><path class="st2" d="M72.1 29.8c-1.7 0-3-1.3-3-3V8.3H50.6c-1.7 0-3-1.3-3-3s1.3-3 3-3h21.5c1.7 0 3 1.3 3 3v21.5c0 1.7-1.3 3-3 3zm-30.8.8c-3.8 0-7.6-.6-11.3-2-8.2-2.9-14.9-8.7-18.8-16.5-.9-1.5-1.6-3.2-2.2-5-.5-1.6.4-3.3 2-3.8s3.3.4 3.8 1.9 1.1 2.9 1.7 4.2C19.7 15.8 25.2 20.7 32 23c7 2.5 14.6 2.1 21.3-1.1S65 13.1 67.5 6.1c.6-1.6 2.3-2.4 3.8-1.8 1.6.6 2.4 2.3 1.8 3.8-3 8.5-9.2 15.4-17.3 19.3-4.6 2.1-9.5 3.2-14.5 3.2zm-32-.8c-1.7 0-3-1.3-3-3V5.3c0-1.7 1.3-3 3-3h21.5c1.7 0 3 1.3 3 3s-1.3 3-3 3H12.3v18.5c0 1.7-1.4 3-3 3zm31.4 41.1c-1.7 0-3-1.3-3-3v-39c0-1.7 1.3-3 3-3s3 1.3 3 3v39c0 1.6-1.3 3-3 3zM178 63.2c-.8 0-1.6-.3-2.2-.9-.6-.6-1-1.5-.9-2.4l.8-13.8c0-.8.4-1.5.9-2l41.2-41.3c.6-.6 1.4-.9 2.2-.9s1.6.3 2.2.9l13 13c.6.6.9 1.4.9 2.2 0 .8-.3 1.6-.9 2.2l-41.3 41.3c-.5.5-1.3.9-2 .9l-13.9.8zm3.9-15.6l-.5 9.1 9.1-.5L228.6 18 220 9.4l-38.1 38.2zm43.9-22c-.4 0-.8-.2-1.1-.5L213 13.4c-.6-.6-.6-1.6 0-2.2s1.6-.6 2.2 0l11.7 11.7c.6.6.6 1.6 0 2.2-.3.4-.7.5-1.1.5zm-45.6 24.8h-.8c-.3 0-.5.1-.7.2l-.6 9.6 9.2-.6c.1-.3.2-.7.2-1.1.4-4.6-2.8-8.1-7.3-8.1zm54.1 25.9h-68.7c-1.7 0-3.1-1.4-3.1-3.1V4.4c0-1.7 1.4-3.1 3.1-3.1h34.1c1.7 0 3.1 1.4 3.1 3.1s-1.4 3.1-3.1 3.1h-30.9V70h62.4V39c0-1.7 1.4-3.1 3.1-3.1 1.7 0 3.1 1.4 3.1 3.1v34.1c0 1.8-1.4 3.2-3.1 3.2z"/><path class="st2" d="M322 30.8l.2-1.2c.7-2.7 2.4-4.5 5-5.4 2.2-.8 4.5-.8 6.6.3.5.3.9.6 1.4 1v-1.3c0-.4 0-.4.4-.4h2.9v14.7h-3.3v-1.7c-.1 0-.1.1-.1.1-1.3 1.2-2.8 1.8-4.5 1.8-2.9.1-5.4-1-7.2-3.4-.8-1-1.2-2.2-1.3-3.5 0-.1 0-.1-.1-.2v-.8zm8.5-4c-1.5 0-2.6.4-3.5 1.1-2 1.6-2.3 4.4-.5 6.3 1.9 2 5.2 2.1 7.3.2 1.6-1.5 1.9-3.8.6-5.6-1-1.4-2.5-2-3.9-2zm66.9 6.2h-12.6c.2.5.5.9.8 1.3 1.3 1.5 3.7 2 5.5 1.3.4-.2.8-.4 1.1-.7.1-.1.2-.1.3-.1 1.2.2 2.3.4 3.6.7-.3.3-.5.6-.7.8-1.9 1.8-4.1 2.6-6.7 2.4-3.2-.3-5.6-1.7-6.9-4.7-1.2-2.7-.5-6 1.7-8 3.4-3.1 8.5-3.1 11.8 0 1.5 1.4 2.3 3.2 2.3 5.3 0 .6-.1 1.1-.2 1.7zm-3.5-3c-.4-1.5-2.3-3.4-5-3.2-1.7.1-4 1.8-4.2 3.2h9.2zm-26.1-6.1h3.3v14.7h-3.3v-1.1h-.1c-.8.9-1.9 1.2-3.1 1.3-1.8.1-3.5-.2-5-1.3-1.7-1.2-2.5-2.9-2.5-5v-8.7h3.3V32c0 2.5 2.2 3.8 4.2 3.6 1.6-.2 2.8-1.3 3.1-2.8.1-.2.1-.5.1-.8v-8.1zm-17.7 7.5l5.8 7.2h-3.8c-.3 0-.4-.1-.6-.3l-3.3-4.1-.1-.2-.2.2-3.3 4.2c-.1.1-.2.2-.3.2h-4l5.7-7.2c-2-2.5-3.9-5-6-7.5h3.9c.2 0 .3.1.4.2l3.4 4.4.2.3c.1-.1.1-.2.2-.2 1.2-1.5 2.3-3 3.5-4.4.1-.1.2-.2.3-.2h4c-1.9 2.5-3.8 4.9-5.8 7.4zm26.3-6.3c1.4-1.1 3-1.2 4.7-1.2V27c-.4 0-.8 0-1.2.1-.7.1-1.4.3-2.1.7-.9.6-1.4 1.4-1.4 2.5v8.4h-3.3V24h3.3v1.1z" id="_x36_aQzW2.tif"/><path id="c3MI8k.tif" class="st2" d="M341 53.2l-10 12.2c-.3.4-.5.4-.8 0l-10-12.2v-.3l.1-.1c1.3-1.8 2.5-3.6 3.7-5.4.2-.3.4-.4.7-.4l2.1-.1c1.4-.1 2.7-.2 4.1-.2l5.3.3c.5 0 .8.2 1.1.6L341 53v.2zm-10.4 11.2c2-3.7 3.9-7.2 5.8-10.9h-11.6c1.9 3.6 3.8 7.2 5.8 10.9zm0-16.9c-1.8 1.7-3.6 3.3-5.4 5.1H336c-1.9-1.7-3.6-3.4-5.4-5.1zm-9.2 6c2.2 2.7 4.3 5.3 6.5 7.9v-.1l-4.1-7.6c0-.1-.2-.2-.3-.2h-2.1zm11.7 7.8c2.2-2.6 4.3-5.2 6.6-7.8h-1.9c-.4 0-.6.1-.7.4-.9 1.7-1.8 3.5-2.8 5.2l-1.2 2.2zm-8.6-9.4h.1l4.6-4.3v-.1l-4.4.3-.3 4.1zm7.4-4.4c1.5 1.5 3.1 3 4.7 4.5-.1-1.5-.2-2.9-.3-4.2-1.6-.1-3-.2-4.4-.3zm-10.5 5.1h2.3l.3-3.5h-.1c-.9 1.1-1.7 2.3-2.5 3.5zm18.3 0c-.9-1.2-1.7-2.4-2.5-3.6 0 0-.1 0-.1.1l.3 3.5h2.3z"/><path class="st2" d="M345 57.4h1.8l.1.2c.8 2.9 3.7 4.2 6.4 2.7.8-.4 1.2-1.1 1.2-2s-.4-1.7-1.3-2l-3-.8c-.7-.2-1.4-.3-2-.5-2.5-.9-3.4-3.9-1.8-6.1 1.3-1.7 4-2.5 6.4-1.8 2.1.6 3.3 2.2 3.6 4.4v.6h-1.9l-.1-.6c-.2-1.3-.9-2.2-2.2-2.6-1.4-.3-2.8-.3-3.9.7-1.1 1.1-.8 2.8.6 3.4l2.7.8 2.3.6c1.5.5 2.4 1.6 2.6 3.2.2 1.6-.3 2.9-1.6 3.9-2 1.6-6 1.7-8.1.2-1.2-1-1.9-2.6-1.8-4.3zm34.8.1h-8.6c0 1.4.9 2.6 2.3 3.1s3.1.1 3.8-1.1c.6-1.2 1.5-1 2.5-.9 0 2.3-2.8 4.3-5.6 4-3.4-.3-5.5-3.2-5-6.9.5-3.3 3.5-5.4 6.7-4.7 2.7.7 4.7 3.8 3.9 6.5zm-8.7-1.6h6.6c-.3-1.8-1.5-2.9-3.3-2.9-1.7 0-3.1 1.2-3.3 2.9zm-12.2 6.4V46.4c.1-.1.1-.1.2-.1 1.8-.2 1.8-.2 1.8 1.6v8.7c.1.1.2.1.2.2l1.5-1.7 3-3c.5-.6 1.1-.9 1.8-.8.5.1.9 0 1.4 0l-4.5 4.5c1.7 2.2 3.3 4.3 4.8 6.4-1.2.5-2.3.2-3-.7-1-1.4-2-2.7-3.1-4.2-.7.7-1.4 1.2-1.9 1.9-.3.4-.2 1-.2 1.6-.1 1.8-.1 1.8-2 1.5zm50.2 0c-2 .3-2 .3-2-1.6v-5c0-1.9-.8-2.8-2.5-2.8s-2.9 1-2.9 2.8c-.1 1.9 0 3.8 0 5.7 0 1.1 0 1.1-1.1 1.1h-.8v-16c1.9-.3 1.9-.3 1.9 1.5v4.3c.3-.2.5-.3.7-.4 1.6-.9 3.2-1 4.7-.1 1.5.8 2 2.2 2 3.8v6.7zm-11.3-6.8h-1.6c-.2 0-.4-.3-.4-.5-.7-1.5-1.7-2.3-3.3-2.2-1.5.1-2.7 1-3.1 2.5-.4 1.3-.3 2.5.4 3.7.7 1.2 1.7 1.7 3 1.7 1.2 0 2.3-.5 2.7-1.7.3-1 .9-1 1.7-1h.6c0 1.6-1.2 3.4-2.9 4.1-3.8 1.6-7.7-1.2-7.7-5.4 0-4 3.3-6.6 7-5.6 2 .7 3.5 2.4 3.6 4.4zm-11.2 4.9c0 .1.1.2.1.2.1 1.7 0 1.8-1.7 1.7s-2.6-1.1-2.6-2.9V53h-2v-1.8h2v-3h2v2.9h1.6c.7-.1 1 .2.9.9v.9h-2.4V59c0 1.2.5 1.6 1.6 1.4 0 .1.2.1.5 0z" id="_x33_ezvtH.tif_1_"/><g id="_x35_MHn9z.tif"><path d="M466.1 26.4c.2-.2.4-.1.6-.1h2.6c.3 0 .5-.1.5-.5.1-2.8 1.2-5.2 3.1-7.1 2-2.1 4.5-3.3 7.5-3.4 1.8 0 3.4.2 5 .9 2.5 1.2 4.3 3 5.5 5.4.6 1.3.9 2.7 1 4.1 0 .4.2.5.5.5h2.6c.2 0 .4 0 .6.1-.2.2-.5.2-.7.2h-28c-.3.1-.6.1-.8-.1z" fill="#dcdcdc"/><path d="M492 26.4h3.7c0 2.7-.7 5.3-2.1 7.6-2.6 4.1-6.3 6.6-11.2 7-5 .5-9.2-1.2-12.6-5-2.3-2.6-3.5-5.7-3.7-9.2v-.5c1.2-.1 2.5 0 3.7 0 .3.3.3.6.3 1 .2 2.2 1 4.1 2.4 5.8 1.9 2.3 4.3 3.6 7.3 3.9 2.7.3 5.2-.4 7.4-2 2.4-1.8 3.8-4.2 4.4-7.1l.1-1c.1-.2.1-.4.3-.5z" fill="#696969"/><path d="M492 26.4c-.1 6.3-5.3 11-11.1 11s-10.9-4.7-11-11h21.5c.2-.1.4 0 .6 0z" fill="#313131"/></g><path d="M573.5 31.2c.7-2.3 1.3-4.2 1.9-6.2.2-.5.6-1 1.2-.8.7.2.6.8.4 1.3l-2.5 8c-.2.7-.6 1.2-1.3 1.1-.8-.1-1-.7-1.2-1.3l-2.1-6.3c-.9 2.6-1.4 4.4-2 6.2-.2.7-.4 1.5-1.4 1.5-.8-.1-1-.7-1.2-1.4l-2.4-7.7c-.1-.5-.4-1.1.2-1.4.8-.4 1.1.3 1.4.9.7 2 1.3 4.1 2 6.3 1.3-1.6 1.3-3.5 2.1-5.2.4-.8.2-2.2 1.6-2.1 1.1.1 1 1.2 1.4 2 .4 1.7.4 3.6 1.9 5.1zm-48.3-.9c1.5 3.2 3.6 3.3 6 2.4.7-.3 1.5-1.5 2.1-.3.4.8-.7 1.4-1.4 1.8-2.5 1.5-6.5.3-7.8-2.3-1.5-2.9 0-6.6 3.1-7.7 2.8-1 6 .6 6.9 3.5.5 1.7.2 2.7-1.9 2.5-1.1-.1-2.1 0-3.2 0-1.1.1-2.2.1-3.8.1zm3.6-1.4c1.1-.7 3.2 1 3.3-1.2.1-1.4-1.7-2-3.2-1.9-1.5 0-3.2.6-3.1 2.1 0 1.8 1.9.3 3 1zm-15.3.5c0 3-2.6 5.5-5.6 5.5s-5.4-2.3-5.5-5.2c-.1-3 2.3-5.7 5.3-5.7 3-.1 5.7 2.5 5.8 5.4zm-1.8-.3c-.2-2-1.5-3.3-3.8-3.3-2.4 0-3.9 1.4-3.9 3.8.1 2.3 1.6 3.6 3.8 3.6 2.4 0 3.8-1.3 3.9-4.1zm45.1 5.8c-3 0-5.6-2.7-5.5-5.6s2.9-5.5 5.8-5.4c2.9.1 5.2 2.6 5.2 5.5.1 3.2-2.4 5.6-5.5 5.5zm.1-9.2c-2.1.3-3.7 1.3-3.8 3.6-.1 2.6 1.5 3.9 3.8 3.9 2.1 0 3.8-1.3 3.8-3.6.1-2.4-1.5-3.6-3.8-3.9zm-42.5-1.6c2.1 2.2 2.3 5.4 4.1 8.2 1-2.4 1.9-4.6 2.9-6.9.3-.6.6-1.4 1.3-1.1 1.2.4.5 1.2.2 1.8l-3 7.5c-.5 1.1-1.7 2-2.4.7-1.6-3.1-2.9-6.5-4.2-9.8.3-.2.7-.3 1.1-.4zm27.7 4.3c0-1.7-.1-3.4 0-5.1.1-1.4.7-2.5 2-3 .8-.3 1.9-.7 2.3.1.5 1-.7 1-1.4 1.3s-1.1.7-1.1 1.4c0 .9.7.9 1.3 1 .7.1 1.3.2 1.2 1.1-.1.7-.8.7-1.2.6-1.6-.1-1.6 1-1.6 2.2v4.5c0 .8.3 2.1-.8 2.1-1.3.1-.8-1.2-.8-2-.1-1.4 0-2.8.1-4.2zm7.7-1.2v6.1c0 .5 0 1.2-.7 1.3-.9.1-1-.6-1-1.3V21c0-.6.2-1.1.9-1.1s.9.6.9 1.1c-.1 2.1-.1 4.2-.1 6.2zm-12.5-2.7c.6.6 1-.1 1.5-.2.6-.2 1.3-.6 1.7.2.3.8-.3 1.1-1 1.3-1.8.5-2.1 1.9-2.1 3.5v4.2c0 .6-.2 1.1-.9 1.1s-.8-.6-.8-1.1c0-2.8-.1-5.6 0-8.4 0-1.3.8-1.1 1.6-.6zm-5.2 3.2c-.1 2.2-2.2.4-3.3 1.2-1-.7-3 .8-3.1-1" id="nDFUVq.tif"/><path id="c3MI8k.tif_1_" d="M488.9 52.4L478.5 65c-.3.4-.6.4-.9 0l-10.4-12.6v-.3l.1-.1 3.9-5.6c.2-.3.4-.4.7-.4.7 0 1.4-.1 2.2-.1 1.4-.1 2.8-.2 4.3-.2 1.8 0 3.6.3 5.5.3.5 0 .8.2 1.1.6 1.3 1.9 2.6 3.7 3.9 5.5v.3zm-10.8 11.5l6-11.3H472c2.1 3.9 4 7.6 6.1 11.3zm0-17.4c-1.9 1.8-3.7 3.5-5.6 5.2h11.2c-1.9-1.7-3.8-3.4-5.6-5.2zm-9.5 6.2c2.3 2.8 4.5 5.5 6.7 8.2v-.1l-4.2-7.9c-.1-.1-.2-.2-.3-.2-.6-.1-1.4 0-2.2 0zm12.1 8.1c2.3-2.6 4.5-5.3 6.8-8.1h-1.9c-.4 0-.6.1-.7.4-.9 1.8-1.9 3.6-2.9 5.4-.4.7-.8 1.5-1.3 2.3zm-8.9-9.8h.1l4.8-4.5v-.1c-1.5.1-3 .2-4.6.3-.1 1.5-.2 2.9-.3 4.3zm7.6-4.5c1.6 1.6 3.2 3.1 4.9 4.7-.1-1.6-.2-3-.3-4.4-1.6-.1-3.1-.2-4.6-.3zm-10.8 5.3h2.3l.3-3.6h-.1c-.8 1.1-1.7 2.3-2.5 3.6zm19 0c-.9-1.3-1.7-2.5-2.6-3.7 0 0-.1 0-.1.1l.3 3.6h2.4z"/><path d="M493 56.8h1.9l.1.2c.8 3 3.8 4.3 6.6 2.8.8-.5 1.3-1.2 1.3-2.1 0-1-.5-1.7-1.3-2-1-.4-2-.6-3.1-.8-.7-.2-1.4-.3-2.1-.6-2.6-1-3.5-4.1-1.8-6.3 1.3-1.8 4.1-2.6 6.7-1.9 2.1.6 3.5 2.3 3.7 4.6v.6h-2l-.1-.6c-.2-1.4-.9-2.3-2.2-2.7-1.4-.4-2.9-.3-4 .8-1.2 1.1-.8 2.9.7 3.5.9.4 1.9.5 2.8.8.8.2 1.6.4 2.3.7 1.5.6 2.5 1.6 2.6 3.3.2 1.6-.3 3-1.6 4-2.1 1.7-6.2 1.8-8.4.2-1.4-1.1-2.2-2.8-2.1-4.5zm36.1.1h-8.9c0 1.5 1 2.7 2.3 3.2 1.5.5 3.2.1 3.9-1.1.7-1.2 1.6-1.1 2.6-1 0 2.4-2.9 4.4-5.8 4.2-3.5-.3-5.7-3.4-5.1-7.1.5-3.4 3.6-5.6 6.9-4.8 2.9.6 4.9 3.8 4.1 6.6zm-9-1.7h6.8c-.3-1.9-1.6-3-3.4-3-1.8 0-3.2 1.2-3.4 3zm-12.7 6.6V45.3c.1-.1.1-.1.2-.1 1.8-.2 1.8-.2 1.8 1.7v9l.3.2c.5-.6 1-1.2 1.5-1.7 1-1 2.1-2 3.1-3.1.5-.6 1.1-.9 1.9-.8.5.1.9 0 1.5 0l-4.7 4.7c1.8 2.3 3.4 4.5 5 6.6-1.3.5-2.4.3-3.2-.7-1.1-1.4-2.1-2.8-3.2-4.3-.7.7-1.5 1.3-2 2-.3.4-.2 1.1-.2 1.6 0 1.8.1 1.8-2 1.4zm52.1 0c-2.1.3-2.1.3-2.1-1.7v-5.2c0-2-.9-2.9-2.6-2.9-1.8 0-3 1-3 2.9-.1 2 0 3.9 0 5.9 0 1.1 0 1.1-1.2 1.1h-.9V45.3c2-.3 2-.3 2 1.5v4.4c.3-.2.5-.3.7-.4 1.6-.9 3.3-1 4.9-.1 1.6.8 2.1 2.3 2.1 4 .1 2.3.1 4.7.1 7.1zm-11.8-7H546c-.2 0-.4-.3-.4-.5-.7-1.6-1.8-2.3-3.4-2.3-1.6.1-2.8 1-3.2 2.6-.4 1.3-.3 2.6.4 3.8s1.7 1.8 3.1 1.7c1.3 0 2.4-.6 2.8-1.8.4-1 1-1.1 1.8-1h.6c0 1.7-1.3 3.5-3 4.2-3.9 1.7-8-1.2-7.9-5.6 0-4.1 3.5-6.9 7.3-5.8 2 .8 3.6 2.6 3.6 4.7zm-11.6 5.1c.1.1.1.2.1.2.1 1.8 0 1.9-1.8 1.8-1.7-.1-2.7-1.2-2.7-3v-6.6h-2.1v-1.9h2v-3.1h2.1v3.1h1.6c.8-.1 1 .2.9.9v.9h-2.5v6.3c0 1.2.5 1.6 1.7 1.5l.7-.1z" id="_x33_ezvtH.tif_2_"/><g id="XDcN57.tif"><path d="M666.2 41.3c1.5.5 1.9 1.6 1.8 3.1-.1 1.6 0 3.1 0 4.7 0 .4-.1.9.5 1 .2 0 .3.4.4.7l2 5.5c.1.3.2.6.4 1.1.2-.5.4-.8.5-1l1.8-4.8c.6-1.7.7-1.7 2.7-1.4l-2.7 6.6c-.3.7-.6 1.4-.8 2.1-.2.8-.7 1-1.5 1-.7 0-1-.3-1.2-.8l-1.4-3.6c-.1-.3-.3-.5-.6-.7v.9c0 2.2-.1 4.4 0 6.5.1 1.5-.3 2.6-1.8 3.1H646c-.9-.4-1.5-1-1.8-1.8V43.2c.4-.9 1-1.5 1.8-1.8 6.7-.1 13.4-.1 20.2-.1zm-12.7 18.5h1.5c.8.1 1.2-.3 1.3-1.1.3-1.6.8-3.3 1.2-4.9.1-.5.4-.9.7-1.3.5-.5 1.1-.7 1.7-.3.6.4.7.9.5 1.6-.1.3-.2.5-.2.8-.2 1.1-.5 2.3-.6 3.4-.1.9.6 1.5 1.4 1.7 1.4.4 2.7-.3 3.4-1.8.5-1 .4-1.1-.7-1.4-.1.2-.2.5-.4.7l-.9.7c-.1-.3-.2-.7-.2-1l.9-3.6c.3-1.2-.3-2.6-1.3-3.1-1-.6-2.2-.4-3.2.4-.3.2-.6.5-.9.8l.2-1.4h-3.3c-.2 0-.5.2-.6.4-.2.5-.3 1-.4 1.6.6.1 1.1.1 1.6.2-.3 1.3-.6 2.5-.9 3.7-.2.5-.4 1.1-.9 1.4-.5.3-1.1.4-1.7.6l-.1-1.6v-.1c.5-2 1-4 1.5-6.2h-3.9c-.1 0-.3.2-.4.3-.2.6-.3 1.1-.5 1.8.6 0 1.1.1 1.5.1 0 .2.1.2.1.3l-1 4.2c-.4 1.8.4 3.2 2 3.1.8 0 1.6-.6 2.4-1 .1 0 .1 0 .3-.1 0 .5-.1.7-.1 1.1zM652 49c.9 0 1.6-.7 1.6-1.5s-.8-1.6-1.6-1.6-1.5.7-1.6 1.5c0 .8.7 1.5 1.6 1.6zm63.6 11l-.7-.1c-1.5-.1-1.4.3-1.4-1.5v-4c0-1.7-.8-2.6-2.2-2.7-1.4-.1-2.4 1-2.5 2.6-.1 1.5-.1 3.1 0 4.6 0 .9-.4 1-1.1 1-.7 0-1-.2-1-1V51c0-.3 0-.6.1-.9h1.9c.1.4.1.8.2 1.4.3-.3.5-.4.7-.6 1-1.1 2.3-1.2 3.6-.9 1.3.4 2 1.3 2.2 2.6 0 .2.1.3.2.5V60z"/><path class="st6" d="M645.9 41.3c-.9.4-1.5 1-1.8 1.8v-1.8h1.8zm-1.8 22.2c.4.9 1 1.5 1.8 1.8h-1.8v-1.8z"/><path d="M705 54.9c0 2.9-2.2 5.1-5.2 5.2-2.9 0-5.2-2.2-5.2-5 0-3 2.2-5.2 5.1-5.2 3.1 0 5.3 2 5.3 5zm-8.3 0c-.2 1.6 1.1 3.4 3.2 3.4 1.8 0 3.1-1.4 3.1-3.3s-1.3-3.4-3.1-3.4c-1.9 0-3.2 1.4-3.2 3.3zm-15.4 3.7c.7-.8 1.4-1 2.3-.6.7.3 1.6.4 2.3.3.4 0 .9-.5 1.1-.9.3-.6-.2-1-.7-1.2-.7-.3-1.5-.5-2.3-.8-1.7-.6-2.5-1.7-2.3-3 .3-1.6 1.5-2.6 3.3-2.6 1.3 0 2.6.3 3.6 1-.5.9-1 1.1-2.1.8-.6-.1-1.2-.3-1.8-.2-.4.1-.9.6-1 1-.1.3.4.8.8 1 .5.3 1.2.5 1.8.7.3.1.7.2 1 .4 1.4.6 1.8 1.3 1.6 2.8-.1 1.2-.8 2-2 2.3-1.9.8-3.8.3-5.6-1zm-1.5-8.5v9.1c.1.9-.5.8-1.1.8-.5 0-1 .1-1-.7v-8.4c0-.6.2-.8.8-.7.3-.1.7-.1 1.3-.1zm11 0h2v9.7h-2v-9.7z"/><path class="st6" d="M696.7 54.9c0-1.9 1.3-3.3 3.1-3.3s3.1 1.5 3.1 3.4-1.3 3.3-3.1 3.3c-2 0-3.3-1.8-3.1-3.4z"/></g><path class="st2" d="M862.6 51.2c-.7 0-1.4-.2-1.9-.7l-8.6-7.8c-1.2-1.1-1.3-2.9-.2-4 1.1-1.2 2.9-1.3 4-.2l6.7 6.1 6.7-6.1c1.2-1.1 3-1 4 .2 1.1 1.2 1 3-.2 4l-8.7 7.8c-.4.5-1.1.7-1.8.7zm.4-3.9c-1.6 0-2.8-1.3-2.8-2.8 0-13.6-11.1-24.7-24.7-24.7-8.5 0-16.3 4.3-20.8 11.4-.8 1.3-2.6 1.7-3.9.9-1.3-.8-1.7-2.6-.9-3.9 5.6-8.8 15.2-14.1 25.6-14.1 16.7 0 30.4 13.6 30.4 30.4 0 1.6-1.3 2.8-2.9 2.8zm-27.3 28.1c-16.7 0-30.4-13.6-30.4-30.4 0-1.6 1.3-2.8 2.8-2.8 1.6 0 2.8 1.3 2.8 2.8 0 13.6 11.1 24.7 24.7 24.7 8.5 0 16.3-4.3 20.8-11.5.8-1.3 2.6-1.7 3.9-.9 1.3.8 1.7 2.6.9 3.9-5.5 8.9-15.1 14.2-25.5 14.2zM817 51.8c-.7 0-1.4-.2-1.9-.7l-6.7-6.1-6.7 6.1c-1.2 1-3 1-4-.2-1.1-1.2-1-3 .2-4l8.7-7.8c1.1-1 2.7-1 3.8 0l8.6 7.8c1.2 1.1 1.3 2.9.2 4-.7.5-1.5.9-2.2.9zM648.3 33.7h-.9c-.5 0-1-.4-1.1-1-.1-.5.2-1.1.7-1.3.9-.4 1.6-1 2.1-1.7-3.6-1.8-5.9-5.1-5.9-8.6 0-5.6 5.6-10.1 12.5-10.1s12.5 4.6 12.5 10.1-5.6 10.1-12.5 10.1h-.4c-1.8 1.6-4.2 2.5-7 2.5zm7.4-20.3c-5.6 0-10.1 3.5-10.1 7.7 0 2.9 2.2 5.6 5.7 6.9.3.1.6.4.7.7.1.3.1.7 0 1l-.1.1-.2.4c-.1.2-.2.4-.4.5 1-.4 1.9-.9 2.6-1.6.2-.3.6-.4.9-.4h.8c5.6 0 10.1-3.5 10.1-7.7s-4.4-7.6-10-7.6zm14.1 24c-1.6 0-3.1-.4-4.3-1.2h-.2c-4.7.9-9.4-1.3-11-5.1-.3-.6 0-1.3.6-1.6.6-.3 1.3 0 1.6.6 1.2 2.8 4.7 4.3 8.4 3.7l.6-.1c.4-.1.8 0 1.1.2.5.4 1 .6 1.6.8-.1-.1-.2-.2-.2-.3-.2-.3-.3-.7-.2-1s.2-.7.5-.8c2.5-1.6 3.9-4.1 3.5-6.5-.3-2-1.7-3.6-3.8-4.5-.6-.3-.9-1-.7-1.6.3-.6 1-.9 1.6-.7 2.9 1.2 4.9 3.6 5.3 6.4.5 3-.9 6.1-3.5 8.2.5.4 1.1.7 1.7.9.5.2.9.7.8 1.2 0 .5-.4 1-.9 1.1-.9.2-1.7.3-2.5.3z"/><path d="M823.3 46.3v-1.8l6.6-3.1v2l-4.3 2 4.3 2v2l-6.6-3.1zm13.5-6.5h1.9L833 52.2h-1.9l5.7-12.4zm9.8 4.6v1.8l-6.6 3.1v-2l4.3-2-4.3-2v-2l6.6 3.1z"/><path class="st2" d="M991.6 29.8c-7.3 0-13.3-6.7-13.3-14.9S984.3 0 991.6 0s13.3 6.7 13.3 14.9-6 14.9-13.3 14.9zm0-24.3c-4.3 0-7.8 4.2-7.8 9.4s3.5 9.4 7.8 9.4 7.8-4.2 7.8-9.4-3.6-9.4-7.8-9.4zm20.3 73.3c-9.5 0-17.2-7.7-17.2-17.2s7.7-17.2 17.2-17.2 17.2 7.7 17.2 17.2-7.7 17.2-17.2 17.2zm0-31.6c-8 0-14.4 6.5-14.4 14.4 0 8 6.5 14.4 14.4 14.4s14.4-6.5 14.4-14.4c0-8-6.4-14.4-14.4-14.4zm-15.8 17h-25c-1.5 0-2.7-1.1-2.8-2.6l-.9-13.1c-.3-4.8 3.4-10.4 8.2-12.1 10.2-3.6 21.4-3.6 31.5 0 3.6 1.3 6.7 4.7 7.8 8.7l-5.3 1.5c-.6-2.2-2.4-4.3-4.3-5-8.9-3.2-18.8-3.2-27.7 0-2.7 1-4.7 4.4-4.5 6.5l.7 10.5h22.4v5.6h-.1zm13 7.4c-.8 0-1.5-.3-2-.9l-4.6-4.8c-1.1-1.1-1-2.9.1-3.9 1.1-1.1 2.9-1 3.9.1l2.4 2.5 8.1-9.8c1-1.2 2.7-1.4 3.9-.4s1.4 2.7.4 3.9l-10 12.2c-.5.6-1.3 1-2 1-.1.1-.2.1-.2.1zm316.3-29.2c-.6 0-1.3-.2-1.8-.7-1-1-1-2.5 0-3.5l7.9-7.9-7.9-7.9c-1-1-1-2.5 0-3.5s2.5-1 3.5 0l9.6 9.6c1 1 1 2.5 0 3.5l-9.6 9.6c-.5.6-1.1.8-1.7.8zm6.5 32.3h-41.4c-5.1 0-9.3-4.2-9.3-9.3V37c0-5.1 4.2-9.3 9.3-9.3h15.3c1.3 0 2.3 1 2.3 2.3s-1 2.3-2.3 2.3h-15.3c-2.6 0-4.6 2.1-4.6 4.6v28.4c0 2.6 2.1 4.6 4.6 4.6h41.4c2.6 0 4.6-2.1 4.6-4.6V37c0-1.3 1-2.3 2.3-2.3s2.3 1 2.3 2.3v28.4c0 5.1-4.1 9.3-9.2 9.3zm-39.2-9.6h-.5c-1.3-.3-2.2-1.6-2-2.9 3.8-19.9 21.2-34.3 41.3-34.3 1.4 0 2.5 1.1 2.5 2.5s-1.1 2.5-2.5 2.5c-17.7 0-33 12.7-36.4 30.3-.2 1.1-1.3 1.9-2.4 1.9z"/><text transform="translate(0 174.246)" class="st7 st8">flowchart</text><text transform="translate(156.817 174.246)" class="st7 st8">mockups</text><text transform="translate(335.806 174.246)" class="st7 st8">static</text><text transform="translate(309.406 195.846)" class="st7 st8">wireframes</text><text transform="translate(470.279 174.246)" class="st7 st8">user flows</text><text transform="translate(465.479 195.846)" class="st7 st8">wireframes</text><text transform="translate(468.479 217.446)" class="st7 st8">(feedback)</text><text transform="rotate(-.81 12876.43 -44203.901)" class="st7 st9">visual design</text><text transform="rotate(-.81 14413.19 -45136.051)" class="st7 st9">prototype</text><text transform="rotate(-.81 15957.596 -44953.752)" class="st7 st9">(feedback)</text><text transform="translate(808.366 174.246)" class="st7 st8">refine</text><text transform="translate(789.166 195.846)" class="st7 st8">prototype</text><text transform="translate(759.466 217.446)" class="st7 st8">(front-end code)</text><text transform="translate(939.043 174.246)" class="st7 st8">user testing</text><text transform="translate(944.443 195.846)" class="st7 st8">(feedback)</text><text transform="translate(1103.268 174.246)" class="st7 st8">Analyze &amp;</text><text transform="translate(1109.268 195.846)" class="st7 st8">iteration</text><text transform="translate(1213.502 174.246)" class="st7 st8">code/documentation</text><text transform="translate(1235.902 195.846)" class="st7 st8">hand-off to devs</text><path class="st1" d="M41.1 115.5l125.8.5v2.1l5.7-3.3-5.7-3.3v2.1l-125.8-.5v2.4z"/><circle class="st1" cx="41.1" cy="114.3" r="25"/><circle class="st10" cx="41.1" cy="114.3" r="20"/><circle class="st1" cx="200.1" cy="114.3" r="25"/><circle class="st10" cx="200.1" cy="114.3" r="20"/><circle class="st1" cx="359.1" cy="114.3" r="25"/><circle class="st10" cx="359.1" cy="114.3" r="20"/><circle class="st1" cx="518.1" cy="114.3" r="25"/><circle class="st10" cx="518.1" cy="114.3" r="20"/><circle class="st1" cx="677.1" cy="114.3" r="25"/><circle class="st10" cx="677.1" cy="114.3" r="20"/><circle class="st1" cx="835.1" cy="114.3" r="25"/><circle class="st10" cx="835.1" cy="114.3" r="20"/><circle class="st1" cx="993.1" cy="114.3" r="25"/><circle class="st10" cx="993.1" cy="114.3" r="20"/><circle class="st1" cx="1151.1" cy="114.3" r="25"/><circle class="st10" cx="1151.1" cy="114.3" r="20"/><circle class="st1" cx="1309.1" cy="114.3" r="25"/><circle class="st10" cx="1309.1" cy="114.3" r="20"/><path class="st2" d="M1176.6 51.2c-.7 0-1.4-.2-1.9-.7l-8.6-7.8c-1.2-1.1-1.3-2.9-.2-4 1.1-1.2 2.9-1.3 4-.2l6.7 6.1 6.7-6.1c1.2-1.1 3-1 4 .2 1.1 1.2 1 3-.2 4l-8.7 7.8c-.4.5-1.1.7-1.8.7zm.4-3.9c-1.6 0-2.8-1.3-2.8-2.8 0-13.6-11.1-24.7-24.7-24.7-8.5 0-16.3 4.3-20.8 11.4-.8 1.3-2.6 1.7-3.9.9s-1.7-2.6-.9-3.9c5.6-8.8 15.2-14.1 25.6-14.1 16.7 0 30.4 13.6 30.4 30.4 0 1.6-1.3 2.8-2.9 2.8zm-27.3 28.1c-16.7 0-30.4-13.6-30.4-30.4 0-1.6 1.3-2.8 2.8-2.8 1.6 0 2.8 1.3 2.8 2.8 0 13.6 11.1 24.7 24.7 24.7 8.5 0 16.3-4.3 20.8-11.5.8-1.3 2.6-1.7 3.9-.9s1.7 2.6.9 3.9c-5.5 8.9-15.1 14.2-25.5 14.2zM1131 51.8c-.7 0-1.4-.2-1.9-.7l-6.7-6.1-6.7 6.1c-1.2 1-3 1-4-.2-1.1-1.2-1-3 .2-4l8.7-7.8c1.1-1 2.7-1 3.8 0l8.6 7.8c1.2 1.1 1.3 2.9.2 4-.7.5-1.5.9-2.2.9z"/></svg>