<?xml version="1.0" encoding="utf-8"?>
<!-- Generator: Adobe Illustrator 22.0.0, SVG Export Plug-In . SVG Version: 6.00 Build 0)  -->
<svg version="1.1" id="Layer_1" xmlns="http://www.w3.org/2000/svg" xmlns:xlink="http://www.w3.org/1999/xlink" x="0px" y="0px"
	 viewBox="0 0 1409.8 223.5" style="enable-background:new 0 0 1409.8 223.5;" xml:space="preserve">
<style type="text/css">
	.st0{fill:#F1F1F1;}
	.st1{fill:#79417A;}
	.st2{fill:#2A2A2A;}
	.st3{fill:#DCDCDC;}
	.st4{fill:#696969;}
	.st5{fill:#313131;}
	.st6{fill:#FFFFFF;}
	.st7{font-family:'Montserrat-Regular';}
	.st8{font-size:18px;}
	.st9{font-size:18.0018px;}
	.st10{fill:#99789B;}
</style>
<path class="st0" d="M-9.9-10.7h1431v247H-9.9L-9.9-10.7z"/>
<path class="st1" d="M200.1,115.5l125.8,0.5v2.1l5.7-3.3l-5.7-3.3v2.1l-125.8-0.5L200.1,115.5z M359.1,115.5l125.8,0.5v2.1l5.7-3.3
	l-5.7-3.3v2.1l-125.8-0.5L359.1,115.5z M518.1,115.5l125.8,0.5v2.1l5.7-3.3l-5.7-3.3v2.1l-125.8-0.5V115.5z M676.1,115.5l125.8,0.5
	v2.1l5.7-3.3l-5.7-3.3v2.1l-125.8-0.5V115.5z M834.1,115.5l125.8,0.5v2.1l5.7-3.3l-5.7-3.3v2.1l-125.8-0.5V115.5z M992.1,115.5
	l125.8,0.5v2.1l5.7-3.3l-5.7-3.3v2.1l-125.8-0.5L992.1,115.5z M1150.1,115.5l125.8,0.5v2.1l5.7-3.3l-5.7-3.3v2.1l-125.8-0.5V115.5z"
	/>
<path class="st2" d="M72.1,29.8c-1.7,0-3-1.3-3-3V8.3H50.6c-1.7,0-3-1.3-3-3s1.3-3,3-3h21.5c1.7,0,3,1.3,3,3v21.5
	C75.1,28.5,73.8,29.8,72.1,29.8z M41.3,30.6c-3.8,0-7.6-0.6-11.3-2c-8.2-2.9-14.9-8.7-18.8-16.5c-0.9-1.5-1.6-3.2-2.2-5
	c-0.5-1.6,0.4-3.3,2-3.8s3.3,0.4,3.8,1.9s1.1,2.9,1.7,4.2C19.7,15.8,25.2,20.7,32,23c7,2.5,14.6,2.1,21.3-1.1S65,13.1,67.5,6.1
	c0.6-1.6,2.3-2.4,3.8-1.8c1.6,0.6,2.4,2.3,1.8,3.8c-3,8.5-9.2,15.4-17.3,19.3C51.2,29.5,46.3,30.6,41.3,30.6z M9.3,29.8
	c-1.7,0-3-1.3-3-3V5.3c0-1.7,1.3-3,3-3h21.5c1.7,0,3,1.3,3,3s-1.3,3-3,3H12.3v18.5C12.3,28.5,10.9,29.8,9.3,29.8z M40.7,70.9
	c-1.7,0-3-1.3-3-3v-39c0-1.7,1.3-3,3-3s3,1.3,3,3v39C43.7,69.5,42.4,70.9,40.7,70.9z M178,63.2c-0.8,0-1.6-0.3-2.2-0.9
	c-0.6-0.6-1-1.5-0.9-2.4l0.8-13.8c0-0.8,0.4-1.5,0.9-2l41.2-41.3c0.6-0.6,1.4-0.9,2.2-0.9s1.6,0.3,2.2,0.9l13,13
	c0.6,0.6,0.9,1.4,0.9,2.2c0,0.8-0.3,1.6-0.9,2.2l-41.3,41.3c-0.5,0.5-1.3,0.9-2,0.9L178,63.2L178,63.2L178,63.2z M181.9,47.6
	l-0.5,9.1l9.1-0.5L228.6,18L220,9.4L181.9,47.6z M225.8,25.6c-0.4,0-0.8-0.2-1.1-0.5L213,13.4c-0.6-0.6-0.6-1.6,0-2.2s1.6-0.6,2.2,0
	l11.7,11.7c0.6,0.6,0.6,1.6,0,2.2C226.6,25.5,226.2,25.6,225.8,25.6L225.8,25.6z M180.2,50.4h-0.8c-0.3,0-0.5,0.1-0.7,0.2l-0.6,9.6
	l9.2-0.6c0.1-0.3,0.2-0.7,0.2-1.1C187.9,53.9,184.7,50.4,180.2,50.4L180.2,50.4z M234.3,76.3h-68.7c-1.7,0-3.1-1.4-3.1-3.1V4.4
	c0-1.7,1.4-3.1,3.1-3.1h34.1c1.7,0,3.1,1.4,3.1,3.1s-1.4,3.1-3.1,3.1h-30.9V70h62.4V39c0-1.7,1.4-3.1,3.1-3.1c1.7,0,3.1,1.4,3.1,3.1
	v34.1C237.4,74.9,236,76.3,234.3,76.3L234.3,76.3z"/>
<g id="_x36_aQzW2.tif">
	<path class="st2" d="M322,30.8l0.2-1.2c0.7-2.7,2.4-4.5,5-5.4c2.2-0.8,4.5-0.8,6.6,0.3c0.5,0.3,0.9,0.6,1.4,1v-1.3
		c0-0.4,0-0.4,0.4-0.4h2.9v14.7h-3.3v-1.7c-0.1,0-0.1,0.1-0.1,0.1c-1.3,1.2-2.8,1.8-4.5,1.8c-2.9,0.1-5.4-1-7.2-3.4
		c-0.8-1-1.2-2.2-1.3-3.5c0-0.1,0-0.1-0.1-0.2C322,31.6,322,30.8,322,30.8z M330.5,26.8c-1.5,0-2.6,0.4-3.5,1.1
		c-2,1.6-2.3,4.4-0.5,6.3c1.9,2,5.2,2.1,7.3,0.2c1.6-1.5,1.9-3.8,0.6-5.6C333.4,27.4,331.9,26.8,330.5,26.8z M397.4,33h-12.6
		c0.2,0.5,0.5,0.9,0.8,1.3c1.3,1.5,3.7,2,5.5,1.3c0.4-0.2,0.8-0.4,1.1-0.7c0.1-0.1,0.2-0.1,0.3-0.1c1.2,0.2,2.3,0.4,3.6,0.7
		c-0.3,0.3-0.5,0.6-0.7,0.8c-1.9,1.8-4.1,2.6-6.7,2.4c-3.2-0.3-5.6-1.7-6.9-4.7c-1.2-2.7-0.5-6,1.7-8c3.4-3.1,8.5-3.1,11.8,0
		c1.5,1.4,2.3,3.2,2.3,5.3C397.6,31.9,397.5,32.4,397.4,33L397.4,33z M393.9,30c-0.4-1.5-2.3-3.4-5-3.2c-1.7,0.1-4,1.8-4.2,3.2
		H393.9z M367.8,23.9h3.3v14.7h-3.3v-1.1h-0.1c-0.8,0.9-1.9,1.2-3.1,1.3c-1.8,0.1-3.5-0.2-5-1.3c-1.7-1.2-2.5-2.9-2.5-5v-8.7h3.3V32
		c0,2.5,2.2,3.8,4.2,3.6c1.6-0.2,2.8-1.3,3.1-2.8c0.1-0.2,0.1-0.5,0.1-0.8V23.9z M350.1,31.4l5.8,7.2h-3.8c-0.3,0-0.4-0.1-0.6-0.3
		l-3.3-4.1l-0.1-0.2l-0.2,0.2l-3.3,4.2c-0.1,0.1-0.2,0.2-0.3,0.2h-4l5.7-7.2c-2-2.5-3.9-5-6-7.5h3.9c0.2,0,0.3,0.1,0.4,0.2l3.4,4.4
		l0.2,0.3c0.1-0.1,0.1-0.2,0.2-0.2c1.2-1.5,2.3-3,3.5-4.4c0.1-0.1,0.2-0.2,0.3-0.2h4C354,26.5,352.1,28.9,350.1,31.4L350.1,31.4z
		 M376.4,25.1c1.4-1.1,3-1.2,4.7-1.2V27c-0.4,0-0.8,0-1.2,0.1c-0.7,0.1-1.4,0.3-2.1,0.7c-0.9,0.6-1.4,1.4-1.4,2.5v8.4h-3.3V24h3.3
		V25.1z"/>
</g>
<path id="c3MI8k.tif" class="st2" d="M341,53.2l-10,12.2c-0.3,0.4-0.5,0.4-0.8,0l-10-12.2v-0.3l0.1-0.1c1.3-1.8,2.5-3.6,3.7-5.4
	c0.2-0.3,0.4-0.4,0.7-0.4l2.1-0.1c1.4-0.1,2.7-0.2,4.1-0.2l5.3,0.3c0.5,0,0.8,0.2,1.1,0.6L341,53L341,53.2L341,53.2z M330.6,64.4
	c2-3.7,3.9-7.2,5.8-10.9h-11.6C326.7,57.1,328.6,60.7,330.6,64.4L330.6,64.4z M330.6,47.5c-1.8,1.7-3.6,3.3-5.4,5.1H336
	C334.1,50.9,332.4,49.2,330.6,47.5z M321.4,53.5c2.2,2.7,4.3,5.3,6.5,7.9v-0.1l-4.1-7.6c0-0.1-0.2-0.2-0.3-0.2
	C323.5,53.5,321.4,53.5,321.4,53.5z M333.1,61.3c2.2-2.6,4.3-5.2,6.6-7.8h-1.9c-0.4,0-0.6,0.1-0.7,0.4c-0.9,1.7-1.8,3.5-2.8,5.2
	C334.3,59.1,333.1,61.3,333.1,61.3z M324.5,51.9h0.1l4.6-4.3v-0.1l-4.4,0.3L324.5,51.9L324.5,51.9z M331.9,47.5
	c1.5,1.5,3.1,3,4.7,4.5c-0.1-1.5-0.2-2.9-0.3-4.2C334.7,47.7,333.3,47.6,331.9,47.5L331.9,47.5z M321.4,52.6h2.3l0.3-3.5h-0.1
	C323,50.2,322.2,51.4,321.4,52.6L321.4,52.6z M339.7,52.6c-0.9-1.2-1.7-2.4-2.5-3.6c0,0-0.1,0-0.1,0.1l0.3,3.5H339.7L339.7,52.6z"/>
<g id="_x33_ezvtH.tif_1_">
	<path class="st2" d="M345,57.4h1.8l0.1,0.2c0.8,2.9,3.7,4.2,6.4,2.7c0.8-0.4,1.2-1.1,1.2-2s-0.4-1.7-1.3-2l-3-0.8
		c-0.7-0.2-1.4-0.3-2-0.5c-2.5-0.9-3.4-3.9-1.8-6.1c1.3-1.7,4-2.5,6.4-1.8c2.1,0.6,3.3,2.2,3.6,4.4v0.6h-1.9l-0.1-0.6
		c-0.2-1.3-0.9-2.2-2.2-2.6c-1.4-0.3-2.8-0.3-3.9,0.7c-1.1,1.1-0.8,2.8,0.6,3.4l2.7,0.8l2.3,0.6c1.5,0.5,2.4,1.6,2.6,3.2
		c0.2,1.6-0.3,2.9-1.6,3.9c-2,1.6-6,1.7-8.1,0.2C345.6,60.7,344.9,59.1,345,57.4L345,57.4z M379.8,57.5h-8.6c0,1.4,0.9,2.6,2.3,3.1
		s3.1,0.1,3.8-1.1c0.6-1.2,1.5-1,2.5-0.9c0,2.3-2.8,4.3-5.6,4c-3.4-0.3-5.5-3.2-5-6.9c0.5-3.3,3.5-5.4,6.7-4.7
		C378.6,51.7,380.6,54.8,379.8,57.5L379.8,57.5z M371.1,55.9h6.6c-0.3-1.8-1.5-2.9-3.3-2.9C372.7,53,371.3,54.2,371.1,55.9
		L371.1,55.9z M358.9,62.3V46.4c0.1-0.1,0.1-0.1,0.2-0.1c1.8-0.2,1.8-0.2,1.8,1.6v8.7c0.1,0.1,0.2,0.1,0.2,0.2l1.5-1.7l3-3
		c0.5-0.6,1.1-0.9,1.8-0.8c0.5,0.1,0.9,0,1.4,0l-4.5,4.5c1.7,2.2,3.3,4.3,4.8,6.4c-1.2,0.5-2.3,0.2-3-0.7c-1-1.4-2-2.7-3.1-4.2
		c-0.7,0.7-1.4,1.2-1.9,1.9c-0.3,0.4-0.2,1-0.2,1.6C360.8,62.6,360.8,62.6,358.9,62.3L358.9,62.3z M409.1,62.3c-2,0.3-2,0.3-2-1.6
		v-5c0-1.9-0.8-2.8-2.5-2.8s-2.9,1-2.9,2.8c-0.1,1.9,0,3.8,0,5.7c0,1.1,0,1.1-1.1,1.1h-0.8v-16c1.9-0.3,1.9-0.3,1.9,1.5v4.3
		c0.3-0.2,0.5-0.3,0.7-0.4c1.6-0.9,3.2-1,4.7-0.1c1.5,0.8,2,2.2,2,3.8L409.1,62.3L409.1,62.3z M397.8,55.5h-1.6
		c-0.2,0-0.4-0.3-0.4-0.5c-0.7-1.5-1.7-2.3-3.3-2.2c-1.5,0.1-2.7,1-3.1,2.5c-0.4,1.3-0.3,2.5,0.4,3.7c0.7,1.2,1.7,1.7,3,1.7
		c1.2,0,2.3-0.5,2.7-1.7c0.3-1,0.9-1,1.7-1h0.6c0,1.6-1.2,3.4-2.9,4.1c-3.8,1.6-7.7-1.2-7.7-5.4c0-4,3.3-6.6,7-5.6
		C396.2,51.8,397.7,53.5,397.8,55.5L397.8,55.5z M386.6,60.4c0,0.1,0.1,0.2,0.1,0.2c0.1,1.7,0,1.8-1.7,1.7s-2.6-1.1-2.6-2.9V53h-2
		v-1.8h2v-3h2v2.9h1.6c0.7-0.1,1,0.2,0.9,0.9v0.9h-2.4V59c0,1.2,0.5,1.6,1.6,1.4C386.1,60.5,386.3,60.5,386.6,60.4z"/>
</g>
<g id="_x35_MHn9z.tif">
	<path class="st3" d="M466.1,26.4c0.2-0.2,0.4-0.1,0.6-0.1h2.6c0.3,0,0.5-0.1,0.5-0.5c0.1-2.8,1.2-5.2,3.1-7.1
		c2-2.1,4.5-3.3,7.5-3.4c1.8,0,3.4,0.2,5,0.9c2.5,1.2,4.3,3,5.5,5.4c0.6,1.3,0.9,2.7,1,4.1c0,0.4,0.2,0.5,0.5,0.5h2.6
		c0.2,0,0.4,0,0.6,0.1c-0.2,0.2-0.5,0.2-0.7,0.2h-28C466.6,26.6,466.3,26.6,466.1,26.4L466.1,26.4z"/>
	<path class="st4" d="M492,26.4h3.7c0,2.7-0.7,5.3-2.1,7.6c-2.6,4.1-6.3,6.6-11.2,7c-5,0.5-9.2-1.2-12.6-5c-2.3-2.6-3.5-5.7-3.7-9.2
		v-0.5c1.2-0.1,2.5,0,3.7,0c0.3,0.3,0.3,0.6,0.3,1c0.2,2.2,1,4.1,2.4,5.8c1.9,2.3,4.3,3.6,7.3,3.9c2.7,0.3,5.2-0.4,7.4-2
		c2.4-1.8,3.8-4.2,4.4-7.1l0.1-1C491.8,26.7,491.8,26.5,492,26.4L492,26.4z"/>
	<path class="st5" d="M492,26.4c-0.1,6.3-5.3,11-11.1,11s-10.9-4.7-11-11h21.5C491.6,26.3,491.8,26.4,492,26.4z"/>
</g>
<g id="nDFUVq.tif">
	<path d="M573.5,31.2c0.7-2.3,1.3-4.2,1.9-6.2c0.2-0.5,0.6-1,1.2-0.8c0.7,0.2,0.6,0.8,0.4,1.3l-2.5,8c-0.2,0.7-0.6,1.2-1.3,1.1
		c-0.8-0.1-1-0.7-1.2-1.3l-2.1-6.3c-0.9,2.6-1.4,4.4-2,6.2c-0.2,0.7-0.4,1.5-1.4,1.5c-0.8-0.1-1-0.7-1.2-1.4l-2.4-7.7
		c-0.1-0.5-0.4-1.1,0.2-1.4c0.8-0.4,1.1,0.3,1.4,0.9c0.7,2,1.3,4.1,2,6.3c1.3-1.6,1.3-3.5,2.1-5.2c0.4-0.8,0.2-2.2,1.6-2.1
		c1.1,0.1,1,1.2,1.4,2C572,27.8,572,29.7,573.5,31.2L573.5,31.2z M525.2,30.3c1.5,3.2,3.6,3.3,6,2.4c0.7-0.3,1.5-1.5,2.1-0.3
		c0.4,0.8-0.7,1.4-1.4,1.8c-2.5,1.5-6.5,0.3-7.8-2.3c-1.5-2.9,0-6.6,3.1-7.7c2.8-1,6,0.6,6.9,3.5c0.5,1.7,0.2,2.7-1.9,2.5
		c-1.1-0.1-2.1,0-3.2,0C527.9,30.3,526.8,30.3,525.2,30.3L525.2,30.3z M528.8,28.9c1.1-0.7,3.2,1,3.3-1.2c0.1-1.4-1.7-2-3.2-1.9
		c-1.5,0-3.2,0.6-3.1,2.1C525.8,29.7,527.7,28.2,528.8,28.9z M513.5,29.4c0,3-2.6,5.5-5.6,5.5s-5.4-2.3-5.5-5.2
		c-0.1-3,2.3-5.7,5.3-5.7C510.7,23.9,513.4,26.5,513.5,29.4z M511.7,29.1c-0.2-2-1.5-3.3-3.8-3.3c-2.4,0-3.9,1.4-3.9,3.8
		c0.1,2.3,1.6,3.6,3.8,3.6C510.2,33.2,511.6,31.9,511.7,29.1z M556.8,34.9c-3,0-5.6-2.7-5.5-5.6s2.9-5.5,5.8-5.4
		c2.9,0.1,5.2,2.6,5.2,5.5C562.4,32.6,559.9,35,556.8,34.9z M556.9,25.7c-2.1,0.3-3.7,1.3-3.8,3.6c-0.1,2.6,1.5,3.9,3.8,3.9
		c2.1,0,3.8-1.3,3.8-3.6C560.8,27.2,559.2,26,556.9,25.7z M514.4,24.1c2.1,2.2,2.3,5.4,4.1,8.2c1-2.4,1.9-4.6,2.9-6.9
		c0.3-0.6,0.6-1.4,1.3-1.1c1.2,0.4,0.5,1.2,0.2,1.8l-3,7.5c-0.5,1.1-1.7,2-2.4,0.7c-1.6-3.1-2.9-6.5-4.2-9.8
		C513.6,24.3,514,24.2,514.4,24.1L514.4,24.1z M542.1,28.4c0-1.7-0.1-3.4,0-5.1c0.1-1.4,0.7-2.5,2-3c0.8-0.3,1.9-0.7,2.3,0.1
		c0.5,1-0.7,1-1.4,1.3s-1.1,0.7-1.1,1.4c0,0.9,0.7,0.9,1.3,1c0.7,0.1,1.3,0.2,1.2,1.1c-0.1,0.7-0.8,0.7-1.2,0.6
		c-1.6-0.1-1.6,1-1.6,2.2v4.5c0,0.8,0.3,2.1-0.8,2.1c-1.3,0.1-0.8-1.2-0.8-2C541.9,31.2,542,29.8,542.1,28.4z M549.8,27.2v6.1
		c0,0.5,0,1.2-0.7,1.3c-0.9,0.1-1-0.6-1-1.3V21c0-0.6,0.2-1.1,0.9-1.1s0.9,0.6,0.9,1.1C549.8,23.1,549.8,25.2,549.8,27.2L549.8,27.2
		z M537.3,24.5c0.6,0.6,1-0.1,1.5-0.2c0.6-0.2,1.3-0.6,1.7,0.2c0.3,0.8-0.3,1.1-1,1.3c-1.8,0.5-2.1,1.9-2.1,3.5v4.2
		c0,0.6-0.2,1.1-0.9,1.1s-0.8-0.6-0.8-1.1c0-2.8-0.1-5.6,0-8.4C535.7,23.8,536.5,24,537.3,24.5z M532.1,27.7
		c-0.1,2.2-2.2,0.4-3.3,1.2c-1-0.7-3,0.8-3.1-1"/>
</g>
<path id="c3MI8k.tif_1_" d="M488.9,52.4L478.5,65c-0.3,0.4-0.6,0.4-0.9,0l-10.4-12.6v-0.3l0.1-0.1l3.9-5.6c0.2-0.3,0.4-0.4,0.7-0.4
	c0.7,0,1.4-0.1,2.2-0.1c1.4-0.1,2.8-0.2,4.3-0.2c1.8,0,3.6,0.3,5.5,0.3c0.5,0,0.8,0.2,1.1,0.6c1.3,1.9,2.6,3.7,3.9,5.5L488.9,52.4
	L488.9,52.4z M478.1,63.9l6-11.3H472C474.1,56.5,476,60.2,478.1,63.9z M478.1,46.5c-1.9,1.8-3.7,3.5-5.6,5.2h11.2
	C481.8,50,479.9,48.3,478.1,46.5z M468.6,52.7c2.3,2.8,4.5,5.5,6.7,8.2v-0.1l-4.2-7.9c-0.1-0.1-0.2-0.2-0.3-0.2
	C470.2,52.6,469.4,52.7,468.6,52.7z M480.7,60.8c2.3-2.6,4.5-5.3,6.8-8.1h-1.9c-0.4,0-0.6,0.1-0.7,0.4c-0.9,1.8-1.9,3.6-2.9,5.4
	C481.6,59.2,481.2,60,480.7,60.8z M471.8,51h0.1l4.8-4.5v-0.1c-1.5,0.1-3,0.2-4.6,0.3C472,48.2,471.9,49.6,471.8,51z M479.4,46.5
	L479.4,46.5c1.6,1.6,3.2,3.1,4.9,4.7c-0.1-1.6-0.2-3-0.3-4.4C482.4,46.7,480.9,46.6,479.4,46.5z M468.6,51.8h2.3l0.3-3.6h-0.1
	C470.3,49.3,469.4,50.5,468.6,51.8L468.6,51.8z M487.6,51.8c-0.9-1.3-1.7-2.5-2.6-3.7c0,0-0.1,0-0.1,0.1l0.3,3.6L487.6,51.8
	L487.6,51.8z"/>
<g id="_x33_ezvtH.tif_2_">
	<path d="M493,56.8h1.9L495,57c0.8,3,3.8,4.3,6.6,2.8c0.8-0.5,1.3-1.2,1.3-2.1c0-1-0.5-1.7-1.3-2c-1-0.4-2-0.6-3.1-0.8
		c-0.7-0.2-1.4-0.3-2.1-0.6c-2.6-1-3.5-4.1-1.8-6.3c1.3-1.8,4.1-2.6,6.7-1.9c2.1,0.6,3.5,2.3,3.7,4.6v0.6h-2l-0.1-0.6
		c-0.2-1.4-0.9-2.3-2.2-2.7c-1.4-0.4-2.9-0.3-4,0.8c-1.2,1.1-0.8,2.9,0.7,3.5c0.9,0.4,1.9,0.5,2.8,0.8c0.8,0.2,1.6,0.4,2.3,0.7
		c1.5,0.6,2.5,1.6,2.6,3.3c0.2,1.6-0.3,3-1.6,4c-2.1,1.7-6.2,1.8-8.4,0.2C493.7,60.2,492.9,58.5,493,56.8z M529.1,56.9h-8.9
		c0,1.5,1,2.7,2.3,3.2c1.5,0.5,3.2,0.1,3.9-1.1c0.7-1.2,1.6-1.1,2.6-1c0,2.4-2.9,4.4-5.8,4.2c-3.5-0.3-5.7-3.4-5.1-7.1
		c0.5-3.4,3.6-5.6,6.9-4.8C527.9,50.9,529.9,54.1,529.1,56.9z M520.1,55.2h6.8c-0.3-1.9-1.6-3-3.4-3
		C521.7,52.2,520.3,53.4,520.1,55.2L520.1,55.2z M507.4,61.8V45.3c0.1-0.1,0.1-0.1,0.2-0.1c1.8-0.2,1.8-0.2,1.8,1.7v9l0.3,0.2
		c0.5-0.6,1-1.2,1.5-1.7c1-1,2.1-2,3.1-3.1c0.5-0.6,1.1-0.9,1.9-0.8c0.5,0.1,0.9,0,1.5,0l-4.7,4.7c1.8,2.3,3.4,4.5,5,6.6
		c-1.3,0.5-2.4,0.3-3.2-0.7c-1.1-1.4-2.1-2.8-3.2-4.3c-0.7,0.7-1.5,1.3-2,2c-0.3,0.4-0.2,1.1-0.2,1.6
		C509.4,62.2,509.5,62.2,507.4,61.8L507.4,61.8z M559.5,61.8c-2.1,0.3-2.1,0.3-2.1-1.7v-5.2c0-2-0.9-2.9-2.6-2.9c-1.8,0-3,1-3,2.9
		c-0.1,2,0,3.9,0,5.9c0,1.1,0,1.1-1.2,1.1h-0.9V45.3c2-0.3,2-0.3,2,1.5v4.4c0.3-0.2,0.5-0.3,0.7-0.4c1.6-0.9,3.3-1,4.9-0.1
		c1.6,0.8,2.1,2.3,2.1,4C559.5,57,559.5,59.4,559.5,61.8z M547.7,54.8H546c-0.2,0-0.4-0.3-0.4-0.5c-0.7-1.6-1.8-2.3-3.4-2.3
		c-1.6,0.1-2.8,1-3.2,2.6c-0.4,1.3-0.3,2.6,0.4,3.8s1.7,1.8,3.1,1.7c1.3,0,2.4-0.6,2.8-1.8c0.4-1,1-1.1,1.8-1h0.6
		c0,1.7-1.3,3.5-3,4.2c-3.9,1.7-8-1.2-7.9-5.6c0-4.1,3.5-6.9,7.3-5.8C546.1,50.9,547.7,52.7,547.7,54.8L547.7,54.8z M536.1,59.9
		c0.1,0.1,0.1,0.2,0.1,0.2c0.1,1.8,0,1.9-1.8,1.8c-1.7-0.1-2.7-1.2-2.7-3v-6.6h-2.1v-1.9h2v-3.1h2.1v3.1h1.6c0.8-0.1,1,0.2,0.9,0.9
		v0.9h-2.5v6.3c0,1.2,0.5,1.6,1.7,1.5C535.4,60,536.1,59.9,536.1,59.9z"/>
</g>
<g id="XDcN57.tif">
	<path d="M666.2,41.3c1.5,0.5,1.9,1.6,1.8,3.1c-0.1,1.6,0,3.1,0,4.7c0,0.4-0.1,0.9,0.5,1c0.2,0,0.3,0.4,0.4,0.7l2,5.5
		c0.1,0.3,0.2,0.6,0.4,1.1c0.2-0.5,0.4-0.8,0.5-1l1.8-4.8c0.6-1.7,0.7-1.7,2.7-1.4l-2.7,6.6c-0.3,0.7-0.6,1.4-0.8,2.1
		c-0.2,0.8-0.7,1-1.5,1c-0.7,0-1-0.3-1.2-0.8l-1.4-3.6c-0.1-0.3-0.3-0.5-0.6-0.7v0.9c0,2.2-0.1,4.4,0,6.5c0.1,1.5-0.3,2.6-1.8,3.1
		H646c-0.9-0.4-1.5-1-1.8-1.8V43.2c0.4-0.9,1-1.5,1.8-1.8C652.7,41.3,659.4,41.3,666.2,41.3L666.2,41.3z M653.5,59.8h1.5
		c0.8,0.1,1.2-0.3,1.3-1.1c0.3-1.6,0.8-3.3,1.2-4.9c0.1-0.5,0.4-0.9,0.7-1.3c0.5-0.5,1.1-0.7,1.7-0.3c0.6,0.4,0.7,0.9,0.5,1.6
		c-0.1,0.3-0.2,0.5-0.2,0.8c-0.2,1.1-0.5,2.3-0.6,3.4c-0.1,0.9,0.6,1.5,1.4,1.7c1.4,0.4,2.7-0.3,3.4-1.8c0.5-1,0.4-1.1-0.7-1.4
		c-0.1,0.2-0.2,0.5-0.4,0.7l-0.9,0.7c-0.1-0.3-0.2-0.7-0.2-1l0.9-3.6c0.3-1.2-0.3-2.6-1.3-3.1c-1-0.6-2.2-0.4-3.2,0.4
		c-0.3,0.2-0.6,0.5-0.9,0.8l0.2-1.4h-3.3c-0.2,0-0.5,0.2-0.6,0.4c-0.2,0.5-0.3,1-0.4,1.6c0.6,0.1,1.1,0.1,1.6,0.2
		c-0.3,1.3-0.6,2.5-0.9,3.7c-0.2,0.5-0.4,1.1-0.9,1.4c-0.5,0.3-1.1,0.4-1.7,0.6l-0.1-1.6v-0.1c0.5-2,1-4,1.5-6.2h-3.9
		c-0.1,0-0.3,0.2-0.4,0.3c-0.2,0.6-0.3,1.1-0.5,1.8c0.6,0,1.1,0.1,1.5,0.1c0,0.2,0.1,0.2,0.1,0.3l-1,4.2c-0.4,1.8,0.4,3.2,2,3.1
		c0.8,0,1.6-0.6,2.4-1c0.1,0,0.1,0,0.3-0.1C653.6,59.2,653.5,59.4,653.5,59.8L653.5,59.8z M652,49c0.9,0,1.6-0.7,1.6-1.5
		s-0.8-1.6-1.6-1.6s-1.5,0.7-1.6,1.5C650.4,48.2,651.1,48.9,652,49z M715.6,60l-0.7-0.1c-1.5-0.1-1.4,0.3-1.4-1.5v-4
		c0-1.7-0.8-2.6-2.2-2.7c-1.4-0.1-2.4,1-2.5,2.6c-0.1,1.5-0.1,3.1,0,4.6c0,0.9-0.4,1-1.1,1c-0.7,0-1-0.2-1-1V51c0-0.3,0-0.6,0.1-0.9
		h1.9c0.1,0.4,0.1,0.8,0.2,1.4c0.3-0.3,0.5-0.4,0.7-0.6c1-1.1,2.3-1.2,3.6-0.9c1.3,0.4,2,1.3,2.2,2.6c0,0.2,0.1,0.3,0.2,0.5
		C715.6,53.1,715.6,60,715.6,60z"/>
	<path class="st6" d="M645.9,41.3c-0.9,0.4-1.5,1-1.8,1.8v-1.8H645.9z M644.1,63.5c0.4,0.9,1,1.5,1.8,1.8h-1.8
		C644.1,65.3,644.1,63.5,644.1,63.5z"/>
	<path d="M705,54.9c0,2.9-2.2,5.1-5.2,5.2c-2.9,0-5.2-2.2-5.2-5c0-3,2.2-5.2,5.1-5.2C702.8,49.9,705,51.9,705,54.9L705,54.9z
		 M696.7,54.9c-0.2,1.6,1.1,3.4,3.2,3.4c1.8,0,3.1-1.4,3.1-3.3s-1.3-3.4-3.1-3.4C698,51.6,696.7,53,696.7,54.9z M681.3,58.6
		c0.7-0.8,1.4-1,2.3-0.6c0.7,0.3,1.6,0.4,2.3,0.3c0.4,0,0.9-0.5,1.1-0.9c0.3-0.6-0.2-1-0.7-1.2c-0.7-0.3-1.5-0.5-2.3-0.8
		c-1.7-0.6-2.5-1.7-2.3-3c0.3-1.6,1.5-2.6,3.3-2.6c1.3,0,2.6,0.3,3.6,1c-0.5,0.9-1,1.1-2.1,0.8c-0.6-0.1-1.2-0.3-1.8-0.2
		c-0.4,0.1-0.9,0.6-1,1c-0.1,0.3,0.4,0.8,0.8,1c0.5,0.3,1.2,0.5,1.8,0.7c0.3,0.1,0.7,0.2,1,0.4c1.4,0.6,1.8,1.3,1.6,2.8
		c-0.1,1.2-0.8,2-2,2.3C685,60.4,683.1,59.9,681.3,58.6L681.3,58.6z M679.8,50.1v9.1c0.1,0.9-0.5,0.8-1.1,0.8c-0.5,0-1,0.1-1-0.7
		v-8.4c0-0.6,0.2-0.8,0.8-0.7C678.8,50.1,679.2,50.1,679.8,50.1z M690.8,50.1h2v9.7h-2V50.1z"/>
	<path class="st6" d="M696.7,54.9c0-1.9,1.3-3.3,3.1-3.3s3.1,1.5,3.1,3.4s-1.3,3.3-3.1,3.3C697.8,58.3,696.5,56.5,696.7,54.9z"/>
</g>
<path class="st2" d="M862.6,51.2c-0.7,0-1.4-0.2-1.9-0.7l-8.6-7.8c-1.2-1.1-1.3-2.9-0.2-4c1.1-1.2,2.9-1.3,4-0.2l6.7,6.1l6.7-6.1
	c1.2-1.1,3-1,4,0.2c1.1,1.2,1,3-0.2,4l-8.7,7.8C864,51,863.3,51.2,862.6,51.2z M863,47.3c-1.6,0-2.8-1.3-2.8-2.8
	c0-13.6-11.1-24.7-24.7-24.7c-8.5,0-16.3,4.3-20.8,11.4c-0.8,1.3-2.6,1.7-3.9,0.9c-1.3-0.8-1.7-2.6-0.9-3.9
	c5.6-8.8,15.2-14.1,25.6-14.1c16.7,0,30.4,13.6,30.4,30.4C865.9,46.1,864.6,47.3,863,47.3L863,47.3z M835.7,75.4
	c-16.7,0-30.4-13.6-30.4-30.4c0-1.6,1.3-2.8,2.8-2.8c1.6,0,2.8,1.3,2.8,2.8c0,13.6,11.1,24.7,24.7,24.7c8.5,0,16.3-4.3,20.8-11.5
	c0.8-1.3,2.6-1.7,3.9-0.9c1.3,0.8,1.7,2.6,0.9,3.9C855.7,70.1,846.1,75.4,835.7,75.4z M817,51.8c-0.7,0-1.4-0.2-1.9-0.7l-6.7-6.1
	l-6.7,6.1c-1.2,1-3,1-4-0.2c-1.1-1.2-1-3,0.2-4l8.7-7.8c1.1-1,2.7-1,3.8,0l8.6,7.8c1.2,1.1,1.3,2.9,0.2,4
	C818.5,51.4,817.7,51.8,817,51.8L817,51.8z M648.3,33.7h-0.9c-0.5,0-1-0.4-1.1-1c-0.1-0.5,0.2-1.1,0.7-1.3c0.9-0.4,1.6-1,2.1-1.7
	c-3.6-1.8-5.9-5.1-5.9-8.6c0-5.6,5.6-10.1,12.5-10.1s12.5,4.6,12.5,10.1s-5.6,10.1-12.5,10.1h-0.4C653.5,32.8,651.1,33.7,648.3,33.7
	L648.3,33.7z M655.7,13.4c-5.6,0-10.1,3.5-10.1,7.7c0,2.9,2.2,5.6,5.7,6.9c0.3,0.1,0.6,0.4,0.7,0.7c0.1,0.3,0.1,0.7,0,1l-0.1,0.1
	l-0.2,0.4c-0.1,0.2-0.2,0.4-0.4,0.5c1-0.4,1.9-0.9,2.6-1.6c0.2-0.3,0.6-0.4,0.9-0.4h0.8c5.6,0,10.1-3.5,10.1-7.7
	S661.3,13.4,655.7,13.4z M669.8,37.4c-1.6,0-3.1-0.4-4.3-1.2h-0.2c-4.7,0.9-9.4-1.3-11-5.1c-0.3-0.6,0-1.3,0.6-1.6
	c0.6-0.3,1.3,0,1.6,0.6c1.2,2.8,4.7,4.3,8.4,3.7l0.6-0.1c0.4-0.1,0.8,0,1.1,0.2c0.5,0.4,1,0.6,1.6,0.8c-0.1-0.1-0.2-0.2-0.2-0.3
	c-0.2-0.3-0.3-0.7-0.2-1s0.2-0.7,0.5-0.8c2.5-1.6,3.9-4.1,3.5-6.5c-0.3-2-1.7-3.6-3.8-4.5c-0.6-0.3-0.9-1-0.7-1.6
	c0.3-0.6,1-0.9,1.6-0.7c2.9,1.2,4.9,3.6,5.3,6.4c0.5,3-0.9,6.1-3.5,8.2c0.5,0.4,1.1,0.7,1.7,0.9c0.5,0.2,0.9,0.7,0.8,1.2
	c0,0.5-0.4,1-0.9,1.1C671.4,37.3,670.6,37.4,669.8,37.4L669.8,37.4z"/>
<path d="M823.3,46.3v-1.8l6.6-3.1v2l-4.3,2l4.3,2v2C829.9,49.4,823.3,46.3,823.3,46.3z M836.8,39.8h1.9L833,52.2h-1.9
	C831.1,52.2,836.8,39.8,836.8,39.8z M846.6,44.4v1.8l-6.6,3.1v-2l4.3-2l-4.3-2v-2C840,41.3,846.6,44.4,846.6,44.4z"/>
<path class="st2" d="M991.6,29.8c-7.3,0-13.3-6.7-13.3-14.9S984.3,0,991.6,0s13.3,6.7,13.3,14.9S998.9,29.8,991.6,29.8z M991.6,5.5
	c-4.3,0-7.8,4.2-7.8,9.4s3.5,9.4,7.8,9.4s7.8-4.2,7.8-9.4S995.8,5.5,991.6,5.5z M1011.9,78.8c-9.5,0-17.2-7.7-17.2-17.2
	s7.7-17.2,17.2-17.2s17.2,7.7,17.2,17.2S1021.4,78.8,1011.9,78.8L1011.9,78.8z M1011.9,47.2c-8,0-14.4,6.5-14.4,14.4
	c0,8,6.5,14.4,14.4,14.4s14.4-6.5,14.4-14.4C1026.3,53.6,1019.9,47.2,1011.9,47.2z M996.1,64.2h-25c-1.5,0-2.7-1.1-2.8-2.6
	l-0.9-13.1c-0.3-4.8,3.4-10.4,8.2-12.1c10.2-3.6,21.4-3.6,31.5,0c3.6,1.3,6.7,4.7,7.8,8.7l-5.3,1.5c-0.6-2.2-2.4-4.3-4.3-5
	c-8.9-3.2-18.8-3.2-27.7,0c-2.7,1-4.7,4.4-4.5,6.5l0.7,10.5h22.4v5.6L996.1,64.2L996.1,64.2z M1009.1,71.6c-0.8,0-1.5-0.3-2-0.9
	l-4.6-4.8c-1.1-1.1-1-2.9,0.1-3.9c1.1-1.1,2.9-1,3.9,0.1l2.4,2.5l8.1-9.8c1-1.2,2.7-1.4,3.9-0.4s1.4,2.7,0.4,3.9l-10,12.2
	c-0.5,0.6-1.3,1-2,1C1009.2,71.6,1009.1,71.6,1009.1,71.6L1009.1,71.6z M1325.4,42.4c-0.6,0-1.3-0.2-1.8-0.7c-1-1-1-2.5,0-3.5
	l7.9-7.9l-7.9-7.9c-1-1-1-2.5,0-3.5s2.5-1,3.5,0l9.6,9.6c1,1,1,2.5,0,3.5l-9.6,9.6C1326.6,42.2,1326,42.4,1325.4,42.4z M1331.9,74.7
	h-41.4c-5.1,0-9.3-4.2-9.3-9.3V37c0-5.1,4.2-9.3,9.3-9.3h15.3c1.3,0,2.3,1,2.3,2.3s-1,2.3-2.3,2.3h-15.3c-2.6,0-4.6,2.1-4.6,4.6
	v28.4c0,2.6,2.1,4.6,4.6,4.6h41.4c2.6,0,4.6-2.1,4.6-4.6V37c0-1.3,1-2.3,2.3-2.3s2.3,1,2.3,2.3v28.4
	C1341.1,70.5,1337,74.7,1331.9,74.7L1331.9,74.7z M1292.7,65.1h-0.5c-1.3-0.3-2.2-1.6-2-2.9c3.8-19.9,21.2-34.3,41.3-34.3
	c1.4,0,2.5,1.1,2.5,2.5s-1.1,2.5-2.5,2.5c-17.7,0-33,12.7-36.4,30.3C1294.9,64.3,1293.8,65.1,1292.7,65.1z"/>
<text transform="matrix(1 0 0 1 0 174.246)" class="st7 st8">flowchart</text>
<text transform="matrix(1 0 0 1 156.817 174.246)" class="st7 st8">mockups</text>
<text transform="matrix(1 0 0 1 335.806 174.246)" class="st7 st8">static</text>
<text transform="matrix(1 0 0 1 309.406 195.846)" class="st7 st8">wireframes</text>
<text transform="matrix(1 0 0 1 470.279 174.246)" class="st7 st8">user flows</text>
<text transform="matrix(1 0 0 1 465.479 195.846)" class="st7 st8">wireframes</text>
<text transform="matrix(1 0 0 1 468.479 217.446)" class="st7 st8">(feedback)</text>
<text transform="matrix(0.9999 -1.399863e-02 1.399863e-02 0.9999 620.0817 175.832)" class="st7 st9">visual design</text>
<text transform="matrix(0.9999 -1.399863e-02 1.399863e-02 0.9999 633.2842 197.2513)" class="st7 st9">prototype</text>
<text transform="matrix(0.9999 -1.399863e-02 1.399863e-02 0.9999 630.8867 218.8891)" class="st7 st9">(feedback)</text>
<text transform="matrix(1 0 0 1 808.366 174.246)" class="st7 st8">refine</text>
<text transform="matrix(1 0 0 1 789.166 195.846)" class="st7 st8">prototype</text>
<text transform="matrix(1 0 0 1 759.466 217.446)" class="st7 st8">(front-end code)</text>
<text transform="matrix(1 0 0 1 939.043 174.246)" class="st7 st8">user testing</text>
<text transform="matrix(1 0 0 1 944.4431 195.846)" class="st7 st8">(feedback)</text>
<text transform="matrix(1 0 0 1 1103.2679 174.246)" class="st7 st8">Analyze &amp;</text>
<text transform="matrix(1 0 0 1 1109.2679 195.846)" class="st7 st8">iteration</text>
<text transform="matrix(1 0 0 1 1213.502 174.246)" class="st7 st8">code/documentation</text>
<text transform="matrix(1 0 0 1 1235.902 195.846)" class="st7 st8">hand-off to devs</text>
<path class="st1" d="M41.1,115.5l125.8,0.5v2.1l5.7-3.3l-5.7-3.3v2.1l-125.8-0.5L41.1,115.5z"/>
<circle class="st1" cx="41.1" cy="114.3" r="25"/>
<circle class="st10" cx="41.1" cy="114.3" r="20"/>
<circle class="st1" cx="200.1" cy="114.3" r="25"/>
<circle class="st10" cx="200.1" cy="114.3" r="20"/>
<circle class="st1" cx="359.1" cy="114.3" r="25"/>
<circle class="st10" cx="359.1" cy="114.3" r="20"/>
<circle class="st1" cx="518.1" cy="114.3" r="25"/>
<circle class="st10" cx="518.1" cy="114.3" r="20"/>
<circle class="st1" cx="677.1" cy="114.3" r="25"/>
<circle class="st10" cx="677.1" cy="114.3" r="20"/>
<circle class="st1" cx="835.1" cy="114.3" r="25"/>
<circle class="st10" cx="835.1" cy="114.3" r="20"/>
<circle class="st1" cx="993.1" cy="114.3" r="25"/>
<circle class="st10" cx="993.1" cy="114.3" r="20"/>
<circle class="st1" cx="1151.1" cy="114.3" r="25"/>
<circle class="st10" cx="1151.1" cy="114.3" r="20"/>
<circle class="st1" cx="1309.1" cy="114.3" r="25"/>
<circle class="st10" cx="1309.1" cy="114.3" r="20"/>
<path class="st2" d="M1176.6,51.2c-0.7,0-1.4-0.2-1.9-0.7l-8.6-7.8c-1.2-1.1-1.3-2.9-0.2-4c1.1-1.2,2.9-1.3,4-0.2l6.7,6.1l6.7-6.1
	c1.2-1.1,3-1,4,0.2c1.1,1.2,1,3-0.2,4l-8.7,7.8C1178,51,1177.3,51.2,1176.6,51.2z M1177,47.3c-1.6,0-2.8-1.3-2.8-2.8
	c0-13.6-11.1-24.7-24.7-24.7c-8.5,0-16.3,4.3-20.8,11.4c-0.8,1.3-2.6,1.7-3.9,0.9s-1.7-2.6-0.9-3.9c5.6-8.8,15.2-14.1,25.6-14.1
	c16.7,0,30.4,13.6,30.4,30.4C1179.9,46.1,1178.6,47.3,1177,47.3L1177,47.3z M1149.7,75.4c-16.7,0-30.4-13.6-30.4-30.4
	c0-1.6,1.3-2.8,2.8-2.8c1.6,0,2.8,1.3,2.8,2.8c0,13.6,11.1,24.7,24.7,24.7c8.5,0,16.3-4.3,20.8-11.5c0.8-1.3,2.6-1.7,3.9-0.9
	s1.7,2.6,0.9,3.9C1169.7,70.1,1160.1,75.4,1149.7,75.4L1149.7,75.4z M1131,51.8c-0.7,0-1.4-0.2-1.9-0.7l-6.7-6.1l-6.7,6.1
	c-1.2,1-3,1-4-0.2c-1.1-1.2-1-3,0.2-4l8.7-7.8c1.1-1,2.7-1,3.8,0l8.6,7.8c1.2,1.1,1.3,2.9,0.2,4C1132.5,51.4,1131.7,51.8,1131,51.8z
	"/>
</svg>
