<?xml version="1.0" encoding="utf-8"?>
<!-- Generator: Adobe Illustrator 26.3.1, SVG Export Plug-In . SVG Version: 6.00 Build 0)  -->
<svg version="1.1" id="Calque_1" xmlns="http://www.w3.org/2000/svg" xmlns:xlink="http://www.w3.org/1999/xlink" x="0px" y="0px"
	 viewBox="0 0 590.5 94.6" enable-background="new 0 0 590.5 94.6" xml:space="preserve">
<path fill="#F1F1F1" d="M29.4,12.5c-0.7,0-1.3-0.5-1.3-1.3V3.4h-7.8c-0.7,0-1.3-0.5-1.3-1.3c0-0.7,0.5-1.3,1.3-1.3h9.1
	c0.7,0,1.3,0.5,1.3,1.3v9.1C30.7,12,30.2,12.5,29.4,12.5z M16.4,12.9c-1.6,0-3.2-0.3-4.8-0.8c-3.5-1.2-6.3-3.7-7.9-7
	C3.3,4.5,3,3.7,2.8,3S3,1.6,3.6,1.4C4.3,1.2,5,1.6,5.2,2.2C5.4,2.8,5.7,3.4,5.9,4c1.4,2.7,3.7,4.8,6.5,5.7c3,1.1,6.2,0.9,9-0.5
	s4.9-3.7,6-6.7c0.3-0.7,1-1,1.6-0.8c0.7,0.3,1,1,0.8,1.6c-1.3,3.6-3.9,6.5-7.3,8.1C20.6,12.4,18.5,12.9,16.4,12.9z M2.9,12.5
	c-0.7,0-1.3-0.5-1.3-1.3v-9c0-0.7,0.5-1.3,1.3-1.3H12c0.7,0,1.3,0.5,1.3,1.3c0,0.7-0.5,1.3-1.3,1.3H4.2v7.8
	C4.2,12,3.6,12.5,2.9,12.5z M16.2,29.9c-0.7,0-1.3-0.5-1.3-1.3V12.2c0-0.7,0.5-1.3,1.3-1.3c0.7,0,1.3,0.5,1.3,1.3v16.5
	C17.5,29.3,16.9,29.9,16.2,29.9z M74.2,26.6c-0.3,0-0.7-0.1-0.9-0.4c-0.3-0.3-0.4-0.6-0.4-1l0.3-5.8c0-0.3,0.2-0.6,0.4-0.8L91,1.2
	c0.3-0.3,0.6-0.4,0.9-0.4s0.7,0.1,0.9,0.4l5.5,5.5c0.3,0.3,0.4,0.6,0.4,0.9s-0.1,0.7-0.4,0.9L80.9,25.9c-0.2,0.2-0.5,0.4-0.8,0.4
	L74.2,26.6L74.2,26.6z M75.8,20.1l-0.2,3.8l3.8-0.2L95.5,7.6L91.9,4L75.8,20.1z M94.3,10.8c-0.2,0-0.3-0.1-0.5-0.2l-4.9-4.9
	c-0.3-0.3-0.3-0.7,0-0.9c0.3-0.3,0.7-0.3,0.9,0l4.9,4.9c0.3,0.3,0.3,0.7,0,0.9C94.7,10.7,94.5,10.8,94.3,10.8z M75.1,21.2h-0.3
	c-0.1,0-0.2,0-0.3,0.1l-0.3,4.1l3.9-0.3c0-0.1,0.1-0.3,0.1-0.5C78.3,22.7,77,21.2,75.1,21.2z M97.9,32.2h-29c-0.7,0-1.3-0.6-1.3-1.3
	V1.8c0-0.7,0.6-1.3,1.3-1.3h14.4c0.7,0,1.3,0.6,1.3,1.3c0,0.7-0.6,1.3-1.3,1.3h-13v26.4h26.3V16.4c0-0.7,0.6-1.3,1.3-1.3
	s1.3,0.6,1.3,1.3v14.4C99.2,31.6,98.6,32.2,97.9,32.2z"/>
<path fill="#F1F1F1" d="M363.2,21.6c-0.3,0-0.6-0.1-0.8-0.3l-3.6-3.3c-0.5-0.5-0.5-1.2-0.1-1.7c0.5-0.5,1.2-0.5,1.7-0.1l2.8,2.6
	l2.8-2.6c0.5-0.5,1.3-0.4,1.7,0.1c0.5,0.5,0.4,1.3-0.1,1.7l-3.7,3.3C363.8,21.5,363.5,21.6,363.2,21.6z M363.4,19.9
	c-0.7,0-1.2-0.5-1.2-1.2c0-5.7-4.7-10.4-10.4-10.4c-3.6,0-6.9,1.8-8.8,4.8c-0.3,0.5-1.1,0.7-1.6,0.4c-0.5-0.3-0.7-1.1-0.4-1.6
	c2.4-3.7,6.4-6,10.8-6c7.1,0,12.8,5.7,12.8,12.8C364.6,19.4,364.1,19.9,363.4,19.9L363.4,19.9z M351.9,31.8
	c-7.1,0-12.8-5.7-12.8-12.8c0-0.7,0.5-1.2,1.2-1.2s1.2,0.5,1.2,1.2c0,5.7,4.7,10.4,10.4,10.4c3.6,0,6.9-1.8,8.8-4.9
	c0.3-0.5,1.1-0.7,1.6-0.4c0.5,0.3,0.7,1.1,0.4,1.6C360.3,29.6,356.3,31.8,351.9,31.8z M344,21.8c-0.3,0-0.6-0.1-0.8-0.3l-2.8-2.6
	l-2.8,2.6c-0.5,0.4-1.3,0.4-1.7-0.1c-0.5-0.5-0.4-1.3,0.1-1.7l3.7-3.3c0.5-0.4,1.1-0.4,1.6,0l3.6,3.3c0.5,0.5,0.5,1.2,0.1,1.7
	C344.6,21.7,344.3,21.8,344,21.8L344,21.8z M275.8,27.7h-1c-0.5,0-1-0.5-1.2-1c0-0.5,0.2-1.2,0.7-1.2c1-0.5,1.7-1,2.2-1.7
	c-3.6-1.9-6-5.3-6-8.7c0-5.8,5.8-10.4,12.8-10.4s12.8,4.6,12.8,10.4c0,5.6-5.8,10.4-12.8,10.4h-0.5
	C281.1,26.7,278.7,27.7,275.8,27.7L275.8,27.7z M283.6,6.9c-5.8,0-10.4,3.6-10.4,8c0,2.9,2.2,5.8,5.8,7c0.2,0,0.7,0.5,0.7,0.7
	c0,0.2,0,0.7,0,1l0,0l-0.2,0.5c0,0.2-0.2,0.5-0.5,0.5c1-0.5,1.9-1,2.7-1.7c0.2-0.2,0.7-0.5,1-0.5h0.7c5.8,0,10.4-3.6,10.4-8
	C293.7,10.5,289.1,6.9,283.6,6.9z M297.8,31.6c-1.7,0-3.1-0.5-4.4-1.2h-0.2c-4.8,1-9.7-1.2-11.1-5.3c-0.2-0.7,0-1.2,0.7-1.7
	c0.7-0.2,1.2,0,1.7,0.7c1.2,2.9,4.8,4.4,8.5,3.9h0.7c0.5,0,0.7,0,1.2,0.2c0.5,0.5,1,0.7,1.7,0.7l-0.2-0.2c-0.2-0.2-0.2-0.7-0.2-1
	s0.2-0.7,0.5-0.7c2.7-1.7,3.9-4.1,3.6-6.5c-0.2-1.9-1.7-3.6-3.9-4.6c-0.7-0.2-1-1-0.7-1.7c0.2-0.7,1-1,1.7-0.7
	c2.9,1.2,5.1,3.6,5.3,6.5c0.5,3.1-1,6.3-3.6,8.5c0.5,0.5,1.2,0.7,1.7,1s1,0.7,0.7,1.2c0,0.5-0.5,1-1,1.2
	C299.5,31.3,298.8,31.6,297.8,31.6L297.8,31.6z"/>
<path fill="#F1F1F1" d="M346.6,19.5v-0.8l2.8-1.3v0.8l-1.8,0.8l1.8,0.8v0.8C349.4,20.8,346.6,19.5,346.6,19.5z M352.3,16.8h0.8
	l-2.4,5.2h-0.8C349.9,22,352.3,16.8,352.3,16.8z M356.5,18.7v0.8l-2.8,1.3V20l1.8-0.8l-1.8-0.8v-0.8
	C353.7,17.4,356.5,18.7,356.5,18.7z"/>
<path fill="#F1F1F1" d="M417.7,12.5c-3.1,0-5.6-2.8-5.6-6.3s2.5-6.3,5.6-6.3s5.6,2.8,5.6,6.3S420.8,12.5,417.7,12.5z M417.7,2.3
	c-1.8,0-3.3,1.8-3.3,4s1.5,4,3.3,4s3.3-1.8,3.3-4S419.5,2.3,417.7,2.3z M426.3,33.2c-4,0-7.3-3.3-7.3-7.3s3.3-7.3,7.3-7.3
	s7.3,3.3,7.3,7.3S430.3,33.2,426.3,33.2L426.3,33.2z M426.3,19.9c-3.4,0-6.1,2.7-6.1,6.1s2.7,6.1,6.1,6.1c3.3,0,6.1-2.7,6.1-6.1
	C432.3,22.6,429.6,19.9,426.3,19.9z M419.6,27.1H409c-0.6,0-1.1-0.5-1.2-1.1l-0.4-5.5c-0.1-2,1.4-4.4,3.5-5.1c4.3-1.5,9-1.5,13.3,0
	c1.5,0.5,2.8,2,3.3,3.7l-2.2,0.6c-0.3-0.9-1-1.8-1.8-2.1c-3.8-1.4-7.9-1.4-11.7,0c-1.1,0.4-2,1.9-1.9,2.7l0.3,4.4h9.5L419.6,27.1
	L419.6,27.1L419.6,27.1z M425.1,30.2c-0.3,0-0.6-0.1-0.8-0.4l-1.9-2c-0.5-0.5-0.4-1.2,0-1.6c0.5-0.5,1.2-0.4,1.6,0l1,1.1l3.4-4.1
	c0.4-0.5,1.1-0.6,1.6-0.2s0.6,1.1,0.2,1.6l-4.2,5.2C425.8,30,425.5,30.1,425.1,30.2L425.1,30.2L425.1,30.2z M558.6,17.9
	c-0.3,0-0.5-0.1-0.8-0.3c-0.4-0.4-0.4-1.1,0-1.5l3.3-3.3l-3.3-3.3c-0.4-0.4-0.4-1.1,0-1.5c0.4-0.4,1.1-0.4,1.5,0l4.1,4.1
	c0.4,0.4,0.4,1.1,0,1.5l-4.1,4.1C559.1,17.8,558.9,17.9,558.6,17.9z M561.4,31.5h-17.5c-2.2,0-3.9-1.8-3.9-3.9v-12
	c0-2.2,1.8-3.9,3.9-3.9h6.5c0.5,0,1,0.4,1,1s-0.4,1-1,1h-6.5c-1.1,0-1.9,0.9-1.9,1.9v12c0,1.1,0.9,1.9,1.9,1.9h17.5
	c1.1,0,1.9-0.9,1.9-1.9V15.7c0-0.5,0.4-1,1-1s1,0.4,1,1v12C565.3,29.7,563.5,31.5,561.4,31.5L561.4,31.5z M544.8,27.4h-0.2
	c-0.5-0.1-0.9-0.7-0.8-1.2c1.6-8.4,9-14.5,17.4-14.5c0.6,0,1.1,0.5,1.1,1.1s-0.5,1.1-1.1,1.1c-7.5,0-13.9,5.4-15.4,12.8
	C545.8,27.1,545.3,27.4,544.8,27.4z"/>
<text transform="matrix(1 0 0 1 2.441406e-04 73.5333)" fill="#F1F1F1" font-family="'OpenSans'" font-size="8px">flowchart</text>
<text transform="matrix(1 0 0 1 66.2151 73.5333)" fill="#F1F1F1" font-family="'OpenSans'" font-size="8px">mockups</text>
<text transform="matrix(1 0 0 1 141.7922 73.5333)" fill="#F1F1F1" font-family="'OpenSans'" font-size="8px">static</text>
<text transform="matrix(1 0 0 1 130.6447 82.6539)" fill="#F1F1F1" font-family="'OpenSans'" font-size="8px">wireframes</text>
<text transform="matrix(1 0 0 1 198.5724 73.5333)" fill="#F1F1F1" font-family="'OpenSans'" font-size="8px">user flows</text>
<text transform="matrix(1 0 0 1 196.5459 82.6539)" fill="#F1F1F1" font-family="'OpenSans'" font-size="8px">wireframes</text>
<text transform="matrix(1 0 0 1 197.8124 91.7748)" fill="#F1F1F1" font-family="'OpenSans'" font-size="8px">(feedback)</text>
<text transform="matrix(0.9999 -1.399863e-02 1.399863e-02 0.9999 261.826 74.2036)" fill="#F1F1F1" font-family="'OpenSans'" font-size="8px">visual design</text>
<text transform="matrix(0.9999 -1.399863e-02 1.399863e-02 0.9999 267.4005 83.2473)" fill="#F1F1F1" font-family="'OpenSans'" font-size="8px">prototype</text>
<text transform="matrix(0.9999 -1.399863e-02 1.399863e-02 0.9999 266.3884 92.3836)" fill="#F1F1F1" font-family="'OpenSans'" font-size="8px">(feedback)</text>
<text transform="matrix(1 0 0 1 341.3274 73.5333)" fill="#F1F1F1" font-family="'OpenSans'" font-size="8px">refine</text>
<text transform="matrix(1 0 0 1 333.2208 82.6539)" fill="#F1F1F1" font-family="'OpenSans'" font-size="8px">prototype</text>
<text transform="matrix(1 0 0 1 320.6799 91.7748)" fill="#F1F1F1" font-family="'OpenSans'" font-size="8px">(front-end code)</text>
<text transform="matrix(1 0 0 1 396.5059 73.5333)" fill="#F1F1F1" font-family="'OpenSans'" font-size="8px">user testing</text>
<text transform="matrix(1 0 0 1 398.7852 82.6539)" fill="#F1F1F1" font-family="'OpenSans'" font-size="8px">(feedback)</text>
<text transform="matrix(1 0 0 1 465.848 73.5333)" fill="#F1F1F1" font-family="'OpenSans'" font-size="8px">Analyze &amp;</text>
<text transform="matrix(1 0 0 1 468.382 82.6539)" fill="#F1F1F1" font-family="'OpenSans'" font-size="8px">iteration</text>
<text transform="matrix(1 0 0 1 512.3945 73.5333)" fill="#F1F1F1" font-family="'OpenSans'" font-size="8px">code/documentation</text>
<text transform="matrix(1 0 0 1 521.8525 82.6539)" fill="#F1F1F1" font-family="'OpenSans'" font-size="8px">hand-off to devs</text>
<path fill="#FEC683" d="M29.4,48.7l39.7,0.2v0.9l1.8-1.4L69.1,47v0.9l-39.7-0.2C29.4,47.7,29.4,48.7,29.4,48.7z"/>
<circle fill="none" stroke="#FD6E7C" stroke-width="2" stroke-miterlimit="10" cx="16.4" cy="48.2" r="10.6"/>
<circle fill="none" stroke="#FD6E7C" stroke-width="2" stroke-miterlimit="10" cx="83.5" cy="48.2" r="10.6"/>
<circle fill="none" stroke="#FD6E7C" stroke-width="2" stroke-miterlimit="10" cx="150.6" cy="48.2" r="10.6"/>
<circle fill="none" stroke="#FD6E7C" stroke-width="2" stroke-miterlimit="10" cx="217.8" cy="48.2" r="10.6"/>
<circle fill="none" stroke="#FD6E7C" stroke-width="2" stroke-miterlimit="10" cx="284.9" cy="48.2" r="10.6"/>
<circle fill="none" stroke="#FD6E7C" stroke-width="2" stroke-miterlimit="10" cx="351.6" cy="48.2" r="10.6"/>
<circle fill="none" stroke="#FD6E7C" stroke-width="2" stroke-miterlimit="10" cx="418.3" cy="48.2" r="10.6"/>
<circle fill="none" stroke="#FD6E7C" stroke-width="2" stroke-miterlimit="10" cx="485" cy="48.2" r="10.6"/>
<circle fill="none" stroke="#FD6E7C" stroke-width="2" stroke-miterlimit="10" cx="551.8" cy="48.2" r="10.6"/>
<path fill="#F1F1F1" d="M495.8,21.6c-0.3,0-0.6-0.1-0.8-0.3l-3.6-3.3c-0.5-0.5-0.5-1.2-0.1-1.7c0.5-0.5,1.2-0.5,1.7-0.1l2.8,2.6
	l2.8-2.6c0.5-0.5,1.3-0.4,1.7,0.1c0.5,0.5,0.4,1.3-0.1,1.7l-3.7,3.3C496.4,21.5,496.1,21.6,495.8,21.6z M496,19.9
	c-0.7,0-1.2-0.5-1.2-1.2c0-5.7-4.7-10.4-10.4-10.4c-3.6,0-6.9,1.8-8.8,4.8c-0.3,0.5-1.1,0.7-1.6,0.4s-0.7-1.1-0.4-1.6
	c2.4-3.7,6.4-6,10.8-6c7.1,0,12.8,5.7,12.8,12.8C497.2,19.4,496.7,19.9,496,19.9L496,19.9z M484.5,31.8c-7.1,0-12.8-5.7-12.8-12.8
	c0-0.7,0.5-1.2,1.2-1.2s1.2,0.5,1.2,1.2c0,5.7,4.7,10.4,10.4,10.4c3.6,0,6.9-1.8,8.8-4.9c0.3-0.5,1.1-0.7,1.6-0.4
	c0.5,0.3,0.7,1.1,0.4,1.6C492.9,29.6,488.8,31.8,484.5,31.8L484.5,31.8z M476.6,21.8c-0.3,0-0.6-0.1-0.8-0.3l-2.8-2.6l-2.8,2.6
	c-0.5,0.4-1.3,0.4-1.7-0.1c-0.5-0.5-0.4-1.3,0.1-1.7l3.7-3.3c0.5-0.4,1.1-0.4,1.6,0l3.6,3.3c0.5,0.5,0.5,1.2,0.1,1.7
	C477.2,21.7,476.9,21.8,476.6,21.8z"/>
<path fill="#FEC683" d="M96.4,48.7l39.7,0.2v0.9l1.8-1.4l-1.8-1.4v0.9l-39.7-0.2C96.4,47.7,96.4,48.7,96.4,48.7z"/>
<path fill="#FEC683" d="M163.4,48.7l39.7,0.2v0.9l1.8-1.4l-1.8-1.4v0.9l-39.7-0.2V48.7z"/>
<path fill="#FEC683" d="M230.4,48.7l39.7,0.2v0.9l1.8-1.4l-1.8-1.4v0.9l-39.7-0.2L230.4,48.7z"/>
<path fill="#FEC683" d="M297.4,48.7l39.7,0.2v0.9l1.8-1.4l-1.8-1.4v0.9l-39.7-0.2V48.7z"/>
<path fill="#FEC683" d="M364.4,48.7l39.7,0.2v0.9l1.8-1.4l-1.8-1.4v0.9l-39.7-0.2V48.7z"/>
<path fill="#FEC683" d="M431.4,48.7l39.7,0.2v0.9l1.8-1.4l-1.8-1.4v0.9l-39.7-0.2V48.7z"/>
<path fill="#FEC683" d="M497.4,48.7l39.7,0.2v0.9l1.8-1.4l-1.8-1.4v0.9l-39.7-0.2L497.4,48.7L497.4,48.7z"/>
<g>
	<path fill="none" stroke="#F1F1F1" stroke-width="2" stroke-miterlimit="10" d="M151.5,18.3c0,0.1,0,0.2,0,0.3c0,1.3,0,2.5,0,3.8
		c-0.1,0.1-0.3,0.1-0.4,0.1c-1.2,0-2.4,0-3.6,0c-0.2,0-0.5,0-0.7,0c-0.2,0-0.3,0-0.5-0.1c-1-0.1-1.8-0.5-2.6-1.1
		c-1-0.9-1.6-2.1-1.6-3.5c0-1.2,0.5-2.3,1.3-3.2c0,0,0.1-0.1,0.1-0.2c0.7-0.6,1.5-1,2.4-1.2c0.1,0,0.1,0,0.2,0
		c0.5-0.3,1.1-0.1,1.7-0.1c1,0,2,0,3.1,0c0.1,0,0.3,0,0.4,0c0,0,0,0,0,0c0,0.1,0,0.1,0,0.2c0,1,0,2.1,0,3.1c0,0.3,0,0.5,0,0.8
		s0,0.5,0,0.8C151.6,18.2,151.6,18.3,151.5,18.3z"/>
	<path fill="none" stroke="#F1F1F1" stroke-width="2" stroke-miterlimit="10" d="M151.5,3.9c1.6,0,3.3,0,4.9,0c2.2,0,4.1,1.9,4.4,4
		c0.3,2.4-1.4,4.8-4,5.1c0,0-0.1,0-0.1,0.1c0,0.1-0.1,0.1-0.2,0.1c-0.3,0-0.6,0-0.9,0c-1.2-0.1-2.4,0-3.7,0c-0.1,0-0.3,0-0.4-0.1
		l0,0c-0.1-0.1-0.1-0.2-0.1-0.3c0-0.3,0-0.5,0-0.8c0-2.6,0-5.2,0-7.8C151.4,4.2,151.4,4.1,151.5,3.9z"/>
	<path fill="none" stroke="#F1F1F1" stroke-width="2" stroke-miterlimit="10" d="M151.5,3.9c0,3.1,0,6.2,0,9.3c-1.7,0-3.5,0-5.2,0
		c0,0,0,0,0.1-0.1c-0.9-0.1-1.7-0.4-2.4-0.9c-1-0.8-1.6-1.8-1.8-3.1c-0.3-2.4,1.4-4.7,3.8-5.1c0.2,0,0.4-0.1,0.6-0.1
		C148.2,3.9,149.9,3.9,151.5,3.9z"/>
	<path fill="none" stroke="#F1F1F1" stroke-width="2" stroke-miterlimit="10" d="M155.6,13.2c0.4,0,0.7,0,1,0c0.7,0,2.3,0.8,2.3,0.9
		c0.1,0.1,0.2,0.2,0.4,0.3c0.5,0.5,0.9,1,1.1,1.7c1.1,2.8-0.8,5.9-3.8,6.2c-2.5,0.3-4.7-1.4-5.1-3.9c0-0.1,0-0.1,0-0.2
		c0-0.3,0-0.6,0-0.9c0-0.5,0-0.9,0.2-1.3c0.5-1.3,1.5-2.2,2.8-2.7C154.9,13.2,155.2,13.2,155.6,13.2z"/>
	<path fill="none" stroke="#F1F1F1" stroke-width="2" stroke-miterlimit="10" d="M146.4,22.4c1.7,0.1,3.4,0,5.1,0c0,1.6,0,3.3,0,4.9
		c-0.1,2.2-1.9,4.1-4.1,4.3c-2.5,0.3-4.7-1.4-5.1-3.8c-0.4-2.5,1.4-4.9,3.9-5.3C146.3,22.5,146.3,22.5,146.4,22.4z"/>
	<path fill="none" stroke="#F1F1F1" stroke-width="2" stroke-miterlimit="10" d="M155.6,13.2c-2.2,0.2-3.9,2-4.1,4.1
		c0-0.1,0-0.2,0-0.3c0-1.3,0-2.6,0-3.8c1.3,0,2.5,0,3.8,0C155.4,13.2,155.5,13.2,155.6,13.2z"/>
</g>
<g>
	<path fill="none" stroke="#F1F1F1" stroke-width="2" stroke-miterlimit="10" d="M219.1,18.3c0,0.1,0,0.2,0,0.3c0,1.3,0,2.5,0,3.8
		c-0.1,0.1-0.3,0.1-0.4,0.1c-1.2,0-2.4,0-3.6,0c-0.2,0-0.5,0-0.7,0c-0.2,0-0.3,0-0.5-0.1c-1-0.1-1.8-0.5-2.6-1.1
		c-1-0.9-1.6-2.1-1.6-3.5c0-1.2,0.5-2.3,1.3-3.2c0,0,0.1-0.1,0.1-0.2c0.7-0.6,1.5-1,2.4-1.2c0.1,0,0.1,0,0.2,0
		c0.5-0.3,1.1-0.1,1.7-0.1c1,0,2,0,3.1,0c0.1,0,0.3,0,0.4,0c0,0,0,0,0,0c0,0.1,0,0.1,0,0.2c0,1,0,2.1,0,3.1c0,0.3,0,0.5,0,0.8
		c0,0.3,0,0.5,0,0.8C219.2,18.2,219.2,18.3,219.1,18.3z"/>
	<path fill="none" stroke="#F1F1F1" stroke-width="2" stroke-miterlimit="10" d="M219.1,3.9c1.6,0,3.3,0,4.9,0c2.2,0,4.1,1.9,4.4,4
		c0.3,2.4-1.4,4.8-4,5.1c0,0-0.1,0-0.1,0.1c0,0.1-0.1,0.1-0.2,0.1c-0.3,0-0.6,0-0.9,0c-1.2-0.1-2.4,0-3.7,0c-0.1,0-0.3,0-0.4-0.1
		l0,0c-0.1-0.1-0.1-0.2-0.1-0.3c0-0.3,0-0.5,0-0.8c0-2.6,0-5.2,0-7.8C219,4.3,219,4.1,219.1,3.9z"/>
	<path fill="none" stroke="#F1F1F1" stroke-width="2" stroke-miterlimit="10" d="M219.1,3.9c0,3.1,0,6.2,0,9.3c-1.7,0-3.5,0-5.2,0
		c0,0,0,0,0.1-0.1c-0.9-0.1-1.7-0.4-2.4-0.9c-1-0.8-1.6-1.8-1.8-3.1c-0.3-2.4,1.4-4.7,3.8-5.1c0.2,0,0.4-0.1,0.6-0.1
		C215.9,3.9,217.5,3.9,219.1,3.9z"/>
	<path fill="none" stroke="#F1F1F1" stroke-width="2" stroke-miterlimit="10" d="M223.2,13.2c0.4,0,0.7,0,1,0c0.7,0,2.3,0.8,2.3,0.9
		c0.1,0.1,0.2,0.2,0.4,0.3c0.5,0.5,0.9,1,1.1,1.7c1.1,2.8-0.8,5.9-3.8,6.2c-2.5,0.3-4.7-1.4-5.1-3.9c0-0.1,0-0.1,0-0.2
		c0-0.3,0-0.6,0-0.9c0-0.5,0-0.9,0.2-1.3c0.5-1.3,1.5-2.2,2.8-2.7C222.5,13.2,222.9,13.2,223.2,13.2z"/>
	<path fill="none" stroke="#F1F1F1" stroke-width="2" stroke-miterlimit="10" d="M214,22.4c1.7,0.1,3.4,0,5.1,0c0,1.6,0,3.3,0,4.9
		c-0.1,2.2-1.9,4.1-4.1,4.3c-2.5,0.3-4.7-1.4-5.1-3.8c-0.4-2.5,1.4-4.9,3.9-5.3C213.9,22.5,214,22.5,214,22.4z"/>
	<path fill="none" stroke="#F1F1F1" stroke-width="2" stroke-miterlimit="10" d="M223.2,13.2c-2.2,0.2-3.9,2-4.1,4.1
		c0-0.1,0-0.2,0-0.3c0-1.3,0-2.6,0-3.8c1.3,0,2.5,0,3.8,0C223,13.2,223.1,13.2,223.2,13.2z"/>
</g>
</svg>
