<svg xmlns="http://www.w3.org/2000/svg" viewBox="9 373.8 590.5 94.6"><path fill="#2A2A2A" d="M38.4 386.3c-.7 0-1.3-.5-1.3-1.3v-7.8h-7.8c-.7 0-1.3-.5-1.3-1.3 0-.7.5-1.3 1.3-1.3h9.1c.7 0 1.3.5 1.3 1.3v9.1c0 .8-.5 1.3-1.3 1.3zm-13 .4c-1.6 0-3.2-.3-4.8-.8-3.5-1.2-6.3-3.7-7.9-7-.4-.6-.7-1.4-.9-2.1-.2-.7.2-1.4.8-1.6.7-.2 1.4.2 1.6.8.2.6.5 1.2.7 1.8 1.4 2.7 3.7 4.8 6.5 5.7 3 1.1 6.2.9 9-.5s4.9-3.7 6-6.7c.3-.7 1-1 1.6-.8.7.3 1 1 .8 1.6-1.3 3.6-3.9 6.5-7.3 8.1-1.9 1-4 1.5-6.1 1.5zm-13.5-.4c-.7 0-1.3-.5-1.3-1.3v-9c0-.7.5-1.3 1.3-1.3H21c.7 0 1.3.5 1.3 1.3 0 .7-.5 1.3-1.3 1.3h-7.8v7.8c0 .7-.6 1.2-1.3 1.2zm13.3 17.4c-.7 0-1.3-.5-1.3-1.3V386c0-.7.5-1.3 1.3-1.3.7 0 1.3.5 1.3 1.3v16.5c0 .6-.6 1.2-1.3 1.2zm58-3.3c-.3 0-.7-.1-.9-.4-.3-.3-.4-.6-.4-1l.3-5.8c0-.3.2-.6.4-.8L100 375c.3-.3.6-.4.9-.4.3 0 .7.1.9.4l5.5 5.5c.3.3.4.6.4.9s-.1.7-.4.9l-17.4 17.4c-.2.2-.5.4-.8.4l-5.9.3zm1.6-6.5l-.2 3.8 3.8-.2 16.1-16.1-3.6-3.6-16.1 16.1zm18.5-9.3c-.2 0-.3-.1-.5-.2l-4.9-4.9c-.3-.3-.3-.7 0-.9.3-.3.7-.3.9 0l4.9 4.9c.3.3.3.7 0 .9 0 .1-.2.2-.4.2zM84.1 395h-.3c-.1 0-.2 0-.3.1l-.3 4.1 3.9-.3c0-.1.1-.3.1-.5.1-1.9-1.2-3.4-3.1-3.4zm22.8 11h-29c-.7 0-1.3-.6-1.3-1.3v-29.1c0-.7.6-1.3 1.3-1.3h14.4c.7 0 1.3.6 1.3 1.3 0 .7-.6 1.3-1.3 1.3h-13v26.4h26.3v-13.1c0-.7.6-1.3 1.3-1.3s1.3.6 1.3 1.3v14.4c0 .8-.6 1.4-1.3 1.4zm37.1-19.2l.1-.5c.3-1.1 1-1.9 2.1-2.3.9-.3 1.9-.3 2.8.1.2.1.4.3.6.4v-.5c0-.2 0-.2.2-.2h1.2v6.2h-1.4v-.7c-.5.5-1.2.8-1.9.8-1.2 0-2.3-.4-3-1.4-.3-.4-.5-.9-.5-1.5v-.1c-.2 0-.2-.3-.2-.3zm3.6-1.7c-.6 0-1.1.2-1.5.5-.8.7-1 1.9-.2 2.7.8.8 2.2.9 3.1.1.7-.6.8-1.6.3-2.4-.5-.7-1.2-.9-1.7-.9zm28.2 2.6h-5.3c.1.2.2.4.3.5.5.6 1.6.8 2.3.5.2-.1.3-.2.5-.3h.1l1.5.3c-.1.1-.2.3-.3.3-.8.8-1.7 1.1-2.8 1-1.4-.1-2.4-.7-2.9-2-.5-1.1-.2-2.5.7-3.4 1.4-1.3 3.6-1.3 5 0 .6.6 1 1.4 1 2.2 0 .4-.1.6-.1.9zm-1.5-1.3c-.2-.6-1-1.4-2.1-1.4-.7 0-1.7.8-1.8 1.4h3.9zm-11-2.5h1.4v6.2h-1.4v-.5c-.3.4-.8.5-1.3.5-.8 0-1.5-.1-2.1-.5-.7-.5-1.1-1.2-1.1-2.1v-3.7h1.4v3.5c0 1.1.9 1.6 1.8 1.5.7-.1 1.2-.5 1.3-1.2v-3.7zm-7.5 3.1l2.4 3h-1.6c-.1 0-.2 0-.3-.1l-1.4-1.7v-.1l-.1.1-1.4 1.8-.1.1h-1.7l2.4-3c-.8-1.1-1.6-2.1-2.5-3.2h1.6c.1 0 .1 0 .2.1l1.4 1.9.1.1s0-.1.1-.1c.5-.6 1-1.3 1.5-1.9l.1-.1h1.7c-.7 1-1.5 2.1-2.4 3.1zm11.1-2.6c.6-.5 1.3-.5 2-.5v1.3h-.5c-.3 0-.6.1-.9.3-.4.3-.6.6-.6 1.1v3.5h-1.4v-6.2h1.4v.5zM152 396.2l-4.2 5.2c-.1.2-.2.2-.3 0l-4.2-5.2v-.1c.5-.8 1.1-1.5 1.6-2.3.1-.1.2-.2.3-.2h.9c.6 0 1.1-.1 1.7-.1l2.2.1c.2 0 .3.1.5.3l1.5 2.3zm-4.4 4.8c.8-1.6 1.6-3 2.4-4.6h-4.9c.8 1.5 1.6 3 2.5 4.6zm0-7.2c-.8.7-1.5 1.4-2.3 2.2h4.6c-.8-.7-1.5-1.5-2.3-2.2zm-3.9 2.5l2.7 3.3-1.7-3.2-.1-.1h-.9zm4.9 3.3c.9-1.1 1.8-2.2 2.8-3.3h-.8c-.2 0-.3 0-.3.2-.4.7-.8 1.5-1.2 2.2.1 0-.5.9-.5.9zm-3.6-3.9l2-1.8-1.9.1-.1 1.7zm3.1-1.9c.6.6 1.3 1.3 2 1.9 0-.6-.1-1.2-.1-1.8-.7 0-1.3 0-1.9-.1zm-4.4 2.2h1l.1-1.5c-.4.5-.8 1-1.1 1.5zm7.7 0c-.4-.5-.7-1-1.1-1.5l.1 1.5h1zm2.3 2h.8v.1c.3 1.2 1.6 1.8 2.7 1.1.3-.2.5-.5.5-.8 0-.4-.2-.7-.5-.8l-1.3-.3c-.3-.1-.6-.1-.8-.2-1.1-.4-1.4-1.6-.8-2.6.5-.7 1.7-1.1 2.7-.8.9.3 1.4.9 1.5 1.9v.3h-.8v-.3c-.1-.5-.4-.9-.9-1.1-.6-.1-1.2-.1-1.6.3-.5.5-.3 1.2.3 1.4l1.1.3 1 .3c.6.2 1 .7 1.1 1.4.1.7-.1 1.2-.7 1.6-.8.7-2.5.7-3.4.1-.7-.5-1-1.2-.9-1.9zm14.7 0h-3.6c0 .6.4 1.1 1 1.3s1.3 0 1.6-.5c.3-.5.6-.4 1.1-.4 0 1-1.2 1.8-2.4 1.7-1.4-.1-2.3-1.4-2.1-2.9.2-1.4 1.5-2.3 2.8-2 1.1.4 1.9 1.7 1.6 2.8zm-3.7-.6h2.8c-.1-.8-.6-1.2-1.4-1.2-.7-.1-1.3.4-1.4 1.2zm-5.2 2.7v-6.7h.1c.8-.1.8-.1.8.7v3.7s.1 0 .1.1l.6-.7 1.3-1.3c.2-.3.5-.4.8-.3h.6l-1.9 1.9c.7.9 1.4 1.8 2 2.7-.5.2-1 .1-1.3-.3-.4-.6-.8-1.1-1.3-1.8-.3.3-.6.5-.8.8-.1.2-.1.4-.1.7-.1.6-.1.6-.9.5zm21.2 0c-.8.1-.8.1-.8-.7v-2.1c0-.8-.3-1.2-1.1-1.2-.7 0-1.2.4-1.2 1.2v2.4c0 .5 0 .5-.5.5h-.3v-6.8c.8-.1.8-.1.8.6v1.8c.1-.1.2-.1.3-.2.7-.4 1.4-.4 2 0 .6.3.8.9.8 1.6v2.9zm-4.7-2.9h-.7c-.1 0-.2-.1-.2-.2-.3-.6-.7-1-1.4-.9-.6 0-1.1.4-1.3 1.1-.2.5-.1 1.1.2 1.6.3.5.7.7 1.3.7.5 0 1-.2 1.1-.7.1-.4.4-.4.7-.4h.3c0 .7-.5 1.4-1.2 1.7-1.6.7-3.3-.5-3.3-2.3 0-1.7 1.4-2.8 3-2.4.8.2 1.4.9 1.5 1.8zm-4.8 2.1s.1 0 0 0c.1.8 0 .8-.7.8s-1.1-.5-1.1-1.2v-2.7h-.8v-.8h.8v-1.3h.8v1.2h.7c.3 0 .4.1.4.4v.4h-1v2.6c0 .5.2.7.7.6h.2z"/><g fill="#2A2A2A"><path d="M204.8 384.9c.1-.1.2 0 .3 0h1.1c.1 0 .2 0 .2-.2 0-1.2.5-2.2 1.3-3 .8-.9 1.9-1.4 3.2-1.4.8 0 1.4.1 2.1.4 1.1.5 1.8 1.3 2.3 2.3.3.5.4 1.1.4 1.7 0 .2.1.2.2.2h1.4c-.1.1-.2.1-.3.1h-11.8c-.2 0-.3 0-.4-.1z"/><path d="M215.7 384.9h1.6c0 1.1-.3 2.2-.9 3.2-1.1 1.7-2.7 2.8-4.7 3-2.1.2-3.9-.5-5.3-2.1-1-1.1-1.5-2.4-1.6-3.9v-.2h1.6c.1.1.1.3.1.4.1.9.4 1.7 1 2.4.8 1 1.8 1.5 3.1 1.6 1.1.1 2.2-.2 3.1-.8 1-.8 1.6-1.8 1.9-3v-.4c.1-.1.1-.2.1-.2z"/><path d="M215.7 384.9c0 2.7-2.2 4.6-4.7 4.6-2.4 0-4.6-2-4.6-4.6h9.3z"/></g><path fill="#2A2A2A" d="M250.2 386.9c.3-1 .5-1.8.8-2.6.1-.2.3-.4.5-.3.3.1.3.3.2.5l-1.1 3.4c-.1.3-.3.5-.5.5-.3 0-.4-.3-.5-.5l-.9-2.7c-.4 1.1-.6 1.9-.8 2.6-.1.3-.2.6-.6.6-.3 0-.4-.3-.5-.6l-1-3.3c0-.2-.2-.5.1-.6.3-.2.5.1.6.4.3.8.5 1.7.8 2.7.5-.7.5-1.5.9-2.2.2-.3.1-.9.7-.9.5 0 .4.5.6.8 0 .8 0 1.6.7 2.2zm-20.4-.3c.6 1.4 1.5 1.4 2.5 1 .3-.1.6-.6.9-.1.2.3-.3.6-.6.8-1.1.6-2.7.1-3.3-1-.6-1.2 0-2.8 1.3-3.3 1.2-.4 2.5.3 2.9 1.5.2.7.1 1.1-.8 1.1h-2.9zm1.5-.6c.5-.3 1.4.4 1.4-.5 0-.6-.7-.8-1.4-.8-.6 0-1.4.3-1.3.9 0 .7.8.1 1.3.4zm-6.5.2c0 1.3-1.1 2.3-2.4 2.3-1.3 0-2.3-1-2.3-2.2 0-1.3 1-2.4 2.2-2.4 1.3 0 2.5 1 2.5 2.3zm-.7-.2c-.1-.8-.6-1.4-1.6-1.4s-1.6.6-1.6 1.6.7 1.5 1.6 1.5c.9.1 1.5-.5 1.6-1.7zm19 2.5c-1.3 0-2.4-1.1-2.3-2.4 0-1.2 1.2-2.3 2.4-2.3s2.2 1.1 2.2 2.3c.1 1.4-1 2.4-2.3 2.4zm0-3.9c-.9.1-1.6.5-1.6 1.5 0 1.1.6 1.6 1.6 1.6.9 0 1.6-.5 1.6-1.5.1-1-.6-1.5-1.6-1.6zm-17.9-.7c.9.9 1 2.3 1.7 3.5.4-1 .8-1.9 1.2-2.9.1-.3.3-.6.5-.5.5.2.2.5.1.8l-1.3 3.2c-.2.5-.7.8-1 .3-.7-1.3-1.2-2.7-1.8-4.1.3-.2.4-.2.6-.3zm11.7 1.9v-2.2c0-.6.3-1.1.8-1.3.3-.1.8-.3 1 0 .2.4-.3.4-.6.5-.3.1-.5.3-.5.6 0 .4.3.4.5.4.3 0 .5.1.5.5 0 .3-.3.3-.5.3-.7 0-.7.4-.7.9v1.9c0 .3.1.9-.3.9-.5 0-.3-.5-.3-.8 0-.6.1-1.2.1-1.7zm3.2-.6v2.6c0 .2 0 .5-.3.5-.4 0-.4-.3-.4-.5v-5.2c0-.3.1-.5.4-.5.3 0 .4.3.4.5-.1.9-.1 1.8-.1 2.6zm-5.2-1.1c.3.3.4 0 .6-.1.3-.1.5-.3.7.1.1.3-.1.5-.4.5-.8.2-.9.8-.9 1.5v1.8c0 .3-.1.5-.4.5s-.3-.3-.3-.5v-3.5c0-.6.3-.5.7-.3zm-2.2 1.4c0 .9-.9.2-1.4.5-.4-.3-1.3.3-1.3-.4m-15.6 10.3l-4.4 5.3c-.1.2-.3.2-.4 0l-4.4-5.3v-.1l1.6-2.4c.1-.1.2-.2.3-.2h.9c.6 0 1.2-.1 1.8-.1.8 0 1.5.1 2.3.1.2 0 .3.1.5.3.5.8 1.1 1.6 1.6 2.3l.2.1zm-4.5 4.8l2.5-4.8h-5.1c.9 1.7 1.7 3.3 2.6 4.8zm0-7.3c-.8.8-1.6 1.5-2.4 2.2h4.7c-.8-.7-1.6-1.4-2.3-2.2zm-4 2.6c1 1.2 1.9 2.3 2.8 3.5l-1.8-3.3-.1-.1c-.3-.1-.6-.1-.9-.1zm5.1 3.4c1-1.1 1.9-2.2 2.9-3.4h-.9c-.2 0-.3 0-.3.2-.4.8-.8 1.5-1.2 2.3-.1.3-.3.6-.5.9zm-3.8-4.1l2.1-1.9c-.6 0-1.3.1-1.9.1-.1.6-.1 1.2-.2 1.8zm3.2-1.9c.7.7 1.4 1.3 2.1 2 0-.7-.1-1.3-.1-1.9-.7 0-1.3-.1-2-.1zm-4.5 2.2h1l.1-1.5c-.4.5-.8 1-1.1 1.5zm8 0c-.4-.5-.7-1.1-1.1-1.6l.1 1.5h1v.1zm2.3 2.1h.8v.1c.3 1.3 1.6 1.8 2.8 1.2.3-.2.5-.5.5-.9s-.2-.7-.5-.8c-.4-.2-.8-.3-1.3-.3-.3-.1-.6-.1-.9-.3-1.1-.4-1.5-1.7-.8-2.7.5-.8 1.7-1.1 2.8-.8.9.3 1.5 1 1.6 1.9v.3h-.8v-.3c-.1-.6-.4-1-.9-1.1-.6-.2-1.2-.1-1.7.3-.5.5-.3 1.2.3 1.5.4.2.8.2 1.2.3.3.1.7.2 1 .3.6.3 1.1.7 1.1 1.4.1.7-.1 1.3-.7 1.7-.9.7-2.6.8-3.5.1-.7-.4-1.1-1.1-1-1.9zm15.2.1h-3.8c0 .6.4 1.1 1 1.4.6.2 1.4 0 1.6-.5s.7-.5 1.1-.4c0 1-1.2 1.9-2.4 1.8-1.5-.1-2.4-1.4-2.2-3 .2-1.4 1.5-2.4 2.9-2 1.3.2 2.1 1.5 1.8 2.7zm-3.8-.7h2.9c-.1-.8-.7-1.3-1.4-1.3-.8 0-1.4.5-1.5 1.3zm-5.4 2.8v-7h.1c.8-.1.8-.1.8.7v3.8l.1.1c.2-.3.4-.5.6-.7.4-.4.9-.8 1.3-1.3.2-.3.5-.4.8-.3h.6l-2 2c.8 1 1.4 1.9 2.1 2.8-.5.2-1 .1-1.4-.3-.5-.6-.9-1.2-1.4-1.8-.3.3-.6.5-.8.8-.1.2-.1.5-.1.7.2.6.2.6-.7.5zm22 0c-.9.1-.9.1-.9-.7V397c0-.8-.4-1.2-1.1-1.2-.8 0-1.3.4-1.3 1.2v2.5c0 .5 0 .5-.5.5h-.4v-7c.8-.1.8-.1.8.6v1.9c.1-.1.2-.1.3-.2.7-.4 1.4-.4 2.1 0 .7.3.9 1 .9 1.7.1.8.1 1.8.1 2.9zm-4.9-3h-.7c-.1 0-.2-.1-.2-.2-.3-.7-.8-1-1.4-1-.7 0-1.2.4-1.4 1.1-.2.5-.1 1.1.2 1.6.3.5.7.8 1.3.7.5 0 1-.3 1.2-.8.2-.4.4-.5.8-.4h.3c0 .7-.5 1.5-1.3 1.8-1.6.7-3.4-.5-3.3-2.4 0-1.7 1.5-2.9 3.1-2.4.7.4 1.4 1.1 1.4 2zm-4.9 2.2c.1.8 0 .9-.7.8-.7 0-1.1-.5-1.1-1.3v-2.8h-.9v-.8h.8v-1.3h.9v1.3h.7c.3 0 .4.1.4.4v.4h-1.1v2.7c0 .5.2.7.7.6h.3z"/><g fill="#2A2A2A"><path d="M289.3 391.2c.6.2.8.7.8 1.3v2c0 .2 0 .4.2.4.1 0 .1.2.2.3l.8 2.3c0 .1.1.3.2.5.1-.2.2-.3.2-.4l.8-2c.3-.7.3-.7 1.1-.6l-1.1 2.8c-.1.3-.3.6-.3.9-.1.3-.3.4-.6.4s-.4-.1-.5-.3l-.6-1.5c0-.1-.1-.2-.3-.3v3.1c0 .6-.1 1.1-.8 1.3h-8.6c-.4-.2-.6-.4-.8-.8V392c.2-.4.4-.6.8-.8h8.5zm-5.4 7.8h.6c.3 0 .5-.1.5-.5.1-.7.3-1.4.5-2.1 0-.2.2-.4.3-.5.2-.2.5-.3.7-.1.3.2.3.4.2.7 0 .1-.1.2-.1.3-.1.5-.2 1-.3 1.4 0 .4.3.6.6.7.6.2 1.1-.1 1.4-.8.2-.4.2-.5-.3-.6 0 .1-.1.2-.2.3l-.4.3c0-.1-.1-.3-.1-.4l.4-1.5c.1-.5-.1-1.1-.5-1.3-.4-.3-.9-.2-1.4.2-.1.1-.3.2-.4.3l.1-.6h-1.4c-.1 0-.2.1-.3.2-.1.2-.1.4-.2.7.3 0 .5 0 .7.1-.1.5-.3 1.1-.4 1.6-.1.2-.2.5-.4.6s-.5.2-.7.3v-.7c.2-.8.4-1.7.6-2.6h-1.6s-.1.1-.2.1c-.1.3-.1.5-.2.8h.6v.1l-.4 1.8c-.2.8.2 1.4.8 1.3.3 0 .7-.3 1-.4h.1c.5.1.4.1.4.3zm-.6-4.6c.4 0 .7-.3.7-.6s-.3-.7-.7-.7c-.3 0-.6.3-.7.6 0 .4.3.7.7.7zm26.9 4.7h-.3c-.6 0-.6.1-.6-.6v-1.7c0-.7-.3-1.1-.9-1.1-.6 0-1 .4-1.1 1.1v1.9c0 .4-.2.4-.5.4s-.4-.1-.4-.4V395h.8c0 .2 0 .3.1.6l.3-.3c.4-.5 1-.5 1.5-.4.5.2.8.5.9 1.1 0 .1 0 .1.1.2.1 0 .1 2.9.1 2.9z"/><path d="M280.7 391.2c-.4.2-.6.4-.8.8v-.8h.8zm-.7 9.4c.2.4.4.6.8.8h-.8v-.8zm25.7-3.7c0 1.2-.9 2.2-2.2 2.2-1.2 0-2.2-.9-2.2-2.1 0-1.3.9-2.2 2.2-2.2 1.3 0 2.2.9 2.2 2.1zm-3.5 0c-.1.7.5 1.4 1.4 1.4.8 0 1.3-.6 1.3-1.4 0-.8-.5-1.4-1.3-1.4-.9 0-1.4.6-1.4 1.4zm-6.5 1.6c.3-.3.6-.4 1-.3.3.1.7.2 1 .1.2 0 .4-.2.5-.4.1-.3-.1-.4-.3-.5-.3-.1-.6-.2-1-.3-.7-.3-1.1-.7-1-1.3.1-.7.6-1.1 1.4-1.1.5 0 1.1.1 1.5.4-.2.4-.4.5-.9.3-.3 0-.5-.1-.8-.1-.2 0-.4.3-.4.4 0 .1.2.3.3.4.2.1.5.2.8.3.1 0 .3.1.4.2.6.3.8.5.7 1.2 0 .5-.3.8-.8 1-.9.5-1.7.3-2.4-.3zm-.7-3.6v3.8c0 .4-.2.3-.5.3-.2 0-.4 0-.4-.3v-3.5c0-.3.1-.3.3-.3h.6zm4.7 0h.8v4.1h-.8v-4.1z"/></g><path fill="#2A2A2A" d="M372.2 395.4c-.3 0-.6-.1-.8-.3l-3.6-3.3c-.5-.5-.5-1.2-.1-1.7.5-.5 1.2-.5 1.7-.1l2.8 2.6 2.8-2.6c.5-.5 1.3-.4 1.7.1.5.5.4 1.3-.1 1.7l-3.7 3.3c-.1.2-.4.3-.7.3zm.2-1.7c-.7 0-1.2-.5-1.2-1.2 0-5.7-4.7-10.4-10.4-10.4-3.6 0-6.9 1.8-8.8 4.8-.3.5-1.1.7-1.6.4-.5-.3-.7-1.1-.4-1.6 2.4-3.7 6.4-6 10.8-6 7.1 0 12.8 5.7 12.8 12.8 0 .7-.5 1.2-1.2 1.2zm-11.5 11.9c-7.1 0-12.8-5.7-12.8-12.8 0-.7.5-1.2 1.2-1.2s1.2.5 1.2 1.2c0 5.7 4.7 10.4 10.4 10.4 3.6 0 6.9-1.8 8.8-4.9.3-.5 1.1-.7 1.6-.4.5.3.7 1.1.4 1.6-2.4 3.9-6.4 6.1-10.8 6.1zm-7.9-10c-.3 0-.6-.1-.8-.3l-2.8-2.6-2.8 2.6c-.5.4-1.3.4-1.7-.1-.5-.5-.4-1.3.1-1.7l3.7-3.3c.5-.4 1.1-.4 1.6 0l3.6 3.3c.5.5.5 1.2.1 1.7-.4.3-.7.4-1 .4zm-71.3-7.6h-.4c-.2 0-.4-.2-.5-.4 0-.2.1-.5.3-.5.4-.2.7-.4.9-.7-1.5-.8-2.5-2.2-2.5-3.6 0-2.4 2.4-4.3 5.3-4.3s5.3 1.9 5.3 4.3c0 2.3-2.4 4.3-5.3 4.3h-.2c-.7.5-1.7.9-2.9.9zm3.2-8.6c-2.4 0-4.3 1.5-4.3 3.3 0 1.2.9 2.4 2.4 2.9.1 0 .3.2.3.3v.4l-.1.2c0 .1-.1.2-.2.2.4-.2.8-.4 1.1-.7.1-.1.3-.2.4-.2h.3c2.4 0 4.3-1.5 4.3-3.3 0-1.6-1.9-3.1-4.2-3.1zm5.9 10.2c-.7 0-1.3-.2-1.8-.5h-.1c-2 .4-4-.5-4.6-2.2-.1-.3 0-.5.3-.7.3-.1.5 0 .7.3.5 1.2 2 1.8 3.5 1.6h.3c.2 0 .3 0 .5.1.2.2.4.3.7.3l-.1-.1c-.1-.1-.1-.3-.1-.4 0-.1.1-.3.2-.3 1.1-.7 1.6-1.7 1.5-2.7-.1-.8-.7-1.5-1.6-1.9-.3-.1-.4-.4-.3-.7.1-.3.4-.4.7-.3 1.2.5 2.1 1.5 2.2 2.7.2 1.3-.4 2.6-1.5 3.5.2.2.5.3.7.4.2.1.4.3.3.5 0 .2-.2.4-.4.5-.4-.2-.7-.1-1.1-.1z"/><path fill="#2A2A2A" d="M355.6 393.3v-.8l2.8-1.3v.8l-1.8.8 1.8.8v.8c0 .2-2.8-1.1-2.8-1.1zm5.7-2.7h.8l-2.4 5.2h-.8l2.4-5.2zm4.2 1.9v.8l-2.8 1.3v-.8l1.8-.8-1.8-.8v-.8c0-.2 2.8 1.1 2.8 1.1zm61.2-6.2c-3.1 0-5.6-2.8-5.6-6.3s2.5-6.3 5.6-6.3 5.6 2.8 5.6 6.3-2.5 6.3-5.6 6.3zm0-10.2c-1.8 0-3.3 1.8-3.3 4s1.5 4 3.3 4 3.3-1.8 3.3-4-1.5-4-3.3-4zm8.6 30.9c-4 0-7.3-3.3-7.3-7.3s3.3-7.3 7.3-7.3 7.3 3.3 7.3 7.3-3.3 7.3-7.3 7.3zm0-13.3c-3.4 0-6.1 2.7-6.1 6.1 0 3.4 2.7 6.1 6.1 6.1 3.3 0 6.1-2.7 6.1-6.1-.1-3.4-2.8-6.1-6.1-6.1zm-6.7 7.2H418c-.6 0-1.1-.5-1.2-1.1l-.4-5.5c-.1-2 1.4-4.4 3.5-5.1 4.3-1.5 9-1.5 13.3 0 1.5.5 2.8 2 3.3 3.7l-2.2.6c-.3-.9-1-1.8-1.8-2.1-3.8-1.4-7.9-1.4-11.7 0-1.1.4-2 1.9-1.9 2.7l.3 4.4h9.5l-.1 2.4zm5.5 3.1c-.3 0-.6-.1-.8-.4l-1.9-2c-.5-.5-.4-1.2 0-1.6.5-.5 1.2-.4 1.6 0l1 1.1 3.4-4.1c.4-.5 1.1-.6 1.6-.2.5.4.6 1.1.2 1.6l-4.2 5.2c-.2.2-.5.3-.9.4zm133.5-12.3c-.3 0-.5-.1-.8-.3-.4-.4-.4-1.1 0-1.5l3.3-3.3-3.3-3.3c-.4-.4-.4-1.1 0-1.5s1.1-.4 1.5 0l4.1 4.1c.4.4.4 1.1 0 1.5l-4.1 4.1c-.2.1-.4.2-.7.2zm2.8 13.6h-17.5c-2.2 0-3.9-1.8-3.9-3.9v-12c0-2.2 1.8-3.9 3.9-3.9h6.5c.5 0 1 .4 1 1s-.4 1-1 1h-6.5c-1.1 0-1.9.9-1.9 1.9v12c0 1.1.9 1.9 1.9 1.9h17.5c1.1 0 1.9-.9 1.9-1.9v-11.9c0-.5.4-1 1-1s1 .4 1 1v12c0 2-1.8 3.8-3.9 3.8zm-16.6-4.1h-.2c-.5-.1-.9-.7-.8-1.2 1.6-8.4 9-14.5 17.4-14.5.6 0 1.1.5 1.1 1.1 0 .6-.5 1.1-1.1 1.1-7.5 0-13.9 5.4-15.4 12.8 0 .4-.5.7-1 .7z"/><text transform="translate(9 447.333)" fill="#2A2A2A" font-family="'OpenSans'" font-size="8">flowchart</text><text transform="translate(75.215 447.333)" fill="#2A2A2A" font-family="'OpenSans'" font-size="8">mockups</text><text transform="translate(150.792 447.333)" fill="#2A2A2A" font-family="'OpenSans'" font-size="8">static</text><text transform="translate(139.645 456.454)" fill="#2A2A2A" font-family="'OpenSans'" font-size="8">wireframes</text><text transform="translate(207.572 447.333)" fill="#2A2A2A" font-family="'OpenSans'" font-size="8">user flows</text><text transform="translate(205.546 456.454)" fill="#2A2A2A" font-family="'OpenSans'" font-size="8">wireframes</text><text transform="translate(206.812 465.575)" fill="#2A2A2A" font-family="'OpenSans'" font-size="8">(feedback)</text><text transform="rotate(-.81 32139.938 -19117.014)" fill="#2A2A2A" font-family="'OpenSans'" font-size="8">visual design</text><text transform="rotate(-.81 32788.806 -19510.59)" fill="#2A2A2A" font-family="'OpenSans'" font-size="8">prototype</text><text transform="rotate(-.81 33440.898 -19433.638)" fill="#2A2A2A" font-family="'OpenSans'" font-size="8">(feedback)</text><text transform="translate(350.327 447.333)" fill="#2A2A2A" font-family="'OpenSans'" font-size="8">refine</text><text transform="translate(342.22 456.454)" fill="#2A2A2A" font-family="'OpenSans'" font-size="8">prototype</text><text transform="translate(329.68 465.575)" fill="#2A2A2A" font-family="'OpenSans'" font-size="8">(front-end code)</text><text transform="translate(405.506 447.333)" fill="#2A2A2A" font-family="'OpenSans'" font-size="8">user testing</text><text transform="translate(407.785 456.454)" fill="#2A2A2A" font-family="'OpenSans'" font-size="8">(feedback)</text><text transform="translate(474.848 447.333)" fill="#2A2A2A" font-family="'OpenSans'" font-size="8">Analyze &amp;</text><text transform="translate(477.382 456.454)" fill="#2A2A2A" font-family="'OpenSans'" font-size="8">iteration</text><text transform="translate(521.394 447.333)" fill="#2A2A2A" font-family="'OpenSans'" font-size="8">code/documentation</text><text transform="translate(530.852 456.454)" fill="#2A2A2A" font-family="'OpenSans'" font-size="8">hand-off to devs</text><path fill="#FEC683" d="M38.4 422.5l39.7.2v.9l1.8-1.4-1.8-1.4v.9l-39.7-.2v1z"/><circle fill="none" stroke="#FD6E7C" stroke-width="2" stroke-miterlimit="10" cx="25.4" cy="422" r="10.6"/><circle fill="none" stroke="#FD6E7C" stroke-width="2" stroke-miterlimit="10" cx="92.5" cy="422" r="10.6"/><circle fill="none" stroke="#FD6E7C" stroke-width="2" stroke-miterlimit="10" cx="159.6" cy="422" r="10.6"/><circle fill="none" stroke="#FD6E7C" stroke-width="2" stroke-miterlimit="10" cx="226.8" cy="422" r="10.6"/><circle fill="none" stroke="#FD6E7C" stroke-width="2" stroke-miterlimit="10" cx="293.9" cy="422" r="10.6"/><circle fill="none" stroke="#FD6E7C" stroke-width="2" stroke-miterlimit="10" cx="360.6" cy="422" r="10.6"/><circle fill="none" stroke="#FD6E7C" stroke-width="2" stroke-miterlimit="10" cx="427.3" cy="422" r="10.6"/><circle fill="none" stroke="#FD6E7C" stroke-width="2" stroke-miterlimit="10" cx="494" cy="422" r="10.6"/><circle fill="none" stroke="#FD6E7C" stroke-width="2" stroke-miterlimit="10" cx="560.8" cy="422" r="10.6"/><path fill="#2A2A2A" d="M504.8 395.4c-.3 0-.6-.1-.8-.3l-3.6-3.3c-.5-.5-.5-1.2-.1-1.7.5-.5 1.2-.5 1.7-.1l2.8 2.6 2.8-2.6c.5-.5 1.3-.4 1.7.1.5.5.4 1.3-.1 1.7l-3.7 3.3c-.1.2-.4.3-.7.3zm.2-1.7c-.7 0-1.2-.5-1.2-1.2 0-5.7-4.7-10.4-10.4-10.4-3.6 0-6.9 1.8-8.8 4.8-.3.5-1.1.7-1.6.4s-.7-1.1-.4-1.6c2.4-3.7 6.4-6 10.8-6 7.1 0 12.8 5.7 12.8 12.8 0 .7-.5 1.2-1.2 1.2zm-11.5 11.9c-7.1 0-12.8-5.7-12.8-12.8 0-.7.5-1.2 1.2-1.2s1.2.5 1.2 1.2c0 5.7 4.7 10.4 10.4 10.4 3.6 0 6.9-1.8 8.8-4.9.3-.5 1.1-.7 1.6-.4.5.3.7 1.1.4 1.6-2.4 3.9-6.5 6.1-10.8 6.1zm-7.9-10c-.3 0-.6-.1-.8-.3l-2.8-2.6-2.8 2.6c-.5.4-1.3.4-1.7-.1-.5-.5-.4-1.3.1-1.7l3.7-3.3c.5-.4 1.1-.4 1.6 0l3.6 3.3c.5.5.5 1.2.1 1.7-.4.3-.7.4-1 .4z"/><path fill="#FEC683" d="M105.4 422.5l39.7.2v.9l1.8-1.4-1.8-1.4v.9l-39.7-.2v1zm67 0l39.7.2v.9l1.8-1.4-1.8-1.4v.9l-39.7-.2v1zm67 0l39.7.2v.9l1.8-1.4-1.8-1.4v.9l-39.7-.2v1zm67 0l39.7.2v.9l1.8-1.4-1.8-1.4v.9l-39.7-.2v1zm67 0l39.7.2v.9l1.8-1.4-1.8-1.4v.9l-39.7-.2v1zm67 0l39.7.2v.9l1.8-1.4-1.8-1.4v.9l-39.7-.2v1zm66 0l39.7.2v.9l1.8-1.4-1.8-1.4v.9l-39.7-.2v1z"/></svg>