<svg width="130" height="42" viewBox="0 0 130 42" fill="none" xmlns="http://www.w3.org/2000/svg">
<g clip-path="url(#clip0_39_8)">
<path d="M20.484 29.9775H14.688V26.3415H14.616C14.4 26.8215 14.136 27.3135 13.824 27.8175C13.536 28.2975 13.164 28.7415 12.708 29.1495C12.276 29.5335 11.76 29.8455 11.16 30.0855C10.584 30.3495 9.9 30.4815 9.108 30.4815C8.148 30.4815 7.368 30.3735 6.768 30.1575C6.168 29.9415 5.7 29.7135 5.364 29.4735C5.196 29.3535 5.004 29.2095 4.788 29.0415C4.596 28.8495 4.416 28.5975 4.248 28.2855C4.08 27.9735 3.936 27.5775 3.816 27.0975C3.696 26.5935 3.636 25.9815 3.636 25.2615V15.0375H0.864V14.5335H6.732V25.5855C6.732 26.2095 6.768 26.7855 6.84 27.3135C6.936 27.8415 7.104 28.3095 7.344 28.7175C7.584 29.1015 7.896 29.4135 8.28 29.6535C8.664 29.8695 9.168 29.9775 9.792 29.9775C10.32 29.9775 10.86 29.8215 11.412 29.5095C11.988 29.1975 12.504 28.7535 12.96 28.1775C13.44 27.6015 13.836 26.9175 14.148 26.1255C14.46 25.3095 14.616 24.3975 14.616 23.3895V15.0375H11.88V14.5335H17.712V29.4735H20.484V29.9775ZM21.8798 29.4735H23.7878L28.7198 22.8495L23.3558 15.0375H21.3398V14.5335H29.7998V15.0375H26.9558L30.6638 20.4375L34.5518 15.0375H31.8878V14.5335H37.1798V15.0375H35.2718L30.9878 20.9415L36.8558 29.4735H38.8358V29.9775H30.4118V29.4735H33.2558L29.0438 23.3535L24.5078 29.4735H27.1718V29.9775H21.8798V29.4735ZM54.5479 21.7335C54.5479 20.6295 54.4879 19.6455 54.3679 18.7815C54.2479 17.8935 54.0319 17.1375 53.7199 16.5135C53.4319 15.8895 53.0119 15.4095 52.4599 15.0735C51.9319 14.7375 51.2479 14.5695 50.4079 14.5695C49.5199 14.5695 48.7879 14.7255 48.2119 15.0375C47.6359 15.3495 47.1679 15.7455 46.8079 16.2255C46.5439 16.5615 46.3279 16.9215 46.1599 17.3055C46.0159 17.6895 45.8959 18.1455 45.7999 18.6735C45.7039 19.2015 45.6319 19.8135 45.5839 20.5095C45.5599 21.1815 45.5479 21.9855 45.5479 22.9215C45.5479 23.7135 45.6079 24.5295 45.7279 25.3695C45.8479 26.2095 46.0759 26.9775 46.4119 27.6735C46.7479 28.3455 47.2159 28.8975 47.8159 29.3295C48.4399 29.7615 49.2559 29.9775 50.2639 29.9775C51.2479 29.9775 52.0279 29.7855 52.6039 29.4015C53.1799 29.0175 53.6119 28.4655 53.8999 27.7455C54.1879 27.0255 54.3679 26.1615 54.4399 25.1535C54.5119 24.1215 54.5479 22.9815 54.5479 21.7335ZM39.6799 39.5535H42.4519V15.0375H39.6799V14.5335H45.4759V17.5575H45.5479C45.9079 16.5495 46.4959 15.7215 47.3119 15.0735C48.1519 14.4015 49.2319 14.0655 50.5519 14.0655C51.5839 14.0655 52.5559 14.2935 53.4679 14.7495C54.3799 15.1815 55.1839 15.7695 55.8799 16.5135C56.5759 17.2335 57.1279 18.0855 57.5359 19.0695C57.9439 20.0535 58.1479 21.0855 58.1479 22.1655C58.1479 23.2695 57.9319 24.3255 57.4999 25.3335C57.0919 26.3175 56.5279 27.1935 55.8079 27.9615C55.0879 28.7295 54.2479 29.3415 53.2879 29.7975C52.3519 30.2535 51.3559 30.4815 50.2999 30.4815C49.4839 30.4815 48.7879 30.3375 48.2119 30.0495C47.6599 29.7855 47.2039 29.4735 46.8439 29.1135C46.4839 28.7295 46.2079 28.3455 46.0159 27.9615C45.8239 27.5535 45.6919 27.2295 45.6199 26.9895H45.5479V39.5535H48.3199V40.0575H39.6799V39.5535ZM70.9197 21.1575H70.8477C70.7997 21.4695 70.4037 21.7815 69.6597 22.0935L66.9597 23.1735C66.1917 23.4855 65.6037 23.9295 65.1957 24.5055C64.7877 25.0575 64.5837 25.7535 64.5837 26.5935C64.5837 26.9535 64.6197 27.3255 64.6917 27.7095C64.7637 28.0935 64.8957 28.4415 65.0877 28.7535C65.2797 29.0415 65.5437 29.2815 65.8797 29.4735C66.2397 29.6655 66.6957 29.7615 67.2477 29.7615C68.0397 29.7615 68.6757 29.5935 69.1557 29.2575C69.6597 28.9215 70.0317 28.5015 70.2717 27.9975C70.5357 27.4935 70.7037 26.9535 70.7757 26.3775C70.8717 25.7775 70.9197 25.2375 70.9197 24.7575V21.1575ZM77.2197 29.5815C76.9077 29.8215 76.5357 30.0255 76.1037 30.1935C75.6717 30.3855 75.1437 30.4815 74.5197 30.4815C73.3677 30.4815 72.5277 30.2415 71.9997 29.7615C71.4957 29.2575 71.1477 28.5615 70.9557 27.6735H70.8837C70.7877 27.8895 70.6557 28.1655 70.4877 28.5015C70.3197 28.8135 70.0557 29.1255 69.6957 29.4375C69.3597 29.7255 68.9037 29.9655 68.3277 30.1575C67.7517 30.3735 67.0197 30.4815 66.1317 30.4815C65.1237 30.4815 64.3197 30.3615 63.7197 30.1215C63.1197 29.9055 62.6517 29.6295 62.3157 29.2935C61.9797 28.9575 61.7517 28.5855 61.6317 28.1775C61.5357 27.7455 61.4877 27.3495 61.4877 26.9895C61.4877 26.1495 61.6557 25.4775 61.9917 24.9735C62.3277 24.4695 62.7597 24.0735 63.2877 23.7855C63.8397 23.4735 64.4397 23.2215 65.0877 23.0295C65.7597 22.8375 66.4317 22.6335 67.1037 22.4175C67.8957 22.1535 68.5437 21.9255 69.0477 21.7335C69.5757 21.5415 69.9837 21.3135 70.2717 21.0495C70.5597 20.7615 70.7517 20.4135 70.8477 20.0055C70.9677 19.5735 71.0277 18.9975 71.0277 18.2775C71.0277 17.7015 70.9917 17.1855 70.9197 16.7295C70.8477 16.2735 70.7157 15.8895 70.5237 15.5775C70.3317 15.2415 70.0557 14.9895 69.6957 14.8215C69.3357 14.6535 68.8557 14.5695 68.2557 14.5695C67.4637 14.5695 66.8037 14.7135 66.2757 15.0015C65.7717 15.2655 65.5197 15.7095 65.5197 16.3335C65.5197 16.7415 65.5557 17.1495 65.6277 17.5575C65.6997 17.9415 65.7357 18.2295 65.7357 18.4215C65.7357 18.7575 65.6157 19.0455 65.3757 19.2855C65.1357 19.5015 64.7877 19.6095 64.3317 19.6095C63.5397 19.6095 63.0477 19.4655 62.8557 19.1775C62.6637 18.8895 62.5677 18.5175 62.5677 18.0615C62.5677 17.5335 62.6877 17.0295 62.9277 16.5495C63.1677 16.0695 63.5157 15.6495 63.9717 15.2895C64.4517 14.9055 65.0397 14.6055 65.7357 14.3895C66.4557 14.1735 67.2717 14.0655 68.1837 14.0655C69.2877 14.0655 70.2117 14.2095 70.9557 14.4975C71.6997 14.7615 72.2997 15.1335 72.7557 15.6135C73.2117 16.0695 73.5357 16.5975 73.7277 17.1975C73.9197 17.7735 74.0157 18.3855 74.0157 19.0335V27.9975C74.0157 28.6935 74.1237 29.1615 74.3397 29.4015C74.5557 29.6415 74.8677 29.7615 75.2757 29.7615C75.5397 29.7615 75.8157 29.7135 76.1037 29.6175C76.3917 29.5215 76.6677 29.3775 76.9317 29.1855L77.2197 29.5815ZM84.3278 31.0575C84.0158 31.2495 83.6918 31.4415 83.3558 31.6335C83.0438 31.8495 82.7558 32.1135 82.4918 32.4255C82.2518 32.7375 82.0478 33.0975 81.8798 33.5055C81.7358 33.9375 81.6638 34.4655 81.6638 35.0895C81.6638 35.9535 81.8078 36.6615 82.0957 37.2135C82.4078 37.7895 82.7918 38.2455 83.2478 38.5815C83.7278 38.9415 84.2558 39.1935 84.8318 39.3375C85.4078 39.4815 85.9718 39.5535 86.5238 39.5535C87.3878 39.5535 88.1678 39.4215 88.8638 39.1575C89.5838 38.8935 90.1958 38.5335 90.6998 38.0775C91.2278 37.6455 91.6238 37.1415 91.8878 36.5655C92.1758 35.9895 92.3198 35.3895 92.3198 34.7655C92.3198 33.4215 91.9478 32.4615 91.2038 31.8855C90.4838 31.3335 89.4878 31.0575 88.2158 31.0575H84.3278ZM90.1598 19.3575C90.1598 18.8055 90.1238 18.2535 90.0518 17.7015C89.9798 17.1255 89.8238 16.6095 89.5838 16.1535C89.3678 15.6735 89.0198 15.2895 88.5398 15.0015C88.0838 14.7135 87.4598 14.5695 86.6678 14.5695C85.4438 14.5695 84.5198 14.9415 83.8958 15.6855C83.2718 16.4295 82.9598 17.6535 82.9598 19.3575C82.9598 20.0775 83.0078 20.7255 83.1038 21.3015C83.2238 21.8775 83.4278 22.3815 83.7158 22.8135C84.0038 23.2215 84.3878 23.5335 84.8678 23.7495C85.3478 23.9655 85.9598 24.0735 86.7038 24.0735C87.9518 24.0735 88.8398 23.6895 89.3678 22.9215C89.8958 22.1295 90.1598 20.9415 90.1598 19.3575ZM78.9278 27.6375C78.9278 26.9895 79.0478 26.4375 79.2878 25.9815C79.5278 25.5015 79.8158 25.0935 80.1518 24.7575C80.5118 24.3975 80.8838 24.1095 81.2678 23.8935C81.6758 23.6775 82.0358 23.4975 82.3478 23.3535C80.9558 22.3935 80.2598 21.0975 80.2598 19.4655C80.2598 18.6255 80.4638 17.8695 80.8718 17.1975C81.2798 16.5255 81.7958 15.9615 82.4198 15.5055C83.0438 15.0255 83.7278 14.6655 84.4718 14.4255C85.2398 14.1855 85.9718 14.0655 86.6678 14.0655C87.7478 14.0655 88.6718 14.2815 89.4398 14.7135C90.2318 15.1455 90.8078 15.5415 91.1678 15.9015C91.4318 15.4455 91.8158 15.0255 92.3198 14.6415C92.8478 14.2575 93.4958 14.0655 94.2638 14.0655C94.7438 14.0655 95.1878 14.1735 95.5958 14.3895C96.0038 14.5815 96.2078 15.0135 96.2078 15.6855C96.2078 16.1175 96.0638 16.4415 95.7758 16.6575C95.5118 16.8735 95.2358 16.9815 94.9478 16.9815C94.6118 16.9815 94.3718 16.8855 94.2278 16.6935C94.0838 16.5015 93.9518 16.2975 93.8318 16.0815C93.7358 15.8655 93.6278 15.6615 93.5078 15.4695C93.3878 15.2775 93.2078 15.1815 92.9678 15.1815C92.7278 15.1815 92.4758 15.2895 92.2118 15.5055C91.9718 15.6975 91.7558 15.9255 91.5638 16.1895C91.7798 16.4295 92.0558 16.8375 92.3918 17.4135C92.7278 17.9895 92.8958 18.7095 92.8958 19.5735C92.8958 20.2935 92.7158 20.9535 92.3558 21.5535C91.9958 22.1535 91.5158 22.6815 90.9158 23.1375C90.3398 23.5935 89.6558 23.9535 88.8638 24.2175C88.0958 24.4575 87.3038 24.5775 86.4878 24.5775C85.6478 24.5775 84.9158 24.4695 84.2918 24.2535C83.6678 24.0135 83.1878 23.8095 82.8518 23.6415C82.5878 23.7615 82.2998 23.8935 81.9878 24.0375C81.6998 24.1815 81.4238 24.3615 81.1598 24.5775C80.9198 24.7935 80.7158 25.0575 80.5478 25.3695C80.3798 25.6575 80.2958 25.9935 80.2958 26.3775C80.2958 26.7375 80.3678 27.0375 80.5118 27.2775C80.6558 27.5175 80.8358 27.6975 81.0518 27.8175C81.2918 27.9375 81.5558 28.0215 81.8438 28.0695C82.1318 28.1175 82.4318 28.1415 82.7438 28.1415H88.4318C90.1118 28.1415 91.4438 28.5495 92.4278 29.3655C93.4358 30.1575 93.9398 31.4175 93.9398 33.1455C93.9398 34.2015 93.7118 35.1615 93.2558 36.0255C92.7998 36.8895 92.1878 37.6335 91.4198 38.2575C90.6758 38.9055 89.8118 39.3975 88.8278 39.7335C87.8438 40.0935 86.8358 40.2735 85.8038 40.2735C84.8678 40.2735 84.0038 40.1655 83.2118 39.9495C82.4438 39.7335 81.7718 39.4335 81.1958 39.0495C80.6198 38.6895 80.1638 38.2455 79.8278 37.7175C79.5158 37.1895 79.3598 36.6015 79.3598 35.9535C79.3598 35.3295 79.4798 34.7535 79.7197 34.2255C79.9838 33.7215 80.3078 33.2655 80.6918 32.8575C81.0998 32.4735 81.5558 32.1375 82.0598 31.8495C82.5638 31.5615 83.0678 31.3215 83.5718 31.1295V31.0575C81.9878 31.0575 80.8118 30.7935 80.0438 30.2655C79.2998 29.7615 78.9278 28.8855 78.9278 27.6375ZM108.684 20.5455C108.732 20.2095 108.756 19.8975 108.756 19.6095C108.756 19.3215 108.756 19.0215 108.756 18.7095C108.756 17.8935 108.672 17.2215 108.504 16.6935C108.36 16.1655 108.144 15.7455 107.856 15.4335C107.592 15.1215 107.256 14.9055 106.848 14.7855C106.464 14.6415 106.044 14.5695 105.588 14.5695C104.772 14.5695 104.1 14.7375 103.572 15.0735C103.044 15.3855 102.624 15.8175 102.312 16.3695C102 16.9215 101.76 17.5575 101.592 18.2775C101.448 18.9975 101.352 19.7535 101.304 20.5455H108.684ZM101.268 21.0495C101.268 21.2895 101.256 21.5415 101.232 21.8055C101.232 22.0455 101.232 22.3575 101.232 22.7415C101.232 23.5335 101.28 24.3615 101.376 25.2255C101.472 26.0895 101.676 26.8695 101.988 27.5655C102.324 28.2615 102.804 28.8375 103.428 29.2935C104.076 29.7495 104.928 29.9775 105.984 29.9775C107.04 29.9775 107.904 29.8215 108.576 29.5095C109.272 29.1975 109.812 28.8255 110.196 28.3935C110.604 27.9375 110.904 27.4815 111.096 27.0255C111.288 26.5695 111.432 26.1975 111.528 25.9095L112.068 26.0175C111.996 26.2815 111.852 26.6655 111.636 27.1695C111.444 27.6495 111.12 28.1415 110.664 28.6455C110.232 29.1255 109.632 29.5575 108.864 29.9415C108.12 30.3015 107.148 30.4815 105.948 30.4815C104.748 30.4815 103.632 30.2895 102.6 29.9055C101.592 29.5215 100.716 28.9695 99.9717 28.2495C99.2277 27.5295 98.6517 26.6775 98.2437 25.6935C97.8357 24.6855 97.6317 23.5695 97.6317 22.3455C97.6317 21.2895 97.8357 20.2695 98.2437 19.2855C98.6757 18.2775 99.2517 17.3895 99.9717 16.6215C100.716 15.8535 101.58 15.2415 102.564 14.7855C103.548 14.3055 104.604 14.0655 105.732 14.0655C106.404 14.0655 107.124 14.1855 107.892 14.4255C108.66 14.6655 109.368 15.0615 110.016 15.6135C110.688 16.1415 111.24 16.8495 111.672 17.7375C112.128 18.6255 112.356 19.7295 112.356 21.0495H101.268ZM116.028 24.9375H116.424C116.592 25.5135 116.808 26.1015 117.072 26.7015C117.336 27.2775 117.684 27.8175 118.116 28.3215C118.572 28.8015 119.124 29.1975 119.772 29.5095C120.42 29.8215 121.2 29.9775 122.112 29.9775C122.88 29.9775 123.564 29.7495 124.164 29.2935C124.764 28.8135 125.064 28.0455 125.064 26.9895C125.064 26.0775 124.824 25.4415 124.344 25.0815C123.888 24.6975 123.348 24.3975 122.724 24.1815L119.916 23.2095C119.556 23.0895 119.16 22.9455 118.728 22.7775C118.32 22.5855 117.936 22.3335 117.576 22.0215C117.216 21.6855 116.916 21.2655 116.676 20.7615C116.46 20.2575 116.352 19.6095 116.352 18.8175C116.352 18.1455 116.484 17.5215 116.748 16.9455C117.012 16.3695 117.372 15.8655 117.828 15.4335C118.284 15.0015 118.824 14.6655 119.448 14.4255C120.096 14.1855 120.792 14.0655 121.536 14.0655C122.064 14.0655 122.484 14.1135 122.796 14.2095C123.132 14.2815 123.42 14.3655 123.66 14.4615C123.9 14.5335 124.116 14.6175 124.308 14.7135C124.5 14.7855 124.728 14.8215 124.992 14.8215C125.256 14.8215 125.448 14.7255 125.568 14.5335H125.964V18.6375H125.568C125.4 18.1095 125.208 17.6055 124.992 17.1255C124.776 16.6215 124.512 16.1775 124.2 15.7935C123.912 15.4095 123.54 15.1095 123.084 14.8935C122.652 14.6775 122.136 14.5695 121.536 14.5695C120.384 14.5695 119.484 14.8335 118.836 15.3615C118.212 15.8655 117.9 16.5495 117.9 17.4135C117.9 18.1815 118.164 18.7695 118.692 19.1775C119.244 19.5615 120.048 19.9215 121.104 20.2575L123.732 21.1215C124.86 21.5055 125.784 22.0335 126.504 22.7055C127.224 23.3775 127.584 24.2655 127.584 25.3695C127.584 26.0175 127.452 26.6535 127.188 27.2775C126.948 27.9015 126.576 28.4535 126.072 28.9335C125.592 29.3895 124.992 29.7615 124.272 30.0495C123.576 30.3375 122.772 30.4815 121.86 30.4815C121.332 30.4815 120.84 30.4215 120.384 30.3015C119.952 30.2055 119.544 30.0975 119.16 29.9775C118.8 29.8575 118.464 29.7495 118.152 29.6535C117.84 29.5335 117.552 29.4735 117.288 29.4735C117.024 29.4735 116.832 29.5335 116.712 29.6535C116.592 29.7495 116.496 29.8575 116.424 29.9775H116.028V24.9375Z" fill="white"/>
</g>
<defs>
<clipPath id="clip0_39_8">
<rect width="129.3" height="41.7" fill="white"/>
</clipPath>
</defs>
</svg>
