<?xml version="1.0" encoding="utf-8"?>
<!-- Generator: Adobe Illustrator 22.0.0, SVG Export Plug-In . SVG Version: 6.00 Build 0)  -->
<svg version="1.1" id="e37c00f5-ff96-45aa-87ea-1a24b78ba7bd"
	 xmlns="http://www.w3.org/2000/svg" xmlns:xlink="http://www.w3.org/1999/xlink" x="0px" y="0px" viewBox="0 0 1176.6 798"
	 style="enable-background:new 0 0 1176.6 798;" xml:space="preserve">
<style type="text/css">
	.st0{fill:#3839D4;}
	.st1{fill:#FFFFFF;}
	.st2{fill:#ED6E35;stroke:#ED6E35;stroke-width:0.25;stroke-miterlimit:10;}
</style>
<rect x="-25" y="-94" class="st0" width="1222" height="892"/>
<title>connected world</title>
<path class="st1" d="M924.7,207.7C828.9,74.3,626.4,20.2,427.3,78.5C322,109.3,220.5,171,170.2,290.5
	c-90,213.7,98.8,281.9,222.3,303.7c59.7,10.5,115.9,28.2,167.3,52.2c92.4,43.3,256.1,81.6,379.4-98.6
	C1028.7,417.1,988.6,296.5,924.7,207.7z"/>
<path class="st0" d="M369,234.1c-0.3-2.1-0.8-4.2-1.6-6.2c-0.2-0.8-0.7-1.4-1.4-1.8c-0.5-0.1-0.9-0.1-1.4,0l-7.2,1.1
	c-0.6,0-1.2,0.3-1.7,0.6c-0.9,1,0,2.6,0,4c0,1.5-1.4,2.8-2.9,3.2c-1.5,0.3-3.1,0.3-4.6-0.1l-10.1-1.6c3-1,5.6-2.7,7.7-5.1
	c1.3-1.6,2-4.5,0.1-5.3c-0.6-0.2-1.2-0.2-1.8-0.1c-4.6,0-8.2-3.8-12.5-5.4c-5.6-2-11.9-0.1-15.5,4.6l5.4,0.3c0.5,0,1,0.1,1.4,0.4
	c1.2,1-0.3,2.8-0.1,4.4c0.2,2,2.8,2.4,4.8,2.6s4.5,1.8,3.5,3.6c-9.9,3.4-20.1-6.7-30.5-5.4c-2.6,0.3-5.1,1.4-7.7,2
	c-15.8,4-32-6.6-48.1-4.4c-3.6,0.6-7.1,1.5-10.5,2.8c-2.2,0.7-4.5,1.5-6.1,3.2s-2.2,4.5-0.7,6.3c-4.2,0.3-8.3-0.1-12.4-1.2
	c2.2,1.2,3.6,3.6,3.6,6.1c-6.5,1.1-12.8,3-18.8,5.7c1.1,1.9,2.4,3.6,3.9,5.2l-8.2,5.3c2.8,0.7,4.2,4.5,2.6,6.8
	c2.9-1.3,4.7-4.6,7.7-5.3c2-0.4,4.1,0.4,6,1.2c1.9,0.8,4,1.5,6,0.9s3.4-3.1,2.2-4.8c8.5-2.5,17.2-3.8,26-4.1c0.7-0.1,1.4,0,2,0.4
	c1.1,0.8,0.8,2.5,0.8,3.9c-0.1,1.4,1,3.2,2.3,2.6c-1.5,1.3-0.2,3.7,1.2,5s3.1,3.2,2.2,4.9c-0.2,0.5-0.6,0.8-0.8,1.3
	c-0.6,1.4,0.4,2.9,1.6,3.8s2.7,1.5,3.5,2.8c0.8,1.2,0.5,3.4-1,3.6l-4.2-5.4c-1.4,1.5-2.4,3.4-2.9,5.4c4.5,3.7,5.2,11.1,1.4,15.5
	c-1.9,2.3-4.6,3.6-7,5.4s-4.6,4.3-4.6,7.2c0,5.1-0.4,9.8,1.5,14.6c3.5,8.7,7.6,17.2,12.2,25.4c1.2,2.2,2.8,4.5,5.2,4.9
	c-3.1-7.5-5.9-15.2-8.3-22.9c1.6,0,3.5,0.1,4.4,1.4c0.8,1.1,0.6,2.5,0.9,3.9c0.3,1.3,0.8,2.5,1.5,3.6l14.7,26.3
	c1.2,2.2,2.6,4.5,5,5.4c1.5,0.6,3.2,0.5,4.6,1.3c1.1,0.6,1.8,1.8,2.9,2.4c3.1,1.7,7.4-1.6,10.3,0.5c0.8,0.6,1.4,1.5,2.1,2.2
	c2.7,2.3,7.1,0.8,10.2,2.5c2,1.1,3,3.3,4.1,5.4c2.7,5.1,7,10,12.7,10.4c1.8,0.1,3.6-0.2,5.4,0.2c1.8,0.4,3.5,1.9,3.2,3.7
	c-0.5,3,1,6.4,0.6,9.4c-0.7,5.6-8.6,8-9.3,13.6c-0.1,1.2,0.1,2.5-0.2,3.7c-0.4,1.5-1.5,2.7-1.8,4.1c-0.7,2.8,1.2,5.5,3.4,7.4
	c2.2,1.9,4.8,3.5,5.9,6.1c1.3,2.7,0.6,5.9,1,8.9c0.9,6.5,6.5,11.4,12.3,14.5c1.8,1,3.7,1.9,4.8,3.5c1.5,2.2,1.3,5,1.8,7.6
	c1.2,6.3,6.5,11.5,6.7,17.9c0.1,4.6-2.4,8.7-3.9,13c-2.9,8.3-2,17.5,2.5,25.2c1.1,1.9,2.5,3.7,3.3,5.8c1.4,3.7,1,7.9,2.3,11.7
	c1.7,4.9,6.5,9,6.1,14.3c2.2,4.5,7,6.7,11.8,8.1l8.7,2.4c1.7,0.5,3.4,0.9,5.1,0.6c1.7-0.3,3.3-1.7,3.3-3.5c-4.2-1-8.6-2-12.1-4.6
	s-5.9-7.2-4.6-11.3c0.6-1.9,1.9-4.1,0.7-5.7c-0.7-0.9-2-1.1-2.8-2c-1.3-1.3-0.8-3.5,0.1-5s2.2-3,2.6-4.7c0.4-2-0.5-4.1-2.3-5.1
	c1.6-0.6,3.1-1.5,4.3-2.7c1.1-1.3,1.6-3.3,0.8-4.7c2.6,0.3,5.7,0.5,7.5-1.5c1.4-1.6,1.3-4,0.7-6.1c-0.5-2-1.5-4-1.5-6.2
	c6.1,0.3,12.2,0.1,18.2-0.6c-0.9-2.9-2.9-5.4-5.5-6.9c2.7-0.5,5.2-3.7,6.1-6.4c0.9-2.6,0.6-5.5,0.1-8.2c-0.2-0.7-0.2-1.4-0.1-2.2
	c0.3-1,1.3-1.6,2.2-2.1l13.6-7.8c0.8-0.4,1.5-0.9,2.2-1.6c1.4-1.7,1.2-4.2,0.5-6.3s-1.9-4-2.2-6.2c-0.8-6.5,6.1-11.2,8.5-17.3
	c0.9-2.4,1.1-5,1.3-7.6c0.2-2.8,0.2-6-1.9-7.7c-2-1.7-5.2-1.3-7.3-2.9c-1.9-1.5-2.6-4.3-4.7-5.5c-1.9-1.1-4.4-0.4-6.5-0.9
	c-3.8-0.9-6.2-5.2-10-5.6c-2.2-0.2-4.6,0.8-6.4-0.4c-1.6-1.1-1.6-3.4-1.9-5.3c-1.1-6.1-5.8-10.8-11.9-11.9c-2.2-0.4-4.7-0.2-6.6-1.5
	s-2.8-3.6-4.3-5.3c-2.5-2.8-6.3-3.8-9.9-4.6l-14.7-3.5c-2.6-0.6-6-0.9-7.4,1.3c-0.4,0.9-0.7,1.8-0.9,2.7c-1.1,3.5-4.3,6-8,6
	c-1.2-2.1-3.2-3.7-5.6-4.3c-1.5-0.4-3.1-0.5-4.5-1.1c-3.1-1.5-4.5-5.3-2.9-8.5c0.1-0.1,0.1-0.2,0.2-0.3c1.7-3.1,1.2-7-1.3-9.5
	c-2.5-2.2-6.1-2.8-9.5-2.6c-0.9-1.9,0.6-4.1,2.2-5.5s3.5-2.8,3.9-4.8c0.5-3.3-3.6-5.8-6.8-4.8s-5.2,4.1-6.5,7.1
	c-0.8,1.7-1.4,3.6-2.6,5c-1.2,1.5-3.2,2.5-5,2c-2.6-0.7-3.6-3.8-4.2-6.4c-0.8-3.5-1.6-7.1-1.4-10.7s1.4-7.3,4-9.8
	c4.3-4,11-3.6,16.9-3c-1.4-1.6-1-4.2,0.4-5.7c1.6-1.4,3.8-1.9,5.8-1.4c1.8,0.4,3.4,1.3,4.5,2.7c1.7,2,2.1,4.8,3.4,7.1
	c1.3,2.3,4.1,4.3,6.4,3c2-1.1,2.3-3.8,1.8-6.1c-0.5-2.2-1.6-4.4-1.4-6.6c0.3-4.3,4.8-6.9,8.8-8.7c3.9-1.8,8.5-4.2,9.1-8.4
	c0-0.8,0.2-1.7,0.5-2.5c0.4-0.7,1-1.3,1.8-1.7c11.5-7.6,23.2-15.3,36.4-19.5c0.7-0.2,0.8,0,1.5-0.1c1-0.6,0.3-2.1-0.6-2.8
	c-0.9-0.6-2.2-1.1-2.4-2.2c-0.2-0.8,0.3-1.6,0.4-2.4c0.3-2-2.1-3.9-4-3.1c-1.1-1.4,1-3,2.7-3.5c5.1-1.4,10.3-2.2,15.6-2.5
	c0.6-0.1,1.2,0,1.8,0.3c0.9,0.6,0.8,2,0.1,2.9c-0.6,0.9-1.6,1.4-2.4,2.2c-1.7,1.7-2.4,4.2-1.7,6.5c2.7,1.4,5.7,2.8,8.8,2.3
	c3-0.5,5.7-3.9,4.3-6.6c-1.3-2.5-5.3-3.1-6-5.9c-0.8-3.3,3.8-6.2,2.8-9.4c-0.5-1.4-1.8-2.2-2.9-3.2c-2.6-2.5-3.3-6.4-1.9-9.7
	c-3.5,0.6-7.2-0.5-9.7-3c-2.3-2.3-4.2-6-7.5-5.9c-3,0.1-5.6,3.6-8.5,2.5c-0.7-0.3-1.4-0.8-2.1-0.5c-0.4,0.3-0.7,0.8-0.8,1.3
	c-0.7,3.4,0.5,7.4-1.4,10.3c-2,3.2-6.8,3.7-9.2,6.6c-1.3,1.6-1.9,3.7-3.1,5.4c-1.2,1.7-3.9,2.7-5.3,1.3c1.5-3.1,0.7-6.8-2-8.9
	c-1.4-0.9-2.9-1.6-4.4-2.1c-1.7-0.7-3.4-1.7-4.9-2.7c-0.8-0.5-1.4-1.1-1.8-1.9c-0.3-1-0.3-2.1,0.1-3.1c1.5-4.4,5.4-7.6,10-8.2
	c2-0.3,4.3-0.2,5.6-1.7c0.7-0.8,1.1-2,2.1-2.3c0.6-0.1,1.3,0,1.9,0.2l7.4,2.6c0.8,0.4,1.7,0.5,2.6,0.4s1.6-0.9,1.5-1.9
	c-0.2-1.2-2.1-1.8-1.9-3c0.1-0.4,0.3-0.8,0.6-1c5.4-5.7,13-8.7,20.9-8.2c0.9,1.5-0.5,3.3-1.8,4.6s-2.2,3.6-0.7,4.6
	c0.6,0.3,1.3,0.5,2,0.4c1.8,0.2,3.6,0.8,5.2,1.6c2.5,1.1,5,2.3,7.5,3.6c-0.2-1.6-0.4-3.3,0.2-4.8s2.3-2.7,3.9-2.1
	c1.5,0.6,2.2,2.5,3.8,2.7c2.1,0.2,2.9-2.8,2-4.7c-0.9-1.9-2.6-3.5-2.7-5.6c-0.1-1.4,0.4-3.2-0.7-4c-0.4-0.3-0.9-0.4-1.3-0.5
	l-28.1-5.2c-1.7-0.3-4.1-0.1-4.1,1.6c0,0.9,0.8,1.9,0.4,2.7c-0.4,0.9-1.7,0.8-2.7,1.2c-1.5,0.5-2.2,2.3-2.1,3.8
	c0.3,1.5,0.9,3,1.8,4.3C373.6,235,370.8,234.8,369,234.1z"/>
<path class="st0" d="M346.6,210.2c-3.6-1.2-7.6,0-10,3c-0.5,0.6-0.8,1.4-0.5,2.1c0.6,0.9,2,0.6,3,0.2c1.5-0.5,3.2-0.6,4.8-0.1
	c1,0.3,1.9,0.9,2.8,1.3c1,0.4,2.1,0.2,2.9-0.4c0.7-0.7,0.7-1.8,0.7-2.7c0.1-0.7-0.1-1.3-0.6-1.8c-0.4-0.2-0.8-0.4-1.3-0.4
	c-1-0.2-1.9-0.7-2.6-1.5"/>
<path class="st0" d="M356.7,207.4c-1.3-0.1-2.4,0.9-2.4,2.2c0,0.4,0,0.7,0.2,1.1c1.2,0.3,2.5,0.4,3.7,0.2c1.3-0.2,2.3-1.1,2.6-2.4
	c-1.5,0.3-3,0-4.3-0.8"/>
<path class="st0" d="M390.7,202.7c-3.3,0.7-6.5,1.8-9.6,3.3c3,1.1,4.8,4.1,4.6,7.2c-0.1,0.6-0.1,1.2,0,1.8c0.4,0.9,1.4,1.2,2.3,1.4
	c1.6,0.5,3.3,0.7,5,0.6s3.3-1,4.1-2.5c0.2-0.7,0.5-1.4,0.9-2c2.1-3.3,8.5,0.7,10.8-2.5c0.8-1.1,0.7-2.8,1.8-3.7
	c0.5-0.4,1.2-0.6,1.8-0.7c4.6-0.9,9.3-1.6,14-2c2.2-0.2,5.1-1,5.2-3.2c-8.4-1.7-17.1-0.5-24.8,3.3c-2.8,1.4-6.4,4.3-9.1,2.5
	c-1-0.7-0.9-2.5-2.3-3.3C394,202.1,392.2,202.4,390.7,202.7z"/>
<path class="st0" d="M418.2,207.9l3.9,0.8c-2.8-0.1-5.2,2.1-5.3,4.9c0,0.2,0,0.4,0,0.7c3.7,1.2,7.7,0,11.6,0.2s8.4,2.9,7.8,6.8
	c-0.2,1.2-0.9,2.3-0.5,3.4c0.2,0.8,0.9,1.3,1.3,2.1c0.8,1.5,0.2,3.4-0.9,4.8c-1,1.4-2.4,2.5-3.3,3.9c-2.3,3.6-1,8.3,0.4,12.4
	c0.4,1.5,1.1,3,2.1,4.2c2,2.1,5.2,2.3,8.1,2.3c2.1,0,4.5-0.1,5.9-1.7c1.7-2.1,0.5-5.5,1.7-8c1-2.3,3.7-3.3,6.1-4
	c4.4-1.3,8.9-2.4,13.1-4.3c5.2-2.4,10-6.1,15.7-6.4c1.6-0.1,3.2,0.1,4.8-0.3s3-1.8,2.9-3.4c-0.1-1.4-1.3-2.4-2.2-3.4
	s-1.6-2.6-0.8-3.7l14.9-2.8c-1.1-2.9-1.9-6.7,0.5-8.6c0.9-0.7,2.1-0.9,2.8-1.8c1.3-1.4,0.6-3.8-0.8-5c-1.5-1.2-3.5-1.5-5.3-1.6
	c-6.5-0.5-13.1-0.2-19.7,0.2c-12.8,0.7-25.6,1.4-38.5,2.1c-2.6,0.1-5.6-0.1-7.9,0.8c-2,0.7-3.4,2.1-5.7,2.6
	C426.6,206.1,422,205.5,418.2,207.9z"/>
<path class="st0" d="M488.9,239.1c-0.4-0.1-0.8,0-1.1,0.3c-0.2,0.2-0.4,0.6-0.4,0.9c-0.3,1.5,0,2.9,0.8,4.2c0.8,1.2,2.3,1.9,3.8,1.8
	c1.8-0.2,3.1-1.7,4.7-2.5c2.5-1.1,13.2-2.9,5.8-6.9c-2.5-1.4-4.2-0.2-6.2,0.7C494,238.7,491.4,239.2,488.9,239.1z"/>
<path class="st0" d="M553.6,205.6c-0.9,0.4-1.6,1-2.1,1.8c-0.4,0.9-0.2,1.9,0.7,2.4c0.3,0.1,0.7,0.2,1,0.2l3.5,0.1
	c1.5,0,3.4,0.4,3.8,1.8c0.3,1.1-0.4,2.4,0.4,3.2c0.3,0.3,0.8,0.4,1.2,0.5c1.2,0.3,2.4,0.3,3.5,0.1c2.6-0.7,1.2-2.2,2-3.6
	c1.2-2.1,1-0.8,3.2-2.1c1.6-0.9,3.7-2.5,2.3-4.8C570.9,201.1,557.1,203.9,553.6,205.6z"/>
<path class="st0" d="M622.9,203.6l-2,0.3c-4.6,0.6-9.2,1.2-13.7,2.6c1.9,0.8,3.9,1.3,6,1.5c1.1,0.1,2.2,0.2,3.3,0.5
	c2,0.6,3.9,2.1,5.8,1.3c1.2-0.5,1.6-1.7,2.5-2.3c0.7-0.4,3.2-1.2,3.5-1.6C630.7,202.1,624.7,203.4,622.9,203.6z"/>
<path class="st0" d="M631.9,212.9c-2.7,1.5-5.3,3.4-7.5,5.5c-1,0.9-1.9,2-1.8,3.3c0.1,1.7,2,2.8,3.6,3.4l6.5,2.8
	c0.8-1.1,0.1-2.7-0.8-3.7c-0.8-1.1-1.8-2.4-1.4-3.7c0.4-1.5,2.2-2,3.8-2.3c2.5-0.4,9.3-0.4,8.5-4.4
	C641.7,209,634.4,211.5,631.9,212.9z"/>
<path class="st0" d="M630.6,482.1c-0.6,1.8-0.7,3.9,0.4,5.5c1.2,1.8,3.6,2.4,5.7,2c2.1-0.6,3.9-1.7,5.3-3.4c1.2-1.4,2.3-3,3-4.7
	c1.1-2.7,1.8-5.4,2.3-8.3l2-10.6c0.5-2.4,0.4-9.7-3.9-7.3c-1.2,0.6-4,5.8-5.2,7.2c-2.3,2.6-2.6,5.2-3.7,8.3
	C634.9,474.9,632,478.2,630.6,482.1z"/>
<path class="st0" d="M861.1,536.5c-1.4-0.6-2.8-1.2-4.1-2c-1.3,3.7-2,7.5-2.1,11.5l9.8-5.5c1.5-0.8,3.1-2,3.1-3.7
	c0-0.4-0.2-0.8-0.5-1.1c-0.2-0.1-0.5-0.1-0.7-0.1c-1.4,0.1-2.8,0.8-4.1,1.3s-3,0.8-4.2,0"/>
<path class="st0" d="M912.7,539.8c-1.1,0.3-2.1,0.7-3.1,1.1c-2.2,1.1-3.8,3.3-5.8,4.8c-1.9,1.4-4.3,2.2-6.5,3
	c-0.7,0.6-0.4,1.8,0.4,2.3c0.8,0.4,1.7,0.6,2.6,0.6c2.4,0.1,4.9,0.1,6.9-1.1c1.2-0.8,2.3-1.6,3.3-2.6c2.4-2,5.3-3.4,8.2-4.7
	c1.1-0.4,2-1,2.9-1.7c1.8-1.8,1.9-4.5-0.7-5.2C918.7,535.9,914.7,539.1,912.7,539.8z"/>
<path class="st0" d="M935.5,524.9c0.2-2.5-0.7-5-2.5-6.7c0,2.5-0.1,5.1-1.5,7.1c-1,1.4-2.5,2.4-3.6,3.8c-1.1,1.4-1.6,3.6-0.3,4.8
	c0.8,0.6,1.8,1,2.8,1c2.5,0.3,5.4,0.5,7.2-1.4c1-1,1.4-2.5,2.6-3.2c0.4-0.2,0.8-0.5,1.1-0.8c0.5-0.8-0.3-1.8-1.2-2.1
	s-1.8-0.1-2.7-0.4c-0.9-0.3-1.7-1.2-1.2-2"/>
<path class="st0" d="M895,434.7c-1.3,0.3-2.7,0.4-4,0.2c-2.2-0.4-4-2.1-5.8-3.5c-4.3-3.3-9.5-5.1-15-5.2c-4.9-0.1-9.9,1.2-14.7,0.3
	c0.3,1.8,1.8,3.1,3.4,3.9s3.4,1.2,5,1.9c2.6,1.2,4.6,3.4,5.8,6c0.5,1.2,0.8,2.5,1.6,3.6c1.6,2.2,4.7,2.6,7.3,2.5
	c3.5-0.2,7.2-1.2,10.4,0.1c2.5,1,4.3,3.2,6.4,4.9s5,3,7.4,1.7c-5.1-1.7-8.5-6.4-8.5-11.8c2.3,0.2,9.1,0.1,8.7-3.9
	C902.8,432.1,897,434.3,895,434.7z"/>
<path class="st0" d="M864.3,462.2c0.4-2.3,2.7-4.3,2-6.5c-0.5-1.5-2.3-2.3-3.9-2.3s-3.2,0.4-4.8,0.5c-1-0.1-2.1,0-3.1,0
	c-3.2,0.5-5.2,3.9-8.2,5.1c-1.8,0.7-3.9,0.6-5.8,1.1c-4.3,1.1-7,5.2-10.1,8.5c-4.9,5.3-11.2,9-18.2,10.6c-2.5,0.6-5.1,0.9-7,2.5
	c-2.6,2.1-3.2,5.7-3.8,9c-1.6,9.1-4,18-7.2,26.6l10.2,1.3c1.9,0.2,4,0.5,5.8-0.1c1.4-0.5,2.7-1.2,3.8-2c4.6-2.8,9.7-4.7,15-5.4
	c2.7-0.4,5.5-0.4,8,0.6s4.7,3.3,4.9,6c2.2-0.7,4.6-0.1,6.3,1.5c1.6,1.6,2.7,3.7,3,6c0.3,1.4,0.5,3.1,1.8,3.7c1.1,0.5,2.3,0,3.4-0.1
	c3.9-0.3,7.2,4.3,11.1,3.5c4.2-0.8,5.2-7.1,9.2-8.3c2.3-0.7,5.6,0.2,6.7-2c1-1.9-1-4.1-0.8-6.2c0.2-2.6,3.4-3.7,5.7-4.9
	c8.2-3.9,12.2-15,8.2-23.1c-2.4-4.8-7-8.7-7.9-14c-0.7-4.1,1-8.9-1.7-12.1c-1.3-1.6-3.6-2.5-4.4-4.5c-0.5-1.2-0.3-2.6-0.6-3.9
	c-0.3-1.3-1.4-2.7-2.7-2.3c-3.7,1-4.9,12.5-6.9,15.3C869.5,470.3,863.3,467.5,864.3,462.2z"/>
<path class="st0" d="M795.3,439.1c-1.3-0.4-2.7-0.7-3.9-0.2s-1.9,2.3-1,3.2c7.7-0.3,15.4-0.6,23,0.4c8.8,1.2,17.4,4.2,26.2,3.3
	c-5-1.5-10.1-2.7-15.3-3.6l-8.6-1.6c-2.3-0.5-4.6-0.8-7-1.1C803.8,439.1,800.1,440.4,795.3,439.1z"/>
<path class="st0" d="M803,412.3c-0.6-0.1-1.4-0.1-1.8,0.4c-0.3,0.5,0,1.2-0.1,1.8c-0.2,0.8-1.3,1-2.1,0.9s-1.7-0.4-2.5,0
	c-0.8,0.5-1.1,1.5-0.8,2.4c0.3,0.8,0.8,1.6,1.4,2.3c1.1,1.4,2.3,2.6,3.7,3.7c2.6,1.9,6.2,2.9,7.9,5.7c0.2,0.5,0.6,1,1.1,1.4
	c0.8,0.5,1.8,0.1,2.7-0.3l3-1.4c0.5-0.2,1-0.5,1.4-1c0.7-0.9,0.3-2.3-0.3-3.3s-1.3-2-1.2-3.2c0.2-2.1,2.9-2.8,3.9-4.6
	c1.1-1.8,0.4-4.1,0.5-6.1c0.1-2.4,1.7-5.6-0.8-7.4c-2.1-1.5-4.1-0.1-5.6,1.6C810.3,408.9,808.8,412.8,803,412.3z"/>
<path class="st0" d="M821.2,376c1,2,3.2,3.1,4.3,5.1c1.2,2.1,1.1,4.8,2.4,6.8c1.4,2.1,4.1,3.2,4.8,5.5c0.8,2.6-1,5.7,0.4,7.9
	c1.1,1.5,3.2,1.7,4.7,0.6c0.1-0.1,0.1-0.1,0.2-0.2c1.3-1.4,1.2-3.6-0.1-5c-0.9-0.8-2.2-1.2-2.9-2.1c-0.4-0.5-0.6-1.2-0.8-1.8
	c-0.4-1.9-0.3-3.9,0.2-5.7c0.2-0.5,0.2-1,0.1-1.5c-0.3-1-1.6-1-2.6-1.5c-2.1-1-2-4-1.7-6.3c-0.2,1.5-5.7-1.1-6.3-1.9
	c-1.1-1.7-0.5-5-0.7-6.9C820.9,370.1,820,373.6,821.2,376z"/>
<path class="st0" d="M766.4,406.3c-1-1.1-2.5-2.3-3.9-1.6c-1,0.5-1.3,1.9-0.9,3c0.5,1,1.2,1.9,2.2,2.6c2.8,2.3,5.8,4.4,8.3,7.1
	c4.4,4.8,6.7,11.3,11.5,15.8c1,1,2.2,1.7,3.6,2c1.4,0.1,2.9-0.8,3.1-2.1c0.1-1.1-0.7-2.2-1.4-3c-1.9-2-3.9-3.9-5.6-6
	c-0.8-0.8-1.3-1.9-1.4-3c0-1.1,1-2.3,2.1-2c-1.3-0.3-2.3-2.6-4.3-3c-1.6-0.3-2,0.7-4-0.2C771.9,414.2,769,409.2,766.4,406.3z"/>
<path class="st0" d="M853.7,296.7c-1.1-0.3-2.1-0.7-3.1-1.1c-2.8-0.8-6.4,1.2-6,4.1c0.2,1.9,2,3.2,3,4.8c1.4,2.4,1.1,5.5,0.3,8.3
	c-0.2,0.8-0.5,1.6-1,2.4c-0.7,0.7-1.5,1.4-2.5,1.8c-3.7,2.1-7,4.9-9.7,8.2c-0.3,0.3-0.5,0.7-0.6,1.1c-0.1,1,0.8,1.7,1.4,2.5
	c1.2,1.8,0.3,4.2,0.5,6.4c0,0.6,0.2,1.2,0.8,1.6c0.7,0.4,1.6-0.3,2-1c1.3-2.4,0.3-6.2,2.8-7.4c0.5-0.2,1-0.3,1.3-0.7
	c0.5-0.7,0-1.6,0.3-2.4c0.4-1.2,2-1.2,3.2-1.2c2.1,0.1,4.2-0.2,6.3-0.8c0.8-0.2,1.5-0.6,2.1-1.2c0.7-0.9,0.7-2.2,0.5-3.4
	c-0.7-5.9-2.6-11.5-5.5-16.7c2.2,0.3,4.5,0.5,6.4-0.6c1.1-0.6,2.3-2.5,1.8-3.8C857.1,295.3,855.6,297.1,853.7,296.7z"/>
<path class="st0" d="M574.6,329c0.3,1.4,0.5,2.9,0.1,4.2c-0.5,1.3-1.9,2.5-3.3,2.1c-1.1-0.3-1.7-1.4-2.4-2.2
	c-4.2-4.5-13.6-1.9-16.2-7.5c-1.1-2.3-0.3-5-1.1-7.4c-0.9-2.9-3.7-4.7-6.7-4.5c-1.3,0.2-2.6,0.6-3.8,1.1c-8.1,3.3-16.7,5.4-25.4,6.4
	c-1.7,0.1-3.3,0.4-4.9,0.9c-3.6,1.3-6,4.6-7.8,8c-1.7,3.4-3,7.1-5.4,10.1c-2.5,3.2-5.9,5.4-9.1,7.8c-1.2,0.8-2.3,1.9-3,3.1
	c-0.7,1.4-0.7,3.1-0.6,4.7l0.7,19.3c0.1,2.5,0.2,5,1.3,7.3c1.4,2.8,4.1,4.6,6,7c1.9,2.5,2.9,5.6,2.9,8.8c0,1.3-0.2,2.8,0.8,3.6
	c0.6,0.4,1.3,0.6,2,0.6l26.1,2.1c4.6,0.4,9.7,1,12.7,4.5c1.4,1.6,2.5,4,4.7,4.2c0.9,0.1,1.8-0.3,2.8-0.4c2.3-0.2,4.4,1.6,5.7,3.6
	c2,3,2.9,6.5,2.5,10.1c-0.2,2.2-0.9,4.4-1.1,6.6c-0.6,8.5,6.7,15.9,6.8,24.5c0.1,5-2.3,9.7-4.6,14.2c3.8,5.7,0.7,13.2,2.2,19.9
	c1.4,6.3,6.7,11.2,8,17.6c0.6,2.9,0.6,6.5,3.2,8c1.1,0.5,2.4,0.8,3.6,0.7c7.5,0.1,14.9-1.6,21.7-4.9c3.2-1.6,6.4-3.9,7-7.4
	c0.4-2.8-1-5.9,0.5-8.4c1.7-2.9,6.1-2.7,8.6-4.9c4.1-3.6,0.9-10.5,2.5-15.6c1.5-4.7,6.6-7.1,9.1-11.3c1-1.8,1.7-3.7,2.1-5.7
	c1.2-4.8,1.9-9.7,2.2-14.7c0.1-3,0.3-6,0.7-9c2.7-17,19.5-28.3,24.9-44.6c0.5-1.6,0.8-3.6-0.6-4.5c-0.8-0.4-1.8-0.5-2.6-0.3l-12,1.5
	c-1.5,0.2-3.1,0.4-4.4-0.3s-2.4-2.4-1.6-3.7c2-3.7-2.2-8.4-4-12.2c-5-10.2-11-19.9-17.9-29c-0.4-0.5-0.7-1.1-0.8-1.7l3.4,0.1
	c-1.2-4.1-3.1-8.7-7.1-10.2c-2.3-0.9-4.8-0.6-7.2-0.4C588.9,331.1,581.5,330,574.6,329z"/>
<path class="st0" d="M595.8,235.9c1.8,1.9,3.8,4,6.5,4.3c4.6,0.6,7.9-4.2,10.1-8.3c0.2,2.2,2,3.9,4.3,3.8c1.1-0.2,2.2-0.6,3.2-1.3
	c9.2-5,19.4-7.7,29.8-7.7c-0.2-1.6,0.9-3.2,2.5-3.5c2.1-0.4,4,1.4,5.1,3.3c1,1.9,1.7,4.1,3.3,5.5s4.8,1.4,5.4-0.7
	c0.6-2-1.4-3.7-3.2-4.8c-1.7-1.2-3.5-3.3-2.4-5.1c8.8-1.9,17.6-3.9,26.6-4.3c1.5,0.1,3-0.2,4.5-0.8c1.4-0.7,2.5-2.2,2.1-3.7
	c-4,0.9-8.2-0.6-10.6-4c12.4-1,25.7-1.9,36.7,4c1.3,2.8-5.4,5.2-3.6,7.8c0.6,0.8,1.7,0.9,2.7,0.9c7.7,0.1,15.4,0.3,23-0.9
	c2.8-0.4,5.6-1,8.3-0.7c4.6,0.6,8.6,3.7,13.1,4.7c1.9,0.4,3.9,0.4,5.5-0.7s2.2-3.5,1-4.9c4.3-4.2,11.4-3.2,17.1-1.1
	c5.7,2,11,5.3,17,5.7c4.3,0.3,8.7-0.8,12.9-0.1c2.7,0.5,5.1,1.6,7.8,2.4c4.9,1.4,10.1,1.1,15.3,1.2c13.1,0.2,26,2.7,38.1,7.6
	c1.6,0.5,3,1.4,4.2,2.5c1.1,1.2,1.7,3.1,0.9,4.6l-12.5-1.8c1.2,2.3,4.2,2.7,6.7,3.5s5.1,3.5,3.6,5.7c-2.7-0.9-5.1,1.8-6.5,4.3
	s-3,5.4-5.8,5.6c-2.5,0.1-5.6-2-7.2-0.1c2.3,2.9,4.2,6,5.8,9.3c1.6,3.4,2.8,7.7,0.6,10.7c-0.3,0.5-0.9,1-1.5,1.1
	c-1.8,0.5-3-1.7-4.2-3.1c-1.6-1.7-4.1-2.2-6.3-2.9c-2.2-0.8-4.5-2.3-4.7-4.7c-0.1-1.4,0.7-2.8,1.2-4.1c0.9-2.3,1.4-4.7,1.2-7.1
	c-0.1-2-0.7-4-2.1-5.4c-1.4-1.4-3.8-1.8-5.4-0.6c-0.7,0.6-1.3,1.5-2.2,1.6c-1.6,0.1-2.9-2.8-4.2-1.8c0.2,1-0.1,2.1-0.6,3
	c-3.9,3.4-9.9,2-14.9,3.1c-2.4,0.7-4.7,1.7-6.8,3c-0.8,0.3-1.5,0.9-1.9,1.6c-0.6,1.2,0.1,2.8,1.2,3.6c1.2,0.7,2.5,1.2,3.9,1.3
	c6.1,1.2,12.3,3,17.1,6.9s8,10.4,6.5,16.5l-12.1-11.5c0.5,4.8,0.7,9.7,0.8,14.6c0.1,0.9-0.1,1.9-0.4,2.8c-0.9,1.9-3.2,2.5-5.2,3
	c-2.2,0.4-3.7,2.6-3.3,4.8c0,0.2,0.1,0.3,0.1,0.5c0.7,2.4,2.5,4.2,4.2,6s3.3,3.9,3.5,6.4s-1.6,5.2-4.1,5.1c-1.9-0.1-3.3-1.8-4.1-3.5
	s-1.3-3.6-2.5-5c-3.6-4.4-11.8-2.5-15-7.1c-1.7,1.9-2.3,4.6-1.5,7c1.5-0.9,3.6-0.1,4.7,1.3s1.7,3.1,2.6,4.7c1.2,2.1,3.1,3.9,3.3,6.3
	c0,0.9,0,1.8,0,2.7c0.3,1.5,1.5,2.5,2.4,3.7c2,2.8,1.9,6.7,0.6,9.9c-1.3,3.2-3.6,5.9-5.9,8.5c-4,4.5-8,9.1-12.7,12.8
	c-1.3,1.1-2.8,2.1-3.6,3.6s-0.9,3.6,0.4,4.8c-0.9,0-2.6,0.5-3.5,0.5c-0.3-3.7-0.4-7.4-0.2-11.1c-3.6-1.7-7.5,2.9-7.1,6.9
	c0.5,4,3.4,7.2,5.4,10.7c1.5,2.5,2.6,5.5,2.1,8.4s-3.1,5.6-6,5.3c-4.7-0.4-6.6-7.1-11.3-7.9c-0.4-0.1-0.8-0.1-1.2,0.1
	c-0.7,0.4-0.8,1.3-0.8,2.1c-0.2,3.8-0.4,7.8,1.1,11.4c2.2,5.2,7.9,9.5,6.7,15c-6.4-3-9.7-10.2-11.2-17c-1.5-6.9-1.8-14.1-4.5-20.7
	c-2.1,2.6-6.4,0.5-8.3-2.3c-1.8-2.6-2.9-5.7-4.6-8.3c-1.7-2.7-4.4-5-7.5-5.2c-3.3-0.2-6.2,2.1-8.7,4.3c-2.1,1.8-4.2,3.6-5.4,6.1
	c-1.8,3.6-1.3,7.8-1.4,11.7c-0.1,4.3-1,8.8-3.9,12c-2.9,3.1-8.3,4.2-11.6,1.4c-1.7-1.5-2.5-3.7-3.2-5.8c-3.5-10.2-6.4-20.7-8.7-31.2
	c-0.5,2.4-2.7,5.5-4.7,4.1c-0.5-0.4-0.8-0.9-1.1-1.4c-3.8-6.4-10.8-10.2-17.8-12.5c-7.1-2.3-14.5-3.4-21.5-5.9
	c-3.9-1.4-7.7-3.3-11.1-5.5c-1.8,2.7-2,6.1-0.5,9c1.5,2.7,5.1,4.3,8.1,3.4c1.6-0.5,2.9-1.6,4.4-2.1s3.6-0.3,4.3,1.2
	c0.6,1.4-0.3,3.1,0.2,4.6c0.7,2.3,4.1,2.4,5.3,4.5c0.9,1.5,0.2,3.6-1.1,4.8s-3,1.9-4.5,2.8c-5,2.8-8.6,7.5-12.9,11.2
	c-4.4,3.7-10.6,6.4-15.8,4c1.2-6.3-6.3-10.9-7.6-17.2c-0.5-2.1-0.2-4.3-0.9-6.3c-0.9-2.9-3.5-4.9-5.6-7.1c-5.2-5.5-8-12.8-7.7-20.3
	c0.1-2.6,0.6-5.2,0-7.7s-2.7-5-5.3-4.9c-5.9,0.3-13.4,0.7-16.5-4.3c-1.1-1.8-1.6-4.4,0-5.8c1.1-1,2.8-0.9,4.3-0.7l13.3,1.3
	c3.1,0.3,6.5,0.6,9.2-1.1c2.7-1.6,3.8-6,1.4-7.9c-1.8-1.4-5.1-1.3-5.6-3.6c-0.4-1.9,1.6-4,0.5-5.5c-0.8-1.1-2.6-0.8-3.7,0
	c-1.1,0.8-1.9,2.1-3.1,2.7c-2.1,1.1-4.7,0.1-7-0.7s-5.4-0.8-6.5,1.3c-1.2,2.4,1.1,5.5-0.1,7.9c-1.6,3.1-7.1,1.4-9.4,4.1
	c-2.6,3.1,1.8,7.7,0.9,11.7c-2.3,1.1-5,1-7.2-0.4c-2.1-1.4-3.3-3.9-3-6.5c0.2-1.8,1.2-3.6,0.5-5.3c-0.5-1.4-1.9-2.2-3.1-2.9l-13-7.2
	c-1.2,2.2,0.3,5,2.2,6.7s4.3,2.9,5.5,5.1c1.6,3.2,0.5,7.1-2.5,8.9c-0.4,0.3-0.8,0.3-1.3,0.2c-0.4-0.2-0.7-0.6-0.8-1.1
	c-2.3-5.8-5.7-11.6-11.2-14.7s-13.4-2.4-17,2.7c-0.9,1.2-1.4,2.6-2.2,3.9c-4,6.9-12.4,10.1-20.4,9.9c-0.8,0-1.5-0.1-2.2-0.5
	c-1.3-0.9-1.2-2.8-1-4.3l0.8-6.5c0.2-1.3,0.4-2.8,1.4-3.6c1.5-1.2,3.6-0.4,5.5-0.5c2.9-0.1,5.4-2.1,6.3-4.8c0.8-2.8-0.1-5.8-2.2-7.7
	c-0.9-0.8-2-1.8-1.6-2.9c0.4-0.6,1-1,1.7-1.1c3.4-1,6.9-1.2,10.2-2.4c3.3-1.2,6.5-3.5,7.3-6.9c0.2-1,0.3-2.3,1.3-2.8
	c0.5-0.2,1-0.3,1.5-0.3c3.7-0.5,6.4-3.8,6.2-7.5c1.6-1.1,3.8-0.3,5.3,0.9c1.5,1.2,2.9,2.7,4.7,3.2c3.5,0.9,6.8-2.1,10.4-2.1
	c1.5,0,3.1,0.5,4.5,0s2.3-2,3.4-3c1.1-1.1,3-1.7,4.1-0.6l-0.9-6.4c3.5,0.9,7.3,0.2,10.3-1.9l-11.2-3.8c-0.4-0.1-0.8-0.3-1.1-0.6
	c-0.8-0.9,0-2.3,0.7-3.3c1.6-2.4,1.9-6.3-0.8-7.5c-1.8-0.8-3.8,0.2-5.5,1.1l-8.2,4.6c-0.3,1.6,1.6,2.4,2.8,3.5
	c2,1.7,2.1,4.7,0.4,6.7c-0.9,1-2.2,1.6-3.5,1.6c1.1,1.4,1.5,3.3,1.1,5L557,262c-0.6,0.1-1.3,0-1.8-0.3c-0.6-0.5-0.5-1.4-0.6-2.2
	c-0.3-1.9-2.2-3.2-4-3.5c-1.9-0.3-3.8,0.1-5.7,0.5c-0.8,0.3-1.7,0.3-2.4-0.1c-0.4-0.3-0.8-0.7-1-1.2c-0.8-2-0.1-4.3,1.3-6
	c1.3-1.7,3.1-2.9,4.7-4.3c3.8-3.4,6.7-7.8,8.2-12.7c3-1.3,6.2-3,9.2-4.3c4.7-2.4,9.9-3.4,15.2-2.9l10.3,0.2c3,0.1,6.2,0.1,9,1.3
	c2.8,1.2,5.3,3.7,5.5,6.7c0.1,0.7-0.1,1.4-0.7,1.9c-0.4,0.2-0.8,0.3-1.3,0.3C599.9,235.1,598.6,235.8,595.8,235.9z"/>
<path class="st0" d="M513.7,268.2c0.8-0.8,1.1-1.9,0.8-3c-2-0.8-4.3-0.3-5.8,1.1c-0.6,0.6-1.1,1.3-1.6,2.1c-1.4,2.2-2.6,4.8-1.8,7.3
	c0.1,0.5,0.5,1,1,1.3c0.4,0.1,0.7,0.2,1.1,0.2c1.5,0,3-0.1,4.5-0.3c0.9-0.1,2-0.4,2.3-1.2c0.5-1.1-0.7-2.4-0.3-3.5
	c0.2-0.5,0.5-1,1-1.4c0.4-0.4,0.6-0.9,0.6-1.5c-0.1-0.5-1-0.9-1.3-0.4"/>
<path class="st0" d="M521.4,258.1c-1.3-0.3-2.7-0.4-4-0.3c-0.3,0-0.6,0.1-0.9,0.2c-0.3,0.2-0.4,0.5-0.5,0.8
	c-0.6,1.9,0.4,3.9,2.2,4.7c0.5,0.1,1,0.3,1.4,0.6c1.1,0.9,0.4,2.7,0.6,4.1c0.2,1.6,1.8,3,1.5,4.6c-0.2,1.3-1.6,2.3-1.4,3.5
	c0.2,1.3,1.9,1.7,3.2,1.8c0.8,0.1,1.6,0,2.3-0.3c0.7-0.5,1.2-1.2,1.4-2.1c0.5-1.6,0.8-3.3,0.7-5.1c0-0.8-0.2-1.5-0.6-2.2
	c-0.4-0.5-0.8-1.1-1.3-1.5C523.6,263.9,526.3,259.5,521.4,258.1z"/>
<circle class="st2" cx="294.9" cy="316.2" r="3.1"/>
<circle class="st2" cx="419.9" cy="450.9" r="3.1"/>
<circle class="st2" cx="278.1" cy="353" r="3.1"/>
<circle class="st2" cx="308.1" cy="278.1" r="3.1"/>
<circle class="st2" cx="300.1" cy="371.4" r="3.1"/>
<circle class="st2" cx="311.1" cy="376.4" r="3.1"/>
<circle class="st2" cx="324.1" cy="393.4" r="3.1"/>
<circle class="st2" cx="317.1" cy="385.4" r="3.1"/>
<circle class="st2" cx="388.1" cy="474.4" r="3.1"/>
<circle class="st2" cx="403.1" cy="501.4" r="3.1"/>
<circle class="st2" cx="398.1" cy="461.4" r="3.1"/>
<circle class="st2" cx="358.1" cy="520.4" r="3.1"/>
<circle class="st2" cx="368.1" cy="459.4" r="3.1"/>
<circle class="st2" cx="341.1" cy="451.4" r="3.1"/>
<circle class="st2" cx="328.1" cy="427.4" r="3.1"/>
<circle class="st2" cx="346.1" cy="402.4" r="3.1"/>
<circle class="st2" cx="508.1" cy="334.4" r="3.1"/>
<circle class="st2" cx="528.1" cy="331.4" r="3.1"/>
<circle class="st2" cx="548.1" cy="324.4" r="3.1"/>
<circle class="st2" cx="608.1" cy="351.4" r="3.1"/>
<circle class="st2" cx="578.1" cy="507.4" r="3.1"/>
<circle class="st2" cx="545.1" cy="399.4" r="3.1"/>
<circle class="st2" cx="653.1" cy="349.4" r="3.1"/>
<circle class="st2" cx="638.1" cy="351.4" r="3.1"/>
<circle class="st2" cx="618.1" cy="341.4" r="3.1"/>
<circle class="st2" cx="617.1" cy="331.4" r="3.1"/>
<circle class="st2" cx="644.1" cy="342.4" r="3.1"/>
<circle class="st2" cx="718.1" cy="361.4" r="3.1"/>
<circle class="st2" cx="788.1" cy="341.4" r="3.1"/>
<circle class="st2" cx="718.1" cy="281.4" r="3.1"/>
<circle class="st2" cx="768.1" cy="381.4" r="3.1"/>
<circle class="st2" cx="785.1" cy="383.4" r="3.1"/>
<circle class="st2" cx="828.1" cy="381.4" r="3.1"/>
<circle class="st2" cx="847.1" cy="320.4" r="3.1"/>
<circle class="st2" cx="827.1" cy="315.4" r="3.1"/>
<circle class="st2" cx="858.1" cy="491.4" r="3.1"/>
<circle class="st2" cx="911.1" cy="543.4" r="3.1"/>
<circle class="st2" cx="520.1" cy="307.4" r="3.1"/>
<circle class="st2" cx="511.1" cy="312.4" r="3.1"/>
<circle class="st2" cx="562.1" cy="308.4" r="3.1"/>
<circle class="st2" cx="580.1" cy="312.4" r="3.1"/>
<circle class="st2" cx="578.1" cy="299.4" r="3.1"/>
<circle class="st2" cx="587.1" cy="294.4" r="3.1"/>
<circle class="st2" cx="574.1" cy="288.4" r="3.1"/>
<circle class="st2" cx="568.1" cy="274.4" r="3.1"/>
<circle class="st2" cx="583.1" cy="278.4" r="3.1"/>
<circle class="st2" cx="583.1" cy="244.4" r="3.1"/>
<circle class="st2" cx="561.1" cy="251.4" r="3.1"/>
<circle class="st2" cx="548.1" cy="251.4" r="3.1"/>
<circle class="st2" cx="524.1" cy="271.4" r="3.1"/>
<circle class="st2" cx="510.1" cy="271.4" r="3.1"/>
<circle class="st2" cx="529.1" cy="289.4" r="3.1"/>
<circle class="st2" cx="548.1" cy="268.4" r="3.1"/>
<circle class="st2" cx="541.1" cy="276.4" r="3.1"/>
<circle class="st2" cx="548.1" cy="288.4" r="3.1"/>
<circle class="st2" cx="558.1" cy="287.4" r="3.1"/>
<circle class="st2" cx="585.1" cy="257.4" r="3.1"/>
<circle class="st2" cx="578.1" cy="263.4" r="3.1"/>
<circle class="st2" cx="547.1" cy="279.4" r="3.1"/>
</svg>
